<svg width="1078" height="260" viewBox="0 0 1078 260" fill="none" xmlns="http://www.w3.org/2000/svg">
<path d="M20 1H312C322.493 1 331 9.50659 331 20V240C331 250.493 322.493 259 312 259H20C9.5066 259 1 250.493 1 240V20C1 9.50659 9.50659 1 20 1Z" fill="#EDEEEF"/>
<path d="M20 1H312C322.493 1 331 9.50659 331 20V240C331 250.493 322.493 259 312 259H20C9.5066 259 1 250.493 1 240V20C1 9.50659 9.50659 1 20 1Z" stroke="#E1E4EA" stroke-width="2"/>
<path d="M116.094 133.781C112.677 133.781 109.698 133.229 107.156 132.125C104.615 131 102.594 129.448 101.094 127.469C99.6146 125.49 98.7708 123.208 98.5625 120.625L98.5312 120.219H107.531L107.594 120.562C107.74 121.646 108.167 122.615 108.875 123.469C109.604 124.302 110.573 124.969 111.781 125.469C113.01 125.948 114.438 126.188 116.062 126.188C117.688 126.188 119.094 125.927 120.281 125.406C121.469 124.865 122.385 124.125 123.031 123.188C123.698 122.229 124.031 121.135 124.031 119.906V119.844C124.031 117.677 123.271 116.021 121.75 114.875C120.229 113.729 118.104 113.156 115.375 113.156H110.219V106.438H115.25C116.833 106.438 118.208 106.177 119.375 105.656C120.542 105.135 121.438 104.417 122.062 103.5C122.708 102.562 123.031 101.49 123.031 100.281V100.219C123.031 98.9896 122.75 97.9479 122.188 97.0938C121.646 96.2188 120.844 95.5521 119.781 95.0938C118.74 94.6146 117.479 94.375 116 94.375C114.542 94.375 113.25 94.6146 112.125 95.0938C111 95.5729 110.104 96.25 109.438 97.125C108.771 97.9792 108.365 98.9896 108.219 100.156L108.188 100.438H99.5312L99.5625 100.062C99.7708 97.4375 100.573 95.1667 101.969 93.25C103.385 91.3125 105.292 89.8125 107.688 88.75C110.083 87.6667 112.854 87.125 116 87.125C119.25 87.125 122.062 87.625 124.438 88.625C126.833 89.6042 128.688 90.9792 130 92.75C131.312 94.5208 131.969 96.5938 131.969 98.9688V99.0312C131.969 100.906 131.552 102.552 130.719 103.969C129.885 105.385 128.75 106.552 127.312 107.469C125.896 108.385 124.312 109.031 122.562 109.406V109.594C125.917 109.906 128.594 110.99 130.594 112.844C132.615 114.698 133.625 117.156 133.625 120.219V120.281C133.625 122.969 132.896 125.323 131.438 127.344C129.979 129.365 127.938 130.948 125.312 132.094C122.688 133.219 119.615 133.781 116.094 133.781ZM161.125 133V124.719H138.688V116.844C139.896 114.927 141.104 113 142.312 111.062C143.521 109.125 144.729 107.198 145.938 105.281C147.146 103.344 148.344 101.417 149.531 99.5C150.74 97.5625 151.948 95.625 153.156 93.6875C154.365 91.75 155.573 89.8229 156.781 87.9062H170.094V117.188H176.031V124.719H170.094V133H161.125ZM146.906 117.438H161.312V94.7188H161.094C160.135 96.2188 159.188 97.7188 158.25 99.2188C157.312 100.719 156.365 102.219 155.406 103.719C154.469 105.198 153.521 106.698 152.562 108.219C151.625 109.719 150.677 111.219 149.719 112.719C148.781 114.198 147.844 115.688 146.906 117.188V117.438ZM190.969 111.125C188.802 111.125 186.938 110.646 185.375 109.688C183.812 108.729 182.604 107.365 181.75 105.594C180.917 103.823 180.5 101.729 180.5 99.3125V99.2812C180.5 96.8646 180.917 94.7812 181.75 93.0312C182.604 91.2604 183.812 89.8958 185.375 88.9375C186.938 87.9792 188.802 87.5 190.969 87.5C193.135 87.5 194.99 87.9792 196.531 88.9375C198.094 89.8958 199.292 91.2604 200.125 93.0312C200.979 94.7812 201.406 96.8646 201.406 99.2812V99.3125C201.406 101.729 200.979 103.823 200.125 105.594C199.292 107.365 198.094 108.729 196.531 109.688C194.99 110.646 193.135 111.125 190.969 111.125ZM190.969 105.938C192.219 105.938 193.177 105.375 193.844 104.25C194.51 103.104 194.844 101.458 194.844 99.3125V99.2812C194.844 97.1562 194.51 95.5312 193.844 94.4062C193.177 93.2604 192.219 92.6875 190.969 92.6875C189.698 92.6875 188.719 93.2604 188.031 94.4062C187.365 95.5312 187.031 97.1562 187.031 99.2812V99.3125C187.031 101.458 187.365 103.104 188.031 104.25C188.719 105.375 189.698 105.938 190.969 105.938ZM195.625 133H188.656L217.156 87.9062H224.094L195.625 133ZM221.812 133.406C219.646 133.406 217.781 132.927 216.219 131.969C214.656 131.01 213.448 129.646 212.594 127.875C211.76 126.104 211.344 124.01 211.344 121.594V121.562C211.344 119.146 211.76 117.062 212.594 115.312C213.448 113.542 214.656 112.177 216.219 111.219C217.781 110.26 219.646 109.781 221.812 109.781C223.979 109.781 225.833 110.26 227.375 111.219C228.938 112.177 230.135 113.542 230.969 115.312C231.823 117.062 232.25 119.146 232.25 121.562V121.594C232.25 124.01 231.823 126.104 230.969 127.875C230.135 129.646 228.938 131.01 227.375 131.969C225.833 132.927 223.979 133.406 221.812 133.406ZM221.812 128.219C223.062 128.219 224.021 127.656 224.688 126.531C225.354 125.385 225.688 123.74 225.688 121.594V121.562C225.688 119.438 225.354 117.812 224.688 116.688C224.021 115.542 223.062 114.969 221.812 114.969C220.542 114.969 219.562 115.542 218.875 116.688C218.208 117.812 217.875 119.438 217.875 121.562V121.594C217.875 123.74 218.208 125.385 218.875 126.531C219.562 127.656 220.542 128.219 221.812 128.219Z" fill="#181818"/>
<path d="M122.891 183.305C121.336 183.305 119.98 182.945 118.824 182.227C117.676 181.508 116.785 180.492 116.152 179.18C115.527 177.867 115.215 176.32 115.215 174.539V174.527C115.215 172.746 115.527 171.203 116.152 169.898C116.785 168.586 117.676 167.574 118.824 166.863C119.973 166.145 121.328 165.785 122.891 165.785C124.062 165.785 125.129 166.012 126.09 166.465C127.059 166.91 127.863 167.535 128.504 168.34C129.145 169.137 129.566 170.074 129.77 171.152L129.793 171.246H127.66L127.59 171.035C127.379 170.34 127.055 169.75 126.617 169.266C126.18 168.773 125.645 168.395 125.012 168.129C124.387 167.863 123.68 167.73 122.891 167.73C121.773 167.73 120.801 168.012 119.973 168.574C119.152 169.129 118.516 169.914 118.062 170.93C117.609 171.945 117.383 173.145 117.383 174.527V174.539C117.383 175.914 117.609 177.113 118.062 178.137C118.516 179.16 119.156 179.953 119.984 180.516C120.812 181.078 121.781 181.359 122.891 181.359C123.68 181.359 124.387 181.23 125.012 180.973C125.637 180.715 126.172 180.336 126.617 179.836C127.062 179.336 127.398 178.727 127.625 178.008L127.66 177.914H129.793L129.77 178.008C129.566 179.078 129.145 180.012 128.504 180.809C127.863 181.605 127.062 182.223 126.102 182.66C125.148 183.09 124.078 183.305 122.891 183.305ZM132.266 183V165.961H134.305V183H132.266ZM137.387 183V170.73H139.426V183H137.387ZM138.406 168.598C138.047 168.598 137.738 168.473 137.48 168.223C137.23 167.965 137.105 167.656 137.105 167.297C137.105 166.938 137.23 166.633 137.48 166.383C137.738 166.125 138.047 165.996 138.406 165.996C138.773 165.996 139.082 166.125 139.332 166.383C139.582 166.633 139.707 166.938 139.707 167.297C139.707 167.656 139.582 167.965 139.332 168.223C139.082 168.473 138.773 168.598 138.406 168.598ZM147.477 183.234C146.32 183.234 145.316 182.973 144.465 182.449C143.613 181.926 142.953 181.188 142.484 180.234C142.023 179.273 141.793 178.145 141.793 176.848V176.836C141.793 175.547 142.027 174.43 142.496 173.484C142.973 172.531 143.633 171.797 144.477 171.281C145.328 170.758 146.32 170.496 147.453 170.496C148.469 170.496 149.34 170.691 150.066 171.082C150.801 171.473 151.379 171.98 151.801 172.605C152.223 173.223 152.48 173.883 152.574 174.586L152.586 174.68H150.582L150.57 174.598C150.414 173.98 150.078 173.445 149.562 172.992C149.055 172.531 148.352 172.301 147.453 172.301C146.742 172.301 146.117 172.488 145.578 172.863C145.047 173.238 144.629 173.766 144.324 174.445C144.027 175.125 143.879 175.93 143.879 176.859V176.871C143.879 177.816 144.031 178.629 144.336 179.309C144.641 179.988 145.059 180.512 145.59 180.879C146.129 181.246 146.758 181.43 147.477 181.43C148.312 181.43 148.992 181.223 149.516 180.809C150.039 180.395 150.391 179.844 150.57 179.156L150.594 179.062H152.598L152.586 179.156C152.469 179.93 152.184 180.625 151.73 181.242C151.277 181.852 150.688 182.336 149.961 182.695C149.242 183.055 148.414 183.234 147.477 183.234ZM154.836 183V165.961H156.875V183H154.836ZM162.582 183L157.895 177.105L159.277 175.758L164.984 183H162.582ZM156.453 178.77L156.441 176.133H156.945L162.312 170.73H164.785L158.973 176.496L158.75 176.578L156.453 178.77ZM172.145 183V166.09H178.508C179.594 166.09 180.539 166.301 181.344 166.723C182.156 167.137 182.785 167.723 183.23 168.48C183.676 169.23 183.898 170.113 183.898 171.129V171.152C183.898 172.324 183.594 173.34 182.984 174.199C182.383 175.051 181.555 175.645 180.5 175.98L184.414 183H181.941L178.32 176.309C178.297 176.309 178.273 176.309 178.25 176.309C178.234 176.309 178.215 176.309 178.191 176.309H174.254V183H172.145ZM174.254 174.445H178.32C179.406 174.445 180.242 174.164 180.828 173.602C181.422 173.039 181.719 172.238 181.719 171.199V171.176C181.719 170.168 181.406 169.383 180.781 168.82C180.164 168.25 179.312 167.965 178.227 167.965H174.254V174.445ZM189.816 183.234C189.02 183.234 188.312 183.082 187.695 182.777C187.078 182.473 186.598 182.043 186.254 181.488C185.91 180.926 185.738 180.277 185.738 179.543V179.52C185.738 178.809 185.91 178.199 186.254 177.691C186.605 177.176 187.113 176.77 187.777 176.473C188.449 176.176 189.254 176 190.191 175.945L194.727 175.676V177.27L190.426 177.539C189.59 177.586 188.945 177.781 188.492 178.125C188.047 178.469 187.824 178.93 187.824 179.508V179.531C187.824 180.125 188.047 180.598 188.492 180.949C188.945 181.293 189.539 181.465 190.273 181.465C190.922 181.465 191.504 181.328 192.02 181.055C192.535 180.781 192.945 180.41 193.25 179.941C193.555 179.473 193.707 178.945 193.707 178.359V174.691C193.707 173.949 193.473 173.367 193.004 172.945C192.535 172.516 191.867 172.301 191 172.301C190.227 172.301 189.598 172.465 189.113 172.793C188.637 173.121 188.336 173.555 188.211 174.094L188.188 174.188H186.207L186.219 174.07C186.289 173.398 186.523 172.793 186.922 172.254C187.328 171.715 187.879 171.289 188.574 170.977C189.27 170.656 190.09 170.496 191.035 170.496C192.012 170.496 192.848 170.664 193.543 171C194.246 171.328 194.789 171.793 195.172 172.395C195.555 172.996 195.746 173.711 195.746 174.539V183H193.707V181.043H193.637C193.395 181.488 193.078 181.875 192.688 182.203C192.297 182.531 191.859 182.785 191.375 182.965C190.891 183.145 190.371 183.234 189.816 183.234ZM202.613 183.211C201.465 183.211 200.609 182.945 200.047 182.414C199.492 181.883 199.215 181.031 199.215 179.859V172.418H197.387V170.73H199.215V167.438H201.324V170.73H203.727V172.418H201.324V179.754C201.324 180.426 201.465 180.887 201.746 181.137C202.027 181.379 202.449 181.5 203.012 181.5C203.145 181.5 203.27 181.496 203.387 181.488C203.504 181.473 203.617 181.461 203.727 181.453V183.117C203.586 183.141 203.414 183.16 203.211 183.176C203.016 183.199 202.816 183.211 202.613 183.211ZM210.77 183.234C209.598 183.234 208.59 182.977 207.746 182.461C206.902 181.938 206.254 181.203 205.801 180.258C205.348 179.312 205.121 178.199 205.121 176.918V176.906C205.121 175.633 205.348 174.516 205.801 173.555C206.262 172.594 206.902 171.844 207.723 171.305C208.551 170.766 209.523 170.496 210.641 170.496C211.758 170.496 212.719 170.754 213.523 171.27C214.328 171.785 214.945 172.508 215.375 173.438C215.812 174.359 216.031 175.434 216.031 176.66V177.422H206.152V175.828H215.012L213.98 177.305V176.508C213.98 175.555 213.836 174.77 213.547 174.152C213.266 173.527 212.871 173.062 212.363 172.758C211.863 172.453 211.285 172.301 210.629 172.301C209.973 172.301 209.383 172.461 208.859 172.781C208.344 173.102 207.938 173.574 207.641 174.199C207.344 174.824 207.195 175.594 207.195 176.508V177.305C207.195 178.172 207.34 178.914 207.629 179.531C207.926 180.141 208.344 180.609 208.883 180.938C209.43 181.266 210.074 181.43 210.816 181.43C211.34 181.43 211.805 181.352 212.211 181.195C212.625 181.039 212.969 180.828 213.242 180.562C213.516 180.289 213.711 179.984 213.828 179.648L213.863 179.543H215.879L215.855 179.66C215.746 180.145 215.551 180.605 215.27 181.043C214.988 181.473 214.625 181.852 214.18 182.18C213.734 182.508 213.223 182.766 212.645 182.953C212.074 183.141 211.449 183.234 210.77 183.234Z" fill="#181818"/>
<path d="M393 1H685C695.493 1 704 9.50659 704 20V240C704 250.493 695.493 259 685 259H393C382.507 259 374 250.493 374 240V20C374 9.50659 382.507 1 393 1Z" fill="#EDEEEF"/>
<path d="M393 1H685C695.493 1 704 9.50659 704 20V240C704 250.493 695.493 259 685 259H393C382.507 259 374 250.493 374 240V20C374 9.50659 382.507 1 393 1Z" stroke="#E1E4EA" stroke-width="2"/>
<path d="M474.562 133V126.531L490.5 111.625C492.458 109.812 493.938 108.302 494.938 107.094C495.938 105.885 496.615 104.802 496.969 103.844C497.344 102.885 497.531 101.885 497.531 100.844V100.781C497.531 99.5521 497.24 98.4688 496.656 97.5312C496.073 96.5729 495.26 95.8229 494.219 95.2812C493.198 94.7396 492.021 94.4688 490.688 94.4688C489.146 94.4688 487.792 94.7812 486.625 95.4062C485.458 96.0104 484.542 96.8542 483.875 97.9375C483.208 99 482.854 100.208 482.812 101.562L482.781 101.844H474.031V101.594C474.031 98.7604 474.75 96.2604 476.188 94.0938C477.625 91.9062 479.594 90.1979 482.094 88.9688C484.615 87.7396 487.458 87.125 490.625 87.125C493.812 87.125 496.615 87.6875 499.031 88.8125C501.448 89.9167 503.333 91.4583 504.688 93.4375C506.042 95.4167 506.719 97.6875 506.719 100.25V100.312C506.719 102.125 506.385 103.812 505.719 105.375C505.073 106.917 504 108.562 502.5 110.312C501 112.042 498.948 114.104 496.344 116.5L483.281 128.406L486.906 122.062V128.406L483.312 125.5H507.344V133H474.562ZM513.188 133V126.531L529.125 111.625C531.083 109.812 532.562 108.302 533.562 107.094C534.562 105.885 535.24 104.802 535.594 103.844C535.969 102.885 536.156 101.885 536.156 100.844V100.781C536.156 99.5521 535.865 98.4688 535.281 97.5312C534.698 96.5729 533.885 95.8229 532.844 95.2812C531.823 94.7396 530.646 94.4688 529.312 94.4688C527.771 94.4688 526.417 94.7812 525.25 95.4062C524.083 96.0104 523.167 96.8542 522.5 97.9375C521.833 99 521.479 100.208 521.438 101.562L521.406 101.844H512.656V101.594C512.656 98.7604 513.375 96.2604 514.812 94.0938C516.25 91.9062 518.219 90.1979 520.719 88.9688C523.24 87.7396 526.083 87.125 529.25 87.125C532.438 87.125 535.24 87.6875 537.656 88.8125C540.073 89.9167 541.958 91.4583 543.312 93.4375C544.667 95.4167 545.344 97.6875 545.344 100.25V100.312C545.344 102.125 545.01 103.812 544.344 105.375C543.698 106.917 542.625 108.562 541.125 110.312C539.625 112.042 537.573 114.104 534.969 116.5L521.906 128.406L525.531 122.062V128.406L521.938 125.5H545.969V133H513.188ZM561.719 111.125C559.552 111.125 557.688 110.646 556.125 109.688C554.562 108.729 553.354 107.365 552.5 105.594C551.667 103.823 551.25 101.729 551.25 99.3125V99.2812C551.25 96.8646 551.667 94.7812 552.5 93.0312C553.354 91.2604 554.562 89.8958 556.125 88.9375C557.688 87.9792 559.552 87.5 561.719 87.5C563.885 87.5 565.74 87.9792 567.281 88.9375C568.844 89.8958 570.042 91.2604 570.875 93.0312C571.729 94.7812 572.156 96.8646 572.156 99.2812V99.3125C572.156 101.729 571.729 103.823 570.875 105.594C570.042 107.365 568.844 108.729 567.281 109.688C565.74 110.646 563.885 111.125 561.719 111.125ZM561.719 105.938C562.969 105.938 563.927 105.375 564.594 104.25C565.26 103.104 565.594 101.458 565.594 99.3125V99.2812C565.594 97.1562 565.26 95.5312 564.594 94.4062C563.927 93.2604 562.969 92.6875 561.719 92.6875C560.448 92.6875 559.469 93.2604 558.781 94.4062C558.115 95.5312 557.781 97.1562 557.781 99.2812V99.3125C557.781 101.458 558.115 103.104 558.781 104.25C559.469 105.375 560.448 105.938 561.719 105.938ZM566.375 133H559.406L587.906 87.9062H594.844L566.375 133ZM592.562 133.406C590.396 133.406 588.531 132.927 586.969 131.969C585.406 131.01 584.198 129.646 583.344 127.875C582.51 126.104 582.094 124.01 582.094 121.594V121.562C582.094 119.146 582.51 117.062 583.344 115.312C584.198 113.542 585.406 112.177 586.969 111.219C588.531 110.26 590.396 109.781 592.562 109.781C594.729 109.781 596.583 110.26 598.125 111.219C599.688 112.177 600.885 113.542 601.719 115.312C602.573 117.062 603 119.146 603 121.562V121.594C603 124.01 602.573 126.104 601.719 127.875C600.885 129.646 599.688 131.01 598.125 131.969C596.583 132.927 594.729 133.406 592.562 133.406ZM592.562 128.219C593.812 128.219 594.771 127.656 595.438 126.531C596.104 125.385 596.438 123.74 596.438 121.594V121.562C596.438 119.438 596.104 117.812 595.438 116.688C594.771 115.542 593.812 114.969 592.562 114.969C591.292 114.969 590.312 115.542 589.625 116.688C588.958 117.812 588.625 119.438 588.625 121.562V121.594C588.625 123.74 588.958 125.385 589.625 126.531C590.312 127.656 591.292 128.219 592.562 128.219Z" fill="#181818"/>
<path d="M451.535 183L457.816 166.09H459.387V168.656H458.824L453.75 183H451.535ZM454.406 178.16L455.098 176.367H462.633L463.324 178.16H454.406ZM463.957 183L458.895 168.656V166.09H459.902L466.172 183H463.957ZM472.746 183.234C471.59 183.234 470.586 182.973 469.734 182.449C468.883 181.926 468.223 181.188 467.754 180.234C467.293 179.273 467.062 178.145 467.062 176.848V176.836C467.062 175.547 467.297 174.43 467.766 173.484C468.242 172.531 468.902 171.797 469.746 171.281C470.598 170.758 471.59 170.496 472.723 170.496C473.738 170.496 474.609 170.691 475.336 171.082C476.07 171.473 476.648 171.98 477.07 172.605C477.492 173.223 477.75 173.883 477.844 174.586L477.855 174.68H475.852L475.84 174.598C475.684 173.98 475.348 173.445 474.832 172.992C474.324 172.531 473.621 172.301 472.723 172.301C472.012 172.301 471.387 172.488 470.848 172.863C470.316 173.238 469.898 173.766 469.594 174.445C469.297 175.125 469.148 175.93 469.148 176.859V176.871C469.148 177.816 469.301 178.629 469.605 179.309C469.91 179.988 470.328 180.512 470.859 180.879C471.398 181.246 472.027 181.43 472.746 181.43C473.582 181.43 474.262 181.223 474.785 180.809C475.309 180.395 475.66 179.844 475.84 179.156L475.863 179.062H477.867L477.855 179.156C477.738 179.93 477.453 180.625 477 181.242C476.547 181.852 475.957 182.336 475.23 182.695C474.512 183.055 473.684 183.234 472.746 183.234ZM485.027 183.234C483.871 183.234 482.867 182.973 482.016 182.449C481.164 181.926 480.504 181.188 480.035 180.234C479.574 179.273 479.344 178.145 479.344 176.848V176.836C479.344 175.547 479.578 174.43 480.047 173.484C480.523 172.531 481.184 171.797 482.027 171.281C482.879 170.758 483.871 170.496 485.004 170.496C486.02 170.496 486.891 170.691 487.617 171.082C488.352 171.473 488.93 171.98 489.352 172.605C489.773 173.223 490.031 173.883 490.125 174.586L490.137 174.68H488.133L488.121 174.598C487.965 173.98 487.629 173.445 487.113 172.992C486.605 172.531 485.902 172.301 485.004 172.301C484.293 172.301 483.668 172.488 483.129 172.863C482.598 173.238 482.18 173.766 481.875 174.445C481.578 175.125 481.43 175.93 481.43 176.859V176.871C481.43 177.816 481.582 178.629 481.887 179.309C482.191 179.988 482.609 180.512 483.141 180.879C483.68 181.246 484.309 181.43 485.027 181.43C485.863 181.43 486.543 181.223 487.066 180.809C487.59 180.395 487.941 179.844 488.121 179.156L488.145 179.062H490.148L490.137 179.156C490.02 179.93 489.734 180.625 489.281 181.242C488.828 181.852 488.238 182.336 487.512 182.695C486.793 183.055 485.965 183.234 485.027 183.234ZM497.273 183.234C496.102 183.234 495.094 182.977 494.25 182.461C493.406 181.938 492.758 181.203 492.305 180.258C491.852 179.312 491.625 178.199 491.625 176.918V176.906C491.625 175.633 491.852 174.516 492.305 173.555C492.766 172.594 493.406 171.844 494.227 171.305C495.055 170.766 496.027 170.496 497.145 170.496C498.262 170.496 499.223 170.754 500.027 171.27C500.832 171.785 501.449 172.508 501.879 173.438C502.316 174.359 502.535 175.434 502.535 176.66V177.422H492.656V175.828H501.516L500.484 177.305V176.508C500.484 175.555 500.34 174.77 500.051 174.152C499.77 173.527 499.375 173.062 498.867 172.758C498.367 172.453 497.789 172.301 497.133 172.301C496.477 172.301 495.887 172.461 495.363 172.781C494.848 173.102 494.441 173.574 494.145 174.199C493.848 174.824 493.699 175.594 493.699 176.508V177.305C493.699 178.172 493.844 178.914 494.133 179.531C494.43 180.141 494.848 180.609 495.387 180.938C495.934 181.266 496.578 181.43 497.32 181.43C497.844 181.43 498.309 181.352 498.715 181.195C499.129 181.039 499.473 180.828 499.746 180.562C500.02 180.289 500.215 179.984 500.332 179.648L500.367 179.543H502.383L502.359 179.66C502.25 180.145 502.055 180.605 501.773 181.043C501.492 181.473 501.129 181.852 500.684 182.18C500.238 182.508 499.727 182.766 499.148 182.953C498.578 183.141 497.953 183.234 497.273 183.234ZM504.797 187.125V170.73H506.836V172.781H506.906C507.164 172.312 507.484 171.91 507.867 171.574C508.25 171.23 508.688 170.965 509.18 170.777C509.672 170.59 510.207 170.496 510.785 170.496C511.832 170.496 512.746 170.758 513.527 171.281C514.309 171.805 514.914 172.547 515.344 173.508C515.773 174.461 515.988 175.578 515.988 176.859V176.883C515.988 178.164 515.77 179.281 515.332 180.234C514.902 181.188 514.301 181.926 513.527 182.449C512.754 182.973 511.852 183.234 510.82 183.234C510.242 183.234 509.703 183.145 509.203 182.965C508.703 182.777 508.258 182.516 507.867 182.18C507.484 181.836 507.164 181.434 506.906 180.973H506.836V187.125H504.797ZM510.375 181.43C511.102 181.43 511.727 181.246 512.25 180.879C512.781 180.504 513.188 179.977 513.469 179.297C513.758 178.617 513.902 177.812 513.902 176.883V176.859C513.902 175.914 513.758 175.102 513.469 174.422C513.188 173.742 512.781 173.219 512.25 172.852C511.727 172.484 511.102 172.301 510.375 172.301C509.672 172.301 509.051 172.492 508.512 172.875C507.98 173.25 507.562 173.777 507.258 174.457C506.961 175.137 506.812 175.938 506.812 176.859V176.883C506.812 177.797 506.965 178.594 507.27 179.273C507.574 179.953 507.992 180.484 508.523 180.867C509.055 181.242 509.672 181.43 510.375 181.43ZM522.305 183.211C521.156 183.211 520.301 182.945 519.738 182.414C519.184 181.883 518.906 181.031 518.906 179.859V172.418H517.078V170.73H518.906V167.438H521.016V170.73H523.418V172.418H521.016V179.754C521.016 180.426 521.156 180.887 521.438 181.137C521.719 181.379 522.141 181.5 522.703 181.5C522.836 181.5 522.961 181.496 523.078 181.488C523.195 181.473 523.309 181.461 523.418 181.453V183.117C523.277 183.141 523.105 183.16 522.902 183.176C522.707 183.199 522.508 183.211 522.305 183.211ZM529.102 183.234C528.305 183.234 527.598 183.082 526.98 182.777C526.363 182.473 525.883 182.043 525.539 181.488C525.195 180.926 525.023 180.277 525.023 179.543V179.52C525.023 178.809 525.195 178.199 525.539 177.691C525.891 177.176 526.398 176.77 527.062 176.473C527.734 176.176 528.539 176 529.477 175.945L534.012 175.676V177.27L529.711 177.539C528.875 177.586 528.23 177.781 527.777 178.125C527.332 178.469 527.109 178.93 527.109 179.508V179.531C527.109 180.125 527.332 180.598 527.777 180.949C528.23 181.293 528.824 181.465 529.559 181.465C530.207 181.465 530.789 181.328 531.305 181.055C531.82 180.781 532.23 180.41 532.535 179.941C532.84 179.473 532.992 178.945 532.992 178.359V174.691C532.992 173.949 532.758 173.367 532.289 172.945C531.82 172.516 531.152 172.301 530.285 172.301C529.512 172.301 528.883 172.465 528.398 172.793C527.922 173.121 527.621 173.555 527.496 174.094L527.473 174.188H525.492L525.504 174.07C525.574 173.398 525.809 172.793 526.207 172.254C526.613 171.715 527.164 171.289 527.859 170.977C528.555 170.656 529.375 170.496 530.32 170.496C531.297 170.496 532.133 170.664 532.828 171C533.531 171.328 534.074 171.793 534.457 172.395C534.84 172.996 535.031 173.711 535.031 174.539V183H532.992V181.043H532.922C532.68 181.488 532.363 181.875 531.973 182.203C531.582 182.531 531.145 182.785 530.66 182.965C530.176 183.145 529.656 183.234 529.102 183.234ZM537.844 183V170.73H539.883V172.5H539.953C540.281 171.906 540.754 171.426 541.371 171.059C541.996 170.684 542.77 170.496 543.691 170.496C545.043 170.496 546.09 170.902 546.832 171.715C547.574 172.52 547.945 173.629 547.945 175.043V183H545.906V175.43C545.906 174.406 545.672 173.629 545.203 173.098C544.734 172.566 544.027 172.301 543.082 172.301C542.434 172.301 541.867 172.445 541.383 172.734C540.906 173.016 540.535 173.418 540.27 173.941C540.012 174.457 539.883 175.066 539.883 175.77V183H537.844ZM555.809 183.234C554.652 183.234 553.648 182.973 552.797 182.449C551.945 181.926 551.285 181.188 550.816 180.234C550.355 179.273 550.125 178.145 550.125 176.848V176.836C550.125 175.547 550.359 174.43 550.828 173.484C551.305 172.531 551.965 171.797 552.809 171.281C553.66 170.758 554.652 170.496 555.785 170.496C556.801 170.496 557.672 170.691 558.398 171.082C559.133 171.473 559.711 171.98 560.133 172.605C560.555 173.223 560.812 173.883 560.906 174.586L560.918 174.68H558.914L558.902 174.598C558.746 173.98 558.41 173.445 557.895 172.992C557.387 172.531 556.684 172.301 555.785 172.301C555.074 172.301 554.449 172.488 553.91 172.863C553.379 173.238 552.961 173.766 552.656 174.445C552.359 175.125 552.211 175.93 552.211 176.859V176.871C552.211 177.816 552.363 178.629 552.668 179.309C552.973 179.988 553.391 180.512 553.922 180.879C554.461 181.246 555.09 181.43 555.809 181.43C556.645 181.43 557.324 181.223 557.848 180.809C558.371 180.395 558.723 179.844 558.902 179.156L558.926 179.062H560.93L560.918 179.156C560.801 179.93 560.516 180.625 560.062 181.242C559.609 181.852 559.02 182.336 558.293 182.695C557.574 183.055 556.746 183.234 555.809 183.234ZM568.055 183.234C566.883 183.234 565.875 182.977 565.031 182.461C564.188 181.938 563.539 181.203 563.086 180.258C562.633 179.312 562.406 178.199 562.406 176.918V176.906C562.406 175.633 562.633 174.516 563.086 173.555C563.547 172.594 564.188 171.844 565.008 171.305C565.836 170.766 566.809 170.496 567.926 170.496C569.043 170.496 570.004 170.754 570.809 171.27C571.613 171.785 572.23 172.508 572.66 173.438C573.098 174.359 573.316 175.434 573.316 176.66V177.422H563.438V175.828H572.297L571.266 177.305V176.508C571.266 175.555 571.121 174.77 570.832 174.152C570.551 173.527 570.156 173.062 569.648 172.758C569.148 172.453 568.57 172.301 567.914 172.301C567.258 172.301 566.668 172.461 566.145 172.781C565.629 173.102 565.223 173.574 564.926 174.199C564.629 174.824 564.48 175.594 564.48 176.508V177.305C564.48 178.172 564.625 178.914 564.914 179.531C565.211 180.141 565.629 180.609 566.168 180.938C566.715 181.266 567.359 181.43 568.102 181.43C568.625 181.43 569.09 181.352 569.496 181.195C569.91 181.039 570.254 180.828 570.527 180.562C570.801 180.289 570.996 179.984 571.113 179.648L571.148 179.543H573.164L573.141 179.66C573.031 180.145 572.836 180.605 572.555 181.043C572.273 181.473 571.91 181.852 571.465 182.18C571.02 182.508 570.508 182.766 569.93 182.953C569.359 183.141 568.734 183.234 568.055 183.234ZM581.133 183V166.09H587.496C588.582 166.09 589.527 166.301 590.332 166.723C591.145 167.137 591.773 167.723 592.219 168.48C592.664 169.23 592.887 170.113 592.887 171.129V171.152C592.887 172.324 592.582 173.34 591.973 174.199C591.371 175.051 590.543 175.645 589.488 175.98L593.402 183H590.93L587.309 176.309C587.285 176.309 587.262 176.309 587.238 176.309C587.223 176.309 587.203 176.309 587.18 176.309H583.242V183H581.133ZM583.242 174.445H587.309C588.395 174.445 589.23 174.164 589.816 173.602C590.41 173.039 590.707 172.238 590.707 171.199V171.176C590.707 170.168 590.395 169.383 589.77 168.82C589.152 168.25 588.301 167.965 587.215 167.965H583.242V174.445ZM598.805 183.234C598.008 183.234 597.301 183.082 596.684 182.777C596.066 182.473 595.586 182.043 595.242 181.488C594.898 180.926 594.727 180.277 594.727 179.543V179.52C594.727 178.809 594.898 178.199 595.242 177.691C595.594 177.176 596.102 176.77 596.766 176.473C597.438 176.176 598.242 176 599.18 175.945L603.715 175.676V177.27L599.414 177.539C598.578 177.586 597.934 177.781 597.48 178.125C597.035 178.469 596.812 178.93 596.812 179.508V179.531C596.812 180.125 597.035 180.598 597.48 180.949C597.934 181.293 598.527 181.465 599.262 181.465C599.91 181.465 600.492 181.328 601.008 181.055C601.523 180.781 601.934 180.41 602.238 179.941C602.543 179.473 602.695 178.945 602.695 178.359V174.691C602.695 173.949 602.461 173.367 601.992 172.945C601.523 172.516 600.855 172.301 599.988 172.301C599.215 172.301 598.586 172.465 598.102 172.793C597.625 173.121 597.324 173.555 597.199 174.094L597.176 174.188H595.195L595.207 174.07C595.277 173.398 595.512 172.793 595.91 172.254C596.316 171.715 596.867 171.289 597.562 170.977C598.258 170.656 599.078 170.496 600.023 170.496C601 170.496 601.836 170.664 602.531 171C603.234 171.328 603.777 171.793 604.16 172.395C604.543 172.996 604.734 173.711 604.734 174.539V183H602.695V181.043H602.625C602.383 181.488 602.066 181.875 601.676 182.203C601.285 182.531 600.848 182.785 600.363 182.965C599.879 183.145 599.359 183.234 598.805 183.234ZM611.602 183.211C610.453 183.211 609.598 182.945 609.035 182.414C608.48 181.883 608.203 181.031 608.203 179.859V172.418H606.375V170.73H608.203V167.438H610.312V170.73H612.715V172.418H610.312V179.754C610.312 180.426 610.453 180.887 610.734 181.137C611.016 181.379 611.438 181.5 612 181.5C612.133 181.5 612.258 181.496 612.375 181.488C612.492 181.473 612.605 181.461 612.715 181.453V183.117C612.574 183.141 612.402 183.16 612.199 183.176C612.004 183.199 611.805 183.211 611.602 183.211ZM619.758 183.234C618.586 183.234 617.578 182.977 616.734 182.461C615.891 181.938 615.242 181.203 614.789 180.258C614.336 179.312 614.109 178.199 614.109 176.918V176.906C614.109 175.633 614.336 174.516 614.789 173.555C615.25 172.594 615.891 171.844 616.711 171.305C617.539 170.766 618.512 170.496 619.629 170.496C620.746 170.496 621.707 170.754 622.512 171.27C623.316 171.785 623.934 172.508 624.363 173.438C624.801 174.359 625.02 175.434 625.02 176.66V177.422H615.141V175.828H624L622.969 177.305V176.508C622.969 175.555 622.824 174.77 622.535 174.152C622.254 173.527 621.859 173.062 621.352 172.758C620.852 172.453 620.273 172.301 619.617 172.301C618.961 172.301 618.371 172.461 617.848 172.781C617.332 173.102 616.926 173.574 616.629 174.199C616.332 174.824 616.184 175.594 616.184 176.508V177.305C616.184 178.172 616.328 178.914 616.617 179.531C616.914 180.141 617.332 180.609 617.871 180.938C618.418 181.266 619.062 181.43 619.805 181.43C620.328 181.43 620.793 181.352 621.199 181.195C621.613 181.039 621.957 180.828 622.23 180.562C622.504 180.289 622.699 179.984 622.816 179.648L622.852 179.543H624.867L624.844 179.66C624.734 180.145 624.539 180.605 624.258 181.043C623.977 181.473 623.613 181.852 623.168 182.18C622.723 182.508 622.211 182.766 621.633 182.953C621.062 183.141 620.438 183.234 619.758 183.234Z" fill="#181818"/>
<path d="M766 1H1058C1068.49 1 1077 9.50659 1077 20V240C1077 250.493 1068.49 259 1058 259H766C755.507 259 747 250.493 747 240V20C747 9.50659 755.507 1 766 1Z" fill="#EDEEEF"/>
<path d="M766 1H1058C1068.49 1 1077 9.50659 1077 20V240C1077 250.493 1068.49 259 1058 259H766C755.507 259 747 250.493 747 240V20C747 9.50659 755.507 1 766 1Z" stroke="#E1E4EA" stroke-width="2"/>
<path d="M851.062 119.188V110.156L884.188 98.5625V106.562L851.531 117.031V112.094L884.188 122.594V130.781L851.062 119.188ZM902.812 133V96.5625H902.625L891.125 104.375V96L902.781 87.9062H912.156V133H902.812ZM932.188 111.125C930.021 111.125 928.156 110.646 926.594 109.688C925.031 108.729 923.823 107.365 922.969 105.594C922.135 103.823 921.719 101.729 921.719 99.3125V99.2812C921.719 96.8646 922.135 94.7812 922.969 93.0312C923.823 91.2604 925.031 89.8958 926.594 88.9375C928.156 87.9792 930.021 87.5 932.188 87.5C934.354 87.5 936.208 87.9792 937.75 88.9375C939.312 89.8958 940.51 91.2604 941.344 93.0312C942.198 94.7812 942.625 96.8646 942.625 99.2812V99.3125C942.625 101.729 942.198 103.823 941.344 105.594C940.51 107.365 939.312 108.729 937.75 109.688C936.208 110.646 934.354 111.125 932.188 111.125ZM932.188 105.938C933.438 105.938 934.396 105.375 935.062 104.25C935.729 103.104 936.062 101.458 936.062 99.3125V99.2812C936.062 97.1562 935.729 95.5312 935.062 94.4062C934.396 93.2604 933.438 92.6875 932.188 92.6875C930.917 92.6875 929.938 93.2604 929.25 94.4062C928.583 95.5312 928.25 97.1562 928.25 99.2812V99.3125C928.25 101.458 928.583 103.104 929.25 104.25C929.938 105.375 930.917 105.938 932.188 105.938ZM936.844 133H929.875L958.375 87.9062H965.312L936.844 133ZM963.031 133.406C960.865 133.406 959 132.927 957.438 131.969C955.875 131.01 954.667 129.646 953.812 127.875C952.979 126.104 952.562 124.01 952.562 121.594V121.562C952.562 119.146 952.979 117.062 953.812 115.312C954.667 113.542 955.875 112.177 957.438 111.219C959 110.26 960.865 109.781 963.031 109.781C965.198 109.781 967.052 110.26 968.594 111.219C970.156 112.177 971.354 113.542 972.188 115.312C973.042 117.062 973.469 119.146 973.469 121.562V121.594C973.469 124.01 973.042 126.104 972.188 127.875C971.354 129.646 970.156 131.01 968.594 131.969C967.052 132.927 965.198 133.406 963.031 133.406ZM963.031 128.219C964.281 128.219 965.24 127.656 965.906 126.531C966.573 125.385 966.906 123.74 966.906 121.594V121.562C966.906 119.438 966.573 117.812 965.906 116.688C965.24 115.542 964.281 114.969 963.031 114.969C961.76 114.969 960.781 115.542 960.094 116.688C959.427 117.812 959.094 119.438 959.094 121.562V121.594C959.094 123.74 959.427 125.385 960.094 126.531C960.781 127.656 961.76 128.219 963.031 128.219Z" fill="#181818"/>
<path d="M838.387 183V166.09H844.094C845.766 166.09 847.195 166.426 848.383 167.098C849.57 167.762 850.48 168.723 851.113 169.98C851.754 171.23 852.074 172.742 852.074 174.516V174.539C852.074 176.312 851.758 177.832 851.125 179.098C850.492 180.363 849.582 181.332 848.395 182.004C847.207 182.668 845.773 183 844.094 183H838.387ZM840.496 181.102H843.953C845.227 181.102 846.305 180.848 847.188 180.34C848.078 179.832 848.754 179.09 849.215 178.113C849.684 177.137 849.918 175.953 849.918 174.562V174.539C849.918 173.141 849.684 171.953 849.215 170.977C848.754 170 848.078 169.258 847.188 168.75C846.305 168.242 845.227 167.988 843.953 167.988H840.496V181.102ZM854.699 183V170.73H856.738V183H854.699ZM855.719 168.598C855.359 168.598 855.051 168.473 854.793 168.223C854.543 167.965 854.418 167.656 854.418 167.297C854.418 166.938 854.543 166.633 854.793 166.383C855.051 166.125 855.359 165.996 855.719 165.996C856.086 165.996 856.395 166.125 856.645 166.383C856.895 166.633 857.02 166.938 857.02 167.297C857.02 167.656 856.895 167.965 856.645 168.223C856.395 168.473 856.086 168.598 855.719 168.598ZM864.039 183.234C863.086 183.234 862.258 183.086 861.555 182.789C860.859 182.484 860.309 182.062 859.902 181.523C859.496 180.977 859.25 180.344 859.164 179.625L859.152 179.543H861.203L861.227 179.637C861.359 180.23 861.66 180.695 862.129 181.031C862.598 181.367 863.242 181.535 864.062 181.535C864.617 181.535 865.094 181.461 865.492 181.312C865.891 181.164 866.199 180.953 866.418 180.68C866.637 180.406 866.746 180.082 866.746 179.707V179.695C866.746 179.258 866.605 178.906 866.324 178.641C866.051 178.367 865.559 178.141 864.848 177.961L862.902 177.492C862.137 177.305 861.5 177.062 860.992 176.766C860.484 176.461 860.105 176.09 859.855 175.652C859.613 175.215 859.492 174.703 859.492 174.117V174.105C859.492 173.402 859.684 172.781 860.066 172.242C860.449 171.695 860.98 171.27 861.66 170.965C862.348 170.652 863.129 170.496 864.004 170.496C864.895 170.496 865.672 170.652 866.336 170.965C867 171.27 867.523 171.691 867.906 172.23C868.297 172.77 868.52 173.379 868.574 174.059L868.586 174.188H866.629L866.617 174.117C866.531 173.539 866.262 173.074 865.809 172.723C865.363 172.371 864.762 172.195 864.004 172.195C863.512 172.195 863.082 172.273 862.715 172.43C862.348 172.578 862.066 172.789 861.871 173.062C861.676 173.328 861.578 173.645 861.578 174.012V174.023C861.578 174.297 861.645 174.547 861.777 174.773C861.91 174.992 862.117 175.184 862.398 175.348C862.688 175.512 863.059 175.648 863.512 175.758L865.445 176.227C866.672 176.523 867.543 176.934 868.059 177.457C868.574 177.98 868.832 178.68 868.832 179.555V179.566C868.832 180.285 868.625 180.922 868.211 181.477C867.797 182.023 867.227 182.453 866.5 182.766C865.773 183.078 864.953 183.234 864.039 183.234ZM871.152 183V170.73H873.191V172.535H873.262C873.535 171.918 873.965 171.426 874.551 171.059C875.137 170.684 875.824 170.496 876.613 170.496C877.176 170.496 877.68 170.59 878.125 170.777C878.578 170.957 878.969 171.223 879.297 171.574C879.625 171.918 879.875 172.332 880.047 172.816H880.117C880.344 172.332 880.648 171.918 881.031 171.574C881.414 171.23 881.852 170.965 882.344 170.777C882.844 170.59 883.379 170.496 883.949 170.496C884.762 170.496 885.465 170.664 886.059 171C886.66 171.328 887.121 171.793 887.441 172.395C887.77 172.988 887.934 173.699 887.934 174.527V183H885.895V174.996C885.895 174.426 885.793 173.941 885.59 173.543C885.395 173.137 885.109 172.828 884.734 172.617C884.359 172.406 883.895 172.301 883.34 172.301C882.793 172.301 882.309 172.426 881.887 172.676C881.473 172.926 881.148 173.27 880.914 173.707C880.68 174.145 880.562 174.637 880.562 175.184V183H878.523V174.762C878.523 174.262 878.418 173.828 878.207 173.461C877.996 173.094 877.703 172.809 877.328 172.605C876.953 172.402 876.512 172.301 876.004 172.301C875.465 172.301 874.98 172.438 874.551 172.711C874.129 172.977 873.797 173.336 873.555 173.789C873.312 174.242 873.191 174.754 873.191 175.324V183H871.152ZM890.84 183V170.73H892.879V183H890.84ZM891.859 168.598C891.5 168.598 891.191 168.473 890.934 168.223C890.684 167.965 890.559 167.656 890.559 167.297C890.559 166.938 890.684 166.633 890.934 166.383C891.191 166.125 891.5 165.996 891.859 165.996C892.227 165.996 892.535 166.125 892.785 166.383C893.035 166.633 893.16 166.938 893.16 167.297C893.16 167.656 893.035 167.965 892.785 168.223C892.535 168.473 892.227 168.598 891.859 168.598ZM900.18 183.234C899.227 183.234 898.398 183.086 897.695 182.789C897 182.484 896.449 182.062 896.043 181.523C895.637 180.977 895.391 180.344 895.305 179.625L895.293 179.543H897.344L897.367 179.637C897.5 180.23 897.801 180.695 898.27 181.031C898.738 181.367 899.383 181.535 900.203 181.535C900.758 181.535 901.234 181.461 901.633 181.312C902.031 181.164 902.34 180.953 902.559 180.68C902.777 180.406 902.887 180.082 902.887 179.707V179.695C902.887 179.258 902.746 178.906 902.465 178.641C902.191 178.367 901.699 178.141 900.988 177.961L899.043 177.492C898.277 177.305 897.641 177.062 897.133 176.766C896.625 176.461 896.246 176.09 895.996 175.652C895.754 175.215 895.633 174.703 895.633 174.117V174.105C895.633 173.402 895.824 172.781 896.207 172.242C896.59 171.695 897.121 171.27 897.801 170.965C898.488 170.652 899.27 170.496 900.145 170.496C901.035 170.496 901.812 170.652 902.477 170.965C903.141 171.27 903.664 171.691 904.047 172.23C904.438 172.77 904.66 173.379 904.715 174.059L904.727 174.188H902.77L902.758 174.117C902.672 173.539 902.402 173.074 901.949 172.723C901.504 172.371 900.902 172.195 900.145 172.195C899.652 172.195 899.223 172.273 898.855 172.43C898.488 172.578 898.207 172.789 898.012 173.062C897.816 173.328 897.719 173.645 897.719 174.012V174.023C897.719 174.297 897.785 174.547 897.918 174.773C898.051 174.992 898.258 175.184 898.539 175.348C898.828 175.512 899.199 175.648 899.652 175.758L901.586 176.227C902.812 176.523 903.684 176.934 904.199 177.457C904.715 177.98 904.973 178.68 904.973 179.555V179.566C904.973 180.285 904.766 180.922 904.352 181.477C903.938 182.023 903.367 182.453 902.641 182.766C901.914 183.078 901.094 183.234 900.18 183.234ZM911.57 183.234C910.617 183.234 909.789 183.086 909.086 182.789C908.391 182.484 907.84 182.062 907.434 181.523C907.027 180.977 906.781 180.344 906.695 179.625L906.684 179.543H908.734L908.758 179.637C908.891 180.23 909.191 180.695 909.66 181.031C910.129 181.367 910.773 181.535 911.594 181.535C912.148 181.535 912.625 181.461 913.023 181.312C913.422 181.164 913.73 180.953 913.949 180.68C914.168 180.406 914.277 180.082 914.277 179.707V179.695C914.277 179.258 914.137 178.906 913.855 178.641C913.582 178.367 913.09 178.141 912.379 177.961L910.434 177.492C909.668 177.305 909.031 177.062 908.523 176.766C908.016 176.461 907.637 176.09 907.387 175.652C907.145 175.215 907.023 174.703 907.023 174.117V174.105C907.023 173.402 907.215 172.781 907.598 172.242C907.98 171.695 908.512 171.27 909.191 170.965C909.879 170.652 910.66 170.496 911.535 170.496C912.426 170.496 913.203 170.652 913.867 170.965C914.531 171.27 915.055 171.691 915.438 172.23C915.828 172.77 916.051 173.379 916.105 174.059L916.117 174.188H914.16L914.148 174.117C914.062 173.539 913.793 173.074 913.34 172.723C912.895 172.371 912.293 172.195 911.535 172.195C911.043 172.195 910.613 172.273 910.246 172.43C909.879 172.578 909.598 172.789 909.402 173.062C909.207 173.328 909.109 173.645 909.109 174.012V174.023C909.109 174.297 909.176 174.547 909.309 174.773C909.441 174.992 909.648 175.184 909.93 175.348C910.219 175.512 910.59 175.648 911.043 175.758L912.977 176.227C914.203 176.523 915.074 176.934 915.59 177.457C916.105 177.98 916.363 178.68 916.363 179.555V179.566C916.363 180.285 916.156 180.922 915.742 181.477C915.328 182.023 914.758 182.453 914.031 182.766C913.305 183.078 912.484 183.234 911.57 183.234ZM922.223 183.234C921.426 183.234 920.719 183.082 920.102 182.777C919.484 182.473 919.004 182.043 918.66 181.488C918.316 180.926 918.145 180.277 918.145 179.543V179.52C918.145 178.809 918.316 178.199 918.66 177.691C919.012 177.176 919.52 176.77 920.184 176.473C920.855 176.176 921.66 176 922.598 175.945L927.133 175.676V177.27L922.832 177.539C921.996 177.586 921.352 177.781 920.898 178.125C920.453 178.469 920.23 178.93 920.23 179.508V179.531C920.23 180.125 920.453 180.598 920.898 180.949C921.352 181.293 921.945 181.465 922.68 181.465C923.328 181.465 923.91 181.328 924.426 181.055C924.941 180.781 925.352 180.41 925.656 179.941C925.961 179.473 926.113 178.945 926.113 178.359V174.691C926.113 173.949 925.879 173.367 925.41 172.945C924.941 172.516 924.273 172.301 923.406 172.301C922.633 172.301 922.004 172.465 921.52 172.793C921.043 173.121 920.742 173.555 920.617 174.094L920.594 174.188H918.613L918.625 174.07C918.695 173.398 918.93 172.793 919.328 172.254C919.734 171.715 920.285 171.289 920.98 170.977C921.676 170.656 922.496 170.496 923.441 170.496C924.418 170.496 925.254 170.664 925.949 171C926.652 171.328 927.195 171.793 927.578 172.395C927.961 172.996 928.152 173.711 928.152 174.539V183H926.113V181.043H926.043C925.801 181.488 925.484 181.875 925.094 182.203C924.703 182.531 924.266 182.785 923.781 182.965C923.297 183.145 922.777 183.234 922.223 183.234ZM931.07 183V165.961H933.109V183H931.07ZM941.629 183V166.09H947.992C949.078 166.09 950.023 166.301 950.828 166.723C951.641 167.137 952.27 167.723 952.715 168.48C953.16 169.23 953.383 170.113 953.383 171.129V171.152C953.383 172.324 953.078 173.34 952.469 174.199C951.867 175.051 951.039 175.645 949.984 175.98L953.898 183H951.426L947.805 176.309C947.781 176.309 947.758 176.309 947.734 176.309C947.719 176.309 947.699 176.309 947.676 176.309H943.738V183H941.629ZM943.738 174.445H947.805C948.891 174.445 949.727 174.164 950.312 173.602C950.906 173.039 951.203 172.238 951.203 171.199V171.176C951.203 170.168 950.891 169.383 950.266 168.82C949.648 168.25 948.797 167.965 947.711 167.965H943.738V174.445ZM959.301 183.234C958.504 183.234 957.797 183.082 957.18 182.777C956.562 182.473 956.082 182.043 955.738 181.488C955.395 180.926 955.223 180.277 955.223 179.543V179.52C955.223 178.809 955.395 178.199 955.738 177.691C956.09 177.176 956.598 176.77 957.262 176.473C957.934 176.176 958.738 176 959.676 175.945L964.211 175.676V177.27L959.91 177.539C959.074 177.586 958.43 177.781 957.977 178.125C957.531 178.469 957.309 178.93 957.309 179.508V179.531C957.309 180.125 957.531 180.598 957.977 180.949C958.43 181.293 959.023 181.465 959.758 181.465C960.406 181.465 960.988 181.328 961.504 181.055C962.02 180.781 962.43 180.41 962.734 179.941C963.039 179.473 963.191 178.945 963.191 178.359V174.691C963.191 173.949 962.957 173.367 962.488 172.945C962.02 172.516 961.352 172.301 960.484 172.301C959.711 172.301 959.082 172.465 958.598 172.793C958.121 173.121 957.82 173.555 957.695 174.094L957.672 174.188H955.691L955.703 174.07C955.773 173.398 956.008 172.793 956.406 172.254C956.812 171.715 957.363 171.289 958.059 170.977C958.754 170.656 959.574 170.496 960.52 170.496C961.496 170.496 962.332 170.664 963.027 171C963.73 171.328 964.273 171.793 964.656 172.395C965.039 172.996 965.23 173.711 965.23 174.539V183H963.191V181.043H963.121C962.879 181.488 962.562 181.875 962.172 182.203C961.781 182.531 961.344 182.785 960.859 182.965C960.375 183.145 959.855 183.234 959.301 183.234ZM972.098 183.211C970.949 183.211 970.094 182.945 969.531 182.414C968.977 181.883 968.699 181.031 968.699 179.859V172.418H966.871V170.73H968.699V167.438H970.809V170.73H973.211V172.418H970.809V179.754C970.809 180.426 970.949 180.887 971.23 181.137C971.512 181.379 971.934 181.5 972.496 181.5C972.629 181.5 972.754 181.496 972.871 181.488C972.988 181.473 973.102 181.461 973.211 181.453V183.117C973.07 183.141 972.898 183.16 972.695 183.176C972.5 183.199 972.301 183.211 972.098 183.211ZM980.254 183.234C979.082 183.234 978.074 182.977 977.23 182.461C976.387 181.938 975.738 181.203 975.285 180.258C974.832 179.312 974.605 178.199 974.605 176.918V176.906C974.605 175.633 974.832 174.516 975.285 173.555C975.746 172.594 976.387 171.844 977.207 171.305C978.035 170.766 979.008 170.496 980.125 170.496C981.242 170.496 982.203 170.754 983.008 171.27C983.812 171.785 984.43 172.508 984.859 173.438C985.297 174.359 985.516 175.434 985.516 176.66V177.422H975.637V175.828H984.496L983.465 177.305V176.508C983.465 175.555 983.32 174.77 983.031 174.152C982.75 173.527 982.355 173.062 981.848 172.758C981.348 172.453 980.77 172.301 980.113 172.301C979.457 172.301 978.867 172.461 978.344 172.781C977.828 173.102 977.422 173.574 977.125 174.199C976.828 174.824 976.68 175.594 976.68 176.508V177.305C976.68 178.172 976.824 178.914 977.113 179.531C977.41 180.141 977.828 180.609 978.367 180.938C978.914 181.266 979.559 181.43 980.301 181.43C980.824 181.43 981.289 181.352 981.695 181.195C982.109 181.039 982.453 180.828 982.727 180.562C983 180.289 983.195 179.984 983.312 179.648L983.348 179.543H985.363L985.34 179.66C985.23 180.145 985.035 180.605 984.754 181.043C984.473 181.473 984.109 181.852 983.664 182.18C983.219 182.508 982.707 182.766 982.129 182.953C981.559 183.141 980.934 183.234 980.254 183.234Z" fill="#181818"/>
</svg>
