<svg width="1846" height="1846" viewBox="0 0 1846 1846" fill="none" xmlns="http://www.w3.org/2000/svg">
<g clip-path="url(#clip0)">
<rect width="1846" height="1846" fill="#2F9998"/>
<path d="M1927.5 -221.5L2325.5 787L-79.5 1958L-116.5 851L1927.5 -221.5Z" fill="url(#paint0_linear)"/>
<g filter="url(#filter0_d)">
<rect x="194" y="488" width="1259" height="872" rx="80" fill="#F0F0F0"/>
</g>
<rect x="392" y="642" width="864" height="657" rx="60" fill="white"/>
<g opacity="0.5">
<path fill-rule="evenodd" clip-rule="evenodd" d="M755.183 722.494C755.183 713.384 762.567 706 771.676 706H877.235C886.344 706 893.728 713.384 893.728 722.494C893.728 731.603 886.344 738.987 877.235 738.987H864.041C868.047 741.996 870.637 746.786 870.637 752.182C870.637 753.401 870.505 754.59 870.254 755.734H890.048C899.368 755.734 906.923 763.289 906.923 772.608C906.923 781.928 899.368 789.482 890.048 789.482H864.064C864.826 791.406 865.246 793.504 865.246 795.699C865.246 799.86 863.74 803.668 861.244 806.61H882.183C889.47 806.61 895.378 812.518 895.378 819.805C895.378 827.093 889.47 833 882.183 833H789.819C782.532 833 776.624 827.093 776.624 819.805C776.624 817.135 777.418 814.65 778.781 812.573H768.758C759.439 812.573 751.884 805.018 751.884 795.699C751.884 786.38 759.439 778.825 768.758 778.825H789.742C788.979 776.901 788.56 774.804 788.56 772.608C788.56 771.254 788.719 769.937 789.02 768.675H788.17C779.061 768.675 771.676 761.291 771.676 752.182C771.676 746.786 774.267 741.996 778.272 738.987H771.676C762.567 738.987 755.183 731.603 755.183 722.494Z" fill="#F0FBFB"/>
<path d="M793.405 721.195C793.405 720.091 794.301 719.195 795.405 719.195H845.425C845.95 719.195 846.453 719.401 846.827 719.769L853.901 726.719L861.726 734.406C862.109 734.783 862.325 735.297 862.325 735.833V802.962C862.325 804.066 861.429 804.962 860.325 804.962H795.405C794.301 804.962 793.405 804.066 793.405 802.962V721.195Z" fill="#1BBBBA"/>
<path d="M795.768 721.195C795.768 720.091 796.663 719.195 797.768 719.195H847.788C848.312 719.195 848.815 719.401 849.189 719.768L856.263 726.718L864.088 734.406C864.471 734.782 864.687 735.296 864.687 735.833V802.961C864.687 804.066 863.791 804.961 862.687 804.961H797.768C796.663 804.961 795.768 804.066 795.768 802.961V721.195Z" fill="#3DC7C6"/>
<path d="M847.217 730.142L847.657 721.301C847.701 720.426 848.767 720.026 849.375 720.656L856.075 727.594L863.181 734.225C863.826 734.827 863.433 735.908 862.552 735.955L853.526 736.432C849.974 736.62 847.04 733.694 847.217 730.142Z" fill="#1BBBBA" stroke="#1BBBBA" stroke-width="2"/>
<circle cx="858.42" cy="797.416" r="15.6688" fill="white"/>
<circle cx="859.916" cy="799.188" r="13.6688" fill="#00B0AF" stroke="#00B0AF" stroke-width="4"/>
<path d="M865.688 793.416L857.607 803.312L854.143 799.601" stroke="white" stroke-width="4" stroke-linecap="round" stroke-linejoin="round"/>
<path d="M828.677 757.29C832.265 757.29 835.173 754.451 835.173 750.948C835.173 747.445 832.265 744.606 828.677 744.606C825.088 744.606 822.18 747.445 822.18 750.948C822.18 754.451 825.088 757.29 828.677 757.29Z" fill="white"/>
<path d="M843.029 775.076C843.031 776.043 842.928 777.007 842.721 777.953H814.965C814.759 777.007 814.655 776.043 814.658 775.076C814.639 773.24 814.992 771.419 815.695 769.717C816.398 768.015 817.438 766.464 818.756 765.155C820.073 763.846 821.642 762.803 823.373 762.086C825.104 761.369 826.963 760.992 828.843 760.978C830.724 760.992 832.582 761.369 834.313 762.086C836.044 762.803 837.613 763.846 838.931 765.155C840.249 766.464 841.289 768.015 841.992 769.717C842.695 771.419 843.047 773.24 843.029 775.076Z" fill="white"/>
</g>
<rect x="515" y="941" width="618" height="228" fill="#F8F8F8"/>
<rect x="623" y="872" width="353" height="37" rx="4" fill="#E6E6E6"/>
<rect x="986" y="872" width="39" height="37" rx="4" fill="#E6E6E6"/>
<rect x="552.117" y="987" width="456.826" height="18.8742" rx="2" fill="#E6E6E6"/>
<rect x="1024.75" y="987" width="71.1322" height="18.8742" rx="2" fill="#E6E6E6"/>
<rect x="552.117" y="1043.62" width="339.854" height="18.8742" rx="2" fill="#E6E6E6"/>
<rect x="914.102" y="1043.62" width="181.782" height="18.8742" rx="2" fill="#E6E6E6"/>
<rect x="552.117" y="1100" width="102.746" height="18.8742" rx="2" fill="#E6E6E6"/>
<rect x="673.832" y="1100" width="210.235" height="18.8742" rx="2" fill="#E6E6E6"/>
<rect x="914.102" y="1100" width="181.782" height="18.8742" rx="2" fill="#E6E6E6"/>
<g filter="url(#filter1_d)">
<rect x="655" y="1202" width="337" height="60" rx="30" fill="url(#paint1_linear)" fill-opacity="0.5"/>
</g>
<path d="M194 568C194 523.817 229.817 488 274 488H1373C1417.18 488 1453 523.817 1453 568V599H194V568Z" fill="#FDFDFD"/>
<rect x="496" y="538" width="656" height="38" rx="10" fill="#ECE8E8"/>
<g opacity="0.15" filter="url(#filter2_d)">
<rect x="194" y="488" width="1259" height="872" rx="80" fill="#193F3F"/>
</g>
<g filter="url(#filter3_d)">
<path d="M1570.19 537.637H1192.81C1164.16 537.637 1140.94 560.859 1140.94 589.504V1353.9C1140.94 1382.55 1164.16 1405.77 1192.81 1405.77H1570.19C1598.84 1405.77 1622.06 1382.55 1622.06 1353.9V589.504C1622.06 560.859 1598.84 537.637 1570.19 537.637Z" fill="#F0F0F0"/>
</g>
<path d="M1562.41 555.791H1200.59C1179.1 555.791 1161.69 573.207 1161.69 594.691V1347.42C1161.69 1368.9 1179.1 1386.32 1200.59 1386.32H1562.41C1583.9 1386.32 1601.31 1368.9 1601.31 1347.42V594.691C1601.31 573.207 1583.9 555.791 1562.41 555.791Z" fill="white"/>
<path d="M1161 595C1161 573.461 1177.78 556 1198.48 556H1564.52C1585.22 556 1602 573.461 1602 595V647H1161V595Z" fill="#F7F7F7"/>
<path d="M1162 1347C1162 1368.54 1178.7 1386 1199.31 1386H1563.69C1584.3 1386 1601 1368.54 1601 1347V1321H1162V1347Z" fill="#F7F7F7"/>
<path fill-rule="evenodd" clip-rule="evenodd" d="M1303.53 730.793C1303.53 720.795 1311.64 712.69 1321.64 712.69H1437.51C1447.51 712.69 1455.61 720.795 1455.61 730.793C1455.61 740.791 1447.51 748.896 1437.51 748.896H1423.03C1427.42 752.199 1430.27 757.457 1430.27 763.379C1430.27 764.717 1430.12 766.022 1429.85 767.278H1451.57C1461.8 767.278 1470.1 775.57 1470.1 785.798C1470.1 796.027 1461.8 804.32 1451.57 804.32H1423.05C1423.89 806.431 1424.35 808.733 1424.35 811.143C1424.35 815.709 1422.7 819.89 1419.96 823.119H1442.94C1450.94 823.119 1457.42 829.603 1457.42 837.601C1457.42 845.6 1450.94 852.084 1442.94 852.084H1341.55C1333.55 852.084 1327.07 845.6 1327.07 837.601C1327.07 834.671 1327.94 831.943 1329.43 829.663H1318.43C1308.2 829.663 1299.91 821.372 1299.91 811.143C1299.91 800.914 1308.2 792.622 1318.43 792.622H1341.47C1340.63 790.511 1340.17 788.208 1340.17 785.798C1340.17 784.312 1340.34 782.867 1340.67 781.482H1339.74C1329.74 781.482 1321.64 773.377 1321.64 763.379C1321.64 757.457 1324.48 752.199 1328.88 748.896H1321.64C1311.64 748.896 1303.53 740.791 1303.53 730.793Z" fill="#F0FBFB"/>
<path d="M1345.49 728.469C1345.49 727.754 1346.07 727.173 1346.79 727.173H1402.96C1403.3 727.173 1403.63 727.306 1403.87 727.545L1411.9 735.431L1420.76 744.133C1421 744.376 1421.14 744.71 1421.14 745.058V820.012C1421.14 820.729 1420.56 821.309 1419.85 821.309H1346.79C1346.07 821.309 1345.49 820.729 1345.49 820.012V728.469Z" fill="#1BBBBA"/>
<path d="M1348.08 728.469C1348.08 727.754 1348.66 727.173 1349.38 727.173H1405.55C1405.89 727.173 1406.22 727.306 1406.46 727.544L1414.49 735.431L1423.35 744.133C1423.6 744.376 1423.74 744.71 1423.74 745.057V820.012C1423.74 820.728 1423.16 821.309 1422.44 821.309H1349.38C1348.66 821.309 1348.08 820.728 1348.08 820.012V728.469Z" fill="#3DC7C6"/>
<path d="M1404.41 742.171L1405.09 728.448C1405.12 727.881 1405.81 727.622 1406.21 728.03L1414.28 736.392L1422.86 744.391C1423.27 744.78 1423.02 745.482 1422.45 745.512L1408.5 746.25C1406.2 746.371 1404.29 744.474 1404.41 742.171Z" fill="#1BBBBA" stroke="#1BBBBA" stroke-width="2"/>
<path d="M1416.86 830.226C1426.35 830.226 1434.06 822.526 1434.06 813.028C1434.06 803.529 1426.35 795.83 1416.86 795.83C1407.36 795.83 1399.66 803.529 1399.66 813.028C1399.66 822.526 1407.36 830.226 1416.86 830.226Z" fill="white"/>
<path d="M1418.5 830.874C1427.28 830.874 1434.4 823.755 1434.4 814.973C1434.4 806.191 1427.28 799.071 1418.5 799.071C1409.71 799.071 1402.59 806.191 1402.59 814.973C1402.59 823.755 1409.71 830.874 1418.5 830.874Z" fill="#00B0AF" stroke="#00B0AF" stroke-width="4"/>
<path d="M1424.84 808.636L1415.96 819.498L1412.16 815.425" stroke="white" stroke-width="4" stroke-linecap="round" stroke-linejoin="round"/>
<path d="M1384.21 768.986C1388.14 768.986 1391.34 765.869 1391.34 762.024C1391.34 758.18 1388.14 755.063 1384.21 755.063C1380.27 755.063 1377.07 758.18 1377.07 762.024C1377.07 765.869 1380.27 768.986 1384.21 768.986Z" fill="white"/>
<path d="M1399.96 788.507C1399.96 789.568 1399.85 790.627 1399.62 791.665H1369.15C1368.93 790.627 1368.81 789.568 1368.82 788.507C1368.8 786.492 1369.18 784.493 1369.96 782.625C1370.73 780.756 1371.87 779.055 1373.32 777.618C1374.76 776.18 1376.48 775.036 1378.38 774.249C1380.28 773.462 1382.32 773.049 1384.39 773.033C1386.45 773.049 1388.49 773.462 1390.39 774.249C1392.29 775.036 1394.02 776.18 1395.46 777.618C1396.91 779.055 1398.05 780.756 1398.82 782.625C1399.59 784.493 1399.98 786.492 1399.96 788.507Z" fill="white"/>
<path d="M1581.86 971.379H1181.14V1152.92H1581.86V971.379Z" fill="#F8F8F8"/>
<path d="M1500.12 1001.2H1206.5C1205.79 1001.2 1205.21 1001.78 1205.21 1002.5V1012.14C1205.21 1012.86 1205.79 1013.44 1206.5 1013.44H1500.12C1500.84 1013.44 1501.42 1012.86 1501.42 1012.14V1002.5C1501.42 1001.78 1500.84 1001.2 1500.12 1001.2Z" fill="#E6E6E6"/>
<path d="M1556.5 1001.2H1512.97C1512.25 1001.2 1511.67 1001.78 1511.67 1002.5V1012.14C1511.67 1012.86 1512.25 1013.44 1512.97 1013.44H1556.5C1557.21 1013.44 1557.79 1012.86 1557.79 1012.14V1002.5C1557.79 1001.78 1557.21 1001.2 1556.5 1001.2Z" fill="#E6E6E6"/>
<path d="M1424.28 1037.91H1206.5C1205.79 1037.91 1205.21 1038.49 1205.21 1039.21V1048.85C1205.21 1049.57 1205.79 1050.15 1206.5 1050.15H1424.28C1424.99 1050.15 1425.57 1049.57 1425.57 1048.85V1039.21C1425.57 1038.49 1424.99 1037.91 1424.28 1037.91Z" fill="#E6E6E6"/>
<path d="M1556.5 1037.91H1441.22C1440.5 1037.91 1439.92 1038.49 1439.92 1039.21V1048.85C1439.92 1049.57 1440.5 1050.15 1441.22 1050.15H1556.5C1557.21 1050.15 1557.79 1049.57 1557.79 1048.85V1039.21C1557.79 1038.49 1557.21 1037.91 1556.5 1037.91Z" fill="#E6E6E6"/>
<path d="M1270.53 1074.47H1206.5C1205.79 1074.47 1205.21 1075.05 1205.21 1075.76V1085.41C1205.21 1086.12 1205.79 1086.7 1206.5 1086.7H1270.53C1271.25 1086.7 1271.83 1086.12 1271.83 1085.41V1075.76C1271.83 1075.05 1271.25 1074.47 1270.53 1074.47Z" fill="#E6E6E6"/>
<path d="M1419.15 1074.47H1285.42C1284.71 1074.47 1284.13 1075.05 1284.13 1075.76V1085.41C1284.13 1086.12 1284.71 1086.7 1285.42 1086.7H1419.15C1419.87 1086.7 1420.45 1086.12 1420.45 1085.41V1075.76C1420.45 1075.05 1419.87 1074.47 1419.15 1074.47Z" fill="#E6E6E6"/>
<path d="M1556.5 1074.47H1441.22C1440.5 1074.47 1439.92 1075.05 1439.92 1075.76V1085.41C1439.92 1086.12 1440.5 1086.7 1441.22 1086.7H1556.5C1557.21 1086.7 1557.79 1086.12 1557.79 1085.41V1075.76C1557.79 1075.05 1557.21 1074.47 1556.5 1074.47Z" fill="#E6E6E6"/>
<path d="M1394.55 1110.77H1206.5C1205.79 1110.77 1205.21 1111.35 1205.21 1112.07V1121.71C1205.21 1122.43 1205.79 1123.01 1206.5 1123.01H1394.55C1395.27 1123.01 1395.85 1122.43 1395.85 1121.71V1112.07C1395.85 1111.35 1395.27 1110.77 1394.55 1110.77Z" fill="#E6E6E6"/>
<g filter="url(#filter4_d)">
<path d="M1502.11 1194.41H1260.25C1245.92 1194.41 1234.31 1206.02 1234.31 1220.34C1234.31 1234.67 1245.92 1246.28 1260.25 1246.28H1502.11C1516.43 1246.28 1528.04 1234.67 1528.04 1220.34C1528.04 1206.02 1516.43 1194.41 1502.11 1194.41Z" fill="url(#paint2_linear)"/>
</g>
<path d="M1208.01 914.796L1217.76 896.561H1220.27L1209.17 917.007V929.885H1206.77V917.189L1195.63 896.561H1198.29L1208.01 914.796ZM1244.93 917.463C1244.93 921.505 1243.95 924.665 1241.99 926.945C1240.03 929.209 1237.33 930.341 1233.88 930.341C1231.7 930.341 1229.79 929.817 1228.13 928.768C1226.48 927.72 1225.21 926.215 1224.33 924.255C1223.45 922.295 1223 920.031 1223 917.463C1223 913.42 1223.98 910.275 1225.95 908.026C1227.91 905.762 1230.6 904.63 1234.02 904.63C1237.42 904.63 1240.09 905.777 1242.02 908.072C1243.96 910.351 1244.93 913.481 1244.93 917.463ZM1225.38 917.463C1225.38 920.867 1226.12 923.525 1227.61 925.441C1229.11 927.34 1231.23 928.29 1233.97 928.29C1236.7 928.29 1238.82 927.34 1240.31 925.441C1241.81 923.525 1242.56 920.867 1242.56 917.463C1242.56 914.043 1241.8 911.392 1240.28 909.508C1238.78 907.624 1236.66 906.681 1233.92 906.681C1231.19 906.681 1229.08 907.624 1227.59 909.508C1226.11 911.377 1225.38 914.029 1225.38 917.463ZM1253.76 905.109V921.155C1253.76 923.647 1254.28 925.463 1255.33 926.603C1256.38 927.727 1258 928.29 1260.21 928.29C1263.16 928.29 1265.32 927.545 1266.7 926.056C1268.1 924.567 1268.8 922.143 1268.8 918.785V905.109H1271.04V929.885H1269.12L1268.71 926.466H1268.57C1266.96 929.049 1264.1 930.341 1259.98 930.341C1254.34 930.341 1251.52 927.325 1251.52 921.292V905.109H1253.76ZM1308.74 929.885V913.816C1308.74 911.324 1308.22 909.515 1307.17 908.391C1306.12 907.251 1304.49 906.681 1302.29 906.681C1299.33 906.681 1297.15 907.434 1295.77 908.938C1294.4 910.427 1293.72 912.851 1293.72 916.209V929.885H1291.46V894.419H1293.72V905.701L1293.6 908.87H1293.76C1294.69 907.38 1295.86 906.302 1297.27 905.633C1298.69 904.964 1300.44 904.63 1302.54 904.63C1308.16 904.63 1310.97 907.646 1310.97 913.679V929.885H1308.74ZM1334.04 929.885L1333.47 925.965H1333.29C1332.05 927.56 1330.76 928.692 1329.44 929.361C1328.13 930.014 1326.58 930.341 1324.79 930.341C1322.36 930.341 1320.47 929.718 1319.11 928.472C1317.76 927.226 1317.08 925.501 1317.08 923.298C1317.08 920.882 1318.09 919.005 1320.09 917.668C1322.11 916.331 1325.03 915.624 1328.85 915.548L1333.57 915.411V913.77C1333.57 911.415 1333.09 909.637 1332.13 908.437C1331.17 907.236 1329.63 906.636 1327.5 906.636C1325.21 906.636 1322.83 907.274 1320.37 908.551L1319.52 906.59C1322.24 905.314 1324.93 904.676 1327.59 904.676C1330.31 904.676 1332.34 905.382 1333.68 906.796C1335.03 908.208 1335.71 910.412 1335.71 913.405V929.885H1334.04ZM1324.93 928.29C1327.57 928.29 1329.65 927.537 1331.17 926.033C1332.71 924.514 1333.47 922.409 1333.47 919.719V917.281L1329.14 917.463C1325.66 917.63 1323.18 918.177 1321.69 919.104C1320.21 920.015 1319.48 921.444 1319.48 923.389C1319.48 924.939 1319.95 926.147 1320.89 927.013C1321.85 927.864 1323.19 928.29 1324.93 928.29ZM1349.18 929.885L1339.61 905.109H1341.93L1348.34 921.953C1349.19 924.111 1349.83 925.995 1350.25 927.606H1350.39C1351.01 925.539 1351.65 923.64 1352.3 921.907L1358.71 905.109H1361.03L1351.46 929.885H1349.18ZM1375.19 930.341C1371.59 930.341 1368.78 929.232 1366.76 927.013C1364.75 924.794 1363.75 921.687 1363.75 917.69C1363.75 913.74 1364.72 910.579 1366.66 908.208C1368.61 905.823 1371.23 904.63 1374.53 904.63C1377.45 904.63 1379.75 905.648 1381.44 907.684C1383.12 909.72 1383.97 912.486 1383.97 915.981V917.804H1366.12C1366.15 921.208 1366.94 923.807 1368.49 925.6C1370.05 927.393 1372.29 928.29 1375.19 928.29C1376.6 928.29 1377.84 928.191 1378.91 927.993C1379.99 927.795 1381.35 927.37 1382.99 926.717V928.768C1381.59 929.376 1380.3 929.787 1379.11 929.999C1377.93 930.227 1376.62 930.341 1375.19 930.341ZM1374.53 906.636C1372.14 906.636 1370.23 907.426 1368.79 909.006C1367.34 910.572 1366.5 912.836 1366.25 915.799H1381.57C1381.57 912.927 1380.95 910.686 1379.7 909.075C1378.46 907.449 1376.73 906.636 1374.53 906.636ZM1423.43 917.463C1423.43 921.505 1422.45 924.665 1420.49 926.945C1418.53 929.209 1415.82 930.341 1412.37 930.341C1410.2 930.341 1408.28 929.817 1406.63 928.768C1404.97 927.72 1403.7 926.215 1402.82 924.255C1401.94 922.295 1401.5 920.031 1401.5 917.463C1401.5 913.42 1402.48 910.275 1404.44 908.026C1406.4 905.762 1409.09 904.63 1412.51 904.63C1415.91 904.63 1418.58 905.777 1420.51 908.072C1422.45 910.351 1423.43 913.481 1423.43 917.463ZM1403.87 917.463C1403.87 920.867 1404.61 923.525 1406.1 925.441C1407.61 927.34 1409.73 928.29 1412.46 928.29C1415.2 928.29 1417.31 927.34 1418.8 925.441C1420.3 923.525 1421.06 920.867 1421.06 917.463C1421.06 914.043 1420.3 911.392 1418.78 909.508C1417.27 907.624 1415.15 906.681 1412.42 906.681C1409.68 906.681 1407.57 907.624 1406.08 909.508C1404.61 911.377 1403.87 914.029 1403.87 917.463ZM1440.89 930.341C1437.07 930.341 1434.29 928.913 1432.55 926.056H1432.39L1432.45 927.971C1432.51 929.095 1432.55 930.326 1432.55 931.663V941.099H1430.29V905.109H1432.2L1432.64 908.641H1432.77C1434.48 905.967 1437.2 904.63 1440.93 904.63C1444.28 904.63 1446.82 905.732 1448.57 907.935C1450.33 910.124 1451.22 913.314 1451.22 917.508C1451.22 921.58 1450.29 924.741 1448.43 926.99C1446.6 929.224 1444.08 930.341 1440.89 930.341ZM1440.84 928.335C1443.38 928.335 1445.34 927.393 1446.72 925.509C1448.12 923.625 1448.82 920.988 1448.82 917.6C1448.82 910.321 1446.19 906.681 1440.93 906.681C1438.05 906.681 1435.93 907.479 1434.57 909.075C1433.22 910.655 1432.55 913.238 1432.55 916.824V917.554C1432.55 921.429 1433.19 924.195 1434.48 925.85C1435.79 927.507 1437.91 928.335 1440.84 928.335ZM1464.64 928.335C1466.07 928.335 1467.32 928.214 1468.38 927.971V929.794C1467.29 930.159 1466.02 930.341 1464.6 930.341C1462.41 930.341 1460.79 929.756 1459.74 928.586C1458.71 927.416 1458.19 925.577 1458.19 923.07V907.069H1454.52V905.747L1458.19 904.722L1459.33 899.114H1460.49V905.109H1467.76V907.069H1460.49V922.751C1460.49 924.65 1460.83 926.056 1461.5 926.968C1462.16 927.879 1463.21 928.335 1464.64 928.335ZM1475.99 929.885H1473.74V905.109H1475.99V929.885ZM1473.42 898.225C1473.42 896.766 1473.9 896.037 1474.85 896.037C1475.33 896.037 1475.69 896.227 1475.95 896.607C1476.22 896.987 1476.36 897.526 1476.36 898.225C1476.36 898.909 1476.22 899.449 1475.95 899.843C1475.69 900.238 1475.33 900.436 1474.85 900.436C1473.9 900.436 1473.42 899.699 1473.42 898.225ZM1504.81 917.463C1504.81 921.505 1503.83 924.665 1501.87 926.945C1499.91 929.209 1497.2 930.341 1493.75 930.341C1491.58 930.341 1489.66 929.817 1488.01 928.768C1486.35 927.72 1485.08 926.215 1484.2 924.255C1483.32 922.295 1482.88 920.031 1482.88 917.463C1482.88 913.42 1483.86 910.275 1485.82 908.026C1487.78 905.762 1490.47 904.63 1493.89 904.63C1497.29 904.63 1499.96 905.777 1501.89 908.072C1503.84 910.351 1504.81 913.481 1504.81 917.463ZM1485.25 917.463C1485.25 920.867 1485.99 923.525 1487.48 925.441C1488.99 927.34 1491.11 928.29 1493.84 928.29C1496.58 928.29 1498.69 927.34 1500.18 925.441C1501.69 923.525 1502.44 920.867 1502.44 917.463C1502.44 914.043 1501.68 911.392 1500.16 909.508C1498.65 907.624 1496.53 906.681 1493.8 906.681C1491.06 906.681 1488.95 907.624 1487.46 909.508C1485.99 911.377 1485.25 914.029 1485.25 917.463ZM1528.95 929.885V913.816C1528.95 911.324 1528.43 909.515 1527.38 908.391C1526.33 907.251 1524.7 906.681 1522.5 906.681C1519.53 906.681 1517.36 907.434 1515.98 908.938C1514.61 910.427 1513.93 912.851 1513.93 916.209V929.885H1511.67V905.109H1513.58L1514.02 908.505H1514.15C1515.77 905.922 1518.63 904.63 1522.75 904.63C1528.37 904.63 1531.18 907.646 1531.18 913.679V929.885H1528.95ZM1554.57 923.435C1554.57 925.653 1553.73 927.362 1552.04 928.563C1550.35 929.748 1547.96 930.341 1544.86 930.341C1541.55 930.341 1538.92 929.832 1536.97 928.814V926.375C1539.47 927.621 1542.1 928.244 1544.86 928.244C1547.31 928.244 1549.16 927.841 1550.42 927.036C1551.7 926.215 1552.34 925.129 1552.34 923.776C1552.34 922.53 1551.83 921.482 1550.81 920.631C1549.81 919.78 1548.15 918.944 1545.84 918.123C1543.36 917.227 1541.62 916.46 1540.62 915.822C1539.62 915.168 1538.86 914.439 1538.34 913.634C1537.84 912.813 1537.59 911.818 1537.59 910.647C1537.59 908.794 1538.36 907.327 1539.91 906.248C1541.48 905.17 1543.66 904.63 1546.46 904.63C1549.13 904.63 1551.67 905.131 1554.07 906.134L1553.23 908.186C1550.8 907.183 1548.54 906.681 1546.46 906.681C1544.44 906.681 1542.83 907.016 1541.65 907.684C1540.46 908.353 1539.87 909.28 1539.87 910.465C1539.87 911.757 1540.32 912.79 1541.24 913.565C1542.16 914.34 1543.96 915.206 1546.64 916.164C1548.87 916.969 1550.5 917.698 1551.52 918.352C1552.54 918.99 1553.3 919.719 1553.8 920.54C1554.31 921.361 1554.57 922.325 1554.57 923.435ZM1563.1 921.292H1561.71L1561.05 896.561H1563.76L1563.1 921.292ZM1560.54 928.107C1560.54 926.618 1561.15 925.873 1562.37 925.873C1563.61 925.873 1564.24 926.618 1564.24 928.107C1564.24 929.597 1563.61 930.341 1562.37 930.341C1561.15 930.341 1560.54 929.597 1560.54 928.107Z" fill="#616161"/>
<path d="M1227.18 537.637H1536.47V573.944C1536.47 581.106 1530.67 586.911 1523.5 586.911H1240.15C1232.98 586.911 1227.18 581.106 1227.18 573.944V537.637Z" fill="#F0F0F0"/>
<path d="M1407.44 559.032H1330.92C1328.06 559.032 1325.74 561.355 1325.74 564.219C1325.74 567.084 1328.06 569.406 1330.92 569.406H1407.44C1410.3 569.406 1412.62 567.084 1412.62 564.219C1412.62 561.355 1410.3 559.032 1407.44 559.032Z" fill="#D1D1D1"/>
<path d="M1438.56 564.219C1438.56 561.355 1436.24 559.032 1433.37 559.032C1430.51 559.032 1428.19 561.355 1428.19 564.219C1428.19 567.084 1430.51 569.406 1433.37 569.406C1436.24 569.406 1438.56 567.084 1438.56 564.219Z" fill="#D1D1D1"/>
<path d="M1561.34 605H1201.66C1198.53 605 1196 607.945 1196 611.579V623.421C1196 627.055 1198.53 630 1201.66 630H1561.34C1564.47 630 1567 627.055 1567 623.421V611.579C1567 607.945 1564.47 605 1561.34 605Z" fill="#ECE8E8"/>
</g>
<defs>
<filter id="filter0_d" x="194" y="488" width="1399" height="1022" filterUnits="userSpaceOnUse" color-interpolation-filters="sRGB">
<feFlood flood-opacity="0" result="BackgroundImageFix"/>
<feColorMatrix in="SourceAlpha" type="matrix" values="0 0 0 0 0 0 0 0 0 0 0 0 0 0 0 0 0 0 127 0"/>
<feOffset dx="70" dy="80"/>
<feGaussianBlur stdDeviation="35"/>
<feColorMatrix type="matrix" values="0 0 0 0 0 0 0 0 0 0 0 0 0 0 0 0 0 0 0.14 0"/>
<feBlend mode="normal" in2="BackgroundImageFix" result="effect1_dropShadow"/>
<feBlend mode="normal" in="SourceGraphic" in2="effect1_dropShadow" result="shape"/>
</filter>
<filter id="filter1_d" x="645" y="1192" width="357" height="80" filterUnits="userSpaceOnUse" color-interpolation-filters="sRGB">
<feFlood flood-opacity="0" result="BackgroundImageFix"/>
<feColorMatrix in="SourceAlpha" type="matrix" values="0 0 0 0 0 0 0 0 0 0 0 0 0 0 0 0 0 0 127 0"/>
<feOffset/>
<feGaussianBlur stdDeviation="5"/>
<feColorMatrix type="matrix" values="0 0 0 0 0 0 0 0 0 0.690196 0 0 0 0 0.686275 0 0 0 0.18 0"/>
<feBlend mode="normal" in2="BackgroundImageFix" result="effect1_dropShadow"/>
<feBlend mode="normal" in="SourceGraphic" in2="effect1_dropShadow" result="shape"/>
</filter>
<filter id="filter2_d" x="194" y="488" width="1399" height="1022" filterUnits="userSpaceOnUse" color-interpolation-filters="sRGB">
<feFlood flood-opacity="0" result="BackgroundImageFix"/>
<feColorMatrix in="SourceAlpha" type="matrix" values="0 0 0 0 0 0 0 0 0 0 0 0 0 0 0 0 0 0 127 0"/>
<feOffset dx="70" dy="80"/>
<feGaussianBlur stdDeviation="35"/>
<feColorMatrix type="matrix" values="0 0 0 0 0 0 0 0 0 0 0 0 0 0 0 0 0 0 0.14 0"/>
<feBlend mode="normal" in2="BackgroundImageFix" result="effect1_dropShadow"/>
<feBlend mode="normal" in="SourceGraphic" in2="effect1_dropShadow" result="shape"/>
</filter>
<filter id="filter3_d" x="1140.94" y="537.637" width="621.127" height="1018.13" filterUnits="userSpaceOnUse" color-interpolation-filters="sRGB">
<feFlood flood-opacity="0" result="BackgroundImageFix"/>
<feColorMatrix in="SourceAlpha" type="matrix" values="0 0 0 0 0 0 0 0 0 0 0 0 0 0 0 0 0 0 127 0"/>
<feOffset dx="70" dy="80"/>
<feGaussianBlur stdDeviation="35"/>
<feColorMatrix type="matrix" values="0 0 0 0 0 0 0 0 0 0 0 0 0 0 0 0 0 0 0.14 0"/>
<feBlend mode="normal" in2="BackgroundImageFix" result="effect1_dropShadow"/>
<feBlend mode="normal" in="SourceGraphic" in2="effect1_dropShadow" result="shape"/>
</filter>
<filter id="filter4_d" x="1224.31" y="1184.41" width="313.734" height="71.8675" filterUnits="userSpaceOnUse" color-interpolation-filters="sRGB">
<feFlood flood-opacity="0" result="BackgroundImageFix"/>
<feColorMatrix in="SourceAlpha" type="matrix" values="0 0 0 0 0 0 0 0 0 0 0 0 0 0 0 0 0 0 127 0"/>
<feOffset/>
<feGaussianBlur stdDeviation="5"/>
<feColorMatrix type="matrix" values="0 0 0 0 0 0 0 0 0 0.690196 0 0 0 0 0.686275 0 0 0 0.18 0"/>
<feBlend mode="normal" in2="BackgroundImageFix" result="effect1_dropShadow"/>
<feBlend mode="normal" in="SourceGraphic" in2="effect1_dropShadow" result="shape"/>
</filter>
<linearGradient id="paint0_linear" x1="1104.5" y1="-221.5" x2="1104.5" y2="1958" gradientUnits="userSpaceOnUse">
<stop stop-color="#42A2A1"/>
<stop offset="1" stop-color="#62E6E5" stop-opacity="0"/>
</linearGradient>
<linearGradient id="paint1_linear" x1="665.043" y1="1202" x2="973.58" y2="1261.07" gradientUnits="userSpaceOnUse">
<stop stop-color="#00B0AF"/>
<stop offset="0.479167" stop-color="#46D1D1"/>
<stop offset="1" stop-color="#009494"/>
</linearGradient>
<linearGradient id="paint2_linear" x1="1243.06" y1="1194.41" x2="1511.83" y2="1246.29" gradientUnits="userSpaceOnUse">
<stop stop-color="#00B0AF"/>
<stop offset="0.479167" stop-color="#46D1D1"/>
<stop offset="1" stop-color="#009494"/>
</linearGradient>
<clipPath id="clip0">
<rect width="1846" height="1846" fill="white"/>
</clipPath>
</defs>
</svg>
