<?xml version="1.0" encoding="UTF-8"?>
<svg width="118px" height="118px" viewBox="0 0 118 118" version="1.1" xmlns="http://www.w3.org/2000/svg" xmlns:xlink="http://www.w3.org/1999/xlink" style="background: #FFFFFF;">
    <!-- Generator: Sketch 47.1 (45422) - http://www.bohemiancoding.com/sketch -->
    <title>Artboard</title>
    <desc>Created with Sketch.</desc>
    <defs></defs>
    <g id="Page-1" stroke="none" stroke-width="1" fill="none" fill-rule="evenodd">
        <g id="Artboard" fill-rule="nonzero">
            <g id="apt-logo" transform="translate(0.000000, 34.000000)">
                <path d="M11.83,24.69 C11.83,24.56 14.53,14.69 15.46,13.12 C19,6.99 21.76,6.63 25.21,5.12 C31.14,2.62 35.13,1.29 36.06,1 L15.67,1 C13.9748427,0.983996146 12.2815879,1.11785028 10.61,1.4 C8.54015583,1.76918501 6.566906,2.55508279 4.81,3.71 C2.99410613,4.99059841 1.60141422,6.78368924 0.81,8.86 C0.423041336,9.91646027 0.200452107,11.0260339 0.15,12.15 C0.115100155,12.3581533 0.0983704498,12.5689476 0.1,12.78 L0.1,39.91 L5.4,39.91 C6.76876741,39.5493355 7.84499598,38.4921215 8.23,37.13 C8.83,35.03 9.52,33.32 10.29,30.55 L11.83,24.69 Z" id="Shape" fill="#F6921E"></path>
                <path d="M36,8.44 L36,6.03 C34.84,6.47 34.17,6.55 32.9,7.03 C27.48,9.14 20.9,10.32 18.9,16.79 C18.69,17.25 18.41,18.49 18.06,19.73 C17.44,21.93 16.64,24.98 15.82,28.03 C15.05,30.9 15.05,30.92 14.13,34.43 C13.21,37.94 12.5,39.57 11.37,40 L36,40 L36,8.44 Z" id="Shape" fill="#262524"></path>
                <path d="M0,44.08 L0,50.17 L21.58,50.17 C23.2751791,50.1866329 24.9684894,50.0527744 26.64,49.77 L26.69,49.77 C28.38559,49.4255512 29.9572225,48.6310996 31.24,47.47 C32.518244,46.5737595 33.5974797,45.4230287 34.41,44.09 L0,44.08 Z" id="Shape" fill="#CA2026"></path>
                <path d="M48.34,48.85 L47.54,48.85 L47.08,47.67 L45,47.67 L44.54,48.85 L43.76,48.85 L45.59,44.22 L46.52,44.22 L48.34,48.85 Z M45.26,47 L46.81,47 L46,45 L45.26,47 Z M55.41,48.85 L54.66,48.85 L54.66,45 L53.31,48.36 L52.52,48.36 L51.17,45.04 L51.17,48.81 L50.42,48.81 L50.42,44.21 L51.57,44.21 L52.92,47.52 L54.27,44.21 L55.42,44.21 L55.41,48.85 Z M59.46,48.85 L58.77,48.85 L58.77,48.47 C58.659575,48.6116941 58.5196814,48.7277034 58.36,48.81 C58.1766536,48.9001617 57.9742606,48.9447568 57.77,48.94 C57.348273,48.9422253 56.9438467,48.7725107 56.65,48.47 C56.5028868,48.3174342 56.3873441,48.1373234 56.31,47.94 C56.1472643,47.5081558 56.1472643,47.0318442 56.31,46.6 C56.3871076,46.402556 56.5026786,46.2224012 56.65,46.07 C56.9462524,45.7649665 57.3548103,45.5950354 57.78,45.6 C58.1699246,45.5847551 58.5429125,45.7600594 58.78,46.07 L58.78,45.69 L59.47,45.69 L59.46,48.85 Z M57.86,46.25 C57.7225862,46.2488998 57.5864203,46.276133 57.46,46.33 C57.3456187,46.3813811 57.2433856,46.456352 57.16,46.55 C57.0772014,46.6438382 57.0127522,46.7523843 56.97,46.87 C56.8808349,47.1257855 56.8808349,47.4042145 56.97,47.66 C57.0127522,47.7776157 57.0772014,47.8861618 57.16,47.98 C57.2433856,48.073648 57.3456187,48.1486189 57.46,48.2 C57.7121726,48.3084252 57.9978274,48.3084252 58.25,48.2 C58.3633348,48.1512989 58.4654482,48.0798195 58.55,47.99 C58.6376119,47.897949 58.7056493,47.7890892 58.75,47.67 C58.8447179,47.4083069 58.8447179,47.1216931 58.75,46.86 C58.7056493,46.7409108 58.6376119,46.632051 58.55,46.54 C58.4656378,46.4499615 58.3634756,46.378448 58.25,46.33 C58.1266759,46.2774635 57.994048,46.2502577 57.86,46.25 L57.86,46.25 Z M62.54,46.47 L62.36,46.38 L62.12,46.29 L61.85,46.22 L61.56,46.22 C61.4067305,46.2098483 61.2538258,46.2445993 61.12,46.32 C61.0231635,46.3758711 60.9625066,46.4782296 60.96,46.59 C60.945452,46.6355329 60.945452,46.6844671 60.96,46.73 C60.989202,46.7681139 61.0268582,46.7989236 61.07,46.82 L61.24,46.88 L61.78,46.88 C62.0712238,46.9090362 62.3501214,47.0123317 62.59,47.18 C62.7837883,47.330009 62.8920659,47.5652328 62.88,47.81 C62.8812376,47.9560399 62.8469168,48.1001873 62.78,48.23 C62.7139161,48.3604883 62.6179854,48.4735494 62.5,48.56 C62.3642757,48.6572234 62.2116948,48.7284278 62.05,48.77 C61.8512639,48.8243474 61.6460294,48.8512634 61.44,48.85 L61.15,48.85 L60.81,48.79 C60.6837592,48.7595925 60.5600574,48.719473 60.44,48.67 C60.3117952,48.6151215 60.1908759,48.5445852 60.08,48.46 L60.4,47.94 L60.59,48.06 L60.82,48.16 L61.1,48.23 C61.2164425,48.2402279 61.3335575,48.2402279 61.45,48.23 C61.6355347,48.242424 61.8212176,48.2080383 61.99,48.13 C62.0976415,48.0776727 62.1670841,47.9696509 62.17,47.85 C62.1681801,47.758962 62.1188675,47.6755099 62.04,47.63 C61.9107427,47.5575132 61.7676053,47.5132088 61.62,47.5 L61.29,47.5 C60.9992254,47.4750797 60.7216435,47.3675167 60.49,47.19 C60.3104342,47.0351199 60.2110761,46.8069643 60.22,46.57 C60.2192235,46.4251336 60.2499318,46.2818282 60.31,46.15 C60.3697738,46.024041 60.4589444,45.9142925 60.57,45.83 C60.6930004,45.7383515 60.8320581,45.6705184 60.98,45.63 C61.155814,45.5813959 61.3376042,45.5578305 61.52,45.56 C61.7595906,45.558714 61.9983081,45.588974 62.23,45.65 C62.4353541,45.7020881 62.631128,45.7864733 62.81,45.9 L62.54,46.47 Z M65.72,46.3 L64.51,46.3 L64.51,47.68 C64.4952633,47.7693968 64.4952633,47.8606032 64.51,47.95 C64.5334484,48.0171401 64.5709495,48.0785056 64.62,48.13 C64.6650589,48.1750366 64.7197727,48.2092328 64.78,48.23 C64.8461637,48.241581 64.9138363,48.241581 64.98,48.23 C65.0927273,48.2301653 65.2045455,48.2098347 65.31,48.17 C65.4180913,48.1304968 65.5219451,48.080245 65.62,48.02 L65.89,48.57 C65.7555604,48.6595513 65.611282,48.7333681 65.46,48.79 C65.2871034,48.8530937 65.1040137,48.8836086 64.92,48.88 C64.6107087,48.8994148 64.307017,48.7909534 64.08,48.58 C63.8599657,48.3224192 63.7519609,47.9876045 63.78,47.65 L63.78,46.3 L63.15,46.3 L63.15,45.67 L63.78,45.67 L63.78,44.67 L64.47,44.67 L64.47,45.67 L65.68,45.67 L65.72,46.3 Z M67.75,45.59 C67.9594823,45.5869619 68.167278,45.6278397 68.36,45.71 C68.5392951,45.7882138 68.699608,45.9041849 68.83,46.05 C68.9665803,46.2049969 69.0718517,46.3849769 69.14,46.58 C69.2157187,46.7985989 69.2529373,47.0286774 69.25,47.26 L69.25,47.52 L66.89,47.52 C66.9053965,47.6499989 66.9461677,47.77571 67.01,47.89 C67.0635958,47.9858392 67.1348503,48.070666 67.22,48.14 C67.3038608,48.2035995 67.398804,48.2510711 67.5,48.28 C67.6061361,48.2950452 67.7138639,48.2950452 67.82,48.28 C67.9840576,48.2785627 68.1465653,48.2480925 68.3,48.19 C68.4592206,48.1310082 68.6078172,48.0465783 68.74,47.94 L69.08,48.43 C68.9000057,48.5886313 68.6888153,48.7078517 68.46,48.78 C68.236384,48.8480508 68.0037347,48.8817681 67.77,48.88 C67.5476562,48.8818987 67.3270092,48.8411638 67.12,48.76 C66.9279979,48.6837618 66.7542207,48.5679104 66.61,48.42 C66.4640439,48.2684347 66.3516088,48.087857 66.28,47.89 C66.1981351,47.6727477 66.1574414,47.4421505 66.16,47.21 C66.1581304,46.9779065 66.1988019,46.7474345 66.28,46.53 C66.3494347,46.3333725 66.4583304,46.153014 66.6,46 C66.7407263,45.8525583 66.9111494,45.7366706 67.1,45.66 C67.3098292,45.5935471 67.5308332,45.5697466 67.75,45.59 L67.75,45.59 Z M67.75,46.2 C67.6371915,46.1989043 67.5252031,46.2192658 67.42,46.26 C67.3261875,46.2948494 67.2409379,46.3494091 67.17,46.42 C67.09868,46.4923662 67.0410807,46.5770711 67,46.67 C66.9554212,46.7720182 66.9251354,46.8797008 66.91,46.99 L68.55,46.99 C68.5287171,46.7735355 68.4374377,46.5699123 68.29,46.41 C68.139508,46.2679668 67.9364198,46.1954353 67.73,46.21 L67.75,46.2 Z M71.54,45.59 L71.83,45.59 L72.08,45.66 L71.92,46.34 C71.837656,46.2987259 71.7502391,46.2684662 71.66,46.25 L71.39,46.25 C71.2870966,46.2507617 71.1852808,46.2711249 71.09,46.31 C70.9990267,46.3446858 70.9170074,46.3993653 70.85,46.47 C70.778696,46.5480612 70.7242315,46.63997 70.69,46.74 C70.6497221,46.8557273 70.6294325,46.9774651 70.63,47.1 L70.63,48.84 L69.94,48.84 L69.94,45.68 L70.63,45.68 L70.63,46 C70.7273682,45.8716567 70.8543024,45.768737 71,45.7 C71.1697791,45.624251 71.3541184,45.5867003 71.54,45.59 L71.54,45.59 Z M73.92,45.59 C74.1497253,45.588679 74.3774383,45.6328621 74.59,45.72 C74.7916486,45.8025087 74.9701371,45.9329426 75.11,46.1 L74.67,46.57 C74.5668226,46.4719163 74.4486745,46.3909005 74.32,46.33 C74.1904891,46.2747674 74.0507746,46.247506 73.91,46.25 C73.7831837,46.2478587 73.6572696,46.2716803 73.54,46.32 C73.4266652,46.3687011 73.3245518,46.4401805 73.24,46.53 C73.1536293,46.6230074 73.0857543,46.7316073 73.04,46.85 C72.9470085,47.1154241 72.9470085,47.4045759 73.04,47.67 C73.0857543,47.7883927 73.1536293,47.8969926 73.24,47.99 C73.3241679,48.0802624 73.4263806,48.1518113 73.54,48.2 C73.6563619,48.2523081 73.7824224,48.2795644 73.91,48.28 C74.0582326,48.2822445 74.2051099,48.2515028 74.34,48.19 C74.4685066,48.1288077 74.5866108,48.0478219 74.69,47.95 L75.12,48.43 C74.9790644,48.5959074 74.8008787,48.72612 74.6,48.81 C74.3907773,48.8966046 74.1664373,48.9407928 73.94,48.94 C73.7036732,48.9426435 73.4691624,48.8984603 73.25,48.81 C72.8535103,48.6489065 72.5419375,48.3300877 72.39,47.93 C72.2331264,47.5039826 72.2331264,47.0360174 72.39,46.61 C72.46536,46.4116704 72.5811451,46.2311819 72.73,46.08 C72.8776884,45.9291372 73.0546394,45.8100356 73.25,45.73 C73.4622488,45.6406705 73.6897404,45.5931349 73.92,45.59 L73.92,45.59 Z M78.69,48.85 L78,48.85 L78,48.47 C77.8902838,48.6123798 77.7502242,48.7285268 77.59,48.81 C77.4098004,48.8989672 77.2109341,48.9435407 77.01,48.94 C76.7973136,48.9426863 76.5863246,48.9018497 76.39,48.82 C76.2016524,48.7378588 76.0316476,48.6188555 75.89,48.47 C75.7422543,48.3179351 75.626625,48.1376895 75.55,47.94 C75.3863437,47.508324 75.3863437,47.031676 75.55,46.6 C75.6263789,46.4021855 75.7420381,46.2218933 75.89,46.07 C76.0316476,45.9211445 76.2016524,45.8021412 76.39,45.72 C76.5863246,45.6381503 76.7973136,45.5973137 77.01,45.6 C77.2109737,45.5960682 77.4099315,45.6406622 77.59,45.73 C77.7500404,45.8117525 77.8900433,45.9278525 78,46.07 L78,45.69 L78.69,45.69 L78.69,48.85 Z M77.09,46.25 C76.9525862,46.2488998 76.8164203,46.276133 76.69,46.33 C76.5757695,46.3816396 76.4735868,46.4565736 76.39,46.55 C76.3072014,46.6438382 76.2427522,46.7523843 76.2,46.87 C76.1123807,47.1260449 76.1123807,47.4039551 76.2,47.66 C76.2427522,47.7776157 76.3072014,47.8861618 76.39,47.98 C76.4735868,48.0734264 76.5757695,48.1483604 76.69,48.2 C76.8164203,48.253867 76.9525862,48.2811002 77.09,48.28 C77.2242208,48.2814846 77.357203,48.2542062 77.48,48.2 C77.5931969,48.1510518 77.6952631,48.0796054 77.78,47.99 C77.8627986,47.8961618 77.9272478,47.7876157 77.97,47.67 C78.0630556,47.4080179 78.0630556,47.1219821 77.97,46.86 C77.9272478,46.7423843 77.8627986,46.6338382 77.78,46.54 C77.6954482,46.4501805 77.5933348,46.3787011 77.48,46.33 C77.3566759,46.2774635 77.224048,46.2502577 77.09,46.25 L77.09,46.25 Z M81.21,45.59 L81.5,45.59 L81.75,45.66 L81.58,46.34 C81.501041,46.2990132 81.4169657,46.268746 81.33,46.25 L81.06,46.25 C80.9570966,46.2507617 80.8552808,46.2711249 80.76,46.31 C80.6690267,46.3446858 80.5870074,46.3993653 80.52,46.47 C80.4493627,46.548553 80.3949831,46.6403186 80.36,46.74 C80.3193366,46.8556285 80.2990358,46.9774336 80.3,47.1 L80.3,48.84 L79.61,48.84 L79.61,45.68 L80.3,45.68 L80.3,46 C80.3992348,45.858088 80.5336203,45.7443772 80.69,45.67 C80.8558491,45.607329 81.0329827,45.5800777 81.21,45.59 L81.21,45.59 Z M83.51,45.59 C83.7143378,45.5844399 83.9169212,45.6290769 84.1,45.72 C84.2600404,45.8017525 84.4000433,45.9178525 84.51,46.06 L84.51,44.06 L85.2,44.06 L85.2,48.82 L84.5,48.82 L84.5,48.44 C84.3902838,48.5823798 84.2502242,48.6985268 84.09,48.78 C83.9067861,48.8705393 83.7042991,48.915155 83.5,48.91 C83.2873136,48.9126863 83.0763246,48.8718497 82.88,48.79 C82.6916524,48.7078588 82.5216476,48.5888555 82.38,48.44 C82.2324678,48.2877658 82.1168679,48.107566 82.04,47.91 C81.8763437,47.478324 81.8763437,47.001676 82.04,46.57 C82.1168679,46.372434 82.2324678,46.1922342 82.38,46.04 C82.5216476,45.8911445 82.6916524,45.7721412 82.88,45.69 C83.0808706,45.6136295 83.2953538,45.5795845 83.51,45.59 L83.51,45.59 Z M83.59,46.24 C83.4525862,46.2388998 83.3164203,46.266133 83.19,46.32 C83.0757695,46.3716396 82.9735868,46.4465736 82.89,46.54 C82.8072014,46.6338382 82.7427522,46.7423843 82.7,46.86 C82.6123807,47.1160449 82.6123807,47.3939551 82.7,47.65 C82.7427522,47.7676157 82.8072014,47.8761618 82.89,47.97 C82.9733856,48.063648 83.0756187,48.1386189 83.19,48.19 C83.3164203,48.243867 83.4525862,48.2711002 83.59,48.27 C83.7300623,48.2756608 83.8697501,48.2518116 84,48.2 C84.1131969,48.1510518 84.2152631,48.0796054 84.3,47.99 C84.3863707,47.8969926 84.4542457,47.7883927 84.5,47.67 C84.5914523,47.407744 84.5914523,47.122256 84.5,46.86 C84.4542457,46.7416073 84.3863707,46.6330074 84.3,46.54 C84.2152631,46.4503946 84.1131969,46.3789482 84,46.33 C83.8704891,46.2747674 83.7307746,46.247506 83.59,46.25 L83.59,46.24 Z M90,44.13 C90.1986847,44.1308866 90.3966237,44.1543709 90.59,44.2 C90.7770428,44.2411871 90.9583765,44.3049897 91.13,44.39 C91.292803,44.4733911 91.4440712,44.5775981 91.58,44.7 C91.7126933,44.8155858 91.8273013,44.9504188 91.92,45.1 L91.3,45.52 C91.1624239,45.3152715 90.9770914,45.1470994 90.76,45.03 C90.5290074,44.9081689 90.2711255,44.8462772 90.01,44.85 C89.7842778,44.846555 89.5600634,44.8873213 89.35,44.97 C89.155368,45.046829 88.9784346,45.1625162 88.83,45.31 C88.6828868,45.4625658 88.5673441,45.6426766 88.49,45.84 C88.3287142,46.2824259 88.3287142,46.7675741 88.49,47.21 C88.5671076,47.407444 88.6826786,47.5875988 88.83,47.74 C88.9784346,47.8874838 89.155368,48.003171 89.35,48.08 C89.5601339,48.162431 89.784299,48.2031883 90.01,48.2 C90.2668603,48.204731 90.5209573,48.1463574 90.75,48.03 C90.9700445,47.9132358 91.158705,47.7451564 91.3,47.54 L91.91,47.99 C91.8109427,48.1347875 91.6932662,48.2659128 91.56,48.38 C91.425659,48.4941824 91.2779031,48.591567 91.12,48.67 C90.9549102,48.7539503 90.7803234,48.8177417 90.6,48.86 C90.4095552,48.9018532 90.2149795,48.9219817 90.02,48.92 C89.6780936,48.9260891 89.3383229,48.8649303 89.02,48.74 C88.4393663,48.5156571 87.9789258,48.0588421 87.75,47.48 C87.5109676,46.8623189 87.5109676,46.1776811 87.75,45.56 C87.8636762,45.2755232 88.0337578,45.0169992 88.25,44.8 C88.470283,44.5830638 88.7322128,44.4129796 89.02,44.3 C89.3326158,44.1805517 89.6654182,44.1228207 90,44.13 L90,44.13 Z M94,45.59 C94.2329667,45.5886691 94.4639529,45.6328282 94.68,45.72 C94.8811065,45.800327 95.0645528,45.9192273 95.22,46.07 C95.3747202,46.2204085 95.4972065,46.4007356 95.58,46.6 C95.7512484,47.0233375 95.7512484,47.4966625 95.58,47.92 C95.4969613,48.1191318 95.3745066,48.2994124 95.22,48.45 C95.0645528,48.6007727 94.8811065,48.719673 94.68,48.8 C94.2425512,48.9697171 93.7574488,48.9697171 93.32,48.8 C92.9161508,48.6396823 92.5948706,48.322012 92.43,47.92 C92.2587516,47.4966625 92.2587516,47.0233375 92.43,46.6 C92.5135195,46.4011287 92.6359128,46.2209386 92.79,46.07 C92.9451202,45.9188172 93.1286527,45.799861 93.33,45.72 C93.5429993,45.6343358 93.7704199,45.5902094 94,45.59 L94,45.59 Z M94,46.24 C93.8666323,46.2370869 93.7340297,46.2608873 93.61,46.31 C93.4936295,46.3585029 93.388205,46.4299195 93.3,46.52 C93.210049,46.6121504 93.1387431,46.720807 93.09,46.84 C92.9892401,47.1040475 92.9892401,47.3959525 93.09,47.66 C93.1387431,47.779193 93.210049,47.8878496 93.3,47.98 C93.3878455,48.0705102 93.4933638,48.1419903 93.61,48.19 C93.8636928,48.2907707 94.1463072,48.2907707 94.4,48.19 C94.5199401,48.1426871 94.6288644,48.0712055 94.72,47.98 C94.809951,47.8878496 94.8812569,47.779193 94.93,47.66 C95.0307599,47.3959525 95.0307599,47.1040475 94.93,46.84 C94.8344552,46.597493 94.642507,46.4055448 94.4,46.31 C94.2721456,46.2629623 94.1360284,46.2425447 94,46.25 L94,46.24 Z M100.36,45.59 C100.537471,45.5867643 100.713939,45.6173068 100.88,45.68 C101.033211,45.7373114 101.172832,45.8258518 101.29,45.94 C101.406819,46.0531214 101.498775,46.1893523 101.56,46.34 C101.622632,46.5025988 101.653194,46.6757849 101.65,46.85 L101.65,48.85 L101,48.85 L101,47.08 C101.016889,46.8567935 100.949048,46.6354195 100.81,46.46 C100.668259,46.3088858 100.466857,46.2283251 100.26,46.24 C100.151216,46.237612 100.042871,46.2545409 99.94,46.29 C99.7392127,46.3593167 99.5785756,46.5126521 99.5,46.71 C99.4522053,46.8239236 99.4283774,46.9464675 99.43,47.07 L99.43,48.83 L98.73,48.83 L98.73,47.08 C98.7468885,46.8567935 98.6790481,46.6354195 98.54,46.46 C98.4005636,46.3116194 98.2034299,46.2313057 98,46.24 C97.8912158,46.237612 97.7828706,46.2545409 97.68,46.29 C97.5832805,46.324944 97.4947807,46.3794054 97.42,46.45 C97.3424337,46.5230873 97.2811063,46.6116712 97.24,46.71 C97.1927428,46.8240861 97.1689365,46.9465182 97.17,47.07 L97.17,48.83 L96.48,48.83 L96.48,45.68 L97.17,45.68 L97.17,46.07 C97.2275583,45.9828363 97.2984175,45.9052286 97.38,45.84 C97.4566129,45.7822335 97.5407144,45.7351367 97.63,45.7 C97.7137661,45.6669866 97.8009817,45.6435054 97.89,45.63 L98.14,45.63 C98.3658032,45.6248385 98.5892926,45.676413 98.79,45.78 C98.9759759,45.8756604 99.1317561,46.0210553 99.24,46.2 C99.3033555,46.0935973 99.3845388,45.9988835 99.48,45.92 C99.5678997,45.8495532 99.6655919,45.7922853 99.77,45.75 C99.8693292,45.7076179 99.9734176,45.6773986 100.08,45.66 L100.36,45.59 Z M104.21,45.59 C104.63519,45.5850354 105.043748,45.7549665 105.34,46.06 C105.486907,46.2127283 105.602423,46.3927959 105.68,46.59 C105.841826,47.0220095 105.841826,47.4979905 105.68,47.93 C105.602423,48.1272041 105.486907,48.3072717 105.34,48.46 C105.046153,48.7625107 104.641727,48.9322253 104.22,48.93 C104.019066,48.9335407 103.8202,48.8889672 103.64,48.8 C103.481295,48.7206049 103.341479,48.6080704 103.23,48.47 L103.23,50.17 L102.54,50.17 L102.54,45.68 L103.23,45.68 L103.23,46.06 C103.341698,45.922149 103.481462,45.8096559 103.64,45.73 C103.81633,45.6391135 104.011628,45.5911455 104.21,45.59 L104.21,45.59 Z M104.13,46.24 C103.995952,46.2402577 103.863324,46.2674635 103.74,46.32 C103.626803,46.3689482 103.524737,46.4403946 103.44,46.53 C103.357201,46.6238382 103.292752,46.7323843 103.25,46.85 C103.155282,47.1116931 103.155282,47.3983069 103.25,47.66 C103.292752,47.7776157 103.357201,47.8861618 103.44,47.98 C103.524918,48.0693958 103.626938,48.1408103 103.74,48.19 C103.862797,48.2442062 103.995779,48.2714846 104.13,48.27 C104.267414,48.2711002 104.40358,48.243867 104.53,48.19 C104.644693,48.1391551 104.747032,48.0641062 104.83,47.97 C104.912799,47.8761618 104.977248,47.7676157 105.02,47.65 C105.109165,47.3942145 105.109165,47.1157855 105.02,46.86 C104.977248,46.7423843 104.912799,46.6338382 104.83,46.54 C104.746821,46.4461255 104.644535,46.3711163 104.53,46.32 C104.402857,46.2695554 104.266718,46.2457309 104.13,46.25 L104.13,46.24 Z M109.53,48.85 L108.84,48.85 L108.84,48.47 C108.730284,48.6123798 108.590224,48.7285268 108.43,48.81 C108.246654,48.9001617 108.044261,48.9447568 107.84,48.94 C107.627314,48.9426863 107.416325,48.9018497 107.22,48.82 C107.031652,48.7378588 106.861648,48.6188555 106.72,48.47 C106.572254,48.3179351 106.456625,48.1376895 106.38,47.94 C106.216344,47.508324 106.216344,47.031676 106.38,46.6 C106.456379,46.4021855 106.572038,46.2218933 106.72,46.07 C107.013175,45.7665054 107.418042,45.5966059 107.84,45.6 C108.044338,45.5944399 108.246921,45.6390769 108.43,45.73 C108.59004,45.8117525 108.730043,45.9278525 108.84,46.07 L108.84,45.69 L109.53,45.69 L109.53,48.85 Z M107.93,46.25 C107.792586,46.2488998 107.65642,46.276133 107.53,46.33 C107.415465,46.3811163 107.313179,46.4561255 107.23,46.55 C107.147201,46.6438382 107.082752,46.7523843 107.04,46.87 C106.950835,47.1257855 106.950835,47.4042145 107.04,47.66 C107.082752,47.7776157 107.147201,47.8861618 107.23,47.98 C107.312968,48.0741062 107.415307,48.1491551 107.53,48.2 C107.782173,48.3084252 108.067827,48.3084252 108.32,48.2 C108.433197,48.1510518 108.535263,48.0796054 108.62,47.99 C108.702799,47.8961618 108.767248,47.7876157 108.81,47.67 C108.903056,47.4080179 108.903056,47.1219821 108.81,46.86 C108.767248,46.7423843 108.702799,46.6338382 108.62,46.54 C108.535263,46.4503946 108.433197,46.3789482 108.32,46.33 C108.196676,46.2774635 108.064048,46.2502577 107.93,46.25 L107.93,46.25 Z M112.11,45.59 C112.287471,45.5867643 112.463939,45.6173068 112.63,45.68 C112.782828,45.7380776 112.922302,45.8265243 113.04,45.94 C113.157047,46.0529304 113.249037,46.1892126 113.31,46.34 C113.373128,46.5024606 113.403707,46.6757451 113.4,46.85 L113.4,48.85 L112.7,48.85 L112.7,47.08 C112.716889,46.8567935 112.649048,46.6354195 112.51,46.46 C112.370564,46.3116194 112.17343,46.2313057 111.97,46.24 C111.86123,46.2378215 111.752921,46.2547447 111.65,46.29 C111.553154,46.3246821 111.464604,46.3791749 111.39,46.45 C111.312877,46.5234674 111.251618,46.6119522 111.21,46.71 C111.163257,46.8242402 111.139471,46.946568 111.14,47.07 L111.14,48.83 L110.45,48.83 L110.45,45.68 L111.14,45.68 L111.14,46.07 C111.197558,45.9828363 111.268417,45.9052286 111.35,45.84 C111.426613,45.7822335 111.510714,45.7351367 111.6,45.7 C111.683818,45.667145 111.771016,45.6436688 111.86,45.63 L112.11,45.59 Z M114.74,50.19 L114,50.19 L115.13,48.19 L113.72,45.67 L114.5,45.67 L115.5,47.49 L116.5,45.67 L117.26,45.67 L114.74,50.19 Z M70.53,40 L65.84,40 L63.18,31.36 L51,31.36 L48.3,40 L43.76,40 L54.43,6.11 L59.87,6.11 L70.53,40 Z M52.53,26.19 L61.53,26.19 L57.07,11.56 L52.53,26.19 Z M78.16,26.68 L78.16,40 L73.8,40 L73.8,6.11 L84.28,6.11 C85.6860937,6.08111197 87.0846824,6.32213091 88.4,6.82 C89.5391603,7.24969832 90.5652168,7.93373601 91.4,8.82 C92.2370458,9.75501142 92.8613906,10.8604087 93.23,12.06 C93.6591813,13.4454734 93.8683904,14.8896915 93.85,16.34 C93.8683904,17.7903085 93.6591813,19.2345266 93.23,20.62 C92.8613906,21.8195913 92.2370458,22.9249886 91.4,23.86 C90.5652168,24.746264 89.5391603,25.4303017 88.4,25.86 C87.0846824,26.3578691 85.6860937,26.598888 84.28,26.57 L78.16,26.68 Z M78.16,11.27 L78.16,21.52 L84.16,21.52 C85.5745908,21.6393311 86.9783395,21.1894117 88.06,20.27 C88.9736707,19.1934766 89.4200076,17.7968742 89.3,16.39 C89.4200076,14.9831258 88.9736707,13.5865234 88.06,12.51 C86.9783395,11.5905883 85.5745908,11.1406689 84.16,11.26 L78.16,11.27 Z M117.27,11.29 L108.53,11.29 L108.53,40 L104.17,40 L104.17,11.29 L95.44,11.29 L95.44,6.11 L117.27,6.11 L117.27,11.29 Z" id="Shape" fill="#262524"></path>
            </g>
        </g>
    </g>
</svg>