<svg width="2253" height="2253" viewBox="0 0 2253 2253" fill="none" xmlns="http://www.w3.org/2000/svg">
<rect width="2253" height="2253" fill="url(#paint0_radial_739_518275)"/>
<g clip-path="url(#clip0_739_518275)">
<g clip-path="url(#clip1_739_518275)">
<rect width="1592" height="1080" transform="translate(331 616)" fill="white"/>
<rect x="331" y="616" width="222" height="1080" fill="#1D2427"/>
<rect x="331" y="616" width="1920" height="83" fill="#2B363A"/>
<rect opacity="0.15" x="351" y="743" width="110" height="12" rx="6" fill="white"/>
<rect opacity="0.15" x="351" y="803" width="85" height="12" rx="6" fill="white"/>
<rect opacity="0.8" x="351" y="863" width="124" height="12" rx="6" fill="white"/>
<rect opacity="0.15" x="351" y="923" width="113" height="12" rx="6" fill="white"/>
<rect opacity="0.15" x="351" y="983" width="97" height="12" rx="6" fill="white"/>
<rect opacity="0.15" x="351" y="1043" width="99" height="12" rx="6" fill="white"/>
<rect opacity="0.15" x="351" y="1103" width="105" height="12" rx="6" fill="white"/>
<rect opacity="0.15" x="351" y="1163" width="124" height="12" rx="6" fill="white"/>
<rect opacity="0.1" x="522" y="648" width="60" height="12" rx="6" fill="white"/>
<rect opacity="0.1" x="606" y="648" width="86" height="12" rx="6" fill="white"/>
<rect opacity="0.1" x="716" y="648" width="63" height="12" rx="6" fill="white"/>
<rect opacity="0.1" x="803" y="648" width="114" height="12" rx="6" fill="white"/>
<rect opacity="0.1" x="941" y="648" width="93" height="12" rx="6" fill="white"/>
<rect x="1058" y="648" width="78" height="12" rx="6" fill="#D2D3D4"/>
<rect x="348" y="641" width="115" height="31" rx="15.5" fill="#159A5A" fill-opacity="0.3"/>
</g>
<g filter="url(#filter0_i_739_518275)">
<rect x="577" y="793" width="1322" height="46" rx="2" fill="#FBFBFB"/>
<rect x="596" y="812" width="238" height="4" rx="2" fill="#9E9E9E"/>
<rect x="858" y="812" width="42" height="4" rx="2" fill="#9E9E9E"/>
<rect x="924" y="812" width="42" height="4" rx="2" fill="#9E9E9E"/>
<rect x="1000" y="812" width="42" height="4" rx="2" fill="#9E9E9E"/>
<rect x="577.5" y="793.5" width="1321" height="45" rx="1.5" stroke="#E6E6E6"/>
</g>
<rect x="577.5" y="896.5" width="1321" height="60" fill="white"/>
<rect x="593" y="924.5" width="153" height="4" rx="2" fill="#333333"/>
<rect x="984" y="924.5" width="89" height="4" rx="2" fill="#CABBE9"/>
<rect x="1081" y="924.5" width="102" height="4" rx="2" fill="#A4DBBE"/>
<rect x="967" y="896" width="1" height="61" fill="#EAEAEA"/>
<rect x="1507" y="896" width="1" height="61" fill="#EAEAEA"/>
<rect x="1569" y="896" width="1" height="61" fill="#EAEAEA"/>
<rect x="1683" y="896" width="1" height="61" fill="#EAEAEA"/>
<rect x="1844" y="896" width="1" height="61" fill="#EAEAEA"/>
<circle cx="1872" cy="917" r="3" fill="#C1C1C1" fill-opacity="0.6"/>
<circle cx="1872" cy="926" r="3" fill="#C1C1C1" fill-opacity="0.6"/>
<circle cx="1872" cy="935" r="3" fill="#C1C1C1" fill-opacity="0.6"/>
<rect x="577.5" y="896.5" width="1321" height="60" stroke="#EAEAEA"/>
<rect x="577.5" y="956.5" width="1321" height="60" fill="#FBFBFB"/>
<rect x="593" y="984.5" width="98" height="4" rx="2" fill="#333333"/>
<rect x="984" y="984.5" width="89" height="4" rx="2" fill="#CABBE9"/>
<rect x="1081" y="984.5" width="102" height="4" rx="2" fill="#A4DBBE"/>
<rect x="1191" y="984.5" width="61" height="4" rx="2" fill="#E7C29F"/>
<rect x="967" y="956" width="1" height="61" fill="#EAEAEA"/>
<rect x="1507" y="956" width="1" height="61" fill="#EAEAEA"/>
<rect x="1569" y="956" width="1" height="61" fill="#EAEAEA"/>
<rect x="1683" y="956" width="1" height="61" fill="#EAEAEA"/>
<rect x="1844" y="956" width="1" height="61" fill="#EAEAEA"/>
<circle cx="1872" cy="977" r="3" fill="#C1C1C1" fill-opacity="0.6"/>
<circle cx="1872" cy="986" r="3" fill="#C1C1C1" fill-opacity="0.6"/>
<circle cx="1872" cy="995" r="3" fill="#C1C1C1" fill-opacity="0.6"/>
<rect x="577.5" y="956.5" width="1321" height="60" stroke="#EAEAEA"/>
<rect x="577.5" y="1016.5" width="1321" height="60" fill="white"/>
<rect x="593" y="1044.5" width="153" height="4" rx="2" fill="#333333"/>
<rect x="984" y="1044.5" width="89" height="4" rx="2" fill="#CABBE9"/>
<rect x="1081" y="1044.5" width="102" height="4" rx="2" fill="#A4DBBE"/>
<rect x="967" y="1016" width="1" height="61" fill="#EAEAEA"/>
<rect x="1507" y="1016" width="1" height="61" fill="#EAEAEA"/>
<rect x="1569" y="1016" width="1" height="61" fill="#EAEAEA"/>
<rect x="1683" y="1016" width="1" height="61" fill="#EAEAEA"/>
<rect x="1844" y="1016" width="1" height="61" fill="#EAEAEA"/>
<circle cx="1872" cy="1037" r="3" fill="#C1C1C1" fill-opacity="0.6"/>
<circle cx="1872" cy="1046" r="3" fill="#C1C1C1" fill-opacity="0.6"/>
<circle cx="1872" cy="1055" r="3" fill="#C1C1C1" fill-opacity="0.6"/>
<rect x="577.5" y="1016.5" width="1321" height="60" stroke="#EAEAEA"/>
<rect x="577.5" y="1076.5" width="1321" height="60" fill="#FBFBFB"/>
<rect x="593" y="1104.5" width="98" height="4" rx="2" fill="#333333"/>
<rect x="984" y="1104.5" width="89" height="4" rx="2" fill="#CABBE9"/>
<rect x="1081" y="1104.5" width="61" height="4" rx="2" fill="#E7C29F"/>
<rect x="967" y="1076" width="1" height="61" fill="#EAEAEA"/>
<rect x="1507" y="1076" width="1" height="61" fill="#EAEAEA"/>
<rect x="1569" y="1076" width="1" height="61" fill="#EAEAEA"/>
<rect x="1683" y="1076" width="1" height="61" fill="#EAEAEA"/>
<rect x="1844" y="1076" width="1" height="61" fill="#EAEAEA"/>
<circle cx="1872" cy="1097" r="3" fill="#C1C1C1" fill-opacity="0.6"/>
<circle cx="1872" cy="1106" r="3" fill="#C1C1C1" fill-opacity="0.6"/>
<circle cx="1872" cy="1115" r="3" fill="#C1C1C1" fill-opacity="0.6"/>
<rect x="577.5" y="1076.5" width="1321" height="60" stroke="#EAEAEA"/>
<rect x="577.5" y="1136.5" width="1321" height="60" fill="white"/>
<rect x="593" y="1164.5" width="43" height="4" rx="2" fill="#333333"/>
<rect x="984" y="1164.5" width="102" height="4" rx="2" fill="#A4DBBE"/>
<rect x="1094" y="1164.5" width="61" height="4" rx="2" fill="#E7C29F"/>
<rect x="967" y="1136" width="1" height="61" fill="#EAEAEA"/>
<rect x="1507" y="1136" width="1" height="61" fill="#EAEAEA"/>
<rect x="1569" y="1136" width="1" height="61" fill="#EAEAEA"/>
<rect x="1683" y="1136" width="1" height="61" fill="#EAEAEA"/>
<rect x="1844" y="1136" width="1" height="61" fill="#EAEAEA"/>
<circle cx="1872" cy="1157" r="3" fill="#C1C1C1" fill-opacity="0.6"/>
<circle cx="1872" cy="1166" r="3" fill="#C1C1C1" fill-opacity="0.6"/>
<circle cx="1872" cy="1175" r="3" fill="#C1C1C1" fill-opacity="0.6"/>
<rect x="577.5" y="1136.5" width="1321" height="60" stroke="#EAEAEA"/>
<rect x="577.5" y="1196.5" width="1321" height="60" fill="#FBFBFB"/>
<rect x="593" y="1224.5" width="43" height="4" rx="2" fill="#333333"/>
<rect x="984" y="1224.5" width="102" height="4" rx="2" fill="#A4DBBE"/>
<rect x="967" y="1196" width="1" height="61" fill="#EAEAEA"/>
<rect x="1507" y="1196" width="1" height="61" fill="#EAEAEA"/>
<rect x="1569" y="1196" width="1" height="61" fill="#EAEAEA"/>
<rect x="1683" y="1196" width="1" height="61" fill="#EAEAEA"/>
<rect x="1844" y="1196" width="1" height="61" fill="#EAEAEA"/>
<circle cx="1872" cy="1217" r="3" fill="#C1C1C1" fill-opacity="0.6"/>
<circle cx="1872" cy="1226" r="3" fill="#C1C1C1" fill-opacity="0.6"/>
<circle cx="1872" cy="1235" r="3" fill="#C1C1C1" fill-opacity="0.6"/>
<rect x="577.5" y="1196.5" width="1321" height="60" stroke="#EAEAEA"/>
<rect x="577.5" y="1256.5" width="1321" height="60" fill="white"/>
<rect x="593" y="1284.5" width="153" height="4" rx="2" fill="#333333"/>
<rect x="984" y="1284.5" width="89" height="4" rx="2" fill="#CABBE9"/>
<rect x="967" y="1256" width="1" height="61" fill="#EAEAEA"/>
<rect x="1507" y="1256" width="1" height="61" fill="#EAEAEA"/>
<rect x="1569" y="1256" width="1" height="61" fill="#EAEAEA"/>
<rect x="1683" y="1256" width="1" height="61" fill="#EAEAEA"/>
<rect x="1844" y="1256" width="1" height="61" fill="#EAEAEA"/>
<circle cx="1872" cy="1277" r="3" fill="#C1C1C1" fill-opacity="0.6"/>
<circle cx="1872" cy="1286" r="3" fill="#C1C1C1" fill-opacity="0.6"/>
<circle cx="1872" cy="1295" r="3" fill="#C1C1C1" fill-opacity="0.6"/>
<rect x="577.5" y="1256.5" width="1321" height="60" stroke="#EAEAEA"/>
<rect x="577.5" y="1316.5" width="1321" height="60" fill="#FBFBFB"/>
<rect x="593" y="1344.5" width="153" height="4" rx="2" fill="#333333"/>
<rect x="984" y="1344.5" width="102" height="4" rx="2" fill="#A4DBBE"/>
<rect x="967" y="1316" width="1" height="61" fill="#EAEAEA"/>
<rect x="1507" y="1316" width="1" height="61" fill="#EAEAEA"/>
<rect x="1569" y="1316" width="1" height="61" fill="#EAEAEA"/>
<rect x="1683" y="1316" width="1" height="61" fill="#EAEAEA"/>
<rect x="1844" y="1316" width="1" height="61" fill="#EAEAEA"/>
<circle cx="1872" cy="1337" r="3" fill="#C1C1C1" fill-opacity="0.6"/>
<circle cx="1872" cy="1346" r="3" fill="#C1C1C1" fill-opacity="0.6"/>
<circle cx="1872" cy="1355" r="3" fill="#C1C1C1" fill-opacity="0.6"/>
<rect x="577.5" y="1316.5" width="1321" height="60" stroke="#EAEAEA"/>
<rect x="577.5" y="1376.5" width="1321" height="60" fill="white"/>
<rect x="593" y="1404.5" width="98" height="4" rx="2" fill="#333333"/>
<rect x="984" y="1404.5" width="61" height="4" rx="2" fill="#E7C29F"/>
<rect x="967" y="1376" width="1" height="61" fill="#EAEAEA"/>
<rect x="1507" y="1376" width="1" height="61" fill="#EAEAEA"/>
<rect x="1569" y="1376" width="1" height="61" fill="#EAEAEA"/>
<rect x="1683" y="1376" width="1" height="61" fill="#EAEAEA"/>
<rect x="1844" y="1376" width="1" height="61" fill="#EAEAEA"/>
<circle cx="1872" cy="1397" r="3" fill="#C1C1C1" fill-opacity="0.6"/>
<circle cx="1872" cy="1406" r="3" fill="#C1C1C1" fill-opacity="0.6"/>
<circle cx="1872" cy="1415" r="3" fill="#C1C1C1" fill-opacity="0.6"/>
<rect x="577.5" y="1376.5" width="1321" height="60" stroke="#EAEAEA"/>
<rect x="577.5" y="1436.5" width="1321" height="60" fill="#FBFBFB"/>
<rect x="593" y="1464.5" width="98" height="4" rx="2" fill="#333333"/>
<rect x="984" y="1464.5" width="89" height="4" rx="2" fill="#CABBE9"/>
<rect x="967" y="1436" width="1" height="61" fill="#EAEAEA"/>
<rect x="1507" y="1436" width="1" height="61" fill="#EAEAEA"/>
<rect x="1569" y="1436" width="1" height="61" fill="#EAEAEA"/>
<rect x="1683" y="1436" width="1" height="61" fill="#EAEAEA"/>
<rect x="1844" y="1436" width="1" height="61" fill="#EAEAEA"/>
<circle cx="1872" cy="1457" r="3" fill="#C1C1C1" fill-opacity="0.6"/>
<circle cx="1872" cy="1466" r="3" fill="#C1C1C1" fill-opacity="0.6"/>
<circle cx="1872" cy="1475" r="3" fill="#C1C1C1" fill-opacity="0.6"/>
<rect x="577.5" y="1436.5" width="1321" height="60" stroke="#EAEAEA"/>
<rect x="577.5" y="1496.5" width="1321" height="60" fill="white"/>
<rect x="593" y="1524.5" width="43" height="4" rx="2" fill="#333333"/>
<rect x="984" y="1524.5" width="61" height="4" rx="2" fill="#E7C29F"/>
<rect x="967" y="1496" width="1" height="61" fill="#EAEAEA"/>
<rect x="1507" y="1496" width="1" height="61" fill="#EAEAEA"/>
<rect x="1569" y="1496" width="1" height="61" fill="#EAEAEA"/>
<rect x="1683" y="1496" width="1" height="61" fill="#EAEAEA"/>
<rect x="1844" y="1496" width="1" height="61" fill="#EAEAEA"/>
<circle cx="1872" cy="1517" r="3" fill="#C1C1C1" fill-opacity="0.6"/>
<circle cx="1872" cy="1526" r="3" fill="#C1C1C1" fill-opacity="0.6"/>
<circle cx="1872" cy="1535" r="3" fill="#C1C1C1" fill-opacity="0.6"/>
<rect x="577.5" y="1496.5" width="1321" height="60" stroke="#EAEAEA"/>
<rect x="577.5" y="1556.5" width="1321" height="60" fill="#FBFBFB"/>
<rect x="593" y="1584.5" width="43" height="4" rx="2" fill="#333333"/>
<rect x="984" y="1584.5" width="89" height="4" rx="2" fill="#CABBE9"/>
<rect x="1081" y="1584.5" width="102" height="4" rx="2" fill="#A4DBBE"/>
<rect x="1191" y="1584.5" width="61" height="4" rx="2" fill="#E7C29F"/>
<rect x="967" y="1556" width="1" height="61" fill="#EAEAEA"/>
<rect x="1507" y="1556" width="1" height="61" fill="#EAEAEA"/>
<rect x="1569" y="1556" width="1" height="61" fill="#EAEAEA"/>
<rect x="1683" y="1556" width="1" height="61" fill="#EAEAEA"/>
<rect x="1844" y="1556" width="1" height="61" fill="#EAEAEA"/>
<circle cx="1872" cy="1577" r="3" fill="#C1C1C1" fill-opacity="0.6"/>
<circle cx="1872" cy="1586" r="3" fill="#C1C1C1" fill-opacity="0.6"/>
<circle cx="1872" cy="1595" r="3" fill="#C1C1C1" fill-opacity="0.6"/>
<rect x="577.5" y="1556.5" width="1321" height="60" stroke="#EAEAEA"/>
<g filter="url(#filter1_d_739_518275)">
<rect width="1322" height="34" transform="translate(577 863)" fill="white"/>
<rect x="577" y="896" width="1322" height="1" fill="#EAEAEA"/>
<rect x="967" y="863" width="1" height="34" fill="#E4E4E4"/>
<rect x="1507" y="863" width="1" height="34" fill="#E4E4E4"/>
<rect x="1569" y="863" width="1" height="34" fill="#E4E4E4"/>
<rect x="1683" y="863" width="1" height="34" fill="#E4E4E4"/>
<rect x="1844" y="863" width="1" height="34" fill="#E4E4E4"/>
<rect x="593" y="877" width="63" height="4" rx="2" fill="#767676"/>
<rect x="984" y="877" width="76" height="4" rx="2" fill="#767676"/>
<rect x="1523" y="877" width="26" height="4" rx="2" fill="#767676"/>
<rect x="1586" y="877" width="53" height="4" rx="2" fill="#767676"/>
<rect x="1700" y="877" width="96" height="4" rx="2" fill="#767676"/>
</g>
<rect x="1522" y="925" width="13" height="4" rx="2" fill="#9E9E9E"/>
<rect x="1586" y="925" width="13" height="4" rx="2" fill="#9E9E9E"/>
<rect x="1700" y="925" width="53" height="4" rx="2" fill="#9E9E9E"/>
<rect x="1522" y="985" width="13" height="4" rx="2" fill="#9E9E9E"/>
<rect x="1586" y="985" width="13" height="4" rx="2" fill="#9E9E9E"/>
<rect x="1700" y="985" width="53" height="4" rx="2" fill="#9E9E9E"/>
<rect x="1522" y="1045" width="13" height="4" rx="2" fill="#9E9E9E"/>
<rect x="1586" y="1045" width="13" height="4" rx="2" fill="#9E9E9E"/>
<rect x="1700" y="1045" width="53" height="4" rx="2" fill="#9E9E9E"/>
<rect x="1522" y="1105" width="13" height="4" rx="2" fill="#9E9E9E"/>
<rect x="1586" y="1105" width="13" height="4" rx="2" fill="#9E9E9E"/>
<rect x="1700" y="1105" width="53" height="4" rx="2" fill="#9E9E9E"/>
<rect x="1522" y="1165" width="13" height="4" rx="2" fill="#9E9E9E"/>
<rect x="1586" y="1165" width="13" height="4" rx="2" fill="#9E9E9E"/>
<rect x="1700" y="1165" width="53" height="4" rx="2" fill="#9E9E9E"/>
<rect x="1522" y="1225" width="13" height="4" rx="2" fill="#9E9E9E"/>
<rect x="1586" y="1225" width="13" height="4" rx="2" fill="#9E9E9E"/>
<rect x="1700" y="1225" width="53" height="4" rx="2" fill="#9E9E9E"/>
<rect x="1522" y="1285" width="13" height="4" rx="2" fill="#9E9E9E"/>
<rect x="1586" y="1285" width="13" height="4" rx="2" fill="#9E9E9E"/>
<rect x="1700" y="1285" width="53" height="4" rx="2" fill="#9E9E9E"/>
<rect x="1522" y="1345" width="13" height="4" rx="2" fill="#9E9E9E"/>
<rect x="1586" y="1345" width="13" height="4" rx="2" fill="#9E9E9E"/>
<rect x="1700" y="1345" width="53" height="4" rx="2" fill="#9E9E9E"/>
<rect x="1522" y="1405" width="13" height="4" rx="2" fill="#9E9E9E"/>
<rect x="1586" y="1405" width="13" height="4" rx="2" fill="#9E9E9E"/>
<rect x="1700" y="1405" width="53" height="4" rx="2" fill="#9E9E9E"/>
<rect x="1522" y="1465" width="13" height="4" rx="2" fill="#9E9E9E"/>
<rect x="1586" y="1465" width="13" height="4" rx="2" fill="#9E9E9E"/>
<rect x="1700" y="1465" width="53" height="4" rx="2" fill="#9E9E9E"/>
<rect x="1522" y="1525" width="13" height="4" rx="2" fill="#9E9E9E"/>
<rect x="1586" y="1525" width="13" height="4" rx="2" fill="#9E9E9E"/>
<rect x="1700" y="1525" width="53" height="4" rx="2" fill="#9E9E9E"/>
<rect x="1522" y="1585" width="13" height="4" rx="2" fill="#9E9E9E"/>
<rect x="1586" y="1585" width="13" height="4" rx="2" fill="#9E9E9E"/>
<rect x="1700" y="1585" width="53" height="4" rx="2" fill="#9E9E9E"/>
<g clip-path="url(#clip2_739_518275)">
<path d="M588.125 753.17V736.123H601.893V750.439L604.516 748.273V734.811C604.516 734.087 603.929 733.5 603.205 733.5H586.814C586.09 733.5 585.503 734.087 585.503 734.811V754.481C585.503 755.205 586.09 755.792 586.814 755.792H598.256L596.403 753.17H588.125Z" fill="#333333"/>
<path d="M608.292 747.598C608.05 747.37 607.679 747.36 607.425 747.569L601.41 752.54L597.402 750.135C597.136 749.976 596.796 750.023 596.584 750.252C596.373 750.479 596.35 750.822 596.53 751.076L600.873 757.222C600.995 757.394 601.192 757.497 601.403 757.5C601.405 757.5 601.407 757.5 601.409 757.5C601.617 757.5 601.814 757.401 601.937 757.231L608.371 748.462C608.565 748.196 608.532 747.826 608.292 747.598Z" fill="#333333"/>
<path d="M598.943 738.09H591.075C590.351 738.09 589.764 738.677 589.764 739.401C589.764 740.125 590.351 740.712 591.075 740.712H598.943C599.667 740.712 600.253 740.125 600.253 739.401C600.253 738.677 599.667 738.09 598.943 738.09Z" fill="#333333"/>
<path d="M598.943 742.023H591.075C590.351 742.023 589.764 742.61 589.764 743.334C589.764 744.058 590.351 744.646 591.075 744.646H598.943C599.667 744.646 600.253 744.059 600.253 743.334C600.255 742.61 599.667 742.023 598.943 742.023Z" fill="#333333"/>
<path d="M598.943 745.957H591.075C590.351 745.957 589.764 746.544 589.764 747.268C589.764 747.992 590.351 748.58 591.075 748.58H598.943C599.667 748.58 600.253 747.992 600.253 747.268C600.255 746.544 599.667 745.957 598.943 745.957Z" fill="#333333"/>
</g>
<path d="M629.172 740.804C629.076 740.972 628.972 741.096 628.86 741.176C628.756 741.248 628.624 741.284 628.464 741.284C628.296 741.284 628.112 741.224 627.912 741.104C627.72 740.976 627.488 740.836 627.216 740.684C626.944 740.532 626.624 740.396 626.256 740.276C625.896 740.148 625.468 740.084 624.972 740.084C624.524 740.084 624.132 740.14 623.796 740.252C623.46 740.356 623.176 740.504 622.944 740.696C622.72 740.888 622.552 741.12 622.44 741.392C622.328 741.656 622.272 741.948 622.272 742.268C622.272 742.676 622.384 743.016 622.608 743.288C622.84 743.56 623.144 743.792 623.52 743.984C623.896 744.176 624.324 744.348 624.804 744.5C625.284 744.652 625.776 744.816 626.28 744.992C626.784 745.16 627.276 745.36 627.756 745.592C628.236 745.816 628.664 746.104 629.04 746.456C629.416 746.8 629.716 747.224 629.94 747.728C630.172 748.232 630.288 748.844 630.288 749.564C630.288 750.348 630.152 751.084 629.88 751.772C629.616 752.452 629.224 753.048 628.704 753.56C628.192 754.064 627.564 754.464 626.82 754.76C626.076 755.048 625.224 755.192 624.264 755.192C623.712 755.192 623.168 755.136 622.632 755.024C622.096 754.92 621.58 754.768 621.084 754.568C620.596 754.368 620.136 754.128 619.704 753.848C619.272 753.568 618.888 753.256 618.552 752.912L619.5 751.364C619.58 751.252 619.684 751.16 619.812 751.088C619.94 751.008 620.076 750.968 620.22 750.968C620.42 750.968 620.636 751.052 620.868 751.22C621.1 751.38 621.376 751.56 621.696 751.76C622.016 751.96 622.388 752.144 622.812 752.312C623.244 752.472 623.76 752.552 624.36 752.552C625.28 752.552 625.992 752.336 626.496 751.904C627 751.464 627.252 750.836 627.252 750.02C627.252 749.564 627.136 749.192 626.904 748.904C626.68 748.616 626.38 748.376 626.004 748.184C625.628 747.984 625.2 747.816 624.72 747.68C624.24 747.544 623.752 747.396 623.256 747.236C622.76 747.076 622.272 746.884 621.792 746.66C621.312 746.436 620.884 746.144 620.508 745.784C620.132 745.424 619.828 744.976 619.596 744.44C619.372 743.896 619.26 743.228 619.26 742.436C619.26 741.804 619.384 741.188 619.632 740.588C619.888 739.988 620.256 739.456 620.736 738.992C621.216 738.528 621.808 738.156 622.512 737.876C623.216 737.596 624.024 737.456 624.936 737.456C625.96 737.456 626.904 737.616 627.768 737.936C628.632 738.256 629.368 738.704 629.976 739.28L629.172 740.804ZM632.402 755V742.688H634.214C634.598 742.688 634.85 742.868 634.97 743.228L635.162 744.14C635.378 743.9 635.602 743.68 635.834 743.48C636.074 743.28 636.326 743.108 636.59 742.964C636.862 742.82 637.15 742.708 637.454 742.628C637.766 742.54 638.106 742.496 638.474 742.496C639.25 742.496 639.886 742.708 640.382 743.132C640.886 743.548 641.262 744.104 641.51 744.8C641.702 744.392 641.942 744.044 642.23 743.756C642.518 743.46 642.834 743.22 643.178 743.036C643.522 742.852 643.886 742.716 644.27 742.628C644.662 742.54 645.054 742.496 645.446 742.496C646.126 742.496 646.73 742.6 647.258 742.808C647.786 743.016 648.23 743.32 648.59 743.72C648.95 744.12 649.222 744.608 649.406 745.184C649.598 745.76 649.694 746.42 649.694 747.164V755H646.73V747.164C646.73 746.38 646.558 745.792 646.214 745.4C645.87 745 645.366 744.8 644.702 744.8C644.398 744.8 644.114 744.852 643.85 744.956C643.594 745.06 643.366 745.212 643.166 745.412C642.974 745.604 642.822 745.848 642.71 746.144C642.598 746.44 642.542 746.78 642.542 747.164V755H639.566V747.164C639.566 746.34 639.398 745.74 639.062 745.364C638.734 744.988 638.25 744.8 637.61 744.8C637.178 744.8 636.774 744.908 636.398 745.124C636.03 745.332 635.686 745.62 635.366 745.988V755H632.402ZM659.015 749.744C658.159 749.784 657.439 749.86 656.855 749.972C656.271 750.076 655.803 750.212 655.451 750.38C655.099 750.548 654.847 750.744 654.695 750.968C654.543 751.192 654.467 751.436 654.467 751.7C654.467 752.22 654.619 752.592 654.923 752.816C655.235 753.04 655.639 753.152 656.135 753.152C656.743 753.152 657.267 753.044 657.707 752.828C658.155 752.604 658.591 752.268 659.015 751.82V749.744ZM652.223 744.404C653.639 743.108 655.343 742.46 657.335 742.46C658.055 742.46 658.699 742.58 659.267 742.82C659.835 743.052 660.315 743.38 660.707 743.804C661.099 744.22 661.395 744.72 661.595 745.304C661.803 745.888 661.907 746.528 661.907 747.224V755H660.563C660.283 755 660.067 754.96 659.915 754.88C659.763 754.792 659.643 754.62 659.555 754.364L659.291 753.476C658.979 753.756 658.675 754.004 658.379 754.22C658.083 754.428 657.775 754.604 657.455 754.748C657.135 754.892 656.791 755 656.423 755.072C656.063 755.152 655.663 755.192 655.223 755.192C654.703 755.192 654.223 755.124 653.783 754.988C653.343 754.844 652.963 754.632 652.643 754.352C652.323 754.072 652.075 753.724 651.899 753.308C651.723 752.892 651.635 752.408 651.635 751.856C651.635 751.544 651.687 751.236 651.791 750.932C651.895 750.62 652.063 750.324 652.295 750.044C652.535 749.764 652.843 749.5 653.219 749.252C653.595 749.004 654.055 748.788 654.599 748.604C655.151 748.42 655.791 748.272 656.519 748.16C657.247 748.04 658.079 747.968 659.015 747.944V747.224C659.015 746.4 658.839 745.792 658.487 745.4C658.135 745 657.627 744.8 656.963 744.8C656.483 744.8 656.083 744.856 655.763 744.968C655.451 745.08 655.175 745.208 654.935 745.352C654.695 745.488 654.475 745.612 654.275 745.724C654.083 745.836 653.867 745.892 653.627 745.892C653.419 745.892 653.243 745.84 653.099 745.736C652.955 745.624 652.839 745.496 652.751 745.352L652.223 744.404ZM667.494 744.824C667.878 744.088 668.334 743.512 668.862 743.096C669.39 742.672 670.014 742.46 670.734 742.46C671.302 742.46 671.758 742.584 672.102 742.832L671.91 745.052C671.87 745.196 671.81 745.3 671.73 745.364C671.658 745.42 671.558 745.448 671.43 745.448C671.31 745.448 671.13 745.428 670.89 745.388C670.658 745.348 670.43 745.328 670.206 745.328C669.878 745.328 669.586 745.376 669.33 745.472C669.074 745.568 668.842 745.708 668.634 745.892C668.434 746.068 668.254 746.284 668.094 746.54C667.942 746.796 667.798 747.088 667.662 747.416V755H664.698V742.688H666.438C666.742 742.688 666.954 742.744 667.074 742.856C667.194 742.96 667.274 743.152 667.314 743.432L667.494 744.824ZM677.756 755.192C676.684 755.192 675.86 754.892 675.284 754.292C674.716 753.684 674.432 752.848 674.432 751.784V744.908H673.172C673.012 744.908 672.876 744.856 672.764 744.752C672.652 744.648 672.596 744.492 672.596 744.284V743.108L674.576 742.784L675.2 739.424C675.24 739.264 675.316 739.14 675.428 739.052C675.54 738.964 675.684 738.92 675.86 738.92H677.396V742.796H680.684V744.908H677.396V751.58C677.396 751.964 677.488 752.264 677.672 752.48C677.864 752.696 678.124 752.804 678.452 752.804C678.636 752.804 678.788 752.784 678.908 752.744C679.036 752.696 679.144 752.648 679.232 752.6C679.328 752.552 679.412 752.508 679.484 752.468C679.556 752.42 679.628 752.396 679.7 752.396C679.788 752.396 679.86 752.42 679.916 752.468C679.972 752.508 680.032 752.572 680.096 752.66L680.984 754.1C680.552 754.46 680.056 754.732 679.496 754.916C678.936 755.1 678.356 755.192 677.756 755.192ZM697.256 748.448L695.144 742.676C695.04 742.42 694.932 742.116 694.82 741.764C694.708 741.412 694.596 741.032 694.484 740.624C694.38 741.032 694.272 741.416 694.16 741.776C694.048 742.128 693.94 742.436 693.836 742.7L691.736 748.448H697.256ZM702.956 755H700.46C700.18 755 699.952 754.932 699.776 754.796C699.6 754.652 699.468 754.476 699.38 754.268L698.084 750.728H690.896L689.6 754.268C689.536 754.452 689.412 754.62 689.228 754.772C689.044 754.924 688.816 755 688.544 755H686.024L692.852 737.648H696.14L702.956 755ZM712.776 745.292C712.688 745.404 712.6 745.492 712.512 745.556C712.432 745.62 712.312 745.652 712.152 745.652C712 745.652 711.852 745.608 711.708 745.52C711.564 745.424 711.392 745.32 711.192 745.208C710.992 745.088 710.752 744.984 710.472 744.896C710.2 744.8 709.86 744.752 709.452 744.752C708.932 744.752 708.476 744.848 708.084 745.04C707.692 745.224 707.364 745.492 707.1 745.844C706.844 746.196 706.652 746.624 706.524 747.128C706.396 747.624 706.332 748.188 706.332 748.82C706.332 749.476 706.4 750.06 706.536 750.572C706.68 751.084 706.884 751.516 707.148 751.868C707.412 752.212 707.732 752.476 708.108 752.66C708.484 752.836 708.908 752.924 709.38 752.924C709.852 752.924 710.232 752.868 710.52 752.756C710.816 752.636 711.064 752.508 711.264 752.372C711.464 752.228 711.636 752.1 711.78 751.988C711.932 751.868 712.1 751.808 712.284 751.808C712.524 751.808 712.704 751.9 712.824 752.084L713.676 753.164C713.348 753.548 712.992 753.872 712.608 754.136C712.224 754.392 711.824 754.6 711.408 754.76C711 754.912 710.576 755.02 710.136 755.084C709.704 755.148 709.272 755.18 708.84 755.18C708.08 755.18 707.364 755.04 706.692 754.76C706.02 754.472 705.432 754.056 704.928 753.512C704.424 752.968 704.024 752.304 703.728 751.52C703.44 750.728 703.296 749.828 703.296 748.82C703.296 747.916 703.424 747.08 703.68 746.312C703.944 745.536 704.328 744.868 704.832 744.308C705.336 743.74 705.96 743.296 706.704 742.976C707.448 742.656 708.304 742.496 709.272 742.496C710.192 742.496 710.996 742.644 711.684 742.94C712.38 743.236 713.004 743.66 713.556 744.212L712.776 745.292ZM727.954 755H724.99V744.908H719.278V751.58C719.278 751.964 719.37 752.264 719.554 752.48C719.746 752.696 720.006 752.804 720.334 752.804C720.518 752.804 720.67 752.784 720.79 752.744C720.918 752.696 721.026 752.648 721.114 752.6C721.21 752.552 721.294 752.508 721.366 752.468C721.438 752.42 721.51 752.396 721.582 752.396C721.67 752.396 721.742 752.42 721.798 752.468C721.854 752.508 721.914 752.572 721.978 752.66L722.866 754.1C722.434 754.46 721.938 754.732 721.378 754.916C720.818 755.1 720.238 755.192 719.638 755.192C718.566 755.192 717.742 754.892 717.166 754.292C716.598 753.684 716.314 752.848 716.314 751.784V744.908H715.054C714.894 744.908 714.758 744.856 714.646 744.752C714.534 744.648 714.478 744.492 714.478 744.284V743.108L716.458 742.772L717.082 739.424C717.122 739.264 717.198 739.14 717.31 739.052C717.422 738.964 717.566 738.92 717.742 738.92H719.278V742.796H727.954V755ZM728.47 739.052C728.47 739.308 728.418 739.552 728.314 739.784C728.21 740.008 728.07 740.204 727.894 740.372C727.726 740.54 727.522 740.676 727.282 740.78C727.05 740.876 726.802 740.924 726.538 740.924C726.282 740.924 726.042 740.876 725.818 740.78C725.594 740.676 725.398 740.54 725.23 740.372C725.062 740.204 724.926 740.008 724.822 739.784C724.726 739.552 724.678 739.308 724.678 739.052C724.678 738.788 724.726 738.544 724.822 738.32C724.926 738.088 725.062 737.888 725.23 737.72C725.398 737.544 725.594 737.408 725.818 737.312C726.042 737.208 726.282 737.156 726.538 737.156C726.802 737.156 727.05 737.208 727.282 737.312C727.522 737.408 727.726 737.544 727.894 737.72C728.07 737.888 728.21 738.088 728.314 738.32C728.418 738.544 728.47 738.788 728.47 739.052ZM736.428 742.496C737.34 742.496 738.168 742.644 738.912 742.94C739.664 743.236 740.304 743.656 740.832 744.2C741.368 744.744 741.78 745.408 742.068 746.192C742.356 746.976 742.5 747.852 742.5 748.82C742.5 749.796 742.356 750.676 742.068 751.46C741.78 752.244 741.368 752.912 740.832 753.464C740.304 754.016 739.664 754.44 738.912 754.736C738.168 755.032 737.34 755.18 736.428 755.18C735.508 755.18 734.672 755.032 733.92 754.736C733.168 754.44 732.524 754.016 731.988 753.464C731.46 752.912 731.048 752.244 730.752 751.46C730.464 750.676 730.32 749.796 730.32 748.82C730.32 747.852 730.464 746.976 730.752 746.192C731.048 745.408 731.46 744.744 731.988 744.2C732.524 743.656 733.168 743.236 733.92 742.94C734.672 742.644 735.508 742.496 736.428 742.496ZM736.428 752.9C737.452 752.9 738.208 752.556 738.696 751.868C739.192 751.18 739.44 750.172 739.44 748.844C739.44 747.516 739.192 746.504 738.696 745.808C738.208 745.112 737.452 744.764 736.428 744.764C735.388 744.764 734.616 745.116 734.112 745.82C733.616 746.516 733.368 747.524 733.368 748.844C733.368 750.164 733.616 751.172 734.112 751.868C734.616 752.556 735.388 752.9 736.428 752.9ZM747.533 744.2C747.781 743.952 748.041 743.724 748.313 743.516C748.593 743.3 748.885 743.12 749.189 742.976C749.501 742.824 749.833 742.708 750.185 742.628C750.537 742.54 750.921 742.496 751.337 742.496C752.009 742.496 752.605 742.612 753.125 742.844C753.645 743.068 754.077 743.388 754.421 743.804C754.773 744.212 755.037 744.704 755.213 745.28C755.397 745.848 755.489 746.476 755.489 747.164V755H752.525V747.164C752.525 746.412 752.353 745.832 752.009 745.424C751.665 745.008 751.141 744.8 750.437 744.8C749.925 744.8 749.445 744.916 748.997 745.148C748.549 745.38 748.125 745.696 747.725 746.096V755H744.761V742.688H746.573C746.957 742.688 747.209 742.868 747.329 743.228L747.533 744.2ZM765.82 745.088C765.74 745.216 765.656 745.308 765.568 745.364C765.48 745.412 765.368 745.436 765.232 745.436C765.088 745.436 764.932 745.396 764.764 745.316C764.604 745.236 764.416 745.148 764.2 745.052C763.984 744.948 763.736 744.856 763.456 744.776C763.184 744.696 762.86 744.656 762.484 744.656C761.9 744.656 761.44 744.78 761.104 745.028C760.776 745.276 760.612 745.6 760.612 746C760.612 746.264 760.696 746.488 760.864 746.672C761.04 746.848 761.268 747.004 761.548 747.14C761.836 747.276 762.16 747.4 762.52 747.512C762.88 747.616 763.244 747.732 763.612 747.86C763.988 747.988 764.356 748.136 764.716 748.304C765.076 748.464 765.396 748.672 765.676 748.928C765.964 749.176 766.192 749.476 766.36 749.828C766.536 750.18 766.624 750.604 766.624 751.1C766.624 751.692 766.516 752.24 766.3 752.744C766.092 753.24 765.78 753.672 765.364 754.04C764.948 754.4 764.432 754.684 763.816 754.892C763.208 755.092 762.504 755.192 761.704 755.192C761.28 755.192 760.864 755.152 760.456 755.072C760.056 755 759.668 754.896 759.292 754.76C758.924 754.624 758.58 754.464 758.26 754.28C757.948 754.096 757.672 753.896 757.432 753.68L758.116 752.552C758.204 752.416 758.308 752.312 758.428 752.24C758.548 752.168 758.7 752.132 758.884 752.132C759.068 752.132 759.24 752.184 759.4 752.288C759.568 752.392 759.76 752.504 759.976 752.624C760.192 752.744 760.444 752.856 760.732 752.96C761.028 753.064 761.4 753.116 761.848 753.116C762.2 753.116 762.5 753.076 762.748 752.996C763.004 752.908 763.212 752.796 763.372 752.66C763.54 752.524 763.66 752.368 763.732 752.192C763.812 752.008 763.852 751.82 763.852 751.628C763.852 751.34 763.764 751.104 763.588 750.92C763.42 750.736 763.192 750.576 762.904 750.44C762.624 750.304 762.3 750.184 761.932 750.08C761.572 749.968 761.2 749.848 760.816 749.72C760.44 749.592 760.068 749.444 759.7 749.276C759.34 749.1 759.016 748.88 758.728 748.616C758.448 748.352 758.22 748.028 758.044 747.644C757.876 747.26 757.792 746.796 757.792 746.252C757.792 745.748 757.892 745.268 758.092 744.812C758.292 744.356 758.584 743.96 758.968 743.624C759.36 743.28 759.844 743.008 760.42 742.808C761.004 742.6 761.676 742.496 762.436 742.496C763.284 742.496 764.056 742.636 764.752 742.916C765.448 743.196 766.028 743.564 766.492 744.02L765.82 745.088Z" fill="#333333"/>
<g filter="url(#filter2_i_739_518275)">
<rect x="1738" y="725" width="161" height="40" rx="4" fill="#4DAF7C"/>
<rect x="1738" y="725" width="161" height="40" rx="4" fill="url(#paint1_linear_739_518275)"/>
<g clip-path="url(#clip3_739_518275)">
<g filter="url(#filter3_d_739_518275)">
<path d="M1766.44 746.405L1765.12 742.797C1765.05 742.637 1764.99 742.447 1764.92 742.227C1764.85 742.007 1764.78 741.77 1764.71 741.515C1764.64 741.77 1764.57 742.01 1764.5 742.235C1764.43 742.455 1764.37 742.647 1764.3 742.812L1762.99 746.405H1766.44ZM1770 750.5H1768.44C1768.27 750.5 1768.12 750.457 1768.01 750.372C1767.9 750.282 1767.82 750.172 1767.76 750.042L1766.96 747.83H1762.46L1761.65 750.042C1761.61 750.157 1761.54 750.262 1761.42 750.357C1761.31 750.452 1761.16 750.5 1760.99 750.5H1759.42L1763.69 739.655H1765.74L1770 750.5ZM1775.5 744.77C1775.29 744.515 1775.06 744.335 1774.81 744.23C1774.56 744.125 1774.3 744.072 1774.01 744.072C1773.73 744.072 1773.48 744.125 1773.26 744.23C1773.03 744.335 1772.84 744.495 1772.68 744.71C1772.52 744.92 1772.4 745.19 1772.31 745.52C1772.23 745.845 1772.18 746.23 1772.18 746.675C1772.18 747.125 1772.22 747.507 1772.29 747.822C1772.36 748.132 1772.47 748.387 1772.6 748.587C1772.74 748.782 1772.9 748.925 1773.1 749.015C1773.29 749.1 1773.51 749.142 1773.75 749.142C1774.14 749.142 1774.46 749.062 1774.73 748.902C1775 748.742 1775.26 748.515 1775.5 748.22V744.77ZM1777.35 739.355V750.5H1776.22C1775.97 750.5 1775.82 750.387 1775.75 750.162L1775.6 749.42C1775.29 749.775 1774.93 750.062 1774.52 750.282C1774.12 750.503 1773.66 750.613 1773.12 750.613C1772.7 750.613 1772.32 750.525 1771.97 750.35C1771.62 750.175 1771.31 749.922 1771.06 749.592C1770.81 749.257 1770.61 748.845 1770.47 748.355C1770.34 747.865 1770.27 747.305 1770.27 746.675C1770.27 746.105 1770.35 745.575 1770.5 745.085C1770.66 744.595 1770.88 744.17 1771.17 743.81C1771.46 743.45 1771.81 743.17 1772.21 742.97C1772.62 742.765 1773.07 742.662 1773.58 742.662C1774.01 742.662 1774.38 742.73 1774.68 742.865C1774.99 743 1775.26 743.182 1775.5 743.412V739.355H1777.35ZM1784.01 744.77C1783.8 744.515 1783.57 744.335 1783.32 744.23C1783.07 744.125 1782.81 744.072 1782.52 744.072C1782.24 744.072 1781.99 744.125 1781.77 744.23C1781.54 744.335 1781.35 744.495 1781.19 744.71C1781.03 744.92 1780.91 745.19 1780.82 745.52C1780.74 745.845 1780.69 746.23 1780.69 746.675C1780.69 747.125 1780.73 747.507 1780.8 747.822C1780.87 748.132 1780.98 748.387 1781.11 748.587C1781.25 748.782 1781.41 748.925 1781.61 749.015C1781.8 749.1 1782.02 749.142 1782.26 749.142C1782.65 749.142 1782.97 749.062 1783.24 748.902C1783.51 748.742 1783.77 748.515 1784.01 748.22V744.77ZM1785.86 739.355V750.5H1784.73C1784.48 750.5 1784.33 750.387 1784.26 750.162L1784.11 749.42C1783.8 749.775 1783.44 750.062 1783.03 750.282C1782.63 750.503 1782.17 750.613 1781.63 750.613C1781.21 750.613 1780.83 750.525 1780.48 750.35C1780.13 750.175 1779.82 749.922 1779.57 749.592C1779.32 749.257 1779.12 748.845 1778.98 748.355C1778.85 747.865 1778.78 747.305 1778.78 746.675C1778.78 746.105 1778.86 745.575 1779.01 745.085C1779.17 744.595 1779.39 744.17 1779.68 743.81C1779.97 743.45 1780.32 743.17 1780.72 742.97C1781.13 742.765 1781.58 742.662 1782.09 742.662C1782.52 742.662 1782.89 742.73 1783.19 742.865C1783.5 743 1783.77 743.182 1784.01 743.412V739.355H1785.86ZM1797.41 741.627C1797.35 741.732 1797.28 741.81 1797.21 741.86C1797.15 741.905 1797.06 741.927 1796.96 741.927C1796.86 741.927 1796.74 741.89 1796.62 741.815C1796.5 741.735 1796.35 741.647 1796.18 741.552C1796.01 741.457 1795.81 741.372 1795.58 741.297C1795.36 741.217 1795.09 741.177 1794.78 741.177C1794.5 741.177 1794.26 741.212 1794.05 741.282C1793.84 741.347 1793.66 741.44 1793.51 741.56C1793.37 741.68 1793.27 741.825 1793.2 741.995C1793.13 742.16 1793.09 742.342 1793.09 742.542C1793.09 742.797 1793.16 743.01 1793.3 743.18C1793.45 743.35 1793.64 743.495 1793.87 743.615C1794.11 743.735 1794.38 743.842 1794.68 743.937C1794.98 744.032 1795.28 744.135 1795.6 744.245C1795.91 744.35 1796.22 744.475 1796.52 744.62C1796.82 744.76 1797.09 744.94 1797.32 745.16C1797.56 745.375 1797.75 745.64 1797.89 745.955C1798.03 746.27 1798.1 746.652 1798.1 747.102C1798.1 747.592 1798.02 748.052 1797.85 748.482C1797.68 748.907 1797.44 749.28 1797.11 749.6C1796.79 749.915 1796.4 750.165 1795.94 750.35C1795.47 750.53 1794.94 750.62 1794.34 750.62C1793.99 750.62 1793.65 750.585 1793.32 750.515C1792.98 750.45 1792.66 750.355 1792.35 750.23C1792.05 750.105 1791.76 749.955 1791.49 749.78C1791.22 749.605 1790.98 749.41 1790.77 749.195L1791.36 748.227C1791.41 748.157 1791.48 748.1 1791.56 748.055C1791.64 748.005 1791.72 747.98 1791.81 747.98C1791.94 747.98 1792.07 748.032 1792.22 748.137C1792.36 748.237 1792.53 748.35 1792.73 748.475C1792.93 748.6 1793.17 748.715 1793.43 748.82C1793.7 748.92 1794.02 748.97 1794.4 748.97C1794.97 748.97 1795.42 748.835 1795.73 748.565C1796.05 748.29 1796.21 747.897 1796.21 747.387C1796.21 747.102 1796.13 746.87 1795.99 746.69C1795.85 746.51 1795.66 746.36 1795.43 746.24C1795.19 746.115 1794.92 746.01 1794.62 745.925C1794.32 745.84 1794.02 745.747 1793.71 745.647C1793.4 745.547 1793.09 745.427 1792.79 745.287C1792.49 745.147 1792.23 744.965 1791.99 744.74C1791.76 744.515 1791.57 744.235 1791.42 743.9C1791.28 743.56 1791.21 743.142 1791.21 742.647C1791.21 742.252 1791.29 741.867 1791.44 741.492C1791.6 741.117 1791.83 740.785 1792.13 740.495C1792.43 740.205 1792.8 739.972 1793.24 739.797C1793.68 739.622 1794.19 739.535 1794.76 739.535C1795.4 739.535 1795.99 739.635 1796.53 739.835C1797.07 740.035 1797.53 740.315 1797.91 740.675L1797.41 741.627ZM1799.42 750.5V742.805H1800.56C1800.8 742.805 1800.95 742.917 1801.03 743.142L1801.15 743.712C1801.28 743.562 1801.42 743.425 1801.57 743.3C1801.72 743.175 1801.88 743.067 1802.04 742.977C1802.21 742.887 1802.39 742.817 1802.58 742.767C1802.78 742.712 1802.99 742.685 1803.22 742.685C1803.7 742.685 1804.1 742.817 1804.41 743.082C1804.73 743.342 1804.96 743.69 1805.12 744.125C1805.24 743.87 1805.39 743.652 1805.57 743.472C1805.75 743.287 1805.94 743.137 1806.16 743.022C1806.37 742.907 1806.6 742.822 1806.84 742.767C1807.09 742.712 1807.33 742.685 1807.58 742.685C1808 742.685 1808.38 742.75 1808.71 742.88C1809.04 743.01 1809.32 743.2 1809.54 743.45C1809.77 743.7 1809.94 744.005 1810.05 744.365C1810.17 744.725 1810.23 745.137 1810.23 745.602V750.5H1808.38V745.602C1808.38 745.112 1808.27 744.745 1808.06 744.5C1807.84 744.25 1807.53 744.125 1807.11 744.125C1806.92 744.125 1806.74 744.157 1806.58 744.222C1806.42 744.287 1806.28 744.382 1806.15 744.507C1806.03 744.627 1805.94 744.78 1805.87 744.965C1805.8 745.15 1805.76 745.362 1805.76 745.602V750.5H1803.9V745.602C1803.9 745.087 1803.8 744.712 1803.59 744.477C1803.38 744.242 1803.08 744.125 1802.68 744.125C1802.41 744.125 1802.16 744.192 1801.92 744.327C1801.69 744.457 1801.48 744.637 1801.28 744.867V750.5H1799.42ZM1816.06 747.215C1815.52 747.24 1815.07 747.287 1814.71 747.357C1814.34 747.422 1814.05 747.507 1813.83 747.612C1813.61 747.717 1813.45 747.84 1813.36 747.98C1813.26 748.12 1813.21 748.272 1813.21 748.437C1813.21 748.762 1813.31 748.995 1813.5 749.135C1813.69 749.275 1813.95 749.345 1814.26 749.345C1814.64 749.345 1814.96 749.277 1815.24 749.142C1815.52 749.002 1815.79 748.792 1816.06 748.512V747.215ZM1811.81 743.877C1812.7 743.067 1813.76 742.662 1815.01 742.662C1815.46 742.662 1815.86 742.737 1816.21 742.887C1816.57 743.032 1816.87 743.237 1817.11 743.502C1817.36 743.762 1817.54 744.075 1817.67 744.44C1817.8 744.805 1817.86 745.205 1817.86 745.64V750.5H1817.02C1816.85 750.5 1816.71 750.475 1816.62 750.425C1816.52 750.37 1816.45 750.262 1816.39 750.102L1816.23 749.547C1816.03 749.722 1815.84 749.877 1815.66 750.012C1815.47 750.142 1815.28 750.252 1815.08 750.342C1814.88 750.432 1814.67 750.5 1814.44 750.545C1814.21 750.595 1813.96 750.62 1813.69 750.62C1813.36 750.62 1813.06 750.578 1812.79 750.492C1812.51 750.402 1812.27 750.27 1812.07 750.095C1811.87 749.92 1811.72 749.702 1811.61 749.442C1811.5 749.182 1811.44 748.88 1811.44 748.535C1811.44 748.34 1811.48 748.147 1811.54 747.957C1811.61 747.762 1811.71 747.577 1811.86 747.402C1812.01 747.227 1812.2 747.062 1812.43 746.907C1812.67 746.752 1812.96 746.617 1813.3 746.502C1813.64 746.387 1814.04 746.295 1814.5 746.225C1814.95 746.15 1815.47 746.105 1816.06 746.09V745.64C1816.06 745.125 1815.95 744.745 1815.73 744.5C1815.51 744.25 1815.19 744.125 1814.77 744.125C1814.47 744.125 1814.22 744.16 1814.02 744.23C1813.83 744.3 1813.66 744.38 1813.51 744.47C1813.36 744.555 1813.22 744.632 1813.09 744.702C1812.97 744.772 1812.84 744.807 1812.69 744.807C1812.56 744.807 1812.45 744.775 1812.36 744.71C1812.27 744.64 1812.2 744.56 1812.14 744.47L1811.81 743.877ZM1821.36 744.14C1821.6 743.68 1821.88 743.32 1822.21 743.06C1822.54 742.795 1822.93 742.662 1823.38 742.662C1823.74 742.662 1824.02 742.74 1824.24 742.895L1824.12 744.282C1824.09 744.372 1824.05 744.437 1824 744.477C1823.96 744.512 1823.9 744.53 1823.82 744.53C1823.74 744.53 1823.63 744.517 1823.48 744.492C1823.33 744.467 1823.19 744.455 1823.05 744.455C1822.85 744.455 1822.66 744.485 1822.5 744.545C1822.34 744.605 1822.2 744.692 1822.07 744.807C1821.94 744.917 1821.83 745.052 1821.73 745.212C1821.64 745.372 1821.55 745.555 1821.46 745.76V750.5H1819.61V742.805H1820.7C1820.89 742.805 1821.02 742.84 1821.09 742.91C1821.17 742.975 1821.22 743.095 1821.24 743.27L1821.36 744.14ZM1827.77 750.62C1827.1 750.62 1826.59 750.432 1826.23 750.057C1825.87 749.677 1825.69 749.155 1825.69 748.49V744.192H1824.91C1824.81 744.192 1824.72 744.16 1824.65 744.095C1824.58 744.03 1824.55 743.932 1824.55 743.802V743.067L1825.78 742.865L1826.17 740.765C1826.2 740.665 1826.25 740.587 1826.32 740.532C1826.39 740.477 1826.48 740.45 1826.59 740.45H1827.55V742.872H1829.6V744.192H1827.55V748.362C1827.55 748.602 1827.6 748.79 1827.72 748.925C1827.84 749.06 1828 749.127 1828.21 749.127C1828.32 749.127 1828.42 749.115 1828.49 749.09C1828.57 749.06 1828.64 749.03 1828.69 749C1828.75 748.97 1828.81 748.942 1828.85 748.917C1828.9 748.887 1828.94 748.872 1828.99 748.872C1829.04 748.872 1829.09 748.887 1829.12 748.917C1829.16 748.942 1829.19 748.982 1829.23 749.037L1829.79 749.937C1829.52 750.162 1829.21 750.332 1828.86 750.447C1828.51 750.563 1828.15 750.62 1827.77 750.62ZM1839.96 746.405L1838.64 742.797C1838.57 742.637 1838.51 742.447 1838.44 742.227C1838.37 742.007 1838.3 741.77 1838.23 741.515C1838.16 741.77 1838.09 742.01 1838.02 742.235C1837.95 742.455 1837.89 742.647 1837.82 742.812L1836.51 746.405H1839.96ZM1843.52 750.5H1841.96C1841.79 750.5 1841.64 750.457 1841.53 750.372C1841.42 750.282 1841.34 750.172 1841.29 750.042L1840.48 747.83H1835.98L1835.17 750.042C1835.13 750.157 1835.06 750.262 1834.94 750.357C1834.83 750.452 1834.68 750.5 1834.51 750.5H1832.94L1837.21 739.655H1839.26L1843.52 750.5ZM1849.66 744.432C1849.6 744.502 1849.55 744.557 1849.49 744.597C1849.44 744.637 1849.37 744.657 1849.27 744.657C1849.17 744.657 1849.08 744.63 1848.99 744.575C1848.9 744.515 1848.79 744.45 1848.67 744.38C1848.54 744.305 1848.39 744.24 1848.22 744.185C1848.05 744.125 1847.84 744.095 1847.58 744.095C1847.26 744.095 1846.97 744.155 1846.73 744.275C1846.48 744.39 1846.28 744.557 1846.11 744.777C1845.95 744.997 1845.83 745.265 1845.75 745.58C1845.67 745.89 1845.63 746.242 1845.63 746.637C1845.63 747.047 1845.67 747.412 1845.76 747.732C1845.85 748.052 1845.98 748.322 1846.14 748.542C1846.31 748.757 1846.51 748.922 1846.74 749.037C1846.98 749.147 1847.24 749.202 1847.54 749.202C1847.83 749.202 1848.07 749.167 1848.25 749.097C1848.43 749.022 1848.59 748.942 1848.71 748.857C1848.84 748.767 1848.95 748.687 1849.04 748.617C1849.13 748.542 1849.24 748.505 1849.35 748.505C1849.5 748.505 1849.61 748.562 1849.69 748.677L1850.22 749.352C1850.02 749.592 1849.79 749.795 1849.55 749.96C1849.31 750.12 1849.06 750.25 1848.8 750.35C1848.55 750.445 1848.28 750.513 1848.01 750.553C1847.74 750.593 1847.47 750.613 1847.2 750.613C1846.72 750.613 1846.28 750.525 1845.86 750.35C1845.44 750.17 1845.07 749.91 1844.75 749.57C1844.44 749.23 1844.19 748.815 1844 748.325C1843.82 747.83 1843.73 747.267 1843.73 746.637C1843.73 746.072 1843.81 745.55 1843.97 745.07C1844.14 744.585 1844.38 744.167 1844.69 743.817C1845.01 743.462 1845.4 743.185 1845.86 742.985C1846.33 742.785 1846.86 742.685 1847.47 742.685C1848.04 742.685 1848.55 742.777 1848.98 742.963C1849.41 743.147 1849.8 743.412 1850.15 743.757L1849.66 744.432ZM1859.14 750.5H1857.29V744.192H1853.72V748.362C1853.72 748.602 1853.78 748.79 1853.89 748.925C1854.01 749.06 1854.18 749.127 1854.38 749.127C1854.5 749.127 1854.59 749.115 1854.67 749.09C1854.75 749.06 1854.81 749.03 1854.87 749C1854.93 748.97 1854.98 748.942 1855.03 748.917C1855.07 748.887 1855.12 748.872 1855.16 748.872C1855.22 748.872 1855.26 748.887 1855.3 748.917C1855.33 748.942 1855.37 748.982 1855.41 749.037L1855.96 749.937C1855.69 750.162 1855.38 750.332 1855.03 750.447C1854.68 750.563 1854.32 750.62 1853.95 750.62C1853.28 750.62 1852.76 750.432 1852.4 750.057C1852.05 749.677 1851.87 749.155 1851.87 748.49V744.192H1851.08C1850.98 744.192 1850.9 744.16 1850.83 744.095C1850.76 744.03 1850.72 743.932 1850.72 743.802V743.067L1851.96 742.857L1852.35 740.765C1852.37 740.665 1852.42 740.587 1852.49 740.532C1852.56 740.477 1852.65 740.45 1852.76 740.45H1853.72V742.872H1859.14V750.5ZM1859.47 740.532C1859.47 740.692 1859.43 740.845 1859.37 740.99C1859.3 741.13 1859.22 741.252 1859.11 741.357C1859 741.462 1858.87 741.547 1858.72 741.612C1858.58 741.672 1858.42 741.702 1858.26 741.702C1858.1 741.702 1857.95 741.672 1857.81 741.612C1857.67 741.547 1857.55 741.462 1857.44 741.357C1857.34 741.252 1857.25 741.13 1857.19 740.99C1857.13 740.845 1857.1 740.692 1857.1 740.532C1857.1 740.367 1857.13 740.215 1857.19 740.075C1857.25 739.93 1857.34 739.805 1857.44 739.7C1857.55 739.59 1857.67 739.505 1857.81 739.445C1857.95 739.38 1858.1 739.347 1858.26 739.347C1858.42 739.347 1858.58 739.38 1858.72 739.445C1858.87 739.505 1859 739.59 1859.11 739.7C1859.22 739.805 1859.3 739.93 1859.37 740.075C1859.43 740.215 1859.47 740.367 1859.47 740.532ZM1864.44 742.685C1865.01 742.685 1865.53 742.777 1865.99 742.963C1866.46 743.147 1866.86 743.41 1867.19 743.75C1867.53 744.09 1867.79 744.505 1867.97 744.995C1868.15 745.485 1868.24 746.032 1868.24 746.637C1868.24 747.247 1868.15 747.797 1867.97 748.287C1867.79 748.777 1867.53 749.195 1867.19 749.54C1866.86 749.885 1866.46 750.15 1865.99 750.335C1865.53 750.52 1865.01 750.613 1864.44 750.613C1863.87 750.613 1863.34 750.52 1862.87 750.335C1862.4 750.15 1862 749.885 1861.67 749.54C1861.34 749.195 1861.08 748.777 1860.89 748.287C1860.71 747.797 1860.62 747.247 1860.62 746.637C1860.62 746.032 1860.71 745.485 1860.89 744.995C1861.08 744.505 1861.34 744.09 1861.67 743.75C1862 743.41 1862.4 743.147 1862.87 742.963C1863.34 742.777 1863.87 742.685 1864.44 742.685ZM1864.44 749.187C1865.08 749.187 1865.55 748.972 1865.86 748.542C1866.17 748.112 1866.32 747.482 1866.32 746.652C1866.32 745.822 1866.17 745.19 1865.86 744.755C1865.55 744.32 1865.08 744.102 1864.44 744.102C1863.79 744.102 1863.31 744.322 1862.99 744.762C1862.68 745.197 1862.53 745.827 1862.53 746.652C1862.53 747.477 1862.68 748.107 1862.99 748.542C1863.31 748.972 1863.79 749.187 1864.44 749.187ZM1871.38 743.75C1871.54 743.595 1871.7 743.452 1871.87 743.322C1872.04 743.187 1872.23 743.075 1872.42 742.985C1872.61 742.89 1872.82 742.817 1873.04 742.767C1873.26 742.712 1873.5 742.685 1873.76 742.685C1874.18 742.685 1874.55 742.757 1874.88 742.902C1875.2 743.042 1875.47 743.242 1875.69 743.502C1875.91 743.757 1876.07 744.065 1876.18 744.425C1876.3 744.78 1876.35 745.172 1876.35 745.602V750.5H1874.5V745.602C1874.5 745.132 1874.39 744.77 1874.18 744.515C1873.96 744.255 1873.64 744.125 1873.2 744.125C1872.88 744.125 1872.58 744.197 1872.3 744.342C1872.02 744.487 1871.75 744.685 1871.5 744.935V750.5H1869.65V742.805H1870.78C1871.02 742.805 1871.18 742.917 1871.25 743.142L1871.38 743.75Z" fill="white"/>
</g>
</g>
<rect x="1738.5" y="725.5" width="160" height="39" rx="3.5" stroke="black" stroke-opacity="0.08"/>
</g>
<rect x="577" y="776" width="1322" height="1" fill="#D9D9D9"/>
</g>
<path d="M130.247 1760.72C128.501 1759.68 129.238 1757 131.27 1757H2122.73C2124.76 1757 2125.5 1759.68 2123.75 1760.72L2073.31 1790.74C2060.93 1798.11 2046.79 1802 2032.39 1802H221.61C207.206 1802 193.07 1798.11 180.692 1790.74L130.247 1760.72Z" fill="url(#paint2_linear_739_518275)"/>
<path d="M131.069 1758.96C129.947 1758.65 130.173 1757 131.337 1757H2122.66C2123.83 1757 2124.05 1758.65 2122.93 1758.96L2064.9 1775.08C2057.93 1777.02 2050.73 1778 2043.49 1778H210.507C203.271 1778 196.069 1777.02 189.097 1775.08L131.069 1758.96Z" fill="#CFCDCD"/>
<path fill-rule="evenodd" clip-rule="evenodd" d="M334 519C278.772 519 234 563.772 234 619V1757H2020V619C2020 563.772 1975.23 519 1920 519H334ZM335 616C332.791 616 331 617.791 331 620V1692C331 1694.21 332.791 1696 335 1696H1919C1921.21 1696 1923 1694.21 1923 1692V620C1923 617.791 1921.21 616 1919 616H335Z" fill="#131313"/>
<rect x="899" y="1757" width="456" height="21" fill="#C7C7C7"/>
<rect x="899" y="1757" width="16" height="21" fill="url(#paint3_linear_739_518275)"/>
<rect width="16" height="21" transform="matrix(-1 0 0 1 1355 1757)" fill="url(#paint4_linear_739_518275)"/>
<circle cx="1127" cy="567" r="14" fill="#565656"/>
<defs>
<filter id="filter0_i_739_518275" x="577" y="793" width="1322" height="46" filterUnits="userSpaceOnUse" color-interpolation-filters="sRGB">
<feFlood flood-opacity="0" result="BackgroundImageFix"/>
<feBlend mode="normal" in="SourceGraphic" in2="BackgroundImageFix" result="shape"/>
<feColorMatrix in="SourceAlpha" type="matrix" values="0 0 0 0 0 0 0 0 0 0 0 0 0 0 0 0 0 0 127 0" result="hardAlpha"/>
<feOffset/>
<feGaussianBlur stdDeviation="2"/>
<feComposite in2="hardAlpha" operator="arithmetic" k2="-1" k3="1"/>
<feColorMatrix type="matrix" values="0 0 0 0 0 0 0 0 0 0 0 0 0 0 0 0 0 0 0.12 0"/>
<feBlend mode="normal" in2="shape" result="effect1_innerShadow_739_518275"/>
</filter>
<filter id="filter1_d_739_518275" x="573" y="863" width="1330" height="42" filterUnits="userSpaceOnUse" color-interpolation-filters="sRGB">
<feFlood flood-opacity="0" result="BackgroundImageFix"/>
<feColorMatrix in="SourceAlpha" type="matrix" values="0 0 0 0 0 0 0 0 0 0 0 0 0 0 0 0 0 0 127 0" result="hardAlpha"/>
<feOffset dy="4"/>
<feGaussianBlur stdDeviation="2"/>
<feComposite in2="hardAlpha" operator="out"/>
<feColorMatrix type="matrix" values="0 0 0 0 0 0 0 0 0 0 0 0 0 0 0 0 0 0 0.04 0"/>
<feBlend mode="normal" in2="BackgroundImageFix" result="effect1_dropShadow_739_518275"/>
<feBlend mode="normal" in="SourceGraphic" in2="effect1_dropShadow_739_518275" result="shape"/>
</filter>
<filter id="filter2_i_739_518275" x="1738" y="725" width="161" height="41" filterUnits="userSpaceOnUse" color-interpolation-filters="sRGB">
<feFlood flood-opacity="0" result="BackgroundImageFix"/>
<feBlend mode="normal" in="SourceGraphic" in2="BackgroundImageFix" result="shape"/>
<feColorMatrix in="SourceAlpha" type="matrix" values="0 0 0 0 0 0 0 0 0 0 0 0 0 0 0 0 0 0 127 0" result="hardAlpha"/>
<feOffset dy="1"/>
<feGaussianBlur stdDeviation="0.5"/>
<feComposite in2="hardAlpha" operator="arithmetic" k2="-1" k3="1"/>
<feColorMatrix type="matrix" values="0 0 0 0 0 0 0 0 0 0 0 0 0 0 0 0 0 0 0.05 0"/>
<feBlend mode="normal" in2="shape" result="effect1_innerShadow_739_518275"/>
</filter>
<filter id="filter3_d_739_518275" x="1758.42" y="739.348" width="118.936" height="13.2725" filterUnits="userSpaceOnUse" color-interpolation-filters="sRGB">
<feFlood flood-opacity="0" result="BackgroundImageFix"/>
<feColorMatrix in="SourceAlpha" type="matrix" values="0 0 0 0 0 0 0 0 0 0 0 0 0 0 0 0 0 0 127 0" result="hardAlpha"/>
<feOffset dy="1"/>
<feGaussianBlur stdDeviation="0.5"/>
<feColorMatrix type="matrix" values="0 0 0 0 0.133333 0 0 0 0 0.141176 0 0 0 0 0.14902 0 0 0 0.2 0"/>
<feBlend mode="normal" in2="BackgroundImageFix" result="effect1_dropShadow_739_518275"/>
<feBlend mode="normal" in="SourceGraphic" in2="effect1_dropShadow_739_518275" result="shape"/>
</filter>
<radialGradient id="paint0_radial_739_518275" cx="0" cy="0" r="1" gradientUnits="userSpaceOnUse" gradientTransform="translate(1126.5 1126.5) rotate(90) scale(1126.5)">
<stop offset="0.244792" stop-color="#FBEAD7"/>
<stop offset="1" stop-color="#DCBF56"/>
</radialGradient>
<linearGradient id="paint1_linear_739_518275" x1="1818.5" y1="725" x2="1818.5" y2="765" gradientUnits="userSpaceOnUse">
<stop stop-color="white" stop-opacity="0.15"/>
<stop offset="1" stop-opacity="0.08"/>
</linearGradient>
<linearGradient id="paint2_linear_739_518275" x1="1127" y1="1757" x2="1127" y2="1802" gradientUnits="userSpaceOnUse">
<stop stop-color="#DFDFDF"/>
<stop offset="1" stop-color="#848484"/>
</linearGradient>
<linearGradient id="paint3_linear_739_518275" x1="899" y1="1768" x2="915" y2="1768" gradientUnits="userSpaceOnUse">
<stop stop-opacity="0.24"/>
<stop offset="1" stop-opacity="0"/>
</linearGradient>
<linearGradient id="paint4_linear_739_518275" x1="1.01639e-07" y1="11" x2="16" y2="11" gradientUnits="userSpaceOnUse">
<stop stop-opacity="0.24"/>
<stop offset="1" stop-opacity="0"/>
</linearGradient>
<clipPath id="clip0_739_518275">
<rect x="331" y="616" width="1592" height="1080" rx="4" fill="white"/>
</clipPath>
<clipPath id="clip1_739_518275">
<rect width="1592" height="1080" fill="white" transform="translate(331 616)"/>
</clipPath>
<clipPath id="clip2_739_518275">
<rect width="24" height="24" fill="white" transform="translate(585 733.5)"/>
</clipPath>
<clipPath id="clip3_739_518275">
<rect x="1738" y="725" width="161" height="40" rx="4" fill="white"/>
</clipPath>
</defs>
</svg>
