<svg width="1846" height="1846" viewBox="0 0 1846 1846" fill="none" xmlns="http://www.w3.org/2000/svg">
<g clip-path="url(#clip0_739_518706)">
<rect width="1846" height="1846" fill="#C2226F"/>
<g clip-path="url(#clip1_739_518706)">
<circle cx="1158.5" cy="1698.5" r="17.5" transform="rotate(-90 1158.5 1698.5)" fill="white" fill-opacity="0.1"/>
<circle cx="1158.5" cy="1633.5" r="17.5" transform="rotate(-90 1158.5 1633.5)" fill="white" fill-opacity="0.1"/>
<circle cx="1158.5" cy="1568.5" r="17.5" transform="rotate(-90 1158.5 1568.5)" fill="white" fill-opacity="0.1"/>
<circle cx="1158.5" cy="1503.5" r="17.5" transform="rotate(-90 1158.5 1503.5)" fill="white" fill-opacity="0.1"/>
<circle cx="1158.5" cy="1438.5" r="17.5" transform="rotate(-90 1158.5 1438.5)" fill="white" fill-opacity="0.1"/>
<circle cx="1158.5" cy="1373.5" r="17.5" transform="rotate(-90 1158.5 1373.5)" fill="white" fill-opacity="0.1"/>
<circle cx="1158.5" cy="1308.5" r="17.5" transform="rotate(-90 1158.5 1308.5)" fill="white" fill-opacity="0.1"/>
<circle cx="1158.5" cy="1243.5" r="17.5" transform="rotate(-90 1158.5 1243.5)" fill="white" fill-opacity="0.1"/>
<circle cx="1158.5" cy="1178.5" r="17.5" transform="rotate(-90 1158.5 1178.5)" fill="white" fill-opacity="0.1"/>
<circle cx="1093.5" cy="1568.5" r="17.5" transform="rotate(-90 1093.5 1568.5)" fill="white" fill-opacity="0.1"/>
<circle cx="1093.5" cy="1503.5" r="17.5" transform="rotate(-90 1093.5 1503.5)" fill="white" fill-opacity="0.1"/>
<circle cx="1093.5" cy="1438.5" r="17.5" transform="rotate(-90 1093.5 1438.5)" fill="white" fill-opacity="0.1"/>
<circle cx="1093.5" cy="1373.5" r="17.5" transform="rotate(-90 1093.5 1373.5)" fill="white" fill-opacity="0.1"/>
<circle cx="1093.5" cy="1308.5" r="17.5" transform="rotate(-90 1093.5 1308.5)" fill="white" fill-opacity="0.1"/>
<circle cx="1093.5" cy="1243.5" r="17.5" transform="rotate(-90 1093.5 1243.5)" fill="white" fill-opacity="0.1"/>
<circle cx="1093.5" cy="1178.5" r="17.5" transform="rotate(-90 1093.5 1178.5)" fill="white" fill-opacity="0.1"/>
<circle cx="1093.5" cy="1113.5" r="17.5" transform="rotate(-90 1093.5 1113.5)" fill="white" fill-opacity="0.1"/>
<circle cx="1093.5" cy="1048.5" r="17.5" transform="rotate(-90 1093.5 1048.5)" fill="white" fill-opacity="0.1"/>
<circle cx="1028.5" cy="1698.5" r="17.5" transform="rotate(-90 1028.5 1698.5)" fill="white" fill-opacity="0.1"/>
<circle cx="1028.5" cy="1633.5" r="17.5" transform="rotate(-90 1028.5 1633.5)" fill="white" fill-opacity="0.1"/>
<circle cx="1028.5" cy="1568.5" r="17.5" transform="rotate(-90 1028.5 1568.5)" fill="white" fill-opacity="0.1"/>
<circle cx="1028.5" cy="1503.5" r="17.5" transform="rotate(-90 1028.5 1503.5)" fill="white" fill-opacity="0.1"/>
<circle cx="1028.5" cy="1438.5" r="17.5" transform="rotate(-90 1028.5 1438.5)" fill="white" fill-opacity="0.1"/>
<circle cx="1028.5" cy="1373.5" r="17.5" transform="rotate(-90 1028.5 1373.5)" fill="white" fill-opacity="0.1"/>
<circle cx="1028.5" cy="1308.5" r="17.5" transform="rotate(-90 1028.5 1308.5)" fill="white" fill-opacity="0.1"/>
<circle cx="1028.5" cy="1243.5" r="17.5" transform="rotate(-90 1028.5 1243.5)" fill="white" fill-opacity="0.1"/>
<circle cx="1028.5" cy="1178.5" r="17.5" transform="rotate(-90 1028.5 1178.5)" fill="white" fill-opacity="0.1"/>
<circle cx="963.5" cy="1828.5" r="17.5" transform="rotate(-90 963.5 1828.5)" fill="white" fill-opacity="0.1"/>
<circle cx="963.5" cy="1763.5" r="17.5" transform="rotate(-90 963.5 1763.5)" fill="white" fill-opacity="0.1"/>
<circle cx="963.5" cy="1698.5" r="17.5" transform="rotate(-90 963.5 1698.5)" fill="white" fill-opacity="0.1"/>
<circle cx="963.5" cy="1633.5" r="17.5" transform="rotate(-90 963.5 1633.5)" fill="white" fill-opacity="0.1"/>
<circle cx="963.5" cy="1568.5" r="17.5" transform="rotate(-90 963.5 1568.5)" fill="white" fill-opacity="0.1"/>
<circle cx="963.5" cy="1503.5" r="17.5" transform="rotate(-90 963.5 1503.5)" fill="white" fill-opacity="0.1"/>
<circle cx="963.5" cy="1438.5" r="17.5" transform="rotate(-90 963.5 1438.5)" fill="white" fill-opacity="0.1"/>
<circle cx="963.5" cy="1373.5" r="17.5" transform="rotate(-90 963.5 1373.5)" fill="white" fill-opacity="0.1"/>
<circle cx="963.5" cy="1308.5" r="17.5" transform="rotate(-90 963.5 1308.5)" fill="white" fill-opacity="0.1"/>
<circle cx="1223.5" cy="1568.5" r="17.5" transform="rotate(-90 1223.5 1568.5)" fill="white" fill-opacity="0.1"/>
<circle cx="1223.5" cy="1503.5" r="17.5" transform="rotate(-90 1223.5 1503.5)" fill="white" fill-opacity="0.1"/>
<circle cx="1223.5" cy="1438.5" r="17.5" transform="rotate(-90 1223.5 1438.5)" fill="white" fill-opacity="0.1"/>
<circle cx="1223.5" cy="1373.5" r="17.5" transform="rotate(-90 1223.5 1373.5)" fill="white" fill-opacity="0.1"/>
<circle cx="1223.5" cy="1308.5" r="17.5" transform="rotate(-90 1223.5 1308.5)" fill="white" fill-opacity="0.1"/>
<circle cx="1223.5" cy="1243.5" r="17.5" transform="rotate(-90 1223.5 1243.5)" fill="white" fill-opacity="0.1"/>
<circle cx="1223.5" cy="1178.5" r="17.5" transform="rotate(-90 1223.5 1178.5)" fill="white" fill-opacity="0.1"/>
<circle cx="1223.5" cy="1113.5" r="17.5" transform="rotate(-90 1223.5 1113.5)" fill="white" fill-opacity="0.1"/>
<circle cx="1223.5" cy="1048.5" r="17.5" transform="rotate(-90 1223.5 1048.5)" fill="white" fill-opacity="0.1"/>
<circle cx="17.5" cy="17.5" r="17.5" transform="matrix(0 1 1 0 0 -17.2656)" fill="white" fill-opacity="0.1"/>
<circle cx="17.5" cy="17.5" r="17.5" transform="matrix(0 1 1 0 0 47.7344)" fill="white" fill-opacity="0.1"/>
<circle cx="17.5" cy="17.5" r="17.5" transform="matrix(0 1 1 0 0 112.734)" fill="white" fill-opacity="0.1"/>
<circle cx="17.5" cy="17.5" r="17.5" transform="matrix(0 1 1 0 0 177.734)" fill="white" fill-opacity="0.1"/>
<circle cx="17.5" cy="17.5" r="17.5" transform="matrix(0 1 1 0 65 -17.2656)" fill="white" fill-opacity="0.1"/>
<circle cx="17.5" cy="17.5" r="17.5" transform="matrix(0 1 1 0 65 47.7344)" fill="white" fill-opacity="0.1"/>
<circle cx="17.5" cy="17.5" r="17.5" transform="matrix(0 1 1 0 65 112.734)" fill="white" fill-opacity="0.1"/>
<circle cx="17.5" cy="17.5" r="17.5" transform="matrix(0 1 1 0 130 -17.2656)" fill="white" fill-opacity="0.1"/>
<circle cx="17.5" cy="17.5" r="17.5" transform="matrix(0 1 1 0 130 47.7344)" fill="white" fill-opacity="0.1"/>
<circle cx="17.5" cy="17.5" r="17.5" transform="matrix(0 1 1 0 130 112.734)" fill="white" fill-opacity="0.1"/>
<circle cx="17.5" cy="17.5" r="17.5" transform="matrix(0 1 1 0 130 177.734)" fill="white" fill-opacity="0.1"/>
<circle cx="17.5" cy="17.5" r="17.5" transform="matrix(0 1 1 0 130 242.734)" fill="white" fill-opacity="0.1"/>
<circle cx="17.5" cy="17.5" r="17.5" transform="matrix(0 1 1 0 195 -17.2656)" fill="white" fill-opacity="0.1"/>
<circle cx="17.5" cy="17.5" r="17.5" transform="matrix(0 1 1 0 195 47.7344)" fill="white" fill-opacity="0.1"/>
<circle cx="17.5" cy="17.5" r="17.5" transform="matrix(0 1 1 0 195 112.734)" fill="white" fill-opacity="0.1"/>
<circle cx="17.5" cy="17.5" r="17.5" transform="matrix(0 1 1 0 195 177.734)" fill="white" fill-opacity="0.1"/>
<circle cx="17.5" cy="17.5" r="17.5" transform="matrix(0 1 1 0 195 242.734)" fill="white" fill-opacity="0.1"/>
<circle cx="17.5" cy="17.5" r="17.5" transform="matrix(0 1 1 0 195 307.734)" fill="white" fill-opacity="0.1"/>
<circle cx="17.5" cy="17.5" r="17.5" transform="matrix(0 1 1 0 195 372.734)" fill="white" fill-opacity="0.1"/>
<circle cx="1763.5" cy="537.5" r="17.5" transform="rotate(-90 1763.5 537.5)" fill="white" fill-opacity="0.1"/>
<circle cx="1763.5" cy="472.5" r="17.5" transform="rotate(-90 1763.5 472.5)" fill="white" fill-opacity="0.1"/>
<circle cx="1763.5" cy="407.5" r="17.5" transform="rotate(-90 1763.5 407.5)" fill="white" fill-opacity="0.1"/>
<circle cx="1763.5" cy="342.5" r="17.5" transform="rotate(-90 1763.5 342.5)" fill="white" fill-opacity="0.1"/>
<circle cx="1763.5" cy="277.5" r="17.5" transform="rotate(-90 1763.5 277.5)" fill="white" fill-opacity="0.1"/>
<circle cx="1763.5" cy="212.5" r="17.5" transform="rotate(-90 1763.5 212.5)" fill="white" fill-opacity="0.1"/>
<circle cx="1763.5" cy="147.5" r="17.5" transform="rotate(-90 1763.5 147.5)" fill="white" fill-opacity="0.1"/>
<circle cx="1763.5" cy="82.5" r="17.5" transform="rotate(-90 1763.5 82.5)" fill="white" fill-opacity="0.1"/>
<circle cx="1763.5" cy="17.5" r="17.5" transform="rotate(-90 1763.5 17.5)" fill="white" fill-opacity="0.1"/>
<circle cx="1698.5" cy="602.5" r="17.5" transform="rotate(-90 1698.5 602.5)" fill="white" fill-opacity="0.1"/>
<circle cx="1698.5" cy="537.5" r="17.5" transform="rotate(-90 1698.5 537.5)" fill="white" fill-opacity="0.1"/>
<circle cx="1698.5" cy="472.5" r="17.5" transform="rotate(-90 1698.5 472.5)" fill="white" fill-opacity="0.1"/>
<circle cx="1698.5" cy="407.5" r="17.5" transform="rotate(-90 1698.5 407.5)" fill="white" fill-opacity="0.1"/>
<circle cx="1698.5" cy="342.5" r="17.5" transform="rotate(-90 1698.5 342.5)" fill="white" fill-opacity="0.1"/>
<circle cx="1698.5" cy="277.5" r="17.5" transform="rotate(-90 1698.5 277.5)" fill="white" fill-opacity="0.1"/>
<circle cx="1698.5" cy="212.5" r="17.5" transform="rotate(-90 1698.5 212.5)" fill="white" fill-opacity="0.1"/>
<circle cx="1698.5" cy="147.5" r="17.5" transform="rotate(-90 1698.5 147.5)" fill="white" fill-opacity="0.1"/>
<circle cx="1698.5" cy="82.5" r="17.5" transform="rotate(-90 1698.5 82.5)" fill="white" fill-opacity="0.1"/>
<circle cx="1828.5" cy="407.5" r="17.5" transform="rotate(-90 1828.5 407.5)" fill="white" fill-opacity="0.1"/>
<circle cx="1828.5" cy="342.5" r="17.5" transform="rotate(-90 1828.5 342.5)" fill="white" fill-opacity="0.1"/>
<circle cx="1828.5" cy="277.5" r="17.5" transform="rotate(-90 1828.5 277.5)" fill="white" fill-opacity="0.1"/>
<circle cx="1828.5" cy="212.5" r="17.5" transform="rotate(-90 1828.5 212.5)" fill="white" fill-opacity="0.1"/>
<circle cx="1828.5" cy="147.5" r="17.5" transform="rotate(-90 1828.5 147.5)" fill="white" fill-opacity="0.1"/>
<circle cx="1828.5" cy="82.5" r="17.5" transform="rotate(-90 1828.5 82.5)" fill="white" fill-opacity="0.1"/>
<circle cx="1828.5" cy="17.5" r="17.5" transform="rotate(-90 1828.5 17.5)" fill="white" fill-opacity="0.1"/>
</g>
<g filter="url(#filter0_d_739_518706)">
<g clip-path="url(#clip2_739_518706)">
<g filter="url(#filter1_d_739_518706)">
<path d="M127 364C127 352.954 135.954 344 147 344H1699C1710.05 344 1719 352.954 1719 364V422H127V364Z" fill="url(#paint0_linear_739_518706)"/>
<rect x="-0.5" y="0.5" width="1367" height="26" rx="4.5" transform="matrix(-1 0 0 1 1631 370)" fill="white" stroke="#C4C4C4"/>
<circle cx="167" cy="383" r="8" fill="#FAAEAE"/>
<circle cx="196" cy="383" r="8" fill="#FFDCA7"/>
<circle cx="225" cy="383" r="8" fill="#82F294"/>
</g>
<g clip-path="url(#clip3_739_518706)">
<rect width="1592" height="1080" transform="translate(127 422)" fill="white"/>
<rect x="127" y="422" width="222" height="1080" fill="#1D2427"/>
<rect x="127" y="422" width="1920" height="83" fill="#2B363A"/>
<rect opacity="0.15" x="147" y="682" width="110" height="12" rx="6" fill="white"/>
<rect opacity="0.15" x="147" y="726" width="85" height="12" rx="6" fill="white"/>
<rect opacity="0.15" x="147" y="770" width="113" height="12" rx="6" fill="white"/>
<rect opacity="0.15" x="147" y="814" width="124" height="12" rx="6" fill="white"/>
<rect opacity="0.15" x="147" y="858" width="97" height="12" rx="6" fill="white"/>
<rect opacity="0.15" x="147" y="902" width="99" height="12" rx="6" fill="white"/>
<rect opacity="0.15" x="147" y="946" width="105" height="12" rx="6" fill="white"/>
<rect opacity="0.15" x="147" y="990" width="97" height="12" rx="6" fill="white"/>
<rect opacity="0.15" x="147" y="1034" width="99" height="12" rx="6" fill="white"/>
<rect opacity="0.15" x="147" y="1078" width="105" height="12" rx="6" fill="white"/>
<rect opacity="0.15" x="147" y="1122" width="97" height="12" rx="6" fill="white"/>
<rect opacity="0.15" x="147" y="1166" width="99" height="12" rx="6" fill="white"/>
<rect opacity="0.15" x="147" y="1210" width="105" height="12" rx="6" fill="white"/>
<rect opacity="0.15" x="147" y="1254" width="99" height="12" rx="6" fill="white"/>
<rect opacity="0.15" x="147" y="1298" width="43" height="12" rx="6" fill="white"/>
<rect opacity="0.15" x="147" y="530" width="171" height="112" rx="10" fill="white"/>
<rect opacity="0.6" x="318" y="454" width="96" height="12" rx="6" fill="white"/>
<rect opacity="0.1" x="438" y="454" width="60" height="12" rx="6" fill="white"/>
<rect opacity="0.1" x="522" y="454" width="86" height="12" rx="6" fill="white"/>
<rect opacity="0.1" x="632" y="454" width="63" height="12" rx="6" fill="white"/>
<rect opacity="0.1" x="719" y="454" width="114" height="12" rx="6" fill="white"/>
<rect opacity="0.1" x="857" y="454" width="93" height="12" rx="6" fill="white"/>
<path fill-rule="evenodd" clip-rule="evenodd" d="M241 568.327C241 569.736 240.643 571.064 240.012 572.227C239.999 572.261 239.984 572.295 239.969 572.328L234.123 584.953C233.476 586.349 231.453 586.349 230.807 584.953L224.961 572.328C224.898 572.192 224.853 572.053 224.827 571.914C224.297 570.828 224 569.611 224 568.327C224 563.728 227.806 560 232.5 560C237.194 560 241 563.728 241 568.327ZM232.5 573.148C235.218 573.148 237.421 570.99 237.421 568.327C237.421 565.665 235.218 563.506 232.5 563.506C229.782 563.506 227.579 565.665 227.579 568.327C227.579 570.99 229.782 573.148 232.5 573.148Z" fill="white"/>
<g clip-path="url(#clip4_739_518706)">
<rect width="1370" height="296" transform="translate(349 505)" fill="#F5F6F6"/>
<rect x="349" y="491" width="1561.8" height="310" fill="url(#paint1_linear_739_518706)"/>
<g filter="url(#filter2_di_739_518706)">
<rect x="1603" y="531" width="79" height="33" rx="4" fill="#FAFFFA"/>
<rect x="1603" y="531" width="79" height="33" rx="4" fill="url(#paint2_linear_739_518706)"/>
<g clip-path="url(#clip5_739_518706)">
<g filter="url(#filter3_d_739_518706)">
<path d="M1635.56 547.577C1635.56 548.372 1635.42 549.11 1635.16 549.79C1634.9 550.465 1634.53 551.05 1634.05 551.545C1633.57 552.04 1632.99 552.427 1632.32 552.707C1631.64 552.983 1630.89 553.12 1630.07 553.12C1629.25 553.12 1628.5 552.983 1627.82 552.707C1627.15 552.427 1626.57 552.04 1626.08 551.545C1625.6 551.05 1625.23 550.465 1624.97 549.79C1624.7 549.11 1624.57 548.372 1624.57 547.577C1624.57 546.782 1624.7 546.047 1624.97 545.372C1625.23 544.692 1625.6 544.105 1626.08 543.61C1626.57 543.115 1627.15 542.73 1627.82 542.455C1628.5 542.175 1629.25 542.035 1630.07 542.035C1630.62 542.035 1631.13 542.1 1631.62 542.23C1632.1 542.355 1632.55 542.535 1632.95 542.77C1633.36 543 1633.72 543.282 1634.04 543.617C1634.37 543.947 1634.64 544.317 1634.87 544.727C1635.09 545.137 1635.26 545.582 1635.38 546.062C1635.5 546.542 1635.56 547.047 1635.56 547.577ZM1633.49 547.577C1633.49 546.982 1633.41 546.45 1633.25 545.98C1633.09 545.505 1632.87 545.102 1632.57 544.772C1632.28 544.442 1631.92 544.19 1631.49 544.015C1631.07 543.84 1630.6 543.752 1630.07 543.752C1629.54 543.752 1629.06 543.84 1628.63 544.015C1628.21 544.19 1627.85 544.442 1627.55 544.772C1627.26 545.102 1627.03 545.505 1626.87 545.98C1626.71 546.45 1626.63 546.982 1626.63 547.577C1626.63 548.172 1626.71 548.707 1626.87 549.182C1627.03 549.652 1627.26 550.052 1627.55 550.382C1627.85 550.707 1628.21 550.957 1628.63 551.132C1629.06 551.307 1629.54 551.395 1630.07 551.395C1630.6 551.395 1631.07 551.307 1631.49 551.132C1631.92 550.957 1632.28 550.707 1632.57 550.382C1632.87 550.052 1633.09 549.652 1633.25 549.182C1633.41 548.707 1633.49 548.172 1633.49 547.577ZM1638.76 551.005C1638.97 551.26 1639.19 551.44 1639.44 551.545C1639.69 551.65 1639.96 551.702 1640.25 551.702C1640.53 551.702 1640.78 551.65 1641.01 551.545C1641.23 551.44 1641.42 551.28 1641.58 551.065C1641.74 550.85 1641.86 550.58 1641.94 550.255C1642.03 549.925 1642.07 549.537 1642.07 549.092C1642.07 548.642 1642.03 548.262 1641.96 547.952C1641.89 547.637 1641.79 547.382 1641.65 547.187C1641.52 546.992 1641.35 546.85 1641.16 546.76C1640.97 546.67 1640.75 546.625 1640.5 546.625C1640.12 546.625 1639.79 546.707 1639.52 546.872C1639.25 547.032 1639 547.26 1638.76 547.555V551.005ZM1638.66 546.355C1638.97 546 1639.33 545.712 1639.73 545.492C1640.13 545.272 1640.6 545.162 1641.14 545.162C1641.56 545.162 1641.94 545.25 1642.29 545.425C1642.64 545.6 1642.94 545.855 1643.19 546.19C1643.44 546.52 1643.64 546.93 1643.77 547.42C1643.91 547.905 1643.98 548.462 1643.98 549.092C1643.98 549.667 1643.91 550.2 1643.75 550.69C1643.6 551.18 1643.37 551.605 1643.08 551.965C1642.8 552.325 1642.45 552.608 1642.04 552.812C1641.64 553.013 1641.18 553.113 1640.68 553.113C1640.25 553.113 1639.88 553.048 1639.57 552.917C1639.27 552.782 1639 552.597 1638.76 552.362V555.513H1636.9V545.305H1638.04C1638.28 545.305 1638.43 545.417 1638.51 545.642L1638.66 546.355ZM1650.39 548.267C1650.39 548.027 1650.35 547.802 1650.28 547.592C1650.22 547.377 1650.12 547.19 1649.98 547.03C1649.85 546.87 1649.67 546.745 1649.46 546.655C1649.26 546.56 1649.02 546.512 1648.74 546.512C1648.21 546.512 1647.79 546.665 1647.48 546.97C1647.17 547.275 1646.98 547.707 1646.89 548.267H1650.39ZM1646.85 549.385C1646.88 549.78 1646.95 550.122 1647.06 550.412C1647.17 550.697 1647.32 550.935 1647.5 551.125C1647.68 551.31 1647.89 551.45 1648.14 551.545C1648.39 551.635 1648.66 551.68 1648.96 551.68C1649.26 551.68 1649.52 551.645 1649.73 551.575C1649.95 551.505 1650.14 551.427 1650.3 551.342C1650.47 551.257 1650.61 551.18 1650.73 551.11C1650.86 551.04 1650.98 551.005 1651.09 551.005C1651.25 551.005 1651.36 551.062 1651.44 551.177L1651.97 551.852C1651.76 552.092 1651.53 552.295 1651.28 552.46C1651.02 552.62 1650.76 552.75 1650.48 552.85C1650.2 552.945 1649.92 553.013 1649.63 553.053C1649.34 553.093 1649.07 553.113 1648.8 553.113C1648.26 553.113 1647.76 553.025 1647.3 552.85C1646.84 552.67 1646.44 552.407 1646.1 552.062C1645.76 551.712 1645.5 551.282 1645.3 550.772C1645.11 550.257 1645.01 549.662 1645.01 548.987C1645.01 548.462 1645.09 547.97 1645.26 547.51C1645.43 547.045 1645.68 546.642 1645.99 546.302C1646.31 545.957 1646.7 545.685 1647.15 545.485C1647.61 545.285 1648.13 545.185 1648.71 545.185C1649.19 545.185 1649.64 545.262 1650.05 545.417C1650.46 545.572 1650.81 545.8 1651.11 546.1C1651.4 546.395 1651.63 546.76 1651.8 547.195C1651.97 547.625 1652.05 548.117 1652.05 548.672C1652.05 548.952 1652.02 549.142 1651.96 549.242C1651.9 549.337 1651.79 549.385 1651.62 549.385H1646.85ZM1655.17 546.25C1655.33 546.095 1655.49 545.952 1655.66 545.822C1655.84 545.687 1656.02 545.575 1656.21 545.485C1656.4 545.39 1656.61 545.317 1656.83 545.267C1657.05 545.212 1657.29 545.185 1657.55 545.185C1657.97 545.185 1658.34 545.257 1658.67 545.402C1658.99 545.542 1659.26 545.742 1659.48 546.002C1659.7 546.257 1659.86 546.565 1659.97 546.925C1660.09 547.28 1660.15 547.672 1660.15 548.102V553H1658.29V548.102C1658.29 547.632 1658.19 547.27 1657.97 547.015C1657.76 546.755 1657.43 546.625 1656.99 546.625C1656.67 546.625 1656.37 546.697 1656.09 546.842C1655.81 546.987 1655.54 547.185 1655.29 547.435V553H1653.44V545.305H1654.57C1654.81 545.305 1654.97 545.417 1655.05 545.642L1655.17 546.25Z" fill="#4DA677"/>
</g>
</g>
<rect x="1603.5" y="531.5" width="78" height="32" rx="3.5" stroke="black" stroke-opacity="0.08"/>
</g>
</g>
<g clip-path="url(#clip6_739_518706)">
<path d="M1071.84 606.97L1035.29 571.918C1034.01 570.692 1031.99 570.692 1030.71 571.918L994.161 606.97C993.187 607.904 992.878 609.335 993.382 610.587C993.885 611.839 995.098 612.659 996.447 612.659H1000.45V647.694C1000.45 649.52 1001.93 650.999 1003.76 650.999H1062.24C1064.07 650.999 1065.55 649.52 1065.55 647.694V612.659H1069.55C1070.9 612.659 1072.12 611.839 1072.62 610.587C1073.12 609.335 1072.81 607.904 1071.84 606.97ZM1041.89 627.131C1037.28 630.551 1034.2 631.751 1033 632.126C1031.8 631.751 1028.72 630.551 1024.11 627.132C1018.46 622.944 1018.36 618.807 1018.72 615.26C1018.98 612.655 1020.87 609.85 1024.42 609.85C1028.04 609.85 1030.3 612.647 1030.37 612.742C1031 613.562 1031.96 614.055 1032.99 614.055C1034.02 614.055 1034.98 613.586 1035.61 612.766C1035.7 612.647 1037.96 609.85 1041.59 609.85C1045.13 609.85 1047.02 612.655 1047.28 615.26C1047.64 618.807 1047.54 622.944 1041.89 627.131Z" fill="#4DAF7C"/>
<path d="M1071.84 606.97L1035.29 571.918C1034.01 570.692 1031.99 570.692 1030.71 571.918L994.161 606.97C993.187 607.904 992.878 609.335 993.382 610.587C993.885 611.839 995.098 612.659 996.447 612.659H1000.45V647.694C1000.45 649.52 1001.93 650.999 1003.76 650.999H1062.24C1064.07 650.999 1065.55 649.52 1065.55 647.694V612.659H1069.55C1070.9 612.659 1072.12 611.839 1072.62 610.587C1073.12 609.335 1072.81 607.904 1071.84 606.97ZM1041.89 627.131C1037.28 630.551 1034.2 631.751 1033 632.126C1031.8 631.751 1028.72 630.551 1024.11 627.132C1018.46 622.944 1018.36 618.807 1018.72 615.26C1018.98 612.655 1020.87 609.85 1024.42 609.85C1028.04 609.85 1030.3 612.647 1030.37 612.742C1031 613.562 1031.96 614.055 1032.99 614.055C1034.02 614.055 1034.98 613.586 1035.61 612.766C1035.7 612.647 1037.96 609.85 1041.59 609.85C1045.13 609.85 1047.02 612.655 1047.28 615.26C1047.64 618.807 1047.54 622.944 1041.89 627.131Z" fill="url(#paint3_linear_739_518706)"/>
</g>
<g filter="url(#filter4_i_739_518706)">
<rect x="534" y="700" width="1000" height="11" rx="5.5" fill="white"/>
</g>
<g opacity="0.7" filter="url(#filter5_i_739_518706)">
<rect x="534" y="700" width="583" height="11" rx="5.5" fill="#19804A"/>
</g>
<circle cx="831.5" cy="705.5" r="8.5" fill="#4E886A"/>
<circle cx="542.5" cy="704.5" r="14.5" fill="#4E886A"/>
<g filter="url(#filter6_i_739_518706)">
<circle cx="1525.5" cy="704.5" r="14.5" fill="white"/>
</g>
<circle cx="1118.5" cy="705.5" r="8.5" fill="#4E886A"/>
<g filter="url(#filter7_i_739_518706)">
<circle cx="1351.5" cy="705.5" r="8.5" fill="white"/>
</g>
<path d="M402.4 546.77C402.4 547.83 402.223 548.813 401.87 549.72C401.523 550.62 401.03 551.4 400.39 552.06C399.75 552.72 398.98 553.237 398.08 553.61C397.18 553.977 396.18 554.16 395.08 554.16C393.987 554.16 392.99 553.977 392.09 553.61C391.19 553.237 390.417 552.72 389.77 552.06C389.13 551.4 388.633 550.62 388.28 549.72C387.927 548.813 387.75 547.83 387.75 546.77C387.75 545.71 387.927 544.73 388.28 543.83C388.633 542.923 389.13 542.14 389.77 541.48C390.417 540.82 391.19 540.307 392.09 539.94C392.99 539.567 393.987 539.38 395.08 539.38C395.813 539.38 396.503 539.467 397.15 539.64C397.797 539.807 398.39 540.047 398.93 540.36C399.47 540.667 399.953 541.043 400.38 541.49C400.813 541.93 401.18 542.423 401.48 542.97C401.78 543.517 402.007 544.11 402.16 544.75C402.32 545.39 402.4 546.063 402.4 546.77ZM399.65 546.77C399.65 545.977 399.543 545.267 399.33 544.64C399.117 544.007 398.813 543.47 398.42 543.03C398.027 542.59 397.547 542.253 396.98 542.02C396.42 541.787 395.787 541.67 395.08 541.67C394.373 541.67 393.737 541.787 393.17 542.02C392.61 542.253 392.13 542.59 391.73 543.03C391.337 543.47 391.033 544.007 390.82 544.64C390.607 545.267 390.5 545.977 390.5 546.77C390.5 547.563 390.607 548.277 390.82 548.91C391.033 549.537 391.337 550.07 391.73 550.51C392.13 550.943 392.61 551.277 393.17 551.51C393.737 551.743 394.373 551.86 395.08 551.86C395.787 551.86 396.42 551.743 396.98 551.51C397.547 551.277 398.027 550.943 398.42 550.51C398.813 550.07 399.117 549.537 399.33 548.91C399.543 548.277 399.65 547.563 399.65 546.77ZM406.527 545.52C406.847 544.907 407.227 544.427 407.667 544.08C408.107 543.727 408.627 543.55 409.227 543.55C409.7 543.55 410.08 543.653 410.367 543.86L410.207 545.71C410.173 545.83 410.123 545.917 410.057 545.97C409.997 546.017 409.913 546.04 409.807 546.04C409.707 546.04 409.557 546.023 409.357 545.99C409.163 545.957 408.973 545.94 408.787 545.94C408.513 545.94 408.27 545.98 408.057 546.06C407.843 546.14 407.65 546.257 407.477 546.41C407.31 546.557 407.16 546.737 407.027 546.95C406.9 547.163 406.78 547.407 406.667 547.68V554H404.197V543.74H405.647C405.9 543.74 406.077 543.787 406.177 543.88C406.277 543.967 406.343 544.127 406.377 544.36L406.527 545.52ZM417.824 546.36C417.544 546.02 417.237 545.78 416.904 545.64C416.577 545.5 416.224 545.43 415.844 545.43C415.471 545.43 415.134 545.5 414.834 545.64C414.534 545.78 414.277 545.993 414.064 546.28C413.851 546.56 413.687 546.92 413.574 547.36C413.461 547.793 413.404 548.307 413.404 548.9C413.404 549.5 413.451 550.01 413.544 550.43C413.644 550.843 413.784 551.183 413.964 551.45C414.144 551.71 414.364 551.9 414.624 552.02C414.884 552.133 415.174 552.19 415.494 552.19C416.007 552.19 416.444 552.083 416.804 551.87C417.164 551.657 417.504 551.353 417.824 550.96V546.36ZM420.294 539.14V554H418.784C418.457 554 418.251 553.85 418.164 553.55L417.954 552.56C417.541 553.033 417.064 553.417 416.524 553.71C415.991 554.003 415.367 554.15 414.654 554.15C414.094 554.15 413.581 554.033 413.114 553.8C412.647 553.567 412.244 553.23 411.904 552.79C411.571 552.343 411.311 551.793 411.124 551.14C410.944 550.487 410.854 549.74 410.854 548.9C410.854 548.14 410.957 547.433 411.164 546.78C411.371 546.127 411.667 545.56 412.054 545.08C412.441 544.6 412.904 544.227 413.444 543.96C413.984 543.687 414.591 543.55 415.264 543.55C415.837 543.55 416.327 543.64 416.734 543.82C417.141 544 417.504 544.243 417.824 544.55V539.14H420.294ZM429.342 547.69C429.342 547.37 429.295 547.07 429.202 546.79C429.115 546.503 428.982 546.253 428.802 546.04C428.622 545.827 428.392 545.66 428.112 545.54C427.838 545.413 427.518 545.35 427.152 545.35C426.438 545.35 425.875 545.553 425.462 545.96C425.055 546.367 424.795 546.943 424.682 547.69H429.342ZM424.632 549.18C424.672 549.707 424.765 550.163 424.912 550.55C425.058 550.93 425.252 551.247 425.492 551.5C425.732 551.747 426.015 551.933 426.342 552.06C426.675 552.18 427.042 552.24 427.442 552.24C427.842 552.24 428.185 552.193 428.472 552.1C428.765 552.007 429.018 551.903 429.232 551.79C429.452 551.677 429.642 551.573 429.802 551.48C429.968 551.387 430.128 551.34 430.282 551.34C430.488 551.34 430.642 551.417 430.742 551.57L431.452 552.47C431.178 552.79 430.872 553.06 430.532 553.28C430.192 553.493 429.835 553.667 429.462 553.8C429.095 553.927 428.718 554.017 428.332 554.07C427.952 554.123 427.582 554.15 427.222 554.15C426.508 554.15 425.845 554.033 425.232 553.8C424.618 553.56 424.085 553.21 423.632 552.75C423.178 552.283 422.822 551.71 422.562 551.03C422.302 550.343 422.172 549.55 422.172 548.65C422.172 547.95 422.285 547.293 422.512 546.68C422.738 546.06 423.062 545.523 423.482 545.07C423.908 544.61 424.425 544.247 425.032 543.98C425.645 543.713 426.335 543.58 427.102 543.58C427.748 543.58 428.345 543.683 428.892 543.89C429.438 544.097 429.908 544.4 430.302 544.8C430.695 545.193 431.002 545.68 431.222 546.26C431.448 546.833 431.562 547.49 431.562 548.23C431.562 548.603 431.522 548.857 431.442 548.99C431.362 549.117 431.208 549.18 430.982 549.18H424.632ZM435.745 545.52C436.065 544.907 436.445 544.427 436.885 544.08C437.325 543.727 437.845 543.55 438.445 543.55C438.919 543.55 439.299 543.653 439.585 543.86L439.425 545.71C439.392 545.83 439.342 545.917 439.275 545.97C439.215 546.017 439.132 546.04 439.025 546.04C438.925 546.04 438.775 546.023 438.575 545.99C438.382 545.957 438.192 545.94 438.005 545.94C437.732 545.94 437.489 545.98 437.275 546.06C437.062 546.14 436.869 546.257 436.695 546.41C436.529 546.557 436.379 546.737 436.245 546.95C436.119 547.163 435.999 547.407 435.885 547.68V554H433.415V543.74H434.865C435.119 543.74 435.295 543.787 435.395 543.88C435.495 543.967 435.562 544.127 435.595 544.36L435.745 545.52ZM454.44 552.15V554H446.44V552.15H449.37V543.72C449.37 543.387 449.38 543.043 449.4 542.69L447.32 544.43C447.2 544.523 447.08 544.583 446.96 544.61C446.847 544.63 446.737 544.63 446.63 544.61C446.53 544.59 446.44 544.557 446.36 544.51C446.28 544.457 446.22 544.4 446.18 544.34L445.4 543.27L449.81 539.52H451.84V552.15H454.44ZM465.501 551.7C465.768 551.7 465.978 551.777 466.131 551.93C466.291 552.077 466.371 552.273 466.371 552.52V554H456.451V553.18C456.451 553.013 456.485 552.84 456.551 552.66C456.625 552.473 456.738 552.307 456.891 552.16L461.281 547.76C461.648 547.387 461.975 547.03 462.261 546.69C462.555 546.35 462.798 546.013 462.991 545.68C463.185 545.347 463.331 545.01 463.431 544.67C463.538 544.323 463.591 543.96 463.591 543.58C463.591 543.233 463.541 542.93 463.441 542.67C463.341 542.403 463.198 542.18 463.011 542C462.831 541.82 462.611 541.687 462.351 541.6C462.098 541.507 461.811 541.46 461.491 541.46C461.198 541.46 460.925 541.503 460.671 541.59C460.425 541.67 460.205 541.787 460.011 541.94C459.818 542.087 459.655 542.26 459.521 542.46C459.388 542.66 459.288 542.88 459.221 543.12C459.108 543.427 458.961 543.63 458.781 543.73C458.601 543.83 458.341 543.853 458.001 543.8L456.701 543.57C456.801 542.877 456.995 542.27 457.281 541.75C457.568 541.223 457.925 540.787 458.351 540.44C458.785 540.087 459.278 539.823 459.831 539.65C460.391 539.47 460.991 539.38 461.631 539.38C462.298 539.38 462.908 539.48 463.461 539.68C464.015 539.873 464.488 540.15 464.881 540.51C465.275 540.87 465.581 541.303 465.801 541.81C466.021 542.317 466.131 542.88 466.131 543.5C466.131 544.033 466.051 544.527 465.891 544.98C465.738 545.433 465.528 545.867 465.261 546.28C465.001 546.693 464.695 547.093 464.341 547.48C463.988 547.867 463.618 548.26 463.231 548.66L459.971 551.99C460.285 551.897 460.595 551.827 460.901 551.78C461.215 551.727 461.511 551.7 461.791 551.7H465.501ZM468.373 543.57C468.473 542.877 468.666 542.27 468.953 541.75C469.24 541.223 469.596 540.787 470.023 540.44C470.456 540.087 470.95 539.823 471.503 539.65C472.063 539.47 472.663 539.38 473.303 539.38C473.97 539.38 474.57 539.477 475.103 539.67C475.643 539.857 476.103 540.12 476.483 540.46C476.863 540.793 477.153 541.187 477.353 541.64C477.56 542.093 477.663 542.583 477.663 543.11C477.663 543.57 477.61 543.977 477.503 544.33C477.403 544.677 477.256 544.98 477.063 545.24C476.87 545.5 476.63 545.72 476.343 545.9C476.056 546.08 475.733 546.23 475.373 546.35C476.24 546.623 476.886 547.04 477.313 547.6C477.74 548.16 477.953 548.863 477.953 549.71C477.953 550.43 477.82 551.067 477.553 551.62C477.286 552.173 476.926 552.64 476.473 553.02C476.02 553.393 475.493 553.677 474.893 553.87C474.3 554.063 473.67 554.16 473.003 554.16C472.276 554.16 471.643 554.077 471.103 553.91C470.563 553.743 470.093 553.497 469.693 553.17C469.293 552.843 468.953 552.443 468.673 551.97C468.393 551.497 468.153 550.95 467.953 550.33L469.043 549.88C469.33 549.76 469.596 549.73 469.843 549.79C470.096 549.843 470.28 549.977 470.393 550.19C470.513 550.423 470.643 550.653 470.783 550.88C470.93 551.107 471.103 551.31 471.303 551.49C471.503 551.663 471.736 551.807 472.003 551.92C472.276 552.027 472.6 552.08 472.973 552.08C473.393 552.08 473.76 552.013 474.073 551.88C474.386 551.74 474.646 551.56 474.853 551.34C475.066 551.12 475.223 550.877 475.323 550.61C475.43 550.337 475.483 550.063 475.483 549.79C475.483 549.443 475.446 549.13 475.373 548.85C475.3 548.563 475.146 548.32 474.913 548.12C474.68 547.92 474.343 547.763 473.903 547.65C473.47 547.537 472.886 547.48 472.153 547.48V545.72C472.76 545.713 473.263 545.657 473.663 545.55C474.063 545.443 474.38 545.297 474.613 545.11C474.853 544.917 475.02 544.687 475.113 544.42C475.206 544.153 475.253 543.86 475.253 543.54C475.253 542.86 475.063 542.343 474.683 541.99C474.303 541.637 473.796 541.46 473.163 541.46C472.87 541.46 472.6 541.503 472.353 541.59C472.106 541.67 471.883 541.787 471.683 541.94C471.49 542.087 471.326 542.26 471.193 542.46C471.06 542.66 470.96 542.88 470.893 543.12C470.78 543.427 470.63 543.63 470.443 543.73C470.263 543.83 470.006 543.853 469.673 543.8L468.373 543.57ZM486.015 548.55V543.82C486.015 543.373 486.045 542.88 486.105 542.34L481.615 548.55H486.015ZM489.985 548.55V549.98C489.985 550.113 489.941 550.23 489.855 550.33C489.768 550.423 489.645 550.47 489.485 550.47H488.165V554H486.015V550.47H479.915C479.748 550.47 479.601 550.42 479.475 550.32C479.348 550.213 479.268 550.083 479.235 549.93L478.975 548.68L485.825 539.53H488.165V548.55H489.985ZM491.636 546.93H496.816V548.99H491.636V546.93ZM507.207 548.54L505.447 543.73C505.36 543.517 505.27 543.263 505.177 542.97C505.084 542.677 504.99 542.36 504.897 542.02C504.81 542.36 504.72 542.68 504.627 542.98C504.534 543.273 504.444 543.53 504.357 543.75L502.607 548.54H507.207ZM511.957 554H509.877C509.644 554 509.454 553.943 509.307 553.83C509.16 553.71 509.05 553.563 508.977 553.39L507.897 550.44H501.907L500.827 553.39C500.774 553.543 500.67 553.683 500.517 553.81C500.364 553.937 500.174 554 499.947 554H497.847L503.537 539.54H506.277L511.957 554ZM518.864 551.9C519.364 551.9 519.784 551.84 520.124 551.72C520.464 551.6 520.734 551.44 520.934 551.24C521.14 551.04 521.287 550.807 521.374 550.54C521.467 550.273 521.514 549.99 521.514 549.69C521.514 549.377 521.464 549.097 521.364 548.85C521.264 548.597 521.107 548.383 520.894 548.21C520.68 548.03 520.404 547.893 520.064 547.8C519.73 547.707 519.327 547.66 518.854 547.66H516.144V551.9H518.864ZM516.144 541.62V545.8H518.284C519.204 545.8 519.897 545.633 520.364 545.3C520.837 544.967 521.074 544.437 521.074 543.71C521.074 542.957 520.86 542.42 520.434 542.1C520.007 541.78 519.34 541.62 518.434 541.62H516.144ZM518.434 539.54C519.38 539.54 520.19 539.63 520.864 539.81C521.537 539.99 522.087 540.247 522.514 540.58C522.947 540.913 523.264 541.317 523.464 541.79C523.664 542.263 523.764 542.797 523.764 543.39C523.764 543.73 523.714 544.057 523.614 544.37C523.514 544.677 523.357 544.967 523.144 545.24C522.937 545.507 522.67 545.75 522.344 545.97C522.024 546.19 521.64 546.377 521.194 546.53C523.18 546.977 524.174 548.05 524.174 549.75C524.174 550.363 524.057 550.93 523.824 551.45C523.59 551.97 523.25 552.42 522.804 552.8C522.357 553.173 521.807 553.467 521.154 553.68C520.5 553.893 519.754 554 518.914 554H513.454V539.54H518.434ZM536.548 550.59C536.694 550.59 536.824 550.647 536.938 550.76L537.998 551.91C537.411 552.637 536.688 553.193 535.828 553.58C534.974 553.967 533.948 554.16 532.748 554.16C531.674 554.16 530.708 553.977 529.848 553.61C528.994 553.243 528.264 552.733 527.658 552.08C527.051 551.427 526.584 550.647 526.258 549.74C525.938 548.833 525.778 547.843 525.778 546.77C525.778 545.683 525.951 544.69 526.298 543.79C526.644 542.883 527.131 542.103 527.758 541.45C528.391 540.797 529.144 540.29 530.018 539.93C530.891 539.563 531.858 539.38 532.918 539.38C533.971 539.38 534.904 539.553 535.718 539.9C536.538 540.247 537.234 540.7 537.808 541.26L536.908 542.51C536.854 542.59 536.784 542.66 536.698 542.72C536.618 542.78 536.504 542.81 536.358 542.81C536.258 542.81 536.154 542.783 536.048 542.73C535.941 542.67 535.824 542.6 535.698 542.52C535.571 542.433 535.424 542.34 535.258 542.24C535.091 542.14 534.898 542.05 534.678 541.97C534.458 541.883 534.201 541.813 533.908 541.76C533.621 541.7 533.288 541.67 532.908 541.67C532.261 541.67 531.668 541.787 531.128 542.02C530.594 542.247 530.134 542.58 529.748 543.02C529.361 543.453 529.061 543.987 528.848 544.62C528.634 545.247 528.528 545.963 528.528 546.77C528.528 547.583 528.641 548.307 528.868 548.94C529.101 549.573 529.414 550.107 529.808 550.54C530.201 550.973 530.664 551.307 531.198 551.54C531.731 551.767 532.304 551.88 532.918 551.88C533.284 551.88 533.614 551.86 533.908 551.82C534.208 551.78 534.481 551.717 534.728 551.63C534.981 551.543 535.218 551.433 535.438 551.3C535.664 551.16 535.888 550.99 536.108 550.79C536.174 550.73 536.244 550.683 536.318 550.65C536.391 550.61 536.468 550.59 536.548 550.59ZM552.68 546.77C552.68 547.83 552.504 548.803 552.15 549.69C551.797 550.577 551.3 551.34 550.66 551.98C550.02 552.62 549.25 553.117 548.35 553.47C547.45 553.823 546.45 554 545.35 554H539.84V539.54H545.35C546.45 539.54 547.45 539.72 548.35 540.08C549.25 540.433 550.02 540.93 550.66 541.57C551.3 542.203 551.797 542.963 552.15 543.85C552.504 544.737 552.68 545.71 552.68 546.77ZM549.92 546.77C549.92 545.977 549.814 545.267 549.6 544.64C549.394 544.007 549.09 543.473 548.69 543.04C548.297 542.6 547.817 542.263 547.25 542.03C546.69 541.797 546.057 541.68 545.35 541.68H542.54V551.86H545.35C546.057 551.86 546.69 551.743 547.25 551.51C547.817 551.277 548.297 550.943 548.69 550.51C549.09 550.07 549.394 549.537 549.6 548.91C549.814 548.277 549.92 547.563 549.92 546.77ZM557.755 541.68V545.69H562.815V547.76H557.755V551.85H564.175V554H555.055V539.54H564.175V541.68H557.755ZM569.259 541.68V545.96H574.679V548.11H569.259V554H566.559V539.54H575.679V541.68H569.259ZM589.671 546.75V552.6C588.937 553.14 588.154 553.537 587.321 553.79C586.494 554.037 585.607 554.16 584.661 554.16C583.481 554.16 582.411 553.977 581.451 553.61C580.497 553.243 579.681 552.733 579.001 552.08C578.327 551.427 577.807 550.647 577.441 549.74C577.074 548.833 576.891 547.843 576.891 546.77C576.891 545.683 577.067 544.687 577.421 543.78C577.774 542.873 578.274 542.093 578.921 541.44C579.574 540.787 580.364 540.28 581.291 539.92C582.217 539.56 583.257 539.38 584.411 539.38C584.997 539.38 585.544 539.427 586.051 539.52C586.564 539.613 587.037 539.743 587.471 539.91C587.911 540.07 588.311 540.267 588.671 540.5C589.031 540.733 589.361 540.99 589.661 541.27L588.891 542.49C588.771 542.683 588.614 542.803 588.421 542.85C588.227 542.89 588.017 542.84 587.791 542.7C587.571 542.573 587.351 542.447 587.131 542.32C586.911 542.193 586.664 542.083 586.391 541.99C586.124 541.897 585.821 541.82 585.481 541.76C585.147 541.7 584.761 541.67 584.321 541.67C583.607 541.67 582.961 541.79 582.381 542.03C581.807 542.27 581.317 542.613 580.911 543.06C580.504 543.507 580.191 544.043 579.971 544.67C579.751 545.297 579.641 545.997 579.641 546.77C579.641 547.597 579.757 548.337 579.991 548.99C580.231 549.637 580.564 550.187 580.991 550.64C581.424 551.087 581.944 551.43 582.551 551.67C583.157 551.903 583.834 552.02 584.581 552.02C585.114 552.02 585.591 551.963 586.011 551.85C586.431 551.737 586.841 551.583 587.241 551.39V548.77H585.421C585.247 548.77 585.111 548.723 585.011 548.63C584.917 548.53 584.871 548.41 584.871 548.27V546.75H589.671Z" fill="black" fill-opacity="0.6"/>
<rect opacity="0.43" x="178" y="608" width="110" height="6" rx="3" fill="#32FC92"/>
<g filter="url(#filter8_d_739_518706)">
<rect x="387" y="774" width="1295" height="85" rx="2" fill="white"/>
<rect x="387.5" y="774.5" width="1294" height="84" rx="1.5" stroke="#E9E9E9"/>
</g>
<rect x="626" y="775" width="1" height="84" fill="#222426" fill-opacity="0.15"/>
<rect x="898" y="775" width="1" height="84" fill="#222426" fill-opacity="0.15"/>
<rect x="1170" y="775" width="1" height="84" fill="#222426" fill-opacity="0.15"/>
<rect x="1442" y="775" width="1" height="84" fill="#222426" fill-opacity="0.15"/>
<rect x="442" y="805" width="128" height="10" rx="5" fill="#C4C4C4"/>
<rect x="464" y="821" width="84" height="7" rx="3.5" fill="#DCDCDC"/>
<rect x="698" y="805" width="128" height="10" rx="5" fill="#C4C4C4"/>
<rect x="720" y="821" width="84" height="7" rx="3.5" fill="#DCDCDC"/>
<rect x="970" y="805" width="128" height="10" rx="5" fill="#C4C4C4"/>
<rect x="992" y="821" width="84" height="7" rx="3.5" fill="#DCDCDC"/>
<rect x="1242" y="805" width="128" height="10" rx="5" fill="#C4C4C4"/>
<rect x="1264" y="821" width="84" height="7" rx="3.5" fill="#DCDCDC"/>
<rect x="1497" y="805" width="128" height="10" rx="5" fill="#C4C4C4"/>
<rect x="1519" y="821" width="84" height="7" rx="3.5" fill="#DCDCDC"/>
<rect x="387" y="899" width="128" height="10" rx="5" fill="#C4C4C4"/>
<rect x="387" y="1148" width="128" height="10" rx="5" fill="#C4C4C4"/>
<rect x="427" y="1064" width="58" height="6" rx="3" fill="#C4C4C4"/>
<circle cx="455.5" cy="993.5" r="46.5" fill="#E8E8E8"/>
<circle cx="486" cy="1029" r="11" fill="#4E886A"/>
<rect x="387.5" y="933.5" width="136" height="174" rx="1.5" stroke="#DEDEDE"/>
<rect x="403" y="1202" width="125" height="6" rx="3" fill="#C4C4C4"/>
<rect x="662" y="1202" width="93" height="6" rx="3" fill="#DCDCDC"/>
<rect x="765" y="1202" width="151" height="6" rx="3" fill="#DCDCDC"/>
<rect x="1290" y="1202" width="112" height="6" rx="3" fill="#DCDCDC"/>
<rect x="1491" y="1202" width="112" height="6" rx="3" fill="#DCDCDC"/>
<path d="M389 1182.5H1677C1677.83 1182.5 1678.5 1183.17 1678.5 1184V1227.5H387.5V1184C387.5 1183.17 388.172 1182.5 389 1182.5Z" stroke="#DEDEDE"/>
<rect x="403" y="1247" width="125" height="6" rx="3" fill="#C4C4C4"/>
<rect x="662" y="1247" width="93" height="6" rx="3" fill="#DCDCDC"/>
<rect x="765" y="1247" width="151" height="6" rx="3" fill="#DCDCDC"/>
<rect x="1290" y="1247" width="112" height="6" rx="3" fill="#DCDCDC"/>
<rect x="1491" y="1247" width="112" height="6" rx="3" fill="#DCDCDC"/>
<path d="M387.5 1227.5H1678.5V1272.5H387.5V1227.5Z" stroke="#DEDEDE"/>
<rect x="403" y="1292" width="125" height="6" rx="3" fill="#C4C4C4"/>
<rect x="662" y="1292" width="93" height="6" rx="3" fill="#DCDCDC"/>
<rect x="765" y="1292" width="151" height="6" rx="3" fill="#DCDCDC"/>
<rect x="1290" y="1292" width="112" height="6" rx="3" fill="#DCDCDC"/>
<rect x="1491" y="1292" width="112" height="6" rx="3" fill="#DCDCDC"/>
<path d="M387.5 1272.5H1678.5V1317.5H387.5V1272.5Z" stroke="#DEDEDE"/>
<rect x="403" y="1337" width="125" height="6" rx="3" fill="#C4C4C4"/>
<rect x="662" y="1337" width="93" height="6" rx="3" fill="#DCDCDC"/>
<rect x="765" y="1337" width="151" height="6" rx="3" fill="#DCDCDC"/>
<rect x="1290" y="1337" width="112" height="6" rx="3" fill="#DCDCDC"/>
<rect x="1491" y="1337" width="112" height="6" rx="3" fill="#DCDCDC"/>
<path d="M387.5 1317.5H1678.5V1362.5H387.5V1317.5Z" stroke="#DEDEDE"/>
<rect x="403" y="1382" width="125" height="6" rx="3" fill="#C4C4C4"/>
<rect x="662" y="1382" width="93" height="6" rx="3" fill="#DCDCDC"/>
<rect x="765" y="1382" width="151" height="6" rx="3" fill="#DCDCDC"/>
<rect x="1290" y="1382" width="112" height="6" rx="3" fill="#DCDCDC"/>
<rect x="1491" y="1382" width="112" height="6" rx="3" fill="#DCDCDC"/>
<path d="M387.5 1362.5H1678.5V1407.5H387.5V1362.5Z" stroke="#DEDEDE"/>
<rect x="403" y="1427" width="125" height="6" rx="3" fill="#C4C4C4"/>
<rect x="662" y="1427" width="93" height="6" rx="3" fill="#DCDCDC"/>
<rect x="765" y="1427" width="151" height="6" rx="3" fill="#DCDCDC"/>
<rect x="1290" y="1427" width="112" height="6" rx="3" fill="#DCDCDC"/>
<rect x="1491" y="1427" width="112" height="6" rx="3" fill="#DCDCDC"/>
<path d="M387.5 1407.5H1678.5V1452.5H387.5V1407.5Z" stroke="#DEDEDE"/>
<rect x="403" y="1472" width="125" height="6" rx="3" fill="#C4C4C4"/>
<rect x="662" y="1472" width="93" height="6" rx="3" fill="#DCDCDC"/>
<rect x="765" y="1472" width="151" height="6" rx="3" fill="#DCDCDC"/>
<rect x="1290" y="1472" width="112" height="6" rx="3" fill="#DCDCDC"/>
<rect x="1491" y="1472" width="112" height="6" rx="3" fill="#DCDCDC"/>
<path d="M387.5 1452.5H1678.5V1497.5H387.5V1452.5Z" stroke="#DEDEDE"/>
<path d="M387.5 1497.5H1678.5V1542.5H387.5V1497.5Z" stroke="#DEDEDE"/>
<rect x="592" y="1064" width="58" height="6" rx="3" fill="#C4C4C4"/>
<circle cx="620.5" cy="993.5" r="46.5" fill="#E8E8E8"/>
<circle cx="651" cy="1029" r="11" fill="#4E886A"/>
<rect x="552.5" y="933.5" width="136" height="174" rx="1.5" stroke="#DEDEDE"/>
<rect x="757" y="1064" width="58" height="6" rx="3" fill="#C4C4C4"/>
<circle cx="785.5" cy="993.5" r="46.5" fill="#E8E8E8"/>
<circle cx="816" cy="1029" r="11" fill="#DCB850"/>
<rect x="717.5" y="933.5" width="136" height="174" rx="1.5" stroke="#DEDEDE"/>
<rect x="922" y="1064" width="58" height="6" rx="3" fill="#C4C4C4"/>
<circle cx="950.5" cy="993.5" r="46.5" fill="#E8E8E8"/>
<circle cx="981" cy="1029" r="11" fill="#4E886A"/>
<rect x="882.5" y="933.5" width="136" height="174" rx="1.5" stroke="#DEDEDE"/>
<rect x="1087" y="1064" width="58" height="6" rx="3" fill="#C4C4C4"/>
<circle cx="1115.5" cy="993.5" r="46.5" fill="#E8E8E8"/>
<circle cx="1146" cy="1029" r="11" fill="#4E886A"/>
<rect x="1047.5" y="933.5" width="136" height="174" rx="1.5" stroke="#DEDEDE"/>
<rect x="1252" y="1064" width="58" height="6" rx="3" fill="#C4C4C4"/>
<circle cx="1280.5" cy="993.5" r="46.5" fill="#E8E8E8"/>
<circle cx="1311" cy="1029" r="11" fill="#DCB850"/>
<rect x="1212.5" y="933.5" width="136" height="174" rx="1.5" stroke="#DEDEDE"/>
<rect x="1417" y="1064" width="58" height="6" rx="3" fill="#C4C4C4"/>
<circle cx="1445.5" cy="993.5" r="46.5" fill="#E8E8E8"/>
<circle cx="1476" cy="1029" r="11" fill="#999999"/>
<rect x="1377.5" y="933.5" width="136" height="174" rx="1.5" stroke="#DEDEDE"/>
<rect x="1582" y="1064" width="58" height="6" rx="3" fill="#C4C4C4"/>
<circle cx="1610.5" cy="993.5" r="46.5" fill="#E8E8E8"/>
<circle cx="1641" cy="1029" r="11" fill="#4E886A"/>
<rect x="1542.5" y="933.5" width="136" height="174" rx="1.5" stroke="#DEDEDE"/>
<rect x="148" y="447" width="115" height="31" rx="15.5" fill="#159A5A" fill-opacity="0.3"/>
</g>
</g>
</g>
</g>
<defs>
<filter id="filter0_d_739_518706" x="97" y="314" width="1672" height="1238" filterUnits="userSpaceOnUse" color-interpolation-filters="sRGB">
<feFlood flood-opacity="0" result="BackgroundImageFix"/>
<feColorMatrix in="SourceAlpha" type="matrix" values="0 0 0 0 0 0 0 0 0 0 0 0 0 0 0 0 0 0 127 0" result="hardAlpha"/>
<feOffset dx="10" dy="10"/>
<feGaussianBlur stdDeviation="20"/>
<feComposite in2="hardAlpha" operator="out"/>
<feColorMatrix type="matrix" values="0 0 0 0 0 0 0 0 0 0 0 0 0 0 0 0 0 0 0.12 0"/>
<feBlend mode="normal" in2="BackgroundImageFix" result="effect1_dropShadow_739_518706"/>
<feBlend mode="normal" in="SourceGraphic" in2="effect1_dropShadow_739_518706" result="shape"/>
</filter>
<filter id="filter1_d_739_518706" x="121" y="344" width="1604" height="90" filterUnits="userSpaceOnUse" color-interpolation-filters="sRGB">
<feFlood flood-opacity="0" result="BackgroundImageFix"/>
<feColorMatrix in="SourceAlpha" type="matrix" values="0 0 0 0 0 0 0 0 0 0 0 0 0 0 0 0 0 0 127 0" result="hardAlpha"/>
<feOffset dy="6"/>
<feGaussianBlur stdDeviation="3"/>
<feComposite in2="hardAlpha" operator="out"/>
<feColorMatrix type="matrix" values="0 0 0 0 0 0 0 0 0 0 0 0 0 0 0 0 0 0 0.25 0"/>
<feBlend mode="normal" in2="BackgroundImageFix" result="effect1_dropShadow_739_518706"/>
<feBlend mode="normal" in="SourceGraphic" in2="effect1_dropShadow_739_518706" result="shape"/>
</filter>
<filter id="filter2_di_739_518706" x="1600" y="529" width="85" height="39" filterUnits="userSpaceOnUse" color-interpolation-filters="sRGB">
<feFlood flood-opacity="0" result="BackgroundImageFix"/>
<feColorMatrix in="SourceAlpha" type="matrix" values="0 0 0 0 0 0 0 0 0 0 0 0 0 0 0 0 0 0 127 0" result="hardAlpha"/>
<feOffset dy="1"/>
<feGaussianBlur stdDeviation="1.5"/>
<feColorMatrix type="matrix" values="0 0 0 0 0.133333 0 0 0 0 0.141176 0 0 0 0 0.14902 0 0 0 0.2 0"/>
<feBlend mode="normal" in2="BackgroundImageFix" result="effect1_dropShadow_739_518706"/>
<feBlend mode="normal" in="SourceGraphic" in2="effect1_dropShadow_739_518706" result="shape"/>
<feColorMatrix in="SourceAlpha" type="matrix" values="0 0 0 0 0 0 0 0 0 0 0 0 0 0 0 0 0 0 127 0" result="hardAlpha"/>
<feOffset dy="1"/>
<feGaussianBlur stdDeviation="0.5"/>
<feComposite in2="hardAlpha" operator="arithmetic" k2="-1" k3="1"/>
<feColorMatrix type="matrix" values="0 0 0 0 0 0 0 0 0 0 0 0 0 0 0 0 0 0 0.05 0"/>
<feBlend mode="normal" in2="shape" result="effect2_innerShadow_739_518706"/>
</filter>
<filter id="filter3_d_739_518706" x="1623.57" y="542.035" width="37.578" height="15.4775" filterUnits="userSpaceOnUse" color-interpolation-filters="sRGB">
<feFlood flood-opacity="0" result="BackgroundImageFix"/>
<feColorMatrix in="SourceAlpha" type="matrix" values="0 0 0 0 0 0 0 0 0 0 0 0 0 0 0 0 0 0 127 0" result="hardAlpha"/>
<feOffset dy="1"/>
<feGaussianBlur stdDeviation="0.5"/>
<feColorMatrix type="matrix" values="0 0 0 0 0.133333 0 0 0 0 0.141176 0 0 0 0 0.14902 0 0 0 0.2 0"/>
<feBlend mode="normal" in2="BackgroundImageFix" result="effect1_dropShadow_739_518706"/>
<feBlend mode="normal" in="SourceGraphic" in2="effect1_dropShadow_739_518706" result="shape"/>
</filter>
<filter id="filter4_i_739_518706" x="534" y="696" width="1000" height="15" filterUnits="userSpaceOnUse" color-interpolation-filters="sRGB">
<feFlood flood-opacity="0" result="BackgroundImageFix"/>
<feBlend mode="normal" in="SourceGraphic" in2="BackgroundImageFix" result="shape"/>
<feColorMatrix in="SourceAlpha" type="matrix" values="0 0 0 0 0 0 0 0 0 0 0 0 0 0 0 0 0 0 127 0" result="hardAlpha"/>
<feOffset dy="-4"/>
<feGaussianBlur stdDeviation="2"/>
<feComposite in2="hardAlpha" operator="arithmetic" k2="-1" k3="1"/>
<feColorMatrix type="matrix" values="0 0 0 0 0 0 0 0 0 0 0 0 0 0 0 0 0 0 0.18 0"/>
<feBlend mode="normal" in2="shape" result="effect1_innerShadow_739_518706"/>
</filter>
<filter id="filter5_i_739_518706" x="534" y="696" width="583" height="15" filterUnits="userSpaceOnUse" color-interpolation-filters="sRGB">
<feFlood flood-opacity="0" result="BackgroundImageFix"/>
<feBlend mode="normal" in="SourceGraphic" in2="BackgroundImageFix" result="shape"/>
<feColorMatrix in="SourceAlpha" type="matrix" values="0 0 0 0 0 0 0 0 0 0 0 0 0 0 0 0 0 0 127 0" result="hardAlpha"/>
<feOffset dy="-4"/>
<feGaussianBlur stdDeviation="2"/>
<feComposite in2="hardAlpha" operator="arithmetic" k2="-1" k3="1"/>
<feColorMatrix type="matrix" values="0 0 0 0 0 0 0 0 0 0 0 0 0 0 0 0 0 0 0.18 0"/>
<feBlend mode="normal" in2="shape" result="effect1_innerShadow_739_518706"/>
</filter>
<filter id="filter6_i_739_518706" x="1511" y="686" width="29" height="33" filterUnits="userSpaceOnUse" color-interpolation-filters="sRGB">
<feFlood flood-opacity="0" result="BackgroundImageFix"/>
<feBlend mode="normal" in="SourceGraphic" in2="BackgroundImageFix" result="shape"/>
<feColorMatrix in="SourceAlpha" type="matrix" values="0 0 0 0 0 0 0 0 0 0 0 0 0 0 0 0 0 0 127 0" result="hardAlpha"/>
<feOffset dy="-4"/>
<feGaussianBlur stdDeviation="2"/>
<feComposite in2="hardAlpha" operator="arithmetic" k2="-1" k3="1"/>
<feColorMatrix type="matrix" values="0 0 0 0 0 0 0 0 0 0 0 0 0 0 0 0 0 0 0.18 0"/>
<feBlend mode="normal" in2="shape" result="effect1_innerShadow_739_518706"/>
</filter>
<filter id="filter7_i_739_518706" x="1343" y="693" width="17" height="21" filterUnits="userSpaceOnUse" color-interpolation-filters="sRGB">
<feFlood flood-opacity="0" result="BackgroundImageFix"/>
<feBlend mode="normal" in="SourceGraphic" in2="BackgroundImageFix" result="shape"/>
<feColorMatrix in="SourceAlpha" type="matrix" values="0 0 0 0 0 0 0 0 0 0 0 0 0 0 0 0 0 0 127 0" result="hardAlpha"/>
<feOffset dy="-4"/>
<feGaussianBlur stdDeviation="2"/>
<feComposite in2="hardAlpha" operator="arithmetic" k2="-1" k3="1"/>
<feColorMatrix type="matrix" values="0 0 0 0 0 0 0 0 0 0 0 0 0 0 0 0 0 0 0.18 0"/>
<feBlend mode="normal" in2="shape" result="effect1_innerShadow_739_518706"/>
</filter>
<filter id="filter8_d_739_518706" x="383" y="772" width="1303" height="93" filterUnits="userSpaceOnUse" color-interpolation-filters="sRGB">
<feFlood flood-opacity="0" result="BackgroundImageFix"/>
<feColorMatrix in="SourceAlpha" type="matrix" values="0 0 0 0 0 0 0 0 0 0 0 0 0 0 0 0 0 0 127 0" result="hardAlpha"/>
<feOffset dy="2"/>
<feGaussianBlur stdDeviation="2"/>
<feColorMatrix type="matrix" values="0 0 0 0 0.133333 0 0 0 0 0.141176 0 0 0 0 0.14902 0 0 0 0.14 0"/>
<feBlend mode="normal" in2="BackgroundImageFix" result="effect1_dropShadow_739_518706"/>
<feBlend mode="normal" in="SourceGraphic" in2="effect1_dropShadow_739_518706" result="shape"/>
</filter>
<linearGradient id="paint0_linear_739_518706" x1="621" y1="344" x2="1767" y2="442.5" gradientUnits="userSpaceOnUse">
<stop stop-color="white"/>
<stop offset="1" stop-color="#F4F4F4"/>
</linearGradient>
<linearGradient id="paint1_linear_739_518706" x1="1129.9" y1="491" x2="1129.9" y2="801" gradientUnits="userSpaceOnUse">
<stop stop-color="white"/>
<stop offset="1" stop-color="#F1F1F1"/>
</linearGradient>
<linearGradient id="paint2_linear_739_518706" x1="1642.5" y1="531" x2="1642.5" y2="564" gradientUnits="userSpaceOnUse">
<stop stop-color="white" stop-opacity="0.15"/>
<stop offset="1" stop-opacity="0.08"/>
</linearGradient>
<linearGradient id="paint3_linear_739_518706" x1="1033" y1="570.999" x2="1033" y2="650.999" gradientUnits="userSpaceOnUse">
<stop stop-color="white" stop-opacity="0.5"/>
<stop offset="1" stop-color="white" stop-opacity="0.3"/>
</linearGradient>
<clipPath id="clip0_739_518706">
<rect width="1846" height="1846" fill="white"/>
</clipPath>
<clipPath id="clip1_739_518706">
<rect width="1846" height="1846" fill="white"/>
</clipPath>
<clipPath id="clip2_739_518706">
<path d="M127 364C127 352.954 135.954 344 147 344H1699C1710.05 344 1719 352.954 1719 364V1497C1719 1499.76 1716.76 1502 1714 1502H132C129.239 1502 127 1499.76 127 1497V364Z" fill="white"/>
</clipPath>
<clipPath id="clip3_739_518706">
<rect width="1592" height="1080" fill="white" transform="translate(127 422)"/>
</clipPath>
<clipPath id="clip4_739_518706">
<rect width="1370" height="296" fill="white" transform="translate(349 505)"/>
</clipPath>
<clipPath id="clip5_739_518706">
<rect x="1603" y="531" width="79" height="33" rx="4" fill="white"/>
</clipPath>
<clipPath id="clip6_739_518706">
<rect width="80" height="80" fill="white" transform="translate(993 571)"/>
</clipPath>
</defs>
</svg>
