<svg width="40" height="64" viewBox="0 0 40 64" fill="none" xmlns="http://www.w3.org/2000/svg">
<circle cx="20" cy="32" r="19.5" stroke="#00B0AF"/>
<path d="M24.0391 40H15.1035V39.1406L18.9023 35.1758C19.9701 34.069 20.7188 33.2227 21.1484 32.6367C21.5781 32.0508 21.8939 31.4909 22.0957 30.957C22.2975 30.4232 22.3984 29.8633 22.3984 29.2773C22.3984 28.4245 22.1185 27.7311 21.5586 27.1973C20.9987 26.6634 20.2728 26.3965 19.3809 26.3965C18.1895 26.3965 17.0501 26.8294 15.9629 27.6953L15.4355 27.0215C16.627 26.0189 17.9486 25.5176 19.4004 25.5176C20.6439 25.5176 21.6204 25.8496 22.3301 26.5137C23.0462 27.1777 23.4043 28.0924 23.4043 29.2578C23.4043 30.2018 23.1634 31.1165 22.6816 32.002C22.2064 32.8809 21.334 33.9681 20.0645 35.2637L16.4023 39.0234V39.0625H24.0391V40Z" fill="#00B0AF"/>
</svg>
