<svg width="40" height="64" viewBox="0 0 40 64" fill="none" xmlns="http://www.w3.org/2000/svg">
<circle cx="20" cy="32" r="19.5" stroke="#00B0AF"/>
<path d="M23.5605 29.082C23.5605 29.9674 23.2806 30.7129 22.7207 31.3184C22.1673 31.9238 21.4219 32.3112 20.4844 32.4805V32.5391C21.6302 32.6823 22.5026 33.0469 23.1016 33.6328C23.7005 34.2188 24 35.0065 24 35.9961C24 37.3307 23.5443 38.3659 22.6328 39.1016C21.7279 39.8307 20.4225 40.1953 18.7168 40.1953C17.265 40.1953 15.9987 39.9251 14.918 39.3848V38.418C15.4648 38.7044 16.0768 38.929 16.7539 39.0918C17.4375 39.2546 18.0788 39.3359 18.6777 39.3359C20.1165 39.3359 21.1973 39.0462 21.9199 38.4668C22.6426 37.8809 23.0039 37.0573 23.0039 35.9961C23.0039 35.0521 22.6328 34.3262 21.8906 33.8184C21.1549 33.3105 20.071 33.0566 18.6387 33.0566H17.0957V32.1191H18.6582C19.8431 32.1191 20.7806 31.8392 21.4707 31.2793C22.1673 30.7129 22.5156 29.9479 22.5156 28.9844C22.5156 28.1901 22.2324 27.5553 21.666 27.0801C21.1061 26.5983 20.3704 26.3574 19.459 26.3574C18.7493 26.3574 18.1016 26.4583 17.5156 26.6602C16.9297 26.8555 16.2721 27.194 15.543 27.6758L15.0645 27.0215C15.6178 26.5592 16.2852 26.1947 17.0664 25.9277C17.8477 25.6543 18.6387 25.5176 19.4395 25.5176C20.7546 25.5176 21.7702 25.8301 22.4863 26.4551C23.2025 27.0736 23.5605 27.9492 23.5605 29.082Z" fill="#00B0AF"/>
</svg>
