<svg width="2357" height="1206" viewBox="0 0 2357 1206" fill="none" xmlns="http://www.w3.org/2000/svg">
<rect width="2357" height="1206" fill="white"/>
<line x1="335" y1="383" x2="335" y2="706" stroke="#A9BFCB" stroke-width="2" stroke-dasharray="4 4"/>
<line x1="810" y1="383" x2="810" y2="706" stroke="#A9BFCB" stroke-width="2" stroke-dasharray="4 4"/>
<line x1="1333" y1="383" x2="1333" y2="706" stroke="#A9BFCB" stroke-width="2" stroke-dasharray="4 4"/>
<line x1="1841" y1="383" x2="1841" y2="706" stroke="#A9BFCB" stroke-width="2" stroke-dasharray="4 4"/>
<line x1="335" y1="742" x2="335" y2="1065" stroke="#A9BFCB" stroke-width="2" stroke-dasharray="4 4"/>
<line x1="810" y1="742" x2="810" y2="1065" stroke="#A9BFCB" stroke-width="2" stroke-dasharray="4 4"/>
<line x1="1333" y1="742" x2="1333" y2="1065" stroke="#A9BFCB" stroke-width="2" stroke-dasharray="4 4"/>
<line x1="1841" y1="742" x2="1841" y2="1065" stroke="#A9BFCB" stroke-width="2" stroke-dasharray="4 4"/>
<path d="M147 252C147 196.772 191.772 152 247 152H2098C2153.23 152 2198 196.772 2198 252V292H147V252Z" fill="#BBF2F1"/>
<rect x="147" y="372" width="2051" height="2" fill="#CCDCE6"/>
<rect x="147" y="723" width="2051" height="2" fill="#CCDCE6"/>
<g filter="url(#filter0_d)">
<circle cx="1179" cy="292" r="13" fill="#008180"/>
</g>
<g filter="url(#filter1_d)">
<circle cx="1843" cy="292" r="13" fill="#1E90CF"/>
</g>
<path d="M291.658 200.432C290.842 200.432 290.17 200.6 289.642 200.936C289.114 201.272 288.85 201.784 288.85 202.472C288.85 203.144 289.114 203.664 289.642 204.032C290.17 204.384 291.29 204.768 293.002 205.184C294.73 205.6 296.026 206.184 296.89 206.936C297.77 207.688 298.21 208.8 298.21 210.272C298.21 211.728 297.658 212.912 296.554 213.824C295.45 214.736 294.002 215.192 292.21 215.192C289.586 215.192 287.258 214.288 285.226 212.48L287.002 210.344C288.698 211.816 290.458 212.552 292.282 212.552C293.194 212.552 293.914 212.36 294.442 211.976C294.986 211.576 295.258 211.056 295.258 210.416C295.258 209.76 295.002 209.256 294.49 208.904C293.994 208.536 293.13 208.208 291.898 207.92C290.666 207.616 289.73 207.344 289.09 207.104C288.45 206.848 287.882 206.52 287.386 206.12C286.394 205.368 285.898 204.216 285.898 202.664C285.898 201.112 286.458 199.92 287.578 199.088C288.714 198.24 290.114 197.816 291.778 197.816C292.85 197.816 293.914 197.992 294.97 198.344C296.026 198.696 296.938 199.192 297.706 199.832L296.194 201.968C295.698 201.52 295.026 201.152 294.178 200.864C293.33 200.576 292.49 200.432 291.658 200.432ZM313.495 198.224V200.888H304.543V205.328H312.583V207.848H304.543V212.336H313.783V215H301.711V198.224H313.495ZM323.174 198.224C325.718 198.224 327.574 198.712 328.742 199.688C329.91 200.664 330.494 202.168 330.494 204.2C330.494 206.232 329.894 207.72 328.694 208.664C327.51 209.608 325.686 210.08 323.222 210.08H320.246V215H317.414V198.224H323.174ZM323.534 207.512C325.102 207.512 326.166 207.216 326.726 206.624C327.302 206.016 327.59 205.136 327.59 203.984C327.59 202.816 327.23 201.992 326.51 201.512C325.79 201.032 324.662 200.792 323.126 200.792H320.246V207.512H323.534ZM344.558 207.488C345.694 206.336 346.502 205.432 346.982 204.776C347.462 204.12 347.702 203.456 347.702 202.784C347.702 202.112 347.446 201.544 346.934 201.08C346.422 200.6 345.774 200.36 344.99 200.36C343.614 200.36 342.47 201.064 341.558 202.472L339.278 201.152C340.014 200.048 340.822 199.216 341.702 198.656C342.598 198.096 343.742 197.816 345.134 197.816C346.542 197.816 347.774 198.264 348.83 199.16C349.886 200.04 350.414 201.248 350.414 202.784C350.414 203.648 350.19 204.472 349.742 205.256C349.294 206.04 348.47 207.048 347.27 208.28L343.334 212.288H350.942V215H339.47V212.6L344.558 207.488ZM357.347 201.968C356.691 203.12 356.363 204.632 356.363 206.504C356.363 208.376 356.691 209.888 357.347 211.04C358.019 212.192 359.059 212.768 360.467 212.768C361.875 212.768 362.899 212.2 363.539 211.064C364.195 209.912 364.523 208.392 364.523 206.504C364.523 204.616 364.195 203.104 363.539 201.968C362.899 200.816 361.875 200.24 360.467 200.24C359.059 200.24 358.019 200.816 357.347 201.968ZM355.331 212.84C354.195 211.256 353.627 209.144 353.627 206.504C353.627 203.864 354.195 201.76 355.331 200.192C356.467 198.608 358.179 197.816 360.467 197.816C362.755 197.816 364.467 198.608 365.603 200.192C366.739 201.76 367.307 203.864 367.307 206.504C367.307 209.144 366.739 211.256 365.603 212.84C364.467 214.408 362.755 215.192 360.467 215.192C358.179 215.192 356.467 214.408 355.331 212.84ZM369.43 198.224H375.526V215H372.838V200.744H369.43V198.224ZM384.259 212.648C385.747 212.648 386.843 212.144 387.547 211.136C388.251 210.128 388.611 208.768 388.627 207.056C388.227 207.504 387.651 207.928 386.899 208.328C386.147 208.712 385.315 208.904 384.403 208.904C382.899 208.904 381.635 208.408 380.611 207.416C379.603 206.408 379.099 205.08 379.099 203.432C379.099 201.768 379.643 200.432 380.731 199.424C381.835 198.416 383.219 197.912 384.883 197.912C387.571 197.912 389.427 199.112 390.451 201.512C391.027 202.888 391.315 204.44 391.315 206.168C391.315 207.896 391.131 209.336 390.763 210.488C390.395 211.64 389.891 212.552 389.251 213.224C388.003 214.536 386.467 215.192 384.643 215.192C382.835 215.192 381.195 214.624 379.723 213.488L381.139 211.4C381.507 211.72 381.995 212.008 382.603 212.264C383.227 212.52 383.779 212.648 384.259 212.648ZM384.763 206.408C385.739 206.408 386.547 206.144 387.187 205.616C387.843 205.072 388.171 204.376 388.171 203.528C388.171 202.664 387.859 201.928 387.235 201.32C386.611 200.696 385.827 200.384 384.883 200.384C383.955 200.384 383.187 200.664 382.579 201.224C381.971 201.768 381.667 202.472 381.667 203.336C381.667 204.2 381.939 204.928 382.483 205.52C383.043 206.112 383.803 206.408 384.763 206.408Z" fill="#006867"/>
<path d="M1136.5 202.184C1135.37 201 1133.97 200.408 1132.3 200.408C1130.64 200.408 1129.23 201 1128.08 202.184C1126.94 203.368 1126.37 204.808 1126.37 206.504C1126.37 208.184 1126.94 209.616 1128.08 210.8C1129.23 211.984 1130.64 212.576 1132.3 212.576C1133.97 212.576 1135.37 211.984 1136.5 210.8C1137.65 209.616 1138.23 208.184 1138.23 206.504C1138.23 204.808 1137.65 203.368 1136.5 202.184ZM1138.59 212.696C1136.89 214.344 1134.8 215.168 1132.3 215.168C1129.81 215.168 1127.71 214.344 1126.01 212.696C1124.32 211.032 1123.47 208.968 1123.47 206.504C1123.47 204.024 1124.32 201.96 1126.01 200.312C1127.71 198.648 1129.81 197.816 1132.3 197.816C1134.8 197.816 1136.89 198.648 1138.59 200.312C1140.29 201.96 1141.13 204.024 1141.13 206.504C1141.13 208.968 1140.29 211.032 1138.59 212.696ZM1152.36 212.432C1153.34 212.432 1154.18 212.272 1154.88 211.952C1155.59 211.616 1156.32 211.088 1157.09 210.368L1158.91 212.24C1157.14 214.208 1154.98 215.192 1152.43 215.192C1149.91 215.192 1147.8 214.376 1146.12 212.744C1144.46 211.112 1143.63 209.048 1143.63 206.552C1143.63 204.056 1144.47 201.976 1146.17 200.312C1147.88 198.648 1150.03 197.816 1152.63 197.816C1155.23 197.816 1157.41 198.776 1159.15 200.696L1157.35 202.664C1156.55 201.896 1155.79 201.36 1155.07 201.056C1154.37 200.752 1153.54 200.6 1152.58 200.6C1150.88 200.6 1149.46 201.152 1148.31 202.256C1147.15 203.344 1146.58 204.744 1146.58 206.456C1146.58 208.152 1147.15 209.576 1148.28 210.728C1149.43 211.864 1150.79 212.432 1152.36 212.432ZM1168.71 200.816V215H1165.88V200.816H1160.79V198.224H1173.8V200.816H1168.71ZM1187.6 207.488C1188.74 206.336 1189.55 205.432 1190.03 204.776C1190.51 204.12 1190.75 203.456 1190.75 202.784C1190.75 202.112 1190.49 201.544 1189.98 201.08C1189.47 200.6 1188.82 200.36 1188.03 200.36C1186.66 200.36 1185.51 201.064 1184.6 202.472L1182.32 201.152C1183.06 200.048 1183.87 199.216 1184.75 198.656C1185.64 198.096 1186.79 197.816 1188.18 197.816C1189.59 197.816 1190.82 198.264 1191.87 199.16C1192.93 200.04 1193.46 201.248 1193.46 202.784C1193.46 203.648 1193.23 204.472 1192.79 205.256C1192.34 206.04 1191.51 207.048 1190.31 208.28L1186.38 212.288H1193.99V215H1182.51V212.6L1187.6 207.488ZM1200.39 201.968C1199.73 203.12 1199.41 204.632 1199.41 206.504C1199.41 208.376 1199.73 209.888 1200.39 211.04C1201.06 212.192 1202.1 212.768 1203.51 212.768C1204.92 212.768 1205.94 212.2 1206.58 211.064C1207.24 209.912 1207.57 208.392 1207.57 206.504C1207.57 204.616 1207.24 203.104 1206.58 201.968C1205.94 200.816 1204.92 200.24 1203.51 200.24C1202.1 200.24 1201.06 200.816 1200.39 201.968ZM1198.37 212.84C1197.24 211.256 1196.67 209.144 1196.67 206.504C1196.67 203.864 1197.24 201.76 1198.37 200.192C1199.51 198.608 1201.22 197.816 1203.51 197.816C1205.8 197.816 1207.51 198.608 1208.65 200.192C1209.78 201.76 1210.35 203.864 1210.35 206.504C1210.35 209.144 1209.78 211.256 1208.65 212.84C1207.51 214.408 1205.8 215.192 1203.51 215.192C1201.22 215.192 1199.51 214.408 1198.37 212.84ZM1212.47 198.224H1218.57V215H1215.88V200.744H1212.47V198.224ZM1227.3 212.648C1228.79 212.648 1229.89 212.144 1230.59 211.136C1231.29 210.128 1231.65 208.768 1231.67 207.056C1231.27 207.504 1230.69 207.928 1229.94 208.328C1229.19 208.712 1228.36 208.904 1227.45 208.904C1225.94 208.904 1224.68 208.408 1223.65 207.416C1222.65 206.408 1222.14 205.08 1222.14 203.432C1222.14 201.768 1222.69 200.432 1223.77 199.424C1224.88 198.416 1226.26 197.912 1227.93 197.912C1230.61 197.912 1232.47 199.112 1233.49 201.512C1234.07 202.888 1234.36 204.44 1234.36 206.168C1234.36 207.896 1234.17 209.336 1233.81 210.488C1233.44 211.64 1232.93 212.552 1232.29 213.224C1231.05 214.536 1229.51 215.192 1227.69 215.192C1225.88 215.192 1224.24 214.624 1222.77 213.488L1224.18 211.4C1224.55 211.72 1225.04 212.008 1225.65 212.264C1226.27 212.52 1226.82 212.648 1227.3 212.648ZM1227.81 206.408C1228.78 206.408 1229.59 206.144 1230.23 205.616C1230.89 205.072 1231.21 204.376 1231.21 203.528C1231.21 202.664 1230.9 201.928 1230.28 201.32C1229.65 200.696 1228.87 200.384 1227.93 200.384C1227 200.384 1226.23 200.664 1225.62 201.224C1225.01 201.768 1224.71 202.472 1224.71 203.336C1224.71 204.2 1224.98 204.928 1225.53 205.52C1226.09 206.112 1226.85 206.408 1227.81 206.408Z" fill="#006867"/>
<path d="M1798.91 198.224H1801.74V215H1798.67L1789.17 202.76V215H1786.34V198.224H1789.17L1798.91 210.752V198.224ZM1818.35 202.184C1817.21 201 1815.81 200.408 1814.15 200.408C1812.49 200.408 1811.08 201 1809.93 202.184C1808.79 203.368 1808.22 204.808 1808.22 206.504C1808.22 208.184 1808.79 209.616 1809.93 210.8C1811.08 211.984 1812.49 212.576 1814.15 212.576C1815.81 212.576 1817.21 211.984 1818.35 210.8C1819.5 209.616 1820.08 208.184 1820.08 206.504C1820.08 204.808 1819.5 203.368 1818.35 202.184ZM1820.44 212.696C1818.74 214.344 1816.65 215.168 1814.15 215.168C1811.65 215.168 1809.56 214.344 1807.86 212.696C1806.17 211.032 1805.32 208.968 1805.32 206.504C1805.32 204.024 1806.17 201.96 1807.86 200.312C1809.56 198.648 1811.65 197.816 1814.15 197.816C1816.65 197.816 1818.74 198.648 1820.44 200.312C1822.13 201.96 1822.98 204.024 1822.98 206.504C1822.98 208.968 1822.13 211.032 1820.44 212.696ZM1833.93 215H1830.76L1824.02 198.224H1827.19L1832.35 210.752L1837.51 198.224H1840.67L1833.93 215ZM1853.82 207.488C1854.95 206.336 1855.76 205.432 1856.24 204.776C1856.72 204.12 1856.96 203.456 1856.96 202.784C1856.96 202.112 1856.7 201.544 1856.19 201.08C1855.68 200.6 1855.03 200.36 1854.25 200.36C1852.87 200.36 1851.73 201.064 1850.82 202.472L1848.54 201.152C1849.27 200.048 1850.08 199.216 1850.96 198.656C1851.86 198.096 1853 197.816 1854.39 197.816C1855.8 197.816 1857.03 198.264 1858.09 199.16C1859.14 200.04 1859.67 201.248 1859.67 202.784C1859.67 203.648 1859.45 204.472 1859 205.256C1858.55 206.04 1857.73 207.048 1856.53 208.28L1852.59 212.288H1860.2V215H1848.73V212.6L1853.82 207.488ZM1866.6 201.968C1865.95 203.12 1865.62 204.632 1865.62 206.504C1865.62 208.376 1865.95 209.888 1866.6 211.04C1867.28 212.192 1868.32 212.768 1869.72 212.768C1871.13 212.768 1872.16 212.2 1872.8 211.064C1873.45 209.912 1873.78 208.392 1873.78 206.504C1873.78 204.616 1873.45 203.104 1872.8 201.968C1872.16 200.816 1871.13 200.24 1869.72 200.24C1868.32 200.24 1867.28 200.816 1866.6 201.968ZM1864.59 212.84C1863.45 211.256 1862.88 209.144 1862.88 206.504C1862.88 203.864 1863.45 201.76 1864.59 200.192C1865.72 198.608 1867.44 197.816 1869.72 197.816C1872.01 197.816 1873.72 198.608 1874.86 200.192C1876 201.76 1876.56 203.864 1876.56 206.504C1876.56 209.144 1876 211.256 1874.86 212.84C1873.72 214.408 1872.01 215.192 1869.72 215.192C1867.44 215.192 1865.72 214.408 1864.59 212.84ZM1878.69 198.224H1884.78V215H1882.1V200.744H1878.69V198.224ZM1893.52 212.648C1895 212.648 1896.1 212.144 1896.8 211.136C1897.51 210.128 1897.87 208.768 1897.88 207.056C1897.48 207.504 1896.91 207.928 1896.16 208.328C1895.4 208.712 1894.57 208.904 1893.66 208.904C1892.16 208.904 1890.89 208.408 1889.87 207.416C1888.86 206.408 1888.36 205.08 1888.36 203.432C1888.36 201.768 1888.9 200.432 1889.99 199.424C1891.09 198.416 1892.48 197.912 1894.14 197.912C1896.83 197.912 1898.68 199.112 1899.71 201.512C1900.28 202.888 1900.57 204.44 1900.57 206.168C1900.57 207.896 1900.39 209.336 1900.02 210.488C1899.65 211.64 1899.15 212.552 1898.51 213.224C1897.26 214.536 1895.72 215.192 1893.9 215.192C1892.09 215.192 1890.45 214.624 1888.98 213.488L1890.4 211.4C1890.76 211.72 1891.25 212.008 1891.86 212.264C1892.48 212.52 1893.04 212.648 1893.52 212.648ZM1894.02 206.408C1895 206.408 1895.8 206.144 1896.44 205.616C1897.1 205.072 1897.43 204.376 1897.43 203.528C1897.43 202.664 1897.12 201.928 1896.49 201.32C1895.87 200.696 1895.08 200.384 1894.14 200.384C1893.21 200.384 1892.44 200.664 1891.84 201.224C1891.23 201.768 1890.92 202.472 1890.92 203.336C1890.92 204.2 1891.2 204.928 1891.74 205.52C1892.3 206.112 1893.06 206.408 1894.02 206.408Z" fill="#006867"/>
<rect x="1266" y="773" width="568" height="103" rx="51.5" fill="#E20C77"/>
<path d="M1331.12 824.582C1331.12 827.918 1330.2 830.488 1328.36 832.293C1326.53 834.098 1323.95 835 1320.62 835H1314.16V815.012H1321.07C1324.28 815.012 1326.76 815.832 1328.5 817.473C1330.25 819.113 1331.12 821.483 1331.12 824.582ZM1325.52 824.773C1325.52 822.941 1325.15 821.583 1324.42 820.699C1323.7 819.815 1322.61 819.373 1321.13 819.373H1319.56V830.57H1320.76C1322.4 830.57 1323.6 830.096 1324.37 829.148C1325.13 828.191 1325.52 826.733 1325.52 824.773ZM1341.88 835.273C1339.3 835.273 1337.3 834.59 1335.87 833.223C1334.45 831.846 1333.73 829.891 1333.73 827.357C1333.73 824.742 1334.4 822.736 1335.72 821.342C1337.04 819.938 1338.93 819.236 1341.38 819.236C1343.71 819.236 1345.51 819.847 1346.78 821.068C1348.05 822.281 1348.69 824.031 1348.69 826.318V828.697H1339.13C1339.17 829.563 1339.49 830.242 1340.08 830.734C1340.68 831.227 1341.5 831.473 1342.53 831.473C1343.46 831.473 1344.33 831.386 1345.11 831.213C1345.9 831.031 1346.76 830.725 1347.68 830.297V834.139C1346.84 834.567 1345.98 834.863 1345.08 835.027C1344.19 835.191 1343.12 835.273 1341.88 835.273ZM1341.57 822.873C1340.94 822.873 1340.41 823.074 1339.98 823.475C1339.56 823.867 1339.32 824.486 1339.24 825.334H1343.84C1343.82 824.587 1343.61 823.99 1343.2 823.543C1342.79 823.096 1342.25 822.873 1341.57 822.873ZM1355.77 835L1349.87 819.51H1355.45L1358.07 828.67C1358.08 828.715 1358.1 828.793 1358.12 828.902C1358.15 829.012 1358.18 829.144 1358.21 829.299C1358.23 829.445 1358.26 829.604 1358.28 829.777C1358.3 829.941 1358.32 830.096 1358.32 830.242H1358.41C1358.41 829.768 1358.49 829.253 1358.66 828.697L1361.41 819.51H1366.97L1361.06 835H1355.77ZM1376.31 835.273C1373.73 835.273 1371.72 834.59 1370.29 833.223C1368.87 831.846 1368.16 829.891 1368.16 827.357C1368.16 824.742 1368.82 822.736 1370.14 821.342C1371.46 819.938 1373.35 819.236 1375.8 819.236C1378.14 819.236 1379.94 819.847 1381.2 821.068C1382.48 822.281 1383.12 824.031 1383.12 826.318V828.697H1373.56C1373.6 829.563 1373.91 830.242 1374.5 830.734C1375.11 831.227 1375.92 831.473 1376.95 831.473C1377.89 831.473 1378.75 831.386 1379.54 831.213C1380.33 831.031 1381.18 830.725 1382.11 830.297V834.139C1381.27 834.567 1380.4 834.863 1379.51 835.027C1378.61 835.191 1377.55 835.273 1376.31 835.273ZM1375.99 822.873C1375.37 822.873 1374.84 823.074 1374.41 823.475C1373.99 823.867 1373.74 824.486 1373.67 825.334H1378.26C1378.25 824.587 1378.03 823.99 1377.62 823.543C1377.22 823.096 1376.68 822.873 1375.99 822.873ZM1391.48 835H1386.14V813.727H1391.48V835ZM1409.98 827.221C1409.98 829.755 1409.3 831.732 1407.93 833.154C1406.57 834.567 1404.67 835.273 1402.22 835.273C1399.87 835.273 1397.99 834.549 1396.6 833.1C1395.21 831.65 1394.52 829.691 1394.52 827.221C1394.52 824.696 1395.2 822.736 1396.56 821.342C1397.92 819.938 1399.84 819.236 1402.3 819.236C1403.82 819.236 1405.17 819.56 1406.33 820.207C1407.5 820.854 1408.4 821.784 1409.03 822.996C1409.66 824.199 1409.98 825.607 1409.98 827.221ZM1399.95 827.221C1399.95 828.551 1400.12 829.568 1400.48 830.27C1400.84 830.962 1401.43 831.309 1402.27 831.309C1403.1 831.309 1403.68 830.962 1404.02 830.27C1404.37 829.568 1404.54 828.551 1404.54 827.221C1404.54 825.899 1404.37 824.901 1404.02 824.227C1403.68 823.552 1403.08 823.215 1402.24 823.215C1401.42 823.215 1400.84 823.552 1400.48 824.227C1400.12 824.892 1399.95 825.89 1399.95 827.221ZM1422.34 835.273C1421.56 835.273 1420.86 835.146 1420.24 834.891C1419.62 834.626 1419 834.157 1418.39 833.482H1418.14C1418.31 834.567 1418.39 835.242 1418.39 835.506V841.727H1413.04V819.51H1417.39L1418.14 821.479H1418.39C1419.38 819.984 1420.76 819.236 1422.51 819.236C1424.22 819.236 1425.56 819.947 1426.54 821.369C1427.51 822.791 1428 824.742 1428 827.221C1428 829.718 1427.49 831.687 1426.47 833.127C1425.46 834.558 1424.08 835.273 1422.34 835.273ZM1420.55 823.434C1419.77 823.434 1419.22 823.716 1418.9 824.281C1418.59 824.837 1418.42 825.667 1418.39 826.77V827.193C1418.39 828.524 1418.57 829.486 1418.92 830.078C1419.28 830.671 1419.84 830.967 1420.61 830.967C1421.29 830.967 1421.79 830.675 1422.1 830.092C1422.41 829.499 1422.56 828.524 1422.56 827.166C1422.56 825.835 1422.41 824.883 1422.1 824.309C1421.79 823.725 1421.27 823.434 1420.55 823.434ZM1450.08 835V826.578C1450.08 825.53 1449.94 824.746 1449.64 824.227C1449.36 823.698 1448.91 823.434 1448.29 823.434C1447.47 823.434 1446.87 823.785 1446.49 824.486C1446.1 825.188 1445.91 826.286 1445.91 827.781V835H1440.55V826.578C1440.55 825.53 1440.42 824.746 1440.14 824.227C1439.87 823.698 1439.43 823.434 1438.82 823.434C1437.98 823.434 1437.37 823.807 1436.98 824.555C1436.6 825.302 1436.41 826.523 1436.41 828.219V835H1431.06V819.51H1435.1L1435.77 821.424H1436.08C1436.49 820.713 1437.08 820.171 1437.86 819.797C1438.64 819.423 1439.53 819.236 1440.53 819.236C1442.76 819.236 1444.33 819.915 1445.23 821.273H1445.65C1446.09 820.635 1446.7 820.139 1447.47 819.783C1448.25 819.419 1449.12 819.236 1450.05 819.236C1451.89 819.236 1453.24 819.706 1454.12 820.645C1454.99 821.583 1455.43 823.01 1455.43 824.924V835H1450.08ZM1466.54 835.273C1463.96 835.273 1461.96 834.59 1460.53 833.223C1459.11 831.846 1458.39 829.891 1458.39 827.357C1458.39 824.742 1459.06 822.736 1460.38 821.342C1461.7 819.938 1463.59 819.236 1466.04 819.236C1468.37 819.236 1470.17 819.847 1471.44 821.068C1472.71 822.281 1473.35 824.031 1473.35 826.318V828.697H1463.79C1463.83 829.563 1464.15 830.242 1464.74 830.734C1465.34 831.227 1466.16 831.473 1467.19 831.473C1468.12 831.473 1468.99 831.386 1469.77 831.213C1470.56 831.031 1471.42 830.725 1472.34 830.297V834.139C1471.5 834.567 1470.64 834.863 1469.74 835.027C1468.85 835.191 1467.78 835.273 1466.54 835.273ZM1466.23 822.873C1465.6 822.873 1465.07 823.074 1464.64 823.475C1464.22 823.867 1463.98 824.486 1463.9 825.334H1468.5C1468.48 824.587 1468.27 823.99 1467.86 823.543C1467.45 823.096 1466.91 822.873 1466.23 822.873ZM1486.15 835V826.551C1486.15 825.521 1486 824.746 1485.7 824.227C1485.41 823.698 1484.93 823.434 1484.28 823.434C1483.37 823.434 1482.72 823.794 1482.32 824.514C1481.92 825.234 1481.72 826.469 1481.72 828.219V835H1476.37V819.51H1480.41L1481.08 821.424H1481.39C1481.85 820.695 1482.48 820.148 1483.28 819.783C1484.09 819.419 1485.02 819.236 1486.07 819.236C1487.78 819.236 1489.11 819.733 1490.06 820.727C1491.02 821.72 1491.49 823.119 1491.49 824.924V835H1486.15ZM1502.72 831.049C1503.44 831.049 1504.3 830.871 1505.3 830.516V834.412C1504.58 834.722 1503.89 834.941 1503.24 835.068C1502.59 835.205 1501.83 835.273 1500.96 835.273C1499.16 835.273 1497.87 834.836 1497.07 833.961C1496.28 833.077 1495.88 831.723 1495.88 829.9V823.516H1494.01V821.342L1496.39 819.66L1497.77 816.406H1501.27V819.51H1505.07V823.516H1501.27V829.545C1501.27 830.548 1501.75 831.049 1502.72 831.049Z" fill="white"/>
<rect x="820" y="773" width="416" height="103" rx="51.5" fill="#E20C77"/>
<path d="M867.23 828.93C867.23 830.169 866.916 831.272 866.287 832.238C865.658 833.195 864.751 833.943 863.566 834.48C862.382 835.009 860.992 835.273 859.396 835.273C858.066 835.273 856.949 835.182 856.047 835C855.145 834.809 854.206 834.48 853.23 834.016V829.203C854.26 829.732 855.331 830.146 856.443 830.447C857.555 830.739 858.576 830.885 859.506 830.885C860.308 830.885 860.896 830.748 861.27 830.475C861.643 830.192 861.83 829.832 861.83 829.395C861.83 829.121 861.753 828.884 861.598 828.684C861.452 828.474 861.21 828.264 860.873 828.055C860.545 827.845 859.661 827.417 858.221 826.77C856.917 826.177 855.938 825.603 855.281 825.047C854.634 824.491 854.151 823.853 853.832 823.133C853.522 822.413 853.367 821.561 853.367 820.576C853.367 818.735 854.037 817.299 855.377 816.27C856.717 815.24 858.558 814.725 860.9 814.725C862.969 814.725 865.079 815.203 867.23 816.16L865.576 820.33C863.708 819.473 862.094 819.045 860.736 819.045C860.035 819.045 859.524 819.168 859.205 819.414C858.886 819.66 858.727 819.965 858.727 820.33C858.727 820.722 858.927 821.073 859.328 821.383C859.738 821.693 860.841 822.258 862.637 823.078C864.359 823.853 865.553 824.687 866.219 825.58C866.893 826.464 867.23 827.581 867.23 828.93ZM877.061 835.273C874.527 835.273 872.604 834.59 871.291 833.223C869.988 831.855 869.336 829.891 869.336 827.33C869.336 824.76 870.042 822.768 871.455 821.355C872.868 819.943 874.878 819.236 877.484 819.236C879.28 819.236 880.971 819.628 882.557 820.412L880.984 824.363C880.337 824.081 879.74 823.857 879.193 823.693C878.646 823.52 878.077 823.434 877.484 823.434C876.618 823.434 875.949 823.771 875.475 824.445C875.001 825.12 874.764 826.072 874.764 827.303C874.764 829.782 875.68 831.021 877.512 831.021C879.079 831.021 880.583 830.566 882.023 829.654V833.906C880.647 834.818 878.993 835.273 877.061 835.273ZM899.893 827.221C899.893 829.755 899.209 831.732 897.842 833.154C896.484 834.567 894.579 835.273 892.127 835.273C889.775 835.273 887.902 834.549 886.508 833.1C885.122 831.65 884.43 829.691 884.43 827.221C884.43 824.696 885.109 822.736 886.467 821.342C887.834 819.938 889.748 819.236 892.209 819.236C893.731 819.236 895.076 819.56 896.242 820.207C897.409 820.854 898.307 821.784 898.936 822.996C899.574 824.199 899.893 825.607 899.893 827.221ZM889.857 827.221C889.857 828.551 890.035 829.568 890.391 830.27C890.746 830.962 891.343 831.309 892.182 831.309C893.011 831.309 893.594 830.962 893.932 830.27C894.278 829.568 894.451 828.551 894.451 827.221C894.451 825.899 894.278 824.901 893.932 824.227C893.585 823.552 892.993 823.215 892.154 823.215C891.334 823.215 890.746 823.552 890.391 824.227C890.035 824.892 889.857 825.89 889.857 827.221ZM912.252 835.273C911.468 835.273 910.766 835.146 910.146 834.891C909.527 834.626 908.911 834.157 908.301 833.482H908.055C908.219 834.567 908.301 835.242 908.301 835.506V841.727H902.955V819.51H907.303L908.055 821.479H908.301C909.294 819.984 910.666 819.236 912.416 819.236C914.13 819.236 915.474 819.947 916.449 821.369C917.424 822.791 917.912 824.742 917.912 827.221C917.912 829.718 917.402 831.687 916.381 833.127C915.369 834.558 913.993 835.273 912.252 835.273ZM910.461 823.434C909.677 823.434 909.126 823.716 908.807 824.281C908.497 824.837 908.328 825.667 908.301 826.77V827.193C908.301 828.524 908.479 829.486 908.834 830.078C909.189 830.671 909.75 830.967 910.516 830.967C911.199 830.967 911.696 830.675 912.006 830.092C912.316 829.499 912.471 828.524 912.471 827.166C912.471 825.835 912.316 824.883 912.006 824.309C911.696 823.725 911.181 823.434 910.461 823.434ZM928.453 835.273C925.874 835.273 923.868 834.59 922.438 833.223C921.016 831.846 920.305 829.891 920.305 827.357C920.305 824.742 920.965 822.736 922.287 821.342C923.609 819.938 925.495 819.236 927.947 819.236C930.281 819.236 932.081 819.847 933.348 821.068C934.624 822.281 935.262 824.031 935.262 826.318V828.697H925.705C925.742 829.563 926.056 830.242 926.648 830.734C927.25 831.227 928.066 831.473 929.096 831.473C930.035 831.473 930.896 831.386 931.68 831.213C932.473 831.031 933.329 830.725 934.25 830.297V834.139C933.411 834.567 932.546 834.863 931.652 835.027C930.759 835.191 929.693 835.273 928.453 835.273ZM928.139 822.873C927.51 822.873 926.981 823.074 926.553 823.475C926.133 823.867 925.887 824.486 925.814 825.334H930.408C930.39 824.587 930.176 823.99 929.766 823.543C929.365 823.096 928.822 822.873 928.139 822.873ZM954.293 835.273C952.497 835.273 951.089 834.622 950.068 833.318H949.85C949.995 834.594 950.068 835.333 950.068 835.533V841.727H945.898V819.715H949.289L949.877 821.697H950.068C951.044 820.184 952.488 819.428 954.402 819.428C956.207 819.428 957.62 820.125 958.641 821.52C959.661 822.914 960.172 824.851 960.172 827.33C960.172 828.962 959.93 830.379 959.447 831.582C958.973 832.785 958.294 833.701 957.41 834.33C956.526 834.959 955.487 835.273 954.293 835.273ZM953.062 822.764C952.033 822.764 951.281 823.083 950.807 823.721C950.333 824.35 950.087 825.393 950.068 826.852V827.303C950.068 828.943 950.31 830.119 950.793 830.83C951.285 831.541 952.06 831.896 953.117 831.896C954.986 831.896 955.92 830.356 955.92 827.275C955.92 825.771 955.688 824.646 955.223 823.898C954.767 823.142 954.047 822.764 953.062 822.764ZM972.148 819.428C972.714 819.428 973.183 819.469 973.557 819.551L973.242 823.461C972.905 823.37 972.495 823.324 972.012 823.324C970.681 823.324 969.642 823.666 968.895 824.35C968.156 825.033 967.787 825.99 967.787 827.221V835H963.617V819.715H966.775L967.391 822.285H967.596C968.07 821.428 968.708 820.74 969.51 820.221C970.321 819.692 971.201 819.428 972.148 819.428ZM979.654 827.33C979.654 828.843 979.9 829.987 980.393 830.762C980.894 831.536 981.705 831.924 982.826 831.924C983.938 831.924 984.736 831.541 985.219 830.775C985.711 830.001 985.957 828.852 985.957 827.33C985.957 825.817 985.711 824.682 985.219 823.926C984.727 823.169 983.92 822.791 982.799 822.791C981.687 822.791 980.885 823.169 980.393 823.926C979.9 824.673 979.654 825.808 979.654 827.33ZM990.223 827.33C990.223 829.818 989.566 831.764 988.254 833.168C986.941 834.572 985.114 835.273 982.771 835.273C981.304 835.273 980.01 834.954 978.889 834.316C977.768 833.669 976.906 832.744 976.305 831.541C975.703 830.338 975.402 828.934 975.402 827.33C975.402 824.833 976.054 822.891 977.357 821.506C978.661 820.12 980.493 819.428 982.854 819.428C984.321 819.428 985.615 819.747 986.736 820.385C987.857 821.023 988.719 821.939 989.32 823.133C989.922 824.327 990.223 825.726 990.223 827.33ZM992.438 841.727C991.371 841.727 990.455 841.613 989.689 841.385V838.104C990.327 838.277 990.979 838.363 991.645 838.363C992.346 838.363 992.857 838.167 993.176 837.775C993.504 837.383 993.668 836.805 993.668 836.039V819.715H997.838V836.654C997.838 838.277 997.368 839.525 996.43 840.4C995.491 841.285 994.16 841.727 992.438 841.727ZM993.49 815.764C993.49 814.406 994.247 813.727 995.76 813.727C997.273 813.727 998.029 814.406 998.029 815.764C998.029 816.411 997.838 816.917 997.455 817.281C997.081 817.637 996.516 817.814 995.76 817.814C994.247 817.814 993.49 817.131 993.49 815.764ZM1008.56 822.395C1007.67 822.395 1006.98 822.677 1006.48 823.242C1005.98 823.798 1005.69 824.591 1005.62 825.621H1011.47C1011.45 824.591 1011.18 823.798 1010.66 823.242C1010.14 822.677 1009.44 822.395 1008.56 822.395ZM1009.14 835.273C1006.68 835.273 1004.76 834.594 1003.38 833.236C1001.99 831.878 1001.3 829.955 1001.3 827.467C1001.3 824.906 1001.93 822.928 1003.21 821.533C1004.5 820.13 1006.27 819.428 1008.53 819.428C1010.69 819.428 1012.37 820.043 1013.57 821.273C1014.78 822.504 1015.38 824.204 1015.38 826.373V828.396H1005.52C1005.57 829.581 1005.92 830.507 1006.57 831.172C1007.23 831.837 1008.15 832.17 1009.34 832.17C1010.26 832.17 1011.13 832.074 1011.95 831.883C1012.77 831.691 1013.62 831.386 1014.52 830.967V834.193C1013.79 834.558 1013.01 834.827 1012.18 835C1011.35 835.182 1010.34 835.273 1009.14 835.273ZM1024.98 835.273C1020.22 835.273 1017.84 832.662 1017.84 827.439C1017.84 824.842 1018.49 822.859 1019.78 821.492C1021.08 820.116 1022.93 819.428 1025.35 819.428C1027.11 819.428 1028.7 819.774 1030.1 820.467L1028.87 823.693C1028.22 823.429 1027.61 823.215 1027.04 823.051C1026.48 822.878 1025.91 822.791 1025.35 822.791C1023.18 822.791 1022.09 824.331 1022.09 827.412C1022.09 830.402 1023.18 831.896 1025.35 831.896C1026.15 831.896 1026.89 831.792 1027.57 831.582C1028.26 831.363 1028.94 831.026 1029.62 830.57V834.139C1028.95 834.567 1028.27 834.863 1027.57 835.027C1026.89 835.191 1026.02 835.273 1024.98 835.273ZM1039.62 831.951C1040.35 831.951 1041.22 831.792 1042.24 831.473V834.576C1041.21 835.041 1039.93 835.273 1038.42 835.273C1036.75 835.273 1035.53 834.854 1034.77 834.016C1034.01 833.168 1033.63 831.901 1033.63 830.215V822.846H1031.63V821.082L1033.93 819.688L1035.13 816.461H1037.8V819.715H1042.08V822.846H1037.8V830.215C1037.8 830.807 1037.96 831.245 1038.29 831.527C1038.63 831.81 1039.07 831.951 1039.62 831.951ZM1062.33 835L1061.52 832.922H1061.41C1060.71 833.806 1059.99 834.421 1059.24 834.768C1058.5 835.105 1057.53 835.273 1056.34 835.273C1054.87 835.273 1053.71 834.854 1052.87 834.016C1052.03 833.177 1051.61 831.983 1051.61 830.434C1051.61 828.811 1052.17 827.617 1053.3 826.852C1054.44 826.077 1056.16 825.648 1058.45 825.566L1061.1 825.484V824.814C1061.1 823.265 1060.3 822.49 1058.72 822.49C1057.5 822.49 1056.06 822.859 1054.41 823.598L1053.03 820.781C1054.79 819.861 1056.74 819.4 1058.88 819.4C1060.93 819.4 1062.51 819.847 1063.6 820.74C1064.69 821.633 1065.24 822.992 1065.24 824.814V835H1062.33ZM1061.1 827.918L1059.48 827.973C1058.27 828.009 1057.37 828.228 1056.78 828.629C1056.18 829.03 1055.89 829.641 1055.89 830.461C1055.89 831.637 1056.56 832.225 1057.91 832.225C1058.88 832.225 1059.65 831.947 1060.22 831.391C1060.81 830.835 1061.1 830.096 1061.1 829.176V827.918ZM1083.66 835H1079.49V826.072C1079.49 824.969 1079.29 824.145 1078.9 823.598C1078.51 823.042 1077.88 822.764 1077.03 822.764C1075.86 822.764 1075.02 823.156 1074.5 823.939C1073.98 824.714 1073.72 826.004 1073.72 827.809V835H1069.55V819.715H1072.73L1073.29 821.67H1073.53C1073.99 820.932 1074.63 820.376 1075.44 820.002C1076.26 819.619 1077.19 819.428 1078.23 819.428C1080.01 819.428 1081.35 819.911 1082.28 820.877C1083.2 821.834 1083.66 823.219 1083.66 825.033V835ZM1092.79 835.273C1090.99 835.273 1089.58 834.576 1088.55 833.182C1087.53 831.787 1087.02 829.855 1087.02 827.385C1087.02 824.878 1087.54 822.928 1088.58 821.533C1089.63 820.13 1091.07 819.428 1092.9 819.428C1094.82 819.428 1096.29 820.175 1097.3 821.67H1097.44C1097.23 820.531 1097.12 819.514 1097.12 818.621V813.727H1101.31V835H1098.11L1097.3 833.018H1097.12C1096.18 834.521 1094.73 835.273 1092.79 835.273ZM1094.25 831.951C1095.32 831.951 1096.1 831.641 1096.59 831.021C1097.09 830.402 1097.36 829.349 1097.41 827.863V827.412C1097.41 825.771 1097.15 824.596 1096.64 823.885C1096.14 823.174 1095.32 822.818 1094.18 822.818C1093.25 822.818 1092.53 823.215 1092.01 824.008C1091.5 824.792 1091.24 825.936 1091.24 827.439C1091.24 828.943 1091.5 830.074 1092.02 830.83C1092.54 831.577 1093.29 831.951 1094.25 831.951ZM1126.24 819.715V821.834L1123.85 822.449C1124.29 823.133 1124.51 823.898 1124.51 824.746C1124.51 826.387 1123.93 827.667 1122.79 828.588C1121.65 829.499 1120.06 829.955 1118.03 829.955L1117.28 829.914L1116.66 829.846C1116.23 830.174 1116.02 830.538 1116.02 830.939C1116.02 831.541 1116.78 831.842 1118.31 831.842H1120.91C1122.59 831.842 1123.87 832.202 1124.74 832.922C1125.62 833.642 1126.07 834.699 1126.07 836.094C1126.07 837.88 1125.32 839.266 1123.82 840.25C1122.34 841.234 1120.2 841.727 1117.41 841.727C1115.28 841.727 1113.65 841.353 1112.52 840.605C1111.4 839.867 1110.84 838.828 1110.84 837.488C1110.84 836.568 1111.12 835.798 1111.7 835.178C1112.27 834.558 1113.11 834.116 1114.23 833.852C1113.8 833.669 1113.42 833.373 1113.11 832.963C1112.79 832.544 1112.63 832.102 1112.63 831.637C1112.63 831.053 1112.8 830.57 1113.13 830.188C1113.47 829.796 1113.96 829.413 1114.6 829.039C1113.79 828.693 1113.16 828.137 1112.68 827.371C1112.22 826.605 1111.98 825.703 1111.98 824.664C1111.98 822.996 1112.53 821.706 1113.61 820.795C1114.7 819.883 1116.25 819.428 1118.26 819.428C1118.69 819.428 1119.19 819.469 1119.78 819.551C1120.37 819.624 1120.75 819.678 1120.91 819.715H1126.24ZM1114.45 837.16C1114.45 837.734 1114.72 838.186 1115.27 838.514C1115.82 838.842 1116.6 839.006 1117.59 839.006C1119.08 839.006 1120.26 838.801 1121.1 838.391C1121.95 837.98 1122.38 837.42 1122.38 836.709C1122.38 836.135 1122.12 835.738 1121.62 835.52C1121.12 835.301 1120.35 835.191 1119.3 835.191H1117.14C1116.37 835.191 1115.73 835.369 1115.21 835.725C1114.7 836.089 1114.45 836.568 1114.45 837.16ZM1115.96 824.719C1115.96 825.548 1116.15 826.204 1116.52 826.688C1116.91 827.171 1117.49 827.412 1118.26 827.412C1119.04 827.412 1119.62 827.171 1119.98 826.688C1120.35 826.204 1120.53 825.548 1120.53 824.719C1120.53 822.878 1119.77 821.957 1118.26 821.957C1116.73 821.957 1115.96 822.878 1115.96 824.719ZM1137.3 819.428C1137.87 819.428 1138.34 819.469 1138.71 819.551L1138.4 823.461C1138.06 823.37 1137.65 823.324 1137.17 823.324C1135.84 823.324 1134.8 823.666 1134.05 824.35C1133.31 825.033 1132.94 825.99 1132.94 827.221V835H1128.77V819.715H1131.93L1132.55 822.285H1132.75C1133.23 821.428 1133.86 820.74 1134.67 820.221C1135.48 819.692 1136.36 819.428 1137.3 819.428ZM1144.81 827.33C1144.81 828.843 1145.06 829.987 1145.55 830.762C1146.05 831.536 1146.86 831.924 1147.98 831.924C1149.09 831.924 1149.89 831.541 1150.38 830.775C1150.87 830.001 1151.11 828.852 1151.11 827.33C1151.11 825.817 1150.87 824.682 1150.38 823.926C1149.88 823.169 1149.08 822.791 1147.96 822.791C1146.84 822.791 1146.04 823.169 1145.55 823.926C1145.06 824.673 1144.81 825.808 1144.81 827.33ZM1155.38 827.33C1155.38 829.818 1154.72 831.764 1153.41 833.168C1152.1 834.572 1150.27 835.273 1147.93 835.273C1146.46 835.273 1145.17 834.954 1144.04 834.316C1142.92 833.669 1142.06 832.744 1141.46 831.541C1140.86 830.338 1140.56 828.934 1140.56 827.33C1140.56 824.833 1141.21 822.891 1142.51 821.506C1143.82 820.12 1145.65 819.428 1148.01 819.428C1149.48 819.428 1150.77 819.747 1151.89 820.385C1153.01 821.023 1153.88 821.939 1154.48 823.133C1155.08 824.327 1155.38 825.726 1155.38 827.33ZM1162.15 827.33C1162.15 828.843 1162.39 829.987 1162.88 830.762C1163.39 831.536 1164.2 831.924 1165.32 831.924C1166.43 831.924 1167.23 831.541 1167.71 830.775C1168.2 830.001 1168.45 828.852 1168.45 827.33C1168.45 825.817 1168.2 824.682 1167.71 823.926C1167.22 823.169 1166.41 822.791 1165.29 822.791C1164.18 822.791 1163.38 823.169 1162.88 823.926C1162.39 824.673 1162.15 825.808 1162.15 827.33ZM1172.71 827.33C1172.71 829.818 1172.06 831.764 1170.75 833.168C1169.43 834.572 1167.61 835.273 1165.26 835.273C1163.8 835.273 1162.5 834.954 1161.38 834.316C1160.26 833.669 1159.4 832.744 1158.8 831.541C1158.2 830.338 1157.89 828.934 1157.89 827.33C1157.89 824.833 1158.55 822.891 1159.85 821.506C1161.15 820.12 1162.99 819.428 1165.35 819.428C1166.81 819.428 1168.11 819.747 1169.23 820.385C1170.35 821.023 1171.21 821.939 1171.81 823.133C1172.41 824.327 1172.71 825.726 1172.71 827.33ZM1189.85 835H1185.68V826.072C1185.68 824.969 1185.49 824.145 1185.12 823.598C1184.75 823.042 1184.17 822.764 1183.38 822.764C1182.31 822.764 1181.54 823.156 1181.05 823.939C1180.57 824.723 1180.33 826.013 1180.33 827.809V835H1176.16V819.715H1179.35L1179.91 821.67H1180.14C1180.55 820.968 1181.14 820.421 1181.92 820.029C1182.69 819.628 1183.58 819.428 1184.58 819.428C1186.87 819.428 1188.42 820.175 1189.23 821.67H1189.6C1190.01 820.959 1190.61 820.408 1191.4 820.016C1192.21 819.624 1193.11 819.428 1194.11 819.428C1195.84 819.428 1197.15 819.874 1198.04 820.768C1198.93 821.652 1199.38 823.074 1199.38 825.033V835H1195.19V826.072C1195.19 824.969 1195 824.145 1194.63 823.598C1194.27 823.042 1193.69 822.764 1192.89 822.764C1191.87 822.764 1191.11 823.128 1190.6 823.857C1190.1 824.587 1189.85 825.744 1189.85 827.33V835Z" fill="white"/>
<rect x="1579" y="924" width="261" height="103" rx="51.5" fill="#E20C77"/>
<path d="M1709.24 975.979C1709.24 978.33 1708.83 980.303 1707.99 981.898C1707.16 983.484 1705.94 984.646 1704.32 985.385L1709.14 990.758H1703.71L1700.04 986.273H1699.73C1696.67 986.273 1694.32 985.385 1692.67 983.607C1691.03 981.83 1690.21 979.278 1690.21 975.951C1690.21 972.624 1691.03 970.086 1692.67 968.336C1694.32 966.577 1696.69 965.697 1699.76 965.697C1702.83 965.697 1705.18 966.581 1706.8 968.35C1708.43 970.118 1709.24 972.661 1709.24 975.979ZM1694.66 975.979C1694.66 978.212 1695.08 979.893 1695.93 981.023C1696.78 982.154 1698.04 982.719 1699.73 982.719C1703.11 982.719 1704.8 980.472 1704.8 975.979C1704.8 971.476 1703.12 969.225 1699.76 969.225C1698.07 969.225 1696.8 969.794 1695.94 970.934C1695.09 972.064 1694.66 973.745 1694.66 975.979ZM1725.62 986L1724.17 981.242H1716.89L1715.44 986H1710.87L1717.93 965.93H1723.11L1730.19 986H1725.62ZM1723.16 977.688C1721.82 973.376 1721.07 970.938 1720.89 970.373C1720.73 969.808 1720.61 969.361 1720.54 969.033C1720.24 970.2 1719.38 973.085 1717.95 977.688H1723.16Z" fill="white"/>
<rect x="1856" y="773" width="261" height="103" rx="51.5" fill="#E20C77"/>
<path d="M1943.23 835L1941.78 830.242H1934.5L1933.05 835H1928.48L1935.54 814.93H1940.72L1947.8 835H1943.23ZM1940.77 826.688C1939.43 822.376 1938.68 819.938 1938.5 819.373C1938.34 818.808 1938.22 818.361 1938.15 818.033C1937.85 819.2 1936.99 822.085 1935.56 826.688H1940.77ZM1959.24 815.012L1951.79 835H1948L1955.46 815.012H1959.24ZM1961.9 815.012H1968.12C1970.95 815.012 1973.01 815.417 1974.28 816.229C1975.57 817.031 1976.21 818.311 1976.21 820.07C1976.21 821.264 1975.93 822.244 1975.36 823.01C1974.81 823.775 1974.06 824.236 1973.13 824.391V824.527C1974.4 824.81 1975.31 825.339 1975.87 826.113C1976.43 826.888 1976.72 827.918 1976.72 829.203C1976.72 831.026 1976.05 832.448 1974.73 833.469C1973.42 834.49 1971.63 835 1969.37 835H1961.9V815.012ZM1966.13 822.928H1968.59C1969.74 822.928 1970.57 822.75 1971.08 822.395C1971.6 822.039 1971.86 821.451 1971.86 820.631C1971.86 819.865 1971.58 819.318 1971.01 818.99C1970.46 818.653 1969.57 818.484 1968.36 818.484H1966.13V822.928ZM1966.13 826.291V831.5H1968.9C1970.06 831.5 1970.92 831.277 1971.48 830.83C1972.04 830.383 1972.31 829.7 1972.31 828.779C1972.31 827.12 1971.13 826.291 1968.76 826.291H1966.13ZM1995.69 835H1991.45V818.539H1986.03V815.012H2001.12V818.539H1995.69V835ZM2010.2 822.395C2009.31 822.395 2008.62 822.677 2008.12 823.242C2007.62 823.798 2007.33 824.591 2007.26 825.621H2013.11C2013.09 824.591 2012.82 823.798 2012.3 823.242C2011.78 822.677 2011.08 822.395 2010.2 822.395ZM2010.79 835.273C2008.32 835.273 2006.4 834.594 2005.02 833.236C2003.63 831.878 2002.94 829.955 2002.94 827.467C2002.94 824.906 2003.58 822.928 2004.85 821.533C2006.14 820.13 2007.91 819.428 2010.17 819.428C2012.33 819.428 2014.01 820.043 2015.22 821.273C2016.42 822.504 2017.02 824.204 2017.02 826.373V828.396H2007.16C2007.21 829.581 2007.56 830.507 2008.22 831.172C2008.87 831.837 2009.79 832.17 2010.98 832.17C2011.9 832.17 2012.77 832.074 2013.59 831.883C2014.41 831.691 2015.27 831.386 2016.16 830.967V834.193C2015.43 834.558 2014.65 834.827 2013.82 835C2012.99 835.182 2011.98 835.273 2010.79 835.273ZM2031.07 830.461C2031.07 832.029 2030.53 833.223 2029.43 834.043C2028.35 834.863 2026.72 835.273 2024.55 835.273C2023.44 835.273 2022.49 835.196 2021.71 835.041C2020.93 834.895 2020.19 834.676 2019.51 834.385V830.939C2020.28 831.304 2021.15 831.609 2022.12 831.855C2023.1 832.102 2023.95 832.225 2024.69 832.225C2026.2 832.225 2026.96 831.787 2026.96 830.912C2026.96 830.584 2026.86 830.32 2026.66 830.119C2026.46 829.91 2026.11 829.677 2025.62 829.422C2025.13 829.158 2024.47 828.852 2023.65 828.506C2022.48 828.014 2021.61 827.558 2021.05 827.139C2020.51 826.719 2020.11 826.241 2019.85 825.703C2019.6 825.156 2019.48 824.486 2019.48 823.693C2019.48 822.335 2020.01 821.287 2021.05 820.549C2022.11 819.801 2023.61 819.428 2025.54 819.428C2027.38 819.428 2029.17 819.829 2030.91 820.631L2029.65 823.639C2028.89 823.311 2028.17 823.042 2027.51 822.832C2026.84 822.622 2026.16 822.518 2025.47 822.518C2024.24 822.518 2023.62 822.85 2023.62 823.516C2023.62 823.889 2023.82 824.213 2024.21 824.486C2024.61 824.76 2025.48 825.165 2026.82 825.703C2028.02 826.186 2028.89 826.637 2029.45 827.057C2030 827.476 2030.41 827.959 2030.68 828.506C2030.94 829.053 2031.07 829.704 2031.07 830.461ZM2040.77 831.951C2041.5 831.951 2042.37 831.792 2043.39 831.473V834.576C2042.35 835.041 2041.08 835.273 2039.57 835.273C2037.9 835.273 2036.68 834.854 2035.91 834.016C2035.16 833.168 2034.78 831.901 2034.78 830.215V822.846H2032.78V821.082L2035.08 819.688L2036.28 816.461H2038.95V819.715H2043.23V822.846H2038.95V830.215C2038.95 830.807 2039.11 831.245 2039.44 831.527C2039.78 831.81 2040.22 831.951 2040.77 831.951Z" fill="white"/>
<rect x="147" y="418" width="416" height="103" rx="51.5" fill="#057EC1"/>
<rect x="147" y="418" width="416" height="103" rx="51.5" fill="#008180"/>
<path d="M214.1 469.814C214.1 473.105 213.161 475.625 211.283 477.375C209.415 479.125 206.712 480 203.176 480H197.516V460.012H203.791C207.054 460.012 209.588 460.873 211.393 462.596C213.197 464.318 214.1 466.725 214.1 469.814ZM209.697 469.924C209.697 465.631 207.801 463.484 204.01 463.484H201.754V476.5H203.572C207.656 476.5 209.697 474.308 209.697 469.924ZM217.736 460.764C217.736 459.406 218.493 458.727 220.006 458.727C221.519 458.727 222.275 459.406 222.275 460.764C222.275 461.411 222.084 461.917 221.701 462.281C221.327 462.637 220.762 462.814 220.006 462.814C218.493 462.814 217.736 462.131 217.736 460.764ZM222.084 480H217.914V464.715H222.084V480ZM237.137 475.461C237.137 477.029 236.59 478.223 235.496 479.043C234.411 479.863 232.785 480.273 230.615 480.273C229.503 480.273 228.555 480.196 227.771 480.041C226.988 479.895 226.254 479.676 225.57 479.385V475.939C226.345 476.304 227.215 476.609 228.182 476.855C229.157 477.102 230.014 477.225 230.752 477.225C232.265 477.225 233.021 476.787 233.021 475.912C233.021 475.584 232.921 475.32 232.721 475.119C232.52 474.91 232.174 474.677 231.682 474.422C231.189 474.158 230.533 473.852 229.713 473.506C228.537 473.014 227.671 472.558 227.115 472.139C226.568 471.719 226.167 471.241 225.912 470.703C225.666 470.156 225.543 469.486 225.543 468.693C225.543 467.335 226.067 466.287 227.115 465.549C228.173 464.801 229.667 464.428 231.6 464.428C233.441 464.428 235.232 464.829 236.973 465.631L235.715 468.639C234.949 468.311 234.234 468.042 233.568 467.832C232.903 467.622 232.224 467.518 231.531 467.518C230.301 467.518 229.686 467.85 229.686 468.516C229.686 468.889 229.882 469.213 230.273 469.486C230.674 469.76 231.545 470.165 232.885 470.703C234.079 471.186 234.954 471.637 235.51 472.057C236.066 472.476 236.476 472.959 236.74 473.506C237.005 474.053 237.137 474.704 237.137 475.461ZM246.598 480.273C241.84 480.273 239.461 477.662 239.461 472.439C239.461 469.842 240.108 467.859 241.402 466.492C242.697 465.116 244.551 464.428 246.967 464.428C248.735 464.428 250.321 464.774 251.725 465.467L250.494 468.693C249.838 468.429 249.227 468.215 248.662 468.051C248.097 467.878 247.532 467.791 246.967 467.791C244.798 467.791 243.713 469.331 243.713 472.412C243.713 475.402 244.798 476.896 246.967 476.896C247.769 476.896 248.512 476.792 249.195 476.582C249.879 476.363 250.562 476.026 251.246 475.57V479.139C250.572 479.567 249.888 479.863 249.195 480.027C248.512 480.191 247.646 480.273 246.598 480.273ZM258.123 472.33C258.123 473.843 258.369 474.987 258.861 475.762C259.363 476.536 260.174 476.924 261.295 476.924C262.407 476.924 263.204 476.541 263.688 475.775C264.18 475.001 264.426 473.852 264.426 472.33C264.426 470.817 264.18 469.682 263.688 468.926C263.195 468.169 262.389 467.791 261.268 467.791C260.156 467.791 259.354 468.169 258.861 468.926C258.369 469.673 258.123 470.808 258.123 472.33ZM268.691 472.33C268.691 474.818 268.035 476.764 266.723 478.168C265.41 479.572 263.583 480.273 261.24 480.273C259.773 480.273 258.479 479.954 257.357 479.316C256.236 478.669 255.375 477.744 254.773 476.541C254.172 475.338 253.871 473.934 253.871 472.33C253.871 469.833 254.523 467.891 255.826 466.506C257.13 465.12 258.962 464.428 261.322 464.428C262.79 464.428 264.084 464.747 265.205 465.385C266.326 466.023 267.188 466.939 267.789 468.133C268.391 469.327 268.691 470.726 268.691 472.33ZM275.773 480L269.949 464.715H274.311L277.264 473.424C277.592 474.527 277.797 475.57 277.879 476.555H277.961C278.007 475.68 278.212 474.636 278.576 473.424L281.516 464.715H285.877L280.053 480H275.773ZM294.408 467.395C293.524 467.395 292.831 467.677 292.33 468.242C291.829 468.798 291.542 469.591 291.469 470.621H297.32C297.302 469.591 297.033 468.798 296.514 468.242C295.994 467.677 295.292 467.395 294.408 467.395ZM294.996 480.273C292.535 480.273 290.612 479.594 289.227 478.236C287.841 476.878 287.148 474.955 287.148 472.467C287.148 469.906 287.786 467.928 289.062 466.533C290.348 465.13 292.12 464.428 294.381 464.428C296.541 464.428 298.223 465.043 299.426 466.273C300.629 467.504 301.23 469.204 301.23 471.373V473.396H291.373C291.419 474.581 291.77 475.507 292.426 476.172C293.082 476.837 294.003 477.17 295.188 477.17C296.108 477.17 296.979 477.074 297.799 476.883C298.619 476.691 299.476 476.386 300.369 475.967V479.193C299.64 479.558 298.861 479.827 298.031 480C297.202 480.182 296.19 480.273 294.996 480.273ZM313.152 464.428C313.717 464.428 314.187 464.469 314.561 464.551L314.246 468.461C313.909 468.37 313.499 468.324 313.016 468.324C311.685 468.324 310.646 468.666 309.898 469.35C309.16 470.033 308.791 470.99 308.791 472.221V480H304.621V464.715H307.779L308.395 467.285H308.6C309.074 466.428 309.712 465.74 310.514 465.221C311.325 464.692 312.204 464.428 313.152 464.428ZM315.148 464.715H319.715L322.6 473.314C322.846 474.062 323.014 474.946 323.105 475.967H323.188C323.288 475.028 323.484 474.144 323.775 473.314L326.605 464.715H331.076L324.609 481.955C324.017 483.55 323.169 484.744 322.066 485.537C320.973 486.33 319.692 486.727 318.225 486.727C317.505 486.727 316.798 486.649 316.105 486.494V483.186C316.607 483.304 317.154 483.363 317.746 483.363C318.484 483.363 319.127 483.135 319.674 482.68C320.23 482.233 320.663 481.554 320.973 480.643L321.219 479.891L315.148 464.715ZM345.117 468.885H346.484C347.824 468.885 348.813 468.661 349.451 468.215C350.089 467.768 350.408 467.066 350.408 466.109C350.408 465.161 350.08 464.487 349.424 464.086C348.777 463.685 347.77 463.484 346.402 463.484H345.117V468.885ZM345.117 472.33V480H340.879V460.012H346.703C349.419 460.012 351.429 460.508 352.732 461.502C354.036 462.486 354.688 463.986 354.688 466C354.688 467.176 354.364 468.224 353.717 469.145C353.07 470.056 352.154 470.771 350.969 471.291C353.977 475.785 355.936 478.688 356.848 480H352.145L347.373 472.33H345.117ZM365.365 467.395C364.481 467.395 363.788 467.677 363.287 468.242C362.786 468.798 362.499 469.591 362.426 470.621H368.277C368.259 469.591 367.99 468.798 367.471 468.242C366.951 467.677 366.249 467.395 365.365 467.395ZM365.953 480.273C363.492 480.273 361.569 479.594 360.184 478.236C358.798 476.878 358.105 474.955 358.105 472.467C358.105 469.906 358.743 467.928 360.02 466.533C361.305 465.13 363.077 464.428 365.338 464.428C367.498 464.428 369.18 465.043 370.383 466.273C371.586 467.504 372.188 469.204 372.188 471.373V473.396H362.33C362.376 474.581 362.727 475.507 363.383 476.172C364.039 476.837 364.96 477.17 366.145 477.17C367.065 477.17 367.936 477.074 368.756 476.883C369.576 476.691 370.433 476.386 371.326 475.967V479.193C370.597 479.558 369.818 479.827 368.988 480C368.159 480.182 367.147 480.273 365.953 480.273ZM386.242 475.461C386.242 477.029 385.695 478.223 384.602 479.043C383.517 479.863 381.89 480.273 379.721 480.273C378.609 480.273 377.661 480.196 376.877 480.041C376.093 479.895 375.359 479.676 374.676 479.385V475.939C375.451 476.304 376.321 476.609 377.287 476.855C378.262 477.102 379.119 477.225 379.857 477.225C381.37 477.225 382.127 476.787 382.127 475.912C382.127 475.584 382.027 475.32 381.826 475.119C381.626 474.91 381.279 474.677 380.787 474.422C380.295 474.158 379.639 473.852 378.818 473.506C377.643 473.014 376.777 472.558 376.221 472.139C375.674 471.719 375.273 471.241 375.018 470.703C374.771 470.156 374.648 469.486 374.648 468.693C374.648 467.335 375.173 466.287 376.221 465.549C377.278 464.801 378.773 464.428 380.705 464.428C382.546 464.428 384.337 464.829 386.078 465.631L384.82 468.639C384.055 468.311 383.339 468.042 382.674 467.832C382.008 467.622 381.329 467.518 380.637 467.518C379.406 467.518 378.791 467.85 378.791 468.516C378.791 468.889 378.987 469.213 379.379 469.486C379.78 469.76 380.65 470.165 381.99 470.703C383.184 471.186 384.059 471.637 384.615 472.057C385.171 472.476 385.581 472.959 385.846 473.506C386.11 474.053 386.242 474.704 386.242 475.461ZM395.826 467.395C394.942 467.395 394.249 467.677 393.748 468.242C393.247 468.798 392.96 469.591 392.887 470.621H398.738C398.72 469.591 398.451 468.798 397.932 468.242C397.412 467.677 396.71 467.395 395.826 467.395ZM396.414 480.273C393.953 480.273 392.03 479.594 390.645 478.236C389.259 476.878 388.566 474.955 388.566 472.467C388.566 469.906 389.204 467.928 390.48 466.533C391.766 465.13 393.538 464.428 395.799 464.428C397.959 464.428 399.641 465.043 400.844 466.273C402.047 467.504 402.648 469.204 402.648 471.373V473.396H392.791C392.837 474.581 393.188 475.507 393.844 476.172C394.5 476.837 395.421 477.17 396.605 477.17C397.526 477.17 398.396 477.074 399.217 476.883C400.037 476.691 400.894 476.386 401.787 475.967V479.193C401.058 479.558 400.279 479.827 399.449 480C398.62 480.182 397.608 480.273 396.414 480.273ZM415.746 480L414.939 477.922H414.83C414.128 478.806 413.404 479.421 412.656 479.768C411.918 480.105 410.952 480.273 409.758 480.273C408.29 480.273 407.133 479.854 406.285 479.016C405.447 478.177 405.027 476.983 405.027 475.434C405.027 473.811 405.592 472.617 406.723 471.852C407.862 471.077 409.576 470.648 411.863 470.566L414.516 470.484V469.814C414.516 468.265 413.723 467.49 412.137 467.49C410.915 467.49 409.48 467.859 407.83 468.598L406.449 465.781C408.208 464.861 410.159 464.4 412.301 464.4C414.352 464.4 415.924 464.847 417.018 465.74C418.111 466.633 418.658 467.992 418.658 469.814V480H415.746ZM414.516 472.918L412.902 472.973C411.69 473.009 410.788 473.228 410.195 473.629C409.603 474.03 409.307 474.641 409.307 475.461C409.307 476.637 409.981 477.225 411.33 477.225C412.296 477.225 413.066 476.947 413.641 476.391C414.224 475.835 414.516 475.096 414.516 474.176V472.918ZM431.496 464.428C432.061 464.428 432.531 464.469 432.904 464.551L432.59 468.461C432.253 468.37 431.842 468.324 431.359 468.324C430.029 468.324 428.99 468.666 428.242 469.35C427.504 470.033 427.135 470.99 427.135 472.221V480H422.965V464.715H426.123L426.738 467.285H426.943C427.417 466.428 428.055 465.74 428.857 465.221C429.669 464.692 430.548 464.428 431.496 464.428ZM441.887 480.273C437.129 480.273 434.75 477.662 434.75 472.439C434.75 469.842 435.397 467.859 436.691 466.492C437.986 465.116 439.84 464.428 442.256 464.428C444.024 464.428 445.61 464.774 447.014 465.467L445.783 468.693C445.127 468.429 444.516 468.215 443.951 468.051C443.386 467.878 442.821 467.791 442.256 467.791C440.087 467.791 439.002 469.331 439.002 472.412C439.002 475.402 440.087 476.896 442.256 476.896C443.058 476.896 443.801 476.792 444.484 476.582C445.168 476.363 445.852 476.026 446.535 475.57V479.139C445.861 479.567 445.177 479.863 444.484 480.027C443.801 480.191 442.935 480.273 441.887 480.273ZM464.199 480H460.029V471.072C460.029 468.867 459.209 467.764 457.568 467.764C456.402 467.764 455.559 468.16 455.039 468.953C454.52 469.746 454.26 471.031 454.26 472.809V480H450.09V458.727H454.26V463.061C454.26 463.398 454.228 464.191 454.164 465.439L454.068 466.67H454.287C455.217 465.175 456.693 464.428 458.717 464.428C460.512 464.428 461.875 464.911 462.805 465.877C463.734 466.843 464.199 468.229 464.199 470.033V480Z" fill="white"/>
<rect x="397" y="569" width="749" height="106" rx="53" fill="#057EC1"/>
<rect x="397" y="569" width="749" height="106" rx="53" fill="#008180"/>
<path d="M460.645 614.252C459.049 614.252 457.814 614.854 456.939 616.057C456.064 617.251 455.627 618.919 455.627 621.061C455.627 625.518 457.299 627.746 460.645 627.746C462.048 627.746 463.748 627.395 465.744 626.693V630.248C464.104 630.932 462.271 631.273 460.248 631.273C457.34 631.273 455.117 630.394 453.576 628.635C452.036 626.867 451.266 624.333 451.266 621.033C451.266 618.955 451.644 617.137 452.4 615.578C453.157 614.01 454.242 612.812 455.654 611.982C457.076 611.144 458.74 610.725 460.645 610.725C462.586 610.725 464.536 611.194 466.496 612.133L465.129 615.578C464.382 615.223 463.63 614.913 462.873 614.648C462.117 614.384 461.374 614.252 460.645 614.252ZM473.004 623.33C473.004 624.843 473.25 625.987 473.742 626.762C474.243 627.536 475.055 627.924 476.176 627.924C477.288 627.924 478.085 627.541 478.568 626.775C479.061 626.001 479.307 624.852 479.307 623.33C479.307 621.817 479.061 620.682 478.568 619.926C478.076 619.169 477.27 618.791 476.148 618.791C475.036 618.791 474.234 619.169 473.742 619.926C473.25 620.673 473.004 621.808 473.004 623.33ZM483.572 623.33C483.572 625.818 482.916 627.764 481.604 629.168C480.291 630.572 478.464 631.273 476.121 631.273C474.654 631.273 473.359 630.954 472.238 630.316C471.117 629.669 470.256 628.744 469.654 627.541C469.053 626.338 468.752 624.934 468.752 623.33C468.752 620.833 469.404 618.891 470.707 617.506C472.01 616.12 473.842 615.428 476.203 615.428C477.671 615.428 478.965 615.747 480.086 616.385C481.207 617.023 482.068 617.939 482.67 619.133C483.271 620.327 483.572 621.726 483.572 623.33ZM501.127 631H496.957V622.072C496.957 620.969 496.761 620.145 496.369 619.598C495.977 619.042 495.353 618.764 494.496 618.764C493.329 618.764 492.486 619.156 491.967 619.939C491.447 620.714 491.188 622.004 491.188 623.809V631H487.018V615.715H490.203L490.764 617.67H490.996C491.461 616.932 492.099 616.376 492.91 616.002C493.73 615.619 494.66 615.428 495.699 615.428C497.477 615.428 498.826 615.911 499.746 616.877C500.667 617.834 501.127 619.219 501.127 621.033V631ZM511.627 631.273C506.869 631.273 504.49 628.662 504.49 623.439C504.49 620.842 505.137 618.859 506.432 617.492C507.726 616.116 509.581 615.428 511.996 615.428C513.764 615.428 515.35 615.774 516.754 616.467L515.523 619.693C514.867 619.429 514.257 619.215 513.691 619.051C513.126 618.878 512.561 618.791 511.996 618.791C509.827 618.791 508.742 620.331 508.742 623.412C508.742 626.402 509.827 627.896 511.996 627.896C512.798 627.896 513.541 627.792 514.225 627.582C514.908 627.363 515.592 627.026 516.275 626.57V630.139C515.601 630.567 514.917 630.863 514.225 631.027C513.541 631.191 512.675 631.273 511.627 631.273ZM526.16 618.395C525.276 618.395 524.583 618.677 524.082 619.242C523.581 619.798 523.294 620.591 523.221 621.621H529.072C529.054 620.591 528.785 619.798 528.266 619.242C527.746 618.677 527.044 618.395 526.16 618.395ZM526.748 631.273C524.287 631.273 522.364 630.594 520.979 629.236C519.593 627.878 518.9 625.955 518.9 623.467C518.9 620.906 519.538 618.928 520.814 617.533C522.1 616.13 523.872 615.428 526.133 615.428C528.293 615.428 529.975 616.043 531.178 617.273C532.381 618.504 532.982 620.204 532.982 622.373V624.396H523.125C523.171 625.581 523.521 626.507 524.178 627.172C524.834 627.837 525.755 628.17 526.939 628.17C527.86 628.17 528.73 628.074 529.551 627.883C530.371 627.691 531.228 627.386 532.121 626.967V630.193C531.392 630.558 530.613 630.827 529.783 631C528.954 631.182 527.942 631.273 526.748 631.273ZM544.768 631.273C542.972 631.273 541.564 630.622 540.543 629.318H540.324C540.47 630.594 540.543 631.333 540.543 631.533V637.727H536.373V615.715H539.764L540.352 617.697H540.543C541.518 616.184 542.963 615.428 544.877 615.428C546.682 615.428 548.094 616.125 549.115 617.52C550.136 618.914 550.646 620.851 550.646 623.33C550.646 624.962 550.405 626.379 549.922 627.582C549.448 628.785 548.769 629.701 547.885 630.33C547.001 630.959 545.962 631.273 544.768 631.273ZM543.537 618.764C542.507 618.764 541.755 619.083 541.281 619.721C540.807 620.35 540.561 621.393 540.543 622.852V623.303C540.543 624.943 540.785 626.119 541.268 626.83C541.76 627.541 542.535 627.896 543.592 627.896C545.46 627.896 546.395 626.356 546.395 623.275C546.395 621.771 546.162 620.646 545.697 619.898C545.242 619.142 544.521 618.764 543.537 618.764ZM560.531 627.951C561.26 627.951 562.135 627.792 563.156 627.473V630.576C562.117 631.041 560.841 631.273 559.328 631.273C557.66 631.273 556.443 630.854 555.678 630.016C554.921 629.168 554.543 627.901 554.543 626.215V618.846H552.547V617.082L554.844 615.688L556.047 612.461H558.713V615.715H562.992V618.846H558.713V626.215C558.713 626.807 558.877 627.245 559.205 627.527C559.542 627.81 559.984 627.951 560.531 627.951ZM581.572 631H577.334V614.539H571.906V611.012H587V614.539H581.572V631ZM596.078 618.395C595.194 618.395 594.501 618.677 594 619.242C593.499 619.798 593.212 620.591 593.139 621.621H598.99C598.972 620.591 598.703 619.798 598.184 619.242C597.664 618.677 596.962 618.395 596.078 618.395ZM596.666 631.273C594.205 631.273 592.282 630.594 590.896 629.236C589.511 627.878 588.818 625.955 588.818 623.467C588.818 620.906 589.456 618.928 590.732 617.533C592.018 616.13 593.79 615.428 596.051 615.428C598.211 615.428 599.893 616.043 601.096 617.273C602.299 618.504 602.9 620.204 602.9 622.373V624.396H593.043C593.089 625.581 593.439 626.507 594.096 627.172C594.752 627.837 595.673 628.17 596.857 628.17C597.778 628.17 598.648 628.074 599.469 627.883C600.289 627.691 601.146 627.386 602.039 626.967V630.193C601.31 630.558 600.531 630.827 599.701 631C598.872 631.182 597.86 631.273 596.666 631.273ZM616.955 626.461C616.955 628.029 616.408 629.223 615.314 630.043C614.23 630.863 612.603 631.273 610.434 631.273C609.322 631.273 608.374 631.196 607.59 631.041C606.806 630.895 606.072 630.676 605.389 630.385V626.939C606.163 627.304 607.034 627.609 608 627.855C608.975 628.102 609.832 628.225 610.57 628.225C612.083 628.225 612.84 627.787 612.84 626.912C612.84 626.584 612.74 626.32 612.539 626.119C612.339 625.91 611.992 625.677 611.5 625.422C611.008 625.158 610.352 624.852 609.531 624.506C608.355 624.014 607.49 623.558 606.934 623.139C606.387 622.719 605.986 622.241 605.73 621.703C605.484 621.156 605.361 620.486 605.361 619.693C605.361 618.335 605.885 617.287 606.934 616.549C607.991 615.801 609.486 615.428 611.418 615.428C613.259 615.428 615.05 615.829 616.791 616.631L615.533 619.639C614.768 619.311 614.052 619.042 613.387 618.832C612.721 618.622 612.042 618.518 611.35 618.518C610.119 618.518 609.504 618.85 609.504 619.516C609.504 619.889 609.7 620.213 610.092 620.486C610.493 620.76 611.363 621.165 612.703 621.703C613.897 622.186 614.772 622.637 615.328 623.057C615.884 623.476 616.294 623.959 616.559 624.506C616.823 625.053 616.955 625.704 616.955 626.461ZM626.648 627.951C627.378 627.951 628.253 627.792 629.273 627.473V630.576C628.234 631.041 626.958 631.273 625.445 631.273C623.777 631.273 622.561 630.854 621.795 630.016C621.038 629.168 620.66 627.901 620.66 626.215V618.846H618.664V617.082L620.961 615.688L622.164 612.461H624.83V615.715H629.109V618.846H624.83V626.215C624.83 626.807 624.994 627.245 625.322 627.527C625.66 627.81 626.102 627.951 626.648 627.951Z" fill="white"/>
<rect x="761" y="418" width="431" height="103" rx="51.5" fill="#057EC1"/>
<rect x="761" y="418" width="431" height="103" rx="51.5" fill="#008180"/>
<path d="M809.686 480H805.516V460.012H816.973V463.484H809.686V468.639H816.467V472.098H809.686V480ZM820.377 460.764C820.377 459.406 821.133 458.727 822.646 458.727C824.16 458.727 824.916 459.406 824.916 460.764C824.916 461.411 824.725 461.917 824.342 462.281C823.968 462.637 823.403 462.814 822.646 462.814C821.133 462.814 820.377 462.131 820.377 460.764ZM824.725 480H820.555V464.715H824.725V480ZM843.223 480H839.053V471.072C839.053 469.969 838.857 469.145 838.465 468.598C838.073 468.042 837.449 467.764 836.592 467.764C835.425 467.764 834.582 468.156 834.062 468.939C833.543 469.714 833.283 471.004 833.283 472.809V480H829.113V464.715H832.299L832.859 466.67H833.092C833.557 465.932 834.195 465.376 835.006 465.002C835.826 464.619 836.756 464.428 837.795 464.428C839.572 464.428 840.921 464.911 841.842 465.877C842.762 466.834 843.223 468.219 843.223 470.033V480ZM857.223 480L856.416 477.922H856.307C855.605 478.806 854.88 479.421 854.133 479.768C853.395 480.105 852.428 480.273 851.234 480.273C849.767 480.273 848.609 479.854 847.762 479.016C846.923 478.177 846.504 476.983 846.504 475.434C846.504 473.811 847.069 472.617 848.199 471.852C849.339 471.077 851.052 470.648 853.34 470.566L855.992 470.484V469.814C855.992 468.265 855.199 467.49 853.613 467.49C852.392 467.49 850.956 467.859 849.307 468.598L847.926 465.781C849.685 464.861 851.635 464.4 853.777 464.4C855.828 464.4 857.4 464.847 858.494 465.74C859.588 466.633 860.135 467.992 860.135 469.814V480H857.223ZM855.992 472.918L854.379 472.973C853.167 473.009 852.264 473.228 851.672 473.629C851.079 474.03 850.783 474.641 850.783 475.461C850.783 476.637 851.458 477.225 852.807 477.225C853.773 477.225 854.543 476.947 855.117 476.391C855.701 475.835 855.992 475.096 855.992 474.176V472.918ZM868.611 480H864.441V458.727H868.611V480ZM872.822 460.764C872.822 459.406 873.579 458.727 875.092 458.727C876.605 458.727 877.361 459.406 877.361 460.764C877.361 461.411 877.17 461.917 876.787 462.281C876.413 462.637 875.848 462.814 875.092 462.814C873.579 462.814 872.822 462.131 872.822 460.764ZM877.17 480H873V464.715H877.17V480ZM892.195 480H880.123V477.539L887.205 467.9H880.547V464.715H891.949V467.422L885.059 476.814H892.195V480ZM901.561 467.395C900.676 467.395 899.984 467.677 899.482 468.242C898.981 468.798 898.694 469.591 898.621 470.621H904.473C904.454 469.591 904.186 468.798 903.666 468.242C903.146 467.677 902.445 467.395 901.561 467.395ZM902.148 480.273C899.688 480.273 897.764 479.594 896.379 478.236C894.993 476.878 894.301 474.955 894.301 472.467C894.301 469.906 894.939 467.928 896.215 466.533C897.5 465.13 899.273 464.428 901.533 464.428C903.693 464.428 905.375 465.043 906.578 466.273C907.781 467.504 908.383 469.204 908.383 471.373V473.396H898.525C898.571 474.581 898.922 475.507 899.578 476.172C900.234 476.837 901.155 477.17 902.34 477.17C903.26 477.17 904.131 477.074 904.951 476.883C905.771 476.691 906.628 476.386 907.521 475.967V479.193C906.792 479.558 906.013 479.827 905.184 480C904.354 480.182 903.342 480.273 902.148 480.273ZM928.754 480L927.947 477.922H927.838C927.136 478.806 926.411 479.421 925.664 479.768C924.926 480.105 923.96 480.273 922.766 480.273C921.298 480.273 920.141 479.854 919.293 479.016C918.454 478.177 918.035 476.983 918.035 475.434C918.035 473.811 918.6 472.617 919.73 471.852C920.87 471.077 922.583 470.648 924.871 470.566L927.523 470.484V469.814C927.523 468.265 926.73 467.49 925.145 467.49C923.923 467.49 922.488 467.859 920.838 468.598L919.457 465.781C921.216 464.861 923.167 464.4 925.309 464.4C927.359 464.4 928.932 464.847 930.025 465.74C931.119 466.633 931.666 467.992 931.666 469.814V480H928.754ZM927.523 472.918L925.91 472.973C924.698 473.009 923.796 473.228 923.203 473.629C922.611 474.03 922.314 474.641 922.314 475.461C922.314 476.637 922.989 477.225 924.338 477.225C925.304 477.225 926.074 476.947 926.648 476.391C927.232 475.835 927.523 475.096 927.523 474.176V472.918ZM950.082 480H945.912V471.072C945.912 469.969 945.716 469.145 945.324 468.598C944.932 468.042 944.308 467.764 943.451 467.764C942.285 467.764 941.441 468.156 940.922 468.939C940.402 469.714 940.143 471.004 940.143 472.809V480H935.973V464.715H939.158L939.719 466.67H939.951C940.416 465.932 941.054 465.376 941.865 465.002C942.686 464.619 943.615 464.428 944.654 464.428C946.432 464.428 947.781 464.911 948.701 465.877C949.622 466.834 950.082 468.219 950.082 470.033V480ZM959.215 480.273C957.419 480.273 956.007 479.576 954.977 478.182C953.956 476.787 953.445 474.855 953.445 472.385C953.445 469.878 953.965 467.928 955.004 466.533C956.052 465.13 957.492 464.428 959.324 464.428C961.247 464.428 962.715 465.175 963.727 466.67H963.863C963.654 465.531 963.549 464.514 963.549 463.621V458.727H967.732V480H964.533L963.727 478.018H963.549C962.601 479.521 961.156 480.273 959.215 480.273ZM960.678 476.951C961.744 476.951 962.523 476.641 963.016 476.021C963.517 475.402 963.79 474.349 963.836 472.863V472.412C963.836 470.771 963.581 469.596 963.07 468.885C962.569 468.174 961.749 467.818 960.609 467.818C959.68 467.818 958.955 468.215 958.436 469.008C957.925 469.792 957.67 470.936 957.67 472.439C957.67 473.943 957.93 475.074 958.449 475.83C958.969 476.577 959.712 476.951 960.678 476.951ZM983.537 480H979.367V458.727H983.537V480ZM994.256 467.395C993.372 467.395 992.679 467.677 992.178 468.242C991.676 468.798 991.389 469.591 991.316 470.621H997.168C997.15 469.591 996.881 468.798 996.361 468.242C995.842 467.677 995.14 467.395 994.256 467.395ZM994.844 480.273C992.383 480.273 990.46 479.594 989.074 478.236C987.689 476.878 986.996 474.955 986.996 472.467C986.996 469.906 987.634 467.928 988.91 466.533C990.195 465.13 991.968 464.428 994.229 464.428C996.389 464.428 998.07 465.043 999.273 466.273C1000.48 467.504 1001.08 469.204 1001.08 471.373V473.396H991.221C991.266 474.581 991.617 475.507 992.273 476.172C992.93 476.837 993.85 477.17 995.035 477.17C995.956 477.17 996.826 477.074 997.646 476.883C998.467 476.691 999.324 476.386 1000.22 475.967V479.193C999.488 479.558 998.708 479.827 997.879 480C997.049 480.182 996.038 480.273 994.844 480.273ZM1017.77 464.715V466.834L1015.38 467.449C1015.82 468.133 1016.04 468.898 1016.04 469.746C1016.04 471.387 1015.46 472.667 1014.31 473.588C1013.17 474.499 1011.59 474.955 1009.55 474.955L1008.8 474.914L1008.19 474.846C1007.76 475.174 1007.54 475.538 1007.54 475.939C1007.54 476.541 1008.31 476.842 1009.84 476.842H1012.44C1014.12 476.842 1015.39 477.202 1016.27 477.922C1017.15 478.642 1017.59 479.699 1017.59 481.094C1017.59 482.88 1016.85 484.266 1015.35 485.25C1013.87 486.234 1011.73 486.727 1008.94 486.727C1006.81 486.727 1005.18 486.353 1004.04 485.605C1002.92 484.867 1002.36 483.828 1002.36 482.488C1002.36 481.568 1002.65 480.798 1003.22 480.178C1003.8 479.558 1004.64 479.116 1005.75 478.852C1005.33 478.669 1004.95 478.373 1004.63 477.963C1004.31 477.544 1004.15 477.102 1004.15 476.637C1004.15 476.053 1004.32 475.57 1004.66 475.188C1005 474.796 1005.49 474.413 1006.12 474.039C1005.32 473.693 1004.68 473.137 1004.21 472.371C1003.74 471.605 1003.51 470.703 1003.51 469.664C1003.51 467.996 1004.05 466.706 1005.14 465.795C1006.22 464.883 1007.77 464.428 1009.79 464.428C1010.22 464.428 1010.72 464.469 1011.3 464.551C1011.9 464.624 1012.28 464.678 1012.44 464.715H1017.77ZM1005.97 482.16C1005.97 482.734 1006.25 483.186 1006.79 483.514C1007.35 483.842 1008.12 484.006 1009.12 484.006C1010.61 484.006 1011.78 483.801 1012.63 483.391C1013.48 482.98 1013.9 482.42 1013.9 481.709C1013.9 481.135 1013.65 480.738 1013.15 480.52C1012.65 480.301 1011.87 480.191 1010.83 480.191H1008.67C1007.9 480.191 1007.26 480.369 1006.74 480.725C1006.23 481.089 1005.97 481.568 1005.97 482.16ZM1007.49 469.719C1007.49 470.548 1007.68 471.204 1008.05 471.688C1008.43 472.171 1009.01 472.412 1009.79 472.412C1010.57 472.412 1011.15 472.171 1011.51 471.688C1011.87 471.204 1012.06 470.548 1012.06 469.719C1012.06 467.878 1011.3 466.957 1009.79 466.957C1008.26 466.957 1007.49 467.878 1007.49 469.719ZM1030.01 480L1029.2 477.922H1029.09C1028.39 478.806 1027.67 479.421 1026.92 479.768C1026.18 480.105 1025.21 480.273 1024.02 480.273C1022.55 480.273 1021.39 479.854 1020.55 479.016C1019.71 478.177 1019.29 476.983 1019.29 475.434C1019.29 473.811 1019.85 472.617 1020.98 471.852C1022.12 471.077 1023.84 470.648 1026.12 470.566L1028.78 470.484V469.814C1028.78 468.265 1027.98 467.49 1026.4 467.49C1025.18 467.49 1023.74 467.859 1022.09 468.598L1020.71 465.781C1022.47 464.861 1024.42 464.4 1026.56 464.4C1028.61 464.4 1030.19 464.847 1031.28 465.74C1032.37 466.633 1032.92 467.992 1032.92 469.814V480H1030.01ZM1028.78 472.918L1027.16 472.973C1025.95 473.009 1025.05 473.228 1024.46 473.629C1023.86 474.03 1023.57 474.641 1023.57 475.461C1023.57 476.637 1024.24 477.225 1025.59 477.225C1026.56 477.225 1027.33 476.947 1027.9 476.391C1028.49 475.835 1028.78 475.096 1028.78 474.176V472.918ZM1041.4 480H1037.23V458.727H1041.4V480ZM1061.59 464.428C1062.15 464.428 1062.62 464.469 1063 464.551L1062.68 468.461C1062.35 468.37 1061.94 468.324 1061.45 468.324C1060.12 468.324 1059.08 468.666 1058.34 469.35C1057.6 470.033 1057.23 470.99 1057.23 472.221V480H1053.06V464.715H1056.22L1056.83 467.285H1057.04C1057.51 466.428 1058.15 465.74 1058.95 465.221C1059.76 464.692 1060.64 464.428 1061.59 464.428ZM1072.1 467.395C1071.22 467.395 1070.53 467.677 1070.03 468.242C1069.52 468.798 1069.24 469.591 1069.16 470.621H1075.02C1075 469.591 1074.73 468.798 1074.21 468.242C1073.69 467.677 1072.99 467.395 1072.1 467.395ZM1072.69 480.273C1070.23 480.273 1068.31 479.594 1066.92 478.236C1065.54 476.878 1064.84 474.955 1064.84 472.467C1064.84 469.906 1065.48 467.928 1066.76 466.533C1068.04 465.13 1069.82 464.428 1072.08 464.428C1074.24 464.428 1075.92 465.043 1077.12 466.273C1078.32 467.504 1078.93 469.204 1078.93 471.373V473.396H1069.07C1069.11 474.581 1069.46 475.507 1070.12 476.172C1070.78 476.837 1071.7 477.17 1072.88 477.17C1073.8 477.17 1074.67 477.074 1075.49 476.883C1076.31 476.691 1077.17 476.386 1078.06 475.967V479.193C1077.34 479.558 1076.56 479.827 1075.73 480C1074.9 480.182 1073.89 480.273 1072.69 480.273ZM1085.95 480L1080.13 464.715H1084.49L1087.44 473.424C1087.77 474.527 1087.98 475.57 1088.06 476.555H1088.14C1088.19 475.68 1088.39 474.636 1088.76 473.424L1091.7 464.715H1096.06L1090.23 480H1085.95ZM1098.08 460.764C1098.08 459.406 1098.84 458.727 1100.35 458.727C1101.86 458.727 1102.62 459.406 1102.62 460.764C1102.62 461.411 1102.43 461.917 1102.04 462.281C1101.67 462.637 1101.11 462.814 1100.35 462.814C1098.84 462.814 1098.08 462.131 1098.08 460.764ZM1102.43 480H1098.26V464.715H1102.43V480ZM1113.15 467.395C1112.26 467.395 1111.57 467.677 1111.07 468.242C1110.57 468.798 1110.28 469.591 1110.21 470.621H1116.06C1116.04 469.591 1115.77 468.798 1115.25 468.242C1114.73 467.677 1114.03 467.395 1113.15 467.395ZM1113.73 480.273C1111.27 480.273 1109.35 479.594 1107.96 478.236C1106.58 476.878 1105.89 474.955 1105.89 472.467C1105.89 469.906 1106.52 467.928 1107.8 466.533C1109.09 465.13 1110.86 464.428 1113.12 464.428C1115.28 464.428 1116.96 465.043 1118.16 466.273C1119.37 467.504 1119.97 469.204 1119.97 471.373V473.396H1110.11C1110.16 474.581 1110.51 475.507 1111.16 476.172C1111.82 476.837 1112.74 477.17 1113.93 477.17C1114.85 477.17 1115.72 477.074 1116.54 476.883C1117.36 476.691 1118.21 476.386 1119.11 475.967V479.193C1118.38 479.558 1117.6 479.827 1116.77 480C1115.94 480.182 1114.93 480.273 1113.73 480.273ZM1135.92 480L1134.75 474.654L1133.16 467.9H1133.07L1130.28 480H1125.79L1121.45 464.715H1125.6L1127.37 471.482C1127.65 472.695 1127.93 474.367 1128.23 476.5H1128.31C1128.35 475.807 1128.5 474.709 1128.79 473.205L1129.01 472.043L1130.89 464.715H1135.49L1137.28 472.043C1137.31 472.243 1137.37 472.54 1137.44 472.932C1137.52 473.324 1137.6 473.743 1137.67 474.189C1137.75 474.627 1137.81 475.06 1137.87 475.488C1137.93 475.908 1137.97 476.245 1137.97 476.5H1138.06C1138.14 475.844 1138.28 474.946 1138.49 473.807C1138.7 472.658 1138.85 471.883 1138.95 471.482L1140.78 464.715H1144.87L1140.46 480H1135.92Z" fill="white"/>
<rect x="1843" y="418" width="355" height="103" rx="51.5" fill="#057EC1"/>
<rect x="1843" y="418" width="355" height="103" rx="51.5" fill="#008180"/>
<path d="M1911.98 480L1907.17 464.318H1907.04C1907.22 467.508 1907.3 469.637 1907.3 470.703V480H1903.52V460.012H1909.29L1914.02 475.297H1914.1L1919.12 460.012H1924.88V480H1920.93V470.539C1920.93 470.092 1920.94 469.577 1920.95 468.994C1920.97 468.411 1921.03 466.861 1921.14 464.346H1921.02L1915.86 480H1911.98ZM1932.92 472.33C1932.92 473.843 1933.17 474.987 1933.66 475.762C1934.16 476.536 1934.97 476.924 1936.1 476.924C1937.21 476.924 1938.01 476.541 1938.49 475.775C1938.98 475.001 1939.23 473.852 1939.23 472.33C1939.23 470.817 1938.98 469.682 1938.49 468.926C1938 468.169 1937.19 467.791 1936.07 467.791C1934.96 467.791 1934.15 468.169 1933.66 468.926C1933.17 469.673 1932.92 470.808 1932.92 472.33ZM1943.49 472.33C1943.49 474.818 1942.84 476.764 1941.52 478.168C1940.21 479.572 1938.38 480.273 1936.04 480.273C1934.57 480.273 1933.28 479.954 1932.16 479.316C1931.04 478.669 1930.18 477.744 1929.57 476.541C1928.97 475.338 1928.67 473.934 1928.67 472.33C1928.67 469.833 1929.32 467.891 1930.63 466.506C1931.93 465.12 1933.76 464.428 1936.12 464.428C1937.59 464.428 1938.88 464.747 1940.01 465.385C1941.13 466.023 1941.99 466.939 1942.59 468.133C1943.19 469.327 1943.49 470.726 1943.49 472.33ZM1961.05 480H1956.88V471.072C1956.88 469.969 1956.68 469.145 1956.29 468.598C1955.9 468.042 1955.27 467.764 1954.42 467.764C1953.25 467.764 1952.41 468.156 1951.89 468.939C1951.37 469.714 1951.11 471.004 1951.11 472.809V480H1946.94V464.715H1950.12L1950.68 466.67H1950.92C1951.38 465.932 1952.02 465.376 1952.83 465.002C1953.65 464.619 1954.58 464.428 1955.62 464.428C1957.4 464.428 1958.75 464.911 1959.67 465.877C1960.59 466.834 1961.05 468.219 1961.05 470.033V480ZM1965.16 460.764C1965.16 459.406 1965.92 458.727 1967.43 458.727C1968.94 458.727 1969.7 459.406 1969.7 460.764C1969.7 461.411 1969.51 461.917 1969.13 462.281C1968.75 462.637 1968.19 462.814 1967.43 462.814C1965.92 462.814 1965.16 462.131 1965.16 460.764ZM1969.51 480H1965.34V464.715H1969.51V480ZM1980.34 476.951C1981.07 476.951 1981.94 476.792 1982.96 476.473V479.576C1981.92 480.041 1980.65 480.273 1979.13 480.273C1977.47 480.273 1976.25 479.854 1975.48 479.016C1974.73 478.168 1974.35 476.901 1974.35 475.215V467.846H1972.35V466.082L1974.65 464.688L1975.85 461.461H1978.52V464.715H1982.8V467.846H1978.52V475.215C1978.52 475.807 1978.68 476.245 1979.01 476.527C1979.35 476.81 1979.79 476.951 1980.34 476.951ZM1989.39 472.33C1989.39 473.843 1989.63 474.987 1990.13 475.762C1990.63 476.536 1991.44 476.924 1992.56 476.924C1993.67 476.924 1994.47 476.541 1994.95 475.775C1995.45 475.001 1995.69 473.852 1995.69 472.33C1995.69 470.817 1995.45 469.682 1994.95 468.926C1994.46 468.169 1993.65 467.791 1992.53 467.791C1991.42 467.791 1990.62 468.169 1990.13 468.926C1989.63 469.673 1989.39 470.808 1989.39 472.33ZM1999.96 472.33C1999.96 474.818 1999.3 476.764 1997.99 478.168C1996.68 479.572 1994.85 480.273 1992.51 480.273C1991.04 480.273 1989.74 479.954 1988.62 479.316C1987.5 478.669 1986.64 477.744 1986.04 476.541C1985.44 475.338 1985.14 473.934 1985.14 472.33C1985.14 469.833 1985.79 467.891 1987.09 466.506C1988.4 465.12 1990.23 464.428 1992.59 464.428C1994.06 464.428 1995.35 464.747 1996.47 465.385C1997.59 466.023 1998.45 466.939 1999.05 468.133C1999.66 469.327 1999.96 470.726 1999.96 472.33ZM2011.93 464.428C2012.5 464.428 2012.97 464.469 2013.34 464.551L2013.03 468.461C2012.69 468.37 2012.28 468.324 2011.8 468.324C2010.47 468.324 2009.43 468.666 2008.68 469.35C2007.94 470.033 2007.57 470.99 2007.57 472.221V480H2003.4V464.715H2006.56L2007.18 467.285H2007.38C2007.85 466.428 2008.49 465.74 2009.29 465.221C2010.11 464.692 2010.99 464.428 2011.93 464.428Z" fill="white"/>
<rect x="1266" y="418" width="568" height="103" rx="51.5" fill="#057EC1"/>
<rect x="1266" y="418" width="568" height="103" rx="51.5" fill="#008180"/>
<path d="M1350.41 474.449C1350.41 476.254 1349.75 477.676 1348.45 478.715C1347.16 479.754 1345.35 480.273 1343.04 480.273C1340.9 480.273 1339.02 479.872 1337.38 479.07V475.133C1338.73 475.734 1339.87 476.158 1340.79 476.404C1341.73 476.65 1342.59 476.773 1343.37 476.773C1344.29 476.773 1345.01 476.596 1345.5 476.24C1346 475.885 1346.25 475.356 1346.25 474.654C1346.25 474.262 1346.14 473.916 1345.92 473.615C1345.7 473.305 1345.38 473.009 1344.95 472.727C1344.53 472.444 1343.67 471.993 1342.37 471.373C1341.15 470.799 1340.23 470.247 1339.62 469.719C1339.01 469.19 1338.52 468.575 1338.16 467.873C1337.79 467.171 1337.61 466.351 1337.61 465.412C1337.61 463.644 1338.21 462.254 1339.4 461.242C1340.6 460.23 1342.26 459.725 1344.38 459.725C1345.42 459.725 1346.4 459.848 1347.34 460.094C1348.29 460.34 1349.28 460.686 1350.31 461.133L1348.94 464.428C1347.88 463.99 1346.99 463.685 1346.29 463.512C1345.6 463.339 1344.91 463.252 1344.24 463.252C1343.44 463.252 1342.82 463.439 1342.39 463.812C1341.97 464.186 1341.75 464.674 1341.75 465.275C1341.75 465.649 1341.84 465.977 1342.01 466.26C1342.18 466.533 1342.46 466.802 1342.83 467.066C1343.21 467.322 1344.11 467.786 1345.53 468.461C1347.39 469.354 1348.67 470.252 1349.37 471.154C1350.06 472.048 1350.41 473.146 1350.41 474.449ZM1364.53 480L1363.97 478.045H1363.75C1363.3 478.756 1362.67 479.307 1361.85 479.699C1361.03 480.082 1360.1 480.273 1359.05 480.273C1357.25 480.273 1355.9 479.795 1354.99 478.838C1354.07 477.872 1353.62 476.486 1353.62 474.682V464.715H1357.79V473.643C1357.79 474.745 1357.99 475.575 1358.38 476.131C1358.77 476.678 1359.39 476.951 1360.25 476.951C1361.42 476.951 1362.26 476.564 1362.78 475.789C1363.3 475.005 1363.56 473.711 1363.56 471.906V464.715H1367.73V480H1364.53ZM1380.5 480.273C1378.7 480.273 1377.29 479.622 1376.27 478.318H1376.05C1376.2 479.594 1376.27 480.333 1376.27 480.533V486.727H1372.1V464.715H1375.49L1376.08 466.697H1376.27C1377.25 465.184 1378.69 464.428 1380.61 464.428C1382.41 464.428 1383.82 465.125 1384.85 466.52C1385.87 467.914 1386.38 469.851 1386.38 472.33C1386.38 473.962 1386.14 475.379 1385.65 476.582C1385.18 477.785 1384.5 478.701 1383.62 479.33C1382.73 479.959 1381.69 480.273 1380.5 480.273ZM1379.27 467.764C1378.24 467.764 1377.49 468.083 1377.01 468.721C1376.54 469.35 1376.29 470.393 1376.27 471.852V472.303C1376.27 473.943 1376.51 475.119 1377 475.83C1377.49 476.541 1378.26 476.896 1379.32 476.896C1381.19 476.896 1382.12 475.356 1382.12 472.275C1382.12 470.771 1381.89 469.646 1381.43 468.898C1380.97 468.142 1380.25 467.764 1379.27 467.764ZM1398.22 480.273C1396.42 480.273 1395.01 479.622 1393.99 478.318H1393.77C1393.92 479.594 1393.99 480.333 1393.99 480.533V486.727H1389.82V464.715H1393.21L1393.8 466.697H1393.99C1394.97 465.184 1396.41 464.428 1398.33 464.428C1400.13 464.428 1401.54 465.125 1402.56 466.52C1403.59 467.914 1404.1 469.851 1404.1 472.33C1404.1 473.962 1403.85 475.379 1403.37 476.582C1402.9 477.785 1402.22 478.701 1401.33 479.33C1400.45 479.959 1399.41 480.273 1398.22 480.273ZM1396.99 467.764C1395.96 467.764 1395.2 468.083 1394.73 468.721C1394.26 469.35 1394.01 470.393 1393.99 471.852V472.303C1393.99 473.943 1394.23 475.119 1394.72 475.83C1395.21 476.541 1395.98 476.896 1397.04 476.896C1398.91 476.896 1399.84 475.356 1399.84 472.275C1399.84 470.771 1399.61 469.646 1399.15 468.898C1398.69 468.142 1397.97 467.764 1396.99 467.764ZM1410.86 472.33C1410.86 473.843 1411.11 474.987 1411.6 475.762C1412.1 476.536 1412.91 476.924 1414.04 476.924C1415.15 476.924 1415.94 476.541 1416.43 475.775C1416.92 475.001 1417.17 473.852 1417.17 472.33C1417.17 470.817 1416.92 469.682 1416.43 468.926C1415.94 468.169 1415.13 467.791 1414.01 467.791C1412.9 467.791 1412.09 468.169 1411.6 468.926C1411.11 469.673 1410.86 470.808 1410.86 472.33ZM1421.43 472.33C1421.43 474.818 1420.78 476.764 1419.46 478.168C1418.15 479.572 1416.32 480.273 1413.98 480.273C1412.51 480.273 1411.22 479.954 1410.1 479.316C1408.98 478.669 1408.12 477.744 1407.51 476.541C1406.91 475.338 1406.61 473.934 1406.61 472.33C1406.61 469.833 1407.26 467.891 1408.57 466.506C1409.87 465.12 1411.7 464.428 1414.06 464.428C1415.53 464.428 1416.82 464.747 1417.95 465.385C1419.07 466.023 1419.93 466.939 1420.53 468.133C1421.13 469.327 1421.43 470.726 1421.43 472.33ZM1433.41 464.428C1433.97 464.428 1434.44 464.469 1434.82 464.551L1434.5 468.461C1434.16 468.37 1433.75 468.324 1433.27 468.324C1431.94 468.324 1430.9 468.666 1430.15 469.35C1429.42 470.033 1429.05 470.99 1429.05 472.221V480H1424.88V464.715H1428.04L1428.65 467.285H1428.86C1429.33 466.428 1429.97 465.74 1430.77 465.221C1431.58 464.692 1432.46 464.428 1433.41 464.428ZM1444.03 476.951C1444.76 476.951 1445.64 476.792 1446.66 476.473V479.576C1445.62 480.041 1444.34 480.273 1442.83 480.273C1441.16 480.273 1439.94 479.854 1439.18 479.016C1438.42 478.168 1438.04 476.901 1438.04 475.215V467.846H1436.05V466.082L1438.34 464.688L1439.55 461.461H1442.21V464.715H1446.49V467.846H1442.21V475.215C1442.21 475.807 1442.38 476.245 1442.71 476.527C1443.04 476.81 1443.48 476.951 1444.03 476.951ZM1461.87 480.273C1460.08 480.273 1458.66 479.576 1457.63 478.182C1456.61 476.787 1456.1 474.855 1456.1 472.385C1456.1 469.878 1456.62 467.928 1457.66 466.533C1458.71 465.13 1460.15 464.428 1461.98 464.428C1463.91 464.428 1465.37 465.175 1466.38 466.67H1466.52C1466.31 465.531 1466.21 464.514 1466.21 463.621V458.727H1470.39V480H1467.19L1466.38 478.018H1466.21C1465.26 479.521 1463.81 480.273 1461.87 480.273ZM1463.34 476.951C1464.4 476.951 1465.18 476.641 1465.67 476.021C1466.18 475.402 1466.45 474.349 1466.49 472.863V472.412C1466.49 470.771 1466.24 469.596 1465.73 468.885C1465.23 468.174 1464.41 467.818 1463.27 467.818C1462.34 467.818 1461.61 468.215 1461.09 469.008C1460.58 469.792 1460.33 470.936 1460.33 472.439C1460.33 473.943 1460.59 475.074 1461.11 475.83C1461.63 476.577 1462.37 476.951 1463.34 476.951ZM1481.08 467.395C1480.2 467.395 1479.51 467.677 1479 468.242C1478.5 468.798 1478.22 469.591 1478.14 470.621H1483.99C1483.98 469.591 1483.71 468.798 1483.19 468.242C1482.67 467.677 1481.97 467.395 1481.08 467.395ZM1481.67 480.273C1479.21 480.273 1477.29 479.594 1475.9 478.236C1474.51 476.878 1473.82 474.955 1473.82 472.467C1473.82 469.906 1474.46 467.928 1475.74 466.533C1477.02 465.13 1478.79 464.428 1481.05 464.428C1483.21 464.428 1484.9 465.043 1486.1 466.273C1487.3 467.504 1487.9 469.204 1487.9 471.373V473.396H1478.05C1478.09 474.581 1478.44 475.507 1479.1 476.172C1479.76 476.837 1480.68 477.17 1481.86 477.17C1482.78 477.17 1483.65 477.074 1484.47 476.883C1485.29 476.691 1486.15 476.386 1487.04 475.967V479.193C1486.31 479.558 1485.53 479.827 1484.71 480C1483.88 480.182 1482.86 480.273 1481.67 480.273ZM1494.93 480L1489.11 464.715H1493.47L1496.42 473.424C1496.75 474.527 1496.96 475.57 1497.04 476.555H1497.12C1497.16 475.68 1497.37 474.636 1497.73 473.424L1500.67 464.715H1505.04L1499.21 480H1494.93ZM1524.22 480L1523.41 477.922H1523.3C1522.6 478.806 1521.87 479.421 1521.13 479.768C1520.39 480.105 1519.42 480.273 1518.23 480.273C1516.76 480.273 1515.6 479.854 1514.76 479.016C1513.92 478.177 1513.5 476.983 1513.5 475.434C1513.5 473.811 1514.06 472.617 1515.19 471.852C1516.33 471.077 1518.05 470.648 1520.33 470.566L1522.99 470.484V469.814C1522.99 468.265 1522.19 467.49 1520.61 467.49C1519.39 467.49 1517.95 467.859 1516.3 468.598L1514.92 465.781C1516.68 464.861 1518.63 464.4 1520.77 464.4C1522.82 464.4 1524.39 464.847 1525.49 465.74C1526.58 466.633 1527.13 467.992 1527.13 469.814V480H1524.22ZM1522.99 472.918L1521.37 472.973C1520.16 473.009 1519.26 473.228 1518.67 473.629C1518.07 474.03 1517.78 474.641 1517.78 475.461C1517.78 476.637 1518.45 477.225 1519.8 477.225C1520.77 477.225 1521.54 476.947 1522.11 476.391C1522.69 475.835 1522.99 475.096 1522.99 474.176V472.918ZM1545.54 480H1541.38V471.072C1541.38 469.969 1541.18 469.145 1540.79 468.598C1540.4 468.042 1539.77 467.764 1538.91 467.764C1537.75 467.764 1536.9 468.156 1536.38 468.939C1535.87 469.714 1535.61 471.004 1535.61 472.809V480H1531.44V464.715H1534.62L1535.18 466.67H1535.41C1535.88 465.932 1536.52 465.376 1537.33 465.002C1538.15 464.619 1539.08 464.428 1540.12 464.428C1541.89 464.428 1543.24 464.911 1544.16 465.877C1545.08 466.834 1545.54 468.219 1545.54 470.033V480ZM1554.68 480.273C1552.88 480.273 1551.47 479.576 1550.44 478.182C1549.42 476.787 1548.91 474.855 1548.91 472.385C1548.91 469.878 1549.43 467.928 1550.47 466.533C1551.51 465.13 1552.96 464.428 1554.79 464.428C1556.71 464.428 1558.18 465.175 1559.19 466.67H1559.33C1559.12 465.531 1559.01 464.514 1559.01 463.621V458.727H1563.2V480H1560L1559.19 478.018H1559.01C1558.06 479.521 1556.62 480.273 1554.68 480.273ZM1556.14 476.951C1557.21 476.951 1557.99 476.641 1558.48 476.021C1558.98 475.402 1559.25 474.349 1559.3 472.863V472.412C1559.3 470.771 1559.04 469.596 1558.53 468.885C1558.03 468.174 1557.21 467.818 1556.07 467.818C1555.14 467.818 1554.42 468.215 1553.9 469.008C1553.39 469.792 1553.13 470.936 1553.13 472.439C1553.13 473.943 1553.39 475.074 1553.91 475.83C1554.43 476.577 1555.17 476.951 1556.14 476.951ZM1583.22 480.273C1581.43 480.273 1580.02 479.622 1579 478.318H1578.78C1578.93 479.594 1579 480.333 1579 480.533V486.727H1574.83V464.715H1578.22L1578.81 466.697H1579C1579.98 465.184 1581.42 464.428 1583.33 464.428C1585.14 464.428 1586.55 465.125 1587.57 466.52C1588.59 467.914 1589.1 469.851 1589.1 472.33C1589.1 473.962 1588.86 475.379 1588.38 476.582C1587.9 477.785 1587.23 478.701 1586.34 479.33C1585.46 479.959 1584.42 480.273 1583.22 480.273ZM1581.99 467.764C1580.96 467.764 1580.21 468.083 1579.74 468.721C1579.26 469.35 1579.02 470.393 1579 471.852V472.303C1579 473.943 1579.24 475.119 1579.72 475.83C1580.22 476.541 1580.99 476.896 1582.05 476.896C1583.92 476.896 1584.85 475.356 1584.85 472.275C1584.85 470.771 1584.62 469.646 1584.15 468.898C1583.7 468.142 1582.98 467.764 1581.99 467.764ZM1595.87 472.33C1595.87 473.843 1596.12 474.987 1596.61 475.762C1597.11 476.536 1597.92 476.924 1599.04 476.924C1600.15 476.924 1600.95 476.541 1601.44 475.775C1601.93 475.001 1602.17 473.852 1602.17 472.33C1602.17 470.817 1601.93 469.682 1601.44 468.926C1600.94 468.169 1600.14 467.791 1599.02 467.791C1597.9 467.791 1597.1 468.169 1596.61 468.926C1596.12 469.673 1595.87 470.808 1595.87 472.33ZM1606.44 472.33C1606.44 474.818 1605.78 476.764 1604.47 478.168C1603.16 479.572 1601.33 480.273 1598.99 480.273C1597.52 480.273 1596.23 479.954 1595.11 479.316C1593.98 478.669 1593.12 477.744 1592.52 476.541C1591.92 475.338 1591.62 473.934 1591.62 472.33C1591.62 469.833 1592.27 467.891 1593.57 466.506C1594.88 465.12 1596.71 464.428 1599.07 464.428C1600.54 464.428 1601.83 464.747 1602.95 465.385C1604.07 466.023 1604.94 466.939 1605.54 468.133C1606.14 469.327 1606.44 470.726 1606.44 472.33ZM1614.05 480H1609.88V458.727H1614.05V480ZM1618.27 460.764C1618.27 459.406 1619.02 458.727 1620.54 458.727C1622.05 458.727 1622.8 459.406 1622.8 460.764C1622.8 461.411 1622.61 461.917 1622.23 462.281C1621.86 462.637 1621.29 462.814 1620.54 462.814C1619.02 462.814 1618.27 462.131 1618.27 460.764ZM1622.61 480H1618.44V464.715H1622.61V480ZM1637.67 475.461C1637.67 477.029 1637.12 478.223 1636.03 479.043C1634.94 479.863 1633.31 480.273 1631.14 480.273C1630.03 480.273 1629.08 480.196 1628.3 480.041C1627.52 479.895 1626.78 479.676 1626.1 479.385V475.939C1626.87 476.304 1627.74 476.609 1628.71 476.855C1629.69 477.102 1630.54 477.225 1631.28 477.225C1632.79 477.225 1633.55 476.787 1633.55 475.912C1633.55 475.584 1633.45 475.32 1633.25 475.119C1633.05 474.91 1632.7 474.677 1632.21 474.422C1631.72 474.158 1631.06 473.852 1630.24 473.506C1629.07 473.014 1628.2 472.558 1627.64 472.139C1627.1 471.719 1626.7 471.241 1626.44 470.703C1626.2 470.156 1626.07 469.486 1626.07 468.693C1626.07 467.335 1626.6 466.287 1627.64 465.549C1628.7 464.801 1630.2 464.428 1632.13 464.428C1633.97 464.428 1635.76 464.829 1637.5 465.631L1636.24 468.639C1635.48 468.311 1634.76 468.042 1634.1 467.832C1633.43 467.622 1632.75 467.518 1632.06 467.518C1630.83 467.518 1630.21 467.85 1630.21 468.516C1630.21 468.889 1630.41 469.213 1630.8 469.486C1631.2 469.76 1632.07 470.165 1633.41 470.703C1634.61 471.186 1635.48 471.637 1636.04 472.057C1636.6 472.476 1637.01 472.959 1637.27 473.506C1637.53 474.053 1637.67 474.704 1637.67 475.461ZM1655.03 480H1650.86V471.072C1650.86 468.867 1650.04 467.764 1648.4 467.764C1647.23 467.764 1646.39 468.16 1645.87 468.953C1645.35 469.746 1645.09 471.031 1645.09 472.809V480H1640.92V458.727H1645.09V463.061C1645.09 463.398 1645.06 464.191 1644.99 465.439L1644.9 466.67H1645.12C1646.05 465.175 1647.52 464.428 1649.55 464.428C1651.34 464.428 1652.71 464.911 1653.63 465.877C1654.56 466.843 1655.03 468.229 1655.03 470.033V480Z" fill="white"/>
<g filter="url(#filter2_d)">
<circle cx="334" cy="292" r="32" fill="#95DDDC"/>
</g>
<g filter="url(#filter3_d)">
<circle cx="334" cy="292" r="24" fill="#23B0AF"/>
</g>
<g filter="url(#filter4_d)">
<circle cx="334" cy="292" r="13" fill="#008180"/>
</g>
<g filter="url(#filter5_d)">
<circle cx="1840" cy="292" r="32" fill="#95DDDC"/>
</g>
<g filter="url(#filter6_d)">
<circle cx="1840" cy="292" r="24" fill="#23B0AF"/>
</g>
<g filter="url(#filter7_d)">
<circle cx="1840" cy="292" r="13" fill="#008180"/>
</g>
<defs>
<filter id="filter0_d" x="1146" y="259" width="66" height="66" filterUnits="userSpaceOnUse" color-interpolation-filters="sRGB">
<feFlood flood-opacity="0" result="BackgroundImageFix"/>
<feColorMatrix in="SourceAlpha" type="matrix" values="0 0 0 0 0 0 0 0 0 0 0 0 0 0 0 0 0 0 127 0"/>
<feOffset/>
<feGaussianBlur stdDeviation="10"/>
<feColorMatrix type="matrix" values="0 0 0 0 0 0 0 0 0 0 0 0 0 0 0 0 0 0 0.12 0"/>
<feBlend mode="normal" in2="BackgroundImageFix" result="effect1_dropShadow"/>
<feBlend mode="normal" in="SourceGraphic" in2="effect1_dropShadow" result="shape"/>
</filter>
<filter id="filter1_d" x="1810" y="259" width="66" height="66" filterUnits="userSpaceOnUse" color-interpolation-filters="sRGB">
<feFlood flood-opacity="0" result="BackgroundImageFix"/>
<feColorMatrix in="SourceAlpha" type="matrix" values="0 0 0 0 0 0 0 0 0 0 0 0 0 0 0 0 0 0 127 0"/>
<feOffset/>
<feGaussianBlur stdDeviation="10"/>
<feColorMatrix type="matrix" values="0 0 0 0 0 0 0 0 0 0 0 0 0 0 0 0 0 0 0.12 0"/>
<feBlend mode="normal" in2="BackgroundImageFix" result="effect1_dropShadow"/>
<feBlend mode="normal" in="SourceGraphic" in2="effect1_dropShadow" result="shape"/>
</filter>
<filter id="filter2_d" x="282" y="240" width="104" height="104" filterUnits="userSpaceOnUse" color-interpolation-filters="sRGB">
<feFlood flood-opacity="0" result="BackgroundImageFix"/>
<feColorMatrix in="SourceAlpha" type="matrix" values="0 0 0 0 0 0 0 0 0 0 0 0 0 0 0 0 0 0 127 0"/>
<feOffset/>
<feGaussianBlur stdDeviation="10"/>
<feColorMatrix type="matrix" values="0 0 0 0 0 0 0 0 0 0 0 0 0 0 0 0 0 0 0.12 0"/>
<feBlend mode="normal" in2="BackgroundImageFix" result="effect1_dropShadow"/>
<feBlend mode="normal" in="SourceGraphic" in2="effect1_dropShadow" result="shape"/>
</filter>
<filter id="filter3_d" x="290" y="248" width="88" height="88" filterUnits="userSpaceOnUse" color-interpolation-filters="sRGB">
<feFlood flood-opacity="0" result="BackgroundImageFix"/>
<feColorMatrix in="SourceAlpha" type="matrix" values="0 0 0 0 0 0 0 0 0 0 0 0 0 0 0 0 0 0 127 0"/>
<feOffset/>
<feGaussianBlur stdDeviation="10"/>
<feColorMatrix type="matrix" values="0 0 0 0 0 0 0 0 0 0 0 0 0 0 0 0 0 0 0.12 0"/>
<feBlend mode="normal" in2="BackgroundImageFix" result="effect1_dropShadow"/>
<feBlend mode="normal" in="SourceGraphic" in2="effect1_dropShadow" result="shape"/>
</filter>
<filter id="filter4_d" x="301" y="259" width="66" height="66" filterUnits="userSpaceOnUse" color-interpolation-filters="sRGB">
<feFlood flood-opacity="0" result="BackgroundImageFix"/>
<feColorMatrix in="SourceAlpha" type="matrix" values="0 0 0 0 0 0 0 0 0 0 0 0 0 0 0 0 0 0 127 0"/>
<feOffset/>
<feGaussianBlur stdDeviation="10"/>
<feColorMatrix type="matrix" values="0 0 0 0 0 0 0 0 0 0 0 0 0 0 0 0 0 0 0.12 0"/>
<feBlend mode="normal" in2="BackgroundImageFix" result="effect1_dropShadow"/>
<feBlend mode="normal" in="SourceGraphic" in2="effect1_dropShadow" result="shape"/>
</filter>
<filter id="filter5_d" x="1788" y="240" width="104" height="104" filterUnits="userSpaceOnUse" color-interpolation-filters="sRGB">
<feFlood flood-opacity="0" result="BackgroundImageFix"/>
<feColorMatrix in="SourceAlpha" type="matrix" values="0 0 0 0 0 0 0 0 0 0 0 0 0 0 0 0 0 0 127 0"/>
<feOffset/>
<feGaussianBlur stdDeviation="10"/>
<feColorMatrix type="matrix" values="0 0 0 0 0 0 0 0 0 0 0 0 0 0 0 0 0 0 0.12 0"/>
<feBlend mode="normal" in2="BackgroundImageFix" result="effect1_dropShadow"/>
<feBlend mode="normal" in="SourceGraphic" in2="effect1_dropShadow" result="shape"/>
</filter>
<filter id="filter6_d" x="1796" y="248" width="88" height="88" filterUnits="userSpaceOnUse" color-interpolation-filters="sRGB">
<feFlood flood-opacity="0" result="BackgroundImageFix"/>
<feColorMatrix in="SourceAlpha" type="matrix" values="0 0 0 0 0 0 0 0 0 0 0 0 0 0 0 0 0 0 127 0"/>
<feOffset/>
<feGaussianBlur stdDeviation="10"/>
<feColorMatrix type="matrix" values="0 0 0 0 0 0 0 0 0 0 0 0 0 0 0 0 0 0 0.12 0"/>
<feBlend mode="normal" in2="BackgroundImageFix" result="effect1_dropShadow"/>
<feBlend mode="normal" in="SourceGraphic" in2="effect1_dropShadow" result="shape"/>
</filter>
<filter id="filter7_d" x="1807" y="259" width="66" height="66" filterUnits="userSpaceOnUse" color-interpolation-filters="sRGB">
<feFlood flood-opacity="0" result="BackgroundImageFix"/>
<feColorMatrix in="SourceAlpha" type="matrix" values="0 0 0 0 0 0 0 0 0 0 0 0 0 0 0 0 0 0 127 0"/>
<feOffset/>
<feGaussianBlur stdDeviation="10"/>
<feColorMatrix type="matrix" values="0 0 0 0 0 0 0 0 0 0 0 0 0 0 0 0 0 0 0.12 0"/>
<feBlend mode="normal" in2="BackgroundImageFix" result="effect1_dropShadow"/>
<feBlend mode="normal" in="SourceGraphic" in2="effect1_dropShadow" result="shape"/>
</filter>
</defs>
</svg>
