<?xml version="1.0" encoding="utf-8"?>
<!-- Generator: Adobe Illustrator 16.0.0, SVG Export Plug-In . SVG Version: 6.00 Build 0)  -->
<!DOCTYPE svg PUBLIC "-//W3C//DTD SVG 1.1//EN" "http://www.w3.org/Graphics/SVG/1.1/DTD/svg11.dtd">
<svg version="1.1" id="Layer_1" xmlns="http://www.w3.org/2000/svg" xmlns:xlink="http://www.w3.org/1999/xlink" x="0px" y="0px"
	 width="23.451px" height="19.167px" viewBox="0 0.893 23.451 19.167" enable-background="new 0 0.893 23.451 19.167"
	 xml:space="preserve">
<g>
	<path fill="#FFFFFF" d="M6.364,4.576c-1.142,0-2.067,0.927-2.067,2.067V16.2c0,1.141,0.926,2.067,2.067,2.067h9.557
		c1.143,0,2.066-0.927,2.066-2.067V6.646c0-1.143-0.925-2.068-2.066-2.068L6.364,4.576L6.364,4.576z M8.036,6.28
		c0.704,0,1.137,0.465,1.15,1.07c0,0.596-0.447,1.068-1.165,1.068H8.009c-0.691,0-1.138-0.473-1.138-1.068
		C6.871,6.745,7.332,6.28,8.036,6.28L8.036,6.28z M14.104,9.12c1.354,0,2.369,0.885,2.369,2.786v3.549h-2.057v-3.312
		c0-0.831-0.3-1.398-1.043-1.398c-0.569,0-0.907,0.382-1.057,0.752c-0.054,0.133-0.069,0.318-0.069,0.503v3.455h-2.056
		c0,0,0.026-5.606,0-6.188h2.056v0.877C12.521,9.722,13.009,9.12,14.104,9.12z M6.993,9.267H9.05v6.188H6.993V9.267z"/>
</g>
<rect x="12.87" y="37.149" fill="none" width="35.906" height="40.485"/>
<text transform="matrix(1 0 0 1 25.4404 39.2803)" fill="#FFFFFF" font-family="'MyriadPro-Regular'" font-size="3">LinkedIn</text>
</svg>
