<?xml version="1.0" encoding="utf-8"?>
<!-- Generator: Adobe Illustrator 16.0.0, SVG Export Plug-In . SVG Version: 6.00 Build 0)  -->
<!DOCTYPE svg PUBLIC "-//W3C//DTD SVG 1.1//EN" "http://www.w3.org/Graphics/SVG/1.1/DTD/svg11.dtd">
<svg version="1.1" id="Layer_1" xmlns="http://www.w3.org/2000/svg" xmlns:xlink="http://www.w3.org/1999/xlink" x="0px" y="0px"
	 width="52.333px" height="42.808px" viewBox="0 0 52.333 42.808" enable-background="new 0 0 52.333 42.808" xml:space="preserve">
<g>
	<rect x="14.239" y="9.949" fill="none" width="23.821" height="23.82"/>
	<path fill="#FFFFFF" d="M34.75,26.464c-1.42-1.212-2.857-1.946-4.26-0.735l-0.837,0.731c-0.61,0.532-1.75,3.017-6.149-2.046
		c-4.397-5.055-1.78-5.842-1.168-6.369l0.842-0.732c1.394-1.214,0.867-2.742-0.139-4.315l-0.605-0.953
		c-1.01-1.569-2.108-2.601-3.506-1.388l-0.755,0.66c-0.618,0.45-2.345,1.912-2.764,4.689c-0.503,3.333,1.087,7.15,4.729,11.338
		c3.638,4.19,7.198,6.297,10.571,6.258c2.805-0.029,4.496-1.533,5.026-2.08l0.759-0.662c1.393-1.211,0.526-2.443-0.894-3.659
		L34.75,26.464z"/>
</g>
<rect x="13.146" y="37.15" fill="none" width="35.907" height="40.486"/>
<text transform="matrix(1 0 0 1 17.7842 39.2793)" fill="#FFFFFF" font-family="'MyriadPro-Regular'" font-size="3">978.844.4239</text>
</svg>
