<svg width="243" height="270" viewBox="0 0 243 270" fill="none" xmlns="http://www.w3.org/2000/svg">
<mask id="mask0" mask-type="alpha" maskUnits="userSpaceOnUse" x="39" y="48" width="154" height="175">
<circle cx="116" cy="145.401" r="76.5991" fill="#C4C4C4"/>
<circle cx="116.001" cy="124.599" r="76.5991" fill="#C4C4C4"/>
</mask>
<g mask="url(#mask0)">
<path fill-rule="evenodd" clip-rule="evenodd" d="M191.938 122.746H172.07C164.794 122.746 158.895 128.644 158.895 135.921C158.895 143.197 164.794 149.096 172.07 149.096H194.539C193.72 160.357 190.481 170.947 185.34 180.348H127.49C125.544 180.348 123.966 181.925 123.966 183.871C123.966 185.817 125.544 187.395 127.49 187.395H180.978C167.058 207.395 143.9 220.486 117.686 220.486C100.39 220.486 84.4253 214.787 71.5662 205.166H98.5351C102.089 205.166 104.969 202.285 104.969 198.732C104.969 195.178 102.089 192.298 98.5351 192.298H58.1034C53.1424 186.256 49.0822 179.447 46.1281 172.075H143.729C147.875 172.075 151.235 168.714 151.235 164.568C151.235 160.423 147.875 157.062 143.729 157.062H41.8295C41.0393 152.636 40.627 148.08 40.627 143.427C40.627 138.451 41.0985 133.586 41.9993 128.873H77.0874C80.641 128.873 83.5218 125.993 83.5218 122.439C83.5218 118.885 80.641 116.005 77.0874 116.005H45.649C46.94 112.615 48.4632 109.341 50.1993 106.2H133.005C139.35 106.2 144.494 101.056 144.494 94.7102C144.494 88.3645 139.35 83.2203 133.005 83.2203H69.5851C82.7682 72.6744 99.4904 66.3682 117.686 66.3682C148.097 66.3682 174.394 83.985 186.928 109.57H156.291C154.515 109.57 153.074 111.011 153.074 112.787C153.074 114.564 154.515 116.005 156.291 116.005H189.722C190.56 118.205 191.301 120.454 191.938 122.746Z" fill="#BDE8FF"/>
<g filter="url(#filter0_d)">
<path d="M76.1689 201.489C76.1689 178.645 94.688 160.126 117.532 160.126V160.126C140.377 160.126 158.896 178.645 158.896 201.49V245.304H76.1689V201.489Z" fill="#2B6AA5"/>
<circle cx="117.532" cy="196.28" r="2.45117" fill="#BCD3FF"/>
<circle cx="117.532" cy="210.375" r="2.45117" fill="#BCD3FF"/>
<path fill-rule="evenodd" clip-rule="evenodd" d="M128.648 181.431C125.582 183.824 121.724 185.25 117.533 185.25C113.341 185.25 109.483 183.824 106.417 181.431C103.028 181.967 99.4551 179.463 99.4551 175.491V165.947H99.4961C100.126 156.535 107.961 149.096 117.533 149.096C127.105 149.096 134.939 156.535 135.569 165.947H135.61V167.101C135.61 167.125 135.61 167.149 135.61 167.173C135.61 167.197 135.61 167.221 135.61 167.245V175.491C135.61 179.463 132.037 181.967 128.648 181.431Z" fill="#021C4E"/>
<rect x="104.97" y="110.796" width="25.1245" height="69.552" rx="12.5623" fill="#FFDCB0"/>
<rect x="104.97" y="110.796" width="25.1245" height="51.4746" rx="12.5623" fill="#EAC495"/>
<path d="M90.11 100.838C90.11 105.238 90.931 109.418 88.7312 109.418C86.5314 109.418 83.5225 105.238 83.5225 100.838C83.5225 96.4388 85.459 93.6382 87.6588 93.6382C89.8586 93.6382 90.11 96.4388 90.11 100.838Z" fill="url(#paint0_linear)"/>
<path d="M144.645 100.838C144.645 105.238 143.824 109.418 146.024 109.418C148.224 109.418 151.232 105.238 151.232 100.838C151.232 96.4388 149.296 93.6382 147.096 93.6382C144.896 93.6382 144.645 96.4388 144.645 100.838Z" fill="url(#paint1_linear)"/>
<circle r="33.0908" transform="matrix(-1 0 0 1 117.532 86.2842)" fill="url(#paint2_linear)"/>
<path fill-rule="evenodd" clip-rule="evenodd" d="M87.8029 90.0588C86.3244 72.698 100.017 57.7896 117.441 57.7896V57.7896C134.931 57.7896 148.646 72.8073 147.064 90.2259L143.779 126.377C143.059 134.312 139.338 141.674 133.377 146.96L132.518 147.721C123.886 155.376 110.992 155.694 101.992 148.473V148.473C95.6764 143.405 91.7129 135.97 91.0257 127.901L87.8029 90.0588Z" fill="#FFDCB0"/>
<path fill-rule="evenodd" clip-rule="evenodd" d="M87.7184 86.2681C87.7366 86.7128 87.7646 87.1593 87.8028 87.6075L91.0256 125.45C91.7128 133.519 95.6763 140.954 101.992 146.022C110.992 153.243 123.886 152.925 132.518 145.27L133.376 144.509C139.338 139.222 143.058 131.861 143.779 123.926L147.064 87.7747C147.11 87.2697 147.143 86.7667 147.163 86.2661C147.217 87.5682 147.185 88.8901 147.064 90.2262L143.779 126.377C143.058 134.313 139.338 141.674 133.376 146.96L132.518 147.721C123.886 155.377 110.992 155.694 101.992 148.473C95.6763 143.405 91.7128 135.97 91.0256 127.902L87.8028 90.059C87.6939 88.7804 87.6673 87.5151 87.7184 86.2681Z" fill="#FFD29A"/>
<circle cx="101.293" cy="124.278" r="8.2727" fill="url(#paint3_radial)"/>
<circle cx="133.772" cy="124.278" r="8.2727" fill="url(#paint4_radial)"/>
<rect x="96.9941" y="108.803" width="7.00066" height="15.8682" rx="3.50033" transform="rotate(-100 96.9941 108.803)" fill="#FBCC91"/>
<rect x="99.1484" y="105.894" width="9.80468" height="11.3367" rx="4.90234" fill="white"/>
<path fill-rule="evenodd" clip-rule="evenodd" d="M101.868 111.753C101.696 112.113 101.6 112.516 101.6 112.941V113.247C101.6 114.77 102.834 116.005 104.357 116.005C105.88 116.005 107.115 114.77 107.115 113.247V112.941C107.115 111.521 106.042 110.353 104.663 110.2C104.655 111.208 103.835 112.022 102.825 112.022C102.474 112.022 102.147 111.924 101.868 111.753Z" fill="#00186C"/>
<rect x="98.7217" y="104.568" width="4.59595" height="10.4175" rx="2.29797" transform="rotate(-100 98.7217 104.568)" fill="#6D350E"/>
<rect x="100.106" y="101.835" width="1.22559" height="4.90234" rx="0.612793" transform="rotate(-100 100.106 101.835)" fill="#85522F"/>
<rect width="7.00066" height="15.8682" rx="3.50033" transform="matrix(0.173648 -0.984808 -0.984808 -0.173648 139.594 108.802)" fill="#FBCC91"/>
<rect width="9.80468" height="11.3367" rx="4.90234" transform="matrix(-1 0 0 1 137.439 105.894)" fill="white"/>
<path fill-rule="evenodd" clip-rule="evenodd" d="M132.843 110.25C134.071 110.528 134.988 111.627 134.988 112.939V113.246C134.988 114.769 133.754 116.003 132.231 116.003C130.708 116.003 129.473 114.769 129.473 113.246V112.939C129.473 112.45 129.601 111.99 129.824 111.591C130.144 111.86 130.556 112.021 131.006 112.021C131.998 112.021 132.807 111.234 132.843 110.25Z" fill="#00186C"/>
<rect width="4.59595" height="10.4175" rx="2.29797" transform="matrix(0.173648 -0.984808 -0.984808 -0.173648 137.867 104.568)" fill="#6D350E"/>
<rect width="1.22559" height="4.90234" rx="0.612793" transform="matrix(0.173648 -0.984808 -0.984808 -0.173648 136.482 101.835)" fill="#85522F"/>
<rect x="113.855" y="111.716" width="7.96631" height="14.707" rx="3.98315" fill="#F2C182"/>
<circle cx="95.7786" cy="86.2844" r="4.59595" fill="#FFEBD2"/>
<path d="M117.225 144.806C113.004 144.806 109.716 141.692 107.805 139.286C106.867 138.104 107.764 136.533 109.273 136.533H125.177C126.686 136.533 127.583 138.104 126.644 139.286C124.734 141.692 121.446 144.806 117.225 144.806Z" fill="white"/>
<path fill-rule="evenodd" clip-rule="evenodd" d="M108.191 136.851C107.409 137.37 107.125 138.431 107.805 139.287C109.716 141.694 113.003 144.807 117.225 144.807C121.446 144.807 124.734 141.694 126.644 139.287C127.324 138.431 127.04 137.37 126.258 136.851C123.796 137.715 120.652 138.233 117.225 138.233C113.798 138.233 110.653 137.715 108.191 136.851Z" fill="#C90A4E"/>
</g>
<mask id="mask1" mask-type="alpha" maskUnits="userSpaceOnUse" x="86" y="58" width="62" height="99">
<path fill-rule="evenodd" clip-rule="evenodd" d="M86.6362 91.0707C85.6465 73.4995 99.6927 58.708 117.292 58.708V58.708C134.891 58.708 148.937 73.4991 147.947 91.0701L145.583 133.058C145.142 140.898 140.451 147.87 133.356 151.233L127.828 153.853C121.184 157.003 113.478 157.003 106.834 153.855L101.23 151.2C94.1326 147.837 89.4408 140.865 88.9992 133.024L86.6362 91.0707Z" fill="#FFDCB0"/>
</mask>
<g mask="url(#mask1)">
<path fill-rule="evenodd" clip-rule="evenodd" d="M132.334 55.171C133.302 55.37 134.077 56.0629 134.513 56.9492C137.128 62.2705 141.891 66.5824 147.839 69.0374C149.233 69.6128 150.183 71.0584 149.517 72.4117C146.377 78.7975 135.061 83.5259 121.582 83.5259C105.675 83.5259 92.7803 76.9413 92.7803 68.8188C92.7803 60.6964 105.675 54.1118 121.582 54.1118C125.383 54.1118 129.012 54.4878 132.334 55.171Z" fill="#E09C76"/>
</g>
<path fill-rule="evenodd" clip-rule="evenodd" d="M128.823 52.1299C132.018 52.5524 134.474 54.9217 136.328 57.5582C138.004 59.9405 140.144 62.0424 142.638 63.7656C146.687 66.5637 149.569 71.3957 145.686 74.4204C140.542 78.4281 131.667 81.0752 121.582 81.0752C105.675 81.0752 92.7803 74.4906 92.7803 66.3682C92.7803 58.2457 105.675 51.6611 121.582 51.6611C124.083 51.6611 126.509 51.8239 128.823 52.1299Z" fill="#874213"/>
</g>
<defs>
<filter id="filter0_d" x="71.1689" y="48.1934" width="122.727" height="232.111" filterUnits="userSpaceOnUse" color-interpolation-filters="sRGB">
<feFlood flood-opacity="0" result="BackgroundImageFix"/>
<feColorMatrix in="SourceAlpha" type="matrix" values="0 0 0 0 0 0 0 0 0 0 0 0 0 0 0 0 0 0 127 0"/>
<feOffset dx="15" dy="15"/>
<feGaussianBlur stdDeviation="10"/>
<feColorMatrix type="matrix" values="0 0 0 0 0 0 0 0 0 0 0 0 0 0 0 0 0 0 0.32 0"/>
<feBlend mode="normal" in2="BackgroundImageFix" result="effect1_dropShadow"/>
<feBlend mode="normal" in="SourceGraphic" in2="effect1_dropShadow" result="shape"/>
</filter>
<linearGradient id="paint0_linear" x1="92.0983" y1="101.451" x2="83.5192" y2="101.451" gradientUnits="userSpaceOnUse">
<stop stop-color="#D9A25C"/>
<stop offset="1" stop-color="#FFDCB0"/>
</linearGradient>
<linearGradient id="paint1_linear" x1="142.657" y1="101.451" x2="151.236" y2="101.451" gradientUnits="userSpaceOnUse">
<stop stop-color="#D9A25C"/>
<stop offset="1" stop-color="#FFDCB0"/>
</linearGradient>
<linearGradient id="paint2_linear" x1="33.0908" y1="33.0908" x2="33.0908" y2="45.4119" gradientUnits="userSpaceOnUse">
<stop stop-color="#874213"/>
<stop offset="1" stop-color="#4D3006"/>
</linearGradient>
<radialGradient id="paint3_radial" cx="0" cy="0" r="1" gradientUnits="userSpaceOnUse" gradientTransform="translate(101.293 124.278) rotate(90) scale(7.20032)">
<stop stop-color="#F7C89D" stop-opacity="0.83"/>
<stop offset="1" stop-color="#FFDCB0"/>
</radialGradient>
<radialGradient id="paint4_radial" cx="0" cy="0" r="1" gradientUnits="userSpaceOnUse" gradientTransform="translate(133.772 124.278) rotate(90) scale(7.20032)">
<stop stop-color="#F7C89D" stop-opacity="0.83"/>
<stop offset="1" stop-color="#FFDCB0"/>
</radialGradient>
</defs>
</svg>
