<?xml version="1.0" encoding="UTF-8"?>
<svg width="954px" height="139px" viewBox="0 0 954 139" version="1.1" xmlns="http://www.w3.org/2000/svg" xmlns:xlink="http://www.w3.org/1999/xlink" style="background: #FFFFFF;">
    <!-- Generator: Sketch 49.3 (51167) - http://www.bohemiancoding.com/sketch -->
    <title>icons copy</title>
    <desc>Created with Sketch.</desc>
    <defs>
        <linearGradient x1="18.1132935%" y1="-37.5785649%" x2="75.7757938%" y2="50%" id="linearGradient-1">
            <stop stop-color="#18A2AE" offset="0%"></stop>
            <stop stop-color="#188CAA" offset="100%"></stop>
        </linearGradient>
    </defs>
    <g id="icons-copy" stroke="none" stroke-width="1" fill="none" fill-rule="evenodd">
        <g id="Group-4" transform="translate(198.000000, 32.000000)">
            <path d="M29.3823242,68.3408203 C29.3823242,69.220382 29.063317,69.9062475 28.425293,70.3984375 C27.7872689,70.8906275 26.9213922,71.1367188 25.8276367,71.1367188 C24.642735,71.1367188 23.7312857,70.984051 23.0932617,70.6787109 L23.0932617,69.5576172 C23.50342,69.7307951 23.9500301,69.8675125 24.4331055,69.9677734 C24.9161808,70.0680344 25.3946916,70.1181641 25.8686523,70.1181641 C26.6433958,70.1181641 27.2267233,69.9711929 27.6186523,69.6772461 C28.0105814,69.3832993 28.206543,68.9742865 28.206543,68.4501953 C28.206543,68.1038394 28.137045,67.8201508 27.9980469,67.5991211 C27.8590488,67.3780913 27.6266292,67.1741546 27.3007812,66.9873047 C26.9749333,66.8004548 26.4793328,66.5885429 25.8139648,66.3515625 C24.8842727,66.0188785 24.2200541,65.6246768 23.8212891,65.1689453 C23.422524,64.7132139 23.2231445,64.1184933 23.2231445,63.3847656 C23.2231445,62.6145795 23.5125297,62.0016299 24.0913086,61.5458984 C24.6700875,61.090167 25.4357049,60.8623047 26.3881836,60.8623047 C27.3816781,60.8623047 28.295406,61.0445945 29.1293945,61.4091797 L28.7670898,62.4208984 C27.9422159,62.0745425 27.1401406,61.9013672 26.3608398,61.9013672 C25.7456024,61.9013672 25.2648129,62.0335273 24.918457,62.2978516 C24.5721011,62.5621758 24.3989258,62.9290341 24.3989258,63.3984375 C24.3989258,63.7447934 24.4627272,64.028482 24.590332,64.2495117 C24.7179368,64.4705415 24.9332667,64.6733389 25.2363281,64.8579102 C25.5393895,65.0424814 26.0030893,65.2464182 26.6274414,65.4697266 C27.6756237,65.8434263 28.3968079,66.244464 28.7910156,66.6728516 C29.1852233,67.1012391 29.3823242,67.6572231 29.3823242,68.3408203 Z M36.3823242,71 L36.3823242,66.1533203 C36.3823242,65.5426402 36.2433282,65.0869156 35.965332,64.7861328 C35.6873358,64.4853501 35.2521188,64.3349609 34.659668,64.3349609 C33.8758099,64.3349609 33.3015969,64.5468729 32.9370117,64.9707031 C32.5724266,65.3945334 32.3901367,66.0940706 32.3901367,67.0693359 L32.3901367,71 L31.2553711,71 L31.2553711,63.5078125 L32.1782227,63.5078125 L32.362793,64.5332031 L32.4174805,64.5332031 C32.6499035,64.1640607 32.9757466,63.8780935 33.3950195,63.675293 C33.8142925,63.4724925 34.2814102,63.3710938 34.7963867,63.3710938 C35.698735,63.3710938 36.3777646,63.5887023 36.8334961,64.0239258 C37.2892275,64.4591493 37.5170898,65.1552687 37.5170898,66.1123047 L37.5170898,71 L36.3823242,71 Z M44.4555664,71 L44.2299805,69.9335938 L44.175293,69.9335938 C43.8015932,70.4029971 43.4290383,70.7208651 43.0576172,70.887207 C42.6861961,71.053549 42.2224963,71.1367188 41.6665039,71.1367188 C40.9236617,71.1367188 40.3414735,70.9453144 39.9199219,70.5625 C39.4983703,70.1796856 39.2875977,69.6350947 39.2875977,68.9287109 C39.2875977,67.4156825 40.4975465,66.6227217 42.9174805,66.5498047 L44.1889648,66.5087891 L44.1889648,66.0439453 C44.1889648,65.4560517 44.0625013,65.0219741 43.8095703,64.7416992 C43.5566394,64.4614244 43.1521838,64.3212891 42.5961914,64.3212891 C41.9718393,64.3212891 41.2654662,64.5126934 40.4770508,64.8955078 L40.128418,64.0273438 C40.4975604,63.8268219 40.902016,63.6695969 41.3417969,63.5556641 C41.7815777,63.4417312 42.2224913,63.3847656 42.6645508,63.3847656 C43.5577844,63.3847656 44.2197244,63.5830058 44.6503906,63.9794922 C45.0810568,64.3759785 45.2963867,65.0117144 45.2963867,65.8867188 L45.2963867,71 L44.4555664,71 Z M41.8920898,70.2001953 C42.5984736,70.2001953 43.1533183,70.0065124 43.5566406,69.6191406 C43.959963,69.2317689 44.1616211,68.6894566 44.1616211,67.9921875 L44.1616211,67.3154297 L43.0268555,67.3632812 C42.1245072,67.3951825 41.4739603,67.5353178 41.0751953,67.7836914 C40.6764303,68.032065 40.4770508,68.4182917 40.4770508,68.9423828 C40.4770508,69.3525411 40.6012357,69.6647125 40.8496094,69.8789062 C41.097983,70.0931 41.445473,70.2001953 41.8920898,70.2001953 Z M50.0541992,70.2001953 C50.2547211,70.2001953 50.448404,70.1853843 50.6352539,70.1557617 C50.8221038,70.1261392 50.9702143,70.0953778 51.0795898,70.0634766 L51.0795898,70.9316406 C50.9565424,70.9908857 50.7753918,71.0398761 50.5361328,71.0786133 C50.2968738,71.1173505 50.0815439,71.1367188 49.8901367,71.1367188 C48.4409107,71.1367188 47.7163086,70.37338 47.7163086,68.8466797 L47.7163086,64.3896484 L46.6430664,64.3896484 L46.6430664,63.8427734 L47.7163086,63.3710938 L48.1948242,61.7714844 L48.8510742,61.7714844 L48.8510742,63.5078125 L51.0249023,63.5078125 L51.0249023,64.3896484 L48.8510742,64.3896484 L48.8510742,68.7988281 C48.8510742,69.2500023 48.9581695,69.596353 49.1723633,69.8378906 C49.3865571,70.0794283 49.6804994,70.2001953 50.0541992,70.2001953 Z M55.5708008,71.1367188 C54.4861599,71.1367188 53.6464873,70.8029005 53.0517578,70.1352539 C52.4570283,69.4676073 52.159668,68.5231181 52.159668,67.3017578 C52.159668,66.0484963 52.4615855,65.0800815 53.0654297,64.3964844 C53.6692739,63.7128872 54.5294541,63.3710938 55.6459961,63.3710938 C56.0060239,63.3710938 56.3660464,63.4098303 56.7260742,63.4873047 C57.0861021,63.564779 57.3686513,63.655924 57.5737305,63.7607422 L57.2250977,64.7246094 C56.9744454,64.6243485 56.7010106,64.5411787 56.4047852,64.4750977 C56.1085597,64.4090166 55.8465181,64.3759766 55.6186523,64.3759766 C54.0965093,64.3759766 53.3354492,65.34667 53.3354492,67.2880859 C53.3354492,68.2086635 53.521157,68.9150366 53.8925781,69.4072266 C54.2639993,69.8994165 54.8142867,70.1455078 55.543457,70.1455078 C56.1678091,70.1455078 56.8081022,70.0110691 57.4643555,69.7421875 L57.4643555,70.7470703 C56.9630509,71.0068372 56.3318723,71.1367188 55.5708008,71.1367188 Z M64.3686523,71 L64.3686523,66.1533203 C64.3686523,65.5426402 64.2296563,65.0869156 63.9516602,64.7861328 C63.673664,64.4853501 63.238447,64.3349609 62.6459961,64.3349609 C61.8575807,64.3349609 61.2822284,64.5491515 60.9199219,64.9775391 C60.5576154,65.4059266 60.3764648,66.1077425 60.3764648,67.0830078 L60.3764648,71 L59.2416992,71 L59.2416992,60.3632812 L60.3764648,60.3632812 L60.3764648,63.5830078 C60.3764648,63.9703795 60.3582359,64.2916654 60.3217773,64.546875 L60.3901367,64.546875 C60.6134451,64.1868472 60.931313,63.9031586 61.34375,63.6958008 C61.756187,63.488443 62.2267226,63.3847656 62.7553711,63.3847656 C63.6713913,63.3847656 64.3583961,63.6023741 64.8164062,64.0375977 C65.2744164,64.4728212 65.503418,65.1643833 65.503418,66.1123047 L65.503418,71 L64.3686523,71 Z" id="Snatch" fill="#121212"></path>
            <path d="M196.850098,61.9013672 C195.751785,61.9013672 194.884769,62.2670862 194.249023,62.9985352 C193.613278,63.7299841 193.29541,64.731439 193.29541,66.0029297 C193.29541,67.3108789 193.601885,68.3214483 194.214844,69.034668 C194.827803,69.7478877 195.701654,70.1044922 196.836426,70.1044922 C197.533695,70.1044922 198.328934,69.9791679 199.222168,69.7285156 L199.222168,70.7470703 C198.529456,71.0068372 197.674973,71.1367188 196.658691,71.1367188 C195.186679,71.1367188 194.050785,70.6901086 193.250977,69.796875 C192.451168,68.9036414 192.05127,67.6344483 192.05127,65.9892578 C192.05127,64.9593047 192.243813,64.05697 192.628906,63.2822266 C193.013999,62.5074831 193.569983,61.9104839 194.296875,61.4912109 C195.023767,61.071938 195.87939,60.8623047 196.86377,60.8623047 C197.911952,60.8623047 198.827958,61.053709 199.611816,61.4365234 L199.119629,62.4345703 C198.363115,62.0790998 197.606612,61.9013672 196.850098,61.9013672 Z M202.366699,71 L201.231934,71 L201.231934,60.3632812 L202.366699,60.3632812 L202.366699,71 Z M207.937988,71.1367188 C206.830561,71.1367188 205.956709,70.7994825 205.316406,70.125 C204.676104,69.4505175 204.355957,68.5140034 204.355957,67.3154297 C204.355957,66.1077414 204.653317,65.1484411 205.248047,64.4375 C205.842776,63.7265589 206.641434,63.3710938 207.644043,63.3710938 C208.58285,63.3710938 209.325681,63.6798472 209.872559,64.2973633 C210.419436,64.9148794 210.692871,65.7294871 210.692871,66.7412109 L210.692871,67.4589844 L205.531738,67.4589844 C205.554525,68.3385461 205.776691,69.0061826 206.198242,69.4619141 C206.619794,69.9176455 207.213375,70.1455078 207.979004,70.1455078 C208.785649,70.1455078 209.583167,69.9768897 210.371582,69.6396484 L210.371582,70.6513672 C209.970538,70.8245451 209.591148,70.9487301 209.233398,71.0239258 C208.875649,71.0991215 208.44385,71.1367188 207.937988,71.1367188 Z M207.630371,64.3212891 C207.028806,64.3212891 206.549155,64.5172506 206.191406,64.9091797 C205.833657,65.3011087 205.622884,65.843421 205.559082,66.5361328 L209.476074,66.5361328 C209.476074,65.8206344 209.316571,65.2726256 208.997559,64.8920898 C208.678547,64.5115541 208.222822,64.3212891 207.630371,64.3212891 Z M217.234863,71 L217.009277,69.9335938 L216.95459,69.9335938 C216.58089,70.4029971 216.208335,70.7208651 215.836914,70.887207 C215.465493,71.053549 215.001793,71.1367188 214.445801,71.1367188 C213.702959,71.1367188 213.12077,70.9453144 212.699219,70.5625 C212.277667,70.1796856 212.066895,69.6350947 212.066895,68.9287109 C212.066895,67.4156825 213.276843,66.6227217 215.696777,66.5498047 L216.968262,66.5087891 L216.968262,66.0439453 C216.968262,65.4560517 216.841798,65.0219741 216.588867,64.7416992 C216.335936,64.4614244 215.931481,64.3212891 215.375488,64.3212891 C214.751136,64.3212891 214.044763,64.5126934 213.256348,64.8955078 L212.907715,64.0273438 C213.276857,63.8268219 213.681313,63.6695969 214.121094,63.5556641 C214.560875,63.4417312 215.001788,63.3847656 215.443848,63.3847656 C216.337081,63.3847656 216.999021,63.5830058 217.429688,63.9794922 C217.860354,64.3759785 218.075684,65.0117144 218.075684,65.8867188 L218.075684,71 L217.234863,71 Z M214.671387,70.2001953 C215.37777,70.2001953 215.932615,70.0065124 216.335938,69.6191406 C216.73926,69.2317689 216.940918,68.6894566 216.940918,67.9921875 L216.940918,67.3154297 L215.806152,67.3632812 C214.903804,67.3951825 214.253257,67.5353178 213.854492,67.7836914 C213.455727,68.032065 213.256348,68.4182917 213.256348,68.9423828 C213.256348,69.3525411 213.380533,69.6647125 213.628906,69.8789062 C213.87728,70.0931 214.22477,70.2001953 214.671387,70.2001953 Z M225.540527,71 L225.540527,66.1533203 C225.540527,65.5426402 225.401531,65.0869156 225.123535,64.7861328 C224.845539,64.4853501 224.410322,64.3349609 223.817871,64.3349609 C223.034013,64.3349609 222.4598,64.5468729 222.095215,64.9707031 C221.73063,65.3945334 221.54834,66.0940706 221.54834,67.0693359 L221.54834,71 L220.413574,71 L220.413574,63.5078125 L221.336426,63.5078125 L221.520996,64.5332031 L221.575684,64.5332031 C221.808107,64.1640607 222.13395,63.8780935 222.553223,63.675293 C222.972496,63.4724925 223.439613,63.3710938 223.95459,63.3710938 C224.856938,63.3710938 225.535968,63.5887023 225.991699,64.0239258 C226.447431,64.4591493 226.675293,65.1552687 226.675293,66.1123047 L226.675293,71 L225.540527,71 Z" id="Clean" fill="#121212"></path>
            <path d="M350.532227,71 L349.370117,71 L349.370117,62.0380859 L346.205078,62.0380859 L346.205078,61.0058594 L353.697266,61.0058594 L353.697266,62.0380859 L350.532227,62.0380859 L350.532227,71 Z M360.157227,71 L360.157227,66.1533203 C360.157227,65.5426402 360.018231,65.0869156 359.740234,64.7861328 C359.462238,64.4853501 359.027021,64.3349609 358.43457,64.3349609 C357.646155,64.3349609 357.070803,64.5491515 356.708496,64.9775391 C356.34619,65.4059266 356.165039,66.1077425 356.165039,67.0830078 L356.165039,71 L355.030273,71 L355.030273,60.3632812 L356.165039,60.3632812 L356.165039,63.5830078 C356.165039,63.9703795 356.14681,64.2916654 356.110352,64.546875 L356.178711,64.546875 C356.402019,64.1868472 356.719887,63.9031586 357.132324,63.6958008 C357.544761,63.488443 358.015297,63.3847656 358.543945,63.3847656 C359.459966,63.3847656 360.14697,63.6023741 360.60498,64.0375977 C361.062991,64.4728212 361.291992,65.1643833 361.291992,66.1123047 L361.291992,71 L360.157227,71 Z M367.041016,63.3710938 C367.3737,63.3710938 367.672199,63.3984372 367.936523,63.453125 L367.779297,64.5058594 C367.469399,64.4374997 367.195965,64.4033203 366.958984,64.4033203 C366.352862,64.4033203 365.834475,64.6494116 365.403809,65.1416016 C364.973142,65.6337915 364.757812,66.2467411 364.757812,66.9804688 L364.757812,71 L363.623047,71 L363.623047,63.5078125 L364.55957,63.5078125 L364.689453,64.8955078 L364.744141,64.8955078 C365.022137,64.4078752 365.357094,64.0319024 365.749023,63.7675781 C366.140952,63.5032539 366.571612,63.3710938 367.041016,63.3710938 Z M370.404297,63.5078125 L370.404297,68.3681641 C370.404297,68.9788442 370.543293,69.4345688 370.821289,69.7353516 C371.099285,70.0361343 371.534502,70.1865234 372.126953,70.1865234 C372.910811,70.1865234 373.483885,69.9723329 373.846191,69.5439453 C374.208498,69.1155578 374.389648,68.4160205 374.389648,67.4453125 L374.389648,63.5078125 L375.524414,63.5078125 L375.524414,71 L374.587891,71 L374.423828,69.9951172 L374.362305,69.9951172 C374.129882,70.3642597 373.807456,70.6468089 373.39502,70.8427734 C372.982583,71.038738 372.512047,71.1367188 371.983398,71.1367188 C371.071936,71.1367188 370.389488,70.9202496 369.936035,70.4873047 C369.482582,70.0543598 369.255859,69.3616584 369.255859,68.4091797 L369.255859,63.5078125 L370.404297,63.5078125 Z M382.763672,68.9560547 C382.763672,69.6533238 382.503909,70.1910788 381.984375,70.5693359 C381.464841,70.947593 380.735682,71.1367188 379.796875,71.1367188 C378.80338,71.1367188 378.028649,70.9794938 377.472656,70.6650391 L377.472656,69.6123047 C377.832684,69.7945973 378.218911,69.9381505 378.631348,70.0429688 C379.043785,70.147787 379.441404,70.2001953 379.824219,70.2001953 C380.41667,70.2001953 380.872394,70.1056325 381.191406,69.9165039 C381.510418,69.7273754 381.669922,69.4391295 381.669922,69.0517578 C381.669922,68.7600897 381.543458,68.5105805 381.290527,68.3032227 C381.037596,68.0958648 380.544275,67.8509129 379.810547,67.5683594 C379.113278,67.3085925 378.617677,67.0818695 378.32373,66.8881836 C378.029784,66.6944977 377.811036,66.4746106 377.66748,66.2285156 C377.523925,65.9824206 377.452148,65.6884783 377.452148,65.3466797 C377.452148,64.7359996 377.700518,64.2540708 378.197266,63.9008789 C378.694013,63.547687 379.375321,63.3710938 380.241211,63.3710938 C381.047856,63.3710938 381.836259,63.5351546 382.606445,63.8632812 L382.203125,64.7861328 C381.451168,64.4762354 380.76986,64.3212891 380.15918,64.3212891 C379.621417,64.3212891 379.215822,64.4055981 378.942383,64.5742188 C378.668944,64.7428394 378.532227,64.9752589 378.532227,65.2714844 C378.532227,65.4720062 378.583496,65.6429029 378.686035,65.7841797 C378.788575,65.9254564 378.953775,66.0598952 379.181641,66.1875 C379.409506,66.3151048 379.847002,66.4996733 380.494141,66.7412109 C381.382817,67.0647803 381.983234,67.3906234 382.29541,67.71875 C382.607586,68.0468766 382.763672,68.4593074 382.763672,68.9560547 Z M387.029297,70.2001953 C387.229819,70.2001953 387.423502,70.1853843 387.610352,70.1557617 C387.797201,70.1261392 387.945312,70.0953778 388.054688,70.0634766 L388.054688,70.9316406 C387.93164,70.9908857 387.750489,71.0398761 387.51123,71.0786133 C387.271971,71.1173505 387.056642,71.1367188 386.865234,71.1367188 C385.416008,71.1367188 384.691406,70.37338 384.691406,68.8466797 L384.691406,64.3896484 L383.618164,64.3896484 L383.618164,63.8427734 L384.691406,63.3710938 L385.169922,61.7714844 L385.826172,61.7714844 L385.826172,63.5078125 L388,63.5078125 L388,64.3896484 L385.826172,64.3896484 L385.826172,68.7988281 C385.826172,69.2500023 385.933267,69.596353 386.147461,69.8378906 C386.361655,70.0794283 386.655597,70.2001953 387.029297,70.2001953 Z M392.716797,71.1367188 C391.609369,71.1367188 390.735518,70.7994825 390.095215,70.125 C389.454912,69.4505175 389.134766,68.5140034 389.134766,67.3154297 C389.134766,66.1077414 389.432126,65.1484411 390.026855,64.4375 C390.621585,63.7265589 391.420242,63.3710938 392.422852,63.3710938 C393.361658,63.3710938 394.104489,63.6798472 394.651367,64.2973633 C395.198245,64.9148794 395.47168,65.7294871 395.47168,66.7412109 L395.47168,67.4589844 L390.310547,67.4589844 C390.333333,68.3385461 390.555499,69.0061826 390.977051,69.4619141 C391.398602,69.9176455 391.992184,70.1455078 392.757812,70.1455078 C393.564457,70.1455078 394.361975,69.9768897 395.150391,69.6396484 L395.150391,70.6513672 C394.749347,70.8245451 394.369956,70.9487301 394.012207,71.0239258 C393.654458,71.0991215 393.222659,71.1367188 392.716797,71.1367188 Z M392.40918,64.3212891 C391.807614,64.3212891 391.327964,64.5172506 390.970215,64.9091797 C390.612466,65.3011087 390.401693,65.843421 390.337891,66.5361328 L394.254883,66.5361328 C394.254883,65.8206344 394.095379,65.2726256 393.776367,64.8920898 C393.457355,64.5115541 393.001631,64.3212891 392.40918,64.3212891 Z M400.824219,63.3710938 C401.156903,63.3710938 401.455402,63.3984372 401.719727,63.453125 L401.5625,64.5058594 C401.252603,64.4374997 400.979168,64.4033203 400.742188,64.4033203 C400.136065,64.4033203 399.617678,64.6494116 399.187012,65.1416016 C398.756346,65.6337915 398.541016,66.2467411 398.541016,66.9804688 L398.541016,71 L397.40625,71 L397.40625,63.5078125 L398.342773,63.5078125 L398.472656,64.8955078 L398.527344,64.8955078 C398.80534,64.4078752 399.140298,64.0319024 399.532227,63.7675781 C399.924156,63.5032539 400.354815,63.3710938 400.824219,63.3710938 Z" id="Thruster" fill="#121212"></path>
            <path d="M514.820801,63.9179688 C514.820801,64.9296926 514.475589,65.7078423 513.785156,66.2524414 C513.094723,66.7970405 512.10694,67.0693359 510.821777,67.0693359 L509.645996,67.0693359 L509.645996,71 L508.483887,71 L508.483887,61.0058594 L511.074707,61.0058594 C513.572115,61.0058594 514.820801,61.9765528 514.820801,63.9179688 Z M509.645996,66.0712891 L510.691895,66.0712891 C511.721848,66.0712891 512.466957,65.9049496 512.927246,65.5722656 C513.387535,65.2395817 513.617676,64.7063839 513.617676,63.9726562 C513.617676,63.3118457 513.401207,62.8196631 512.968262,62.4960938 C512.535317,62.1725244 511.860844,62.0107422 510.944824,62.0107422 L509.645996,62.0107422 L509.645996,66.0712891 Z M517.808105,63.5078125 L517.808105,68.3681641 C517.808105,68.9788442 517.947101,69.4345688 518.225098,69.7353516 C518.503094,70.0361343 518.938311,70.1865234 519.530762,70.1865234 C520.31462,70.1865234 520.887694,69.9723329 521.25,69.5439453 C521.612306,69.1155578 521.793457,68.4160205 521.793457,67.4453125 L521.793457,63.5078125 L522.928223,63.5078125 L522.928223,71 L521.991699,71 L521.827637,69.9951172 L521.766113,69.9951172 C521.53369,70.3642597 521.211265,70.6468089 520.798828,70.8427734 C520.386391,71.038738 519.915856,71.1367188 519.387207,71.1367188 C518.475744,71.1367188 517.793297,70.9202496 517.339844,70.4873047 C516.886391,70.0543598 516.659668,69.3616584 516.659668,68.4091797 L516.659668,63.5078125 L517.808105,63.5078125 Z M526.469238,71 L525.334473,71 L525.334473,60.3632812 L526.469238,60.3632812 L526.469238,71 Z M530.010254,71 L528.875488,71 L528.875488,60.3632812 L530.010254,60.3632812 L530.010254,71 Z M531.787598,67.7666016 L531.787598,66.7275391 L535.144043,66.7275391 L535.144043,67.7666016 L531.787598,67.7666016 Z M537.987793,63.5078125 L537.987793,68.3681641 C537.987793,68.9788442 538.126789,69.4345688 538.404785,69.7353516 C538.682781,70.0361343 539.117998,70.1865234 539.710449,70.1865234 C540.494307,70.1865234 541.067381,69.9723329 541.429688,69.5439453 C541.791994,69.1155578 541.973145,68.4160205 541.973145,67.4453125 L541.973145,63.5078125 L543.10791,63.5078125 L543.10791,71 L542.171387,71 L542.007324,69.9951172 L541.945801,69.9951172 C541.713378,70.3642597 541.390953,70.6468089 540.978516,70.8427734 C540.566079,71.038738 540.095543,71.1367188 539.566895,71.1367188 C538.655432,71.1367188 537.972984,70.9202496 537.519531,70.4873047 C537.066078,70.0543598 536.839355,69.3616584 536.839355,68.4091797 L536.839355,63.5078125 L537.987793,63.5078125 Z M549.000488,71.1367188 C548.512856,71.1367188 548.067385,71.0467131 547.664062,70.8666992 C547.26074,70.6866853 546.922365,70.4098326 546.648926,70.0361328 L546.566895,70.0361328 C546.621582,70.473635 546.648926,70.8883444 546.648926,71.2802734 L546.648926,74.3632812 L545.51416,74.3632812 L545.51416,63.5078125 L546.437012,63.5078125 L546.594238,64.5332031 L546.648926,64.5332031 C546.940594,64.1230448 547.280109,63.8268238 547.66748,63.6445312 C548.054852,63.4622387 548.499184,63.3710938 549.000488,63.3710938 C549.993983,63.3710938 550.760739,63.7106086 551.300781,64.3896484 C551.840823,65.0686883 552.11084,66.0211527 552.11084,67.2470703 C552.11084,68.4775452 551.836266,69.4334276 551.287109,70.1147461 C550.737953,70.7960646 549.975754,71.1367188 549.000488,71.1367188 Z M548.836426,64.3349609 C548.070797,64.3349609 547.517092,64.5468729 547.175293,64.9707031 C546.833494,65.3945334 546.65804,66.0690058 546.648926,66.9941406 L546.648926,67.2470703 C546.648926,68.29981 546.82438,69.0528949 547.175293,69.5063477 C547.526206,69.9598004 548.089026,70.1865234 548.86377,70.1865234 C549.510908,70.1865234 550.017902,69.9244818 550.384766,69.4003906 C550.751629,68.8762995 550.935059,68.153976 550.935059,67.2333984 C550.935059,66.299149 550.751629,65.582522 550.384766,65.0834961 C550.017902,64.5844702 549.501794,64.3349609 548.836426,64.3349609 Z" id="Pull-up" fill="#121212"></path>
            <g id="Group" transform="translate(170.000000, 0.000000)" stroke="url(#linearGradient-1)" stroke-width="2">
                <path d="M3.27191859,16 C28.7705958,14.6268262 53.3214191,15.1795267 76.9243886,17.6581016" id="Path-3"></path>
                <circle id="Oval" fill="#FFFFFF" stroke-linecap="round" stroke-linejoin="round" cx="39.5" cy="6.5" r="6.5"></circle>
                <polygon id="Path-4" fill="#FFFFFF" stroke-linecap="round" stroke-linejoin="round" points="0 5.14512949 12.6990717 3.59359001 14.7326832 27.8955981 2.54759526 28.3934073"></polygon>
                <polygon id="Path-4" fill="#FFFFFF" stroke-linecap="round" stroke-linejoin="round" transform="translate(72.366342, 15.993499) scale(-1, 1) translate(-72.366342, -15.993499) " points="65 5.14512949 77.6990717 3.59359001 79.7326832 27.8955981 67.5475953 28.3934073"></polygon>
                <polyline id="Line-3" fill="#FFFFFF" stroke-linecap="round" stroke-linejoin="round" points="27 18 30.1971969 21.3221815 34.2945406 18"></polyline>
                <circle id="Oval-6" fill="#FFFFFF" cx="26" cy="15" r="3"></circle>
                <polyline id="Line-3" fill="#FFFFFF" stroke-linecap="round" stroke-linejoin="round" transform="translate(48.352730, 19.661091) scale(-1, 1) translate(-48.352730, -19.661091) " points="44.7054594 18 47.9026563 21.3221815 52 18"></polyline>
                <circle id="Oval-6" fill="#FFFFFF" transform="translate(53.000000, 15.000000) scale(-1, 1) translate(-53.000000, -15.000000) " cx="53" cy="15" r="3"></circle>
            </g>
            <g id="Group-2" transform="translate(330.000000, 0.000000)" stroke="url(#linearGradient-1)" stroke-width="2">
                <path d="M4,14 C29,3.50393986 54,2.18848626 79,10.0536392" id="Path-3"></path>
                <polygon id="Path-4" fill="#FFFFFF" stroke-linecap="round" stroke-linejoin="round" points="0 3.14512949 12.7617353 0 16 26.5925463 3.71182923 29"></polygon>
                <polygon id="Path-4-Copy" fill="#FFFFFF" stroke-linecap="round" stroke-linejoin="round" transform="translate(81.000000, 14.500000) scale(-1, 1) translate(-81.000000, -14.500000) " points="73 3.14512949 85.7617353 0 89 26.5925463 76.7118292 29"></polygon>
                <g id="Group" transform="translate(28.000000, 3.000000)">
                    <path d="M7,6 L4.75,17.2857143" id="Line" transform="translate(5.500000, 12.000000) scale(-1, 1) translate(-5.500000, -12.000000) "></path>
                    <circle id="Oval-6" fill="#FFFFFF" cx="3" cy="3" r="3"></circle>
                </g>
                <g id="Group" transform="translate(57.500000, 12.000000) scale(-1, 1) translate(-57.500000, -12.000000) translate(54.000000, 3.000000)">
                    <path d="M7,6 L4.75,17.2857143" id="Line" transform="translate(5.500000, 12.000000) scale(-1, 1) translate(-5.500000, -12.000000) "></path>
                    <circle id="Oval-6" fill="#FFFFFF" cx="3" cy="3" r="3"></circle>
                </g>
                <path d="M49.4045198,19.7657872 C50.3982694,18.6242075 51,17.1323746 51,15.5 C51,11.9101491 48.0898509,9 44.5,9 C40.9101491,9 38,11.9101491 38,15.5 C38,17.2949254 38.7275373,18.9199254 39.9038059,20.0961941" id="Oval" fill="#FFFFFF" stroke-linecap="round" stroke-linejoin="round"></path>
            </g>
            <g id="Group" stroke="url(#linearGradient-1)" stroke-width="2">
                <path d="M4,14 C29,3.50393986 54,2.18848626 79,10.0536392" id="Path-3"></path>
                <polygon id="Path-4" fill="#FFFFFF" stroke-linecap="round" stroke-linejoin="round" points="0 3.14512949 12.7617353 0 16 26.5925463 3.71182923 29"></polygon>
                <polygon id="Path-4-Copy" fill="#FFFFFF" stroke-linecap="round" stroke-linejoin="round" transform="translate(81.000000, 14.500000) scale(-1, 1) translate(-81.000000, -14.500000) " points="73 3.14512949 85.7617353 0 89 26.5925463 76.7118292 29"></polygon>
                <circle id="Oval-6" fill="#FFFFFF" cx="22" cy="9" r="3"></circle>
                <path d="M65.25,11.7142857 L54.75,20.2857143" id="Line"></path>
                <path d="M34.25,11.7142857 L23.75,20.2857143" id="Line" transform="translate(29.000000, 16.000000) scale(-1, 1) translate(-29.000000, -16.000000) "></path>
                <path d="M49.4045198,19.7657872 C50.3982694,18.6242075 51,17.1323746 51,15.5 C51,11.9101491 48.0898509,9 44.5,9 C40.9101491,9 38,11.9101491 38,15.5 C38,17.2949254 38.7275373,18.9199254 39.9038059,20.0961941" id="Oval" fill="#FFFFFF" stroke-linecap="round" stroke-linejoin="round"></path>
                <circle id="Oval-6-Copy" fill="#FFFFFF" cx="67" cy="9" r="3"></circle>
            </g>
            <g id="Group-3" transform="translate(498.000000, 3.000000)" stroke-width="2">
                <path d="M0.5,12.5 L60.5,12.5" id="Line-2" stroke="#188FAB" stroke-linecap="round" stroke-linejoin="round"></path>
                <g id="Group" transform="translate(15.000000, 0.000000)" fill="#FFFFFF" stroke="url(#linearGradient-1)">
                    <path d="M21.9803537,9.9966058 C22.6258428,8.9870099 23,7.7871995 23,6.5 C23,2.91014913 20.0898509,0 16.5,0 C12.9101491,0 10,2.91014913 10,6.5 C10,7.79440548 10.3783582,9.00044068 11.0305125,10.0135436" id="Oval" stroke-linecap="round" stroke-linejoin="round"></path>
                    <polyline id="Line-3" stroke-linecap="round" stroke-linejoin="round" points="4 15 7.1971969 18.3221815 11.5738466 16.6610907"></polyline>
                    <circle id="Oval-6" cx="3" cy="12" r="3"></circle>
                    <polyline id="Line-3" stroke-linecap="round" stroke-linejoin="round" transform="translate(25.286158, 16.661091) scale(-1, 1) translate(-25.286158, -16.661091) " points="21.5723169 15 24.7695138 18.3221815 29 16.6610907"></polyline>
                    <circle id="Oval-6" transform="translate(30.000000, 12.000000) scale(-1, 1) translate(-30.000000, -12.000000) " cx="30" cy="12" r="3"></circle>
                </g>
            </g>
        </g>
    </g>
</svg>