<?xml version="1.0" encoding="UTF-8"?>
<svg width="565px" height="409px" viewBox="0 0 565 409" version="1.1" xmlns="http://www.w3.org/2000/svg" xmlns:xlink="http://www.w3.org/1999/xlink" style="background: #FDFDFD;">
    <!-- Generator: Sketch 49.3 (51167) - http://www.bohemiancoding.com/sketch -->
    <title>persona-casual</title>
    <desc>Created with Sketch.</desc>
    <defs></defs>
    <g id="persona-casual" stroke="none" stroke-width="1" fill="none" fill-rule="evenodd">
        <text id="Casual-Crossfit-er" font-family="OpenSans-Semibold, Open Sans" font-size="22" font-weight="500" fill="#11A658">
            <tspan x="30.074707" y="40">Casual Crossfit-er</tspan>
        </text>
        <rect id="Rectangle" fill="#11A658" x="0" y="0" width="591" height="5"></rect>
        <text id="Basic-Information" font-family="OpenSans, Open Sans" font-size="18" font-weight="normal" fill="#11A658">
            <tspan x="30" y="81">Basic Information</tspan>
        </text>
        <text id="Age:" font-family="OpenSans-Semibold, Open Sans" font-size="14" font-weight="500" fill="#333333">
            <tspan x="30" y="113">Age:</tspan>
        </text>
        <text id="Occupation:" font-family="OpenSans-Semibold, Open Sans" font-size="14" font-weight="500" fill="#333333">
            <tspan x="30" y="144">Occupation:</tspan>
        </text>
        <text id="Level:" font-family="OpenSans-Semibold, Open Sans" font-size="14" font-weight="500" fill="#333333">
            <tspan x="30" y="206">Level:</tspan>
        </text>
        <text id="Goals" font-family="OpenSans, Open Sans" font-size="18" font-weight="normal" fill="#11A658">
            <tspan x="296" y="81">Goals</tspan>
        </text>
        <text id="Bio" font-family="OpenSans, Open Sans" font-size="18" font-weight="normal" fill="#11A658">
            <tspan x="296" y="179">Bio</tspan>
        </text>
        <text id="Favorite-Move:" font-family="OpenSans-Semibold, Open Sans" font-size="14" font-weight="500" fill="#333333">
            <tspan x="30" y="175">Favorite Move:</tspan>
        </text>
        <text id="38" font-family="OpenSans, Open Sans" font-size="14" font-weight="normal" fill="#333333">
            <tspan x="67" y="113">38</tspan>
        </text>
        <text id="Consultant" font-family="OpenSans, Open Sans" font-size="14" font-weight="normal" fill="#333333">
            <tspan x="120" y="144">Consultant</tspan>
        </text>
        <text id="Novice" font-family="OpenSans, Open Sans" font-size="14" font-weight="normal" fill="#333333">
            <tspan x="77" y="206">Novice</tspan>
        </text>
        <text id="Lose-weight,-put-on" font-family="OpenSans, Open Sans" font-size="14" font-weight="normal" fill="#333333">
            <tspan x="296" y="113">Lose weight, put on lean muscle, </tspan>
            <tspan x="296" y="132">get first pull-up</tspan>
        </text>
        <text id="Still-getting-her-be" font-family="OpenSans, Open Sans" font-size="14" font-weight="normal" fill="#333333">
            <tspan x="296" y="211">Still getting her bearings at the </tspan>
            <tspan x="296" y="230">gym. She has some experience </tspan>
            <tspan x="296" y="249">working out but not much. </tspan>
            <tspan x="296" y="268">Wants to use SugarWOD to keep </tspan>
            <tspan x="296" y="287">up with her classmates.</tspan>
        </text>
        <text id="Wall-balls" font-family="OpenSans, Open Sans" font-size="14" font-weight="normal" fill="#333333">
            <tspan x="138" y="175">Wall balls</tspan>
        </text>
        <g id="Group-4" transform="translate(26.000000, 234.000000)">
            <g id="Group-2">
                <path d="M112.136544,92.2441545 C109.515456,103.939748 107.627643,109.787545 106.473105,109.787545 C100.722731,109.787545 93.4112722,111.994247 92.7141534,108.315446 C92.2380638,105.80305 90.6267377,100.445953 87.8801749,92.2441545 L112.136544,92.2441545 Z" id="Path-13" stroke="#FCB624" fill="#FAB539" stroke-linecap="round" stroke-linejoin="round"></path>
                <path d="M92.3157655,95.1956685 L92.3157655,106.596664 C86.8320694,107.245059 82.9438891,108.274051 80.6512246,109.683641 C78.3585602,111.09323 77.4797136,119.460345 78.0146848,134.784986 L121.597114,134.784986 L126.480542,134.063187 C128.156605,117.526752 126.326691,108.732423 120.990801,107.6802 C115.654912,106.627977 111.763055,105.853 109.315231,105.355269 L109.315231,95.1956685 L92.3157655,95.1956685 Z" id="Path-6" fill="#FFDCB2"></path>
                <path d="M90,8.34708294 C92.6540499,2.78236098 96.6975649,0 102.130545,0 C107.373689,0 110.852643,2.78236098 112.567407,8.34708294" id="Path-3" fill="#FCB624"></path>
                <path d="M99.2942939,97.6857483 C114.306048,97.6857483 132.945097,87.3885044 134.048258,75.2267935 C134.577399,69.3933224 135.411571,42.0287146 135.411571,39.874934 C135.411571,20.6836084 120.934377,5.85126447 101.380738,5.85126447 C83.4731155,5.85126447 66.4612566,20.0056886 66.4612566,39.874934 C66.4612566,39.874934 68.1133258,66.1617314 68.1133258,73.8903788 C68.1133258,86.3360318 84.2825393,97.6857483 99.2942939,97.6857483 Z" id="Oval" fill="#FFDCB2"></path>
                <path d="M97.2630513,97.9675347 C97.2630513,97.9675347 132.673645,97.2119188 134.048258,75.2267935 C134.416186,69.3422713 135.411571,42.0287146 135.411571,39.874934 C135.411571,20.6836084 123.661596,6.29384484 97.2630513,6.29384484 C97.2630513,6.29384484 97.2630513,15.1106567 97.2630513,34.9799021 C97.2630513,34.9799021 97.2630513,63.8432702 97.2630513,71.574565 C97.2630513,86.0707748 97.2630513,97.9675347 97.2630513,97.9675347 Z" id="Oval" fill="#FFD49F"></path>
                <path d="M71.9825262,19.425914 C85.7473052,19.425914 95.7083556,19.425914 101.865677,19.425914 C108.022999,19.425914 117.232939,18.8994698 129.495498,17.8465812 L132.479139,24.7295056 C119.007345,25.6401962 108.802858,26.0955415 101.865677,26.0955415 C94.9284966,26.0955415 83.8734168,25.6401962 68.7004378,24.7295056 L71.9825262,19.425914 Z" id="Path-2" stroke="#FA4141" fill="#FA4141" stroke-linecap="round" stroke-linejoin="round"></path>
                <ellipse id="Oval-2" fill="#474747" transform="translate(82.421815, 45.137198) rotate(5.000000) translate(-82.421815, -45.137198) " cx="82.4218147" cy="45.1371979" rx="3.5" ry="5.61472964"></ellipse>
                <ellipse id="Oval-2-Copy" fill="#474747" transform="translate(113.421815, 45.137198) rotate(-5.000000) translate(-113.421815, -45.137198) " cx="113.421815" cy="45.1371979" rx="3.5" ry="5.61472964"></ellipse>
                <path d="M96.550269,59.0170024 C98.5603246,58.6231609 100.589538,65.1782435 101.310897,67.600045 C101.793335,69.847335 94.1526406,71.306567 93,69.2284454 C93,67.600045 94.8451869,59.6946145 96.550269,59.0170024 Z" id="Path-4" fill="#F1B791"></path>
                <path d="M84,79.7610364 L111.02228,77 C110.249734,84.7053673 106.367569,88.5580509 99.3757847,88.5580509 C92.3840007,88.5580509 87.2587392,85.6257127 84,79.7610364 Z" id="Path-5" fill="#FFFFFF"></path>
                <path d="M85.2553471,108.120257 C91.7614721,119.026906 97.2329624,124.480231 101.669818,124.480231 C106.106673,124.480231 112.325975,119.026906 120.327722,108.120257 C118.584199,117.669435 120.701203,124.12459 126.678732,127.485724 C126.678732,127.485724 126.792239,133.711084 125.799569,133.897833 C118.424515,135.285283 86.6049261,135.301957 78.2453625,135.034607 C76.8593943,134.990282 78.2453625,126.226973 78.2453625,126.226973 C83.2785813,123.685749 85.6152429,117.650178 85.2553471,108.120257 Z" id="Path-7" stroke="#2CDE81" fill="#2CDE81" stroke-linecap="round" stroke-linejoin="round"></path>
                <path d="M81.4854958,109.573833 C79.114539,108.801308 65.8819475,109.166722 51.3671233,107.78854 C45.8205966,107.261898 32.6700009,104.810953 11.9153364,100.435705 L11.0145211,103.325653 C43.0146469,118.782239 64.490088,125.182797 75.4408444,122.527326 C83.0930779,121.625711 82.5309352,110.07486 81.4854958,109.573833 Z" id="Path-8" fill="#FFDCB2"></path>
                <path d="M184.456788,108.538838 C175.481629,108.108358 155.021311,106.928745 123.075835,105 L122.159258,107.889948 C148.908924,118.221711 167.831688,123.105094 178.927547,122.540099 C186.713678,121.638485 184.998407,109.345716 184.456788,108.538838 Z" id="Path-8" fill="#FFDCB2" transform="translate(153.579629, 113.792021) scale(-1, 1) translate(-153.579629, -113.792021) "></path>
                <g id="Group" transform="translate(0.000000, 85.000000)">
                    <g id="weight" fill="#46BADF">
                        <path d="M8.35646299,0.365571124 C9.13691186,0.365571124 12.8764683,1.66918285 19.5751325,4.2764063 L18.5034757,8.67869873 L6.57225179,4.8002286 C6.98127705,1.84379028 7.57601412,0.365571124 8.35646299,0.365571124 Z" id="Path-9" stroke="#46BADF" stroke-linecap="round" stroke-linejoin="round"></path>
                        <path d="M2.35646299,20.3655711 C3.13691186,20.3655711 6.87646835,21.6691828 13.5751325,24.2764063 L12.5034757,28.6786987 L0.572251789,24.8002286 C0.981277051,21.8437903 1.57601412,20.3655711 2.35646299,20.3655711 Z" id="Path-9" stroke="#46BADF" stroke-linecap="round" stroke-linejoin="round"></path>
                        <polygon id="Path-10" points="10.6426148 6.60548538 5.66533554 21.5123498 10.6426148 22.9607378 14.4928681 7.80332251"></polygon>
                    </g>
                    <path d="M6.43293745,10.8501515 C9.64649013,9.58916866 14.1243342,11.3485231 16.1848233,13.0628108 C16.6550221,15.5372022 16.0001116,19.6410425 13.0734708,20.7894425 C9.78262531,20.1035689 6.40571011,20.2643112 4.62490307,17.5988688 C3.67561555,15.4047358 5.00335889,12.4082117 6.43293745,10.8501515 Z" id="hand" fill="#FFDCB2"></path>
                </g>
                <g id="Group" transform="translate(187.000000, 104.500000) scale(-1, 1) translate(-187.000000, -104.500000) translate(177.000000, 90.000000)">
                    <g id="weight" fill="#46BADF">
                        <path d="M8.35646299,0.365571124 C9.13691186,0.365571124 12.8764683,1.66918285 19.5751325,4.2764063 L18.5034757,8.67869873 L6.57225179,4.8002286 C6.98127705,1.84379028 7.57601412,0.365571124 8.35646299,0.365571124 Z" id="Path-9" stroke="#46BADF" stroke-linecap="round" stroke-linejoin="round"></path>
                        <path d="M2.35646299,20.3655711 C3.13691186,20.3655711 6.87646835,21.6691828 13.5751325,24.2764063 L12.5034757,28.6786987 L0.572251789,24.8002286 C0.981277051,21.8437903 1.57601412,20.3655711 2.35646299,20.3655711 Z" id="Path-9" stroke="#46BADF" stroke-linecap="round" stroke-linejoin="round"></path>
                        <polygon id="Path-10" points="10.6426148 6.60548538 5.66533554 21.5123498 10.6426148 22.9607378 14.4928681 7.80332251"></polygon>
                    </g>
                    <path d="M6.43293745,10.8501515 C9.64649013,9.58916866 14.1243342,11.3485231 16.1848233,13.0628108 C16.6550221,15.5372022 16.0001116,19.6410425 13.0734708,20.7894425 C9.78262531,20.1035689 6.40571011,20.2643112 4.62490307,17.5988688 C3.67561555,15.4047358 5.00335889,12.4082117 6.43293745,10.8501515 Z" id="hand" fill="#FFDCB2"></path>
                </g>
                <path d="M92.370204,97.0830584 C93.8093329,97.5641514 95.4695962,97.8510549 97.3509937,97.943769 C100.923934,97.8978365 104.877291,97.3849779 109.211062,96.4051933 C109.71996,97.0830584 101.051402,101.43929 97.9431337,102.820964 C95.3344504,102.401539 92.370204,97.0830584 92.370204,97.0830584 Z" id="Path-11" fill="#F0C38D"></path>
                <path d="M81.9093367,117 C80.4206974,119.402889 79.1175851,120.827893 78,121.275012" id="Path-12" stroke="#F0C38D" stroke-width="0.5" stroke-linecap="round" stroke-linejoin="round"></path>
                <path d="M126.909337,117 C125.420697,119.402889 124.117585,120.827893 123,121.275012" id="Path-12-Copy" stroke="#F0C38D" stroke-width="0.5" stroke-linecap="round" stroke-linejoin="round" transform="translate(124.954668, 119.137506) scale(-1, 1) translate(-124.954668, -119.137506) "></path>
                <path d="M97.7290296,20.7923754 C113.134494,20.7923754 117.12442,36.0926009 117.12442,21.6965943 C117.12442,15.7040714 135.856531,38.3028682 135.856531,36.0926009 C135.856531,16.3979486 121.455775,5.85126447 101.389307,5.85126447 C83.0120256,5.85126447 65.6766435,15.7022492 65.6766435,36.0926009 C65.6766435,36.0926009 83.1570194,16.1052485 83.1570194,24.0365935 C83.1570194,36.8086558 82.323565,20.7923754 97.7290296,20.7923754 Z" id="Oval" fill="#FFC152"></path>
                <path d="M97.7290296,20.7923754 C113.022465,20.7923754 117.12442,36.0926009 117.12442,21.6965943 C117.12442,15.7040714 135.856531,38.3028682 135.856531,36.0926009 C135.856531,16.3979486 120.352469,5.69414593 100.286001,5.69414593 C98.5167389,5.69414593 96.9305832,20.7923754 97.7290296,20.7923754 Z" id="Oval" fill="#FCB624"></path>
            </g>
            <path d="M81,63 C79.9802632,68.2833222 78.9802632,71.6166556 78,73" id="Path-20" stroke="#F0C38D" stroke-width="0.5" stroke-linecap="round" stroke-linejoin="round"></path>
            <path d="M118,63 C116.980263,68.2833222 115.980263,71.6166556 115,73" id="Path-20" stroke="#F0C38D" stroke-width="0.5" stroke-linecap="round" stroke-linejoin="round" transform="translate(116.500000, 68.000000) scale(-1, 1) translate(-116.500000, -68.000000) "></path>
        </g>
    </g>
</svg>