<?xml version="1.0" encoding="UTF-8"?>
<svg width="783px" height="227px" viewBox="0 0 783 227" version="1.1" xmlns="http://www.w3.org/2000/svg" xmlns:xlink="http://www.w3.org/1999/xlink" style="background: #FFFFFF;">
    <!-- Generator: Sketch 47.1 (45422) - http://www.bohemiancoding.com/sketch -->
    <title>Stakeholders</title>
    <desc>Created with Sketch.</desc>
    <defs>
        <linearGradient x1="50%" y1="0%" x2="50%" y2="100%" id="linearGradient-1">
            <stop stop-color="#FCFCFC" offset="0%"></stop>
            <stop stop-color="#F7F7F7" offset="100%"></stop>
        </linearGradient>
    </defs>
    <g id="For-Website" stroke="none" stroke-width="1" fill="none" fill-rule="evenodd">
        <g id="Stakeholders">
            <text id="Corporate-Waffleonia" font-family="HelveticaNeue-Medium, Helvetica Neue" font-size="14" font-weight="400" fill="#414141">
                <tspan x="40.4" y="138">Corporate Waffleonia</tspan>
            </text>
            <text id="Can-influence-prices" font-family="HelveticaNeue, Helvetica Neue" font-size="14" font-weight="normal" fill="#414141">
                <tspan x="45.216" y="165">Can influence prices </tspan>
                <tspan x="55.562" y="181">but not set them.</tspan>
            </text>
            <text id="Control-prices-acros" font-family="HelveticaNeue, Helvetica Neue" font-size="14" font-weight="normal" fill="#414141">
                <tspan x="327.367" y="165">Control prices across </tspan>
                <tspan x="340.331" y="181">all of their stores.</tspan>
            </text>
            <text id="Respond-to-price-cha" font-family="HelveticaNeue, Helvetica Neue" font-size="14" font-weight="normal" fill="#414141">
                <tspan x="616.065" y="165">Respond to price </tspan>
                <tspan x="641.475" y="181">changes.</tspan>
            </text>
            <g id="stakeholder/corporate" transform="translate(69.000000, 25.000000)">
                <g id="Group-5">
                    <g id="corporate-stakeholder">
                        <polygon id="Triangle" fill="#8D5EEE" points="38.5 0 75 74 2 74"></polygon>
                        <ellipse id="Oval-2" fill="url(#linearGradient-1)" cx="33" cy="37" rx="3" ry="6.5890411"></ellipse>
                        <ellipse id="Oval-2-Copy" fill="url(#linearGradient-1)" cx="43" cy="37" rx="3" ry="6.5890411"></ellipse>
                        <path d="M24,51.6986301 C33.3333333,51.997922 42.6666667,52.2972139 52,52.5965058" id="Path-2" stroke="#FFFFFF" stroke-linecap="round" stroke-linejoin="round"></path>
                        <polygon id="Polygon" fill="#E3E3E3" points="37.5 58.7945205 40 61.8356164 37.5 64.8767123 35 61.8356164"></polygon>
                        <polygon id="Polygon-Copy" fill="#E3E3E3" points="38 61.8356164 41 69.9386471 38 72.9863014 35 69.9386471"></polygon>
                        <g id="Group-8" transform="translate(38.000000, 58.794521)" fill="#C1C1C1">
                            <polyline id="Combined-Shape" points="0 15.2054795 3 11.9731189 0.773848197 5.59584441 0.773848197 5.59584441 2.25 3.37899543 0 0"></polyline>
                        </g>
                        <polygon id="Triangle" fill="#692AE8" points="39 0 4.57457935 74 0 74"></polygon>
                    </g>
                </g>
            </g>
            <text id="Store-Managers" font-family="HelveticaNeue-Medium, Helvetica Neue" font-size="14" font-weight="400" fill="#414141">
                <tspan x="619.141" y="138">Store Managers</tspan>
            </text>
            <g id="stakeholder/manager" transform="translate(632.000000, 40.000000)">
                <g id="Group-3">
                    <g id="Group">
                        <rect id="Rectangle-3" fill="#20C31D" x="0.802197802" y="0.802816901" width="72.1978022" height="55.3943662"></rect>
                        <ellipse id="Oval-2" fill="#F7F7F7" cx="27.2747253" cy="22.4788732" rx="3.20879121" ry="3.21126761"></ellipse>
                        <ellipse id="Oval-2-Copy" fill="#F7F7F7" cx="45.7252747" cy="22.4788732" rx="3.20879121" ry="3.21126761"></ellipse>
                        <polygon id="Rectangle-3" fill="#178A14" points="0.780494213 0.747956314 3.43655247 0.747956314 3.43655247 56.2348563 0.780494213 56.2348563"></polygon>
                    </g>
                    <path d="M26.40625,34.5 L38.59375,34.5" id="Line" stroke="#FFFFFF" stroke-linecap="round" stroke-linejoin="round"></path>
                    <g id="Group-2" transform="translate(47.000000, 44.000000)">
                        <g id="nametag">
                            <rect id="Rectangle" fill="#F1F1F1" x="0" y="0" width="15" height="9" rx="2"></rect>
                            <path d="M2,0 L13,0 L13,0 C14.1045695,7.78148667e-16 15,0.8954305 15,2 L15,3.27272727 L0,3.27272727 L0,2 L0,2 C-1.3527075e-16,0.8954305 0.8954305,2.02906125e-16 2,0 Z" id="Rectangle" fill="#7C7B7B"></path>
                        </g>
                        <path d="M2.76315789,5.31818182 L12.2368421,5.31818182" id="Line-2" stroke="#979797" stroke-width="1.3" stroke-linecap="square"></path>
                    </g>
                </g>
            </g>
            <g id="stakeholder/franchise" transform="translate(356.000000, 26.000000)">
                <g id="Group-5">
                    <g id="Group-2">
                        <polygon id="Rectangle-4" fill="#EBA507" transform="translate(36.389826, 36.477317) rotate(45.000000) translate(-36.389826, -36.477317) " points="10.7843557 11.1426389 58.2350364 18.7727253 61.9952963 61.8119954 15.9023252 58.4383432"></polygon>
                        <path d="M27.1522953,44.2964311 C38.1238864,53.9457325 39.7017224,44.862421 46.1576059,34.7619609" id="Path-4" stroke="#F7F7F7"></path>
                        <polygon id="Rectangle-4" fill="#D19308" transform="translate(36.198347, 36.488914) rotate(45.000000) translate(-36.198347, -36.488914) " points="10.8814644 11.1720309 18.6051947 58.5547401 61.5152298 61.8057963 16.0259994 58.4692912"></polygon>
                    </g>
                    <text id="$" transform="translate(30.500000, 31.000000) rotate(-8.000000) translate(-30.500000, -31.000000) " font-family="HelveticaNeue, Helvetica Neue" font-size="12" font-weight="normal" fill="#FFFFFF">
                        <tspan x="27" y="35">$</tspan>
                    </text>
                    <text id="$-copy" transform="translate(38.500000, 31.000000) rotate(-8.000000) translate(-38.500000, -31.000000) " font-family="HelveticaNeue, Helvetica Neue" font-size="12" font-weight="normal" fill="#FFFFFF">
                        <tspan x="35" y="35">$</tspan>
                    </text>
                </g>
            </g>
            <text id="Franchise-Owners" font-family="HelveticaNeue-Medium, Helvetica Neue" font-size="14" font-weight="400" fill="#414141">
                <tspan x="336.134" y="138">Franchise Owners</tspan>
            </text>
        </g>
    </g>
</svg>