<svg width="2822" height="1078" viewBox="0 0 2822 1078" fill="none" xmlns="http://www.w3.org/2000/svg">
<rect width="2822" height="1078" fill="white"/>
<rect x="413.383" y="312.004" width="359.382" height="630.552" rx="9.5" fill="white" stroke="#BDBDBD"/>
<rect x="413.767" y="446.647" width="358.615" height="416.029" fill="#F5F5F5"/>
<rect x="502.096" y="879.459" width="181.958" height="45.931" rx="22.9655" fill="#057EC1"/>
<g filter="url(#filter0_d)">
<rect x="440.265" y="474.912" width="148.393" height="134.26" rx="2" fill="white"/>
</g>
<rect x="452.631" y="492.578" width="87.4456" height="13.2493" rx="2" fill="#E6E6E6"/>
<rect x="452.632" y="554.408" width="113.944" height="7.06631" rx="2" fill="#E6E6E6"/>
<rect x="452.631" y="568.541" width="113.944" height="7.06631" rx="2" fill="#E6E6E6"/>
<rect x="452.631" y="582.674" width="113.944" height="7.06631" rx="2" fill="#E6E6E6"/>
<g filter="url(#filter1_d)">
<rect x="440.265" y="637.438" width="148.393" height="134.26" rx="2" fill="white"/>
</g>
<rect x="452.631" y="655.104" width="87.4456" height="13.2493" rx="2" fill="#E6E6E6"/>
<rect x="452.632" y="716.934" width="113.944" height="7.06631" rx="2" fill="#E6E6E6"/>
<rect x="452.631" y="731.066" width="113.944" height="7.06631" rx="2" fill="#E6E6E6"/>
<rect x="452.631" y="745.199" width="113.944" height="7.06631" rx="2" fill="#E6E6E6"/>
<g filter="url(#filter2_d)">
<rect x="596.607" y="474.912" width="148.393" height="134.26" rx="2" fill="white"/>
</g>
<rect x="608.974" y="492.578" width="87.4456" height="13.2493" rx="2" fill="#E6E6E6"/>
<rect x="608.973" y="554.408" width="113.944" height="7.06631" rx="2" fill="#E6E6E6"/>
<rect x="608.973" y="568.541" width="113.944" height="7.06631" rx="2" fill="#E6E6E6"/>
<rect x="608.973" y="582.674" width="113.944" height="7.06631" rx="2" fill="#E6E6E6"/>
<g filter="url(#filter3_d)">
<rect x="596.607" y="637.438" width="148.393" height="134.26" rx="2" fill="white"/>
</g>
<rect x="608.974" y="655.104" width="87.4456" height="13.2493" rx="2" fill="#E6E6E6"/>
<rect x="608.973" y="716.934" width="113.944" height="7.06631" rx="2" fill="#E6E6E6"/>
<rect x="608.973" y="731.066" width="113.944" height="7.06631" rx="2" fill="#E6E6E6"/>
<rect x="608.973" y="745.199" width="113.944" height="7.06631" rx="2" fill="#E6E6E6"/>
<mask id="mask0" mask-type="alpha" maskUnits="userSpaceOnUse" x="435" y="790" width="318" height="73">
<rect x="435.849" y="790.247" width="316.217" height="72.4297" fill="#C4C4C4"/>
</mask>
<g mask="url(#mask0)">
<g filter="url(#filter4_d)">
<rect x="440.265" y="799.963" width="148.393" height="134.26" rx="2" fill="white"/>
</g>
<rect x="452.631" y="817.629" width="87.4456" height="13.2493" rx="2" fill="#E6E6E6"/>
<g filter="url(#filter5_d)">
<rect x="596.607" y="799.963" width="148.393" height="134.26" rx="2" fill="white"/>
</g>
<rect x="608.974" y="817.629" width="87.4456" height="13.2493" rx="2" fill="#E6E6E6"/>
</g>
<line x1="412" y1="446.147" x2="772.382" y2="446.147" stroke="#E6E6E6"/>
<line x1="412" y1="863.06" x2="772.382" y2="863.06" stroke="#E6E6E6"/>
<path d="M501.499 395.84C501.159 395.577 501.122 395.294 501.386 394.992L505.23 390.244C505.493 389.942 505.738 389.905 505.964 390.131C506.794 390.809 507.792 391.45 508.961 392.053C510.129 392.618 511.391 392.976 512.748 393.127V383.46C509.432 382.933 506.831 381.708 504.947 379.786C503.063 377.864 502.12 375.376 502.12 372.324C502.12 370.741 502.365 369.271 502.855 367.914C503.383 366.558 504.118 365.371 505.06 364.353C506.002 363.298 507.114 362.431 508.395 361.753C509.714 361.074 511.165 360.641 512.748 360.452V357.117C512.748 356.74 512.937 356.552 513.313 356.552H515.914C516.291 356.552 516.479 356.74 516.479 357.117V360.452C518.288 360.603 519.946 360.961 521.454 361.526C522.961 362.092 524.299 362.751 525.468 363.505C525.769 363.731 525.807 364.014 525.581 364.353L522.302 369.102C522.076 369.403 521.812 369.46 521.51 369.271C520.719 368.781 519.89 368.367 519.023 368.027C518.194 367.688 517.346 367.443 516.479 367.293V376.394C520.059 376.959 522.735 378.222 524.507 380.182C526.278 382.104 527.163 384.591 527.163 387.644C527.163 390.96 526.202 393.692 524.28 395.84C522.396 397.989 519.796 399.308 516.479 399.798V403.246C516.479 403.623 516.291 403.811 515.914 403.811H513.313C512.937 403.811 512.748 403.623 512.748 403.246V399.967C510.487 399.854 508.395 399.421 506.473 398.667C504.589 397.913 502.931 396.971 501.499 395.84ZM512.748 367.575C511.881 367.914 511.184 368.442 510.657 369.158C510.167 369.874 509.922 370.722 509.922 371.702C509.922 372.606 510.11 373.398 510.487 374.076C510.901 374.717 511.655 375.245 512.748 375.659V367.575ZM516.479 392.731C518.401 391.978 519.362 390.414 519.362 388.039C519.362 387.21 519.155 386.475 518.74 385.835C518.326 385.194 517.572 384.666 516.479 384.252V392.731Z" fill="#D6D5D5"/>
<rect x="541.843" y="371.568" width="141.326" height="21.1989" rx="2" fill="#D6D5D5"/>
<rect x="1641.15" y="312.004" width="359.382" height="630.552" rx="9.5" fill="white" stroke="#BDBDBD"/>
<path d="M1730.15 837.485C1729.81 837.221 1729.78 836.939 1730.04 836.637L1733.88 831.888C1734.15 831.587 1734.39 831.549 1734.62 831.775C1735.45 832.454 1736.45 833.094 1737.62 833.697C1738.78 834.263 1740.05 834.621 1741.4 834.772V825.105C1738.09 824.577 1735.49 823.352 1733.6 821.43C1731.72 819.508 1730.78 817.021 1730.78 813.968C1730.78 812.385 1731.02 810.916 1731.51 809.559C1732.04 808.202 1732.77 807.015 1733.71 805.997C1734.66 804.942 1735.77 804.075 1737.05 803.397C1738.37 802.719 1739.82 802.285 1741.4 802.097V798.762C1741.4 798.385 1741.59 798.196 1741.97 798.196H1744.57C1744.95 798.196 1745.13 798.385 1745.13 798.762V802.097C1746.94 802.248 1748.6 802.606 1750.11 803.171C1751.62 803.736 1752.95 804.396 1754.12 805.15C1754.42 805.376 1754.46 805.658 1754.24 805.997L1750.96 810.746C1750.73 811.048 1750.47 811.104 1750.17 810.916C1749.37 810.426 1748.54 810.011 1747.68 809.672C1746.85 809.333 1746 809.088 1745.13 808.937V818.038C1748.71 818.604 1751.39 819.866 1753.16 821.826C1754.93 823.748 1755.82 826.235 1755.82 829.288C1755.82 832.605 1754.86 835.337 1752.94 837.485C1751.05 839.633 1748.45 840.952 1745.13 841.442V844.89C1745.13 845.267 1744.95 845.456 1744.57 845.456H1741.97C1741.59 845.456 1741.4 845.267 1741.4 844.89V841.612C1739.14 841.499 1737.05 841.065 1735.13 840.312C1733.24 839.558 1731.59 838.616 1730.15 837.485ZM1741.4 809.22C1740.54 809.559 1739.84 810.087 1739.31 810.803C1738.82 811.519 1738.58 812.367 1738.58 813.346C1738.58 814.251 1738.76 815.042 1739.14 815.721C1739.56 816.361 1740.31 816.889 1741.4 817.304V809.22ZM1745.13 834.376C1747.06 833.622 1748.02 832.058 1748.02 829.684C1748.02 828.855 1747.81 828.12 1747.4 827.479C1746.98 826.838 1746.23 826.311 1745.13 825.896V834.376Z" fill="#D6D5D5"/>
<rect x="1770.5" y="813.212" width="134.26" height="21.1989" rx="2" fill="#D6D5D5"/>
<path d="M1641.54 322.387C1641.54 316.864 1646.02 312.387 1651.54 312.387H1990.15C1995.68 312.387 2000.15 316.864 2000.15 322.387V771.698H1641.54V322.387Z" fill="#F5F5F5"/>
<rect x="1668.04" y="343.302" width="199.623" height="47.6976" rx="2" fill="#E1E0E0"/>
<rect x="1729.87" y="872.393" width="181.958" height="45.931" rx="22.9655" fill="#057EC1"/>
<g filter="url(#filter6_d)">
<rect x="1668.04" y="417.499" width="305.618" height="73.313" rx="2" fill="white"/>
</g>
<rect x="1680.4" y="435.164" width="87.4456" height="13.2493" rx="2" fill="#E6E6E6"/>
<rect x="1842.05" y="435.164" width="113.944" height="7.06631" rx="2" fill="#E6E6E6"/>
<rect x="1842.04" y="449.297" width="113.944" height="7.06631" rx="2" fill="#E6E6E6"/>
<rect x="1842.04" y="463.429" width="113.944" height="7.06631" rx="2" fill="#E6E6E6"/>
<g filter="url(#filter7_d)">
<rect x="1668.04" y="512.894" width="305.618" height="73.313" rx="2" fill="white"/>
</g>
<rect x="1680.4" y="530.56" width="87.4456" height="13.2493" rx="2" fill="#E6E6E6"/>
<rect x="1842.05" y="530.56" width="113.944" height="7.06631" rx="2" fill="#E6E6E6"/>
<rect x="1842.04" y="544.692" width="113.944" height="7.06631" rx="2" fill="#E6E6E6"/>
<rect x="1842.04" y="558.825" width="113.944" height="7.06631" rx="2" fill="#E6E6E6"/>
<g filter="url(#filter8_d)">
<rect x="1668.04" y="608.289" width="305.618" height="73.313" rx="2" fill="white"/>
</g>
<rect x="1680.4" y="625.955" width="87.4456" height="13.2493" rx="2" fill="#E6E6E6"/>
<rect x="1842.05" y="625.955" width="113.944" height="7.06631" rx="2" fill="#E6E6E6"/>
<rect x="1842.04" y="640.088" width="113.944" height="7.06631" rx="2" fill="#E6E6E6"/>
<rect x="1842.04" y="654.22" width="113.944" height="7.06631" rx="2" fill="#E6E6E6"/>
<line x1="1639.77" y1="771.198" x2="2000.15" y2="771.198" stroke="#E6E6E6"/>
<rect x="1231.31" y="312.004" width="359.382" height="630.552" rx="9.5" fill="white" stroke="#BDBDBD"/>
<rect x="1462.23" y="446.647" width="83.9125" height="45.931" rx="22.9655" fill="#057EC1"/>
<path d="M1231.69 533.209H1590.31V932.172C1590.31 937.695 1585.83 942.172 1580.31 942.172H1241.69C1236.17 942.172 1231.69 937.695 1231.69 932.172V533.209Z" fill="#F5F5F5"/>
<line x1="1230.81" y1="532.709" x2="1591.19" y2="532.709" stroke="#E6E6E6"/>
<rect x="1462.23" y="364.501" width="75.9629" height="13.2493" rx="2" fill="#E6E6E6"/>
<rect x="1462.23" y="391" width="59.1804" height="13.2493" rx="2" fill="#E6E6E6"/>
<rect x="1462.23" y="417.499" width="75.9629" height="13.2493" rx="2" fill="#E6E6E6"/>
<rect x="1258.19" y="579.141" width="74.1963" height="13.2493" rx="2" fill="#E1E0E0"/>
<rect x="1258.19" y="614.472" width="74.1963" height="13.2493" rx="2" fill="#E1E0E0"/>
<rect x="1258.19" y="710.751" width="74.1963" height="13.2493" rx="2" fill="#E1E0E0"/>
<rect x="1258.19" y="746.082" width="74.1963" height="13.2493" rx="2" fill="#E1E0E0"/>
<rect x="1258.19" y="781.414" width="74.1963" height="13.2493" rx="2" fill="#E1E0E0"/>
<rect x="1258.19" y="882.109" width="74.1963" height="13.2493" rx="2" fill="#E1E0E0"/>
<rect x="1258.19" y="850.31" width="74.1963" height="13.2493" rx="2" fill="#E1E0E0"/>
<rect x="1400.4" y="579.141" width="163.408" height="13.2493" rx="2" fill="#E1E0E0"/>
<rect x="1400.4" y="614.472" width="163.408" height="13.2493" rx="2" fill="#E1E0E0"/>
<rect x="1400.4" y="710.751" width="163.408" height="13.2493" rx="2" fill="#E1E0E0"/>
<rect x="1400.4" y="746.082" width="163.408" height="13.2493" rx="2" fill="#E1E0E0"/>
<rect x="1400.4" y="781.414" width="163.408" height="13.2493" rx="2" fill="#E1E0E0"/>
<rect x="1400.4" y="882.109" width="163.408" height="13.2493" rx="2" fill="#E1E0E0"/>
<rect x="1400.4" y="850.31" width="163.408" height="13.2493" rx="2" fill="#E1E0E0"/>
<rect x="1258.19" y="343.302" width="181.074" height="13.2493" rx="2" fill="#E6E6E6"/>
<rect x="1258.19" y="364.501" width="181.074" height="128.077" rx="2" fill="#E6E6E6"/>
<path d="M492.15 205.061L484.4 184.811H484.275C484.421 186.415 484.494 188.321 484.494 190.53V205.061H482.041V182.217H486.041L493.275 201.061H493.4L500.697 182.217H504.666V205.061H502.01V190.342C502.01 188.655 502.082 186.821 502.228 184.842H502.103L494.291 205.061H492.15ZM521.568 205.061L521.052 202.624H520.927C520.073 203.696 519.219 204.426 518.365 204.811C517.521 205.186 516.464 205.374 515.193 205.374C513.495 205.374 512.161 204.936 511.193 204.061C510.234 203.186 509.755 201.941 509.755 200.327C509.755 196.868 512.521 195.056 518.052 194.889L520.958 194.795V193.733C520.958 192.389 520.667 191.4 520.083 190.764C519.51 190.118 518.589 189.795 517.318 189.795C515.891 189.795 514.276 190.233 512.474 191.108L511.677 189.124C512.521 188.665 513.443 188.306 514.443 188.045C515.453 187.785 516.464 187.655 517.474 187.655C519.516 187.655 521.026 188.108 522.005 189.014C522.995 189.92 523.49 191.374 523.49 193.374V205.061H521.568ZM515.708 203.233C517.323 203.233 518.589 202.79 519.505 201.905C520.432 201.019 520.896 199.78 520.896 198.186V196.639L518.302 196.749C516.24 196.821 514.75 197.144 513.833 197.717C512.927 198.28 512.474 199.16 512.474 200.358C512.474 201.295 512.755 202.009 513.318 202.499C513.891 202.988 514.687 203.233 515.708 203.233ZM531.923 205.061H529.329V187.936H531.923V205.061ZM529.11 183.295C529.11 182.702 529.256 182.269 529.548 181.999C529.839 181.717 530.204 181.577 530.641 181.577C531.058 181.577 531.417 181.717 531.72 181.999C532.022 182.28 532.173 182.712 532.173 183.295C532.173 183.879 532.022 184.316 531.72 184.608C531.417 184.889 531.058 185.03 530.641 185.03C530.204 185.03 529.839 184.889 529.548 184.608C529.256 184.316 529.11 183.879 529.11 183.295ZM549.621 205.061V193.983C549.621 192.587 549.304 191.545 548.668 190.858C548.033 190.17 547.038 189.827 545.684 189.827C543.892 189.827 542.58 190.311 541.746 191.28C540.913 192.249 540.496 193.847 540.496 196.077V205.061H537.903V187.936H540.012L540.434 190.28H540.559C541.09 189.436 541.835 188.785 542.793 188.327C543.752 187.858 544.819 187.624 545.996 187.624C548.059 187.624 549.611 188.124 550.653 189.124C551.694 190.113 552.215 191.702 552.215 193.889V205.061H549.621ZM580.113 198.983C580.113 200.993 579.384 202.561 577.925 203.686C576.467 204.811 574.488 205.374 571.988 205.374C569.279 205.374 567.196 205.025 565.738 204.327V201.764C566.675 202.16 567.696 202.472 568.8 202.702C569.904 202.931 570.998 203.045 572.081 203.045C573.852 203.045 575.186 202.712 576.081 202.045C576.977 201.368 577.425 200.431 577.425 199.233C577.425 198.441 577.264 197.795 576.941 197.295C576.628 196.785 576.097 196.316 575.347 195.889C574.607 195.462 573.477 194.978 571.956 194.436C569.831 193.676 568.311 192.775 567.394 191.733C566.488 190.691 566.035 189.332 566.035 187.655C566.035 185.894 566.696 184.493 568.019 183.452C569.342 182.41 571.092 181.889 573.269 181.889C575.54 181.889 577.628 182.306 579.535 183.139L578.706 185.452C576.821 184.66 574.988 184.264 573.206 184.264C571.8 184.264 570.701 184.566 569.91 185.17C569.118 185.775 568.722 186.613 568.722 187.686C568.722 188.478 568.868 189.129 569.16 189.639C569.451 190.139 569.941 190.603 570.628 191.03C571.326 191.446 572.389 191.91 573.816 192.42C576.212 193.275 577.857 194.191 578.753 195.17C579.66 196.15 580.113 197.42 580.113 198.983ZM596.593 205.061V193.983C596.593 192.587 596.275 191.545 595.64 190.858C595.004 190.17 594.009 189.827 592.655 189.827C590.853 189.827 589.535 190.316 588.702 191.295C587.879 192.275 587.468 193.879 587.468 196.108V205.061H584.874V180.749H587.468V188.108C587.468 188.993 587.426 189.728 587.343 190.311H587.499C588.009 189.488 588.733 188.842 589.671 188.374C590.619 187.894 591.697 187.655 592.905 187.655C594.999 187.655 596.567 188.155 597.608 189.155C598.66 190.144 599.186 191.722 599.186 193.889V205.061H596.593ZM619.791 196.483C619.791 199.275 619.088 201.457 617.682 203.03C616.276 204.592 614.333 205.374 611.854 205.374C610.323 205.374 608.963 205.014 607.776 204.295C606.588 203.577 605.672 202.545 605.026 201.202C604.38 199.858 604.057 198.285 604.057 196.483C604.057 193.691 604.755 191.519 606.151 189.967C607.547 188.405 609.484 187.624 611.963 187.624C614.359 187.624 616.26 188.42 617.666 190.014C619.083 191.608 619.791 193.764 619.791 196.483ZM606.745 196.483C606.745 198.67 607.182 200.337 608.057 201.483C608.932 202.629 610.218 203.202 611.916 203.202C613.614 203.202 614.901 202.634 615.776 201.499C616.661 200.353 617.104 198.681 617.104 196.483C617.104 194.306 616.661 192.655 615.776 191.53C614.901 190.394 613.604 189.827 611.885 189.827C610.187 189.827 608.906 190.384 608.041 191.499C607.177 192.613 606.745 194.275 606.745 196.483ZM632.803 205.374C631.688 205.374 630.667 205.17 629.74 204.764C628.824 204.347 628.053 203.712 627.428 202.858H627.24C627.365 203.858 627.428 204.806 627.428 205.702V212.749H624.834V187.936H626.943L627.303 190.28H627.428C628.094 189.342 628.87 188.665 629.756 188.249C630.641 187.832 631.657 187.624 632.803 187.624C635.074 187.624 636.824 188.4 638.053 189.952C639.292 191.504 639.912 193.681 639.912 196.483C639.912 199.295 639.282 201.483 638.021 203.045C636.771 204.597 635.032 205.374 632.803 205.374ZM632.428 189.827C630.678 189.827 629.412 190.311 628.631 191.28C627.85 192.249 627.449 193.79 627.428 195.905V196.483C627.428 198.889 627.829 200.613 628.631 201.655C629.433 202.686 630.719 203.202 632.49 203.202C633.969 203.202 635.126 202.603 635.959 201.405C636.803 200.207 637.225 198.556 637.225 196.452C637.225 194.316 636.803 192.681 635.959 191.545C635.126 190.4 633.949 189.827 632.428 189.827ZM652.908 205.374C651.793 205.374 650.772 205.17 649.845 204.764C648.929 204.347 648.158 203.712 647.533 202.858H647.345C647.47 203.858 647.533 204.806 647.533 205.702V212.749H644.939V187.936H647.048L647.408 190.28H647.533C648.199 189.342 648.975 188.665 649.861 188.249C650.746 187.832 651.762 187.624 652.908 187.624C655.179 187.624 656.929 188.4 658.158 189.952C659.397 191.504 660.017 193.681 660.017 196.483C660.017 199.295 659.387 201.483 658.126 203.045C656.876 204.597 655.137 205.374 652.908 205.374ZM652.533 189.827C650.783 189.827 649.517 190.311 648.736 191.28C647.955 192.249 647.554 193.79 647.533 195.905V196.483C647.533 198.889 647.934 200.613 648.736 201.655C649.538 202.686 650.824 203.202 652.595 203.202C654.074 203.202 655.231 202.603 656.064 201.405C656.908 200.207 657.33 198.556 657.33 196.452C657.33 194.316 656.908 192.681 656.064 191.545C655.231 190.4 654.054 189.827 652.533 189.827ZM667.638 205.061H665.044V187.936H667.638V205.061ZM664.825 183.295C664.825 182.702 664.971 182.269 665.263 181.999C665.554 181.717 665.919 181.577 666.356 181.577C666.773 181.577 667.132 181.717 667.435 181.999C667.737 182.28 667.888 182.712 667.888 183.295C667.888 183.879 667.737 184.316 667.435 184.608C667.132 184.889 666.773 185.03 666.356 185.03C665.919 185.03 665.554 184.889 665.263 184.608C664.971 184.316 664.825 183.879 664.825 183.295ZM685.336 205.061V193.983C685.336 192.587 685.019 191.545 684.383 190.858C683.748 190.17 682.753 189.827 681.399 189.827C679.607 189.827 678.295 190.311 677.461 191.28C676.628 192.249 676.211 193.847 676.211 196.077V205.061H673.618V187.936H675.727L676.149 190.28H676.274C676.805 189.436 677.55 188.785 678.508 188.327C679.467 187.858 680.534 187.624 681.711 187.624C683.774 187.624 685.326 188.124 686.368 189.124C687.409 190.113 687.93 191.702 687.93 193.889V205.061H685.336ZM707.77 187.936V189.577L704.598 189.952C704.889 190.316 705.15 190.795 705.379 191.389C705.608 191.972 705.723 192.634 705.723 193.374C705.723 195.051 705.15 196.389 704.004 197.389C702.858 198.389 701.285 198.889 699.285 198.889C698.775 198.889 698.296 198.847 697.848 198.764C696.743 199.347 696.191 200.082 696.191 200.967C696.191 201.436 696.384 201.785 696.77 202.014C697.155 202.233 697.816 202.342 698.754 202.342H701.785C703.639 202.342 705.061 202.733 706.051 203.514C707.051 204.295 707.551 205.431 707.551 206.92C707.551 208.816 706.79 210.259 705.27 211.249C703.749 212.249 701.53 212.749 698.613 212.749C696.374 212.749 694.645 212.332 693.426 211.499C692.217 210.665 691.613 209.488 691.613 207.967C691.613 206.926 691.947 206.025 692.613 205.264C693.28 204.504 694.217 203.988 695.426 203.717C694.988 203.519 694.618 203.212 694.316 202.795C694.025 202.379 693.879 201.894 693.879 201.342C693.879 200.717 694.046 200.17 694.379 199.702C694.712 199.233 695.238 198.78 695.957 198.342C695.072 197.978 694.348 197.358 693.785 196.483C693.233 195.608 692.957 194.608 692.957 193.483C692.957 191.608 693.52 190.165 694.645 189.155C695.77 188.134 697.363 187.624 699.426 187.624C700.322 187.624 701.129 187.728 701.848 187.936H707.77ZM694.113 207.936C694.113 208.863 694.504 209.566 695.285 210.045C696.066 210.525 697.186 210.764 698.645 210.764C700.822 210.764 702.431 210.436 703.473 209.78C704.525 209.134 705.051 208.254 705.051 207.139C705.051 206.212 704.764 205.566 704.191 205.202C703.618 204.847 702.54 204.67 700.957 204.67H697.848C696.671 204.67 695.754 204.952 695.098 205.514C694.441 206.077 694.113 206.884 694.113 207.936ZM695.52 193.42C695.52 194.618 695.858 195.525 696.535 196.139C697.212 196.754 698.155 197.061 699.363 197.061C701.895 197.061 703.16 195.832 703.16 193.374C703.16 190.801 701.879 189.514 699.316 189.514C698.098 189.514 697.16 189.842 696.504 190.499C695.848 191.155 695.52 192.129 695.52 193.42ZM558.055 242.983C558.055 244.993 557.325 246.561 555.867 247.686C554.409 248.811 552.43 249.374 549.93 249.374C547.221 249.374 545.138 249.025 543.68 248.327V245.764C544.617 246.16 545.638 246.472 546.742 246.702C547.846 246.931 548.94 247.045 550.023 247.045C551.794 247.045 553.127 246.712 554.023 246.045C554.919 245.368 555.367 244.431 555.367 243.233C555.367 242.441 555.206 241.795 554.883 241.295C554.57 240.785 554.039 240.316 553.289 239.889C552.549 239.462 551.419 238.978 549.898 238.436C547.773 237.676 546.252 236.775 545.336 235.733C544.43 234.691 543.976 233.332 543.976 231.655C543.976 229.894 544.638 228.493 545.961 227.452C547.284 226.41 549.034 225.889 551.211 225.889C553.482 225.889 555.57 226.306 557.476 227.139L556.648 229.452C554.763 228.66 552.93 228.264 551.148 228.264C549.742 228.264 548.643 228.566 547.851 229.17C547.06 229.775 546.664 230.613 546.664 231.686C546.664 232.478 546.81 233.129 547.101 233.639C547.393 234.139 547.883 234.603 548.57 235.03C549.268 235.446 550.331 235.91 551.758 236.42C554.154 237.275 555.799 238.191 556.695 239.17C557.601 240.15 558.055 241.42 558.055 242.983ZM569.66 249.374C567.18 249.374 565.259 248.613 563.894 247.092C562.54 245.561 561.863 243.4 561.863 240.608C561.863 237.743 562.55 235.53 563.925 233.967C565.311 232.405 567.279 231.624 569.831 231.624C570.654 231.624 571.477 231.712 572.3 231.889C573.123 232.066 573.769 232.275 574.238 232.514L573.441 234.717C572.868 234.488 572.243 234.301 571.566 234.155C570.889 233.999 570.29 233.92 569.769 233.92C566.29 233.92 564.55 236.139 564.55 240.577C564.55 242.681 564.972 244.295 565.816 245.42C566.67 246.545 567.93 247.108 569.597 247.108C571.024 247.108 572.488 246.801 573.988 246.186V248.483C572.842 249.077 571.399 249.374 569.66 249.374ZM586.358 231.624C587.119 231.624 587.801 231.686 588.405 231.811L588.046 234.217C587.337 234.061 586.712 233.983 586.171 233.983C584.785 233.983 583.598 234.545 582.608 235.67C581.629 236.795 581.14 238.196 581.14 239.874V249.061H578.546V231.936H580.686L580.983 235.108H581.108C581.744 233.993 582.509 233.134 583.405 232.53C584.301 231.926 585.285 231.624 586.358 231.624ZM599.323 249.374C596.791 249.374 594.791 248.603 593.323 247.061C591.864 245.519 591.135 243.379 591.135 240.639C591.135 237.879 591.812 235.686 593.166 234.061C594.531 232.436 596.359 231.624 598.651 231.624C600.797 231.624 602.495 232.332 603.745 233.749C604.995 235.155 605.62 237.014 605.62 239.327V240.967H593.823C593.875 242.978 594.38 244.504 595.338 245.545C596.307 246.587 597.666 247.108 599.416 247.108C601.26 247.108 603.083 246.722 604.885 245.952V248.264C603.969 248.66 603.099 248.941 602.276 249.108C601.463 249.285 600.479 249.374 599.323 249.374ZM598.62 233.795C597.245 233.795 596.146 234.243 595.323 235.139C594.51 236.035 594.031 237.275 593.885 238.858H602.838C602.838 237.222 602.474 235.972 601.745 235.108C601.015 234.233 599.974 233.795 598.62 233.795ZM617.771 249.374C615.24 249.374 613.24 248.603 611.771 247.061C610.313 245.519 609.584 243.379 609.584 240.639C609.584 237.879 610.261 235.686 611.615 234.061C612.98 232.436 614.808 231.624 617.1 231.624C619.245 231.624 620.943 232.332 622.193 233.749C623.443 235.155 624.068 237.014 624.068 239.327V240.967H612.271C612.324 242.978 612.829 244.504 613.787 245.545C614.756 246.587 616.115 247.108 617.865 247.108C619.709 247.108 621.532 246.722 623.334 245.952V248.264C622.417 248.66 621.547 248.941 620.725 249.108C619.912 249.285 618.928 249.374 617.771 249.374ZM617.068 233.795C615.693 233.795 614.594 234.243 613.771 235.139C612.959 236.035 612.48 237.275 612.334 238.858H621.287C621.287 237.222 620.922 235.972 620.193 235.108C619.464 234.233 618.422 233.795 617.068 233.795ZM640.705 249.061V237.983C640.705 236.587 640.387 235.545 639.751 234.858C639.116 234.17 638.121 233.827 636.767 233.827C634.975 233.827 633.663 234.311 632.83 235.28C631.996 236.249 631.58 237.847 631.58 240.077V249.061H628.986V231.936H631.095L631.517 234.28H631.642C632.173 233.436 632.918 232.785 633.876 232.327C634.835 231.858 635.902 231.624 637.08 231.624C639.142 231.624 640.694 232.124 641.736 233.124C642.777 234.113 643.298 235.702 643.298 237.889V249.061H640.705Z" fill="#4D4D4D"/>
<path d="M1300.79 188.874C1300.79 191.186 1300 192.967 1298.42 194.217C1296.84 195.457 1294.59 196.077 1291.65 196.077H1288.96V205.061H1286.31V182.217H1292.23C1297.94 182.217 1300.79 184.436 1300.79 188.874ZM1288.96 193.795H1291.35C1293.71 193.795 1295.41 193.415 1296.46 192.655C1297.51 191.894 1298.04 190.676 1298.04 188.999C1298.04 187.488 1297.55 186.363 1296.56 185.624C1295.57 184.884 1294.02 184.514 1291.93 184.514H1288.96V193.795ZM1313.49 187.624C1314.25 187.624 1314.93 187.686 1315.54 187.811L1315.18 190.217C1314.47 190.061 1313.84 189.983 1313.3 189.983C1311.92 189.983 1310.73 190.545 1309.74 191.67C1308.76 192.795 1308.27 194.196 1308.27 195.874V205.061H1305.68V187.936H1307.82L1308.11 191.108H1308.24C1308.87 189.993 1309.64 189.134 1310.54 188.53C1311.43 187.926 1312.42 187.624 1313.49 187.624ZM1334 196.483C1334 199.275 1333.3 201.457 1331.89 203.03C1330.48 204.592 1328.54 205.374 1326.06 205.374C1324.53 205.374 1323.17 205.014 1321.98 204.295C1320.8 203.577 1319.88 202.545 1319.23 201.202C1318.59 199.858 1318.27 198.285 1318.27 196.483C1318.27 193.691 1318.96 191.519 1320.36 189.967C1321.76 188.405 1323.69 187.624 1326.17 187.624C1328.57 187.624 1330.47 188.42 1331.88 190.014C1333.29 191.608 1334 193.764 1334 196.483ZM1320.95 196.483C1320.95 198.67 1321.39 200.337 1322.27 201.483C1323.14 202.629 1324.43 203.202 1326.13 203.202C1327.82 203.202 1329.11 202.634 1329.98 201.499C1330.87 200.353 1331.31 198.681 1331.31 196.483C1331.31 194.306 1330.87 192.655 1329.98 191.53C1329.11 190.394 1327.81 189.827 1326.09 189.827C1324.4 189.827 1323.12 190.384 1322.25 191.499C1321.39 192.613 1320.95 194.275 1320.95 196.483ZM1350.7 202.764H1350.56C1349.36 204.504 1347.57 205.374 1345.18 205.374C1342.94 205.374 1341.2 204.608 1339.95 203.077C1338.71 201.545 1338.09 199.368 1338.09 196.545C1338.09 193.722 1338.71 191.53 1339.96 189.967C1341.21 188.405 1342.95 187.624 1345.18 187.624C1347.51 187.624 1349.29 188.467 1350.53 190.155H1350.73L1350.62 188.92L1350.56 187.717V180.749H1353.15V205.061H1351.04L1350.7 202.764ZM1345.51 203.202C1347.28 203.202 1348.56 202.722 1349.36 201.764C1350.16 200.795 1350.56 199.238 1350.56 197.092V196.545C1350.56 194.118 1350.15 192.389 1349.34 191.358C1348.54 190.316 1347.25 189.795 1345.48 189.795C1343.96 189.795 1342.79 190.389 1341.98 191.577C1341.18 192.754 1340.78 194.42 1340.78 196.577C1340.78 198.764 1341.18 200.415 1341.98 201.53C1342.78 202.644 1343.96 203.202 1345.51 203.202ZM1361.59 187.936V199.045C1361.59 200.441 1361.9 201.483 1362.54 202.17C1363.17 202.858 1364.17 203.202 1365.52 203.202C1367.31 203.202 1368.62 202.712 1369.44 201.733C1370.28 200.754 1370.69 199.155 1370.69 196.936V187.936H1373.29V205.061H1371.15L1370.77 202.764H1370.63C1370.1 203.608 1369.36 204.254 1368.41 204.702C1367.48 205.15 1366.4 205.374 1365.19 205.374C1363.11 205.374 1361.55 204.879 1360.51 203.889C1359.48 202.9 1358.96 201.316 1358.96 199.139V187.936H1361.59ZM1386.13 205.374C1383.65 205.374 1381.73 204.613 1380.36 203.092C1379.01 201.561 1378.33 199.4 1378.33 196.608C1378.33 193.743 1379.02 191.53 1380.39 189.967C1381.78 188.405 1383.75 187.624 1386.3 187.624C1387.12 187.624 1387.95 187.712 1388.77 187.889C1389.59 188.066 1390.24 188.275 1390.71 188.514L1389.91 190.717C1389.34 190.488 1388.71 190.301 1388.03 190.155C1387.36 189.999 1386.76 189.92 1386.24 189.92C1382.76 189.92 1381.02 192.139 1381.02 196.577C1381.02 198.681 1381.44 200.295 1382.28 201.42C1383.14 202.545 1384.4 203.108 1386.07 203.108C1387.49 203.108 1388.96 202.801 1390.46 202.186V204.483C1389.31 205.077 1387.87 205.374 1386.13 205.374ZM1400.55 203.233C1401 203.233 1401.45 203.202 1401.87 203.139C1402.3 203.066 1402.64 202.993 1402.89 202.92V204.905C1402.61 205.04 1402.19 205.15 1401.64 205.233C1401.1 205.327 1400.61 205.374 1400.17 205.374C1396.86 205.374 1395.2 203.629 1395.2 200.139V189.952H1392.75V188.702L1395.2 187.624L1396.3 183.967H1397.8V187.936H1402.76V189.952H1397.8V200.03C1397.8 201.061 1398.04 201.853 1398.53 202.405C1399.02 202.957 1399.69 203.233 1400.55 203.233ZM1434.22 193.42C1434.22 197.191 1433.2 200.077 1431.15 202.077C1429.1 204.066 1426.16 205.061 1422.32 205.061H1415.99V182.217H1422.99C1426.54 182.217 1429.3 183.202 1431.27 185.17C1433.24 187.139 1434.22 189.889 1434.22 193.42ZM1431.41 193.514C1431.41 190.535 1430.66 188.29 1429.16 186.78C1427.67 185.269 1425.45 184.514 1422.51 184.514H1418.65V202.764H1421.88C1425.05 202.764 1427.43 201.988 1429.02 200.436C1430.61 198.874 1431.41 196.566 1431.41 193.514ZM1446.66 205.374C1444.13 205.374 1442.13 204.603 1440.66 203.061C1439.2 201.519 1438.47 199.379 1438.47 196.639C1438.47 193.879 1439.15 191.686 1440.5 190.061C1441.87 188.436 1443.69 187.624 1445.99 187.624C1448.13 187.624 1449.83 188.332 1451.08 189.749C1452.33 191.155 1452.95 193.014 1452.95 195.327V196.967H1441.16C1441.21 198.978 1441.71 200.504 1442.67 201.545C1443.64 202.587 1445 203.108 1446.75 203.108C1448.59 203.108 1450.42 202.722 1452.22 201.952V204.264C1451.3 204.66 1450.43 204.941 1449.61 205.108C1448.8 205.285 1447.81 205.374 1446.66 205.374ZM1445.95 189.795C1444.58 189.795 1443.48 190.243 1442.66 191.139C1441.84 192.035 1441.37 193.275 1441.22 194.858H1450.17C1450.17 193.222 1449.81 191.972 1449.08 191.108C1448.35 190.233 1447.31 189.795 1445.95 189.795ZM1463.4 203.233C1463.86 203.233 1464.3 203.202 1464.73 203.139C1465.16 203.066 1465.5 202.993 1465.75 202.92V204.905C1465.47 205.04 1465.05 205.15 1464.5 205.233C1463.96 205.327 1463.47 205.374 1463.03 205.374C1459.72 205.374 1458.06 203.629 1458.06 200.139V189.952H1455.61V188.702L1458.06 187.624L1459.15 183.967H1460.65V187.936H1465.62V189.952H1460.65V200.03C1460.65 201.061 1460.9 201.853 1461.39 202.405C1461.88 202.957 1462.55 203.233 1463.4 203.233ZM1480.2 205.061L1479.68 202.624H1479.55C1478.7 203.696 1477.85 204.426 1476.99 204.811C1476.15 205.186 1475.09 205.374 1473.82 205.374C1472.12 205.374 1470.79 204.936 1469.82 204.061C1468.86 203.186 1468.38 201.941 1468.38 200.327C1468.38 196.868 1471.15 195.056 1476.68 194.889L1479.59 194.795V193.733C1479.59 192.389 1479.29 191.4 1478.71 190.764C1478.14 190.118 1477.22 189.795 1475.95 189.795C1474.52 189.795 1472.9 190.233 1471.1 191.108L1470.3 189.124C1471.15 188.665 1472.07 188.306 1473.07 188.045C1474.08 187.785 1475.09 187.655 1476.1 187.655C1478.14 187.655 1479.65 188.108 1480.63 189.014C1481.62 189.92 1482.12 191.374 1482.12 193.374V205.061H1480.2ZM1474.34 203.233C1475.95 203.233 1477.22 202.79 1478.13 201.905C1479.06 201.019 1479.52 199.78 1479.52 198.186V196.639L1476.93 196.749C1474.87 196.821 1473.38 197.144 1472.46 197.717C1471.55 198.28 1471.1 199.16 1471.1 200.358C1471.1 201.295 1471.38 202.009 1471.95 202.499C1472.52 202.988 1473.32 203.233 1474.34 203.233ZM1490.55 205.061H1487.96V187.936H1490.55V205.061ZM1487.74 183.295C1487.74 182.702 1487.88 182.269 1488.18 181.999C1488.47 181.717 1488.83 181.577 1489.27 181.577C1489.69 181.577 1490.05 181.717 1490.35 181.999C1490.65 182.28 1490.8 182.712 1490.8 183.295C1490.8 183.879 1490.65 184.316 1490.35 184.608C1490.05 184.889 1489.69 185.03 1489.27 185.03C1488.83 185.03 1488.47 184.889 1488.18 184.608C1487.88 184.316 1487.74 183.879 1487.74 183.295ZM1499.12 205.061H1496.53V180.749H1499.12V205.061ZM1516.15 200.389C1516.15 201.983 1515.56 203.212 1514.37 204.077C1513.18 204.941 1511.52 205.374 1509.37 205.374C1507.1 205.374 1505.33 205.014 1504.06 204.295V201.889C1504.88 202.306 1505.76 202.634 1506.7 202.874C1507.65 203.113 1508.56 203.233 1509.43 203.233C1510.79 203.233 1511.83 203.019 1512.56 202.592C1513.29 202.155 1513.65 201.493 1513.65 200.608C1513.65 199.941 1513.36 199.374 1512.78 198.905C1512.2 198.426 1511.08 197.863 1509.4 197.217C1507.81 196.624 1506.67 196.108 1505.99 195.67C1505.33 195.222 1504.83 194.717 1504.49 194.155C1504.17 193.592 1504.01 192.92 1504.01 192.139C1504.01 190.743 1504.58 189.644 1505.71 188.842C1506.85 188.03 1508.41 187.624 1510.39 187.624C1512.23 187.624 1514.03 187.999 1515.79 188.749L1514.87 190.858C1513.15 190.15 1511.59 189.795 1510.2 189.795C1508.97 189.795 1508.04 189.988 1507.42 190.374C1506.79 190.759 1506.48 191.29 1506.48 191.967C1506.48 192.426 1506.59 192.816 1506.82 193.139C1507.06 193.462 1507.44 193.769 1507.96 194.061C1508.48 194.353 1509.48 194.775 1510.96 195.327C1512.99 196.066 1514.36 196.811 1515.07 197.561C1515.79 198.311 1516.15 199.254 1516.15 200.389Z" fill="#4D4D4D"/>
<path d="M915.016 205.061H912.359V182.217H925.094V184.577H915.016V192.936H924.484V195.295H915.016V205.061ZM931.574 205.061H928.98V187.936H931.574V205.061ZM928.761 183.295C928.761 182.702 928.907 182.269 929.199 181.999C929.49 181.717 929.855 181.577 930.293 181.577C930.709 181.577 931.069 181.717 931.371 181.999C931.673 182.28 931.824 182.712 931.824 183.295C931.824 183.879 931.673 184.316 931.371 184.608C931.069 184.889 930.709 185.03 930.293 185.03C929.855 185.03 929.49 184.889 929.199 184.608C928.907 184.316 928.761 183.879 928.761 183.295ZM940.148 205.061H937.554V180.749H940.148V205.061ZM951.659 203.233C952.117 203.233 952.56 203.202 952.987 203.139C953.414 203.066 953.753 202.993 954.003 202.92V204.905C953.721 205.04 953.305 205.15 952.753 205.233C952.211 205.327 951.721 205.374 951.284 205.374C947.971 205.374 946.315 203.629 946.315 200.139V189.952H943.862V188.702L946.315 187.624L947.409 183.967H948.909V187.936H953.878V189.952H948.909V200.03C948.909 201.061 949.154 201.853 949.643 202.405C950.133 202.957 950.805 203.233 951.659 203.233ZM965.154 205.374C962.623 205.374 960.623 204.603 959.154 203.061C957.696 201.519 956.967 199.379 956.967 196.639C956.967 193.879 957.644 191.686 958.998 190.061C960.363 188.436 962.191 187.624 964.483 187.624C966.628 187.624 968.326 188.332 969.576 189.749C970.826 191.155 971.451 193.014 971.451 195.327V196.967H959.654C959.706 198.978 960.212 200.504 961.17 201.545C962.139 202.587 963.498 203.108 965.248 203.108C967.092 203.108 968.915 202.722 970.717 201.952V204.264C969.8 204.66 968.93 204.941 968.108 205.108C967.295 205.285 966.311 205.374 965.154 205.374ZM964.451 189.795C963.076 189.795 961.977 190.243 961.154 191.139C960.342 192.035 959.863 193.275 959.717 194.858H968.67C968.67 193.222 968.305 191.972 967.576 191.108C966.847 190.233 965.805 189.795 964.451 189.795ZM984.181 187.624C984.942 187.624 985.624 187.686 986.228 187.811L985.869 190.217C985.16 190.061 984.535 189.983 983.994 189.983C982.608 189.983 981.421 190.545 980.431 191.67C979.452 192.795 978.963 194.196 978.963 195.874V205.061H976.369V187.936H978.509L978.806 191.108H978.931C979.567 189.993 980.332 189.134 981.228 188.53C982.124 187.926 983.108 187.624 984.181 187.624ZM1002.42 186.764C1002.42 187.483 1002.61 188.17 1002.99 188.827C1003.36 189.472 1004 190.254 1004.91 191.17C1006.25 190.389 1007.18 189.67 1007.7 189.014C1008.24 188.347 1008.5 187.582 1008.5 186.717C1008.5 185.915 1008.23 185.264 1007.69 184.764C1007.16 184.254 1006.44 183.999 1005.55 183.999C1004.62 183.999 1003.87 184.249 1003.28 184.749C1002.71 185.249 1002.42 185.92 1002.42 186.764ZM1004.84 203.045C1007.35 203.045 1009.44 202.243 1011.09 200.639L1004.27 194.014C1003.11 194.722 1002.29 195.311 1001.81 195.78C1001.33 196.238 1000.98 196.733 1000.75 197.264C1000.52 197.795 1000.41 198.4 1000.41 199.077C1000.41 200.295 1000.81 201.264 1001.61 201.983C1002.42 202.691 1003.5 203.045 1004.84 203.045ZM997.719 199.139C997.719 197.785 998.079 196.587 998.798 195.545C999.527 194.504 1000.83 193.452 1002.7 192.389C1001.82 191.4 1001.21 190.65 1000.89 190.139C1000.58 189.629 1000.33 189.097 1000.14 188.545C999.954 187.993 999.86 187.42 999.86 186.827C999.86 185.264 1000.37 184.045 1001.39 183.17C1002.41 182.295 1003.83 181.858 1005.66 181.858C1007.34 181.858 1008.67 182.295 1009.64 183.17C1010.61 184.035 1011.09 185.243 1011.09 186.795C1011.09 187.91 1010.74 188.941 1010.03 189.889C1009.32 190.827 1008.15 191.78 1006.52 192.749L1012.88 198.858C1013.46 198.212 1013.92 197.457 1014.27 196.592C1014.62 195.717 1014.92 194.764 1015.16 193.733H1017.78C1017.07 196.712 1016.01 198.972 1014.58 200.514L1019.25 205.061H1015.67L1012.78 202.28C1011.55 203.384 1010.3 204.176 1009.03 204.655C1007.76 205.134 1006.34 205.374 1004.78 205.374C1002.54 205.374 1000.8 204.821 999.563 203.717C998.334 202.613 997.719 201.087 997.719 199.139ZM1044.63 198.983C1044.63 200.993 1043.9 202.561 1042.45 203.686C1040.99 204.811 1039.01 205.374 1036.51 205.374C1033.8 205.374 1031.72 205.025 1030.26 204.327V201.764C1031.2 202.16 1032.22 202.472 1033.32 202.702C1034.42 202.931 1035.52 203.045 1036.6 203.045C1038.37 203.045 1039.71 202.712 1040.6 202.045C1041.5 201.368 1041.95 200.431 1041.95 199.233C1041.95 198.441 1041.78 197.795 1041.46 197.295C1041.15 196.785 1040.62 196.316 1039.87 195.889C1039.13 195.462 1038 194.978 1036.48 194.436C1034.35 193.676 1032.83 192.775 1031.91 191.733C1031.01 190.691 1030.55 189.332 1030.55 187.655C1030.55 185.894 1031.22 184.493 1032.54 183.452C1033.86 182.41 1035.61 181.889 1037.79 181.889C1040.06 181.889 1042.15 182.306 1044.05 183.139L1043.23 185.452C1041.34 184.66 1039.51 184.264 1037.73 184.264C1036.32 184.264 1035.22 184.566 1034.43 185.17C1033.64 185.775 1033.24 186.613 1033.24 187.686C1033.24 188.478 1033.39 189.129 1033.68 189.639C1033.97 190.139 1034.46 190.603 1035.15 191.03C1035.85 191.446 1036.91 191.91 1038.34 192.42C1040.73 193.275 1042.38 194.191 1043.27 195.17C1044.18 196.15 1044.63 197.42 1044.63 198.983ZM1064.18 196.483C1064.18 199.275 1063.47 201.457 1062.07 203.03C1060.66 204.592 1058.72 205.374 1056.24 205.374C1054.71 205.374 1053.35 205.014 1052.16 204.295C1050.97 203.577 1050.06 202.545 1049.41 201.202C1048.76 199.858 1048.44 198.285 1048.44 196.483C1048.44 193.691 1049.14 191.519 1050.53 189.967C1051.93 188.405 1053.87 187.624 1056.35 187.624C1058.74 187.624 1060.64 188.42 1062.05 190.014C1063.47 191.608 1064.18 193.764 1064.18 196.483ZM1051.13 196.483C1051.13 198.67 1051.57 200.337 1052.44 201.483C1053.32 202.629 1054.6 203.202 1056.3 203.202C1058 203.202 1059.28 202.634 1060.16 201.499C1061.04 200.353 1061.49 198.681 1061.49 196.483C1061.49 194.306 1061.04 192.655 1060.16 191.53C1059.28 190.394 1057.99 189.827 1056.27 189.827C1054.57 189.827 1053.29 190.384 1052.43 191.499C1051.56 192.613 1051.13 194.275 1051.13 196.483ZM1077.03 187.624C1077.79 187.624 1078.47 187.686 1079.08 187.811L1078.72 190.217C1078.01 190.061 1077.38 189.983 1076.84 189.983C1075.46 189.983 1074.27 190.545 1073.28 191.67C1072.3 192.795 1071.81 194.196 1071.81 195.874V205.061H1069.22V187.936H1071.36L1071.66 191.108H1071.78C1072.42 189.993 1073.18 189.134 1074.08 188.53C1074.97 187.926 1075.96 187.624 1077.03 187.624ZM1088.29 203.233C1088.75 203.233 1089.19 203.202 1089.62 203.139C1090.05 203.066 1090.39 202.993 1090.64 202.92V204.905C1090.35 205.04 1089.94 205.15 1089.39 205.233C1088.84 205.327 1088.35 205.374 1087.92 205.374C1084.6 205.374 1082.95 203.629 1082.95 200.139V189.952H1080.49V188.702L1082.95 187.624L1084.04 183.967H1085.54V187.936H1090.51V189.952H1085.54V200.03C1085.54 201.061 1085.79 201.853 1086.28 202.405C1086.77 202.957 1087.44 203.233 1088.29 203.233Z" fill="#4D4D4D"/>
<path d="M1761.99 184.264C1759.48 184.264 1757.5 185.103 1756.04 186.78C1754.59 188.446 1753.87 190.733 1753.87 193.639C1753.87 196.629 1754.57 198.941 1755.96 200.577C1757.37 202.202 1759.37 203.014 1761.96 203.014C1763.56 203.014 1765.37 202.728 1767.42 202.155V204.483C1765.83 205.077 1763.88 205.374 1761.56 205.374C1758.19 205.374 1755.59 204.353 1753.76 202.311C1751.94 200.269 1751.03 197.368 1751.03 193.608C1751.03 191.254 1751.46 189.191 1752.34 187.42C1753.22 185.65 1754.49 184.285 1756.15 183.327C1757.82 182.368 1759.78 181.889 1762.03 181.889C1764.42 181.889 1766.51 182.327 1768.31 183.202L1767.18 185.483C1765.45 184.67 1763.72 184.264 1761.99 184.264ZM1784.21 205.061V193.983C1784.21 192.587 1783.89 191.545 1783.26 190.858C1782.62 190.17 1781.63 189.827 1780.27 189.827C1778.47 189.827 1777.15 190.316 1776.32 191.295C1775.49 192.275 1775.08 193.879 1775.08 196.108V205.061H1772.49V180.749H1775.08V188.108C1775.08 188.993 1775.04 189.728 1774.96 190.311H1775.11C1775.63 189.488 1776.35 188.842 1777.29 188.374C1778.23 187.894 1779.31 187.655 1780.52 187.655C1782.61 187.655 1784.18 188.155 1785.22 189.155C1786.28 190.144 1786.8 191.722 1786.8 193.889V205.061H1784.21ZM1799.86 205.374C1797.33 205.374 1795.33 204.603 1793.86 203.061C1792.4 201.519 1791.67 199.379 1791.67 196.639C1791.67 193.879 1792.35 191.686 1793.7 190.061C1795.07 188.436 1796.9 187.624 1799.19 187.624C1801.33 187.624 1803.03 188.332 1804.28 189.749C1805.53 191.155 1806.16 193.014 1806.16 195.327V196.967H1794.36C1794.41 198.978 1794.92 200.504 1795.88 201.545C1796.84 202.587 1798.2 203.108 1799.95 203.108C1801.8 203.108 1803.62 202.722 1805.42 201.952V204.264C1804.51 204.66 1803.64 204.941 1802.81 205.108C1802 205.285 1801.02 205.374 1799.86 205.374ZM1799.16 189.795C1797.78 189.795 1796.68 190.243 1795.86 191.139C1795.05 192.035 1794.57 193.275 1794.42 194.858H1803.38C1803.38 193.222 1803.01 191.972 1802.28 191.108C1801.55 190.233 1800.51 189.795 1799.16 189.795ZM1817.92 205.374C1815.44 205.374 1813.52 204.613 1812.15 203.092C1810.8 201.561 1810.12 199.4 1810.12 196.608C1810.12 193.743 1810.81 191.53 1812.18 189.967C1813.57 188.405 1815.54 187.624 1818.09 187.624C1818.91 187.624 1819.74 187.712 1820.56 187.889C1821.38 188.066 1822.03 188.275 1822.5 188.514L1821.7 190.717C1821.13 190.488 1820.5 190.301 1819.82 190.155C1819.15 189.999 1818.55 189.92 1818.03 189.92C1814.55 189.92 1812.81 192.139 1812.81 196.577C1812.81 198.681 1813.23 200.295 1814.07 201.42C1814.93 202.545 1816.19 203.108 1817.86 203.108C1819.28 203.108 1820.75 202.801 1822.25 202.186V204.483C1821.1 205.077 1819.66 205.374 1817.92 205.374ZM1829.37 196.295C1829.82 195.66 1830.5 194.827 1831.41 193.795L1836.95 187.936H1840.02L1833.09 195.233L1840.51 205.061H1837.37L1831.32 196.967L1829.37 198.655V205.061H1826.8V180.749H1829.37V193.639C1829.37 194.212 1829.33 195.097 1829.24 196.295H1829.37ZM1858.88 196.483C1858.88 199.275 1858.18 201.457 1856.77 203.03C1855.36 204.592 1853.42 205.374 1850.94 205.374C1849.41 205.374 1848.05 205.014 1846.86 204.295C1845.68 203.577 1844.76 202.545 1844.11 201.202C1843.47 199.858 1843.14 198.285 1843.14 196.483C1843.14 193.691 1843.84 191.519 1845.24 189.967C1846.63 188.405 1848.57 187.624 1851.05 187.624C1853.45 187.624 1855.35 188.42 1856.75 190.014C1858.17 191.608 1858.88 193.764 1858.88 196.483ZM1845.83 196.483C1845.83 198.67 1846.27 200.337 1847.14 201.483C1848.02 202.629 1849.31 203.202 1851 203.202C1852.7 203.202 1853.99 202.634 1854.86 201.499C1855.75 200.353 1856.19 198.681 1856.19 196.483C1856.19 194.306 1855.75 192.655 1854.86 191.53C1853.99 190.394 1852.69 189.827 1850.97 189.827C1849.27 189.827 1847.99 190.384 1847.13 191.499C1846.26 192.613 1845.83 194.275 1845.83 196.483ZM1866.36 187.936V199.045C1866.36 200.441 1866.68 201.483 1867.31 202.17C1867.95 202.858 1868.94 203.202 1870.3 203.202C1872.09 203.202 1873.39 202.712 1874.22 201.733C1875.05 200.754 1875.47 199.155 1875.47 196.936V187.936H1878.06V205.061H1875.92L1875.55 202.764H1875.41C1874.87 203.608 1874.13 204.254 1873.19 204.702C1872.25 205.15 1871.18 205.374 1869.97 205.374C1867.88 205.374 1866.32 204.879 1865.28 203.889C1864.25 202.9 1863.73 201.316 1863.73 199.139V187.936H1866.36ZM1889.59 203.233C1890.05 203.233 1890.49 203.202 1890.92 203.139C1891.34 203.066 1891.68 202.993 1891.93 202.92V204.905C1891.65 205.04 1891.23 205.15 1890.68 205.233C1890.14 205.327 1889.65 205.374 1889.21 205.374C1885.9 205.374 1884.24 203.629 1884.24 200.139V189.952H1881.79V188.702L1884.24 187.624L1885.34 183.967H1886.84V187.936H1891.81V189.952H1886.84V200.03C1886.84 201.061 1887.08 201.853 1887.57 202.405C1888.06 202.957 1888.73 203.233 1889.59 203.233Z" fill="#4D4D4D"/>
<path d="M2125.4 193.608C2125.4 197.264 2124.47 200.139 2122.61 202.233C2120.77 204.327 2118.2 205.374 2114.91 205.374C2111.55 205.374 2108.95 204.347 2107.11 202.295C2105.29 200.233 2104.38 197.327 2104.38 193.577C2104.38 189.858 2105.3 186.978 2107.13 184.936C2108.96 182.884 2111.57 181.858 2114.94 181.858C2118.22 181.858 2120.79 182.9 2122.63 184.983C2124.47 187.066 2125.4 189.941 2125.4 193.608ZM2107.19 193.608C2107.19 196.702 2107.85 199.051 2109.16 200.655C2110.48 202.249 2112.4 203.045 2114.91 203.045C2117.44 203.045 2119.35 202.249 2120.65 200.655C2121.94 199.061 2122.58 196.712 2122.58 193.608C2122.58 190.535 2121.94 188.207 2120.65 186.624C2119.36 185.03 2117.46 184.233 2114.94 184.233C2112.41 184.233 2110.48 185.035 2109.16 186.639C2107.85 188.233 2107.19 190.556 2107.19 193.608ZM2138.41 187.624C2139.17 187.624 2139.85 187.686 2140.45 187.811L2140.09 190.217C2139.39 190.061 2138.76 189.983 2138.22 189.983C2136.83 189.983 2135.65 190.545 2134.66 191.67C2133.68 192.795 2133.19 194.196 2133.19 195.874V205.061H2130.59V187.936H2132.73L2133.03 191.108H2133.16C2133.79 189.993 2134.56 189.134 2135.45 188.53C2136.35 187.926 2137.33 187.624 2138.41 187.624ZM2155.79 202.764H2155.65C2154.45 204.504 2152.66 205.374 2150.28 205.374C2148.04 205.374 2146.29 204.608 2145.04 203.077C2143.8 201.545 2143.18 199.368 2143.18 196.545C2143.18 193.722 2143.81 191.53 2145.06 189.967C2146.31 188.405 2148.05 187.624 2150.28 187.624C2152.6 187.624 2154.38 188.467 2155.62 190.155H2155.82L2155.71 188.92L2155.65 187.717V180.749H2158.25V205.061H2156.14L2155.79 202.764ZM2150.61 203.202C2152.38 203.202 2153.66 202.722 2154.45 201.764C2155.25 200.795 2155.65 199.238 2155.65 197.092V196.545C2155.65 194.118 2155.25 192.389 2154.43 191.358C2153.63 190.316 2152.34 189.795 2150.57 189.795C2149.05 189.795 2147.89 190.389 2147.07 191.577C2146.27 192.754 2145.87 194.42 2145.87 196.577C2145.87 198.764 2146.27 200.415 2147.07 201.53C2147.88 202.644 2149.05 203.202 2150.61 203.202ZM2171.48 205.374C2168.94 205.374 2166.94 204.603 2165.48 203.061C2164.02 201.519 2163.29 199.379 2163.29 196.639C2163.29 193.879 2163.97 191.686 2165.32 190.061C2166.68 188.436 2168.51 187.624 2170.8 187.624C2172.95 187.624 2174.65 188.332 2175.9 189.749C2177.15 191.155 2177.77 193.014 2177.77 195.327V196.967H2165.98C2166.03 198.978 2166.53 200.504 2167.49 201.545C2168.46 202.587 2169.82 203.108 2171.57 203.108C2173.41 203.108 2175.24 202.722 2177.04 201.952V204.264C2176.12 204.66 2175.25 204.941 2174.43 205.108C2173.62 205.285 2172.63 205.374 2171.48 205.374ZM2170.77 189.795C2169.4 189.795 2168.3 190.243 2167.48 191.139C2166.66 192.035 2166.18 193.275 2166.04 194.858H2174.99C2174.99 193.222 2174.63 191.972 2173.9 191.108C2173.17 190.233 2172.13 189.795 2170.77 189.795ZM2190.5 187.624C2191.26 187.624 2191.95 187.686 2192.55 187.811L2192.19 190.217C2191.48 190.061 2190.86 189.983 2190.32 189.983C2188.93 189.983 2187.74 190.545 2186.75 191.67C2185.77 192.795 2185.28 194.196 2185.28 195.874V205.061H2182.69V187.936H2184.83L2185.13 191.108H2185.25C2185.89 189.993 2186.65 189.134 2187.55 188.53C2188.45 187.926 2189.43 187.624 2190.5 187.624ZM2215.2 184.264C2212.69 184.264 2210.7 185.103 2209.24 186.78C2207.8 188.446 2207.07 190.733 2207.07 193.639C2207.07 196.629 2207.77 198.941 2209.17 200.577C2210.57 202.202 2212.57 203.014 2215.17 203.014C2216.76 203.014 2218.58 202.728 2220.62 202.155V204.483C2219.04 205.077 2217.08 205.374 2214.76 205.374C2211.39 205.374 2208.8 204.353 2206.96 202.311C2205.14 200.269 2204.23 197.368 2204.23 193.608C2204.23 191.254 2204.67 189.191 2205.54 187.42C2206.43 185.65 2207.7 184.285 2209.35 183.327C2211.02 182.368 2212.98 181.889 2215.23 181.889C2217.62 181.889 2219.72 182.327 2221.51 183.202L2220.38 185.483C2218.66 184.67 2216.93 184.264 2215.2 184.264ZM2240.47 196.483C2240.47 199.275 2239.77 201.457 2238.36 203.03C2236.96 204.592 2235.02 205.374 2232.54 205.374C2231.01 205.374 2229.65 205.014 2228.46 204.295C2227.27 203.577 2226.35 202.545 2225.71 201.202C2225.06 199.858 2224.74 198.285 2224.74 196.483C2224.74 193.691 2225.44 191.519 2226.83 189.967C2228.23 188.405 2230.17 187.624 2232.65 187.624C2235.04 187.624 2236.94 188.42 2238.35 190.014C2239.77 191.608 2240.47 193.764 2240.47 196.483ZM2227.43 196.483C2227.43 198.67 2227.86 200.337 2228.74 201.483C2229.61 202.629 2230.9 203.202 2232.6 203.202C2234.3 203.202 2235.58 202.634 2236.46 201.499C2237.34 200.353 2237.79 198.681 2237.79 196.483C2237.79 194.306 2237.34 192.655 2236.46 191.53C2235.58 190.394 2234.29 189.827 2232.57 189.827C2230.87 189.827 2229.59 190.384 2228.72 191.499C2227.86 192.613 2227.43 194.275 2227.43 196.483ZM2267.34 205.061V193.92C2267.34 192.556 2267.05 191.535 2266.47 190.858C2265.89 190.17 2264.98 189.827 2263.75 189.827C2262.14 189.827 2260.94 190.29 2260.17 191.217C2259.4 192.144 2259.02 193.571 2259.02 195.499V205.061H2256.42V193.92C2256.42 192.556 2256.13 191.535 2255.55 190.858C2254.96 190.17 2254.05 189.827 2252.81 189.827C2251.19 189.827 2250 190.316 2249.24 191.295C2248.49 192.264 2248.11 193.858 2248.11 196.077V205.061H2245.52V187.936H2247.63L2248.05 190.28H2248.17C2248.66 189.446 2249.35 188.795 2250.24 188.327C2251.13 187.858 2252.13 187.624 2253.24 187.624C2255.91 187.624 2257.66 188.592 2258.49 190.53H2258.61C2259.12 189.634 2259.86 188.926 2260.83 188.405C2261.8 187.884 2262.9 187.624 2264.14 187.624C2266.08 187.624 2267.53 188.124 2268.49 189.124C2269.45 190.113 2269.94 191.702 2269.94 193.889V205.061H2267.34ZM2283.75 205.374C2282.63 205.374 2281.61 205.17 2280.68 204.764C2279.77 204.347 2279 203.712 2278.37 202.858H2278.18C2278.31 203.858 2278.37 204.806 2278.37 205.702V212.749H2275.78V187.936H2277.89L2278.25 190.28H2278.37C2279.04 189.342 2279.81 188.665 2280.7 188.249C2281.58 187.832 2282.6 187.624 2283.75 187.624C2286.02 187.624 2287.77 188.4 2289 189.952C2290.24 191.504 2290.86 193.681 2290.86 196.483C2290.86 199.295 2290.23 201.483 2288.97 203.045C2287.72 204.597 2285.98 205.374 2283.75 205.374ZM2283.37 189.827C2281.62 189.827 2280.36 190.311 2279.57 191.28C2278.79 192.249 2278.39 193.79 2278.37 195.905V196.483C2278.37 198.889 2278.77 200.613 2279.57 201.655C2280.38 202.686 2281.66 203.202 2283.43 203.202C2284.91 203.202 2286.07 202.603 2286.9 201.405C2287.75 200.207 2288.17 198.556 2288.17 196.452C2288.17 194.316 2287.75 192.681 2286.9 191.545C2286.07 190.4 2284.89 189.827 2283.37 189.827ZM2298.48 205.061H2295.88V180.749H2298.48V205.061ZM2311.69 205.374C2309.16 205.374 2307.16 204.603 2305.69 203.061C2304.23 201.519 2303.5 199.379 2303.5 196.639C2303.5 193.879 2304.18 191.686 2305.53 190.061C2306.9 188.436 2308.73 187.624 2311.02 187.624C2313.16 187.624 2314.86 188.332 2316.11 189.749C2317.36 191.155 2317.99 193.014 2317.99 195.327V196.967H2306.19C2306.24 198.978 2306.75 200.504 2307.71 201.545C2308.68 202.587 2310.03 203.108 2311.78 203.108C2313.63 203.108 2315.45 202.722 2317.25 201.952V204.264C2316.34 204.66 2315.47 204.941 2314.64 205.108C2313.83 205.285 2312.85 205.374 2311.69 205.374ZM2310.99 189.795C2309.61 189.795 2308.51 190.243 2307.69 191.139C2306.88 192.035 2306.4 193.275 2306.25 194.858H2315.21C2315.21 193.222 2314.84 191.972 2314.11 191.108C2313.38 190.233 2312.34 189.795 2310.99 189.795ZM2328.44 203.233C2328.89 203.233 2329.34 203.202 2329.76 203.139C2330.19 203.066 2330.53 202.993 2330.78 202.92V204.905C2330.5 205.04 2330.08 205.15 2329.53 205.233C2328.99 205.327 2328.5 205.374 2328.06 205.374C2324.75 205.374 2323.09 203.629 2323.09 200.139V189.952H2320.64V188.702L2323.09 187.624L2324.19 183.967H2325.69V187.936H2330.66V189.952H2325.69V200.03C2325.69 201.061 2325.93 201.853 2326.42 202.405C2326.91 202.957 2327.58 203.233 2328.44 203.233ZM2341.93 205.374C2339.4 205.374 2337.4 204.603 2335.93 203.061C2334.47 201.519 2333.74 199.379 2333.74 196.639C2333.74 193.879 2334.42 191.686 2335.78 190.061C2337.14 188.436 2338.97 187.624 2341.26 187.624C2343.41 187.624 2345.1 188.332 2346.35 189.749C2347.6 191.155 2348.23 193.014 2348.23 195.327V196.967H2336.43C2336.48 198.978 2336.99 200.504 2337.95 201.545C2338.92 202.587 2340.28 203.108 2342.03 203.108C2343.87 203.108 2345.69 202.722 2347.49 201.952V204.264C2346.58 204.66 2345.71 204.941 2344.89 205.108C2344.07 205.285 2343.09 205.374 2341.93 205.374ZM2341.23 189.795C2339.85 189.795 2338.75 190.243 2337.93 191.139C2337.12 192.035 2336.64 193.275 2336.49 194.858H2345.45C2345.45 193.222 2345.08 191.972 2344.35 191.108C2343.62 190.233 2342.58 189.795 2341.23 189.795ZM2355.49 198.764H2353.85L2353.05 182.217H2356.29L2355.49 198.764ZM2352.77 203.405C2352.77 201.988 2353.4 201.28 2354.65 201.28C2355.25 201.28 2355.71 201.462 2356.04 201.827C2356.37 202.191 2356.54 202.717 2356.54 203.405C2356.54 204.071 2356.37 204.592 2356.04 204.967C2355.7 205.332 2355.24 205.514 2354.65 205.514C2354.1 205.514 2353.66 205.353 2353.3 205.03C2352.95 204.696 2352.77 204.155 2352.77 203.405Z" fill="#4D4D4D"/>
<rect x="2050.12" y="312.887" width="359.382" height="630.552" rx="9.5" fill="white" stroke="#BDBDBD"/>
<rect x="2138.83" y="872.393" width="181.958" height="45.931" rx="22.9655" fill="#057EC1"/>
<rect x="2121.16" y="347.719" width="216.406" height="25.6154" rx="2" fill="#E6E6E6"/>
<rect x="2050.5" y="508.478" width="358.615" height="45.931" fill="#F5F5F5"/>
<rect x="2050.5" y="594.156" width="358.615" height="45.931" fill="#F5F5F5"/>
<rect x="2050.5" y="679.835" width="358.615" height="45.931" fill="#F5F5F5"/>
<rect x="2191.83" y="384.817" width="75.9629" height="13.2493" rx="2" fill="#E6E6E6"/>
<circle cx="2087.6" cy="360.085" r="7.06631" fill="#E20C77"/>
<circle cx="2132.65" cy="475.796" r="15.0159" fill="#1CAF72"/>
<circle cx="2360.54" cy="456.363" r="15.0159" fill="#E20C77"/>
<circle cx="2185.64" cy="373.334" r="11.4828" fill="#FE7800"/>
<circle cx="2328.74" cy="608.289" r="11.4828" fill="#E20C77"/>
<circle cx="2106.15" cy="586.207" r="11.4828" fill="#E20C77"/>
<circle cx="2312.4" cy="505.386" r="8.39125" fill="#1CAF72"/>
<circle cx="2320.35" cy="409.107" r="8.39125" fill="#1CAF72"/>
<circle cx="2375.11" cy="339.328" r="8.39125" fill="#FE7800"/>
<circle cx="2239.08" cy="470.054" r="8.39125" fill="#FE7800"/>
<circle cx="2188.74" cy="636.996" r="8.39125" fill="#1CAF72"/>
<rect x="822.346" y="312.004" width="359.382" height="630.552" rx="9.5" fill="white" stroke="#BDBDBD"/>
<rect x="911.059" y="351.252" width="181.074" height="20.3156" rx="2" fill="#E6E6E6"/>
<rect x="948.157" y="445.764" width="106.878" height="20.3156" rx="2" fill="#E6E6E6"/>
<circle cx="915.917" cy="527.468" r="32.6233" fill="white" stroke="#BDBDBD"/>
<circle cx="1001.6" cy="527.468" r="32.6233" fill="#057EC1" stroke="#BDBDBD"/>
<circle cx="1087.27" cy="527.468" r="32.6233" fill="white" stroke="#BDBDBD"/>
<circle cx="1048.41" cy="602.548" r="32.6233" fill="#057EC1" stroke="#BDBDBD"/>
<circle cx="954.782" cy="602.548" r="32.6233" fill="white" stroke="#BDBDBD"/>
<rect x="948.157" y="699.268" width="106.878" height="20.3156" rx="2" fill="#E6E6E6"/>
<circle cx="915.917" cy="780.972" r="32.6233" fill="white" stroke="#BDBDBD"/>
<circle cx="1001.6" cy="780.972" r="32.6233" fill="#057EC1" stroke="#BDBDBD"/>
<circle cx="1087.27" cy="780.972" r="32.6233" fill="white" stroke="#BDBDBD"/>
<mask id="mask1" mask-type="alpha" maskUnits="userSpaceOnUse" x="881" y="876" width="239" height="67">
<rect x="881.026" y="876.809" width="238.488" height="65.3634" fill="#C4C4C4"/>
</mask>
<g mask="url(#mask1)">
<rect x="948.157" y="877.692" width="106.878" height="20.3156" rx="2" fill="#E6E6E6"/>
<circle cx="915.917" cy="959.396" r="32.6233" fill="white" stroke="#BDBDBD"/>
<circle cx="1001.6" cy="959.396" r="32.6233" fill="#057EC1" stroke="#BDBDBD"/>
<circle cx="1087.27" cy="959.396" r="32.6233" fill="white" stroke="#BDBDBD"/>
</g>
<defs>
<filter id="filter0_d" x="438.265" y="474.912" width="152.393" height="138.26" filterUnits="userSpaceOnUse" color-interpolation-filters="sRGB">
<feFlood flood-opacity="0" result="BackgroundImageFix"/>
<feColorMatrix in="SourceAlpha" type="matrix" values="0 0 0 0 0 0 0 0 0 0 0 0 0 0 0 0 0 0 127 0"/>
<feOffset dy="2"/>
<feGaussianBlur stdDeviation="1"/>
<feColorMatrix type="matrix" values="0 0 0 0 0 0 0 0 0 0 0 0 0 0 0 0 0 0 0.18 0"/>
<feBlend mode="normal" in2="BackgroundImageFix" result="effect1_dropShadow"/>
<feBlend mode="normal" in="SourceGraphic" in2="effect1_dropShadow" result="shape"/>
</filter>
<filter id="filter1_d" x="438.265" y="637.438" width="152.393" height="138.26" filterUnits="userSpaceOnUse" color-interpolation-filters="sRGB">
<feFlood flood-opacity="0" result="BackgroundImageFix"/>
<feColorMatrix in="SourceAlpha" type="matrix" values="0 0 0 0 0 0 0 0 0 0 0 0 0 0 0 0 0 0 127 0"/>
<feOffset dy="2"/>
<feGaussianBlur stdDeviation="1"/>
<feColorMatrix type="matrix" values="0 0 0 0 0 0 0 0 0 0 0 0 0 0 0 0 0 0 0.18 0"/>
<feBlend mode="normal" in2="BackgroundImageFix" result="effect1_dropShadow"/>
<feBlend mode="normal" in="SourceGraphic" in2="effect1_dropShadow" result="shape"/>
</filter>
<filter id="filter2_d" x="594.607" y="474.912" width="152.393" height="138.26" filterUnits="userSpaceOnUse" color-interpolation-filters="sRGB">
<feFlood flood-opacity="0" result="BackgroundImageFix"/>
<feColorMatrix in="SourceAlpha" type="matrix" values="0 0 0 0 0 0 0 0 0 0 0 0 0 0 0 0 0 0 127 0"/>
<feOffset dy="2"/>
<feGaussianBlur stdDeviation="1"/>
<feColorMatrix type="matrix" values="0 0 0 0 0 0 0 0 0 0 0 0 0 0 0 0 0 0 0.18 0"/>
<feBlend mode="normal" in2="BackgroundImageFix" result="effect1_dropShadow"/>
<feBlend mode="normal" in="SourceGraphic" in2="effect1_dropShadow" result="shape"/>
</filter>
<filter id="filter3_d" x="594.607" y="637.438" width="152.393" height="138.26" filterUnits="userSpaceOnUse" color-interpolation-filters="sRGB">
<feFlood flood-opacity="0" result="BackgroundImageFix"/>
<feColorMatrix in="SourceAlpha" type="matrix" values="0 0 0 0 0 0 0 0 0 0 0 0 0 0 0 0 0 0 127 0"/>
<feOffset dy="2"/>
<feGaussianBlur stdDeviation="1"/>
<feColorMatrix type="matrix" values="0 0 0 0 0 0 0 0 0 0 0 0 0 0 0 0 0 0 0.18 0"/>
<feBlend mode="normal" in2="BackgroundImageFix" result="effect1_dropShadow"/>
<feBlend mode="normal" in="SourceGraphic" in2="effect1_dropShadow" result="shape"/>
</filter>
<filter id="filter4_d" x="438.265" y="799.963" width="152.393" height="138.26" filterUnits="userSpaceOnUse" color-interpolation-filters="sRGB">
<feFlood flood-opacity="0" result="BackgroundImageFix"/>
<feColorMatrix in="SourceAlpha" type="matrix" values="0 0 0 0 0 0 0 0 0 0 0 0 0 0 0 0 0 0 127 0"/>
<feOffset dy="2"/>
<feGaussianBlur stdDeviation="1"/>
<feColorMatrix type="matrix" values="0 0 0 0 0 0 0 0 0 0 0 0 0 0 0 0 0 0 0.18 0"/>
<feBlend mode="normal" in2="BackgroundImageFix" result="effect1_dropShadow"/>
<feBlend mode="normal" in="SourceGraphic" in2="effect1_dropShadow" result="shape"/>
</filter>
<filter id="filter5_d" x="594.607" y="799.963" width="152.393" height="138.26" filterUnits="userSpaceOnUse" color-interpolation-filters="sRGB">
<feFlood flood-opacity="0" result="BackgroundImageFix"/>
<feColorMatrix in="SourceAlpha" type="matrix" values="0 0 0 0 0 0 0 0 0 0 0 0 0 0 0 0 0 0 127 0"/>
<feOffset dy="2"/>
<feGaussianBlur stdDeviation="1"/>
<feColorMatrix type="matrix" values="0 0 0 0 0 0 0 0 0 0 0 0 0 0 0 0 0 0 0.18 0"/>
<feBlend mode="normal" in2="BackgroundImageFix" result="effect1_dropShadow"/>
<feBlend mode="normal" in="SourceGraphic" in2="effect1_dropShadow" result="shape"/>
</filter>
<filter id="filter6_d" x="1666.04" y="417.499" width="309.618" height="77.313" filterUnits="userSpaceOnUse" color-interpolation-filters="sRGB">
<feFlood flood-opacity="0" result="BackgroundImageFix"/>
<feColorMatrix in="SourceAlpha" type="matrix" values="0 0 0 0 0 0 0 0 0 0 0 0 0 0 0 0 0 0 127 0"/>
<feOffset dy="2"/>
<feGaussianBlur stdDeviation="1"/>
<feColorMatrix type="matrix" values="0 0 0 0 0 0 0 0 0 0 0 0 0 0 0 0 0 0 0.18 0"/>
<feBlend mode="normal" in2="BackgroundImageFix" result="effect1_dropShadow"/>
<feBlend mode="normal" in="SourceGraphic" in2="effect1_dropShadow" result="shape"/>
</filter>
<filter id="filter7_d" x="1666.04" y="512.894" width="309.618" height="77.313" filterUnits="userSpaceOnUse" color-interpolation-filters="sRGB">
<feFlood flood-opacity="0" result="BackgroundImageFix"/>
<feColorMatrix in="SourceAlpha" type="matrix" values="0 0 0 0 0 0 0 0 0 0 0 0 0 0 0 0 0 0 127 0"/>
<feOffset dy="2"/>
<feGaussianBlur stdDeviation="1"/>
<feColorMatrix type="matrix" values="0 0 0 0 0 0 0 0 0 0 0 0 0 0 0 0 0 0 0.18 0"/>
<feBlend mode="normal" in2="BackgroundImageFix" result="effect1_dropShadow"/>
<feBlend mode="normal" in="SourceGraphic" in2="effect1_dropShadow" result="shape"/>
</filter>
<filter id="filter8_d" x="1666.04" y="608.289" width="309.618" height="77.313" filterUnits="userSpaceOnUse" color-interpolation-filters="sRGB">
<feFlood flood-opacity="0" result="BackgroundImageFix"/>
<feColorMatrix in="SourceAlpha" type="matrix" values="0 0 0 0 0 0 0 0 0 0 0 0 0 0 0 0 0 0 127 0"/>
<feOffset dy="2"/>
<feGaussianBlur stdDeviation="1"/>
<feColorMatrix type="matrix" values="0 0 0 0 0 0 0 0 0 0 0 0 0 0 0 0 0 0 0.18 0"/>
<feBlend mode="normal" in2="BackgroundImageFix" result="effect1_dropShadow"/>
<feBlend mode="normal" in="SourceGraphic" in2="effect1_dropShadow" result="shape"/>
</filter>
</defs>
</svg>
