<svg width="407" height="907" viewBox="0 0 407 907" fill="none" xmlns="http://www.w3.org/2000/svg">
<g filter="url(#filter0_ii)">
<rect y="31" width="407" height="854" rx="60" fill="#333232"/>
</g>
<g clip-path="url(#clip0)">
<path d="M16 95C16 67.3858 38.3858 45 66 45H341C368.614 45 391 67.3858 391 95V821C391 848.614 368.614 871 341 871H66C38.3858 871 16 848.614 16 821V95Z" fill="white"/>
<rect x="16" y="45" width="375" height="812" rx="50" fill="white"/>
<path d="M279.938 730.344V728.125C284.312 727.828 287.078 725.422 287.078 721.828C287.078 718.656 285.25 716.844 280.859 715.75L279.938 715.516V707.016C282.578 707.25 284.531 708.969 284.609 711.125H286.641C286.547 707.859 283.797 705.438 279.938 705.156V703.016H278.312V705.172C274.297 705.469 271.672 707.844 271.672 711.203C271.672 714.125 273.516 716 277.453 717L278.312 717.234V726.281C275.391 726.016 273.328 724.281 273.156 721.891H271.125C271.172 725.344 274.094 727.875 278.312 728.141V730.344H279.938ZM285.016 721.984C285.016 724.469 283.016 726.172 279.938 726.312V717.562C283.547 718.375 285.016 719.656 285.016 721.984ZM273.719 711.094C273.719 708.859 275.672 707.141 278.312 707.016V715.156C275.141 714.453 273.719 713.188 273.719 711.094ZM300.766 728.469C305.344 728.469 308.578 725.312 308.578 720.844C308.578 716.484 305.5 713.375 301.172 713.375C298.969 713.375 297.094 714.188 296.016 715.594H295.812L296.562 707.375H307.172V705.453H294.875L293.656 718.047H295.688C296.641 716.312 298.609 715.234 300.828 715.234C304.078 715.234 306.438 717.594 306.438 720.906C306.438 724.219 304.078 726.578 300.781 726.578C297.938 726.578 295.641 724.703 295.406 722.172H293.312C293.547 725.844 296.672 728.469 300.766 728.469ZM322 728.469C326.984 728.469 329.922 724.125 329.922 716.75C329.922 709.391 326.953 704.984 322 704.984C317.016 704.984 314.031 709.375 314.031 716.719C314.031 724.109 316.984 728.469 322 728.469ZM322 726.594C318.328 726.594 316.188 722.969 316.188 716.719C316.188 710.531 318.344 706.875 322 706.875C325.641 706.875 327.781 710.5 327.781 716.719C327.781 722.969 325.656 726.594 322 726.594Z" fill="#4D4D4D"/>
<g opacity="0.9">
<path d="M73.0518 731V722.243H76.2305V721.136H68.6426V722.243H71.8213V731H73.0518ZM83.2018 720.903C80.4127 720.903 78.6695 722.893 78.6695 726.064C78.6695 729.223 80.3717 731.232 83.2018 731.232C86.0182 731.232 87.7135 729.216 87.7135 726.064C87.7135 722.899 86.0045 720.903 83.2018 720.903ZM83.2018 722.038C85.2184 722.038 86.4488 723.597 86.4488 726.064C86.4488 728.512 85.2252 730.098 83.2018 730.098C81.151 730.098 79.9342 728.512 79.9342 726.064C79.9342 723.597 81.192 722.038 83.2018 722.038ZM94.5686 731V722.243H97.7473V721.136H90.1594V722.243H93.3381V731H94.5686ZM106.298 731H107.59L103.953 721.136H102.736L99.0994 731H100.391L101.383 728.177H105.306L106.298 731ZM103.29 722.729H103.399L104.944 727.131H101.745L103.29 722.729ZM116.707 729.893H111.95V721.136H110.719V731H116.707V729.893Z" fill="#454545"/>
<path d="M73.0518 731V722.243H76.2305V721.136H68.6426V722.243H71.8213V731H73.0518ZM83.2018 720.903C80.4127 720.903 78.6695 722.893 78.6695 726.064C78.6695 729.223 80.3717 731.232 83.2018 731.232C86.0182 731.232 87.7135 729.216 87.7135 726.064C87.7135 722.899 86.0045 720.903 83.2018 720.903ZM83.2018 722.038C85.2184 722.038 86.4488 723.597 86.4488 726.064C86.4488 728.512 85.2252 730.098 83.2018 730.098C81.151 730.098 79.9342 728.512 79.9342 726.064C79.9342 723.597 81.192 722.038 83.2018 722.038ZM94.5686 731V722.243H97.7473V721.136H90.1594V722.243H93.3381V731H94.5686ZM106.298 731H107.59L103.953 721.136H102.736L99.0994 731H100.391L101.383 728.177H105.306L106.298 731ZM103.29 722.729H103.399L104.944 727.131H101.745L103.29 722.729ZM116.707 729.893H111.95V721.136H110.719V731H116.707V729.893Z" fill="#454545"/>
<path d="M73.0518 731V722.243H76.2305V721.136H68.6426V722.243H71.8213V731H73.0518ZM83.2018 720.903C80.4127 720.903 78.6695 722.893 78.6695 726.064C78.6695 729.223 80.3717 731.232 83.2018 731.232C86.0182 731.232 87.7135 729.216 87.7135 726.064C87.7135 722.899 86.0045 720.903 83.2018 720.903ZM83.2018 722.038C85.2184 722.038 86.4488 723.597 86.4488 726.064C86.4488 728.512 85.2252 730.098 83.2018 730.098C81.151 730.098 79.9342 728.512 79.9342 726.064C79.9342 723.597 81.192 722.038 83.2018 722.038ZM94.5686 731V722.243H97.7473V721.136H90.1594V722.243H93.3381V731H94.5686ZM106.298 731H107.59L103.953 721.136H102.736L99.0994 731H100.391L101.383 728.177H105.306L106.298 731ZM103.29 722.729H103.399L104.944 727.131H101.745L103.29 722.729ZM116.707 729.893H111.95V721.136H110.719V731H116.707V729.893Z" fill="#454545"/>
</g>
<g opacity="0.9">
<path d="M184.725 96H186.017L182.381 86.1357H181.164L177.527 96H178.819L179.81 93.1768H183.734L184.725 96ZM181.718 87.7285H181.827L183.372 92.1309H180.173L181.718 87.7285ZM189.147 86.1357V96H192.531C195.463 96 197.186 94.1748 197.186 91.0645C197.186 87.9609 195.456 86.1357 192.531 86.1357H189.147ZM190.377 87.2432H192.449C194.636 87.2432 195.928 88.665 195.928 91.0781C195.928 93.4844 194.65 94.8926 192.449 94.8926H190.377V87.2432ZM200.719 86.1357V96H204.103C207.035 96 208.758 94.1748 208.758 91.0645C208.758 87.9609 207.028 86.1357 204.103 86.1357H200.719ZM201.949 87.2432H204.021C206.208 87.2432 207.5 88.665 207.5 91.0781C207.5 93.4844 206.222 94.8926 204.021 94.8926H201.949V87.2432ZM218.402 94.8926H213.521V91.502H218.149V90.4082H213.521V87.2432H218.402V86.1357H212.291V96H218.402V94.8926ZM222.03 86.1357V96H225.414C228.347 96 230.07 94.1748 230.07 91.0645C230.07 87.9609 228.34 86.1357 225.414 86.1357H222.03ZM223.261 87.2432H225.332C227.52 87.2432 228.812 88.665 228.812 91.0781C228.812 93.4844 227.533 94.8926 225.332 94.8926H223.261V87.2432Z" fill="#454545"/>
<path d="M184.725 96H186.017L182.381 86.1357H181.164L177.527 96H178.819L179.81 93.1768H183.734L184.725 96ZM181.718 87.7285H181.827L183.372 92.1309H180.173L181.718 87.7285ZM189.147 86.1357V96H192.531C195.463 96 197.186 94.1748 197.186 91.0645C197.186 87.9609 195.456 86.1357 192.531 86.1357H189.147ZM190.377 87.2432H192.449C194.636 87.2432 195.928 88.665 195.928 91.0781C195.928 93.4844 194.65 94.8926 192.449 94.8926H190.377V87.2432ZM200.719 86.1357V96H204.103C207.035 96 208.758 94.1748 208.758 91.0645C208.758 87.9609 207.028 86.1357 204.103 86.1357H200.719ZM201.949 87.2432H204.021C206.208 87.2432 207.5 88.665 207.5 91.0781C207.5 93.4844 206.222 94.8926 204.021 94.8926H201.949V87.2432ZM218.402 94.8926H213.521V91.502H218.149V90.4082H213.521V87.2432H218.402V86.1357H212.291V96H218.402V94.8926ZM222.03 86.1357V96H225.414C228.347 96 230.07 94.1748 230.07 91.0645C230.07 87.9609 228.34 86.1357 225.414 86.1357H222.03ZM223.261 87.2432H225.332C227.52 87.2432 228.812 88.665 228.812 91.0781C228.812 93.4844 227.533 94.8926 225.332 94.8926H223.261V87.2432Z" fill="#454545"/>
<path d="M184.725 96H186.017L182.381 86.1357H181.164L177.527 96H178.819L179.81 93.1768H183.734L184.725 96ZM181.718 87.7285H181.827L183.372 92.1309H180.173L181.718 87.7285ZM189.147 86.1357V96H192.531C195.463 96 197.186 94.1748 197.186 91.0645C197.186 87.9609 195.456 86.1357 192.531 86.1357H189.147ZM190.377 87.2432H192.449C194.636 87.2432 195.928 88.665 195.928 91.0781C195.928 93.4844 194.65 94.8926 192.449 94.8926H190.377V87.2432ZM200.719 86.1357V96H204.103C207.035 96 208.758 94.1748 208.758 91.0645C208.758 87.9609 207.028 86.1357 204.103 86.1357H200.719ZM201.949 87.2432H204.021C206.208 87.2432 207.5 88.665 207.5 91.0781C207.5 93.4844 206.222 94.8926 204.021 94.8926H201.949V87.2432ZM218.402 94.8926H213.521V91.502H218.149V90.4082H213.521V87.2432H218.402V86.1357H212.291V96H218.402V94.8926ZM222.03 86.1357V96H225.414C228.347 96 230.07 94.1748 230.07 91.0645C230.07 87.9609 228.34 86.1357 225.414 86.1357H222.03ZM223.261 87.2432H225.332C227.52 87.2432 228.812 88.665 228.812 91.0781C228.812 93.4844 227.533 94.8926 225.332 94.8926H223.261V87.2432Z" fill="#454545"/>
</g>
<path d="M101.859 160.258C104.617 160.258 106.195 158.039 106.195 154.164C106.195 152.922 106.016 151.883 105.648 151.023C104.945 149.359 103.641 148.461 101.953 148.461C99.6406 148.461 98 150.078 98 152.344C98 154.531 99.5547 156.117 101.703 156.117C103.047 156.117 104.148 155.477 104.703 154.383H104.734H104.766H104.828C104.75 157.383 103.711 159.008 101.875 159.008C100.766 159.008 99.9141 158.367 99.6094 157.312H98.1641C98.5234 159.125 99.9453 160.258 101.859 160.258ZM101.953 154.898C100.461 154.898 99.4219 153.836 99.4219 152.297C99.4219 150.82 100.523 149.695 101.969 149.695C103.414 149.695 104.516 150.836 104.516 152.344C104.516 153.836 103.445 154.898 101.953 154.898ZM108.797 160.078C109.359 160.078 109.812 159.617 109.812 159.062C109.812 158.5 109.359 158.047 108.797 158.047C108.242 158.047 107.781 158.5 107.781 159.062C107.781 159.617 108.242 160.078 108.797 160.078ZM115.633 160.258C117.945 160.258 119.586 158.641 119.586 156.375C119.586 154.188 118.031 152.602 115.883 152.602C114.539 152.602 113.438 153.242 112.883 154.336H112.758C112.836 151.336 113.875 149.711 115.711 149.711C116.82 149.711 117.672 150.352 117.977 151.406H119.422C119.062 149.594 117.641 148.461 115.727 148.461C112.969 148.461 111.391 150.68 111.391 154.555C111.391 155.797 111.57 156.836 111.938 157.695C112.641 159.352 113.938 160.258 115.633 160.258ZM115.617 159.023C114.172 159.023 113.07 157.883 113.07 156.375C113.07 154.883 114.141 153.82 115.633 153.82C117.125 153.82 118.164 154.883 118.164 156.422C118.164 157.898 117.062 159.023 115.617 159.023ZM127 160H128.375V157.664H129.977V156.406H128.375V148.727H126.336C124.305 151.766 122.516 154.594 121.508 156.383V157.664H127V160ZM122.945 156.32C124.289 154.039 125.758 151.711 126.914 150.031H127.008V156.414H122.945V156.32ZM140.445 159.195C139.75 159.195 139.289 158.516 139.289 157.477C139.289 156.438 139.742 155.766 140.445 155.766C141.148 155.766 141.594 156.422 141.594 157.477C141.594 158.508 141.133 159.195 140.445 159.195ZM140.445 160.195C141.852 160.195 142.844 159.07 142.844 157.477C142.844 155.883 141.852 154.766 140.445 154.766C139.039 154.766 138.039 155.891 138.039 157.477C138.039 159.07 139.039 160.195 140.445 160.195ZM133.922 153.961C135.328 153.961 136.32 152.836 136.32 151.242C136.32 149.648 135.328 148.531 133.922 148.531C132.516 148.531 131.516 149.656 131.516 151.242C131.516 152.836 132.516 153.961 133.922 153.961ZM133.797 160L137.664 154.711L142.039 148.727H140.617L136.664 154.125L132.359 160H133.797ZM133.922 152.961C133.227 152.961 132.766 152.281 132.766 151.242C132.766 150.203 133.219 149.531 133.922 149.531C134.625 149.531 135.07 150.188 135.07 151.242C135.07 152.273 134.609 152.961 133.922 152.961ZM153.938 160V155.148L157.938 148.727H156.336L153.297 153.734H153.172L150.133 148.727H148.531L152.531 155.148V160H153.938ZM159.781 160H161.125V151.578H159.781V160ZM160.453 149.867C160.969 149.867 161.391 149.445 161.391 148.93C161.391 148.414 160.969 147.992 160.453 147.992C159.938 147.992 159.516 148.414 159.516 148.93C159.516 149.445 159.938 149.867 160.453 149.867ZM167.047 152.617C168.383 152.617 169.273 153.602 169.305 155.094H164.664C164.766 153.602 165.703 152.617 167.047 152.617ZM169.266 157.82C168.914 158.562 168.18 158.961 167.094 158.961C165.664 158.961 164.734 157.906 164.664 156.242V156.18H170.719V155.664C170.719 153.047 169.336 151.43 167.062 151.43C164.75 151.43 163.266 153.148 163.266 155.797C163.266 158.461 164.727 160.148 167.062 160.148C168.906 160.148 170.203 159.266 170.609 157.82H169.266ZM172.906 160H174.25V148.234H172.906V160ZM179.977 160.148C181.141 160.148 182.141 159.594 182.672 158.656H182.797V160H184.078V148.234H182.734V152.906H182.617C182.141 151.984 181.148 151.43 179.977 151.43C177.836 151.43 176.438 153.148 176.438 155.789C176.438 158.438 177.82 160.148 179.977 160.148ZM180.289 152.641C181.812 152.641 182.766 153.859 182.766 155.789C182.766 157.734 181.82 158.938 180.289 158.938C178.75 158.938 177.828 157.758 177.828 155.789C177.828 153.828 178.758 152.641 180.289 152.641Z" fill="#292929"/>
<path d="M293.203 188.07V187.016C295.406 186.836 296.688 185.664 296.688 183.812C296.688 182.25 295.805 181.297 293.875 180.781L293.203 180.617V176.797C294.352 176.938 295.125 177.672 295.156 178.648H296.484C296.43 176.953 295.141 175.75 293.203 175.586V174.5H292.156V175.594C290.164 175.789 288.93 176.961 288.93 178.664C288.93 180.102 289.852 181.133 291.531 181.578L292.156 181.75V185.812C290.875 185.656 290.078 184.961 289.992 183.914H288.656C288.664 185.641 290.039 186.867 292.156 187.023V188.07H293.203ZM295.336 183.922C295.336 185.07 294.562 185.766 293.203 185.836V181.961C294.672 182.273 295.336 182.883 295.336 183.922ZM290.273 178.586C290.273 177.609 291.062 176.859 292.156 176.797V180.391C290.922 180.133 290.273 179.508 290.273 178.586ZM300.547 178.898V178.906H301.906V178.898C301.906 177.57 302.797 176.688 304.117 176.688C305.359 176.688 306.32 177.555 306.32 178.68C306.32 179.586 305.969 180.195 304.516 181.773L300.617 186.031V187H307.914V185.734H302.633V185.609L305.344 182.695C307.195 180.711 307.727 179.797 307.727 178.625C307.727 176.836 306.18 175.461 304.156 175.461C302.062 175.461 300.547 176.898 300.547 178.898ZM315.508 187.266C317.844 187.266 319.445 185.703 319.445 183.414C319.445 181.195 317.945 179.641 315.805 179.641C314.766 179.641 313.969 179.961 313.422 180.602H313.297L313.617 176.984H318.805V175.727H312.516L311.898 182.117H313.219C313.68 181.312 314.523 180.852 315.547 180.852C317.023 180.852 318.039 181.906 318.039 183.453C318.039 185 317.031 186.031 315.523 186.031C314.195 186.031 313.227 185.219 313.102 184H311.719C311.844 185.945 313.375 187.266 315.508 187.266ZM323.766 187.078C324.328 187.078 324.781 186.617 324.781 186.062C324.781 185.5 324.328 185.047 323.766 185.047C323.211 185.047 322.75 185.5 322.75 186.062C322.75 186.617 323.211 187.078 323.766 187.078ZM331.906 187.266C334.438 187.266 335.891 185.125 335.891 181.383C335.891 177.648 334.414 175.461 331.906 175.461C329.383 175.461 327.906 177.641 327.906 181.359C327.906 185.109 329.367 187.266 331.906 187.266ZM331.906 186.039C330.242 186.039 329.32 184.375 329.32 181.359C329.32 178.383 330.258 176.695 331.906 176.695C333.555 176.695 334.477 178.367 334.477 181.359C334.477 184.383 333.57 186.039 331.906 186.039ZM343.484 187.266C346.016 187.266 347.469 185.125 347.469 181.383C347.469 177.648 345.992 175.461 343.484 175.461C340.961 175.461 339.484 177.641 339.484 181.359C339.484 185.109 340.945 187.266 343.484 187.266ZM343.484 186.039C341.82 186.039 340.898 184.375 340.898 181.359C340.898 178.383 341.836 176.695 343.484 176.695C345.133 176.695 346.055 178.367 346.055 181.359C346.055 184.383 345.148 186.039 343.484 186.039Z" fill="#292929"/>
<path d="M102.004 189.937V189.014C103.932 188.856 105.053 187.831 105.053 186.211C105.053 184.844 104.28 184.01 102.592 183.559L102.004 183.415V180.072C103.009 180.195 103.686 180.838 103.713 181.692H104.875C104.827 180.209 103.699 179.156 102.004 179.013V178.062H101.088V179.02C99.3447 179.19 98.2646 180.216 98.2646 181.706C98.2646 182.964 99.0713 183.866 100.541 184.256L101.088 184.406V187.961C99.9668 187.824 99.2695 187.216 99.1943 186.3H98.0254C98.0322 187.811 99.2354 188.884 101.088 189.021V189.937H102.004ZM103.87 186.307C103.87 187.312 103.193 187.92 102.004 187.981V184.591C103.289 184.864 103.87 185.397 103.87 186.307ZM99.4404 181.638C99.4404 180.783 100.131 180.127 101.088 180.072V183.217C100.008 182.991 99.4404 182.444 99.4404 181.638ZM109.695 184.454H110.946C112.348 184.454 113.216 185.165 113.216 186.307C113.216 187.387 112.293 188.159 110.994 188.159C109.723 188.159 108.834 187.482 108.725 186.43H107.535C107.624 188.118 109.005 189.232 111.008 189.232C112.956 189.232 114.48 187.968 114.48 186.341C114.48 184.994 113.667 184.064 112.327 183.894V183.784C113.407 183.524 114.057 182.663 114.057 181.487C114.057 180.052 112.683 178.903 110.96 178.903C109.08 178.903 107.856 179.956 107.733 181.665H108.93C109.032 180.605 109.777 179.977 110.912 179.977C112.047 179.977 112.806 180.646 112.806 181.651C112.806 182.677 112.013 183.401 110.892 183.401H109.695V184.454ZM120.21 189.232C122.254 189.232 123.655 187.865 123.655 185.862C123.655 183.921 122.343 182.561 120.47 182.561C119.561 182.561 118.863 182.841 118.385 183.401H118.275L118.556 180.236H123.095V179.136H117.592L117.052 184.728H118.207C118.61 184.023 119.349 183.62 120.244 183.62C121.536 183.62 122.425 184.543 122.425 185.896C122.425 187.25 121.543 188.152 120.224 188.152C119.062 188.152 118.214 187.441 118.104 186.375H116.895C117.004 188.077 118.344 189.232 120.21 189.232ZM126.322 191.509L127.334 187.619H125.953L125.297 191.509H126.322ZM133.07 189.232C135.285 189.232 136.557 187.359 136.557 184.085C136.557 180.817 135.265 178.903 133.07 178.903C130.862 178.903 129.57 180.811 129.57 184.064C129.57 187.346 130.849 189.232 133.07 189.232ZM133.07 188.159C131.614 188.159 130.808 186.703 130.808 184.064C130.808 181.46 131.628 179.983 133.07 179.983C134.513 179.983 135.319 181.446 135.319 184.064C135.319 186.71 134.526 188.159 133.07 188.159ZM142.389 189.232C144.604 189.232 145.875 187.359 145.875 184.085C145.875 180.817 144.583 178.903 142.389 178.903C140.181 178.903 138.889 180.811 138.889 184.064C138.889 187.346 140.167 189.232 142.389 189.232ZM142.389 188.159C140.933 188.159 140.126 186.703 140.126 184.064C140.126 181.46 140.946 179.983 142.389 179.983C143.831 179.983 144.638 181.446 144.638 184.064C144.638 186.71 143.845 188.159 142.389 188.159ZM151.707 189.232C153.922 189.232 155.193 187.359 155.193 184.085C155.193 180.817 153.901 178.903 151.707 178.903C149.499 178.903 148.207 180.811 148.207 184.064C148.207 187.346 149.485 189.232 151.707 189.232ZM151.707 188.159C150.251 188.159 149.444 186.703 149.444 184.064C149.444 181.46 150.265 179.983 151.707 179.983C153.149 179.983 153.956 181.446 153.956 184.064C153.956 186.71 153.163 188.159 151.707 188.159ZM162.66 189H163.836V182.615H165.524V181.631H163.836V180.947C163.836 180.12 164.232 179.765 164.937 179.765C165.169 179.765 165.436 179.792 165.593 179.826V178.842C165.306 178.794 165.101 178.773 164.868 178.773C163.446 178.773 162.66 179.402 162.66 180.913V181.631H161.423V182.615H162.66V189ZM170.454 188.07C169.06 188.07 168.273 187.059 168.273 185.315C168.273 183.565 169.06 182.561 170.454 182.561C171.849 182.561 172.635 183.565 172.635 185.315C172.635 187.059 171.849 188.07 170.454 188.07ZM170.454 189.13C172.553 189.13 173.852 187.681 173.852 185.315C173.852 182.943 172.553 181.501 170.454 181.501C168.355 181.501 167.057 182.943 167.057 185.315C167.057 187.681 168.355 189.13 170.454 189.13ZM176.197 189H177.373V184.434C177.373 183.395 178.187 182.643 179.308 182.643C179.54 182.643 179.964 182.684 180.06 182.711V181.535C179.909 181.515 179.663 181.501 179.472 181.501C178.494 181.501 177.646 182.007 177.428 182.725H177.318V181.631H176.197V189ZM186.535 179.136V189H189.919C192.852 189 194.574 187.175 194.574 184.064C194.574 180.961 192.845 179.136 189.919 179.136H186.535ZM187.766 180.243H189.837C192.024 180.243 193.316 181.665 193.316 184.078C193.316 186.484 192.038 187.893 189.837 187.893H187.766V180.243ZM199.996 182.54C201.165 182.54 201.944 183.401 201.972 184.707H197.911C198 183.401 198.82 182.54 199.996 182.54ZM201.938 187.093C201.63 187.742 200.987 188.091 200.037 188.091C198.786 188.091 197.973 187.168 197.911 185.712V185.657H203.209V185.206C203.209 182.916 201.999 181.501 200.01 181.501C197.986 181.501 196.688 183.005 196.688 185.322C196.688 187.653 197.966 189.13 200.01 189.13C201.623 189.13 202.758 188.357 203.113 187.093H201.938ZM209.219 189.13C211.085 189.13 212.309 187.619 212.309 185.315C212.309 182.998 211.092 181.501 209.219 181.501C208.207 181.501 207.312 182 206.908 182.793H206.799V178.705H205.623V189H206.744V187.824H206.854C207.318 188.645 208.193 189.13 209.219 189.13ZM208.945 182.561C210.292 182.561 211.092 183.593 211.092 185.315C211.092 187.038 210.292 188.07 208.945 188.07C207.605 188.07 206.771 187.018 206.771 185.315C206.771 183.613 207.605 182.561 208.945 182.561ZM215.146 179.792V181.631H213.909V182.615H215.146V187.086C215.146 188.494 215.755 189.055 217.272 189.055C217.505 189.055 217.717 189.027 217.949 188.986V187.995C217.73 188.016 217.628 188.022 217.416 188.022C216.65 188.022 216.322 187.653 216.322 186.785V182.615H218.031V181.631H216.322V179.792H215.146ZM102.229 209.232C104.328 209.232 105.887 208.063 106.215 206.252H104.964C104.649 207.394 103.604 208.098 102.229 208.098C100.329 208.098 99.1396 206.546 99.1396 204.071C99.1396 201.597 100.329 200.038 102.223 200.038C103.583 200.038 104.636 200.838 104.964 202.109H106.215C105.921 200.209 104.301 198.903 102.223 198.903C99.543 198.903 97.875 200.886 97.875 204.071C97.875 207.25 99.5498 209.232 102.229 209.232ZM111.657 208.07C110.263 208.07 109.477 207.059 109.477 205.315C109.477 203.565 110.263 202.561 111.657 202.561C113.052 202.561 113.838 203.565 113.838 205.315C113.838 207.059 113.052 208.07 111.657 208.07ZM111.657 209.13C113.756 209.13 115.055 207.681 115.055 205.315C115.055 202.943 113.756 201.501 111.657 201.501C109.559 201.501 108.26 202.943 108.26 205.315C108.26 207.681 109.559 209.13 111.657 209.13ZM117.4 209H118.576V204.639C118.576 203.347 119.355 202.561 120.647 202.561C121.823 202.561 122.384 203.189 122.384 204.516V209H123.56V204.229C123.56 202.479 122.637 201.501 120.982 201.501C119.854 201.501 119 201.979 118.631 202.793H118.521V201.631H117.4V209ZM126.042 203.647C126.042 204.714 126.671 205.309 128.052 205.644L129.316 205.951C130.103 206.143 130.485 206.484 130.485 206.99C130.485 207.667 129.774 208.139 128.783 208.139C127.84 208.139 127.252 207.742 127.054 207.12H125.844C125.974 208.344 127.102 209.13 128.742 209.13C130.417 209.13 131.695 208.221 131.695 206.901C131.695 205.842 131.025 205.24 129.638 204.905L128.503 204.632C127.635 204.42 127.225 204.105 127.225 203.6C127.225 202.943 127.908 202.499 128.783 202.499C129.672 202.499 130.246 202.889 130.403 203.477H131.565C131.408 202.267 130.335 201.501 128.79 201.501C127.225 201.501 126.042 202.424 126.042 203.647ZM137.069 208.07C135.675 208.07 134.889 207.059 134.889 205.315C134.889 203.565 135.675 202.561 137.069 202.561C138.464 202.561 139.25 203.565 139.25 205.315C139.25 207.059 138.464 208.07 137.069 208.07ZM137.069 209.13C139.168 209.13 140.467 207.681 140.467 205.315C140.467 202.943 139.168 201.501 137.069 201.501C134.971 201.501 133.672 202.943 133.672 205.315C133.672 207.681 134.971 209.13 137.069 209.13ZM142.881 209H144.057V198.705H142.881V209ZM146.867 209H148.043V201.631H146.867V209ZM147.455 200.134C147.906 200.134 148.275 199.765 148.275 199.313C148.275 198.862 147.906 198.493 147.455 198.493C147.004 198.493 146.635 198.862 146.635 199.313C146.635 199.765 147.004 200.134 147.455 200.134ZM153.513 209.13C154.531 209.13 155.406 208.645 155.871 207.824H155.98V209H157.102V198.705H155.926V202.793H155.823C155.406 201.986 154.538 201.501 153.513 201.501C151.64 201.501 150.416 203.005 150.416 205.315C150.416 207.633 151.626 209.13 153.513 209.13ZM153.786 202.561C155.119 202.561 155.953 203.627 155.953 205.315C155.953 207.018 155.126 208.07 153.786 208.07C152.439 208.07 151.633 207.038 151.633 205.315C151.633 203.6 152.446 202.561 153.786 202.561ZM162.154 208.098C161.3 208.098 160.664 207.66 160.664 206.908C160.664 206.17 161.156 205.78 162.277 205.705L164.26 205.575V206.252C164.26 207.305 163.364 208.098 162.154 208.098ZM161.936 209.13C162.92 209.13 163.727 208.699 164.205 207.913H164.314V209H165.436V203.955C165.436 202.424 164.431 201.501 162.633 201.501C161.061 201.501 159.898 202.28 159.741 203.463H160.931C161.095 202.882 161.71 202.547 162.592 202.547C163.692 202.547 164.26 203.046 164.26 203.955V204.625L162.134 204.755C160.418 204.857 159.447 205.616 159.447 206.936C159.447 208.282 160.507 209.13 161.936 209.13ZM168.602 199.792V201.631H167.364V202.615H168.602V207.086C168.602 208.494 169.21 209.055 170.728 209.055C170.96 209.055 171.172 209.027 171.404 208.986V207.995C171.186 208.016 171.083 208.022 170.871 208.022C170.105 208.022 169.777 207.653 169.777 206.785V202.615H171.486V201.631H169.777V199.792H168.602ZM173.723 209H174.898V201.631H173.723V209ZM174.311 200.134C174.762 200.134 175.131 199.765 175.131 199.313C175.131 198.862 174.762 198.493 174.311 198.493C173.859 198.493 173.49 198.862 173.49 199.313C173.49 199.765 173.859 200.134 174.311 200.134ZM180.669 208.07C179.274 208.07 178.488 207.059 178.488 205.315C178.488 203.565 179.274 202.561 180.669 202.561C182.063 202.561 182.85 203.565 182.85 205.315C182.85 207.059 182.063 208.07 180.669 208.07ZM180.669 209.13C182.768 209.13 184.066 207.681 184.066 205.315C184.066 202.943 182.768 201.501 180.669 201.501C178.57 201.501 177.271 202.943 177.271 205.315C177.271 207.681 178.57 209.13 180.669 209.13ZM186.412 209H187.588V204.639C187.588 203.347 188.367 202.561 189.659 202.561C190.835 202.561 191.396 203.189 191.396 204.516V209H192.571V204.229C192.571 202.479 191.648 201.501 189.994 201.501C188.866 201.501 188.012 201.979 187.643 202.793H187.533V201.631H186.412V209Z" fill="#292929"/>
<circle cx="61" cy="162" r="20" fill="#D6F5FD"/>
<path d="M58.7363 167H60.0283L56.3916 157.136H55.1748L51.5381 167H52.8301L53.8213 164.177H57.7451L58.7363 167ZM55.7285 158.729H55.8379L57.3828 163.131H54.1836L55.7285 158.729ZM69.1699 167H70.4619L66.8252 157.136H65.6084L61.9717 167H63.2637L64.2549 164.177H68.1787L69.1699 167ZM66.1621 158.729H66.2715L67.8164 163.131H64.6172L66.1621 158.729Z" fill="#04679E"/>
<rect x="25" y="230" width="359" height="1" fill="#E6E6E6"/>
<rect x="25" y="126" width="359" height="1" fill="#E6E6E6"/>
<path d="M262 180H272V182H262V180Z" fill="#BDBDBD"/>
<path fill-rule="evenodd" clip-rule="evenodd" d="M368 182V187H370V182H375V180H370V175H368V180H363V182H368Z" fill="#4D4D4D"/>
<path d="M98.6797 264H100.156L105.172 254.031V252.727H97.9453V253.984H103.766V254.109L98.6797 264ZM106.234 264.078C106.797 264.078 107.25 263.617 107.25 263.062C107.25 262.5 106.797 262.047 106.234 262.047C105.68 262.047 105.219 262.5 105.219 263.062C105.219 263.617 105.68 264.078 106.234 264.078ZM112.805 264.266C115.141 264.266 116.742 262.703 116.742 260.414C116.742 258.195 115.242 256.641 113.102 256.641C112.062 256.641 111.266 256.961 110.719 257.602H110.594L110.914 253.984H116.102V252.727H109.812L109.195 259.117H110.516C110.977 258.312 111.82 257.852 112.844 257.852C114.32 257.852 115.336 258.906 115.336 260.453C115.336 262 114.328 263.031 112.82 263.031C111.492 263.031 110.523 262.219 110.398 261H109.016C109.141 262.945 110.672 264.266 112.805 264.266ZM124.141 264H125.516V261.664H127.117V260.406H125.516V252.727H123.477C121.445 255.766 119.656 258.594 118.648 260.383V261.664H124.141V264ZM120.086 260.32C121.43 258.039 122.898 255.711 124.055 254.031H124.148V260.414H120.086V260.32ZM137.586 263.195C136.891 263.195 136.43 262.516 136.43 261.477C136.43 260.438 136.883 259.766 137.586 259.766C138.289 259.766 138.734 260.422 138.734 261.477C138.734 262.508 138.273 263.195 137.586 263.195ZM137.586 264.195C138.992 264.195 139.984 263.07 139.984 261.477C139.984 259.883 138.992 258.766 137.586 258.766C136.18 258.766 135.18 259.891 135.18 261.477C135.18 263.07 136.18 264.195 137.586 264.195ZM131.062 257.961C132.469 257.961 133.461 256.836 133.461 255.242C133.461 253.648 132.469 252.531 131.062 252.531C129.656 252.531 128.656 253.656 128.656 255.242C128.656 256.836 129.656 257.961 131.062 257.961ZM130.938 264L134.805 258.711L139.18 252.727H137.758L133.805 258.125L129.5 264H130.938ZM131.062 256.961C130.367 256.961 129.906 256.281 129.906 255.242C129.906 254.203 130.359 253.531 131.062 253.531C131.766 253.531 132.211 254.188 132.211 255.242C132.211 256.273 131.75 256.961 131.062 256.961ZM151.078 264V259.148L155.078 252.727H153.477L150.438 257.734H150.312L147.273 252.727H145.672L149.672 259.148V264H151.078ZM156.922 264H158.266V255.578H156.922V264ZM157.594 253.867C158.109 253.867 158.531 253.445 158.531 252.93C158.531 252.414 158.109 251.992 157.594 251.992C157.078 251.992 156.656 252.414 156.656 252.93C156.656 253.445 157.078 253.867 157.594 253.867ZM164.188 256.617C165.523 256.617 166.414 257.602 166.445 259.094H161.805C161.906 257.602 162.844 256.617 164.188 256.617ZM166.406 261.82C166.055 262.562 165.32 262.961 164.234 262.961C162.805 262.961 161.875 261.906 161.805 260.242V260.18H167.859V259.664C167.859 257.047 166.477 255.43 164.203 255.43C161.891 255.43 160.406 257.148 160.406 259.797C160.406 262.461 161.867 264.148 164.203 264.148C166.047 264.148 167.344 263.266 167.75 261.82H166.406ZM170.047 264H171.391V252.234H170.047V264ZM177.117 264.148C178.281 264.148 179.281 263.594 179.812 262.656H179.938V264H181.219V252.234H179.875V256.906H179.758C179.281 255.984 178.289 255.43 177.117 255.43C174.977 255.43 173.578 257.148 173.578 259.789C173.578 262.438 174.961 264.148 177.117 264.148ZM177.43 256.641C178.953 256.641 179.906 257.859 179.906 259.789C179.906 261.734 178.961 262.938 177.43 262.938C175.891 262.938 174.969 261.758 174.969 259.789C174.969 257.828 175.898 256.641 177.43 256.641Z" fill="#292929"/>
<path d="M293.203 292.07V291.016C295.406 290.836 296.688 289.664 296.688 287.812C296.688 286.25 295.805 285.297 293.875 284.781L293.203 284.617V280.797C294.352 280.938 295.125 281.672 295.156 282.648H296.484C296.43 280.953 295.141 279.75 293.203 279.586V278.5H292.156V279.594C290.164 279.789 288.93 280.961 288.93 282.664C288.93 284.102 289.852 285.133 291.531 285.578L292.156 285.75V289.812C290.875 289.656 290.078 288.961 289.992 287.914H288.656C288.664 289.641 290.039 290.867 292.156 291.023V292.07H293.203ZM295.336 287.922C295.336 289.07 294.562 289.766 293.203 289.836V285.961C294.672 286.273 295.336 286.883 295.336 287.922ZM290.273 282.586C290.273 281.609 291.062 280.859 292.156 280.797V284.391C290.922 284.133 290.273 283.508 290.273 282.586ZM300.547 282.898V282.906H301.906V282.898C301.906 281.57 302.797 280.688 304.117 280.688C305.359 280.688 306.32 281.555 306.32 282.68C306.32 283.586 305.969 284.195 304.516 285.773L300.617 290.031V291H307.914V289.734H302.633V289.609L305.344 286.695C307.195 284.711 307.727 283.797 307.727 282.625C307.727 280.836 306.18 279.461 304.156 279.461C302.062 279.461 300.547 280.898 300.547 282.898ZM315.508 291.266C317.844 291.266 319.445 289.703 319.445 287.414C319.445 285.195 317.945 283.641 315.805 283.641C314.766 283.641 313.969 283.961 313.422 284.602H313.297L313.617 280.984H318.805V279.727H312.516L311.898 286.117H313.219C313.68 285.312 314.523 284.852 315.547 284.852C317.023 284.852 318.039 285.906 318.039 287.453C318.039 289 317.031 290.031 315.523 290.031C314.195 290.031 313.227 289.219 313.102 288H311.719C311.844 289.945 313.375 291.266 315.508 291.266ZM323.766 291.078C324.328 291.078 324.781 290.617 324.781 290.062C324.781 289.5 324.328 289.047 323.766 289.047C323.211 289.047 322.75 289.5 322.75 290.062C322.75 290.617 323.211 291.078 323.766 291.078ZM331.906 291.266C334.438 291.266 335.891 289.125 335.891 285.383C335.891 281.648 334.414 279.461 331.906 279.461C329.383 279.461 327.906 281.641 327.906 285.359C327.906 289.109 329.367 291.266 331.906 291.266ZM331.906 290.039C330.242 290.039 329.32 288.375 329.32 285.359C329.32 282.383 330.258 280.695 331.906 280.695C333.555 280.695 334.477 282.367 334.477 285.359C334.477 288.383 333.57 290.039 331.906 290.039ZM343.484 291.266C346.016 291.266 347.469 289.125 347.469 285.383C347.469 281.648 345.992 279.461 343.484 279.461C340.961 279.461 339.484 281.641 339.484 285.359C339.484 289.109 340.945 291.266 343.484 291.266ZM343.484 290.039C341.82 290.039 340.898 288.375 340.898 285.359C340.898 282.383 341.836 280.695 343.484 280.695C345.133 280.695 346.055 282.367 346.055 285.359C346.055 288.383 345.148 290.039 343.484 290.039Z" fill="#292929"/>
<path d="M102.004 293.937V293.014C103.932 292.856 105.053 291.831 105.053 290.211C105.053 288.844 104.28 288.01 102.592 287.559L102.004 287.415V284.072C103.009 284.195 103.686 284.838 103.713 285.692H104.875C104.827 284.209 103.699 283.156 102.004 283.013V282.062H101.088V283.02C99.3447 283.19 98.2646 284.216 98.2646 285.706C98.2646 286.964 99.0713 287.866 100.541 288.256L101.088 288.406V291.961C99.9668 291.824 99.2695 291.216 99.1943 290.3H98.0254C98.0322 291.811 99.2354 292.884 101.088 293.021V293.937H102.004ZM103.87 290.307C103.87 291.312 103.193 291.92 102.004 291.981V288.591C103.289 288.864 103.87 289.397 103.87 290.307ZM99.4404 285.638C99.4404 284.783 100.131 284.127 101.088 284.072V287.217C100.008 286.991 99.4404 286.444 99.4404 285.638ZM110.83 293.226C113.243 293.226 114.624 291.284 114.624 287.894C114.624 286.807 114.467 285.897 114.146 285.146C113.53 283.689 112.389 282.903 110.912 282.903C108.889 282.903 107.453 284.318 107.453 286.301C107.453 288.215 108.813 289.603 110.693 289.603C111.869 289.603 112.833 289.042 113.318 288.085H113.346H113.373H113.428C113.359 290.71 112.45 292.132 110.844 292.132C109.873 292.132 109.128 291.571 108.861 290.648H107.597C107.911 292.234 109.155 293.226 110.83 293.226ZM110.912 288.536C109.606 288.536 108.697 287.606 108.697 286.26C108.697 284.968 109.661 283.983 110.926 283.983C112.19 283.983 113.154 284.981 113.154 286.301C113.154 287.606 112.218 288.536 110.912 288.536ZM117.1 295.509L118.111 291.619H116.73L116.074 295.509H117.1ZM123.848 293.232C126.062 293.232 127.334 291.359 127.334 288.085C127.334 284.817 126.042 282.903 123.848 282.903C121.64 282.903 120.348 284.811 120.348 288.064C120.348 291.346 121.626 293.232 123.848 293.232ZM123.848 292.159C122.392 292.159 121.585 290.703 121.585 288.064C121.585 285.46 122.405 283.983 123.848 283.983C125.29 283.983 126.097 285.446 126.097 288.064C126.097 290.71 125.304 292.159 123.848 292.159ZM133.166 293.232C135.381 293.232 136.652 291.359 136.652 288.085C136.652 284.817 135.36 282.903 133.166 282.903C130.958 282.903 129.666 284.811 129.666 288.064C129.666 291.346 130.944 293.232 133.166 293.232ZM133.166 292.159C131.71 292.159 130.903 290.703 130.903 288.064C130.903 285.46 131.724 283.983 133.166 283.983C134.608 283.983 135.415 285.446 135.415 288.064C135.415 290.71 134.622 292.159 133.166 292.159ZM142.484 293.232C144.699 293.232 145.971 291.359 145.971 288.085C145.971 284.817 144.679 282.903 142.484 282.903C140.276 282.903 138.984 284.811 138.984 288.064C138.984 291.346 140.263 293.232 142.484 293.232ZM142.484 292.159C141.028 292.159 140.222 290.703 140.222 288.064C140.222 285.46 141.042 283.983 142.484 283.983C143.927 283.983 144.733 285.446 144.733 288.064C144.733 290.71 143.94 292.159 142.484 292.159ZM153.438 293H154.613V286.615H156.302V285.631H154.613V284.947C154.613 284.12 155.01 283.765 155.714 283.765C155.946 283.765 156.213 283.792 156.37 283.826V282.842C156.083 282.794 155.878 282.773 155.646 282.773C154.224 282.773 153.438 283.402 153.438 284.913V285.631H152.2V286.615H153.438V293ZM161.231 292.07C159.837 292.07 159.051 291.059 159.051 289.315C159.051 287.565 159.837 286.561 161.231 286.561C162.626 286.561 163.412 287.565 163.412 289.315C163.412 291.059 162.626 292.07 161.231 292.07ZM161.231 293.13C163.33 293.13 164.629 291.681 164.629 289.315C164.629 286.943 163.33 285.501 161.231 285.501C159.133 285.501 157.834 286.943 157.834 289.315C157.834 291.681 159.133 293.13 161.231 293.13ZM166.975 293H168.15V288.434C168.15 287.395 168.964 286.643 170.085 286.643C170.317 286.643 170.741 286.684 170.837 286.711V285.535C170.687 285.515 170.44 285.501 170.249 285.501C169.271 285.501 168.424 286.007 168.205 286.725H168.096V285.631H166.975V293ZM185.188 293V283.136H183.957V287.401H178.543V283.136H177.312V293H178.543V288.509H183.957V293H185.188ZM191.081 292.07C189.687 292.07 188.9 291.059 188.9 289.315C188.9 287.565 189.687 286.561 191.081 286.561C192.476 286.561 193.262 287.565 193.262 289.315C193.262 291.059 192.476 292.07 191.081 292.07ZM191.081 293.13C193.18 293.13 194.479 291.681 194.479 289.315C194.479 286.943 193.18 285.501 191.081 285.501C188.982 285.501 187.684 286.943 187.684 289.315C187.684 291.681 188.982 293.13 191.081 293.13ZM196.824 293H198V288.434C198 287.395 198.745 286.561 199.709 286.561C200.639 286.561 201.247 287.121 201.247 287.996V293H202.423V288.263C202.423 287.326 203.106 286.561 204.132 286.561C205.171 286.561 205.684 287.094 205.684 288.181V293H206.859V287.907C206.859 286.362 206.019 285.501 204.515 285.501C203.496 285.501 202.655 286.014 202.259 286.793H202.149C201.808 286.027 201.11 285.501 200.112 285.501C199.128 285.501 198.39 285.973 198.055 286.793H197.945V285.631H196.824V293ZM212.445 286.54C213.614 286.54 214.394 287.401 214.421 288.707H210.36C210.449 287.401 211.27 286.54 212.445 286.54ZM214.387 291.093C214.079 291.742 213.437 292.091 212.486 292.091C211.235 292.091 210.422 291.168 210.36 289.712V289.657H215.658V289.206C215.658 286.916 214.448 285.501 212.459 285.501C210.436 285.501 209.137 287.005 209.137 289.322C209.137 291.653 210.415 293.13 212.459 293.13C214.072 293.13 215.207 292.357 215.562 291.093H214.387ZM99.4883 313V303.136H98.2578V313H99.4883ZM102.354 313H103.529V308.434C103.529 307.395 104.274 306.561 105.238 306.561C106.168 306.561 106.776 307.121 106.776 307.996V313H107.952V308.263C107.952 307.326 108.636 306.561 109.661 306.561C110.7 306.561 111.213 307.094 111.213 308.181V313H112.389V307.907C112.389 306.362 111.548 305.501 110.044 305.501C109.025 305.501 108.185 306.014 107.788 306.793H107.679C107.337 306.027 106.64 305.501 105.642 305.501C104.657 305.501 103.919 305.973 103.584 306.793H103.475V305.631H102.354V313ZM118.624 305.501C117.619 305.501 116.737 306.014 116.266 306.861H116.156V305.631H115.035V315.461H116.211V311.893H116.32C116.724 312.672 117.571 313.13 118.624 313.13C120.497 313.13 121.721 311.619 121.721 309.315C121.721 306.998 120.504 305.501 118.624 305.501ZM118.344 312.07C117.018 312.07 116.177 311.004 116.177 309.315C116.177 307.62 117.018 306.561 118.351 306.561C119.697 306.561 120.504 307.593 120.504 309.315C120.504 311.038 119.697 312.07 118.344 312.07ZM124.066 313H125.242V308.434C125.242 307.395 126.056 306.643 127.177 306.643C127.409 306.643 127.833 306.684 127.929 306.711V305.535C127.778 305.515 127.532 305.501 127.341 305.501C126.363 305.501 125.516 306.007 125.297 306.725H125.188V305.631H124.066V313ZM132.722 312.07C131.327 312.07 130.541 311.059 130.541 309.315C130.541 307.565 131.327 306.561 132.722 306.561C134.116 306.561 134.902 307.565 134.902 309.315C134.902 311.059 134.116 312.07 132.722 312.07ZM132.722 313.13C134.82 313.13 136.119 311.681 136.119 309.315C136.119 306.943 134.82 305.501 132.722 305.501C130.623 305.501 129.324 306.943 129.324 309.315C129.324 311.681 130.623 313.13 132.722 313.13ZM137.549 305.631L140.276 313H141.479L144.207 305.631H142.949L140.933 311.701H140.823L138.807 305.631H137.549ZM148.945 306.54C150.114 306.54 150.894 307.401 150.921 308.707H146.86C146.949 307.401 147.77 306.54 148.945 306.54ZM150.887 311.093C150.579 311.742 149.937 312.091 148.986 312.091C147.735 312.091 146.922 311.168 146.86 309.712V309.657H152.158V309.206C152.158 306.916 150.948 305.501 148.959 305.501C146.936 305.501 145.637 307.005 145.637 309.322C145.637 311.653 146.915 313.13 148.959 313.13C150.572 313.13 151.707 312.357 152.062 311.093H150.887ZM154.504 313H155.68V308.434C155.68 307.395 156.425 306.561 157.389 306.561C158.318 306.561 158.927 307.121 158.927 307.996V313H160.103V308.263C160.103 307.326 160.786 306.561 161.812 306.561C162.851 306.561 163.363 307.094 163.363 308.181V313H164.539V307.907C164.539 306.362 163.698 305.501 162.194 305.501C161.176 305.501 160.335 306.014 159.938 306.793H159.829C159.487 306.027 158.79 305.501 157.792 305.501C156.808 305.501 156.069 305.973 155.734 306.793H155.625V305.631H154.504V313ZM170.125 306.54C171.294 306.54 172.073 307.401 172.101 308.707H168.04C168.129 307.401 168.949 306.54 170.125 306.54ZM172.066 311.093C171.759 311.742 171.116 312.091 170.166 312.091C168.915 312.091 168.102 311.168 168.04 309.712V309.657H173.338V309.206C173.338 306.916 172.128 305.501 170.139 305.501C168.115 305.501 166.816 307.005 166.816 309.322C166.816 311.653 168.095 313.13 170.139 313.13C171.752 313.13 172.887 312.357 173.242 311.093H172.066ZM175.684 313H176.859V308.639C176.859 307.347 177.639 306.561 178.931 306.561C180.106 306.561 180.667 307.189 180.667 308.516V313H181.843V308.229C181.843 306.479 180.92 305.501 179.266 305.501C178.138 305.501 177.283 305.979 176.914 306.793H176.805V305.631H175.684V313ZM184.988 303.792V305.631H183.751V306.615H184.988V311.086C184.988 312.494 185.597 313.055 187.114 313.055C187.347 313.055 187.559 313.027 187.791 312.986V311.995C187.572 312.016 187.47 312.022 187.258 312.022C186.492 312.022 186.164 311.653 186.164 310.785V306.615H187.873V305.631H186.164V303.792H184.988Z" fill="#292929"/>
<circle cx="61" cy="266" r="20" fill="#D6F5FD"/>
<path d="M61.5059 271C63.6045 271 64.8486 269.968 64.8486 268.231C64.8486 266.926 63.9941 266.003 62.6475 265.832V265.723C63.5977 265.552 64.3496 264.622 64.3496 263.597C64.3496 262.086 63.2422 261.136 61.4307 261.136H57.6572V271H61.5059ZM58.8877 262.223H61.1709C62.3945 262.223 63.1055 262.804 63.1055 263.809C63.1055 264.854 62.3467 265.388 60.8564 265.388H58.8877V262.223ZM58.8877 269.913V266.447H61.2051C62.7773 266.447 63.584 267.028 63.584 268.17C63.584 269.312 62.8047 269.913 61.3213 269.913H58.8877Z" fill="#04679E"/>
<rect x="25" y="334" width="359" height="1" fill="#E6E6E6"/>
<rect x="25" y="230" width="359" height="1" fill="#E6E6E6"/>
<path d="M262 284H272V286H262V284Z" fill="#BDBDBD"/>
<path fill-rule="evenodd" clip-rule="evenodd" d="M368 286V291H370V286H375V284H370V279H368V284H363V286H368Z" fill="#4D4D4D"/>
<path d="M364.335 71.6667L359.001 77.0001M353.668 82.3334L359.001 77.0001M359.001 77.0001L364.335 82.3334M359.001 77.0001L353.668 71.6667" stroke="#292929" stroke-linecap="round" stroke-linejoin="round"/>
<rect x="40" y="761" width="327" height="64" rx="32" fill="#04679E"/>
<path d="M162.539 787.727V799H163.945V794.977H166.781C168.898 794.977 170.406 793.484 170.406 791.375C170.406 789.227 168.93 787.727 166.797 787.727H162.539ZM163.945 788.977H166.43C168.062 788.977 168.961 789.828 168.961 791.375C168.961 792.867 168.031 793.727 166.43 793.727H163.945V788.977ZM172.617 799H173.961V787.234H172.617V799ZM179.164 797.969C178.188 797.969 177.461 797.469 177.461 796.609C177.461 795.766 178.023 795.32 179.305 795.234L181.57 795.086V795.859C181.57 797.062 180.547 797.969 179.164 797.969ZM178.914 799.148C180.039 799.148 180.961 798.656 181.508 797.758H181.633V799H182.914V793.234C182.914 791.484 181.766 790.43 179.711 790.43C177.914 790.43 176.586 791.32 176.406 792.672H177.766C177.953 792.008 178.656 791.625 179.664 791.625C180.922 791.625 181.57 792.195 181.57 793.234V794L179.141 794.148C177.18 794.266 176.07 795.133 176.07 796.641C176.07 798.18 177.281 799.148 178.914 799.148ZM192.367 793.156C192.133 791.656 190.883 790.43 188.836 790.43C186.477 790.43 184.977 792.133 184.977 794.758C184.977 797.438 186.484 799.148 188.844 799.148C190.867 799.148 192.125 798.008 192.367 796.461H191.008C190.758 797.414 189.969 797.938 188.836 797.938C187.336 797.938 186.367 796.703 186.367 794.758C186.367 792.852 187.32 791.641 188.836 791.641C190.047 791.641 190.789 792.32 191.008 793.156H192.367ZM197.711 791.617C199.047 791.617 199.938 792.602 199.969 794.094H195.328C195.43 792.602 196.367 791.617 197.711 791.617ZM199.93 796.82C199.578 797.562 198.844 797.961 197.758 797.961C196.328 797.961 195.398 796.906 195.328 795.242V795.18H201.383V794.664C201.383 792.047 200 790.43 197.727 790.43C195.414 790.43 193.93 792.148 193.93 794.797C193.93 797.461 195.391 799.148 197.727 799.148C199.57 799.148 200.867 798.266 201.273 796.82H199.93ZM212.922 787.461C209.734 787.461 207.742 789.734 207.742 793.359C207.742 796.969 209.688 799.266 212.922 799.266C216.141 799.266 218.078 796.961 218.078 793.359C218.078 789.742 216.125 787.461 212.922 787.461ZM212.922 788.758C215.227 788.758 216.633 790.539 216.633 793.359C216.633 796.156 215.234 797.969 212.922 797.969C210.578 797.969 209.188 796.156 209.188 793.359C209.188 790.539 210.625 788.758 212.922 788.758ZM220.352 799H221.695V793.781C221.695 792.594 222.625 791.734 223.906 791.734C224.172 791.734 224.656 791.781 224.766 791.812V790.469C224.594 790.445 224.312 790.43 224.094 790.43C222.977 790.43 222.008 791.008 221.758 791.828H221.633V790.578H220.352V799ZM229.328 799.148C230.492 799.148 231.492 798.594 232.023 797.656H232.148V799H233.43V787.234H232.086V791.906H231.969C231.492 790.984 230.5 790.43 229.328 790.43C227.188 790.43 225.789 792.148 225.789 794.789C225.789 797.438 227.172 799.148 229.328 799.148ZM229.641 791.641C231.164 791.641 232.117 792.859 232.117 794.789C232.117 796.734 231.172 797.938 229.641 797.938C228.102 797.938 227.18 796.758 227.18 794.789C227.18 792.828 228.109 791.641 229.641 791.641ZM239.398 791.617C240.734 791.617 241.625 792.602 241.656 794.094H237.016C237.117 792.602 238.055 791.617 239.398 791.617ZM241.617 796.82C241.266 797.562 240.531 797.961 239.445 797.961C238.016 797.961 237.086 796.906 237.016 795.242V795.18H243.07V794.664C243.07 792.047 241.688 790.43 239.414 790.43C237.102 790.43 235.617 792.148 235.617 794.797C235.617 797.461 237.078 799.148 239.414 799.148C241.258 799.148 242.555 798.266 242.961 796.82H241.617ZM245.18 799H246.523V793.781C246.523 792.594 247.453 791.734 248.734 791.734C249 791.734 249.484 791.781 249.594 791.812V790.469C249.422 790.445 249.141 790.43 248.922 790.43C247.805 790.43 246.836 791.008 246.586 791.828H246.461V790.578H245.18V799Z" fill="white"/>
</g>
<path d="M93 31H314V56C314 67.0457 305.046 76 294 76H113C101.954 76 93 67.0457 93 56V31Z" fill="url(#paint0_linear)"/>
<path fill-rule="evenodd" clip-rule="evenodd" d="M246 57C249.314 57 252 54.3137 252 51C252 47.6863 249.314 45 246 45C242.686 45 240 47.6863 240 51C240 54.3137 242.686 57 246 57ZM159.5 47C157.015 47 155 49.0147 155 51.5C155 53.9853 157.015 56 159.5 56H221.5C223.985 56 226 53.9853 226 51.5C226 49.0147 223.985 47 221.5 47H159.5Z" fill="#2F2929"/>
<defs>
<filter id="filter0_ii" x="-10" y="21" width="427" height="874" filterUnits="userSpaceOnUse" color-interpolation-filters="sRGB">
<feFlood flood-opacity="0" result="BackgroundImageFix"/>
<feBlend mode="normal" in="SourceGraphic" in2="BackgroundImageFix" result="shape"/>
<feColorMatrix in="SourceAlpha" type="matrix" values="0 0 0 0 0 0 0 0 0 0 0 0 0 0 0 0 0 0 127 0" result="hardAlpha"/>
<feOffset dx="-10" dy="-10"/>
<feGaussianBlur stdDeviation="5"/>
<feComposite in2="hardAlpha" operator="arithmetic" k2="-1" k3="1"/>
<feColorMatrix type="matrix" values="0 0 0 0 0 0 0 0 0 0 0 0 0 0 0 0 0 0 0.2 0"/>
<feBlend mode="normal" in2="shape" result="effect1_innerShadow"/>
<feColorMatrix in="SourceAlpha" type="matrix" values="0 0 0 0 0 0 0 0 0 0 0 0 0 0 0 0 0 0 127 0" result="hardAlpha"/>
<feOffset dx="10" dy="10"/>
<feGaussianBlur stdDeviation="5"/>
<feComposite in2="hardAlpha" operator="arithmetic" k2="-1" k3="1"/>
<feColorMatrix type="matrix" values="0 0 0 0 1 0 0 0 0 1 0 0 0 0 1 0 0 0 0.2 0"/>
<feBlend mode="normal" in2="effect1_innerShadow" result="effect2_innerShadow"/>
</filter>
<linearGradient id="paint0_linear" x1="203.5" y1="31" x2="203.5" y2="76" gradientUnits="userSpaceOnUse">
<stop stop-color="#504E4E"/>
<stop offset="1" stop-color="#242222"/>
</linearGradient>
<clipPath id="clip0">
<path d="M16 95C16 67.3858 38.3858 45 66 45H341C368.614 45 391 67.3858 391 95V821C391 848.614 368.614 871 341 871H66C38.3858 871 16 848.614 16 821V95Z" fill="white"/>
</clipPath>
</defs>
</svg>
