<svg width="407" height="907" viewBox="0 0 407 907" fill="none" xmlns="http://www.w3.org/2000/svg">
<g filter="url(#filter0_ii)">
<rect y="31" width="407" height="854" rx="60" fill="#333232"/>
</g>
<g clip-path="url(#clip0)">
<path d="M16 95C16 67.3858 38.3858 45 66 45H341C368.614 45 391 67.3858 391 95V821C391 848.614 368.614 871 341 871H66C38.3858 871 16 848.614 16 821V95Z" fill="white"/>
<g clip-path="url(#clip1)">
<rect x="16" y="45" width="375" height="1331" rx="50" fill="white"/>
<path fill-rule="evenodd" clip-rule="evenodd" d="M83 476H323V476.501H83V476Z" fill="#DEDEDE"/>
<path opacity="0.9" d="M108.401 383.136V393H109.632V389.479H112.113C113.966 389.479 115.285 388.174 115.285 386.328C115.285 384.448 113.993 383.136 112.127 383.136H108.401ZM109.632 384.229H111.806C113.234 384.229 114.021 384.975 114.021 386.328C114.021 387.634 113.207 388.386 111.806 388.386H109.632V384.229ZM120.332 384.229H122.704C123.976 384.229 124.741 384.934 124.741 386.116C124.741 387.326 124.024 388.003 122.759 388.003H120.332V384.229ZM120.332 389.097H122.759L124.871 393H126.314L124.03 388.905C125.268 388.516 126.013 387.449 126.013 386.075C126.013 384.298 124.769 383.136 122.868 383.136H119.102V393H120.332V389.097ZM134.198 382.903C131.409 382.903 129.665 384.893 129.665 388.064C129.665 391.223 131.368 393.232 134.198 393.232C137.014 393.232 138.709 391.216 138.709 388.064C138.709 384.899 137 382.903 134.198 382.903ZM134.198 384.038C136.214 384.038 137.445 385.597 137.445 388.064C137.445 390.512 136.221 392.098 134.198 392.098C132.147 392.098 130.93 390.512 130.93 388.064C130.93 385.597 132.188 384.038 134.198 384.038ZM142.177 390.423C142.307 392.125 143.75 393.232 145.841 393.232C148.097 393.232 149.526 392.077 149.526 390.266C149.526 388.816 148.706 388.023 146.662 387.511L145.629 387.237C144.269 386.889 143.729 386.444 143.729 385.672C143.729 384.674 144.597 384.018 145.91 384.018C147.14 384.018 147.974 384.619 148.145 385.631H149.382C149.28 384.038 147.858 382.903 145.951 382.903C143.866 382.903 142.464 384.038 142.464 385.713C142.464 387.114 143.237 387.921 145.021 388.372L146.286 388.7C147.646 389.042 148.261 389.575 148.261 390.416C148.261 391.394 147.284 392.111 145.958 392.111C144.556 392.111 143.572 391.455 143.421 390.423H142.177ZM153.377 383.136V393H154.607V389.479H157.089C158.941 389.479 160.261 388.174 160.261 386.328C160.261 384.448 158.969 383.136 157.102 383.136H153.377ZM154.607 384.229H156.781C158.21 384.229 158.996 384.975 158.996 386.328C158.996 387.634 158.182 388.386 156.781 388.386H154.607V384.229ZM170.188 391.893H165.308V388.502H169.936V387.408H165.308V384.243H170.188V383.136H164.077V393H170.188V391.893ZM175.447 384.229H177.82C179.091 384.229 179.857 384.934 179.857 386.116C179.857 387.326 179.139 388.003 177.874 388.003H175.447V384.229ZM175.447 389.097H177.874L179.987 393H181.429L179.146 388.905C180.383 388.516 181.128 387.449 181.128 386.075C181.128 384.298 179.884 383.136 177.984 383.136H174.217V393H175.447V389.097ZM190.443 390.423C190.573 392.125 192.015 393.232 194.107 393.232C196.363 393.232 197.792 392.077 197.792 390.266C197.792 388.816 196.971 388.023 194.927 387.511L193.895 387.237C192.535 386.889 191.995 386.444 191.995 385.672C191.995 384.674 192.863 384.018 194.175 384.018C195.406 384.018 196.24 384.619 196.411 385.631H197.648C197.546 384.038 196.124 382.903 194.216 382.903C192.131 382.903 190.73 384.038 190.73 385.713C190.73 387.114 191.503 387.921 193.287 388.372L194.551 388.7C195.912 389.042 196.527 389.575 196.527 390.416C196.527 391.394 195.549 392.111 194.223 392.111C192.822 392.111 191.838 391.455 191.687 390.423H190.443ZM205.614 393.232C207.713 393.232 209.271 392.063 209.599 390.252H208.348C208.034 391.394 206.988 392.098 205.614 392.098C203.714 392.098 202.524 390.546 202.524 388.071C202.524 385.597 203.714 384.038 205.607 384.038C206.968 384.038 208.02 384.838 208.348 386.109H209.599C209.305 384.209 207.685 382.903 205.607 382.903C202.928 382.903 201.26 384.886 201.26 388.071C201.26 391.25 202.934 393.232 205.614 393.232ZM217.613 382.903C214.824 382.903 213.081 384.893 213.081 388.064C213.081 391.223 214.783 393.232 217.613 393.232C220.43 393.232 222.125 391.216 222.125 388.064C222.125 384.899 220.416 382.903 217.613 382.903ZM217.613 384.038C219.63 384.038 220.86 385.597 220.86 388.064C220.86 390.512 219.637 392.098 217.613 392.098C215.562 392.098 214.346 390.512 214.346 388.064C214.346 385.597 215.604 384.038 217.613 384.038ZM227.295 384.229H229.667C230.939 384.229 231.704 384.934 231.704 386.116C231.704 387.326 230.987 388.003 229.722 388.003H227.295V384.229ZM227.295 389.097H229.722L231.834 393H233.277L230.993 388.905C232.231 388.516 232.976 387.449 232.976 386.075C232.976 384.298 231.732 383.136 229.831 383.136H226.065V393H227.295V389.097ZM243.122 391.893H238.242V388.502H242.87V387.408H238.242V384.243H243.122V383.136H237.011V393H243.122V391.893ZM255.753 394.894C254.591 392.856 254.078 391.031 254.078 388.898C254.078 386.69 254.782 384.305 255.773 383.143H254.782C253.435 384.865 252.868 386.561 252.868 388.898C252.868 391.243 253.538 393.424 254.714 394.894H255.753ZM261.88 393H263.11V383.136H261.887L259.262 385.022V386.321L261.771 384.503H261.88V393ZM272.3 389.589V388.475H267.816V389.589H272.3ZM278.619 393H279.849V383.136H278.625L276 385.022V386.321L278.509 384.503H278.619V393ZM286.954 393H288.184V383.136H286.961L284.336 385.022V386.321L286.844 384.503H286.954V393ZM292.691 394.894H293.737C294.913 393.41 295.583 391.229 295.583 388.898C295.583 386.561 295.022 384.865 293.676 383.143H292.678C293.669 384.298 294.366 386.677 294.366 388.898C294.366 391.031 293.853 392.856 292.691 394.894Z" fill="#454545"/>
<path opacity="0.9" d="M206.438 435H208.516V429.906H211.891V427.984H208.516V412.422H205.453C199.906 420.219 197.125 424.547 195.109 427.953V429.906H206.438V435ZM197.344 427.859C199.766 423.828 202 420.328 206.297 414.469H206.438V428H197.344V427.859Z" fill="#303030"/>
<path fill-rule="evenodd" clip-rule="evenodd" d="M83 613H323V613.501H83V613Z" fill="#DEDEDE"/>
<path opacity="0.9" d="M142.955 530V521.243H146.134V520.136H138.546V521.243H141.725V530H142.955ZM151.099 520.136H149.869V526.609C149.869 528.715 151.338 530.232 153.786 530.232C156.233 530.232 157.703 528.715 157.703 526.609V520.136H156.472V526.527C156.472 528.018 155.495 529.098 153.786 529.098C152.077 529.098 151.099 528.018 151.099 526.527V520.136ZM169.034 530V525.728H173.402V524.634H169.034V521.243H173.792V520.136H167.804V530H169.034ZM178.846 530V520.136H177.615V530H178.846ZM187.133 530.232C189.232 530.232 190.79 529.063 191.118 527.252H189.867C189.553 528.394 188.507 529.098 187.133 529.098C185.233 529.098 184.043 527.546 184.043 525.071C184.043 522.597 185.233 521.038 187.126 521.038C188.487 521.038 189.539 521.838 189.867 523.109H191.118C190.824 521.209 189.204 519.903 187.126 519.903C184.446 519.903 182.779 521.886 182.779 525.071C182.779 528.25 184.453 530.232 187.133 530.232ZM199.132 519.903C196.343 519.903 194.6 521.893 194.6 525.064C194.6 528.223 196.302 530.232 199.132 530.232C201.949 530.232 203.644 528.216 203.644 525.064C203.644 521.899 201.935 519.903 199.132 519.903ZM199.132 521.038C201.149 521.038 202.379 522.597 202.379 525.064C202.379 527.512 201.156 529.098 199.132 529.098C197.081 529.098 195.865 527.512 195.865 525.064C195.865 522.597 197.122 521.038 199.132 521.038ZM214.565 521.229H216.937C218.209 521.229 218.974 521.934 218.974 523.116C218.974 524.326 218.257 525.003 216.992 525.003H214.565V521.229ZM214.565 526.097H216.992L219.104 530H220.547L218.263 525.905C219.501 525.516 220.246 524.449 220.246 523.075C220.246 521.298 219.002 520.136 217.101 520.136H213.335V530H214.565V526.097ZM230.693 530H231.985L228.349 520.136H227.132L223.495 530H224.787L225.778 527.177H229.702L230.693 530ZM227.686 521.729H227.795L229.34 526.131H226.141L227.686 521.729ZM236.732 530V522.351H236.841L242.194 530H243.39V520.136H242.173V527.812H242.064L236.711 520.136H235.515V530H236.732ZM255.984 526.186V524.982H251.985V526.062H254.76V526.302C254.76 527.97 253.564 529.098 251.8 529.098C249.818 529.098 248.587 527.553 248.587 525.064C248.587 522.61 249.838 521.038 251.793 521.038C253.256 521.038 254.247 521.742 254.671 523.075H255.922C255.567 521.12 253.981 519.903 251.793 519.903C249.093 519.903 247.323 521.947 247.323 525.064C247.323 528.223 249.066 530.232 251.793 530.232C254.316 530.232 255.984 528.619 255.984 526.186ZM266.076 528.893H261.195V525.502H265.823V524.408H261.195V521.243H266.076V520.136H259.964V530H266.076V528.893Z" fill="#454545"/>
<path opacity="0.9" d="M137.078 572H139.359L149.688 551.453V549.453H135.312V551.375H147.531V551.562L137.078 572ZM164.016 572H166.094V566.906H169.469V564.984H166.094V549.422H163.031C157.484 557.219 154.703 561.547 152.688 564.953V566.906H164.016V572ZM154.922 564.859C157.344 560.828 159.578 557.328 163.875 551.469H164.016V565H154.922V564.859ZM182.859 572.469C187.844 572.469 190.781 568.125 190.781 560.75C190.781 553.391 187.812 548.984 182.859 548.984C177.875 548.984 174.891 553.375 174.891 560.719C174.891 568.109 177.844 572.469 182.859 572.469ZM182.859 570.594C179.188 570.594 177.047 566.969 177.047 560.719C177.047 554.531 179.203 550.875 182.859 550.875C186.5 550.875 188.641 554.5 188.641 560.719C188.641 566.969 186.516 570.594 182.859 570.594ZM207.094 563.875V561.938H196.844V563.875H207.094ZM214.797 572H217.078L227.406 551.453V549.453H213.031V551.375H225.25V551.562L214.797 572ZM240.188 572.469C244.766 572.469 248 569.312 248 564.844C248 560.484 244.922 557.375 240.594 557.375C238.391 557.375 236.516 558.188 235.438 559.594H235.234L235.984 551.375H246.594V549.453H234.297L233.078 562.047H235.109C236.062 560.312 238.031 559.234 240.25 559.234C243.5 559.234 245.859 561.594 245.859 564.906C245.859 568.219 243.5 570.578 240.203 570.578C237.359 570.578 235.062 568.703 234.828 566.172H232.734C232.969 569.844 236.094 572.469 240.188 572.469ZM261.062 572.453C266.453 572.453 269.578 567.891 269.578 560.25C269.578 557.375 269.078 555.062 268.078 553.312C266.672 550.516 264.266 548.984 261.219 548.984C256.703 548.984 253.453 552.266 253.453 556.75C253.453 561.047 256.578 564.219 260.891 564.219C263.844 564.219 266.344 562.562 267.312 560.078C267.328 560.078 267.359 560.078 267.359 560.078C267.375 560.078 267.406 560.078 267.406 560.078C267.422 560.234 267.516 560.438 267.5 560.594C267.344 566.906 265.078 570.547 261.094 570.547C258.5 570.547 256.594 569 256.047 566.703H253.859C254.5 570.188 257.266 572.453 261.062 572.453ZM261.234 562.359C257.922 562.359 255.609 559.953 255.609 556.688C255.609 553.391 258.031 550.875 261.25 550.875C264.484 550.875 266.938 553.469 266.938 556.812C266.938 559.922 264.469 562.359 261.234 562.359Z" fill="#303030"/>
<path opacity="0.9" d="M153.468 822.903C150.679 822.903 148.936 824.893 148.936 828.064C148.936 831.223 150.638 833.232 153.468 833.232C156.284 833.232 157.979 831.216 157.979 828.064C157.979 824.899 156.271 822.903 153.468 822.903ZM153.468 824.038C155.484 824.038 156.715 825.597 156.715 828.064C156.715 830.512 155.491 832.098 153.468 832.098C151.417 832.098 150.2 830.512 150.2 828.064C150.2 825.597 151.458 824.038 153.468 824.038ZM165.891 833.232C167.989 833.232 169.548 832.063 169.876 830.252H168.625C168.311 831.394 167.265 832.098 165.891 832.098C163.99 832.098 162.801 830.546 162.801 828.071C162.801 825.597 163.99 824.038 165.884 824.038C167.244 824.038 168.297 824.838 168.625 826.109H169.876C169.582 824.209 167.962 822.903 165.884 822.903C163.204 822.903 161.536 824.886 161.536 828.071C161.536 831.25 163.211 833.232 165.891 833.232ZM177.712 833.232C179.811 833.232 181.37 832.063 181.698 830.252H180.447C180.132 831.394 179.086 832.098 177.712 832.098C175.812 832.098 174.622 830.546 174.622 828.071C174.622 825.597 175.812 824.038 177.705 824.038C179.066 824.038 180.119 824.838 180.447 826.109H181.698C181.404 824.209 179.784 822.903 177.705 822.903C175.026 822.903 173.358 824.886 173.358 828.071C173.358 831.25 175.033 833.232 177.712 833.232ZM186.827 823.136H185.596V829.609C185.596 831.715 187.066 833.232 189.513 833.232C191.961 833.232 193.43 831.715 193.43 829.609V823.136H192.2V829.527C192.2 831.018 191.222 832.098 189.513 832.098C187.804 832.098 186.827 831.018 186.827 829.527V823.136ZM197.78 823.136V833H199.011V829.479H201.492C203.345 829.479 204.664 828.174 204.664 826.328C204.664 824.448 203.372 823.136 201.506 823.136H197.78ZM199.011 824.229H201.184C202.613 824.229 203.399 824.975 203.399 826.328C203.399 827.634 202.586 828.386 201.184 828.386H199.011V824.229ZM214.277 833H215.569L211.933 823.136H210.716L207.079 833H208.371L209.362 830.177H213.286L214.277 833ZM211.27 824.729H211.379L212.924 829.131H209.725L211.27 824.729ZM221.731 833V824.243H224.909V823.136H217.321V824.243H220.5V833H221.731ZM229.84 833V823.136H228.61V833H229.84ZM238.305 822.903C235.516 822.903 233.773 824.893 233.773 828.064C233.773 831.223 235.475 833.232 238.305 833.232C241.122 833.232 242.817 831.216 242.817 828.064C242.817 824.899 241.108 822.903 238.305 822.903ZM238.305 824.038C240.322 824.038 241.552 825.597 241.552 828.064C241.552 830.512 240.329 832.098 238.305 832.098C236.254 832.098 235.038 830.512 235.038 828.064C235.038 825.597 236.296 824.038 238.305 824.038ZM247.973 833V825.351H248.083L253.435 833H254.632V823.136H253.415V830.812H253.305L247.953 823.136H246.757V833H247.973Z" fill="#454545"/>
<path opacity="0.9" d="M161.078 875H163.328L154.906 852.453H152.781L144.344 875H146.609L149.109 868.094H158.578L161.078 875ZM153.734 855.25H153.938L157.938 866.25H149.75L153.734 855.25ZM168.641 875H170.688V865C170.688 861.828 172.75 859.734 175.906 859.734C178.828 859.734 180.297 861.375 180.297 864.578V875H182.344V864.062C182.344 860.141 180.188 857.891 176.438 857.891C173.766 857.891 171.688 859.125 170.797 861.203H170.594V858.172H168.641V875ZM194.016 873.469C191.75 873.469 190.109 872.25 190.109 870.312C190.109 868.391 191.484 867.328 194.344 867.125L199.328 866.766V868.734C199.328 871.406 197.031 873.469 194.016 873.469ZM193.672 875.281C196.141 875.281 198.203 874.109 199.234 872.109H199.422V875H201.391V863.453C201.391 859.953 199.156 857.891 195.203 857.891C191.672 857.891 189.062 859.656 188.672 862.328H190.75C191.156 860.703 192.828 859.719 195.141 859.719C197.875 859.719 199.328 861.062 199.328 863.469V865.094L194.062 865.438C190.172 865.703 188 867.406 188 870.344C188 873.359 190.375 875.281 193.672 875.281ZM208.234 875H210.281V851.469H208.234V875ZM218.453 880.859C221.234 880.859 222.391 879.766 223.859 875.812L230.406 858.172H228.219L223.141 872.766H222.953L217.859 858.172H215.641L221.953 875.109L221.609 876.156C220.828 878.281 220 879.078 218.422 879.078C218.156 879.078 217.719 879.062 217.5 879.031V880.797C217.75 880.844 218.203 880.859 218.453 880.859ZM234.844 862.625C234.844 865 236.312 866.281 239.438 867.031L241.984 867.641C244.234 868.172 245.281 869.031 245.281 870.5C245.281 872.266 243.422 873.531 240.953 873.531C238.516 873.531 236.906 872.469 236.453 870.781H234.328C234.672 873.547 237.219 875.281 240.891 875.281C244.562 875.281 247.391 873.25 247.391 870.344C247.391 867.906 245.812 866.594 242.562 865.812L240.25 865.266C238 864.734 236.906 863.938 236.906 862.547C236.906 860.859 238.703 859.641 240.906 859.641C243.141 859.641 244.703 860.672 245.078 862.25H247.094C246.719 859.578 244.312 857.891 240.922 857.891C237.531 857.891 234.844 859.922 234.844 862.625ZM254.203 853.859V858.172H251.484V859.906H254.203V870.812C254.203 873.875 255.484 875.094 258.703 875.094C259.062 875.094 259.812 875.047 260.172 874.984V873.234C259.828 873.266 259.25 873.281 258.922 873.281C257.031 873.281 256.25 872.406 256.25 870.344V859.906H260.25V858.172H256.25V853.859H254.203Z" fill="#303030"/>
<path fill-rule="evenodd" clip-rule="evenodd" d="M83 780H323V780.501H83V780Z" fill="#DEDEDE"/>
<path opacity="0.9" d="M118.718 665.893H113.837V662.502H118.465V661.408H113.837V658.243H118.718V657.136H112.606V667H118.718V665.893ZM123.895 667V659.467H123.977L127.087 666.932H128.126L131.236 659.467H131.318V667H132.467V657.136H131.038L127.661 665.298H127.552L124.175 657.136H122.746V667H123.895ZM136.782 657.136V667H138.013V663.479H140.494C142.347 663.479 143.666 662.174 143.666 660.328C143.666 658.448 142.374 657.136 140.508 657.136H136.782ZM138.013 658.229H140.187C141.615 658.229 142.402 658.975 142.402 660.328C142.402 661.634 141.588 662.386 140.187 662.386H138.013V658.229ZM153.471 665.893H148.713V657.136H147.483V667H153.471V665.893ZM160.979 656.903C158.19 656.903 156.447 658.893 156.447 662.064C156.447 665.223 158.149 667.232 160.979 667.232C163.796 667.232 165.491 665.216 165.491 662.064C165.491 658.899 163.782 656.903 160.979 656.903ZM160.979 658.038C162.996 658.038 164.226 659.597 164.226 662.064C164.226 664.512 163.003 666.098 160.979 666.098C158.928 666.098 157.712 664.512 157.712 662.064C157.712 659.597 158.969 658.038 160.979 658.038ZM172.903 667V662.755L176.403 657.136H175.002L172.343 661.518H172.233L169.574 657.136H168.173L171.673 662.755V667H172.903ZM181.088 667V659.467H181.17L184.28 666.932H185.319L188.43 659.467H188.512V667H189.66V657.136H188.231L184.854 665.298H184.745L181.368 657.136H179.939V667H181.088ZM200.087 665.893H195.206V662.502H199.834V661.408H195.206V658.243H200.087V657.136H193.976V667H200.087V665.893ZM205.332 667V659.351H205.442L210.794 667H211.991V657.136H210.774V664.812H210.664L205.312 657.136H204.116V667H205.332ZM220.1 667V658.243H223.279V657.136H215.691V658.243H218.87V667H220.1ZM232.259 664.423C232.389 666.125 233.831 667.232 235.923 667.232C238.179 667.232 239.607 666.077 239.607 664.266C239.607 662.816 238.787 662.023 236.743 661.511L235.711 661.237C234.351 660.889 233.811 660.444 233.811 659.672C233.811 658.674 234.679 658.018 235.991 658.018C237.222 658.018 238.056 658.619 238.227 659.631H239.464C239.361 658.038 237.939 656.903 236.032 656.903C233.947 656.903 232.546 658.038 232.546 659.713C232.546 661.114 233.318 661.921 235.103 662.372L236.367 662.7C237.728 663.042 238.343 663.575 238.343 664.416C238.343 665.394 237.365 666.111 236.039 666.111C234.638 666.111 233.653 665.455 233.503 664.423H232.259ZM247.252 667V658.243H250.431V657.136H242.843V658.243H246.022V667H247.252ZM259.381 667H260.673L257.037 657.136H255.82L252.183 667H253.475L254.466 664.177H258.39L259.381 667ZM256.373 658.729H256.483L258.028 663.131H254.829L256.373 658.729ZM266.835 667V658.243H270.013V657.136H262.425V658.243H265.604V667H266.835ZM274.978 657.136H273.748V663.609C273.748 665.715 275.218 667.232 277.665 667.232C280.112 667.232 281.582 665.715 281.582 663.609V657.136H280.351V663.527C280.351 665.018 279.374 666.098 277.665 666.098C275.956 666.098 274.978 665.018 274.978 663.527V657.136ZM285.46 664.423C285.59 666.125 287.032 667.232 289.124 667.232C291.38 667.232 292.809 666.077 292.809 664.266C292.809 662.816 291.988 662.023 289.944 661.511L288.912 661.237C287.552 660.889 287.012 660.444 287.012 659.672C287.012 658.674 287.88 658.018 289.192 658.018C290.423 658.018 291.257 658.619 291.428 659.631H292.665C292.562 658.038 291.141 656.903 289.233 656.903C287.148 656.903 285.747 658.038 285.747 659.713C285.747 661.114 286.52 661.921 288.304 662.372L289.568 662.7C290.929 663.042 291.544 663.575 291.544 664.416C291.544 665.394 290.566 666.111 289.24 666.111C287.839 666.111 286.854 665.455 286.704 664.423H285.46Z" fill="#454545"/>
<path opacity="0.9" d="M141.766 707.062H130.281V698.406H141.188V696.5H130.281V688.391H141.766V686.453H128.141V709H141.766V707.062ZM148.109 709H150.156V698.672C150.156 695.922 152.047 693.734 154.484 693.734C156.812 693.734 158.359 695.312 158.359 697.734V709H160.406V698.328C160.406 695.719 162.141 693.734 164.734 693.734C167.266 693.734 168.625 695.203 168.625 697.953V709H170.672V697.484C170.672 693.922 168.719 691.891 165.344 691.891C162.922 691.891 160.953 693.188 160.094 695.203H159.891C159.172 693.188 157.484 691.891 155.125 691.891C152.797 691.891 151 693.141 150.266 695.203H150.062V692.172H148.109V709ZM185.203 691.891C182.641 691.891 180.469 693.312 179.438 695.609H179.25V692.172H177.297V714.484H179.344V705.797H179.531C180.469 707.969 182.594 709.281 185.203 709.281C189.453 709.281 192.281 705.812 192.281 700.578C192.281 695.344 189.469 691.891 185.203 691.891ZM184.75 707.422C181.469 707.422 179.281 704.703 179.281 700.578C179.281 696.453 181.469 693.734 184.766 693.734C188.078 693.734 190.172 696.391 190.172 700.594C190.172 704.781 188.078 707.422 184.75 707.422ZM198.359 709H200.406V685.469H198.359V709ZM214.156 707.422C210.688 707.422 208.625 704.844 208.625 700.578C208.625 696.312 210.688 693.734 214.156 693.734C217.625 693.734 219.688 696.312 219.688 700.578C219.688 704.844 217.625 707.422 214.156 707.422ZM214.156 709.281C218.859 709.281 221.812 705.953 221.812 700.578C221.812 695.203 218.859 691.891 214.156 691.891C209.453 691.891 206.516 695.203 206.516 700.578C206.516 705.953 209.453 709.281 214.156 709.281ZM228.359 714.859C231.141 714.859 232.297 713.766 233.766 709.812L240.312 692.172H238.125L233.047 706.766H232.859L227.766 692.172H225.547L231.859 709.109L231.516 710.156C230.734 712.281 229.906 713.078 228.328 713.078C228.062 713.078 227.625 713.062 227.406 713.031V714.797C227.656 714.844 228.109 714.859 228.359 714.859ZM251.578 693.703C254.625 693.703 256.641 695.969 256.688 699.438H246.203C246.391 695.969 248.516 693.703 251.578 693.703ZM256.484 704.844C255.766 706.5 254.047 707.453 251.656 707.453C248.406 707.453 246.297 705.016 246.188 701.219V701.125H258.828V700.219C258.828 695.078 256.078 691.891 251.594 691.891C247.016 691.891 244.078 695.312 244.078 700.594C244.078 705.906 246.984 709.281 251.609 709.281C255.141 709.281 257.734 707.578 258.562 704.844H256.484ZM271.047 709.281C273.625 709.281 275.797 707.891 276.797 705.641H276.984V709H278.953V685.469H276.906V695.453H276.719C275.766 693.25 273.609 691.891 271.047 691.891C266.781 691.891 263.922 695.375 263.922 700.594C263.922 705.812 266.75 709.281 271.047 709.281ZM271.484 693.734C274.781 693.734 276.938 696.453 276.938 700.578C276.938 704.734 274.797 707.422 271.484 707.422C268.156 707.422 266.031 704.766 266.031 700.578C266.031 696.406 268.156 693.734 271.484 693.734Z" fill="#303030"/>
<path opacity="0.9" d="M166.268 734.454H167.519C168.92 734.454 169.788 735.165 169.788 736.307C169.788 737.387 168.865 738.159 167.567 738.159C166.295 738.159 165.406 737.482 165.297 736.43H164.108C164.196 738.118 165.577 739.232 167.58 739.232C169.529 739.232 171.053 737.968 171.053 736.341C171.053 734.994 170.239 734.064 168.9 733.894V733.784C169.98 733.524 170.629 732.663 170.629 731.487C170.629 730.052 169.255 728.903 167.532 728.903C165.653 728.903 164.429 729.956 164.306 731.665H165.502C165.605 730.605 166.35 729.977 167.485 729.977C168.619 729.977 169.378 730.646 169.378 731.651C169.378 732.677 168.585 733.401 167.464 733.401H166.268V734.454ZM177.187 739H178.417V729.136H177.194L174.569 731.022V732.321L177.078 730.503H177.187V739ZM193.023 739V734.755L196.523 729.136H195.122L192.463 733.518H192.353L189.694 729.136H188.293L191.793 734.755V739H193.023ZM206.171 737.893H201.29V734.502H205.918V733.408H201.29V730.243H206.171V729.136H200.06V739H206.171V737.893ZM216.612 739H217.904L214.267 729.136H213.05L209.413 739H210.705L211.696 736.177H215.62L216.612 739ZM213.604 730.729H213.713L215.258 735.131H212.059L213.604 730.729ZM222.663 730.229H225.036C226.307 730.229 227.073 730.934 227.073 732.116C227.073 733.326 226.355 734.003 225.09 734.003H222.663V730.229ZM222.663 735.097H225.09L227.203 739H228.645L226.362 734.905C227.599 734.516 228.344 733.449 228.344 732.075C228.344 730.298 227.1 729.136 225.2 729.136H221.433V739H222.663V735.097ZM231.908 736.423C232.038 738.125 233.48 739.232 235.572 739.232C237.828 739.232 239.256 738.077 239.256 736.266C239.256 734.816 238.436 734.023 236.392 733.511L235.36 733.237C234 732.889 233.46 732.444 233.46 731.672C233.46 730.674 234.328 730.018 235.64 730.018C236.871 730.018 237.705 730.619 237.876 731.631H239.113C239.01 730.038 237.588 728.903 235.681 728.903C233.596 728.903 232.195 730.038 232.195 731.713C232.195 733.114 232.967 733.921 234.752 734.372L236.016 734.7C237.377 735.042 237.992 735.575 237.992 736.416C237.992 737.394 237.014 738.111 235.688 738.111C234.287 738.111 233.302 737.455 233.152 736.423H231.908Z" fill="#454545"/>
<path opacity="0.9" d="M257.048 336C259.154 336 260.439 334.927 260.439 333.197C260.439 331.912 259.523 330.955 258.197 330.832V330.709C259.188 330.552 259.954 329.636 259.954 328.597C259.954 327.079 258.826 326.136 256.953 326.136H252.831V336H257.048ZM254.594 327.537H256.522C257.588 327.537 258.211 328.043 258.211 328.911C258.211 329.8 257.547 330.285 256.296 330.285H254.594V327.537ZM254.594 334.599V331.557H256.577C257.923 331.557 258.634 332.076 258.634 333.061C258.634 334.065 257.944 334.599 256.645 334.599H254.594ZM268.019 325.89C265.154 325.89 263.343 327.879 263.343 331.064C263.343 334.25 265.12 336.246 268.019 336.246C270.897 336.246 272.674 334.243 272.674 331.064C272.674 327.879 270.883 325.89 268.019 325.89ZM268.019 327.455C269.769 327.455 270.869 328.856 270.869 331.064C270.869 333.266 269.776 334.681 268.019 334.681C266.235 334.681 265.148 333.266 265.148 331.064C265.148 328.856 266.262 327.455 268.019 327.455ZM277.861 327.599H279.857C280.978 327.599 281.662 328.228 281.662 329.253C281.662 330.299 281.019 330.9 279.898 330.9H277.861V327.599ZM277.861 332.302H279.816L281.751 336H283.767L281.614 332.028C282.79 331.604 283.473 330.518 283.473 329.219C283.473 327.325 282.175 326.136 280.103 326.136H276.097V336H277.861V332.302ZM288.777 327.599H290.773C291.894 327.599 292.578 328.228 292.578 329.253C292.578 330.299 291.935 330.9 290.814 330.9H288.777V327.599ZM288.777 332.302H290.732L292.666 336H294.683L292.53 332.028C293.705 331.604 294.389 330.518 294.389 329.219C294.389 327.325 293.09 326.136 291.019 326.136H287.013V336H288.777V332.302ZM302.188 325.89C299.323 325.89 297.512 327.879 297.512 331.064C297.512 334.25 299.289 336.246 302.188 336.246C305.065 336.246 306.843 334.243 306.843 331.064C306.843 327.879 305.052 325.89 302.188 325.89ZM302.188 327.455C303.938 327.455 305.038 328.856 305.038 331.064C305.038 333.266 303.944 334.681 302.188 334.681C300.403 334.681 299.316 333.266 299.316 331.064C299.316 328.856 300.431 327.455 302.188 327.455ZM315.585 329.014H315.687L317.697 336H319.351L321.997 326.136H320.171L318.483 333.478H318.387L316.419 326.136H314.853L312.912 333.478H312.809L311.121 326.136H309.282L311.927 336H313.588L315.585 329.014ZM331.6 334.476H326.979V331.714H331.347V330.278H326.979V327.66H331.6V326.136H325.215V336H331.6V334.476ZM336.951 327.599H338.947C340.068 327.599 340.752 328.228 340.752 329.253C340.752 330.299 340.109 330.9 338.988 330.9H336.951V327.599ZM336.951 332.302H338.906L340.841 336H342.857L340.704 332.028C341.88 331.604 342.563 330.518 342.563 329.219C342.563 327.325 341.264 326.136 339.193 326.136H335.187V336H336.951V332.302Z" fill="#303030"/>
<rect x="113" y="777" width="180" height="64" rx="32" fill="#04679E"/>
<path d="M196.781 815H198.258L194.102 803.727H192.711L188.555 815H190.031L191.164 811.773H195.648L196.781 815ZM193.344 805.547H193.469L195.234 810.578H191.578L193.344 805.547ZM202.711 815.148C203.875 815.148 204.875 814.594 205.406 813.656H205.531V815H206.812V803.234H205.469V807.906H205.352C204.875 806.984 203.883 806.43 202.711 806.43C200.57 806.43 199.172 808.148 199.172 810.789C199.172 813.438 200.555 815.148 202.711 815.148ZM203.023 807.641C204.547 807.641 205.5 808.859 205.5 810.789C205.5 812.734 204.555 813.938 203.023 813.938C201.484 813.938 200.562 812.758 200.562 810.789C200.562 808.828 201.492 807.641 203.023 807.641ZM212.539 815.148C213.703 815.148 214.703 814.594 215.234 813.656H215.359V815H216.641V803.234H215.297V807.906H215.18C214.703 806.984 213.711 806.43 212.539 806.43C210.398 806.43 209 808.148 209 810.789C209 813.438 210.383 815.148 212.539 815.148ZM212.852 807.641C214.375 807.641 215.328 808.859 215.328 810.789C215.328 812.734 214.383 813.938 212.852 813.938C211.312 813.938 210.391 812.758 210.391 810.789C210.391 808.828 211.32 807.641 212.852 807.641Z" fill="white"/>
<path d="M43 73L36 80L43 87" stroke="#303030"/>
<path opacity="0.9" d="M96.3203 99.0703V98.0156C98.5234 97.8359 99.8047 96.6641 99.8047 94.8125C99.8047 93.25 98.9219 92.2969 96.9922 91.7812L96.3203 91.6172V87.7969C97.4688 87.9375 98.2422 88.6719 98.2734 89.6484H99.6016C99.5469 87.9531 98.2578 86.75 96.3203 86.5859V85.5H95.2734V86.5938C93.2812 86.7891 92.0469 87.9609 92.0469 89.6641C92.0469 91.1016 92.9688 92.1328 94.6484 92.5781L95.2734 92.75V96.8125C93.9922 96.6562 93.1953 95.9609 93.1094 94.9141H91.7734C91.7812 96.6406 93.1562 97.8672 95.2734 98.0234V99.0703H96.3203ZM98.4531 94.9219C98.4531 96.0703 97.6797 96.7656 96.3203 96.8359V92.9609C97.7891 93.2734 98.4531 93.8828 98.4531 94.9219ZM93.3906 89.5859C93.3906 88.6094 94.1797 87.8594 95.2734 87.7969V91.3906C94.0391 91.1328 93.3906 90.5078 93.3906 89.5859ZM106.836 98.2578C109.594 98.2578 111.172 96.0391 111.172 92.1641C111.172 90.9219 110.992 89.8828 110.625 89.0234C109.922 87.3594 108.617 86.4609 106.93 86.4609C104.617 86.4609 102.977 88.0781 102.977 90.3438C102.977 92.5312 104.531 94.1172 106.68 94.1172C108.023 94.1172 109.125 93.4766 109.68 92.3828H109.711H109.742H109.805C109.727 95.3828 108.688 97.0078 106.852 97.0078C105.742 97.0078 104.891 96.3672 104.586 95.3125H103.141C103.5 97.125 104.922 98.2578 106.836 98.2578ZM106.93 92.8984C105.438 92.8984 104.398 91.8359 104.398 90.2969C104.398 88.8203 105.5 87.6953 106.945 87.6953C108.391 87.6953 109.492 88.8359 109.492 90.3438C109.492 91.8359 108.422 92.8984 106.93 92.8984ZM114.43 100.867L115.586 96.4219H114.008L113.258 100.867H114.43ZM122.57 98.2656C125.102 98.2656 126.555 96.125 126.555 92.3828C126.555 88.6484 125.078 86.4609 122.57 86.4609C120.047 86.4609 118.57 88.6406 118.57 92.3594C118.57 96.1094 120.031 98.2656 122.57 98.2656ZM122.57 97.0391C120.906 97.0391 119.984 95.375 119.984 92.3594C119.984 89.3828 120.922 87.6953 122.57 87.6953C124.219 87.6953 125.141 89.3672 125.141 92.3594C125.141 95.3828 124.234 97.0391 122.57 97.0391ZM133.648 98.2656C136.18 98.2656 137.633 96.125 137.633 92.3828C137.633 88.6484 136.156 86.4609 133.648 86.4609C131.125 86.4609 129.648 88.6406 129.648 92.3594C129.648 96.1094 131.109 98.2656 133.648 98.2656ZM133.648 97.0391C131.984 97.0391 131.062 95.375 131.062 92.3594C131.062 89.3828 132 87.6953 133.648 87.6953C135.297 87.6953 136.219 89.3672 136.219 92.3594C136.219 95.3828 135.312 97.0391 133.648 97.0391ZM144.727 98.2656C147.258 98.2656 148.711 96.125 148.711 92.3828C148.711 88.6484 147.234 86.4609 144.727 86.4609C142.203 86.4609 140.727 88.6406 140.727 92.3594C140.727 96.1094 142.188 98.2656 144.727 98.2656ZM144.727 97.0391C143.062 97.0391 142.141 95.375 142.141 92.3594C142.141 89.3828 143.078 87.6953 144.727 87.6953C146.375 87.6953 147.297 89.3672 147.297 92.3594C147.297 95.3828 146.391 97.0391 144.727 97.0391ZM159.117 98V93.1172H164.109V91.8672H159.117V87.9922H164.555V86.7266H157.711V98H159.117ZM172.609 86.4609C169.422 86.4609 167.43 88.7344 167.43 92.3594C167.43 95.9688 169.375 98.2656 172.609 98.2656C175.828 98.2656 177.766 95.9609 177.766 92.3594C177.766 88.7422 175.812 86.4609 172.609 86.4609ZM172.609 87.7578C174.914 87.7578 176.32 89.5391 176.32 92.3594C176.32 95.1562 174.922 96.9688 172.609 96.9688C170.266 96.9688 168.875 95.1562 168.875 92.3594C168.875 89.5391 170.312 87.7578 172.609 87.7578ZM182.617 87.9766H185.328C186.781 87.9766 187.656 88.7812 187.656 90.1328C187.656 91.5156 186.836 92.2891 185.391 92.2891H182.617V87.9766ZM182.617 93.5391H185.391L187.805 98H189.453L186.844 93.3203C188.258 92.875 189.109 91.6562 189.109 90.0859C189.109 88.0547 187.688 86.7266 185.516 86.7266H181.211V98H182.617V93.5391ZM207.18 98V86.7266H205.773V91.6016H199.586V86.7266H198.18V98H199.586V92.8672H205.773V98H207.18ZM215.797 86.4609C212.609 86.4609 210.617 88.7344 210.617 92.3594C210.617 95.9688 212.562 98.2656 215.797 98.2656C219.016 98.2656 220.953 95.9609 220.953 92.3594C220.953 88.7422 219 86.4609 215.797 86.4609ZM215.797 87.7578C218.102 87.7578 219.508 89.5391 219.508 92.3594C219.508 95.1562 218.109 96.9688 215.797 96.9688C213.453 96.9688 212.062 95.1562 212.062 92.3594C212.062 89.5391 213.5 87.7578 215.797 87.7578ZM225.711 98V89.3906H225.805L229.359 97.9219H230.547L234.102 89.3906H234.195V98H235.508V86.7266H233.875L230.016 96.0547H229.891L226.031 86.7266H224.398V98H225.711ZM246.367 96.7344H240.789V92.8594H246.078V91.6094H240.789V87.9922H246.367V86.7266H239.383V98H246.367V96.7344ZM256.836 98V86.7266H255.43V98H256.836ZM262.023 98V89.3906H262.117L265.672 97.9219H266.859L270.414 89.3906H270.508V98H271.82V86.7266H270.188L266.328 96.0547H266.203L262.344 86.7266H260.711V98H262.023ZM275.695 86.7266V98H277.102V93.9766H279.938C282.055 93.9766 283.562 92.4844 283.562 90.375C283.562 88.2266 282.086 86.7266 279.953 86.7266H275.695ZM277.102 87.9766H279.586C281.219 87.9766 282.117 88.8281 282.117 90.375C282.117 91.8672 281.188 92.7266 279.586 92.7266H277.102V87.9766ZM288.273 87.9766H290.984C292.438 87.9766 293.312 88.7812 293.312 90.1328C293.312 91.5156 292.492 92.2891 291.047 92.2891H288.273V87.9766ZM288.273 93.5391H291.047L293.461 98H295.109L292.5 93.3203C293.914 92.875 294.766 91.6562 294.766 90.0859C294.766 88.0547 293.344 86.7266 291.172 86.7266H286.867V98H288.273V93.5391ZM303.062 86.4609C299.875 86.4609 297.883 88.7344 297.883 92.3594C297.883 95.9688 299.828 98.2656 303.062 98.2656C306.281 98.2656 308.219 95.9609 308.219 92.3594C308.219 88.7422 306.266 86.4609 303.062 86.4609ZM303.062 87.7578C305.367 87.7578 306.773 89.5391 306.773 92.3594C306.773 95.1562 305.375 96.9688 303.062 96.9688C300.719 96.9688 299.328 95.1562 299.328 92.3594C299.328 89.5391 300.766 87.7578 303.062 87.7578ZM315.922 98L320.078 86.7266H318.602L315.289 96.1797H315.164L311.852 86.7266H310.375L314.531 98H315.922ZM330.039 96.7344H324.461V92.8594H329.75V91.6094H324.461V87.9922H330.039V86.7266H323.055V98H330.039V96.7344ZM334.523 98.0781C335.086 98.0781 335.539 97.6172 335.539 97.0625C335.539 96.5 335.086 96.0469 334.523 96.0469C333.969 96.0469 333.508 96.5 333.508 97.0625C333.508 97.6172 333.969 98.0781 334.523 98.0781ZM340.273 98.0781C340.836 98.0781 341.289 97.6172 341.289 97.0625C341.289 96.5 340.836 96.0469 340.273 96.0469C339.719 96.0469 339.258 96.5 339.258 97.0625C339.258 97.6172 339.719 98.0781 340.273 98.0781ZM346.023 98.0781C346.586 98.0781 347.039 97.6172 347.039 97.0625C347.039 96.5 346.586 96.0469 346.023 96.0469C345.469 96.0469 345.008 96.5 345.008 97.0625C345.008 97.6172 345.469 98.0781 346.023 98.0781Z" fill="#303030"/>
<path d="M151.473 220H152.898L159.354 207.158V205.908H150.369V207.109H158.006V207.227L151.473 220ZM161.143 220.098C161.729 220.098 162.217 219.609 162.217 219.023C162.217 218.428 161.729 217.949 161.143 217.949C160.547 217.949 160.059 218.428 160.059 219.023C160.059 219.609 160.547 220.098 161.143 220.098ZM169.709 220.293C172.57 220.293 174.592 218.32 174.592 215.527C174.592 212.803 172.668 210.859 169.963 210.859C168.586 210.859 167.414 211.367 166.74 212.246H166.613L167.082 207.109H173.713V205.908H166.027L165.266 213.779H166.535C167.131 212.695 168.361 212.021 169.748 212.021C171.779 212.021 173.254 213.496 173.254 215.566C173.254 217.637 171.779 219.111 169.719 219.111C167.941 219.111 166.506 217.939 166.359 216.357H165.051C165.197 218.652 167.15 220.293 169.709 220.293ZM184.516 220H185.814V216.816H187.924V215.615H185.814V205.889H183.9C180.434 210.762 178.695 213.467 177.436 215.596V216.816H184.516V220ZM178.832 215.537C180.346 213.018 181.742 210.83 184.428 207.168H184.516V215.625H178.832V215.537ZM201.422 219.229C200.387 219.229 199.703 218.291 199.703 216.875C199.703 215.469 200.377 214.551 201.422 214.551C202.457 214.551 203.121 215.459 203.121 216.875C203.121 218.281 202.438 219.229 201.422 219.229ZM201.422 220.205C203.131 220.205 204.322 218.838 204.322 216.875C204.322 214.922 203.131 213.564 201.422 213.564C199.703 213.564 198.502 214.932 198.502 216.875C198.502 218.838 199.703 220.205 201.422 220.205ZM193.482 212.344C195.191 212.344 196.393 210.977 196.393 209.014C196.393 207.061 195.191 205.703 193.482 205.703C191.773 205.703 190.572 207.07 190.572 209.014C190.572 210.977 191.773 212.344 193.482 212.344ZM192.975 220L197.916 213.291L203.355 205.908H201.979L196.959 212.715L191.578 220H192.975ZM193.482 211.357C192.457 211.357 191.773 210.43 191.773 209.014C191.773 207.607 192.447 206.68 193.482 206.68C194.518 206.68 195.182 207.588 195.182 209.014C195.182 210.42 194.498 211.357 193.482 211.357ZM218.838 220V213.906L223.887 205.908H222.363L218.232 212.549H218.115L213.984 205.908H212.451L217.51 213.906V220H218.838ZM226.838 220H228.117V209.482H226.838V220ZM227.473 207.139C228 207.139 228.43 206.709 228.43 206.182C228.43 205.664 228 205.234 227.473 205.234C226.955 205.234 226.525 205.664 226.525 206.182C226.525 206.709 226.955 207.139 227.473 207.139ZM236.127 210.439C238.031 210.439 239.291 211.855 239.32 214.023H232.768C232.885 211.855 234.213 210.439 236.127 210.439ZM239.193 217.402C238.744 218.438 237.67 219.033 236.176 219.033C234.145 219.033 232.826 217.51 232.758 215.137V215.078H240.658V214.512C240.658 211.299 238.939 209.307 236.137 209.307C233.275 209.307 231.439 211.445 231.439 214.746C231.439 218.066 233.256 220.176 236.146 220.176C238.354 220.176 239.975 219.111 240.492 217.402H239.193ZM244.029 220H245.309V205.293H244.029V220ZM253.143 220.176C254.754 220.176 256.111 219.307 256.736 217.9H256.854V220H258.084V205.293H256.805V211.533H256.688C256.092 210.156 254.744 209.307 253.143 209.307C250.477 209.307 248.689 211.484 248.689 214.746C248.689 218.008 250.457 220.176 253.143 220.176ZM253.416 210.459C255.477 210.459 256.824 212.158 256.824 214.736C256.824 217.334 255.486 219.014 253.416 219.014C251.336 219.014 250.008 217.354 250.008 214.736C250.008 212.129 251.336 210.459 253.416 210.459Z" fill="#292929"/>
<path d="M124.088 275H125.143V266.545H124.094L121.844 268.162V269.275L123.994 267.717H124.088V275ZM131.01 275.199C132.908 275.199 133.998 273.594 133.998 270.787C133.998 267.986 132.891 266.346 131.01 266.346C129.117 266.346 128.01 267.98 128.01 270.77C128.01 273.582 129.105 275.199 131.01 275.199ZM131.01 274.279C129.762 274.279 129.07 273.031 129.07 270.77C129.07 268.537 129.773 267.271 131.01 267.271C132.246 267.271 132.938 268.525 132.938 270.77C132.938 273.037 132.258 274.279 131.01 274.279ZM142.457 275.111C143.33 275.111 144.08 274.695 144.479 273.992H144.572V275H145.533V266.176H144.525V269.68H144.438C144.08 268.988 143.336 268.572 142.457 268.572C140.852 268.572 139.803 269.861 139.803 271.842C139.803 273.828 140.84 275.111 142.457 275.111ZM142.691 269.48C143.834 269.48 144.549 270.395 144.549 271.842C144.549 273.301 143.84 274.203 142.691 274.203C141.537 274.203 140.846 273.318 140.846 271.842C140.846 270.371 141.543 269.48 142.691 269.48ZM149.936 274.227C149.203 274.227 148.658 273.852 148.658 273.207C148.658 272.574 149.08 272.24 150.041 272.176L151.74 272.064V272.645C151.74 273.547 150.973 274.227 149.936 274.227ZM149.748 275.111C150.592 275.111 151.283 274.742 151.693 274.068H151.787V275H152.748V270.676C152.748 269.363 151.887 268.572 150.346 268.572C148.998 268.572 148.002 269.24 147.867 270.254H148.887C149.027 269.756 149.555 269.469 150.311 269.469C151.254 269.469 151.74 269.896 151.74 270.676V271.25L149.918 271.361C148.447 271.449 147.615 272.1 147.615 273.23C147.615 274.385 148.523 275.111 149.748 275.111ZM155.416 277.291C156.535 277.291 157.039 276.852 157.578 275.387L160.045 268.684H158.973L157.244 273.881H157.15L155.416 268.684H154.326L156.664 275.006L156.547 275.381C156.283 276.143 155.967 276.424 155.387 276.424C155.246 276.424 155.088 276.418 154.965 276.395V277.256C155.105 277.279 155.281 277.291 155.416 277.291ZM161.57 270.412C161.57 271.326 162.109 271.836 163.293 272.123L164.377 272.387C165.051 272.551 165.379 272.844 165.379 273.277C165.379 273.857 164.77 274.262 163.92 274.262C163.111 274.262 162.607 273.922 162.438 273.389H161.4C161.512 274.438 162.479 275.111 163.885 275.111C165.32 275.111 166.416 274.332 166.416 273.201C166.416 272.293 165.842 271.777 164.652 271.49L163.68 271.256C162.936 271.074 162.584 270.805 162.584 270.371C162.584 269.809 163.17 269.428 163.92 269.428C164.682 269.428 165.174 269.762 165.309 270.266H166.305C166.17 269.229 165.25 268.572 163.926 268.572C162.584 268.572 161.57 269.363 161.57 270.412ZM172.443 275H173.451V266.176H172.443V275ZM178.428 269.463C179.43 269.463 180.098 270.201 180.121 271.32H176.641C176.717 270.201 177.42 269.463 178.428 269.463ZM180.092 273.365C179.828 273.922 179.277 274.221 178.463 274.221C177.391 274.221 176.693 273.43 176.641 272.182V272.135H181.182V271.748C181.182 269.785 180.145 268.572 178.439 268.572C176.705 268.572 175.592 269.861 175.592 271.848C175.592 273.846 176.688 275.111 178.439 275.111C179.822 275.111 180.795 274.449 181.1 273.365H180.092ZM183.686 275H184.693V269.527H186.141V268.684H184.693V268.098C184.693 267.389 185.033 267.084 185.637 267.084C185.836 267.084 186.064 267.107 186.199 267.137V266.293C185.953 266.252 185.777 266.234 185.578 266.234C184.359 266.234 183.686 266.773 183.686 268.068V268.684H182.625V269.527H183.686V275ZM188.533 267.107V268.684H187.473V269.527H188.533V273.359C188.533 274.566 189.055 275.047 190.355 275.047C190.555 275.047 190.736 275.023 190.936 274.988V274.139C190.748 274.156 190.66 274.162 190.479 274.162C189.822 274.162 189.541 273.846 189.541 273.102V269.527H191.006V268.684H189.541V267.107H188.533ZM197.279 267.107V268.684H196.219V269.527H197.279V273.359C197.279 274.566 197.801 275.047 199.102 275.047C199.301 275.047 199.482 275.023 199.682 274.988V274.139C199.494 274.156 199.406 274.162 199.225 274.162C198.568 274.162 198.287 273.846 198.287 273.102V269.527H199.752V268.684H198.287V267.107H197.279ZM204.219 274.203C203.023 274.203 202.35 273.336 202.35 271.842C202.35 270.342 203.023 269.48 204.219 269.48C205.414 269.48 206.088 270.342 206.088 271.842C206.088 273.336 205.414 274.203 204.219 274.203ZM204.219 275.111C206.018 275.111 207.131 273.869 207.131 271.842C207.131 269.809 206.018 268.572 204.219 268.572C202.42 268.572 201.307 269.809 201.307 271.842C201.307 273.869 202.42 275.111 204.219 275.111ZM213.521 275H214.529V269.527H215.977V268.684H214.529V268.098C214.529 267.389 214.869 267.084 215.473 267.084C215.672 267.084 215.9 267.107 216.035 267.137V266.293C215.789 266.252 215.613 266.234 215.414 266.234C214.195 266.234 213.521 266.773 213.521 268.068V268.684H212.461V269.527H213.521V275ZM223.174 268.684H222.166V272.422C222.166 273.529 221.498 274.191 220.385 274.191C219.377 274.191 218.896 273.664 218.896 272.527V268.684H217.889V272.773C217.889 274.268 218.686 275.111 220.104 275.111C221.07 275.111 221.803 274.713 222.119 274.01H222.213V275H223.174V268.684ZM225.572 275H226.58V271.262C226.58 270.154 227.248 269.48 228.355 269.48C229.363 269.48 229.844 270.02 229.844 271.156V275H230.852V270.91C230.852 269.41 230.061 268.572 228.643 268.572C227.676 268.572 226.943 268.982 226.627 269.68H226.533V268.684H225.572V275ZM235.535 275.111C236.408 275.111 237.158 274.695 237.557 273.992H237.65V275H238.611V266.176H237.604V269.68H237.516C237.158 268.988 236.414 268.572 235.535 268.572C233.93 268.572 232.881 269.861 232.881 271.842C232.881 273.828 233.918 275.111 235.535 275.111ZM235.77 269.48C236.912 269.48 237.627 270.395 237.627 271.842C237.627 273.301 236.918 274.203 235.77 274.203C234.615 274.203 233.924 273.318 233.924 271.842C233.924 270.371 234.621 269.48 235.77 269.48ZM248.295 275.803V275.012C249.947 274.877 250.908 273.998 250.908 272.609C250.908 271.438 250.246 270.723 248.799 270.336L248.295 270.213V267.348C249.156 267.453 249.736 268.004 249.76 268.736H250.756C250.715 267.465 249.748 266.562 248.295 266.439V265.625H247.51V266.445C246.016 266.592 245.09 267.471 245.09 268.748C245.09 269.826 245.781 270.6 247.041 270.934L247.51 271.062V274.109C246.549 273.992 245.951 273.471 245.887 272.686H244.885C244.891 273.98 245.922 274.9 247.51 275.018V275.803H248.295ZM249.895 272.691C249.895 273.553 249.314 274.074 248.295 274.127V271.221C249.396 271.455 249.895 271.912 249.895 272.691ZM246.098 268.689C246.098 267.957 246.689 267.395 247.51 267.348V270.043C246.584 269.85 246.098 269.381 246.098 268.689ZM253.178 268.924V268.93H254.197V268.924C254.197 267.928 254.865 267.266 255.855 267.266C256.787 267.266 257.508 267.916 257.508 268.76C257.508 269.439 257.244 269.896 256.154 271.08L253.23 274.273V275H258.703V274.051H254.742V273.957L256.775 271.771C258.164 270.283 258.562 269.598 258.562 268.719C258.562 267.377 257.402 266.346 255.885 266.346C254.314 266.346 253.178 267.424 253.178 268.924ZM261.564 277.15L262.432 273.816H261.248L260.686 277.15H261.564ZM267.42 275.199C269.318 275.199 270.408 273.594 270.408 270.787C270.408 267.986 269.301 266.346 267.42 266.346C265.527 266.346 264.42 267.98 264.42 270.77C264.42 273.582 265.516 275.199 267.42 275.199ZM267.42 274.279C266.172 274.279 265.48 273.031 265.48 270.77C265.48 268.537 266.184 267.271 267.42 267.271C268.656 267.271 269.348 268.525 269.348 270.77C269.348 273.037 268.668 274.279 267.42 274.279ZM272.584 268.924V268.93H273.604V268.924C273.604 267.928 274.271 267.266 275.262 267.266C276.193 267.266 276.914 267.916 276.914 268.76C276.914 269.439 276.65 269.896 275.561 271.08L272.637 274.273V275H278.109V274.051H274.148V273.957L276.182 271.771C277.57 270.283 277.969 269.598 277.969 268.719C277.969 267.377 276.809 266.346 275.291 266.346C273.721 266.346 272.584 267.424 272.584 268.924ZM283.18 275.199C284.932 275.199 286.133 274.027 286.133 272.311C286.133 270.646 285.008 269.48 283.402 269.48C282.623 269.48 282.025 269.721 281.615 270.201H281.521L281.762 267.488H285.652V266.545H280.936L280.473 271.338H281.463C281.809 270.734 282.441 270.389 283.209 270.389C284.316 270.389 285.078 271.18 285.078 272.34C285.078 273.5 284.322 274.273 283.191 274.273C282.195 274.273 281.469 273.664 281.375 272.75H280.338C280.432 274.209 281.58 275.199 283.18 275.199Z" fill="#BDBDBD"/>
<rect x="84" y="249" width="240" height="2" rx="1" fill="#E6E6E6"/>
<rect x="84" y="249" width="178.182" height="2" rx="1" fill="#057EC1"/>
<circle cx="203" cy="161" r="28" fill="#D6F5FD"/>
<path d="M200.736 166H202.028L198.392 156.136H197.175L193.538 166H194.83L195.821 163.177H199.745L200.736 166ZM197.729 157.729H197.838L199.383 162.131H196.184L197.729 157.729ZM211.17 166H212.462L208.825 156.136H207.608L203.972 166H205.264L206.255 163.177H210.179L211.17 166ZM208.162 157.729H208.271L209.816 162.131H206.617L208.162 157.729Z" fill="#04679E"/>
<path opacity="0.9" d="M85.2807 334.455H80.7553V326.136H78.9916V336H85.2807V334.455ZM90.3447 336V326.136H88.5811V336H90.3447ZM93.7271 333.32C93.816 335.111 95.3131 336.246 97.5758 336.246C99.9684 336.246 101.452 335.05 101.452 333.129C101.452 331.625 100.611 330.791 98.608 330.34L97.4732 330.08C96.2496 329.8 95.7506 329.41 95.7506 328.747C95.7506 327.906 96.5025 327.359 97.6373 327.359C98.7174 327.359 99.483 327.906 99.6061 328.774H101.295C101.213 327.079 99.7154 325.89 97.6441 325.89C95.4361 325.89 93.9732 327.079 93.9732 328.87C93.9732 330.34 94.8141 331.229 96.6051 331.632L97.8834 331.926C99.148 332.22 99.6881 332.637 99.6881 333.348C99.6881 334.175 98.8473 334.77 97.6852 334.77C96.4342 334.77 95.5592 334.202 95.4498 333.32H93.7271ZM109.052 336V327.66H112.094V326.136H104.253V327.66H107.288V336H109.052ZM117.103 336V326.136H115.34V336H117.103ZM122.639 336V329.287H122.755L127.595 336H129.12V326.136H127.424V332.842H127.308L122.468 326.136H120.937V336H122.639ZM141.491 332.049V330.812H137.396V332.192H139.769L139.762 332.397C139.734 333.758 138.709 334.674 137.205 334.674C135.448 334.674 134.348 333.293 134.348 331.051C134.348 328.836 135.428 327.462 137.15 327.462C138.415 327.462 139.297 328.084 139.652 329.205H141.409C141.095 327.188 139.427 325.89 137.15 325.89C134.341 325.89 132.543 327.906 132.543 331.064C132.543 334.264 134.32 336.246 137.178 336.246C139.81 336.246 141.491 334.612 141.491 332.049Z" fill="#303030"/>
<path opacity="0.9" d="M257.048 336C259.154 336 260.439 334.927 260.439 333.197C260.439 331.912 259.523 330.955 258.197 330.832V330.709C259.188 330.552 259.954 329.636 259.954 328.597C259.954 327.079 258.826 326.136 256.953 326.136H252.831V336H257.048ZM254.594 327.537H256.522C257.588 327.537 258.211 328.043 258.211 328.911C258.211 329.8 257.547 330.285 256.296 330.285H254.594V327.537ZM254.594 334.599V331.557H256.577C257.923 331.557 258.634 332.076 258.634 333.061C258.634 334.065 257.944 334.599 256.645 334.599H254.594ZM268.019 325.89C265.154 325.89 263.343 327.879 263.343 331.064C263.343 334.25 265.12 336.246 268.019 336.246C270.897 336.246 272.674 334.243 272.674 331.064C272.674 327.879 270.883 325.89 268.019 325.89ZM268.019 327.455C269.769 327.455 270.869 328.856 270.869 331.064C270.869 333.266 269.776 334.681 268.019 334.681C266.235 334.681 265.148 333.266 265.148 331.064C265.148 328.856 266.262 327.455 268.019 327.455ZM277.861 327.599H279.857C280.978 327.599 281.662 328.228 281.662 329.253C281.662 330.299 281.019 330.9 279.898 330.9H277.861V327.599ZM277.861 332.302H279.816L281.751 336H283.767L281.614 332.028C282.79 331.604 283.473 330.518 283.473 329.219C283.473 327.325 282.175 326.136 280.103 326.136H276.097V336H277.861V332.302ZM288.777 327.599H290.773C291.894 327.599 292.578 328.228 292.578 329.253C292.578 330.299 291.935 330.9 290.814 330.9H288.777V327.599ZM288.777 332.302H290.732L292.666 336H294.683L292.53 332.028C293.705 331.604 294.389 330.518 294.389 329.219C294.389 327.325 293.09 326.136 291.019 326.136H287.013V336H288.777V332.302ZM302.188 325.89C299.323 325.89 297.512 327.879 297.512 331.064C297.512 334.25 299.289 336.246 302.188 336.246C305.065 336.246 306.843 334.243 306.843 331.064C306.843 327.879 305.052 325.89 302.188 325.89ZM302.188 327.455C303.938 327.455 305.038 328.856 305.038 331.064C305.038 333.266 303.944 334.681 302.188 334.681C300.403 334.681 299.316 333.266 299.316 331.064C299.316 328.856 300.431 327.455 302.188 327.455ZM315.585 329.014H315.687L317.697 336H319.351L321.997 326.136H320.171L318.483 333.478H318.387L316.419 326.136H314.853L312.912 333.478H312.809L311.121 326.136H309.282L311.927 336H313.588L315.585 329.014ZM331.6 334.476H326.979V331.714H331.347V330.278H326.979V327.66H331.6V326.136H325.215V336H331.6V334.476ZM336.951 327.599H338.947C340.068 327.599 340.752 328.228 340.752 329.253C340.752 330.299 340.109 330.9 338.988 330.9H336.951V327.599ZM336.951 332.302H338.906L340.841 336H342.857L340.704 332.028C341.88 331.604 342.563 330.518 342.563 329.219C342.563 327.325 341.264 326.136 339.193 326.136H335.187V336H336.951V332.302Z" fill="#BDBDBD"/>
<rect x="17" y="346" width="375" height="1" fill="#D8D8D8"/>
<rect x="17" y="346" width="187.5" height="1" fill="#303030"/>
</g>
</g>
<path d="M93 31H314V56C314 67.0457 305.046 76 294 76H113C101.954 76 93 67.0457 93 56V31Z" fill="url(#paint0_linear)"/>
<path fill-rule="evenodd" clip-rule="evenodd" d="M246 57C249.314 57 252 54.3137 252 51C252 47.6863 249.314 45 246 45C242.686 45 240 47.6863 240 51C240 54.3137 242.686 57 246 57ZM159.5 47C157.015 47 155 49.0147 155 51.5C155 53.9853 157.015 56 159.5 56H221.5C223.985 56 226 53.9853 226 51.5C226 49.0147 223.985 47 221.5 47H159.5Z" fill="#2F2929"/>
<defs>
<filter id="filter0_ii" x="-10" y="21" width="427" height="874" filterUnits="userSpaceOnUse" color-interpolation-filters="sRGB">
<feFlood flood-opacity="0" result="BackgroundImageFix"/>
<feBlend mode="normal" in="SourceGraphic" in2="BackgroundImageFix" result="shape"/>
<feColorMatrix in="SourceAlpha" type="matrix" values="0 0 0 0 0 0 0 0 0 0 0 0 0 0 0 0 0 0 127 0" result="hardAlpha"/>
<feOffset dx="-10" dy="-10"/>
<feGaussianBlur stdDeviation="5"/>
<feComposite in2="hardAlpha" operator="arithmetic" k2="-1" k3="1"/>
<feColorMatrix type="matrix" values="0 0 0 0 0 0 0 0 0 0 0 0 0 0 0 0 0 0 0.2 0"/>
<feBlend mode="normal" in2="shape" result="effect1_innerShadow"/>
<feColorMatrix in="SourceAlpha" type="matrix" values="0 0 0 0 0 0 0 0 0 0 0 0 0 0 0 0 0 0 127 0" result="hardAlpha"/>
<feOffset dx="10" dy="10"/>
<feGaussianBlur stdDeviation="5"/>
<feComposite in2="hardAlpha" operator="arithmetic" k2="-1" k3="1"/>
<feColorMatrix type="matrix" values="0 0 0 0 1 0 0 0 0 1 0 0 0 0 1 0 0 0 0.2 0"/>
<feBlend mode="normal" in2="effect1_innerShadow" result="effect2_innerShadow"/>
</filter>
<linearGradient id="paint0_linear" x1="203.5" y1="31" x2="203.5" y2="76" gradientUnits="userSpaceOnUse">
<stop stop-color="#504E4E"/>
<stop offset="1" stop-color="#242222"/>
</linearGradient>
<clipPath id="clip0">
<path d="M16 95C16 67.3858 38.3858 45 66 45H341C368.614 45 391 67.3858 391 95V821C391 848.614 368.614 871 341 871H66C38.3858 871 16 848.614 16 821V95Z" fill="white"/>
</clipPath>
<clipPath id="clip1">
<rect x="16" y="45" width="375" height="1331" rx="50" fill="white"/>
</clipPath>
</defs>
</svg>
