<svg width="407" height="876" viewBox="0 0 407 876" fill="none" xmlns="http://www.w3.org/2000/svg">
<g filter="url(#filter0_ii)">
<rect width="407" height="854" rx="60" fill="#333232"/>
</g>
<g clip-path="url(#clip0)">
<path d="M16 64C16 36.3858 38.3858 14 66 14H341C368.614 14 391 36.3858 391 64V790C391 817.614 368.614 840 341 840H66C38.3858 840 16 817.614 16 790V64Z" fill="white"/>
<g clip-path="url(#clip1)">
<rect x="16" y="14" width="375" height="1331" rx="50" fill="white"/>
<path fill-rule="evenodd" clip-rule="evenodd" d="M83 445H323V445.501H83V445Z" fill="#DEDEDE"/>
<path opacity="0.9" d="M108.401 352.136V362H109.632V358.479H112.113C113.966 358.479 115.285 357.174 115.285 355.328C115.285 353.448 113.993 352.136 112.127 352.136H108.401ZM109.632 353.229H111.806C113.234 353.229 114.021 353.975 114.021 355.328C114.021 356.634 113.207 357.386 111.806 357.386H109.632V353.229ZM120.332 353.229H122.704C123.976 353.229 124.741 353.934 124.741 355.116C124.741 356.326 124.024 357.003 122.759 357.003H120.332V353.229ZM120.332 358.097H122.759L124.871 362H126.314L124.03 357.905C125.268 357.516 126.013 356.449 126.013 355.075C126.013 353.298 124.769 352.136 122.868 352.136H119.102V362H120.332V358.097ZM134.198 351.903C131.409 351.903 129.665 353.893 129.665 357.064C129.665 360.223 131.368 362.232 134.198 362.232C137.014 362.232 138.709 360.216 138.709 357.064C138.709 353.899 137 351.903 134.198 351.903ZM134.198 353.038C136.214 353.038 137.445 354.597 137.445 357.064C137.445 359.512 136.221 361.098 134.198 361.098C132.147 361.098 130.93 359.512 130.93 357.064C130.93 354.597 132.188 353.038 134.198 353.038ZM142.177 359.423C142.307 361.125 143.75 362.232 145.841 362.232C148.097 362.232 149.526 361.077 149.526 359.266C149.526 357.816 148.706 357.023 146.662 356.511L145.629 356.237C144.269 355.889 143.729 355.444 143.729 354.672C143.729 353.674 144.597 353.018 145.91 353.018C147.14 353.018 147.974 353.619 148.145 354.631H149.382C149.28 353.038 147.858 351.903 145.951 351.903C143.866 351.903 142.464 353.038 142.464 354.713C142.464 356.114 143.237 356.921 145.021 357.372L146.286 357.7C147.646 358.042 148.261 358.575 148.261 359.416C148.261 360.394 147.284 361.111 145.958 361.111C144.556 361.111 143.572 360.455 143.421 359.423H142.177ZM153.377 352.136V362H154.607V358.479H157.089C158.941 358.479 160.261 357.174 160.261 355.328C160.261 353.448 158.969 352.136 157.102 352.136H153.377ZM154.607 353.229H156.781C158.21 353.229 158.996 353.975 158.996 355.328C158.996 356.634 158.182 357.386 156.781 357.386H154.607V353.229ZM170.188 360.893H165.308V357.502H169.936V356.408H165.308V353.243H170.188V352.136H164.077V362H170.188V360.893ZM175.447 353.229H177.82C179.091 353.229 179.857 353.934 179.857 355.116C179.857 356.326 179.139 357.003 177.874 357.003H175.447V353.229ZM175.447 358.097H177.874L179.987 362H181.429L179.146 357.905C180.383 357.516 181.128 356.449 181.128 355.075C181.128 353.298 179.884 352.136 177.984 352.136H174.217V362H175.447V358.097ZM190.443 359.423C190.573 361.125 192.015 362.232 194.107 362.232C196.363 362.232 197.792 361.077 197.792 359.266C197.792 357.816 196.971 357.023 194.927 356.511L193.895 356.237C192.535 355.889 191.995 355.444 191.995 354.672C191.995 353.674 192.863 353.018 194.175 353.018C195.406 353.018 196.24 353.619 196.411 354.631H197.648C197.546 353.038 196.124 351.903 194.216 351.903C192.131 351.903 190.73 353.038 190.73 354.713C190.73 356.114 191.503 356.921 193.287 357.372L194.551 357.7C195.912 358.042 196.527 358.575 196.527 359.416C196.527 360.394 195.549 361.111 194.223 361.111C192.822 361.111 191.838 360.455 191.687 359.423H190.443ZM205.614 362.232C207.713 362.232 209.271 361.063 209.599 359.252H208.348C208.034 360.394 206.988 361.098 205.614 361.098C203.714 361.098 202.524 359.546 202.524 357.071C202.524 354.597 203.714 353.038 205.607 353.038C206.968 353.038 208.02 353.838 208.348 355.109H209.599C209.305 353.209 207.685 351.903 205.607 351.903C202.928 351.903 201.26 353.886 201.26 357.071C201.26 360.25 202.934 362.232 205.614 362.232ZM217.613 351.903C214.824 351.903 213.081 353.893 213.081 357.064C213.081 360.223 214.783 362.232 217.613 362.232C220.43 362.232 222.125 360.216 222.125 357.064C222.125 353.899 220.416 351.903 217.613 351.903ZM217.613 353.038C219.63 353.038 220.86 354.597 220.86 357.064C220.86 359.512 219.637 361.098 217.613 361.098C215.562 361.098 214.346 359.512 214.346 357.064C214.346 354.597 215.604 353.038 217.613 353.038ZM227.295 353.229H229.667C230.939 353.229 231.704 353.934 231.704 355.116C231.704 356.326 230.987 357.003 229.722 357.003H227.295V353.229ZM227.295 358.097H229.722L231.834 362H233.277L230.993 357.905C232.231 357.516 232.976 356.449 232.976 355.075C232.976 353.298 231.732 352.136 229.831 352.136H226.065V362H227.295V358.097ZM243.122 360.893H238.242V357.502H242.87V356.408H238.242V353.243H243.122V352.136H237.011V362H243.122V360.893ZM255.753 363.894C254.591 361.856 254.078 360.031 254.078 357.898C254.078 355.69 254.782 353.305 255.773 352.143H254.782C253.435 353.865 252.868 355.561 252.868 357.898C252.868 360.243 253.538 362.424 254.714 363.894H255.753ZM261.88 362H263.11V352.136H261.887L259.262 354.022V355.321L261.771 353.503H261.88V362ZM272.3 358.589V357.475H267.816V358.589H272.3ZM278.619 362H279.849V352.136H278.625L276 354.022V355.321L278.509 353.503H278.619V362ZM286.954 362H288.184V352.136H286.961L284.336 354.022V355.321L286.844 353.503H286.954V362ZM292.691 363.894H293.737C294.913 362.41 295.583 360.229 295.583 357.898C295.583 355.561 295.022 353.865 293.676 352.143H292.678C293.669 353.298 294.366 355.677 294.366 357.898C294.366 360.031 293.853 361.856 292.691 363.894Z" fill="#454545"/>
<path opacity="0.9" d="M206.438 404H208.516V398.906H211.891V396.984H208.516V381.422H205.453C199.906 389.219 197.125 393.547 195.109 396.953V398.906H206.438V404ZM197.344 396.859C199.766 392.828 202 389.328 206.297 383.469H206.438V397H197.344V396.859Z" fill="#303030"/>
<path fill-rule="evenodd" clip-rule="evenodd" d="M83 582H323V582.501H83V582Z" fill="#DEDEDE"/>
<path opacity="0.9" d="M142.955 499V490.243H146.134V489.136H138.546V490.243H141.725V499H142.955ZM151.099 489.136H149.869V495.609C149.869 497.715 151.338 499.232 153.786 499.232C156.233 499.232 157.703 497.715 157.703 495.609V489.136H156.472V495.527C156.472 497.018 155.495 498.098 153.786 498.098C152.077 498.098 151.099 497.018 151.099 495.527V489.136ZM169.034 499V494.728H173.402V493.634H169.034V490.243H173.792V489.136H167.804V499H169.034ZM178.846 499V489.136H177.615V499H178.846ZM187.133 499.232C189.232 499.232 190.79 498.063 191.118 496.252H189.867C189.553 497.394 188.507 498.098 187.133 498.098C185.233 498.098 184.043 496.546 184.043 494.071C184.043 491.597 185.233 490.038 187.126 490.038C188.487 490.038 189.539 490.838 189.867 492.109H191.118C190.824 490.209 189.204 488.903 187.126 488.903C184.446 488.903 182.779 490.886 182.779 494.071C182.779 497.25 184.453 499.232 187.133 499.232ZM199.132 488.903C196.343 488.903 194.6 490.893 194.6 494.064C194.6 497.223 196.302 499.232 199.132 499.232C201.949 499.232 203.644 497.216 203.644 494.064C203.644 490.899 201.935 488.903 199.132 488.903ZM199.132 490.038C201.149 490.038 202.379 491.597 202.379 494.064C202.379 496.512 201.156 498.098 199.132 498.098C197.081 498.098 195.865 496.512 195.865 494.064C195.865 491.597 197.122 490.038 199.132 490.038ZM214.565 490.229H216.937C218.209 490.229 218.974 490.934 218.974 492.116C218.974 493.326 218.257 494.003 216.992 494.003H214.565V490.229ZM214.565 495.097H216.992L219.104 499H220.547L218.263 494.905C219.501 494.516 220.246 493.449 220.246 492.075C220.246 490.298 219.002 489.136 217.101 489.136H213.335V499H214.565V495.097ZM230.693 499H231.985L228.349 489.136H227.132L223.495 499H224.787L225.778 496.177H229.702L230.693 499ZM227.686 490.729H227.795L229.34 495.131H226.141L227.686 490.729ZM236.732 499V491.351H236.841L242.194 499H243.39V489.136H242.173V496.812H242.064L236.711 489.136H235.515V499H236.732ZM255.984 495.186V493.982H251.985V495.062H254.76V495.302C254.76 496.97 253.564 498.098 251.8 498.098C249.818 498.098 248.587 496.553 248.587 494.064C248.587 491.61 249.838 490.038 251.793 490.038C253.256 490.038 254.247 490.742 254.671 492.075H255.922C255.567 490.12 253.981 488.903 251.793 488.903C249.093 488.903 247.323 490.947 247.323 494.064C247.323 497.223 249.066 499.232 251.793 499.232C254.316 499.232 255.984 497.619 255.984 495.186ZM266.076 497.893H261.195V494.502H265.823V493.408H261.195V490.243H266.076V489.136H259.964V499H266.076V497.893Z" fill="#454545"/>
<path opacity="0.9" d="M137.078 541H139.359L149.688 520.453V518.453H135.312V520.375H147.531V520.562L137.078 541ZM164.016 541H166.094V535.906H169.469V533.984H166.094V518.422H163.031C157.484 526.219 154.703 530.547 152.688 533.953V535.906H164.016V541ZM154.922 533.859C157.344 529.828 159.578 526.328 163.875 520.469H164.016V534H154.922V533.859ZM182.859 541.469C187.844 541.469 190.781 537.125 190.781 529.75C190.781 522.391 187.812 517.984 182.859 517.984C177.875 517.984 174.891 522.375 174.891 529.719C174.891 537.109 177.844 541.469 182.859 541.469ZM182.859 539.594C179.188 539.594 177.047 535.969 177.047 529.719C177.047 523.531 179.203 519.875 182.859 519.875C186.5 519.875 188.641 523.5 188.641 529.719C188.641 535.969 186.516 539.594 182.859 539.594ZM207.094 532.875V530.938H196.844V532.875H207.094ZM214.797 541H217.078L227.406 520.453V518.453H213.031V520.375H225.25V520.562L214.797 541ZM240.188 541.469C244.766 541.469 248 538.312 248 533.844C248 529.484 244.922 526.375 240.594 526.375C238.391 526.375 236.516 527.188 235.438 528.594H235.234L235.984 520.375H246.594V518.453H234.297L233.078 531.047H235.109C236.062 529.312 238.031 528.234 240.25 528.234C243.5 528.234 245.859 530.594 245.859 533.906C245.859 537.219 243.5 539.578 240.203 539.578C237.359 539.578 235.062 537.703 234.828 535.172H232.734C232.969 538.844 236.094 541.469 240.188 541.469ZM261.062 541.453C266.453 541.453 269.578 536.891 269.578 529.25C269.578 526.375 269.078 524.062 268.078 522.312C266.672 519.516 264.266 517.984 261.219 517.984C256.703 517.984 253.453 521.266 253.453 525.75C253.453 530.047 256.578 533.219 260.891 533.219C263.844 533.219 266.344 531.562 267.312 529.078C267.328 529.078 267.359 529.078 267.359 529.078C267.375 529.078 267.406 529.078 267.406 529.078C267.422 529.234 267.516 529.438 267.5 529.594C267.344 535.906 265.078 539.547 261.094 539.547C258.5 539.547 256.594 538 256.047 535.703H253.859C254.5 539.188 257.266 541.453 261.062 541.453ZM261.234 531.359C257.922 531.359 255.609 528.953 255.609 525.688C255.609 522.391 258.031 519.875 261.25 519.875C264.484 519.875 266.938 522.469 266.938 525.812C266.938 528.922 264.469 531.359 261.234 531.359Z" fill="#303030"/>
<path opacity="0.9" d="M153.468 791.903C150.679 791.903 148.936 793.893 148.936 797.064C148.936 800.223 150.638 802.232 153.468 802.232C156.284 802.232 157.979 800.216 157.979 797.064C157.979 793.899 156.271 791.903 153.468 791.903ZM153.468 793.038C155.484 793.038 156.715 794.597 156.715 797.064C156.715 799.512 155.491 801.098 153.468 801.098C151.417 801.098 150.2 799.512 150.2 797.064C150.2 794.597 151.458 793.038 153.468 793.038ZM165.891 802.232C167.989 802.232 169.548 801.063 169.876 799.252H168.625C168.311 800.394 167.265 801.098 165.891 801.098C163.99 801.098 162.801 799.546 162.801 797.071C162.801 794.597 163.99 793.038 165.884 793.038C167.244 793.038 168.297 793.838 168.625 795.109H169.876C169.582 793.209 167.962 791.903 165.884 791.903C163.204 791.903 161.536 793.886 161.536 797.071C161.536 800.25 163.211 802.232 165.891 802.232ZM177.712 802.232C179.811 802.232 181.37 801.063 181.698 799.252H180.447C180.132 800.394 179.086 801.098 177.712 801.098C175.812 801.098 174.622 799.546 174.622 797.071C174.622 794.597 175.812 793.038 177.705 793.038C179.066 793.038 180.119 793.838 180.447 795.109H181.698C181.404 793.209 179.784 791.903 177.705 791.903C175.026 791.903 173.358 793.886 173.358 797.071C173.358 800.25 175.033 802.232 177.712 802.232ZM186.827 792.136H185.596V798.609C185.596 800.715 187.066 802.232 189.513 802.232C191.961 802.232 193.43 800.715 193.43 798.609V792.136H192.2V798.527C192.2 800.018 191.222 801.098 189.513 801.098C187.804 801.098 186.827 800.018 186.827 798.527V792.136ZM197.78 792.136V802H199.011V798.479H201.492C203.345 798.479 204.664 797.174 204.664 795.328C204.664 793.448 203.372 792.136 201.506 792.136H197.78ZM199.011 793.229H201.184C202.613 793.229 203.399 793.975 203.399 795.328C203.399 796.634 202.586 797.386 201.184 797.386H199.011V793.229ZM214.277 802H215.569L211.933 792.136H210.716L207.079 802H208.371L209.362 799.177H213.286L214.277 802ZM211.27 793.729H211.379L212.924 798.131H209.725L211.27 793.729ZM221.731 802V793.243H224.909V792.136H217.321V793.243H220.5V802H221.731ZM229.84 802V792.136H228.61V802H229.84ZM238.305 791.903C235.516 791.903 233.773 793.893 233.773 797.064C233.773 800.223 235.475 802.232 238.305 802.232C241.122 802.232 242.817 800.216 242.817 797.064C242.817 793.899 241.108 791.903 238.305 791.903ZM238.305 793.038C240.322 793.038 241.552 794.597 241.552 797.064C241.552 799.512 240.329 801.098 238.305 801.098C236.254 801.098 235.038 799.512 235.038 797.064C235.038 794.597 236.296 793.038 238.305 793.038ZM247.973 802V794.351H248.083L253.435 802H254.632V792.136H253.415V799.812H253.305L247.953 792.136H246.757V802H247.973Z" fill="#454545"/>
<path opacity="0.9" d="M161.078 844H163.328L154.906 821.453H152.781L144.344 844H146.609L149.109 837.094H158.578L161.078 844ZM153.734 824.25H153.938L157.938 835.25H149.75L153.734 824.25ZM168.641 844H170.688V834C170.688 830.828 172.75 828.734 175.906 828.734C178.828 828.734 180.297 830.375 180.297 833.578V844H182.344V833.062C182.344 829.141 180.188 826.891 176.438 826.891C173.766 826.891 171.688 828.125 170.797 830.203H170.594V827.172H168.641V844ZM194.016 842.469C191.75 842.469 190.109 841.25 190.109 839.312C190.109 837.391 191.484 836.328 194.344 836.125L199.328 835.766V837.734C199.328 840.406 197.031 842.469 194.016 842.469ZM193.672 844.281C196.141 844.281 198.203 843.109 199.234 841.109H199.422V844H201.391V832.453C201.391 828.953 199.156 826.891 195.203 826.891C191.672 826.891 189.062 828.656 188.672 831.328H190.75C191.156 829.703 192.828 828.719 195.141 828.719C197.875 828.719 199.328 830.062 199.328 832.469V834.094L194.062 834.438C190.172 834.703 188 836.406 188 839.344C188 842.359 190.375 844.281 193.672 844.281ZM208.234 844H210.281V820.469H208.234V844ZM218.453 849.859C221.234 849.859 222.391 848.766 223.859 844.812L230.406 827.172H228.219L223.141 841.766H222.953L217.859 827.172H215.641L221.953 844.109L221.609 845.156C220.828 847.281 220 848.078 218.422 848.078C218.156 848.078 217.719 848.062 217.5 848.031V849.797C217.75 849.844 218.203 849.859 218.453 849.859ZM234.844 831.625C234.844 834 236.312 835.281 239.438 836.031L241.984 836.641C244.234 837.172 245.281 838.031 245.281 839.5C245.281 841.266 243.422 842.531 240.953 842.531C238.516 842.531 236.906 841.469 236.453 839.781H234.328C234.672 842.547 237.219 844.281 240.891 844.281C244.562 844.281 247.391 842.25 247.391 839.344C247.391 836.906 245.812 835.594 242.562 834.812L240.25 834.266C238 833.734 236.906 832.938 236.906 831.547C236.906 829.859 238.703 828.641 240.906 828.641C243.141 828.641 244.703 829.672 245.078 831.25H247.094C246.719 828.578 244.312 826.891 240.922 826.891C237.531 826.891 234.844 828.922 234.844 831.625ZM254.203 822.859V827.172H251.484V828.906H254.203V839.812C254.203 842.875 255.484 844.094 258.703 844.094C259.062 844.094 259.812 844.047 260.172 843.984V842.234C259.828 842.266 259.25 842.281 258.922 842.281C257.031 842.281 256.25 841.406 256.25 839.344V828.906H260.25V827.172H256.25V822.859H254.203Z" fill="#303030"/>
<path fill-rule="evenodd" clip-rule="evenodd" d="M83 749H323V749.501H83V749Z" fill="#DEDEDE"/>
<path opacity="0.9" d="M118.718 634.893H113.837V631.502H118.465V630.408H113.837V627.243H118.718V626.136H112.606V636H118.718V634.893ZM123.895 636V628.467H123.977L127.087 635.932H128.126L131.236 628.467H131.318V636H132.467V626.136H131.038L127.661 634.298H127.552L124.175 626.136H122.746V636H123.895ZM136.782 626.136V636H138.013V632.479H140.494C142.347 632.479 143.666 631.174 143.666 629.328C143.666 627.448 142.374 626.136 140.508 626.136H136.782ZM138.013 627.229H140.187C141.615 627.229 142.402 627.975 142.402 629.328C142.402 630.634 141.588 631.386 140.187 631.386H138.013V627.229ZM153.471 634.893H148.713V626.136H147.483V636H153.471V634.893ZM160.979 625.903C158.19 625.903 156.447 627.893 156.447 631.064C156.447 634.223 158.149 636.232 160.979 636.232C163.796 636.232 165.491 634.216 165.491 631.064C165.491 627.899 163.782 625.903 160.979 625.903ZM160.979 627.038C162.996 627.038 164.226 628.597 164.226 631.064C164.226 633.512 163.003 635.098 160.979 635.098C158.928 635.098 157.712 633.512 157.712 631.064C157.712 628.597 158.969 627.038 160.979 627.038ZM172.903 636V631.755L176.403 626.136H175.002L172.343 630.518H172.233L169.574 626.136H168.173L171.673 631.755V636H172.903ZM181.088 636V628.467H181.17L184.28 635.932H185.319L188.43 628.467H188.512V636H189.66V626.136H188.231L184.854 634.298H184.745L181.368 626.136H179.939V636H181.088ZM200.087 634.893H195.206V631.502H199.834V630.408H195.206V627.243H200.087V626.136H193.976V636H200.087V634.893ZM205.332 636V628.351H205.442L210.794 636H211.991V626.136H210.774V633.812H210.664L205.312 626.136H204.116V636H205.332ZM220.1 636V627.243H223.279V626.136H215.691V627.243H218.87V636H220.1ZM232.259 633.423C232.389 635.125 233.831 636.232 235.923 636.232C238.179 636.232 239.607 635.077 239.607 633.266C239.607 631.816 238.787 631.023 236.743 630.511L235.711 630.237C234.351 629.889 233.811 629.444 233.811 628.672C233.811 627.674 234.679 627.018 235.991 627.018C237.222 627.018 238.056 627.619 238.227 628.631H239.464C239.361 627.038 237.939 625.903 236.032 625.903C233.947 625.903 232.546 627.038 232.546 628.713C232.546 630.114 233.318 630.921 235.103 631.372L236.367 631.7C237.728 632.042 238.343 632.575 238.343 633.416C238.343 634.394 237.365 635.111 236.039 635.111C234.638 635.111 233.653 634.455 233.503 633.423H232.259ZM247.252 636V627.243H250.431V626.136H242.843V627.243H246.022V636H247.252ZM259.381 636H260.673L257.037 626.136H255.82L252.183 636H253.475L254.466 633.177H258.39L259.381 636ZM256.373 627.729H256.483L258.028 632.131H254.829L256.373 627.729ZM266.835 636V627.243H270.013V626.136H262.425V627.243H265.604V636H266.835ZM274.978 626.136H273.748V632.609C273.748 634.715 275.218 636.232 277.665 636.232C280.112 636.232 281.582 634.715 281.582 632.609V626.136H280.351V632.527C280.351 634.018 279.374 635.098 277.665 635.098C275.956 635.098 274.978 634.018 274.978 632.527V626.136ZM285.46 633.423C285.59 635.125 287.032 636.232 289.124 636.232C291.38 636.232 292.809 635.077 292.809 633.266C292.809 631.816 291.988 631.023 289.944 630.511L288.912 630.237C287.552 629.889 287.012 629.444 287.012 628.672C287.012 627.674 287.88 627.018 289.192 627.018C290.423 627.018 291.257 627.619 291.428 628.631H292.665C292.562 627.038 291.141 625.903 289.233 625.903C287.148 625.903 285.747 627.038 285.747 628.713C285.747 630.114 286.52 630.921 288.304 631.372L289.568 631.7C290.929 632.042 291.544 632.575 291.544 633.416C291.544 634.394 290.566 635.111 289.24 635.111C287.839 635.111 286.854 634.455 286.704 633.423H285.46Z" fill="#454545"/>
<path opacity="0.9" d="M141.766 676.062H130.281V667.406H141.188V665.5H130.281V657.391H141.766V655.453H128.141V678H141.766V676.062ZM148.109 678H150.156V667.672C150.156 664.922 152.047 662.734 154.484 662.734C156.812 662.734 158.359 664.312 158.359 666.734V678H160.406V667.328C160.406 664.719 162.141 662.734 164.734 662.734C167.266 662.734 168.625 664.203 168.625 666.953V678H170.672V666.484C170.672 662.922 168.719 660.891 165.344 660.891C162.922 660.891 160.953 662.188 160.094 664.203H159.891C159.172 662.188 157.484 660.891 155.125 660.891C152.797 660.891 151 662.141 150.266 664.203H150.062V661.172H148.109V678ZM185.203 660.891C182.641 660.891 180.469 662.312 179.438 664.609H179.25V661.172H177.297V683.484H179.344V674.797H179.531C180.469 676.969 182.594 678.281 185.203 678.281C189.453 678.281 192.281 674.812 192.281 669.578C192.281 664.344 189.469 660.891 185.203 660.891ZM184.75 676.422C181.469 676.422 179.281 673.703 179.281 669.578C179.281 665.453 181.469 662.734 184.766 662.734C188.078 662.734 190.172 665.391 190.172 669.594C190.172 673.781 188.078 676.422 184.75 676.422ZM198.359 678H200.406V654.469H198.359V678ZM214.156 676.422C210.688 676.422 208.625 673.844 208.625 669.578C208.625 665.312 210.688 662.734 214.156 662.734C217.625 662.734 219.688 665.312 219.688 669.578C219.688 673.844 217.625 676.422 214.156 676.422ZM214.156 678.281C218.859 678.281 221.812 674.953 221.812 669.578C221.812 664.203 218.859 660.891 214.156 660.891C209.453 660.891 206.516 664.203 206.516 669.578C206.516 674.953 209.453 678.281 214.156 678.281ZM228.359 683.859C231.141 683.859 232.297 682.766 233.766 678.812L240.312 661.172H238.125L233.047 675.766H232.859L227.766 661.172H225.547L231.859 678.109L231.516 679.156C230.734 681.281 229.906 682.078 228.328 682.078C228.062 682.078 227.625 682.062 227.406 682.031V683.797C227.656 683.844 228.109 683.859 228.359 683.859ZM251.578 662.703C254.625 662.703 256.641 664.969 256.688 668.438H246.203C246.391 664.969 248.516 662.703 251.578 662.703ZM256.484 673.844C255.766 675.5 254.047 676.453 251.656 676.453C248.406 676.453 246.297 674.016 246.188 670.219V670.125H258.828V669.219C258.828 664.078 256.078 660.891 251.594 660.891C247.016 660.891 244.078 664.312 244.078 669.594C244.078 674.906 246.984 678.281 251.609 678.281C255.141 678.281 257.734 676.578 258.562 673.844H256.484ZM271.047 678.281C273.625 678.281 275.797 676.891 276.797 674.641H276.984V678H278.953V654.469H276.906V664.453H276.719C275.766 662.25 273.609 660.891 271.047 660.891C266.781 660.891 263.922 664.375 263.922 669.594C263.922 674.812 266.75 678.281 271.047 678.281ZM271.484 662.734C274.781 662.734 276.938 665.453 276.938 669.578C276.938 673.734 274.797 676.422 271.484 676.422C268.156 676.422 266.031 673.766 266.031 669.578C266.031 665.406 268.156 662.734 271.484 662.734Z" fill="#303030"/>
<path opacity="0.9" d="M166.268 703.454H167.519C168.92 703.454 169.788 704.165 169.788 705.307C169.788 706.387 168.865 707.159 167.567 707.159C166.295 707.159 165.406 706.482 165.297 705.43H164.108C164.196 707.118 165.577 708.232 167.58 708.232C169.529 708.232 171.053 706.968 171.053 705.341C171.053 703.994 170.239 703.064 168.9 702.894V702.784C169.98 702.524 170.629 701.663 170.629 700.487C170.629 699.052 169.255 697.903 167.532 697.903C165.653 697.903 164.429 698.956 164.306 700.665H165.502C165.605 699.605 166.35 698.977 167.485 698.977C168.619 698.977 169.378 699.646 169.378 700.651C169.378 701.677 168.585 702.401 167.464 702.401H166.268V703.454ZM177.187 708H178.417V698.136H177.194L174.569 700.022V701.321L177.078 699.503H177.187V708ZM193.023 708V703.755L196.523 698.136H195.122L192.463 702.518H192.353L189.694 698.136H188.293L191.793 703.755V708H193.023ZM206.171 706.893H201.29V703.502H205.918V702.408H201.29V699.243H206.171V698.136H200.06V708H206.171V706.893ZM216.612 708H217.904L214.267 698.136H213.05L209.413 708H210.705L211.696 705.177H215.62L216.612 708ZM213.604 699.729H213.713L215.258 704.131H212.059L213.604 699.729ZM222.663 699.229H225.036C226.307 699.229 227.073 699.934 227.073 701.116C227.073 702.326 226.355 703.003 225.09 703.003H222.663V699.229ZM222.663 704.097H225.09L227.203 708H228.645L226.362 703.905C227.599 703.516 228.344 702.449 228.344 701.075C228.344 699.298 227.1 698.136 225.2 698.136H221.433V708H222.663V704.097ZM231.908 705.423C232.038 707.125 233.48 708.232 235.572 708.232C237.828 708.232 239.256 707.077 239.256 705.266C239.256 703.816 238.436 703.023 236.392 702.511L235.36 702.237C234 701.889 233.46 701.444 233.46 700.672C233.46 699.674 234.328 699.018 235.64 699.018C236.871 699.018 237.705 699.619 237.876 700.631H239.113C239.01 699.038 237.588 697.903 235.681 697.903C233.596 697.903 232.195 699.038 232.195 700.713C232.195 702.114 232.967 702.921 234.752 703.372L236.016 703.7C237.377 704.042 237.992 704.575 237.992 705.416C237.992 706.394 237.014 707.111 235.688 707.111C234.287 707.111 233.302 706.455 233.152 705.423H231.908Z" fill="#454545"/>
<path opacity="0.9" d="M257.048 305C259.154 305 260.439 303.927 260.439 302.197C260.439 300.912 259.523 299.955 258.197 299.832V299.709C259.188 299.552 259.954 298.636 259.954 297.597C259.954 296.079 258.826 295.136 256.953 295.136H252.831V305H257.048ZM254.594 296.537H256.522C257.588 296.537 258.211 297.043 258.211 297.911C258.211 298.8 257.547 299.285 256.296 299.285H254.594V296.537ZM254.594 303.599V300.557H256.577C257.923 300.557 258.634 301.076 258.634 302.061C258.634 303.065 257.944 303.599 256.645 303.599H254.594ZM268.019 294.89C265.154 294.89 263.343 296.879 263.343 300.064C263.343 303.25 265.12 305.246 268.019 305.246C270.897 305.246 272.674 303.243 272.674 300.064C272.674 296.879 270.883 294.89 268.019 294.89ZM268.019 296.455C269.769 296.455 270.869 297.856 270.869 300.064C270.869 302.266 269.776 303.681 268.019 303.681C266.235 303.681 265.148 302.266 265.148 300.064C265.148 297.856 266.262 296.455 268.019 296.455ZM277.861 296.599H279.857C280.978 296.599 281.662 297.228 281.662 298.253C281.662 299.299 281.019 299.9 279.898 299.9H277.861V296.599ZM277.861 301.302H279.816L281.751 305H283.767L281.614 301.028C282.79 300.604 283.473 299.518 283.473 298.219C283.473 296.325 282.175 295.136 280.103 295.136H276.097V305H277.861V301.302ZM288.777 296.599H290.773C291.894 296.599 292.578 297.228 292.578 298.253C292.578 299.299 291.935 299.9 290.814 299.9H288.777V296.599ZM288.777 301.302H290.732L292.666 305H294.683L292.53 301.028C293.705 300.604 294.389 299.518 294.389 298.219C294.389 296.325 293.09 295.136 291.019 295.136H287.013V305H288.777V301.302ZM302.188 294.89C299.323 294.89 297.512 296.879 297.512 300.064C297.512 303.25 299.289 305.246 302.188 305.246C305.065 305.246 306.843 303.243 306.843 300.064C306.843 296.879 305.052 294.89 302.188 294.89ZM302.188 296.455C303.938 296.455 305.038 297.856 305.038 300.064C305.038 302.266 303.944 303.681 302.188 303.681C300.403 303.681 299.316 302.266 299.316 300.064C299.316 297.856 300.431 296.455 302.188 296.455ZM315.585 298.014H315.687L317.697 305H319.351L321.997 295.136H320.171L318.483 302.478H318.387L316.419 295.136H314.853L312.912 302.478H312.809L311.121 295.136H309.282L311.927 305H313.588L315.585 298.014ZM331.6 303.476H326.979V300.714H331.347V299.278H326.979V296.66H331.6V295.136H325.215V305H331.6V303.476ZM336.951 296.599H338.947C340.068 296.599 340.752 297.228 340.752 298.253C340.752 299.299 340.109 299.9 338.988 299.9H336.951V296.599ZM336.951 301.302H338.906L340.841 305H342.857L340.704 301.028C341.88 300.604 342.563 299.518 342.563 298.219C342.563 296.325 341.264 295.136 339.193 295.136H335.187V305H336.951V301.302Z" fill="#303030"/>
<rect x="113" y="746" width="180" height="64" rx="32" fill="#04679E"/>
<path d="M196.781 784H198.258L194.102 772.727H192.711L188.555 784H190.031L191.164 780.773H195.648L196.781 784ZM193.344 774.547H193.469L195.234 779.578H191.578L193.344 774.547ZM202.711 784.148C203.875 784.148 204.875 783.594 205.406 782.656H205.531V784H206.812V772.234H205.469V776.906H205.352C204.875 775.984 203.883 775.43 202.711 775.43C200.57 775.43 199.172 777.148 199.172 779.789C199.172 782.438 200.555 784.148 202.711 784.148ZM203.023 776.641C204.547 776.641 205.5 777.859 205.5 779.789C205.5 781.734 204.555 782.938 203.023 782.938C201.484 782.938 200.562 781.758 200.562 779.789C200.562 777.828 201.492 776.641 203.023 776.641ZM212.539 784.148C213.703 784.148 214.703 783.594 215.234 782.656H215.359V784H216.641V772.234H215.297V776.906H215.18C214.703 775.984 213.711 775.43 212.539 775.43C210.398 775.43 209 777.148 209 779.789C209 782.438 210.383 784.148 212.539 784.148ZM212.852 776.641C214.375 776.641 215.328 777.859 215.328 779.789C215.328 781.734 214.383 782.938 212.852 782.938C211.312 782.938 210.391 781.758 210.391 779.789C210.391 777.828 211.32 776.641 212.852 776.641Z" fill="white"/>
<path d="M43 42L36 49L43 56" stroke="#303030"/>
<path opacity="0.9" d="M96.3203 68.0703V67.0156C98.5234 66.8359 99.8047 65.6641 99.8047 63.8125C99.8047 62.25 98.9219 61.2969 96.9922 60.7812L96.3203 60.6172V56.7969C97.4688 56.9375 98.2422 57.6719 98.2734 58.6484H99.6016C99.5469 56.9531 98.2578 55.75 96.3203 55.5859V54.5H95.2734V55.5938C93.2812 55.7891 92.0469 56.9609 92.0469 58.6641C92.0469 60.1016 92.9688 61.1328 94.6484 61.5781L95.2734 61.75V65.8125C93.9922 65.6562 93.1953 64.9609 93.1094 63.9141H91.7734C91.7812 65.6406 93.1562 66.8672 95.2734 67.0234V68.0703H96.3203ZM98.4531 63.9219C98.4531 65.0703 97.6797 65.7656 96.3203 65.8359V61.9609C97.7891 62.2734 98.4531 62.8828 98.4531 63.9219ZM93.3906 58.5859C93.3906 57.6094 94.1797 56.8594 95.2734 56.7969V60.3906C94.0391 60.1328 93.3906 59.5078 93.3906 58.5859ZM106.836 67.2578C109.594 67.2578 111.172 65.0391 111.172 61.1641C111.172 59.9219 110.992 58.8828 110.625 58.0234C109.922 56.3594 108.617 55.4609 106.93 55.4609C104.617 55.4609 102.977 57.0781 102.977 59.3438C102.977 61.5312 104.531 63.1172 106.68 63.1172C108.023 63.1172 109.125 62.4766 109.68 61.3828H109.711H109.742H109.805C109.727 64.3828 108.688 66.0078 106.852 66.0078C105.742 66.0078 104.891 65.3672 104.586 64.3125H103.141C103.5 66.125 104.922 67.2578 106.836 67.2578ZM106.93 61.8984C105.438 61.8984 104.398 60.8359 104.398 59.2969C104.398 57.8203 105.5 56.6953 106.945 56.6953C108.391 56.6953 109.492 57.8359 109.492 59.3438C109.492 60.8359 108.422 61.8984 106.93 61.8984ZM114.43 69.8672L115.586 65.4219H114.008L113.258 69.8672H114.43ZM122.57 67.2656C125.102 67.2656 126.555 65.125 126.555 61.3828C126.555 57.6484 125.078 55.4609 122.57 55.4609C120.047 55.4609 118.57 57.6406 118.57 61.3594C118.57 65.1094 120.031 67.2656 122.57 67.2656ZM122.57 66.0391C120.906 66.0391 119.984 64.375 119.984 61.3594C119.984 58.3828 120.922 56.6953 122.57 56.6953C124.219 56.6953 125.141 58.3672 125.141 61.3594C125.141 64.3828 124.234 66.0391 122.57 66.0391ZM133.648 67.2656C136.18 67.2656 137.633 65.125 137.633 61.3828C137.633 57.6484 136.156 55.4609 133.648 55.4609C131.125 55.4609 129.648 57.6406 129.648 61.3594C129.648 65.1094 131.109 67.2656 133.648 67.2656ZM133.648 66.0391C131.984 66.0391 131.062 64.375 131.062 61.3594C131.062 58.3828 132 56.6953 133.648 56.6953C135.297 56.6953 136.219 58.3672 136.219 61.3594C136.219 64.3828 135.312 66.0391 133.648 66.0391ZM144.727 67.2656C147.258 67.2656 148.711 65.125 148.711 61.3828C148.711 57.6484 147.234 55.4609 144.727 55.4609C142.203 55.4609 140.727 57.6406 140.727 61.3594C140.727 65.1094 142.188 67.2656 144.727 67.2656ZM144.727 66.0391C143.062 66.0391 142.141 64.375 142.141 61.3594C142.141 58.3828 143.078 56.6953 144.727 56.6953C146.375 56.6953 147.297 58.3672 147.297 61.3594C147.297 64.3828 146.391 66.0391 144.727 66.0391ZM159.117 67V62.1172H164.109V60.8672H159.117V56.9922H164.555V55.7266H157.711V67H159.117ZM172.609 55.4609C169.422 55.4609 167.43 57.7344 167.43 61.3594C167.43 64.9688 169.375 67.2656 172.609 67.2656C175.828 67.2656 177.766 64.9609 177.766 61.3594C177.766 57.7422 175.812 55.4609 172.609 55.4609ZM172.609 56.7578C174.914 56.7578 176.32 58.5391 176.32 61.3594C176.32 64.1562 174.922 65.9688 172.609 65.9688C170.266 65.9688 168.875 64.1562 168.875 61.3594C168.875 58.5391 170.312 56.7578 172.609 56.7578ZM182.617 56.9766H185.328C186.781 56.9766 187.656 57.7812 187.656 59.1328C187.656 60.5156 186.836 61.2891 185.391 61.2891H182.617V56.9766ZM182.617 62.5391H185.391L187.805 67H189.453L186.844 62.3203C188.258 61.875 189.109 60.6562 189.109 59.0859C189.109 57.0547 187.688 55.7266 185.516 55.7266H181.211V67H182.617V62.5391ZM207.18 67V55.7266H205.773V60.6016H199.586V55.7266H198.18V67H199.586V61.8672H205.773V67H207.18ZM215.797 55.4609C212.609 55.4609 210.617 57.7344 210.617 61.3594C210.617 64.9688 212.562 67.2656 215.797 67.2656C219.016 67.2656 220.953 64.9609 220.953 61.3594C220.953 57.7422 219 55.4609 215.797 55.4609ZM215.797 56.7578C218.102 56.7578 219.508 58.5391 219.508 61.3594C219.508 64.1562 218.109 65.9688 215.797 65.9688C213.453 65.9688 212.062 64.1562 212.062 61.3594C212.062 58.5391 213.5 56.7578 215.797 56.7578ZM225.711 67V58.3906H225.805L229.359 66.9219H230.547L234.102 58.3906H234.195V67H235.508V55.7266H233.875L230.016 65.0547H229.891L226.031 55.7266H224.398V67H225.711ZM246.367 65.7344H240.789V61.8594H246.078V60.6094H240.789V56.9922H246.367V55.7266H239.383V67H246.367V65.7344ZM256.836 67V55.7266H255.43V67H256.836ZM262.023 67V58.3906H262.117L265.672 66.9219H266.859L270.414 58.3906H270.508V67H271.82V55.7266H270.188L266.328 65.0547H266.203L262.344 55.7266H260.711V67H262.023ZM275.695 55.7266V67H277.102V62.9766H279.938C282.055 62.9766 283.562 61.4844 283.562 59.375C283.562 57.2266 282.086 55.7266 279.953 55.7266H275.695ZM277.102 56.9766H279.586C281.219 56.9766 282.117 57.8281 282.117 59.375C282.117 60.8672 281.188 61.7266 279.586 61.7266H277.102V56.9766ZM288.273 56.9766H290.984C292.438 56.9766 293.312 57.7812 293.312 59.1328C293.312 60.5156 292.492 61.2891 291.047 61.2891H288.273V56.9766ZM288.273 62.5391H291.047L293.461 67H295.109L292.5 62.3203C293.914 61.875 294.766 60.6562 294.766 59.0859C294.766 57.0547 293.344 55.7266 291.172 55.7266H286.867V67H288.273V62.5391ZM303.062 55.4609C299.875 55.4609 297.883 57.7344 297.883 61.3594C297.883 64.9688 299.828 67.2656 303.062 67.2656C306.281 67.2656 308.219 64.9609 308.219 61.3594C308.219 57.7422 306.266 55.4609 303.062 55.4609ZM303.062 56.7578C305.367 56.7578 306.773 58.5391 306.773 61.3594C306.773 64.1562 305.375 65.9688 303.062 65.9688C300.719 65.9688 299.328 64.1562 299.328 61.3594C299.328 58.5391 300.766 56.7578 303.062 56.7578ZM315.922 67L320.078 55.7266H318.602L315.289 65.1797H315.164L311.852 55.7266H310.375L314.531 67H315.922ZM330.039 65.7344H324.461V61.8594H329.75V60.6094H324.461V56.9922H330.039V55.7266H323.055V67H330.039V65.7344ZM334.523 67.0781C335.086 67.0781 335.539 66.6172 335.539 66.0625C335.539 65.5 335.086 65.0469 334.523 65.0469C333.969 65.0469 333.508 65.5 333.508 66.0625C333.508 66.6172 333.969 67.0781 334.523 67.0781ZM340.273 67.0781C340.836 67.0781 341.289 66.6172 341.289 66.0625C341.289 65.5 340.836 65.0469 340.273 65.0469C339.719 65.0469 339.258 65.5 339.258 66.0625C339.258 66.6172 339.719 67.0781 340.273 67.0781ZM346.023 67.0781C346.586 67.0781 347.039 66.6172 347.039 66.0625C347.039 65.5 346.586 65.0469 346.023 65.0469C345.469 65.0469 345.008 65.5 345.008 66.0625C345.008 66.6172 345.469 67.0781 346.023 67.0781Z" fill="#303030"/>
<path d="M151.473 189H152.898L159.354 176.158V174.908H150.369V176.109H158.006V176.227L151.473 189ZM161.143 189.098C161.729 189.098 162.217 188.609 162.217 188.023C162.217 187.428 161.729 186.949 161.143 186.949C160.547 186.949 160.059 187.428 160.059 188.023C160.059 188.609 160.547 189.098 161.143 189.098ZM169.709 189.293C172.57 189.293 174.592 187.32 174.592 184.527C174.592 181.803 172.668 179.859 169.963 179.859C168.586 179.859 167.414 180.367 166.74 181.246H166.613L167.082 176.109H173.713V174.908H166.027L165.266 182.779H166.535C167.131 181.695 168.361 181.021 169.748 181.021C171.779 181.021 173.254 182.496 173.254 184.566C173.254 186.637 171.779 188.111 169.719 188.111C167.941 188.111 166.506 186.939 166.359 185.357H165.051C165.197 187.652 167.15 189.293 169.709 189.293ZM184.516 189H185.814V185.816H187.924V184.615H185.814V174.889H183.9C180.434 179.762 178.695 182.467 177.436 184.596V185.816H184.516V189ZM178.832 184.537C180.346 182.018 181.742 179.83 184.428 176.168H184.516V184.625H178.832V184.537ZM201.422 188.229C200.387 188.229 199.703 187.291 199.703 185.875C199.703 184.469 200.377 183.551 201.422 183.551C202.457 183.551 203.121 184.459 203.121 185.875C203.121 187.281 202.438 188.229 201.422 188.229ZM201.422 189.205C203.131 189.205 204.322 187.838 204.322 185.875C204.322 183.922 203.131 182.564 201.422 182.564C199.703 182.564 198.502 183.932 198.502 185.875C198.502 187.838 199.703 189.205 201.422 189.205ZM193.482 181.344C195.191 181.344 196.393 179.977 196.393 178.014C196.393 176.061 195.191 174.703 193.482 174.703C191.773 174.703 190.572 176.07 190.572 178.014C190.572 179.977 191.773 181.344 193.482 181.344ZM192.975 189L197.916 182.291L203.355 174.908H201.979L196.959 181.715L191.578 189H192.975ZM193.482 180.357C192.457 180.357 191.773 179.43 191.773 178.014C191.773 176.607 192.447 175.68 193.482 175.68C194.518 175.68 195.182 176.588 195.182 178.014C195.182 179.42 194.498 180.357 193.482 180.357ZM218.838 189V182.906L223.887 174.908H222.363L218.232 181.549H218.115L213.984 174.908H212.451L217.51 182.906V189H218.838ZM226.838 189H228.117V178.482H226.838V189ZM227.473 176.139C228 176.139 228.43 175.709 228.43 175.182C228.43 174.664 228 174.234 227.473 174.234C226.955 174.234 226.525 174.664 226.525 175.182C226.525 175.709 226.955 176.139 227.473 176.139ZM236.127 179.439C238.031 179.439 239.291 180.855 239.32 183.023H232.768C232.885 180.855 234.213 179.439 236.127 179.439ZM239.193 186.402C238.744 187.438 237.67 188.033 236.176 188.033C234.145 188.033 232.826 186.51 232.758 184.137V184.078H240.658V183.512C240.658 180.299 238.939 178.307 236.137 178.307C233.275 178.307 231.439 180.445 231.439 183.746C231.439 187.066 233.256 189.176 236.146 189.176C238.354 189.176 239.975 188.111 240.492 186.402H239.193ZM244.029 189H245.309V174.293H244.029V189ZM253.143 189.176C254.754 189.176 256.111 188.307 256.736 186.9H256.854V189H258.084V174.293H256.805V180.533H256.688C256.092 179.156 254.744 178.307 253.143 178.307C250.477 178.307 248.689 180.484 248.689 183.746C248.689 187.008 250.457 189.176 253.143 189.176ZM253.416 179.459C255.477 179.459 256.824 181.158 256.824 183.736C256.824 186.334 255.486 188.014 253.416 188.014C251.336 188.014 250.008 186.354 250.008 183.736C250.008 181.129 251.336 179.459 253.416 179.459Z" fill="#292929"/>
<path d="M124.088 244H125.143V235.545H124.094L121.844 237.162V238.275L123.994 236.717H124.088V244ZM131.01 244.199C132.908 244.199 133.998 242.594 133.998 239.787C133.998 236.986 132.891 235.346 131.01 235.346C129.117 235.346 128.01 236.98 128.01 239.77C128.01 242.582 129.105 244.199 131.01 244.199ZM131.01 243.279C129.762 243.279 129.07 242.031 129.07 239.77C129.07 237.537 129.773 236.271 131.01 236.271C132.246 236.271 132.938 237.525 132.938 239.77C132.938 242.037 132.258 243.279 131.01 243.279ZM142.457 244.111C143.33 244.111 144.08 243.695 144.479 242.992H144.572V244H145.533V235.176H144.525V238.68H144.438C144.08 237.988 143.336 237.572 142.457 237.572C140.852 237.572 139.803 238.861 139.803 240.842C139.803 242.828 140.84 244.111 142.457 244.111ZM142.691 238.48C143.834 238.48 144.549 239.395 144.549 240.842C144.549 242.301 143.84 243.203 142.691 243.203C141.537 243.203 140.846 242.318 140.846 240.842C140.846 239.371 141.543 238.48 142.691 238.48ZM149.936 243.227C149.203 243.227 148.658 242.852 148.658 242.207C148.658 241.574 149.08 241.24 150.041 241.176L151.74 241.064V241.645C151.74 242.547 150.973 243.227 149.936 243.227ZM149.748 244.111C150.592 244.111 151.283 243.742 151.693 243.068H151.787V244H152.748V239.676C152.748 238.363 151.887 237.572 150.346 237.572C148.998 237.572 148.002 238.24 147.867 239.254H148.887C149.027 238.756 149.555 238.469 150.311 238.469C151.254 238.469 151.74 238.896 151.74 239.676V240.25L149.918 240.361C148.447 240.449 147.615 241.1 147.615 242.23C147.615 243.385 148.523 244.111 149.748 244.111ZM155.416 246.291C156.535 246.291 157.039 245.852 157.578 244.387L160.045 237.684H158.973L157.244 242.881H157.15L155.416 237.684H154.326L156.664 244.006L156.547 244.381C156.283 245.143 155.967 245.424 155.387 245.424C155.246 245.424 155.088 245.418 154.965 245.395V246.256C155.105 246.279 155.281 246.291 155.416 246.291ZM161.57 239.412C161.57 240.326 162.109 240.836 163.293 241.123L164.377 241.387C165.051 241.551 165.379 241.844 165.379 242.277C165.379 242.857 164.77 243.262 163.92 243.262C163.111 243.262 162.607 242.922 162.438 242.389H161.4C161.512 243.438 162.479 244.111 163.885 244.111C165.32 244.111 166.416 243.332 166.416 242.201C166.416 241.293 165.842 240.777 164.652 240.49L163.68 240.256C162.936 240.074 162.584 239.805 162.584 239.371C162.584 238.809 163.17 238.428 163.92 238.428C164.682 238.428 165.174 238.762 165.309 239.266H166.305C166.17 238.229 165.25 237.572 163.926 237.572C162.584 237.572 161.57 238.363 161.57 239.412ZM172.443 244H173.451V235.176H172.443V244ZM178.428 238.463C179.43 238.463 180.098 239.201 180.121 240.32H176.641C176.717 239.201 177.42 238.463 178.428 238.463ZM180.092 242.365C179.828 242.922 179.277 243.221 178.463 243.221C177.391 243.221 176.693 242.43 176.641 241.182V241.135H181.182V240.748C181.182 238.785 180.145 237.572 178.439 237.572C176.705 237.572 175.592 238.861 175.592 240.848C175.592 242.846 176.688 244.111 178.439 244.111C179.822 244.111 180.795 243.449 181.1 242.365H180.092ZM183.686 244H184.693V238.527H186.141V237.684H184.693V237.098C184.693 236.389 185.033 236.084 185.637 236.084C185.836 236.084 186.064 236.107 186.199 236.137V235.293C185.953 235.252 185.777 235.234 185.578 235.234C184.359 235.234 183.686 235.773 183.686 237.068V237.684H182.625V238.527H183.686V244ZM188.533 236.107V237.684H187.473V238.527H188.533V242.359C188.533 243.566 189.055 244.047 190.355 244.047C190.555 244.047 190.736 244.023 190.936 243.988V243.139C190.748 243.156 190.66 243.162 190.479 243.162C189.822 243.162 189.541 242.846 189.541 242.102V238.527H191.006V237.684H189.541V236.107H188.533ZM197.279 236.107V237.684H196.219V238.527H197.279V242.359C197.279 243.566 197.801 244.047 199.102 244.047C199.301 244.047 199.482 244.023 199.682 243.988V243.139C199.494 243.156 199.406 243.162 199.225 243.162C198.568 243.162 198.287 242.846 198.287 242.102V238.527H199.752V237.684H198.287V236.107H197.279ZM204.219 243.203C203.023 243.203 202.35 242.336 202.35 240.842C202.35 239.342 203.023 238.48 204.219 238.48C205.414 238.48 206.088 239.342 206.088 240.842C206.088 242.336 205.414 243.203 204.219 243.203ZM204.219 244.111C206.018 244.111 207.131 242.869 207.131 240.842C207.131 238.809 206.018 237.572 204.219 237.572C202.42 237.572 201.307 238.809 201.307 240.842C201.307 242.869 202.42 244.111 204.219 244.111ZM213.521 244H214.529V238.527H215.977V237.684H214.529V237.098C214.529 236.389 214.869 236.084 215.473 236.084C215.672 236.084 215.9 236.107 216.035 236.137V235.293C215.789 235.252 215.613 235.234 215.414 235.234C214.195 235.234 213.521 235.773 213.521 237.068V237.684H212.461V238.527H213.521V244ZM223.174 237.684H222.166V241.422C222.166 242.529 221.498 243.191 220.385 243.191C219.377 243.191 218.896 242.664 218.896 241.527V237.684H217.889V241.773C217.889 243.268 218.686 244.111 220.104 244.111C221.07 244.111 221.803 243.713 222.119 243.01H222.213V244H223.174V237.684ZM225.572 244H226.58V240.262C226.58 239.154 227.248 238.48 228.355 238.48C229.363 238.48 229.844 239.02 229.844 240.156V244H230.852V239.91C230.852 238.41 230.061 237.572 228.643 237.572C227.676 237.572 226.943 237.982 226.627 238.68H226.533V237.684H225.572V244ZM235.535 244.111C236.408 244.111 237.158 243.695 237.557 242.992H237.65V244H238.611V235.176H237.604V238.68H237.516C237.158 237.988 236.414 237.572 235.535 237.572C233.93 237.572 232.881 238.861 232.881 240.842C232.881 242.828 233.918 244.111 235.535 244.111ZM235.77 238.48C236.912 238.48 237.627 239.395 237.627 240.842C237.627 242.301 236.918 243.203 235.77 243.203C234.615 243.203 233.924 242.318 233.924 240.842C233.924 239.371 234.621 238.48 235.77 238.48ZM248.295 244.803V244.012C249.947 243.877 250.908 242.998 250.908 241.609C250.908 240.438 250.246 239.723 248.799 239.336L248.295 239.213V236.348C249.156 236.453 249.736 237.004 249.76 237.736H250.756C250.715 236.465 249.748 235.562 248.295 235.439V234.625H247.51V235.445C246.016 235.592 245.09 236.471 245.09 237.748C245.09 238.826 245.781 239.6 247.041 239.934L247.51 240.062V243.109C246.549 242.992 245.951 242.471 245.887 241.686H244.885C244.891 242.98 245.922 243.9 247.51 244.018V244.803H248.295ZM249.895 241.691C249.895 242.553 249.314 243.074 248.295 243.127V240.221C249.396 240.455 249.895 240.912 249.895 241.691ZM246.098 237.689C246.098 236.957 246.689 236.395 247.51 236.348V239.043C246.584 238.85 246.098 238.381 246.098 237.689ZM253.178 237.924V237.93H254.197V237.924C254.197 236.928 254.865 236.266 255.855 236.266C256.787 236.266 257.508 236.916 257.508 237.76C257.508 238.439 257.244 238.896 256.154 240.08L253.23 243.273V244H258.703V243.051H254.742V242.957L256.775 240.771C258.164 239.283 258.562 238.598 258.562 237.719C258.562 236.377 257.402 235.346 255.885 235.346C254.314 235.346 253.178 236.424 253.178 237.924ZM261.564 246.15L262.432 242.816H261.248L260.686 246.15H261.564ZM267.42 244.199C269.318 244.199 270.408 242.594 270.408 239.787C270.408 236.986 269.301 235.346 267.42 235.346C265.527 235.346 264.42 236.98 264.42 239.77C264.42 242.582 265.516 244.199 267.42 244.199ZM267.42 243.279C266.172 243.279 265.48 242.031 265.48 239.77C265.48 237.537 266.184 236.271 267.42 236.271C268.656 236.271 269.348 237.525 269.348 239.77C269.348 242.037 268.668 243.279 267.42 243.279ZM272.584 237.924V237.93H273.604V237.924C273.604 236.928 274.271 236.266 275.262 236.266C276.193 236.266 276.914 236.916 276.914 237.76C276.914 238.439 276.65 238.896 275.561 240.08L272.637 243.273V244H278.109V243.051H274.148V242.957L276.182 240.771C277.57 239.283 277.969 238.598 277.969 237.719C277.969 236.377 276.809 235.346 275.291 235.346C273.721 235.346 272.584 236.424 272.584 237.924ZM283.18 244.199C284.932 244.199 286.133 243.027 286.133 241.311C286.133 239.646 285.008 238.48 283.402 238.48C282.623 238.48 282.025 238.721 281.615 239.201H281.521L281.762 236.488H285.652V235.545H280.936L280.473 240.338H281.463C281.809 239.734 282.441 239.389 283.209 239.389C284.316 239.389 285.078 240.18 285.078 241.34C285.078 242.5 284.322 243.273 283.191 243.273C282.195 243.273 281.469 242.664 281.375 241.75H280.338C280.432 243.209 281.58 244.199 283.18 244.199Z" fill="#BDBDBD"/>
<rect x="84" y="218" width="240" height="2" rx="1" fill="#E6E6E6"/>
<rect x="84" y="218" width="178.182" height="2" rx="1" fill="#057EC1"/>
<circle cx="203" cy="130" r="28" fill="#D6F5FD"/>
<path d="M200.736 135H202.028L198.392 125.136H197.175L193.538 135H194.83L195.821 132.177H199.745L200.736 135ZM197.729 126.729H197.838L199.383 131.131H196.184L197.729 126.729ZM211.17 135H212.462L208.825 125.136H207.608L203.972 135H205.264L206.255 132.177H210.179L211.17 135ZM208.162 126.729H208.271L209.816 131.131H206.617L208.162 126.729Z" fill="#04679E"/>
<path opacity="0.9" d="M85.2807 303.455H80.7553V295.136H78.9916V305H85.2807V303.455ZM90.3447 305V295.136H88.5811V305H90.3447ZM93.7271 302.32C93.816 304.111 95.3131 305.246 97.5758 305.246C99.9684 305.246 101.452 304.05 101.452 302.129C101.452 300.625 100.611 299.791 98.608 299.34L97.4732 299.08C96.2496 298.8 95.7506 298.41 95.7506 297.747C95.7506 296.906 96.5025 296.359 97.6373 296.359C98.7174 296.359 99.483 296.906 99.6061 297.774H101.295C101.213 296.079 99.7154 294.89 97.6441 294.89C95.4361 294.89 93.9732 296.079 93.9732 297.87C93.9732 299.34 94.8141 300.229 96.6051 300.632L97.8834 300.926C99.148 301.22 99.6881 301.637 99.6881 302.348C99.6881 303.175 98.8473 303.77 97.6852 303.77C96.4342 303.77 95.5592 303.202 95.4498 302.32H93.7271ZM109.052 305V296.66H112.094V295.136H104.253V296.66H107.288V305H109.052ZM117.103 305V295.136H115.34V305H117.103ZM122.639 305V298.287H122.755L127.595 305H129.12V295.136H127.424V301.842H127.308L122.468 295.136H120.937V305H122.639ZM141.491 301.049V299.812H137.396V301.192H139.769L139.762 301.397C139.734 302.758 138.709 303.674 137.205 303.674C135.448 303.674 134.348 302.293 134.348 300.051C134.348 297.836 135.428 296.462 137.15 296.462C138.415 296.462 139.297 297.084 139.652 298.205H141.409C141.095 296.188 139.427 294.89 137.15 294.89C134.341 294.89 132.543 296.906 132.543 300.064C132.543 303.264 134.32 305.246 137.178 305.246C139.81 305.246 141.491 303.612 141.491 301.049Z" fill="#303030"/>
<path opacity="0.9" d="M257.048 305C259.154 305 260.439 303.927 260.439 302.197C260.439 300.912 259.523 299.955 258.197 299.832V299.709C259.188 299.552 259.954 298.636 259.954 297.597C259.954 296.079 258.826 295.136 256.953 295.136H252.831V305H257.048ZM254.594 296.537H256.522C257.588 296.537 258.211 297.043 258.211 297.911C258.211 298.8 257.547 299.285 256.296 299.285H254.594V296.537ZM254.594 303.599V300.557H256.577C257.923 300.557 258.634 301.076 258.634 302.061C258.634 303.065 257.944 303.599 256.645 303.599H254.594ZM268.019 294.89C265.154 294.89 263.343 296.879 263.343 300.064C263.343 303.25 265.12 305.246 268.019 305.246C270.897 305.246 272.674 303.243 272.674 300.064C272.674 296.879 270.883 294.89 268.019 294.89ZM268.019 296.455C269.769 296.455 270.869 297.856 270.869 300.064C270.869 302.266 269.776 303.681 268.019 303.681C266.235 303.681 265.148 302.266 265.148 300.064C265.148 297.856 266.262 296.455 268.019 296.455ZM277.861 296.599H279.857C280.978 296.599 281.662 297.228 281.662 298.253C281.662 299.299 281.019 299.9 279.898 299.9H277.861V296.599ZM277.861 301.302H279.816L281.751 305H283.767L281.614 301.028C282.79 300.604 283.473 299.518 283.473 298.219C283.473 296.325 282.175 295.136 280.103 295.136H276.097V305H277.861V301.302ZM288.777 296.599H290.773C291.894 296.599 292.578 297.228 292.578 298.253C292.578 299.299 291.935 299.9 290.814 299.9H288.777V296.599ZM288.777 301.302H290.732L292.666 305H294.683L292.53 301.028C293.705 300.604 294.389 299.518 294.389 298.219C294.389 296.325 293.09 295.136 291.019 295.136H287.013V305H288.777V301.302ZM302.188 294.89C299.323 294.89 297.512 296.879 297.512 300.064C297.512 303.25 299.289 305.246 302.188 305.246C305.065 305.246 306.843 303.243 306.843 300.064C306.843 296.879 305.052 294.89 302.188 294.89ZM302.188 296.455C303.938 296.455 305.038 297.856 305.038 300.064C305.038 302.266 303.944 303.681 302.188 303.681C300.403 303.681 299.316 302.266 299.316 300.064C299.316 297.856 300.431 296.455 302.188 296.455ZM315.585 298.014H315.687L317.697 305H319.351L321.997 295.136H320.171L318.483 302.478H318.387L316.419 295.136H314.853L312.912 302.478H312.809L311.121 295.136H309.282L311.927 305H313.588L315.585 298.014ZM331.6 303.476H326.979V300.714H331.347V299.278H326.979V296.66H331.6V295.136H325.215V305H331.6V303.476ZM336.951 296.599H338.947C340.068 296.599 340.752 297.228 340.752 298.253C340.752 299.299 340.109 299.9 338.988 299.9H336.951V296.599ZM336.951 301.302H338.906L340.841 305H342.857L340.704 301.028C341.88 300.604 342.563 299.518 342.563 298.219C342.563 296.325 341.264 295.136 339.193 295.136H335.187V305H336.951V301.302Z" fill="#BDBDBD"/>
<rect x="17" y="315" width="375" height="1" fill="#D8D8D8"/>
<rect x="17" y="315" width="187.5" height="1" fill="#303030"/>
</g>
</g>
<path d="M93 0H314V25C314 36.0457 305.046 45 294 45H113C101.954 45 93 36.0457 93 25V0Z" fill="url(#paint0_linear)"/>
<path fill-rule="evenodd" clip-rule="evenodd" d="M246 26C249.314 26 252 23.3137 252 20C252 16.6863 249.314 14 246 14C242.686 14 240 16.6863 240 20C240 23.3137 242.686 26 246 26ZM159.5 16C157.015 16 155 18.0147 155 20.5C155 22.9853 157.015 25 159.5 25H221.5C223.985 25 226 22.9853 226 20.5C226 18.0147 223.985 16 221.5 16H159.5Z" fill="#2F2929"/>
<defs>
<filter id="filter0_ii" x="-10" y="-10" width="427" height="874" filterUnits="userSpaceOnUse" color-interpolation-filters="sRGB">
<feFlood flood-opacity="0" result="BackgroundImageFix"/>
<feBlend mode="normal" in="SourceGraphic" in2="BackgroundImageFix" result="shape"/>
<feColorMatrix in="SourceAlpha" type="matrix" values="0 0 0 0 0 0 0 0 0 0 0 0 0 0 0 0 0 0 127 0" result="hardAlpha"/>
<feOffset dx="-10" dy="-10"/>
<feGaussianBlur stdDeviation="5"/>
<feComposite in2="hardAlpha" operator="arithmetic" k2="-1" k3="1"/>
<feColorMatrix type="matrix" values="0 0 0 0 0 0 0 0 0 0 0 0 0 0 0 0 0 0 0.2 0"/>
<feBlend mode="normal" in2="shape" result="effect1_innerShadow"/>
<feColorMatrix in="SourceAlpha" type="matrix" values="0 0 0 0 0 0 0 0 0 0 0 0 0 0 0 0 0 0 127 0" result="hardAlpha"/>
<feOffset dx="10" dy="10"/>
<feGaussianBlur stdDeviation="5"/>
<feComposite in2="hardAlpha" operator="arithmetic" k2="-1" k3="1"/>
<feColorMatrix type="matrix" values="0 0 0 0 1 0 0 0 0 1 0 0 0 0 1 0 0 0 0.2 0"/>
<feBlend mode="normal" in2="effect1_innerShadow" result="effect2_innerShadow"/>
</filter>
<linearGradient id="paint0_linear" x1="203.5" y1="0" x2="203.5" y2="45" gradientUnits="userSpaceOnUse">
<stop stop-color="#504E4E"/>
<stop offset="1" stop-color="#242222"/>
</linearGradient>
<clipPath id="clip0">
<path d="M16 64C16 36.3858 38.3858 14 66 14H341C368.614 14 391 36.3858 391 64V790C391 817.614 368.614 840 341 840H66C38.3858 840 16 817.614 16 790V64Z" fill="white"/>
</clipPath>
<clipPath id="clip1">
<rect x="16" y="14" width="375" height="1331" rx="50" fill="white"/>
</clipPath>
</defs>
</svg>
