<svg width="407" height="876" viewBox="0 0 407 876" fill="none" xmlns="http://www.w3.org/2000/svg">
<g filter="url(#filter0_ii)">
<rect width="407" height="854" rx="60" fill="#333232"/>
</g>
<g clip-path="url(#clip0)">
<path d="M16 64C16 36.3858 38.3858 14 66 14H341C368.614 14 391 36.3858 391 64V790C391 817.614 368.614 840 341 840H66C38.3858 840 16 817.614 16 790V64Z" fill="white"/>
<rect x="16" y="14" width="375" height="812" rx="50" fill="white"/>
<path d="M279.938 699.344V697.125C284.312 696.828 287.078 694.422 287.078 690.828C287.078 687.656 285.25 685.844 280.859 684.75L279.938 684.516V676.016C282.578 676.25 284.531 677.969 284.609 680.125H286.641C286.547 676.859 283.797 674.438 279.938 674.156V672.016H278.312V674.172C274.297 674.469 271.672 676.844 271.672 680.203C271.672 683.125 273.516 685 277.453 686L278.312 686.234V695.281C275.391 695.016 273.328 693.281 273.156 690.891H271.125C271.172 694.344 274.094 696.875 278.312 697.141V699.344H279.938ZM285.016 690.984C285.016 693.469 283.016 695.172 279.938 695.312V686.562C283.547 687.375 285.016 688.656 285.016 690.984ZM273.719 680.094C273.719 677.859 275.672 676.141 278.312 676.016V684.156C275.141 683.453 273.719 682.188 273.719 680.094ZM300.766 697.469C305.344 697.469 308.578 694.312 308.578 689.844C308.578 685.484 305.5 682.375 301.172 682.375C298.969 682.375 297.094 683.188 296.016 684.594H295.812L296.562 676.375H307.172V674.453H294.875L293.656 687.047H295.688C296.641 685.312 298.609 684.234 300.828 684.234C304.078 684.234 306.438 686.594 306.438 689.906C306.438 693.219 304.078 695.578 300.781 695.578C297.938 695.578 295.641 693.703 295.406 691.172H293.312C293.547 694.844 296.672 697.469 300.766 697.469ZM322 697.469C326.984 697.469 329.922 693.125 329.922 685.75C329.922 678.391 326.953 673.984 322 673.984C317.016 673.984 314.031 678.375 314.031 685.719C314.031 693.109 316.984 697.469 322 697.469ZM322 695.594C318.328 695.594 316.188 691.969 316.188 685.719C316.188 679.531 318.344 675.875 322 675.875C325.641 675.875 327.781 679.5 327.781 685.719C327.781 691.969 325.656 695.594 322 695.594Z" fill="#4D4D4D"/>
<g opacity="0.9">
<path d="M73.0518 700V691.243H76.2305V690.136H68.6426V691.243H71.8213V700H73.0518ZM83.2018 689.903C80.4127 689.903 78.6695 691.893 78.6695 695.064C78.6695 698.223 80.3717 700.232 83.2018 700.232C86.0182 700.232 87.7135 698.216 87.7135 695.064C87.7135 691.899 86.0045 689.903 83.2018 689.903ZM83.2018 691.038C85.2184 691.038 86.4488 692.597 86.4488 695.064C86.4488 697.512 85.2252 699.098 83.2018 699.098C81.151 699.098 79.9342 697.512 79.9342 695.064C79.9342 692.597 81.192 691.038 83.2018 691.038ZM94.5686 700V691.243H97.7473V690.136H90.1594V691.243H93.3381V700H94.5686ZM106.298 700H107.59L103.953 690.136H102.736L99.0994 700H100.391L101.383 697.177H105.306L106.298 700ZM103.29 691.729H103.399L104.944 696.131H101.745L103.29 691.729ZM116.707 698.893H111.95V690.136H110.719V700H116.707V698.893Z" fill="#454545"/>
<path d="M73.0518 700V691.243H76.2305V690.136H68.6426V691.243H71.8213V700H73.0518ZM83.2018 689.903C80.4127 689.903 78.6695 691.893 78.6695 695.064C78.6695 698.223 80.3717 700.232 83.2018 700.232C86.0182 700.232 87.7135 698.216 87.7135 695.064C87.7135 691.899 86.0045 689.903 83.2018 689.903ZM83.2018 691.038C85.2184 691.038 86.4488 692.597 86.4488 695.064C86.4488 697.512 85.2252 699.098 83.2018 699.098C81.151 699.098 79.9342 697.512 79.9342 695.064C79.9342 692.597 81.192 691.038 83.2018 691.038ZM94.5686 700V691.243H97.7473V690.136H90.1594V691.243H93.3381V700H94.5686ZM106.298 700H107.59L103.953 690.136H102.736L99.0994 700H100.391L101.383 697.177H105.306L106.298 700ZM103.29 691.729H103.399L104.944 696.131H101.745L103.29 691.729ZM116.707 698.893H111.95V690.136H110.719V700H116.707V698.893Z" fill="#454545"/>
<path d="M73.0518 700V691.243H76.2305V690.136H68.6426V691.243H71.8213V700H73.0518ZM83.2018 689.903C80.4127 689.903 78.6695 691.893 78.6695 695.064C78.6695 698.223 80.3717 700.232 83.2018 700.232C86.0182 700.232 87.7135 698.216 87.7135 695.064C87.7135 691.899 86.0045 689.903 83.2018 689.903ZM83.2018 691.038C85.2184 691.038 86.4488 692.597 86.4488 695.064C86.4488 697.512 85.2252 699.098 83.2018 699.098C81.151 699.098 79.9342 697.512 79.9342 695.064C79.9342 692.597 81.192 691.038 83.2018 691.038ZM94.5686 700V691.243H97.7473V690.136H90.1594V691.243H93.3381V700H94.5686ZM106.298 700H107.59L103.953 690.136H102.736L99.0994 700H100.391L101.383 697.177H105.306L106.298 700ZM103.29 691.729H103.399L104.944 696.131H101.745L103.29 691.729ZM116.707 698.893H111.95V690.136H110.719V700H116.707V698.893Z" fill="#454545"/>
</g>
<g opacity="0.9">
<path d="M184.725 65H186.017L182.381 55.1357H181.164L177.527 65H178.819L179.81 62.1768H183.734L184.725 65ZM181.718 56.7285H181.827L183.372 61.1309H180.173L181.718 56.7285ZM189.147 55.1357V65H192.531C195.463 65 197.186 63.1748 197.186 60.0645C197.186 56.9609 195.456 55.1357 192.531 55.1357H189.147ZM190.377 56.2432H192.449C194.636 56.2432 195.928 57.665 195.928 60.0781C195.928 62.4844 194.65 63.8926 192.449 63.8926H190.377V56.2432ZM200.719 55.1357V65H204.103C207.035 65 208.758 63.1748 208.758 60.0645C208.758 56.9609 207.028 55.1357 204.103 55.1357H200.719ZM201.949 56.2432H204.021C206.208 56.2432 207.5 57.665 207.5 60.0781C207.5 62.4844 206.222 63.8926 204.021 63.8926H201.949V56.2432ZM218.402 63.8926H213.521V60.502H218.149V59.4082H213.521V56.2432H218.402V55.1357H212.291V65H218.402V63.8926ZM222.03 55.1357V65H225.414C228.347 65 230.07 63.1748 230.07 60.0645C230.07 56.9609 228.34 55.1357 225.414 55.1357H222.03ZM223.261 56.2432H225.332C227.52 56.2432 228.812 57.665 228.812 60.0781C228.812 62.4844 227.533 63.8926 225.332 63.8926H223.261V56.2432Z" fill="#454545"/>
<path d="M184.725 65H186.017L182.381 55.1357H181.164L177.527 65H178.819L179.81 62.1768H183.734L184.725 65ZM181.718 56.7285H181.827L183.372 61.1309H180.173L181.718 56.7285ZM189.147 55.1357V65H192.531C195.463 65 197.186 63.1748 197.186 60.0645C197.186 56.9609 195.456 55.1357 192.531 55.1357H189.147ZM190.377 56.2432H192.449C194.636 56.2432 195.928 57.665 195.928 60.0781C195.928 62.4844 194.65 63.8926 192.449 63.8926H190.377V56.2432ZM200.719 55.1357V65H204.103C207.035 65 208.758 63.1748 208.758 60.0645C208.758 56.9609 207.028 55.1357 204.103 55.1357H200.719ZM201.949 56.2432H204.021C206.208 56.2432 207.5 57.665 207.5 60.0781C207.5 62.4844 206.222 63.8926 204.021 63.8926H201.949V56.2432ZM218.402 63.8926H213.521V60.502H218.149V59.4082H213.521V56.2432H218.402V55.1357H212.291V65H218.402V63.8926ZM222.03 55.1357V65H225.414C228.347 65 230.07 63.1748 230.07 60.0645C230.07 56.9609 228.34 55.1357 225.414 55.1357H222.03ZM223.261 56.2432H225.332C227.52 56.2432 228.812 57.665 228.812 60.0781C228.812 62.4844 227.533 63.8926 225.332 63.8926H223.261V56.2432Z" fill="#454545"/>
<path d="M184.725 65H186.017L182.381 55.1357H181.164L177.527 65H178.819L179.81 62.1768H183.734L184.725 65ZM181.718 56.7285H181.827L183.372 61.1309H180.173L181.718 56.7285ZM189.147 55.1357V65H192.531C195.463 65 197.186 63.1748 197.186 60.0645C197.186 56.9609 195.456 55.1357 192.531 55.1357H189.147ZM190.377 56.2432H192.449C194.636 56.2432 195.928 57.665 195.928 60.0781C195.928 62.4844 194.65 63.8926 192.449 63.8926H190.377V56.2432ZM200.719 55.1357V65H204.103C207.035 65 208.758 63.1748 208.758 60.0645C208.758 56.9609 207.028 55.1357 204.103 55.1357H200.719ZM201.949 56.2432H204.021C206.208 56.2432 207.5 57.665 207.5 60.0781C207.5 62.4844 206.222 63.8926 204.021 63.8926H201.949V56.2432ZM218.402 63.8926H213.521V60.502H218.149V59.4082H213.521V56.2432H218.402V55.1357H212.291V65H218.402V63.8926ZM222.03 55.1357V65H225.414C228.347 65 230.07 63.1748 230.07 60.0645C230.07 56.9609 228.34 55.1357 225.414 55.1357H222.03ZM223.261 56.2432H225.332C227.52 56.2432 228.812 57.665 228.812 60.0781C228.812 62.4844 227.533 63.8926 225.332 63.8926H223.261V56.2432Z" fill="#454545"/>
</g>
<path d="M101.859 129.258C104.617 129.258 106.195 127.039 106.195 123.164C106.195 121.922 106.016 120.883 105.648 120.023C104.945 118.359 103.641 117.461 101.953 117.461C99.6406 117.461 98 119.078 98 121.344C98 123.531 99.5547 125.117 101.703 125.117C103.047 125.117 104.148 124.477 104.703 123.383H104.734H104.766H104.828C104.75 126.383 103.711 128.008 101.875 128.008C100.766 128.008 99.9141 127.367 99.6094 126.312H98.1641C98.5234 128.125 99.9453 129.258 101.859 129.258ZM101.953 123.898C100.461 123.898 99.4219 122.836 99.4219 121.297C99.4219 119.82 100.523 118.695 101.969 118.695C103.414 118.695 104.516 119.836 104.516 121.344C104.516 122.836 103.445 123.898 101.953 123.898ZM108.797 129.078C109.359 129.078 109.812 128.617 109.812 128.062C109.812 127.5 109.359 127.047 108.797 127.047C108.242 127.047 107.781 127.5 107.781 128.062C107.781 128.617 108.242 129.078 108.797 129.078ZM115.633 129.258C117.945 129.258 119.586 127.641 119.586 125.375C119.586 123.188 118.031 121.602 115.883 121.602C114.539 121.602 113.438 122.242 112.883 123.336H112.758C112.836 120.336 113.875 118.711 115.711 118.711C116.82 118.711 117.672 119.352 117.977 120.406H119.422C119.062 118.594 117.641 117.461 115.727 117.461C112.969 117.461 111.391 119.68 111.391 123.555C111.391 124.797 111.57 125.836 111.938 126.695C112.641 128.352 113.938 129.258 115.633 129.258ZM115.617 128.023C114.172 128.023 113.07 126.883 113.07 125.375C113.07 123.883 114.141 122.82 115.633 122.82C117.125 122.82 118.164 123.883 118.164 125.422C118.164 126.898 117.062 128.023 115.617 128.023ZM127 129H128.375V126.664H129.977V125.406H128.375V117.727H126.336C124.305 120.766 122.516 123.594 121.508 125.383V126.664H127V129ZM122.945 125.32C124.289 123.039 125.758 120.711 126.914 119.031H127.008V125.414H122.945V125.32ZM140.445 128.195C139.75 128.195 139.289 127.516 139.289 126.477C139.289 125.438 139.742 124.766 140.445 124.766C141.148 124.766 141.594 125.422 141.594 126.477C141.594 127.508 141.133 128.195 140.445 128.195ZM140.445 129.195C141.852 129.195 142.844 128.07 142.844 126.477C142.844 124.883 141.852 123.766 140.445 123.766C139.039 123.766 138.039 124.891 138.039 126.477C138.039 128.07 139.039 129.195 140.445 129.195ZM133.922 122.961C135.328 122.961 136.32 121.836 136.32 120.242C136.32 118.648 135.328 117.531 133.922 117.531C132.516 117.531 131.516 118.656 131.516 120.242C131.516 121.836 132.516 122.961 133.922 122.961ZM133.797 129L137.664 123.711L142.039 117.727H140.617L136.664 123.125L132.359 129H133.797ZM133.922 121.961C133.227 121.961 132.766 121.281 132.766 120.242C132.766 119.203 133.219 118.531 133.922 118.531C134.625 118.531 135.07 119.188 135.07 120.242C135.07 121.273 134.609 121.961 133.922 121.961ZM153.938 129V124.148L157.938 117.727H156.336L153.297 122.734H153.172L150.133 117.727H148.531L152.531 124.148V129H153.938ZM159.781 129H161.125V120.578H159.781V129ZM160.453 118.867C160.969 118.867 161.391 118.445 161.391 117.93C161.391 117.414 160.969 116.992 160.453 116.992C159.938 116.992 159.516 117.414 159.516 117.93C159.516 118.445 159.938 118.867 160.453 118.867ZM167.047 121.617C168.383 121.617 169.273 122.602 169.305 124.094H164.664C164.766 122.602 165.703 121.617 167.047 121.617ZM169.266 126.82C168.914 127.562 168.18 127.961 167.094 127.961C165.664 127.961 164.734 126.906 164.664 125.242V125.18H170.719V124.664C170.719 122.047 169.336 120.43 167.062 120.43C164.75 120.43 163.266 122.148 163.266 124.797C163.266 127.461 164.727 129.148 167.062 129.148C168.906 129.148 170.203 128.266 170.609 126.82H169.266ZM172.906 129H174.25V117.234H172.906V129ZM179.977 129.148C181.141 129.148 182.141 128.594 182.672 127.656H182.797V129H184.078V117.234H182.734V121.906H182.617C182.141 120.984 181.148 120.43 179.977 120.43C177.836 120.43 176.438 122.148 176.438 124.789C176.438 127.438 177.82 129.148 179.977 129.148ZM180.289 121.641C181.812 121.641 182.766 122.859 182.766 124.789C182.766 126.734 181.82 127.938 180.289 127.938C178.75 127.938 177.828 126.758 177.828 124.789C177.828 122.828 178.758 121.641 180.289 121.641Z" fill="#292929"/>
<path d="M293.203 157.07V156.016C295.406 155.836 296.688 154.664 296.688 152.812C296.688 151.25 295.805 150.297 293.875 149.781L293.203 149.617V145.797C294.352 145.938 295.125 146.672 295.156 147.648H296.484C296.43 145.953 295.141 144.75 293.203 144.586V143.5H292.156V144.594C290.164 144.789 288.93 145.961 288.93 147.664C288.93 149.102 289.852 150.133 291.531 150.578L292.156 150.75V154.812C290.875 154.656 290.078 153.961 289.992 152.914H288.656C288.664 154.641 290.039 155.867 292.156 156.023V157.07H293.203ZM295.336 152.922C295.336 154.07 294.562 154.766 293.203 154.836V150.961C294.672 151.273 295.336 151.883 295.336 152.922ZM290.273 147.586C290.273 146.609 291.062 145.859 292.156 145.797V149.391C290.922 149.133 290.273 148.508 290.273 147.586ZM300.547 147.898V147.906H301.906V147.898C301.906 146.57 302.797 145.688 304.117 145.688C305.359 145.688 306.32 146.555 306.32 147.68C306.32 148.586 305.969 149.195 304.516 150.773L300.617 155.031V156H307.914V154.734H302.633V154.609L305.344 151.695C307.195 149.711 307.727 148.797 307.727 147.625C307.727 145.836 306.18 144.461 304.156 144.461C302.062 144.461 300.547 145.898 300.547 147.898ZM315.508 156.266C317.844 156.266 319.445 154.703 319.445 152.414C319.445 150.195 317.945 148.641 315.805 148.641C314.766 148.641 313.969 148.961 313.422 149.602H313.297L313.617 145.984H318.805V144.727H312.516L311.898 151.117H313.219C313.68 150.312 314.523 149.852 315.547 149.852C317.023 149.852 318.039 150.906 318.039 152.453C318.039 154 317.031 155.031 315.523 155.031C314.195 155.031 313.227 154.219 313.102 153H311.719C311.844 154.945 313.375 156.266 315.508 156.266ZM323.766 156.078C324.328 156.078 324.781 155.617 324.781 155.062C324.781 154.5 324.328 154.047 323.766 154.047C323.211 154.047 322.75 154.5 322.75 155.062C322.75 155.617 323.211 156.078 323.766 156.078ZM331.906 156.266C334.438 156.266 335.891 154.125 335.891 150.383C335.891 146.648 334.414 144.461 331.906 144.461C329.383 144.461 327.906 146.641 327.906 150.359C327.906 154.109 329.367 156.266 331.906 156.266ZM331.906 155.039C330.242 155.039 329.32 153.375 329.32 150.359C329.32 147.383 330.258 145.695 331.906 145.695C333.555 145.695 334.477 147.367 334.477 150.359C334.477 153.383 333.57 155.039 331.906 155.039ZM343.484 156.266C346.016 156.266 347.469 154.125 347.469 150.383C347.469 146.648 345.992 144.461 343.484 144.461C340.961 144.461 339.484 146.641 339.484 150.359C339.484 154.109 340.945 156.266 343.484 156.266ZM343.484 155.039C341.82 155.039 340.898 153.375 340.898 150.359C340.898 147.383 341.836 145.695 343.484 145.695C345.133 145.695 346.055 147.367 346.055 150.359C346.055 153.383 345.148 155.039 343.484 155.039Z" fill="#292929"/>
<path d="M102.004 158.937V158.014C103.932 157.856 105.053 156.831 105.053 155.211C105.053 153.844 104.28 153.01 102.592 152.559L102.004 152.415V149.072C103.009 149.195 103.686 149.838 103.713 150.692H104.875C104.827 149.209 103.699 148.156 102.004 148.013V147.062H101.088V148.02C99.3447 148.19 98.2646 149.216 98.2646 150.706C98.2646 151.964 99.0713 152.866 100.541 153.256L101.088 153.406V156.961C99.9668 156.824 99.2695 156.216 99.1943 155.3H98.0254C98.0322 156.811 99.2354 157.884 101.088 158.021V158.937H102.004ZM103.87 155.307C103.87 156.312 103.193 156.92 102.004 156.981V153.591C103.289 153.864 103.87 154.397 103.87 155.307ZM99.4404 150.638C99.4404 149.783 100.131 149.127 101.088 149.072V152.217C100.008 151.991 99.4404 151.444 99.4404 150.638ZM109.695 153.454H110.946C112.348 153.454 113.216 154.165 113.216 155.307C113.216 156.387 112.293 157.159 110.994 157.159C109.723 157.159 108.834 156.482 108.725 155.43H107.535C107.624 157.118 109.005 158.232 111.008 158.232C112.956 158.232 114.48 156.968 114.48 155.341C114.48 153.994 113.667 153.064 112.327 152.894V152.784C113.407 152.524 114.057 151.663 114.057 150.487C114.057 149.052 112.683 147.903 110.96 147.903C109.08 147.903 107.856 148.956 107.733 150.665H108.93C109.032 149.605 109.777 148.977 110.912 148.977C112.047 148.977 112.806 149.646 112.806 150.651C112.806 151.677 112.013 152.401 110.892 152.401H109.695V153.454ZM120.21 158.232C122.254 158.232 123.655 156.865 123.655 154.862C123.655 152.921 122.343 151.561 120.47 151.561C119.561 151.561 118.863 151.841 118.385 152.401H118.275L118.556 149.236H123.095V148.136H117.592L117.052 153.728H118.207C118.61 153.023 119.349 152.62 120.244 152.62C121.536 152.62 122.425 153.543 122.425 154.896C122.425 156.25 121.543 157.152 120.224 157.152C119.062 157.152 118.214 156.441 118.104 155.375H116.895C117.004 157.077 118.344 158.232 120.21 158.232ZM126.322 160.509L127.334 156.619H125.953L125.297 160.509H126.322ZM133.07 158.232C135.285 158.232 136.557 156.359 136.557 153.085C136.557 149.817 135.265 147.903 133.07 147.903C130.862 147.903 129.57 149.811 129.57 153.064C129.57 156.346 130.849 158.232 133.07 158.232ZM133.07 157.159C131.614 157.159 130.808 155.703 130.808 153.064C130.808 150.46 131.628 148.983 133.07 148.983C134.513 148.983 135.319 150.446 135.319 153.064C135.319 155.71 134.526 157.159 133.07 157.159ZM142.389 158.232C144.604 158.232 145.875 156.359 145.875 153.085C145.875 149.817 144.583 147.903 142.389 147.903C140.181 147.903 138.889 149.811 138.889 153.064C138.889 156.346 140.167 158.232 142.389 158.232ZM142.389 157.159C140.933 157.159 140.126 155.703 140.126 153.064C140.126 150.46 140.946 148.983 142.389 148.983C143.831 148.983 144.638 150.446 144.638 153.064C144.638 155.71 143.845 157.159 142.389 157.159ZM151.707 158.232C153.922 158.232 155.193 156.359 155.193 153.085C155.193 149.817 153.901 147.903 151.707 147.903C149.499 147.903 148.207 149.811 148.207 153.064C148.207 156.346 149.485 158.232 151.707 158.232ZM151.707 157.159C150.251 157.159 149.444 155.703 149.444 153.064C149.444 150.46 150.265 148.983 151.707 148.983C153.149 148.983 153.956 150.446 153.956 153.064C153.956 155.71 153.163 157.159 151.707 157.159ZM162.66 158H163.836V151.615H165.524V150.631H163.836V149.947C163.836 149.12 164.232 148.765 164.937 148.765C165.169 148.765 165.436 148.792 165.593 148.826V147.842C165.306 147.794 165.101 147.773 164.868 147.773C163.446 147.773 162.66 148.402 162.66 149.913V150.631H161.423V151.615H162.66V158ZM170.454 157.07C169.06 157.07 168.273 156.059 168.273 154.315C168.273 152.565 169.06 151.561 170.454 151.561C171.849 151.561 172.635 152.565 172.635 154.315C172.635 156.059 171.849 157.07 170.454 157.07ZM170.454 158.13C172.553 158.13 173.852 156.681 173.852 154.315C173.852 151.943 172.553 150.501 170.454 150.501C168.355 150.501 167.057 151.943 167.057 154.315C167.057 156.681 168.355 158.13 170.454 158.13ZM176.197 158H177.373V153.434C177.373 152.395 178.187 151.643 179.308 151.643C179.54 151.643 179.964 151.684 180.06 151.711V150.535C179.909 150.515 179.663 150.501 179.472 150.501C178.494 150.501 177.646 151.007 177.428 151.725H177.318V150.631H176.197V158ZM186.535 148.136V158H189.919C192.852 158 194.574 156.175 194.574 153.064C194.574 149.961 192.845 148.136 189.919 148.136H186.535ZM187.766 149.243H189.837C192.024 149.243 193.316 150.665 193.316 153.078C193.316 155.484 192.038 156.893 189.837 156.893H187.766V149.243ZM199.996 151.54C201.165 151.54 201.944 152.401 201.972 153.707H197.911C198 152.401 198.82 151.54 199.996 151.54ZM201.938 156.093C201.63 156.742 200.987 157.091 200.037 157.091C198.786 157.091 197.973 156.168 197.911 154.712V154.657H203.209V154.206C203.209 151.916 201.999 150.501 200.01 150.501C197.986 150.501 196.688 152.005 196.688 154.322C196.688 156.653 197.966 158.13 200.01 158.13C201.623 158.13 202.758 157.357 203.113 156.093H201.938ZM209.219 158.13C211.085 158.13 212.309 156.619 212.309 154.315C212.309 151.998 211.092 150.501 209.219 150.501C208.207 150.501 207.312 151 206.908 151.793H206.799V147.705H205.623V158H206.744V156.824H206.854C207.318 157.645 208.193 158.13 209.219 158.13ZM208.945 151.561C210.292 151.561 211.092 152.593 211.092 154.315C211.092 156.038 210.292 157.07 208.945 157.07C207.605 157.07 206.771 156.018 206.771 154.315C206.771 152.613 207.605 151.561 208.945 151.561ZM215.146 148.792V150.631H213.909V151.615H215.146V156.086C215.146 157.494 215.755 158.055 217.272 158.055C217.505 158.055 217.717 158.027 217.949 157.986V156.995C217.73 157.016 217.628 157.022 217.416 157.022C216.65 157.022 216.322 156.653 216.322 155.785V151.615H218.031V150.631H216.322V148.792H215.146ZM102.229 178.232C104.328 178.232 105.887 177.063 106.215 175.252H104.964C104.649 176.394 103.604 177.098 102.229 177.098C100.329 177.098 99.1396 175.546 99.1396 173.071C99.1396 170.597 100.329 169.038 102.223 169.038C103.583 169.038 104.636 169.838 104.964 171.109H106.215C105.921 169.209 104.301 167.903 102.223 167.903C99.543 167.903 97.875 169.886 97.875 173.071C97.875 176.25 99.5498 178.232 102.229 178.232ZM111.657 177.07C110.263 177.07 109.477 176.059 109.477 174.315C109.477 172.565 110.263 171.561 111.657 171.561C113.052 171.561 113.838 172.565 113.838 174.315C113.838 176.059 113.052 177.07 111.657 177.07ZM111.657 178.13C113.756 178.13 115.055 176.681 115.055 174.315C115.055 171.943 113.756 170.501 111.657 170.501C109.559 170.501 108.26 171.943 108.26 174.315C108.26 176.681 109.559 178.13 111.657 178.13ZM117.4 178H118.576V173.639C118.576 172.347 119.355 171.561 120.647 171.561C121.823 171.561 122.384 172.189 122.384 173.516V178H123.56V173.229C123.56 171.479 122.637 170.501 120.982 170.501C119.854 170.501 119 170.979 118.631 171.793H118.521V170.631H117.4V178ZM126.042 172.647C126.042 173.714 126.671 174.309 128.052 174.644L129.316 174.951C130.103 175.143 130.485 175.484 130.485 175.99C130.485 176.667 129.774 177.139 128.783 177.139C127.84 177.139 127.252 176.742 127.054 176.12H125.844C125.974 177.344 127.102 178.13 128.742 178.13C130.417 178.13 131.695 177.221 131.695 175.901C131.695 174.842 131.025 174.24 129.638 173.905L128.503 173.632C127.635 173.42 127.225 173.105 127.225 172.6C127.225 171.943 127.908 171.499 128.783 171.499C129.672 171.499 130.246 171.889 130.403 172.477H131.565C131.408 171.267 130.335 170.501 128.79 170.501C127.225 170.501 126.042 171.424 126.042 172.647ZM137.069 177.07C135.675 177.07 134.889 176.059 134.889 174.315C134.889 172.565 135.675 171.561 137.069 171.561C138.464 171.561 139.25 172.565 139.25 174.315C139.25 176.059 138.464 177.07 137.069 177.07ZM137.069 178.13C139.168 178.13 140.467 176.681 140.467 174.315C140.467 171.943 139.168 170.501 137.069 170.501C134.971 170.501 133.672 171.943 133.672 174.315C133.672 176.681 134.971 178.13 137.069 178.13ZM142.881 178H144.057V167.705H142.881V178ZM146.867 178H148.043V170.631H146.867V178ZM147.455 169.134C147.906 169.134 148.275 168.765 148.275 168.313C148.275 167.862 147.906 167.493 147.455 167.493C147.004 167.493 146.635 167.862 146.635 168.313C146.635 168.765 147.004 169.134 147.455 169.134ZM153.513 178.13C154.531 178.13 155.406 177.645 155.871 176.824H155.98V178H157.102V167.705H155.926V171.793H155.823C155.406 170.986 154.538 170.501 153.513 170.501C151.64 170.501 150.416 172.005 150.416 174.315C150.416 176.633 151.626 178.13 153.513 178.13ZM153.786 171.561C155.119 171.561 155.953 172.627 155.953 174.315C155.953 176.018 155.126 177.07 153.786 177.07C152.439 177.07 151.633 176.038 151.633 174.315C151.633 172.6 152.446 171.561 153.786 171.561ZM162.154 177.098C161.3 177.098 160.664 176.66 160.664 175.908C160.664 175.17 161.156 174.78 162.277 174.705L164.26 174.575V175.252C164.26 176.305 163.364 177.098 162.154 177.098ZM161.936 178.13C162.92 178.13 163.727 177.699 164.205 176.913H164.314V178H165.436V172.955C165.436 171.424 164.431 170.501 162.633 170.501C161.061 170.501 159.898 171.28 159.741 172.463H160.931C161.095 171.882 161.71 171.547 162.592 171.547C163.692 171.547 164.26 172.046 164.26 172.955V173.625L162.134 173.755C160.418 173.857 159.447 174.616 159.447 175.936C159.447 177.282 160.507 178.13 161.936 178.13ZM168.602 168.792V170.631H167.364V171.615H168.602V176.086C168.602 177.494 169.21 178.055 170.728 178.055C170.96 178.055 171.172 178.027 171.404 177.986V176.995C171.186 177.016 171.083 177.022 170.871 177.022C170.105 177.022 169.777 176.653 169.777 175.785V171.615H171.486V170.631H169.777V168.792H168.602ZM173.723 178H174.898V170.631H173.723V178ZM174.311 169.134C174.762 169.134 175.131 168.765 175.131 168.313C175.131 167.862 174.762 167.493 174.311 167.493C173.859 167.493 173.49 167.862 173.49 168.313C173.49 168.765 173.859 169.134 174.311 169.134ZM180.669 177.07C179.274 177.07 178.488 176.059 178.488 174.315C178.488 172.565 179.274 171.561 180.669 171.561C182.063 171.561 182.85 172.565 182.85 174.315C182.85 176.059 182.063 177.07 180.669 177.07ZM180.669 178.13C182.768 178.13 184.066 176.681 184.066 174.315C184.066 171.943 182.768 170.501 180.669 170.501C178.57 170.501 177.271 171.943 177.271 174.315C177.271 176.681 178.57 178.13 180.669 178.13ZM186.412 178H187.588V173.639C187.588 172.347 188.367 171.561 189.659 171.561C190.835 171.561 191.396 172.189 191.396 173.516V178H192.571V173.229C192.571 171.479 191.648 170.501 189.994 170.501C188.866 170.501 188.012 170.979 187.643 171.793H187.533V170.631H186.412V178Z" fill="#292929"/>
<circle cx="61" cy="131" r="20" fill="#D6F5FD"/>
<path d="M58.7363 136H60.0283L56.3916 126.136H55.1748L51.5381 136H52.8301L53.8213 133.177H57.7451L58.7363 136ZM55.7285 127.729H55.8379L57.3828 132.131H54.1836L55.7285 127.729ZM69.1699 136H70.4619L66.8252 126.136H65.6084L61.9717 136H63.2637L64.2549 133.177H68.1787L69.1699 136ZM66.1621 127.729H66.2715L67.8164 132.131H64.6172L66.1621 127.729Z" fill="#04679E"/>
<rect x="25" y="199" width="359" height="1" fill="#E6E6E6"/>
<rect x="25" y="95" width="359" height="1" fill="#E6E6E6"/>
<path d="M262 149H272V151H262V149Z" fill="#BDBDBD"/>
<path fill-rule="evenodd" clip-rule="evenodd" d="M368 151V156H370V151H375V149H370V144H368V149H363V151H368Z" fill="#4D4D4D"/>
<path d="M98.6797 233H100.156L105.172 223.031V221.727H97.9453V222.984H103.766V223.109L98.6797 233ZM106.234 233.078C106.797 233.078 107.25 232.617 107.25 232.062C107.25 231.5 106.797 231.047 106.234 231.047C105.68 231.047 105.219 231.5 105.219 232.062C105.219 232.617 105.68 233.078 106.234 233.078ZM112.805 233.266C115.141 233.266 116.742 231.703 116.742 229.414C116.742 227.195 115.242 225.641 113.102 225.641C112.062 225.641 111.266 225.961 110.719 226.602H110.594L110.914 222.984H116.102V221.727H109.812L109.195 228.117H110.516C110.977 227.312 111.82 226.852 112.844 226.852C114.32 226.852 115.336 227.906 115.336 229.453C115.336 231 114.328 232.031 112.82 232.031C111.492 232.031 110.523 231.219 110.398 230H109.016C109.141 231.945 110.672 233.266 112.805 233.266ZM124.141 233H125.516V230.664H127.117V229.406H125.516V221.727H123.477C121.445 224.766 119.656 227.594 118.648 229.383V230.664H124.141V233ZM120.086 229.32C121.43 227.039 122.898 224.711 124.055 223.031H124.148V229.414H120.086V229.32ZM137.586 232.195C136.891 232.195 136.43 231.516 136.43 230.477C136.43 229.438 136.883 228.766 137.586 228.766C138.289 228.766 138.734 229.422 138.734 230.477C138.734 231.508 138.273 232.195 137.586 232.195ZM137.586 233.195C138.992 233.195 139.984 232.07 139.984 230.477C139.984 228.883 138.992 227.766 137.586 227.766C136.18 227.766 135.18 228.891 135.18 230.477C135.18 232.07 136.18 233.195 137.586 233.195ZM131.062 226.961C132.469 226.961 133.461 225.836 133.461 224.242C133.461 222.648 132.469 221.531 131.062 221.531C129.656 221.531 128.656 222.656 128.656 224.242C128.656 225.836 129.656 226.961 131.062 226.961ZM130.938 233L134.805 227.711L139.18 221.727H137.758L133.805 227.125L129.5 233H130.938ZM131.062 225.961C130.367 225.961 129.906 225.281 129.906 224.242C129.906 223.203 130.359 222.531 131.062 222.531C131.766 222.531 132.211 223.188 132.211 224.242C132.211 225.273 131.75 225.961 131.062 225.961ZM151.078 233V228.148L155.078 221.727H153.477L150.438 226.734H150.312L147.273 221.727H145.672L149.672 228.148V233H151.078ZM156.922 233H158.266V224.578H156.922V233ZM157.594 222.867C158.109 222.867 158.531 222.445 158.531 221.93C158.531 221.414 158.109 220.992 157.594 220.992C157.078 220.992 156.656 221.414 156.656 221.93C156.656 222.445 157.078 222.867 157.594 222.867ZM164.188 225.617C165.523 225.617 166.414 226.602 166.445 228.094H161.805C161.906 226.602 162.844 225.617 164.188 225.617ZM166.406 230.82C166.055 231.562 165.32 231.961 164.234 231.961C162.805 231.961 161.875 230.906 161.805 229.242V229.18H167.859V228.664C167.859 226.047 166.477 224.43 164.203 224.43C161.891 224.43 160.406 226.148 160.406 228.797C160.406 231.461 161.867 233.148 164.203 233.148C166.047 233.148 167.344 232.266 167.75 230.82H166.406ZM170.047 233H171.391V221.234H170.047V233ZM177.117 233.148C178.281 233.148 179.281 232.594 179.812 231.656H179.938V233H181.219V221.234H179.875V225.906H179.758C179.281 224.984 178.289 224.43 177.117 224.43C174.977 224.43 173.578 226.148 173.578 228.789C173.578 231.438 174.961 233.148 177.117 233.148ZM177.43 225.641C178.953 225.641 179.906 226.859 179.906 228.789C179.906 230.734 178.961 231.938 177.43 231.938C175.891 231.938 174.969 230.758 174.969 228.789C174.969 226.828 175.898 225.641 177.43 225.641Z" fill="#292929"/>
<path d="M293.203 261.07V260.016C295.406 259.836 296.688 258.664 296.688 256.812C296.688 255.25 295.805 254.297 293.875 253.781L293.203 253.617V249.797C294.352 249.938 295.125 250.672 295.156 251.648H296.484C296.43 249.953 295.141 248.75 293.203 248.586V247.5H292.156V248.594C290.164 248.789 288.93 249.961 288.93 251.664C288.93 253.102 289.852 254.133 291.531 254.578L292.156 254.75V258.812C290.875 258.656 290.078 257.961 289.992 256.914H288.656C288.664 258.641 290.039 259.867 292.156 260.023V261.07H293.203ZM295.336 256.922C295.336 258.07 294.562 258.766 293.203 258.836V254.961C294.672 255.273 295.336 255.883 295.336 256.922ZM290.273 251.586C290.273 250.609 291.062 249.859 292.156 249.797V253.391C290.922 253.133 290.273 252.508 290.273 251.586ZM300.547 251.898V251.906H301.906V251.898C301.906 250.57 302.797 249.688 304.117 249.688C305.359 249.688 306.32 250.555 306.32 251.68C306.32 252.586 305.969 253.195 304.516 254.773L300.617 259.031V260H307.914V258.734H302.633V258.609L305.344 255.695C307.195 253.711 307.727 252.797 307.727 251.625C307.727 249.836 306.18 248.461 304.156 248.461C302.062 248.461 300.547 249.898 300.547 251.898ZM315.508 260.266C317.844 260.266 319.445 258.703 319.445 256.414C319.445 254.195 317.945 252.641 315.805 252.641C314.766 252.641 313.969 252.961 313.422 253.602H313.297L313.617 249.984H318.805V248.727H312.516L311.898 255.117H313.219C313.68 254.312 314.523 253.852 315.547 253.852C317.023 253.852 318.039 254.906 318.039 256.453C318.039 258 317.031 259.031 315.523 259.031C314.195 259.031 313.227 258.219 313.102 257H311.719C311.844 258.945 313.375 260.266 315.508 260.266ZM323.766 260.078C324.328 260.078 324.781 259.617 324.781 259.062C324.781 258.5 324.328 258.047 323.766 258.047C323.211 258.047 322.75 258.5 322.75 259.062C322.75 259.617 323.211 260.078 323.766 260.078ZM331.906 260.266C334.438 260.266 335.891 258.125 335.891 254.383C335.891 250.648 334.414 248.461 331.906 248.461C329.383 248.461 327.906 250.641 327.906 254.359C327.906 258.109 329.367 260.266 331.906 260.266ZM331.906 259.039C330.242 259.039 329.32 257.375 329.32 254.359C329.32 251.383 330.258 249.695 331.906 249.695C333.555 249.695 334.477 251.367 334.477 254.359C334.477 257.383 333.57 259.039 331.906 259.039ZM343.484 260.266C346.016 260.266 347.469 258.125 347.469 254.383C347.469 250.648 345.992 248.461 343.484 248.461C340.961 248.461 339.484 250.641 339.484 254.359C339.484 258.109 340.945 260.266 343.484 260.266ZM343.484 259.039C341.82 259.039 340.898 257.375 340.898 254.359C340.898 251.383 341.836 249.695 343.484 249.695C345.133 249.695 346.055 251.367 346.055 254.359C346.055 257.383 345.148 259.039 343.484 259.039Z" fill="#292929"/>
<path d="M102.004 262.937V262.014C103.932 261.856 105.053 260.831 105.053 259.211C105.053 257.844 104.28 257.01 102.592 256.559L102.004 256.415V253.072C103.009 253.195 103.686 253.838 103.713 254.692H104.875C104.827 253.209 103.699 252.156 102.004 252.013V251.062H101.088V252.02C99.3447 252.19 98.2646 253.216 98.2646 254.706C98.2646 255.964 99.0713 256.866 100.541 257.256L101.088 257.406V260.961C99.9668 260.824 99.2695 260.216 99.1943 259.3H98.0254C98.0322 260.811 99.2354 261.884 101.088 262.021V262.937H102.004ZM103.87 259.307C103.87 260.312 103.193 260.92 102.004 260.981V257.591C103.289 257.864 103.87 258.397 103.87 259.307ZM99.4404 254.638C99.4404 253.783 100.131 253.127 101.088 253.072V256.217C100.008 255.991 99.4404 255.444 99.4404 254.638ZM110.83 262.226C113.243 262.226 114.624 260.284 114.624 256.894C114.624 255.807 114.467 254.897 114.146 254.146C113.53 252.689 112.389 251.903 110.912 251.903C108.889 251.903 107.453 253.318 107.453 255.301C107.453 257.215 108.813 258.603 110.693 258.603C111.869 258.603 112.833 258.042 113.318 257.085H113.346H113.373H113.428C113.359 259.71 112.45 261.132 110.844 261.132C109.873 261.132 109.128 260.571 108.861 259.648H107.597C107.911 261.234 109.155 262.226 110.83 262.226ZM110.912 257.536C109.606 257.536 108.697 256.606 108.697 255.26C108.697 253.968 109.661 252.983 110.926 252.983C112.19 252.983 113.154 253.981 113.154 255.301C113.154 256.606 112.218 257.536 110.912 257.536ZM117.1 264.509L118.111 260.619H116.73L116.074 264.509H117.1ZM123.848 262.232C126.062 262.232 127.334 260.359 127.334 257.085C127.334 253.817 126.042 251.903 123.848 251.903C121.64 251.903 120.348 253.811 120.348 257.064C120.348 260.346 121.626 262.232 123.848 262.232ZM123.848 261.159C122.392 261.159 121.585 259.703 121.585 257.064C121.585 254.46 122.405 252.983 123.848 252.983C125.29 252.983 126.097 254.446 126.097 257.064C126.097 259.71 125.304 261.159 123.848 261.159ZM133.166 262.232C135.381 262.232 136.652 260.359 136.652 257.085C136.652 253.817 135.36 251.903 133.166 251.903C130.958 251.903 129.666 253.811 129.666 257.064C129.666 260.346 130.944 262.232 133.166 262.232ZM133.166 261.159C131.71 261.159 130.903 259.703 130.903 257.064C130.903 254.46 131.724 252.983 133.166 252.983C134.608 252.983 135.415 254.446 135.415 257.064C135.415 259.71 134.622 261.159 133.166 261.159ZM142.484 262.232C144.699 262.232 145.971 260.359 145.971 257.085C145.971 253.817 144.679 251.903 142.484 251.903C140.276 251.903 138.984 253.811 138.984 257.064C138.984 260.346 140.263 262.232 142.484 262.232ZM142.484 261.159C141.028 261.159 140.222 259.703 140.222 257.064C140.222 254.46 141.042 252.983 142.484 252.983C143.927 252.983 144.733 254.446 144.733 257.064C144.733 259.71 143.94 261.159 142.484 261.159ZM153.438 262H154.613V255.615H156.302V254.631H154.613V253.947C154.613 253.12 155.01 252.765 155.714 252.765C155.946 252.765 156.213 252.792 156.37 252.826V251.842C156.083 251.794 155.878 251.773 155.646 251.773C154.224 251.773 153.438 252.402 153.438 253.913V254.631H152.2V255.615H153.438V262ZM161.231 261.07C159.837 261.07 159.051 260.059 159.051 258.315C159.051 256.565 159.837 255.561 161.231 255.561C162.626 255.561 163.412 256.565 163.412 258.315C163.412 260.059 162.626 261.07 161.231 261.07ZM161.231 262.13C163.33 262.13 164.629 260.681 164.629 258.315C164.629 255.943 163.33 254.501 161.231 254.501C159.133 254.501 157.834 255.943 157.834 258.315C157.834 260.681 159.133 262.13 161.231 262.13ZM166.975 262H168.15V257.434C168.15 256.395 168.964 255.643 170.085 255.643C170.317 255.643 170.741 255.684 170.837 255.711V254.535C170.687 254.515 170.44 254.501 170.249 254.501C169.271 254.501 168.424 255.007 168.205 255.725H168.096V254.631H166.975V262ZM185.188 262V252.136H183.957V256.401H178.543V252.136H177.312V262H178.543V257.509H183.957V262H185.188ZM191.081 261.07C189.687 261.07 188.9 260.059 188.9 258.315C188.9 256.565 189.687 255.561 191.081 255.561C192.476 255.561 193.262 256.565 193.262 258.315C193.262 260.059 192.476 261.07 191.081 261.07ZM191.081 262.13C193.18 262.13 194.479 260.681 194.479 258.315C194.479 255.943 193.18 254.501 191.081 254.501C188.982 254.501 187.684 255.943 187.684 258.315C187.684 260.681 188.982 262.13 191.081 262.13ZM196.824 262H198V257.434C198 256.395 198.745 255.561 199.709 255.561C200.639 255.561 201.247 256.121 201.247 256.996V262H202.423V257.263C202.423 256.326 203.106 255.561 204.132 255.561C205.171 255.561 205.684 256.094 205.684 257.181V262H206.859V256.907C206.859 255.362 206.019 254.501 204.515 254.501C203.496 254.501 202.655 255.014 202.259 255.793H202.149C201.808 255.027 201.11 254.501 200.112 254.501C199.128 254.501 198.39 254.973 198.055 255.793H197.945V254.631H196.824V262ZM212.445 255.54C213.614 255.54 214.394 256.401 214.421 257.707H210.36C210.449 256.401 211.27 255.54 212.445 255.54ZM214.387 260.093C214.079 260.742 213.437 261.091 212.486 261.091C211.235 261.091 210.422 260.168 210.36 258.712V258.657H215.658V258.206C215.658 255.916 214.448 254.501 212.459 254.501C210.436 254.501 209.137 256.005 209.137 258.322C209.137 260.653 210.415 262.13 212.459 262.13C214.072 262.13 215.207 261.357 215.562 260.093H214.387ZM99.4883 282V272.136H98.2578V282H99.4883ZM102.354 282H103.529V277.434C103.529 276.395 104.274 275.561 105.238 275.561C106.168 275.561 106.776 276.121 106.776 276.996V282H107.952V277.263C107.952 276.326 108.636 275.561 109.661 275.561C110.7 275.561 111.213 276.094 111.213 277.181V282H112.389V276.907C112.389 275.362 111.548 274.501 110.044 274.501C109.025 274.501 108.185 275.014 107.788 275.793H107.679C107.337 275.027 106.64 274.501 105.642 274.501C104.657 274.501 103.919 274.973 103.584 275.793H103.475V274.631H102.354V282ZM118.624 274.501C117.619 274.501 116.737 275.014 116.266 275.861H116.156V274.631H115.035V284.461H116.211V280.893H116.32C116.724 281.672 117.571 282.13 118.624 282.13C120.497 282.13 121.721 280.619 121.721 278.315C121.721 275.998 120.504 274.501 118.624 274.501ZM118.344 281.07C117.018 281.07 116.177 280.004 116.177 278.315C116.177 276.62 117.018 275.561 118.351 275.561C119.697 275.561 120.504 276.593 120.504 278.315C120.504 280.038 119.697 281.07 118.344 281.07ZM124.066 282H125.242V277.434C125.242 276.395 126.056 275.643 127.177 275.643C127.409 275.643 127.833 275.684 127.929 275.711V274.535C127.778 274.515 127.532 274.501 127.341 274.501C126.363 274.501 125.516 275.007 125.297 275.725H125.188V274.631H124.066V282ZM132.722 281.07C131.327 281.07 130.541 280.059 130.541 278.315C130.541 276.565 131.327 275.561 132.722 275.561C134.116 275.561 134.902 276.565 134.902 278.315C134.902 280.059 134.116 281.07 132.722 281.07ZM132.722 282.13C134.82 282.13 136.119 280.681 136.119 278.315C136.119 275.943 134.82 274.501 132.722 274.501C130.623 274.501 129.324 275.943 129.324 278.315C129.324 280.681 130.623 282.13 132.722 282.13ZM137.549 274.631L140.276 282H141.479L144.207 274.631H142.949L140.933 280.701H140.823L138.807 274.631H137.549ZM148.945 275.54C150.114 275.54 150.894 276.401 150.921 277.707H146.86C146.949 276.401 147.77 275.54 148.945 275.54ZM150.887 280.093C150.579 280.742 149.937 281.091 148.986 281.091C147.735 281.091 146.922 280.168 146.86 278.712V278.657H152.158V278.206C152.158 275.916 150.948 274.501 148.959 274.501C146.936 274.501 145.637 276.005 145.637 278.322C145.637 280.653 146.915 282.13 148.959 282.13C150.572 282.13 151.707 281.357 152.062 280.093H150.887ZM154.504 282H155.68V277.434C155.68 276.395 156.425 275.561 157.389 275.561C158.318 275.561 158.927 276.121 158.927 276.996V282H160.103V277.263C160.103 276.326 160.786 275.561 161.812 275.561C162.851 275.561 163.363 276.094 163.363 277.181V282H164.539V276.907C164.539 275.362 163.698 274.501 162.194 274.501C161.176 274.501 160.335 275.014 159.938 275.793H159.829C159.487 275.027 158.79 274.501 157.792 274.501C156.808 274.501 156.069 274.973 155.734 275.793H155.625V274.631H154.504V282ZM170.125 275.54C171.294 275.54 172.073 276.401 172.101 277.707H168.04C168.129 276.401 168.949 275.54 170.125 275.54ZM172.066 280.093C171.759 280.742 171.116 281.091 170.166 281.091C168.915 281.091 168.102 280.168 168.04 278.712V278.657H173.338V278.206C173.338 275.916 172.128 274.501 170.139 274.501C168.115 274.501 166.816 276.005 166.816 278.322C166.816 280.653 168.095 282.13 170.139 282.13C171.752 282.13 172.887 281.357 173.242 280.093H172.066ZM175.684 282H176.859V277.639C176.859 276.347 177.639 275.561 178.931 275.561C180.106 275.561 180.667 276.189 180.667 277.516V282H181.843V277.229C181.843 275.479 180.92 274.501 179.266 274.501C178.138 274.501 177.283 274.979 176.914 275.793H176.805V274.631H175.684V282ZM184.988 272.792V274.631H183.751V275.615H184.988V280.086C184.988 281.494 185.597 282.055 187.114 282.055C187.347 282.055 187.559 282.027 187.791 281.986V280.995C187.572 281.016 187.47 281.022 187.258 281.022C186.492 281.022 186.164 280.653 186.164 279.785V275.615H187.873V274.631H186.164V272.792H184.988Z" fill="#292929"/>
<circle cx="61" cy="235" r="20" fill="#D6F5FD"/>
<path d="M61.5059 240C63.6045 240 64.8486 238.968 64.8486 237.231C64.8486 235.926 63.9941 235.003 62.6475 234.832V234.723C63.5977 234.552 64.3496 233.622 64.3496 232.597C64.3496 231.086 63.2422 230.136 61.4307 230.136H57.6572V240H61.5059ZM58.8877 231.223H61.1709C62.3945 231.223 63.1055 231.804 63.1055 232.809C63.1055 233.854 62.3467 234.388 60.8564 234.388H58.8877V231.223ZM58.8877 238.913V235.447H61.2051C62.7773 235.447 63.584 236.028 63.584 237.17C63.584 238.312 62.8047 238.913 61.3213 238.913H58.8877Z" fill="#04679E"/>
<rect x="25" y="303" width="359" height="1" fill="#E6E6E6"/>
<rect x="25" y="199" width="359" height="1" fill="#E6E6E6"/>
<path d="M262 253H272V255H262V253Z" fill="#BDBDBD"/>
<path fill-rule="evenodd" clip-rule="evenodd" d="M368 255V260H370V255H375V253H370V248H368V253H363V255H368Z" fill="#4D4D4D"/>
<path d="M364.335 40.6667L359.001 46.0001M353.668 51.3334L359.001 46.0001M359.001 46.0001L364.335 51.3334M359.001 46.0001L353.668 40.6667" stroke="#292929" stroke-linecap="round" stroke-linejoin="round"/>
<rect x="40" y="730" width="327" height="64" rx="32" fill="#04679E"/>
<path d="M162.539 756.727V768H163.945V763.977H166.781C168.898 763.977 170.406 762.484 170.406 760.375C170.406 758.227 168.93 756.727 166.797 756.727H162.539ZM163.945 757.977H166.43C168.062 757.977 168.961 758.828 168.961 760.375C168.961 761.867 168.031 762.727 166.43 762.727H163.945V757.977ZM172.617 768H173.961V756.234H172.617V768ZM179.164 766.969C178.188 766.969 177.461 766.469 177.461 765.609C177.461 764.766 178.023 764.32 179.305 764.234L181.57 764.086V764.859C181.57 766.062 180.547 766.969 179.164 766.969ZM178.914 768.148C180.039 768.148 180.961 767.656 181.508 766.758H181.633V768H182.914V762.234C182.914 760.484 181.766 759.43 179.711 759.43C177.914 759.43 176.586 760.32 176.406 761.672H177.766C177.953 761.008 178.656 760.625 179.664 760.625C180.922 760.625 181.57 761.195 181.57 762.234V763L179.141 763.148C177.18 763.266 176.07 764.133 176.07 765.641C176.07 767.18 177.281 768.148 178.914 768.148ZM192.367 762.156C192.133 760.656 190.883 759.43 188.836 759.43C186.477 759.43 184.977 761.133 184.977 763.758C184.977 766.438 186.484 768.148 188.844 768.148C190.867 768.148 192.125 767.008 192.367 765.461H191.008C190.758 766.414 189.969 766.938 188.836 766.938C187.336 766.938 186.367 765.703 186.367 763.758C186.367 761.852 187.32 760.641 188.836 760.641C190.047 760.641 190.789 761.32 191.008 762.156H192.367ZM197.711 760.617C199.047 760.617 199.938 761.602 199.969 763.094H195.328C195.43 761.602 196.367 760.617 197.711 760.617ZM199.93 765.82C199.578 766.562 198.844 766.961 197.758 766.961C196.328 766.961 195.398 765.906 195.328 764.242V764.18H201.383V763.664C201.383 761.047 200 759.43 197.727 759.43C195.414 759.43 193.93 761.148 193.93 763.797C193.93 766.461 195.391 768.148 197.727 768.148C199.57 768.148 200.867 767.266 201.273 765.82H199.93ZM212.922 756.461C209.734 756.461 207.742 758.734 207.742 762.359C207.742 765.969 209.688 768.266 212.922 768.266C216.141 768.266 218.078 765.961 218.078 762.359C218.078 758.742 216.125 756.461 212.922 756.461ZM212.922 757.758C215.227 757.758 216.633 759.539 216.633 762.359C216.633 765.156 215.234 766.969 212.922 766.969C210.578 766.969 209.188 765.156 209.188 762.359C209.188 759.539 210.625 757.758 212.922 757.758ZM220.352 768H221.695V762.781C221.695 761.594 222.625 760.734 223.906 760.734C224.172 760.734 224.656 760.781 224.766 760.812V759.469C224.594 759.445 224.312 759.43 224.094 759.43C222.977 759.43 222.008 760.008 221.758 760.828H221.633V759.578H220.352V768ZM229.328 768.148C230.492 768.148 231.492 767.594 232.023 766.656H232.148V768H233.43V756.234H232.086V760.906H231.969C231.492 759.984 230.5 759.43 229.328 759.43C227.188 759.43 225.789 761.148 225.789 763.789C225.789 766.438 227.172 768.148 229.328 768.148ZM229.641 760.641C231.164 760.641 232.117 761.859 232.117 763.789C232.117 765.734 231.172 766.938 229.641 766.938C228.102 766.938 227.18 765.758 227.18 763.789C227.18 761.828 228.109 760.641 229.641 760.641ZM239.398 760.617C240.734 760.617 241.625 761.602 241.656 763.094H237.016C237.117 761.602 238.055 760.617 239.398 760.617ZM241.617 765.82C241.266 766.562 240.531 766.961 239.445 766.961C238.016 766.961 237.086 765.906 237.016 764.242V764.18H243.07V763.664C243.07 761.047 241.688 759.43 239.414 759.43C237.102 759.43 235.617 761.148 235.617 763.797C235.617 766.461 237.078 768.148 239.414 768.148C241.258 768.148 242.555 767.266 242.961 765.82H241.617ZM245.18 768H246.523V762.781C246.523 761.594 247.453 760.734 248.734 760.734C249 760.734 249.484 760.781 249.594 760.812V759.469C249.422 759.445 249.141 759.43 248.922 759.43C247.805 759.43 246.836 760.008 246.586 760.828H246.461V759.578H245.18V768Z" fill="white"/>
</g>
<path d="M93 0H314V25C314 36.0457 305.046 45 294 45H113C101.954 45 93 36.0457 93 25V0Z" fill="url(#paint0_linear)"/>
<path fill-rule="evenodd" clip-rule="evenodd" d="M246 26C249.314 26 252 23.3137 252 20C252 16.6863 249.314 14 246 14C242.686 14 240 16.6863 240 20C240 23.3137 242.686 26 246 26ZM159.5 16C157.015 16 155 18.0147 155 20.5C155 22.9853 157.015 25 159.5 25H221.5C223.985 25 226 22.9853 226 20.5C226 18.0147 223.985 16 221.5 16H159.5Z" fill="#2F2929"/>
<defs>
<filter id="filter0_ii" x="-10" y="-10" width="427" height="874" filterUnits="userSpaceOnUse" color-interpolation-filters="sRGB">
<feFlood flood-opacity="0" result="BackgroundImageFix"/>
<feBlend mode="normal" in="SourceGraphic" in2="BackgroundImageFix" result="shape"/>
<feColorMatrix in="SourceAlpha" type="matrix" values="0 0 0 0 0 0 0 0 0 0 0 0 0 0 0 0 0 0 127 0" result="hardAlpha"/>
<feOffset dx="-10" dy="-10"/>
<feGaussianBlur stdDeviation="5"/>
<feComposite in2="hardAlpha" operator="arithmetic" k2="-1" k3="1"/>
<feColorMatrix type="matrix" values="0 0 0 0 0 0 0 0 0 0 0 0 0 0 0 0 0 0 0.2 0"/>
<feBlend mode="normal" in2="shape" result="effect1_innerShadow"/>
<feColorMatrix in="SourceAlpha" type="matrix" values="0 0 0 0 0 0 0 0 0 0 0 0 0 0 0 0 0 0 127 0" result="hardAlpha"/>
<feOffset dx="10" dy="10"/>
<feGaussianBlur stdDeviation="5"/>
<feComposite in2="hardAlpha" operator="arithmetic" k2="-1" k3="1"/>
<feColorMatrix type="matrix" values="0 0 0 0 1 0 0 0 0 1 0 0 0 0 1 0 0 0 0.2 0"/>
<feBlend mode="normal" in2="effect1_innerShadow" result="effect2_innerShadow"/>
</filter>
<linearGradient id="paint0_linear" x1="203.5" y1="0" x2="203.5" y2="45" gradientUnits="userSpaceOnUse">
<stop stop-color="#504E4E"/>
<stop offset="1" stop-color="#242222"/>
</linearGradient>
<clipPath id="clip0">
<path d="M16 64C16 36.3858 38.3858 14 66 14H341C368.614 14 391 36.3858 391 64V790C391 817.614 368.614 840 341 840H66C38.3858 840 16 817.614 16 790V64Z" fill="white"/>
</clipPath>
</defs>
</svg>
