<svg width="2378" height="471" viewBox="0 0 2378 471" fill="none" xmlns="http://www.w3.org/2000/svg">
<rect width="2378" height="471" fill="white"/>
<path d="M582.121 222.121C583.293 220.95 583.293 219.05 582.121 217.879L563.029 198.787C561.858 197.615 559.958 197.615 558.787 198.787C557.615 199.958 557.615 201.858 558.787 203.029L575.757 220L558.787 236.971C557.615 238.142 557.615 240.042 558.787 241.213C559.958 242.385 561.858 242.385 563.029 241.213L582.121 222.121ZM491 223H580V217H491V223Z" fill="#A7A5A5"/>
<path d="M1202.12 222.121C1203.29 220.95 1203.29 219.05 1202.12 217.879L1183.03 198.787C1181.86 197.615 1179.96 197.615 1178.79 198.787C1177.62 199.958 1177.62 201.858 1178.79 203.029L1195.76 220L1178.79 236.971C1177.62 238.142 1177.62 240.042 1178.79 241.213C1179.96 242.385 1181.86 242.385 1183.03 241.213L1202.12 222.121ZM1111 223H1200V217H1111V223Z" fill="#A7A5A5"/>
<path d="M1822.12 222.121C1823.29 220.95 1823.29 219.05 1822.12 217.879L1803.03 198.787C1801.86 197.615 1799.96 197.615 1798.79 198.787C1797.62 199.958 1797.62 201.858 1798.79 203.029L1815.76 220L1798.79 236.971C1797.62 238.142 1797.62 240.042 1798.79 241.213C1799.96 242.385 1801.86 242.385 1803.03 241.213L1822.12 222.121ZM1731 223H1820V217H1731V223Z" fill="#A7A5A5"/>
<path d="M904.121 222.121C905.293 220.95 905.293 219.05 904.121 217.879L885.029 198.787C883.858 197.615 881.958 197.615 880.787 198.787C879.615 199.958 879.615 201.858 880.787 203.029L897.757 220L880.787 236.971C879.615 238.142 879.615 240.042 880.787 241.213C881.958 242.385 883.858 242.385 885.029 241.213L904.121 222.121ZM813 223H902V217H813V223Z" fill="#A7A5A5"/>
<path d="M1524.12 222.121C1525.29 220.95 1525.29 219.05 1524.12 217.879L1505.03 198.787C1503.86 197.615 1501.96 197.615 1500.79 198.787C1499.62 199.958 1499.62 201.858 1500.79 203.029L1517.76 220L1500.79 236.971C1499.62 238.142 1499.62 240.042 1500.79 241.213C1501.96 242.385 1503.86 242.385 1505.03 241.213L1524.12 222.121ZM1433 223H1522V217H1433V223Z" fill="#A7A5A5"/>
<circle cx="418" cy="220" r="84" fill="white" stroke="#D8D8D8" stroke-width="2"/>
<path d="M390 216L388.93 213.026H384.836L383.789 216H381.943L385.949 205.248H387.854L391.86 216H390ZM388.469 211.518L387.465 208.603C387.392 208.407 387.29 208.1 387.158 207.68C387.031 207.26 386.943 206.952 386.894 206.757C386.762 207.357 386.569 208.014 386.315 208.727L385.349 211.518H388.469ZM397.829 206.64C396.823 206.64 396.032 206.996 395.456 207.709C394.88 208.422 394.592 209.406 394.592 210.661C394.592 211.974 394.868 212.968 395.419 213.642C395.976 214.315 396.779 214.652 397.829 214.652C398.283 214.652 398.723 214.608 399.147 214.521C399.572 214.428 400.014 214.311 400.473 214.169V215.67C399.633 215.988 398.681 216.146 397.617 216.146C396.049 216.146 394.846 215.673 394.006 214.726C393.166 213.773 392.746 212.414 392.746 210.646C392.746 209.533 392.949 208.559 393.354 207.724C393.764 206.889 394.355 206.249 395.126 205.805C395.898 205.36 396.804 205.138 397.844 205.138C398.938 205.138 399.948 205.368 400.876 205.827L400.246 207.284C399.885 207.113 399.501 206.964 399.096 206.837C398.696 206.706 398.273 206.64 397.829 206.64ZM407.336 206.64C406.33 206.64 405.539 206.996 404.963 207.709C404.387 208.422 404.099 209.406 404.099 210.661C404.099 211.974 404.375 212.968 404.926 213.642C405.483 214.315 406.286 214.652 407.336 214.652C407.79 214.652 408.229 214.608 408.654 214.521C409.079 214.428 409.521 214.311 409.98 214.169V215.67C409.14 215.988 408.188 216.146 407.124 216.146C405.556 216.146 404.353 215.673 403.513 214.726C402.673 213.773 402.253 212.414 402.253 210.646C402.253 209.533 402.456 208.559 402.861 207.724C403.271 206.889 403.862 206.249 404.633 205.805C405.405 205.36 406.311 205.138 407.351 205.138C408.444 205.138 409.455 205.368 410.383 205.827L409.753 207.284C409.392 207.113 409.008 206.964 408.603 206.837C408.203 206.706 407.78 206.64 407.336 206.64ZM421.794 210.631C421.794 212.375 421.357 213.729 420.483 214.696C419.614 215.663 418.381 216.146 416.784 216.146C415.168 216.146 413.925 215.668 413.056 214.711C412.192 213.749 411.76 212.384 411.76 210.617C411.76 208.849 412.194 207.492 413.063 206.544C413.938 205.597 415.183 205.124 416.799 205.124C418.391 205.124 419.621 205.604 420.49 206.566C421.359 207.528 421.794 208.883 421.794 210.631ZM413.62 210.631C413.62 211.95 413.886 212.951 414.418 213.634C414.951 214.313 415.739 214.652 416.784 214.652C417.824 214.652 418.608 214.315 419.135 213.642C419.667 212.968 419.934 211.964 419.934 210.631C419.934 209.318 419.67 208.322 419.143 207.643C418.62 206.964 417.839 206.625 416.799 206.625C415.749 206.625 414.956 206.964 414.418 207.643C413.886 208.322 413.62 209.318 413.62 210.631ZM432.487 205.292V212.221C432.487 213.012 432.316 213.705 431.975 214.301C431.638 214.892 431.147 215.348 430.502 215.67C429.863 215.988 429.096 216.146 428.203 216.146C426.875 216.146 425.842 215.795 425.104 215.092C424.367 214.389 423.999 213.422 423.999 212.191V205.292H425.756V212.067C425.756 212.951 425.961 213.603 426.372 214.022C426.782 214.442 427.412 214.652 428.261 214.652C429.912 214.652 430.737 213.786 430.737 212.052V205.292H432.487ZM444.147 216H442.001L436.735 207.467H436.677L436.713 207.943C436.782 208.852 436.816 209.682 436.816 210.434V216H435.227V205.292H437.351L442.602 213.781H442.646C442.636 213.668 442.617 213.261 442.587 212.558C442.558 211.85 442.543 211.298 442.543 210.902V205.292H444.147V216ZM450.673 216H448.923V206.793H445.773V205.292H453.823V206.793H450.673V216ZM381.782 230.543C381.782 232.311 381.291 233.664 380.31 234.601C379.328 235.534 377.915 236 376.069 236H373.073V225.292H376.384C378.088 225.292 379.414 225.751 380.361 226.669C381.308 227.587 381.782 228.878 381.782 230.543ZM379.936 230.602C379.936 228.039 378.737 226.757 376.34 226.757H374.824V234.528H376.069C378.647 234.528 379.936 233.219 379.936 230.602ZM390.732 236L389.663 233.026H385.568L384.521 236H382.675L386.682 225.248H388.586L392.592 236H390.732ZM389.201 231.518L388.198 228.603C388.125 228.407 388.022 228.1 387.89 227.68C387.763 227.26 387.675 226.952 387.626 226.757C387.495 227.357 387.302 228.014 387.048 228.727L386.081 231.518H389.201ZM400.18 233.092C400.18 234.044 399.836 234.792 399.147 235.333C398.459 235.875 397.509 236.146 396.298 236.146C395.087 236.146 394.096 235.958 393.325 235.583V233.927C393.813 234.157 394.331 234.337 394.877 234.469C395.429 234.601 395.942 234.667 396.416 234.667C397.109 234.667 397.619 234.535 397.946 234.271C398.278 234.008 398.444 233.654 398.444 233.209C398.444 232.809 398.293 232.47 397.99 232.191C397.688 231.913 397.062 231.583 396.115 231.203C395.139 230.807 394.45 230.355 394.05 229.848C393.649 229.34 393.449 228.729 393.449 228.017C393.449 227.123 393.767 226.42 394.401 225.907C395.036 225.395 395.888 225.138 396.958 225.138C397.983 225.138 399.003 225.363 400.019 225.812L399.462 227.24C398.51 226.84 397.661 226.64 396.914 226.64C396.347 226.64 395.917 226.764 395.625 227.013C395.332 227.257 395.185 227.582 395.185 227.987C395.185 228.266 395.244 228.505 395.361 228.705C395.478 228.9 395.671 229.086 395.939 229.262C396.208 229.438 396.691 229.669 397.39 229.958C398.176 230.285 398.752 230.59 399.118 230.873C399.484 231.156 399.753 231.476 399.924 231.833C400.095 232.189 400.18 232.609 400.18 233.092ZM410.698 236H408.94V231.173H404.003V236H402.253V225.292H404.003V229.672H408.94V225.292H410.698V236ZM413.518 225.292H416.696C418.171 225.292 419.235 225.507 419.89 225.937C420.549 226.366 420.878 227.045 420.878 227.973C420.878 228.598 420.717 229.118 420.395 229.533C420.073 229.948 419.609 230.209 419.003 230.316V230.39C419.755 230.531 420.307 230.812 420.659 231.232C421.015 231.647 421.193 232.211 421.193 232.924C421.193 233.886 420.856 234.64 420.183 235.187C419.514 235.729 418.581 236 417.385 236H413.518V225.292ZM415.268 229.716H416.953C417.685 229.716 418.22 229.601 418.557 229.372C418.894 229.137 419.062 228.742 419.062 228.185C419.062 227.682 418.879 227.318 418.513 227.094C418.151 226.869 417.575 226.757 416.784 226.757H415.268V229.716ZM415.268 231.137V234.528H417.128C417.861 234.528 418.413 234.389 418.784 234.11C419.16 233.827 419.348 233.383 419.348 232.777C419.348 232.221 419.157 231.808 418.776 231.54C418.396 231.271 417.817 231.137 417.041 231.137H415.268ZM432.927 230.631C432.927 232.375 432.49 233.729 431.616 234.696C430.747 235.663 429.514 236.146 427.917 236.146C426.301 236.146 425.058 235.668 424.189 234.711C423.325 233.749 422.893 232.384 422.893 230.617C422.893 228.849 423.327 227.492 424.196 226.544C425.07 225.597 426.315 225.124 427.932 225.124C429.523 225.124 430.754 225.604 431.623 226.566C432.492 227.528 432.927 228.883 432.927 230.631ZM424.753 230.631C424.753 231.95 425.019 232.951 425.551 233.634C426.083 234.313 426.872 234.652 427.917 234.652C428.957 234.652 429.741 234.315 430.268 233.642C430.8 232.968 431.066 231.964 431.066 230.631C431.066 229.318 430.803 228.322 430.275 227.643C429.753 226.964 428.972 226.625 427.932 226.625C426.882 226.625 426.088 226.964 425.551 227.643C425.019 228.322 424.753 229.318 424.753 230.631ZM441.87 236L440.8 233.026H436.706L435.659 236H433.813L437.819 225.248H439.724L443.73 236H441.87ZM440.339 231.518L439.335 228.603C439.262 228.407 439.16 228.1 439.028 227.68C438.901 227.26 438.813 226.952 438.764 226.757C438.632 227.357 438.439 228.014 438.186 228.727L437.219 231.518H440.339ZM446.894 230.272H448.11C448.925 230.272 449.516 230.121 449.882 229.818C450.249 229.516 450.432 229.066 450.432 228.471C450.432 227.865 450.234 227.431 449.838 227.167C449.443 226.903 448.847 226.771 448.051 226.771H446.894V230.272ZM446.894 231.723V236H445.144V225.292H448.168C449.55 225.292 450.573 225.551 451.237 226.068C451.901 226.586 452.233 227.367 452.233 228.412C452.233 229.745 451.54 230.695 450.153 231.261L453.178 236H451.186L448.623 231.723H446.894ZM463.447 230.543C463.447 232.311 462.956 233.664 461.975 234.601C460.993 235.534 459.58 236 457.734 236H454.738V225.292H458.049C459.753 225.292 461.079 225.751 462.026 226.669C462.973 227.587 463.447 228.878 463.447 230.543ZM461.601 230.602C461.601 228.039 460.402 226.757 458.005 226.757H456.489V234.528H457.734C460.312 234.528 461.601 233.219 461.601 230.602Z" fill="#4D4D4D"/>
<circle cx="1960" cy="220" r="84" fill="white" stroke="#D8D8D8" stroke-width="2"/>
<path d="M1916.83 216H1910.77V205.292H1916.83V206.771H1912.52V209.687H1916.56V211.151H1912.52V214.513H1916.83V216ZM1928.07 216H1925.93L1920.66 207.467H1920.6L1920.64 207.943C1920.71 208.852 1920.74 209.682 1920.74 210.434V216H1919.15V205.292H1921.28L1926.53 213.781H1926.57C1926.56 213.668 1926.54 213.261 1926.51 212.558C1926.48 211.85 1926.47 211.298 1926.47 210.902V205.292H1928.07V216ZM1934.6 216H1932.85V206.793H1929.7V205.292H1937.75V206.793H1934.6V216ZM1945.45 216H1939.4V205.292H1945.45V206.771H1941.15V209.687H1945.18V211.151H1941.15V214.513H1945.45V216ZM1949.53 210.272H1950.74C1951.56 210.272 1952.15 210.121 1952.51 209.818C1952.88 209.516 1953.06 209.066 1953.06 208.471C1953.06 207.865 1952.87 207.431 1952.47 207.167C1952.08 206.903 1951.48 206.771 1950.68 206.771H1949.53V210.272ZM1949.53 211.723V216H1947.78V205.292H1950.8C1952.18 205.292 1953.21 205.551 1953.87 206.068C1954.53 206.586 1954.87 207.367 1954.87 208.412C1954.87 209.745 1954.17 210.695 1952.79 211.261L1955.81 216H1953.82L1951.25 211.723H1949.53ZM1961.27 216V205.292H1963.02V216H1961.27ZM1974.77 216H1972.63L1967.36 207.467H1967.3L1967.34 207.943C1967.41 208.852 1967.44 209.682 1967.44 210.434V216H1965.85V205.292H1967.98L1973.23 213.781H1973.27C1973.26 213.668 1973.24 213.261 1973.21 212.558C1973.18 211.85 1973.17 211.298 1973.17 210.902V205.292H1974.77V216ZM1983.7 205.292H1985.52L1981.77 216H1979.92L1976.19 205.292H1977.99L1980.22 211.95C1980.34 212.267 1980.46 212.677 1980.6 213.18C1980.73 213.678 1980.81 214.049 1980.85 214.293C1980.92 213.922 1981.01 213.493 1981.15 213.004C1981.28 212.516 1981.38 212.155 1981.47 211.92L1983.7 205.292ZM1992.99 216H1986.93V205.292H1992.99V206.771H1988.68V209.687H1992.72V211.151H1988.68V214.513H1992.99V216ZM2001.48 213.092C2001.48 214.044 2001.14 214.792 2000.45 215.333C1999.76 215.875 1998.81 216.146 1997.6 216.146C1996.39 216.146 1995.4 215.958 1994.63 215.583V213.927C1995.12 214.157 1995.63 214.337 1996.18 214.469C1996.73 214.601 1997.25 214.667 1997.72 214.667C1998.41 214.667 1998.92 214.535 1999.25 214.271C1999.58 214.008 1999.75 213.654 1999.75 213.209C1999.75 212.809 1999.6 212.47 1999.29 212.191C1998.99 211.913 1998.37 211.583 1997.42 211.203C1996.44 210.807 1995.75 210.355 1995.35 209.848C1994.95 209.34 1994.75 208.729 1994.75 208.017C1994.75 207.123 1995.07 206.42 1995.71 205.907C1996.34 205.395 1997.19 205.138 1998.26 205.138C1999.29 205.138 2000.31 205.363 2001.32 205.812L2000.77 207.24C1999.81 206.84 1998.96 206.64 1998.22 206.64C1997.65 206.64 1997.22 206.764 1996.93 207.013C1996.64 207.257 1996.49 207.582 1996.49 207.987C1996.49 208.266 1996.55 208.505 1996.67 208.705C1996.78 208.9 1996.98 209.086 1997.24 209.262C1997.51 209.438 1998 209.669 1998.69 209.958C1999.48 210.285 2000.06 210.59 2000.42 210.873C2000.79 211.156 2001.06 211.476 2001.23 211.833C2001.4 212.189 2001.48 212.609 2001.48 213.092ZM2007.26 216H2005.51V206.793H2002.36V205.292H2010.41V206.793H2007.26V216ZM1942.09 236H1940.36V225.292H1946.4V226.771H1942.09V230.119H1946.13V231.605H1942.09V236ZM1948.34 236V225.292H1950.09V234.499H1954.62V236H1948.34ZM1965.98 230.631C1965.98 232.375 1965.54 233.729 1964.67 234.696C1963.8 235.663 1962.56 236.146 1960.97 236.146C1959.35 236.146 1958.11 235.668 1957.24 234.711C1956.37 233.749 1955.94 232.384 1955.94 230.617C1955.94 228.849 1956.38 227.492 1957.25 226.544C1958.12 225.597 1959.37 225.124 1960.98 225.124C1962.57 225.124 1963.8 225.604 1964.67 226.566C1965.54 227.528 1965.98 228.883 1965.98 230.631ZM1957.8 230.631C1957.8 231.95 1958.07 232.951 1958.6 233.634C1959.13 234.313 1959.92 234.652 1960.97 234.652C1962.01 234.652 1962.79 234.315 1963.32 233.642C1963.85 232.968 1964.12 231.964 1964.12 230.631C1964.12 229.318 1963.85 228.322 1963.33 227.643C1962.8 226.964 1962.02 226.625 1960.98 226.625C1959.93 226.625 1959.14 226.964 1958.6 227.643C1958.07 228.322 1957.8 229.318 1957.8 230.631ZM1978.16 236H1976.25L1974.44 229.613C1974.36 229.335 1974.26 228.935 1974.14 228.412C1974.03 227.885 1973.96 227.519 1973.93 227.313C1973.88 227.626 1973.8 228.031 1973.69 228.529C1973.58 229.027 1973.49 229.398 1973.42 229.643L1971.65 236H1969.74L1968.36 230.639L1966.95 225.292H1968.74L1970.27 231.532C1970.51 232.533 1970.68 233.417 1970.78 234.184C1970.83 233.769 1970.92 233.305 1971.02 232.792C1971.13 232.279 1971.23 231.864 1971.32 231.547L1973.06 225.292H1974.79L1976.58 231.576C1976.75 232.157 1976.93 233.026 1977.12 234.184C1977.2 233.485 1977.37 232.597 1977.65 231.518L1979.17 225.292H1980.95L1978.16 236Z" fill="#4D4D4D"/>
<rect x="934" y="150" width="200" height="200" rx="19" fill="white" stroke="#D8D8D8" stroke-width="2"/>
<path d="M960.164 187.272H961.38C962.195 187.272 962.786 187.121 963.152 186.818C963.519 186.516 963.702 186.066 963.702 185.471C963.702 184.865 963.504 184.431 963.108 184.167C962.713 183.903 962.117 183.771 961.321 183.771H960.164V187.272ZM960.164 188.723V193H958.414V182.292H961.438C962.82 182.292 963.843 182.551 964.507 183.068C965.171 183.586 965.503 184.367 965.503 185.412C965.503 186.745 964.81 187.695 963.423 188.261L966.448 193H964.456L961.893 188.723H960.164ZM974.065 193H968.008V182.292H974.065V183.771H969.759V186.687H973.794V188.151H969.759V191.513H974.065V193ZM982.488 182.292H984.305L980.555 193H978.709L974.974 182.292H976.775L979.009 188.95C979.126 189.267 979.251 189.677 979.383 190.18C979.515 190.678 979.6 191.049 979.639 191.293C979.703 190.922 979.8 190.493 979.932 190.004C980.064 189.516 980.171 189.155 980.254 188.92L982.488 182.292ZM985.718 193V182.292H987.469V193H985.718ZM996.36 193H990.303V182.292H996.36V183.771H992.054V186.687H996.089V188.151H992.054V191.513H996.36V193ZM1008.56 193H1006.66L1004.84 186.613C1004.76 186.335 1004.67 185.935 1004.55 185.412C1004.43 184.885 1004.36 184.519 1004.34 184.313C1004.29 184.626 1004.21 185.031 1004.09 185.529C1003.99 186.027 1003.9 186.398 1003.82 186.643L1002.05 193H1000.15L998.763 187.639L997.356 182.292H999.144L1000.67 188.532C1000.91 189.533 1001.08 190.417 1001.19 191.184C1001.24 190.769 1001.32 190.305 1001.43 189.792C1001.54 189.279 1001.63 188.864 1001.72 188.547L1003.46 182.292H1005.2L1006.99 188.576C1007.16 189.157 1007.34 190.026 1007.53 191.184C1007.6 190.485 1007.78 189.597 1008.06 188.518L1009.58 182.292H1011.35L1008.56 193ZM1025.48 187.543C1025.48 189.311 1024.99 190.664 1024.01 191.601C1023.03 192.534 1021.61 193 1019.77 193H1016.77V182.292H1020.08C1021.79 182.292 1023.11 182.751 1024.06 183.669C1025.01 184.587 1025.48 185.878 1025.48 187.543ZM1023.64 187.602C1023.64 185.039 1022.44 183.757 1020.04 183.757H1018.52V191.528H1019.77C1022.35 191.528 1023.64 190.219 1023.64 187.602ZM1033.85 193H1027.79V182.292H1033.85V183.771H1029.54V186.687H1033.57V188.151H1029.54V191.513H1033.85V193ZM1039.87 193H1038.12V183.793H1034.97V182.292H1043.02V183.793H1039.87V193ZM1051.31 193L1050.24 190.026H1046.14L1045.1 193H1043.25L1047.26 182.248H1049.16L1053.17 193H1051.31ZM1049.78 188.518L1048.77 185.603C1048.7 185.407 1048.6 185.1 1048.46 184.68C1048.34 184.26 1048.25 183.952 1048.2 183.757C1048.07 184.357 1047.88 185.014 1047.62 185.727L1046.66 188.518H1049.78ZM1054.58 193V182.292H1056.33V193H1054.58ZM1059.17 193V182.292H1060.92V191.499H1065.45V193H1059.17ZM1073.47 190.092C1073.47 191.044 1073.13 191.792 1072.44 192.333C1071.75 192.875 1070.8 193.146 1069.59 193.146C1068.38 193.146 1067.39 192.958 1066.61 192.583V190.927C1067.1 191.157 1067.62 191.337 1068.17 191.469C1068.72 191.601 1069.23 191.667 1069.71 191.667C1070.4 191.667 1070.91 191.535 1071.24 191.271C1071.57 191.008 1071.73 190.654 1071.73 190.209C1071.73 189.809 1071.58 189.47 1071.28 189.191C1070.98 188.913 1070.35 188.583 1069.4 188.203C1068.43 187.807 1067.74 187.355 1067.34 186.848C1066.94 186.34 1066.74 185.729 1066.74 185.017C1066.74 184.123 1067.06 183.42 1067.69 182.907C1068.33 182.395 1069.18 182.138 1070.25 182.138C1071.27 182.138 1072.29 182.363 1073.31 182.812L1072.75 184.24C1071.8 183.84 1070.95 183.64 1070.2 183.64C1069.64 183.64 1069.21 183.764 1068.91 184.013C1068.62 184.257 1068.47 184.582 1068.47 184.987C1068.47 185.266 1068.53 185.505 1068.65 185.705C1068.77 185.9 1068.96 186.086 1069.23 186.262C1069.5 186.438 1069.98 186.669 1070.68 186.958C1071.47 187.285 1072.04 187.59 1072.41 187.873C1072.77 188.156 1073.04 188.476 1073.21 188.833C1073.38 189.189 1073.47 189.609 1073.47 190.092Z" fill="#4D4D4D"/>
<path d="M958.963 236V221.723H960.623V236H958.963ZM969.129 226.557H966.404V236H964.783V226.557H962.869V225.824L964.783 225.238V224.643C964.783 222.012 965.932 220.697 968.23 220.697C968.797 220.697 969.461 220.811 970.223 221.039L969.803 222.338C969.178 222.136 968.644 222.035 968.201 222.035C967.589 222.035 967.137 222.24 966.844 222.65C966.551 223.054 966.404 223.705 966.404 224.604V225.297H969.129V226.557ZM981.258 225.121C982.664 225.121 983.755 225.603 984.529 226.566C985.311 227.523 985.701 228.881 985.701 230.639C985.701 232.396 985.307 233.764 984.52 234.74C983.738 235.71 982.651 236.195 981.258 236.195C980.561 236.195 979.923 236.068 979.344 235.814C978.771 235.554 978.289 235.157 977.898 234.623H977.781L977.439 236H976.277V220.805H977.898V224.496C977.898 225.323 977.872 226.065 977.82 226.723H977.898C978.654 225.655 979.773 225.121 981.258 225.121ZM981.023 226.479C979.917 226.479 979.119 226.798 978.631 227.436C978.143 228.067 977.898 229.135 977.898 230.639C977.898 232.143 978.149 233.22 978.65 233.871C979.152 234.516 979.956 234.838 981.062 234.838C982.059 234.838 982.801 234.477 983.289 233.754C983.777 233.025 984.021 231.98 984.021 230.619C984.021 229.226 983.777 228.188 983.289 227.504C982.801 226.82 982.046 226.479 981.023 226.479ZM995.125 236L994.803 234.477H994.725C994.191 235.147 993.657 235.603 993.123 235.844C992.596 236.078 991.935 236.195 991.141 236.195C990.079 236.195 989.246 235.922 988.641 235.375C988.042 234.828 987.742 234.05 987.742 233.041C987.742 230.88 989.471 229.747 992.928 229.643L994.744 229.584V228.92C994.744 228.08 994.562 227.462 994.197 227.064C993.839 226.661 993.263 226.459 992.469 226.459C991.577 226.459 990.568 226.732 989.441 227.279L988.943 226.039C989.471 225.753 990.047 225.528 990.672 225.365C991.303 225.202 991.935 225.121 992.566 225.121C993.842 225.121 994.786 225.404 995.398 225.971C996.017 226.537 996.326 227.445 996.326 228.695V236H995.125ZM991.463 234.857C992.472 234.857 993.263 234.581 993.836 234.027C994.415 233.474 994.705 232.699 994.705 231.703V230.736L993.084 230.805C991.795 230.85 990.864 231.052 990.291 231.41C989.725 231.762 989.441 232.312 989.441 233.061C989.441 233.646 989.617 234.092 989.969 234.398C990.327 234.704 990.825 234.857 991.463 234.857ZM1001.3 236H999.676V220.805H1001.3V236ZM1011.32 236L1010.99 234.477H1010.92C1010.38 235.147 1009.85 235.603 1009.31 235.844C1008.79 236.078 1008.13 236.195 1007.33 236.195C1006.27 236.195 1005.44 235.922 1004.83 235.375C1004.23 234.828 1003.93 234.05 1003.93 233.041C1003.93 230.88 1005.66 229.747 1009.12 229.643L1010.94 229.584V228.92C1010.94 228.08 1010.75 227.462 1010.39 227.064C1010.03 226.661 1009.45 226.459 1008.66 226.459C1007.77 226.459 1006.76 226.732 1005.63 227.279L1005.13 226.039C1005.66 225.753 1006.24 225.528 1006.86 225.365C1007.49 225.202 1008.13 225.121 1008.76 225.121C1010.03 225.121 1010.98 225.404 1011.59 225.971C1012.21 226.537 1012.52 227.445 1012.52 228.695V236H1011.32ZM1007.65 234.857C1008.66 234.857 1009.45 234.581 1010.03 234.027C1010.61 233.474 1010.9 232.699 1010.9 231.703V230.736L1009.28 230.805C1007.99 230.85 1007.06 231.052 1006.48 231.41C1005.92 231.762 1005.63 232.312 1005.63 233.061C1005.63 233.646 1005.81 234.092 1006.16 234.398C1006.52 234.704 1007.02 234.857 1007.65 234.857ZM1023.19 236V229.076C1023.19 228.204 1022.99 227.553 1022.6 227.123C1022.2 226.693 1021.58 226.479 1020.73 226.479C1019.61 226.479 1018.79 226.781 1018.27 227.387C1017.75 227.992 1017.49 228.992 1017.49 230.385V236H1015.87V225.297H1017.19L1017.45 226.762H1017.53C1017.86 226.234 1018.32 225.827 1018.92 225.541C1019.52 225.248 1020.19 225.102 1020.93 225.102C1022.21 225.102 1023.18 225.414 1023.84 226.039C1024.49 226.658 1024.81 227.65 1024.81 229.018V236H1023.19ZM1032.43 236.195C1030.88 236.195 1029.68 235.72 1028.83 234.77C1027.98 233.812 1027.56 232.462 1027.56 230.717C1027.56 228.926 1027.99 227.543 1028.85 226.566C1029.71 225.59 1030.94 225.102 1032.54 225.102C1033.05 225.102 1033.57 225.157 1034.08 225.268C1034.59 225.378 1035 225.508 1035.29 225.658L1034.79 227.035C1034.43 226.892 1034.04 226.775 1033.62 226.684C1033.2 226.586 1032.82 226.537 1032.5 226.537C1030.32 226.537 1029.24 227.924 1029.24 230.697C1029.24 232.012 1029.5 233.021 1030.03 233.725C1030.56 234.428 1031.35 234.779 1032.39 234.779C1033.28 234.779 1034.2 234.587 1035.13 234.203V235.639C1034.42 236.01 1033.52 236.195 1032.43 236.195ZM1042.21 236.195C1040.62 236.195 1039.37 235.714 1038.46 234.75C1037.54 233.786 1037.09 232.449 1037.09 230.736C1037.09 229.011 1037.51 227.641 1038.36 226.625C1039.21 225.609 1040.35 225.102 1041.79 225.102C1043.13 225.102 1044.19 225.544 1044.97 226.43C1045.75 227.309 1046.14 228.471 1046.14 229.916V230.941H1038.77C1038.8 232.198 1039.12 233.152 1039.71 233.803C1040.32 234.454 1041.17 234.779 1042.26 234.779C1043.42 234.779 1044.56 234.538 1045.68 234.057V235.502C1045.11 235.749 1044.57 235.925 1044.05 236.029C1043.54 236.14 1042.93 236.195 1042.21 236.195ZM1041.77 226.459C1040.91 226.459 1040.22 226.739 1039.71 227.299C1039.2 227.859 1038.9 228.633 1038.81 229.623H1044.4C1044.4 228.601 1044.17 227.82 1043.72 227.279C1043.26 226.732 1042.61 226.459 1041.77 226.459ZM1053.41 232.162L1061.05 228.979L1053.41 225.336V223.881L1062.79 228.559V229.516L1053.41 233.637V232.162ZM1079.15 231.615C1079.15 232.501 1078.82 233.233 1078.15 233.812C1077.49 234.385 1076.56 234.747 1075.37 234.896V237.162H1074.11V234.984C1073.38 234.984 1072.67 234.929 1071.99 234.818C1071.31 234.701 1070.75 234.542 1070.31 234.34V232.816C1070.85 233.057 1071.47 233.256 1072.18 233.412C1072.89 233.562 1073.53 233.637 1074.11 233.637V229.34C1072.77 228.917 1071.84 228.425 1071.3 227.865C1070.76 227.305 1070.5 226.583 1070.5 225.697C1070.5 224.844 1070.82 224.145 1071.48 223.598C1072.15 223.051 1073.02 222.719 1074.11 222.602V220.824H1075.37V222.582C1076.57 222.615 1077.72 222.855 1078.84 223.305L1078.33 224.584C1077.36 224.2 1076.37 223.972 1075.37 223.9V228.139C1076.39 228.464 1077.16 228.783 1077.66 229.096C1078.17 229.402 1078.55 229.757 1078.79 230.16C1079.03 230.557 1079.15 231.042 1079.15 231.615ZM1077.49 231.742C1077.49 231.273 1077.34 230.896 1077.05 230.609C1076.76 230.316 1076.2 230.027 1075.37 229.74V233.539C1076.78 233.344 1077.49 232.745 1077.49 231.742ZM1072.15 225.678C1072.15 226.173 1072.29 226.57 1072.59 226.869C1072.88 227.169 1073.39 227.452 1074.11 227.719V223.939C1073.46 224.044 1072.98 224.249 1072.64 224.555C1072.31 224.854 1072.15 225.229 1072.15 225.678ZM1090.84 236H1081.45V234.604L1085.21 230.824C1086.36 229.665 1087.11 228.839 1087.48 228.344C1087.84 227.849 1088.12 227.367 1088.3 226.898C1088.48 226.43 1088.57 225.925 1088.57 225.385C1088.57 224.623 1088.34 224.021 1087.88 223.578C1087.42 223.129 1086.78 222.904 1085.96 222.904C1085.36 222.904 1084.8 223.002 1084.27 223.197C1083.74 223.393 1083.15 223.747 1082.5 224.262L1081.64 223.158C1082.95 222.064 1084.39 221.518 1085.94 221.518C1087.28 221.518 1088.33 221.863 1089.09 222.553C1089.85 223.236 1090.23 224.158 1090.23 225.316C1090.23 226.221 1089.98 227.117 1089.47 228.002C1088.96 228.887 1088.01 230.007 1086.62 231.361L1083.49 234.418V234.496H1090.84V236ZM1097.36 227.279C1098.87 227.279 1100.05 227.654 1100.91 228.402C1101.77 229.145 1102.21 230.163 1102.21 231.459C1102.21 232.937 1101.73 234.096 1100.79 234.936C1099.85 235.775 1098.56 236.195 1096.9 236.195C1095.29 236.195 1094.07 235.938 1093.22 235.424V233.861C1093.68 234.154 1094.24 234.385 1094.92 234.555C1095.6 234.717 1096.26 234.799 1096.92 234.799C1098.07 234.799 1098.96 234.529 1099.59 233.988C1100.23 233.448 1100.54 232.667 1100.54 231.645C1100.54 229.652 1099.32 228.656 1096.88 228.656C1096.26 228.656 1095.44 228.751 1094.4 228.939L1093.56 228.402L1094.1 221.723H1101.2V223.217H1095.49L1095.12 227.504C1095.87 227.354 1096.62 227.279 1097.36 227.279ZM1106.79 233.676L1106.93 233.9C1106.76 234.551 1106.52 235.307 1106.2 236.166C1105.88 237.032 1105.55 237.836 1105.2 238.578H1103.98C1104.16 237.901 1104.35 237.064 1104.56 236.068C1104.77 235.072 1104.92 234.275 1105.01 233.676H1106.79ZM960.34 264H958.719V248.805H960.34V264ZM965.398 264H963.777V253.297H965.398V264ZM963.641 250.396C963.641 250.025 963.732 249.755 963.914 249.586C964.096 249.41 964.324 249.322 964.598 249.322C964.858 249.322 965.083 249.41 965.271 249.586C965.46 249.762 965.555 250.032 965.555 250.396C965.555 250.761 965.46 251.035 965.271 251.217C965.083 251.393 964.858 251.48 964.598 251.48C964.324 251.48 964.096 251.393 963.914 251.217C963.732 251.035 963.641 250.761 963.641 250.396ZM976.16 264V257.076C976.16 256.204 975.962 255.553 975.564 255.123C975.167 254.693 974.546 254.479 973.699 254.479C972.579 254.479 971.759 254.781 971.238 255.387C970.717 255.992 970.457 256.992 970.457 258.385V264H968.836V253.297H970.154L970.418 254.762H970.496C970.828 254.234 971.294 253.827 971.893 253.541C972.492 253.248 973.159 253.102 973.895 253.102C975.184 253.102 976.154 253.414 976.805 254.039C977.456 254.658 977.781 255.65 977.781 257.018V264H976.16ZM982.723 258.521C983.003 258.124 983.429 257.604 984.002 256.959L987.459 253.297H989.383L985.047 257.857L989.686 264H987.723L983.943 258.941L982.723 259.996V264H981.121V248.805H982.723V256.861C982.723 257.219 982.697 257.773 982.645 258.521H982.723ZM1000.28 262.857C1000.57 262.857 1000.84 262.838 1001.11 262.799C1001.38 262.753 1001.59 262.708 1001.75 262.662V263.902C1001.57 263.987 1001.31 264.055 1000.96 264.107C1000.63 264.166 1000.32 264.195 1000.05 264.195C997.977 264.195 996.941 263.105 996.941 260.924V254.557H995.408V253.775L996.941 253.102L997.625 250.816H998.562V253.297H1001.67V254.557H998.562V260.855C998.562 261.5 998.715 261.995 999.021 262.34C999.327 262.685 999.747 262.857 1000.28 262.857ZM1013.13 258.639C1013.13 260.383 1012.69 261.747 1011.81 262.73C1010.94 263.707 1009.72 264.195 1008.17 264.195C1007.21 264.195 1006.37 263.971 1005.62 263.521C1004.88 263.072 1004.31 262.428 1003.9 261.588C1003.5 260.748 1003.3 259.765 1003.3 258.639C1003.3 256.894 1003.74 255.536 1004.61 254.566C1005.48 253.59 1006.69 253.102 1008.24 253.102C1009.74 253.102 1010.93 253.6 1011.8 254.596C1012.69 255.592 1013.13 256.939 1013.13 258.639ZM1004.98 258.639C1004.98 260.006 1005.25 261.048 1005.8 261.764C1006.35 262.48 1007.15 262.838 1008.21 262.838C1009.27 262.838 1010.08 262.483 1010.62 261.773C1011.18 261.057 1011.45 260.012 1011.45 258.639C1011.45 257.278 1011.18 256.246 1010.62 255.543C1010.08 254.833 1009.27 254.479 1008.19 254.479C1007.13 254.479 1006.33 254.827 1005.79 255.523C1005.25 256.22 1004.98 257.258 1004.98 258.639ZM1024.64 262.857C1024.92 262.857 1025.2 262.838 1025.47 262.799C1025.73 262.753 1025.95 262.708 1026.1 262.662V263.902C1025.93 263.987 1025.67 264.055 1025.32 264.107C1024.98 264.166 1024.68 264.195 1024.4 264.195C1022.33 264.195 1021.3 263.105 1021.3 260.924V254.557H1019.76V253.775L1021.3 253.102L1021.98 250.816H1022.92V253.297H1026.02V254.557H1022.92V260.855C1022.92 261.5 1023.07 261.995 1023.38 262.34C1023.68 262.685 1024.1 262.857 1024.64 262.857ZM1035.57 264V257.076C1035.57 256.204 1035.38 255.553 1034.98 255.123C1034.58 254.693 1033.96 254.479 1033.11 254.479C1031.99 254.479 1031.16 254.785 1030.64 255.396C1030.13 256.008 1029.87 257.011 1029.87 258.404V264H1028.25V248.805H1029.87V253.404C1029.87 253.958 1029.85 254.417 1029.79 254.781H1029.89C1030.21 254.267 1030.66 253.863 1031.25 253.57C1031.84 253.271 1032.51 253.121 1033.27 253.121C1034.58 253.121 1035.56 253.434 1036.21 254.059C1036.87 254.677 1037.2 255.663 1037.2 257.018V264H1035.57ZM1045.06 264.195C1043.47 264.195 1042.22 263.714 1041.31 262.75C1040.4 261.786 1039.94 260.449 1039.94 258.736C1039.94 257.011 1040.36 255.641 1041.21 254.625C1042.06 253.609 1043.2 253.102 1044.64 253.102C1045.98 253.102 1047.04 253.544 1047.82 254.43C1048.6 255.309 1048.99 256.471 1048.99 257.916V258.941H1041.62C1041.65 260.198 1041.97 261.152 1042.57 261.803C1043.17 262.454 1044.02 262.779 1045.12 262.779C1046.27 262.779 1047.41 262.538 1048.53 262.057V263.502C1047.96 263.749 1047.42 263.925 1046.9 264.029C1046.39 264.14 1045.78 264.195 1045.06 264.195ZM1044.62 254.459C1043.76 254.459 1043.07 254.739 1042.56 255.299C1042.05 255.859 1041.75 256.633 1041.66 257.623H1047.25C1047.25 256.601 1047.03 255.82 1046.57 255.279C1046.11 254.732 1045.46 254.459 1044.62 254.459ZM1057.21 264V249.723H1058.87V264H1057.21ZM1069.87 264V257.076C1069.87 256.204 1069.67 255.553 1069.28 255.123C1068.88 254.693 1068.26 254.479 1067.41 254.479C1066.29 254.479 1065.47 254.781 1064.95 255.387C1064.43 255.992 1064.17 256.992 1064.17 258.385V264H1062.55V253.297H1063.87L1064.13 254.762H1064.21C1064.54 254.234 1065 253.827 1065.6 253.541C1066.2 253.248 1066.87 253.102 1067.61 253.102C1068.89 253.102 1069.86 253.414 1070.52 254.039C1071.17 254.658 1071.49 255.65 1071.49 257.018V264H1069.87ZM1077.18 264L1073.11 253.297H1074.85L1077.16 259.645C1077.68 261.129 1077.98 262.092 1078.07 262.535H1078.15C1078.22 262.19 1078.45 261.477 1078.83 260.396C1079.21 259.309 1080.07 256.943 1081.39 253.297H1083.13L1079.07 264H1077.18ZM1089.37 264.195C1087.79 264.195 1086.54 263.714 1085.62 262.75C1084.71 261.786 1084.26 260.449 1084.26 258.736C1084.26 257.011 1084.68 255.641 1085.53 254.625C1086.38 253.609 1087.52 253.102 1088.95 253.102C1090.29 253.102 1091.36 253.544 1092.14 254.43C1092.92 255.309 1093.31 256.471 1093.31 257.916V258.941H1085.94C1085.97 260.198 1086.28 261.152 1086.88 261.803C1087.49 262.454 1088.34 262.779 1089.43 262.779C1090.58 262.779 1091.72 262.538 1092.85 262.057V263.502C1092.28 263.749 1091.73 263.925 1091.22 264.029C1090.71 264.14 1090.1 264.195 1089.37 264.195ZM1088.93 254.459C1088.07 254.459 1087.39 254.739 1086.87 255.299C1086.37 255.859 1086.07 256.633 1085.97 257.623H1091.57C1091.57 256.601 1091.34 255.82 1090.89 255.279C1090.43 254.732 1089.78 254.459 1088.93 254.459ZM1102.99 261.08C1102.99 262.076 1102.62 262.844 1101.87 263.385C1101.13 263.925 1100.09 264.195 1098.75 264.195C1097.33 264.195 1096.22 263.971 1095.43 263.521V262.018C1095.94 262.278 1096.49 262.483 1097.08 262.633C1097.67 262.783 1098.24 262.857 1098.79 262.857C1099.63 262.857 1100.28 262.724 1100.74 262.457C1101.2 262.184 1101.42 261.77 1101.42 261.217C1101.42 260.8 1101.24 260.445 1100.88 260.152C1100.52 259.853 1099.82 259.501 1098.77 259.098C1097.77 258.727 1097.06 258.404 1096.64 258.131C1096.22 257.851 1095.91 257.535 1095.7 257.184C1095.5 256.832 1095.4 256.412 1095.4 255.924C1095.4 255.051 1095.75 254.365 1096.46 253.863C1097.17 253.355 1098.15 253.102 1099.38 253.102C1100.54 253.102 1101.66 253.336 1102.76 253.805L1102.19 255.123C1101.11 254.68 1100.14 254.459 1099.27 254.459C1098.5 254.459 1097.92 254.579 1097.53 254.82C1097.14 255.061 1096.94 255.393 1096.94 255.816C1096.94 256.103 1097.01 256.347 1097.16 256.549C1097.31 256.751 1097.54 256.943 1097.87 257.125C1098.19 257.307 1098.82 257.571 1099.74 257.916C1101.01 258.378 1101.87 258.844 1102.31 259.312C1102.76 259.781 1102.99 260.37 1102.99 261.08ZM1109.09 262.857C1109.38 262.857 1109.65 262.838 1109.92 262.799C1110.19 262.753 1110.4 262.708 1110.55 262.662V263.902C1110.38 263.987 1110.12 264.055 1109.77 264.107C1109.43 264.166 1109.13 264.195 1108.86 264.195C1106.79 264.195 1105.75 263.105 1105.75 260.924V254.557H1104.22V253.775L1105.75 253.102L1106.43 250.816H1107.37V253.297H1110.48V254.557H1107.37V260.855C1107.37 261.5 1107.52 261.995 1107.83 262.34C1108.14 262.685 1108.56 262.857 1109.09 262.857ZM963.699 292.195C963.003 292.195 962.365 292.068 961.785 291.814C961.212 291.554 960.73 291.157 960.34 290.623H960.223C960.301 291.248 960.34 291.84 960.34 292.4V296.805H958.719V281.297H960.037L960.262 282.762H960.34C960.757 282.176 961.242 281.753 961.795 281.492C962.348 281.232 962.983 281.102 963.699 281.102C965.118 281.102 966.212 281.587 966.98 282.557C967.755 283.527 968.143 284.887 968.143 286.639C968.143 288.396 967.749 289.764 966.961 290.74C966.18 291.71 965.092 292.195 963.699 292.195ZM963.465 282.479C962.371 282.479 961.58 282.781 961.092 283.387C960.604 283.992 960.353 284.956 960.34 286.277V286.639C960.34 288.143 960.59 289.22 961.092 289.871C961.593 290.516 962.397 290.838 963.504 290.838C964.428 290.838 965.151 290.464 965.672 289.715C966.199 288.966 966.463 287.934 966.463 286.619C966.463 285.285 966.199 284.262 965.672 283.553C965.151 282.837 964.415 282.479 963.465 282.479ZM977.566 292L977.244 290.477H977.166C976.632 291.147 976.098 291.603 975.564 291.844C975.037 292.078 974.376 292.195 973.582 292.195C972.521 292.195 971.688 291.922 971.082 291.375C970.483 290.828 970.184 290.05 970.184 289.041C970.184 286.88 971.912 285.747 975.369 285.643L977.186 285.584V284.92C977.186 284.08 977.003 283.462 976.639 283.064C976.281 282.661 975.704 282.459 974.91 282.459C974.018 282.459 973.009 282.732 971.883 283.279L971.385 282.039C971.912 281.753 972.488 281.528 973.113 281.365C973.745 281.202 974.376 281.121 975.008 281.121C976.284 281.121 977.228 281.404 977.84 281.971C978.458 282.537 978.768 283.445 978.768 284.695V292H977.566ZM973.904 290.857C974.913 290.857 975.704 290.581 976.277 290.027C976.857 289.474 977.146 288.699 977.146 287.703V286.736L975.525 286.805C974.236 286.85 973.305 287.052 972.732 287.41C972.166 287.762 971.883 288.312 971.883 289.061C971.883 289.646 972.059 290.092 972.41 290.398C972.768 290.704 973.266 290.857 973.904 290.857ZM990.877 281.297V282.322L988.895 282.557C989.077 282.785 989.24 283.084 989.383 283.455C989.526 283.82 989.598 284.233 989.598 284.695C989.598 285.743 989.24 286.58 988.523 287.205C987.807 287.83 986.824 288.143 985.574 288.143C985.255 288.143 984.956 288.117 984.676 288.064C983.986 288.429 983.641 288.888 983.641 289.441C983.641 289.734 983.761 289.952 984.002 290.096C984.243 290.232 984.656 290.301 985.242 290.301H987.137C988.296 290.301 989.184 290.545 989.803 291.033C990.428 291.521 990.74 292.231 990.74 293.162C990.74 294.347 990.265 295.249 989.314 295.867C988.364 296.492 986.977 296.805 985.154 296.805C983.755 296.805 982.674 296.544 981.912 296.023C981.157 295.503 980.779 294.767 980.779 293.816C980.779 293.165 980.988 292.602 981.404 292.127C981.821 291.652 982.407 291.329 983.162 291.16C982.889 291.036 982.658 290.844 982.469 290.584C982.286 290.324 982.195 290.021 982.195 289.676C982.195 289.285 982.299 288.943 982.508 288.65C982.716 288.357 983.045 288.074 983.494 287.801C982.941 287.573 982.488 287.186 982.137 286.639C981.792 286.092 981.619 285.467 981.619 284.764C981.619 283.592 981.971 282.69 982.674 282.059C983.377 281.421 984.373 281.102 985.662 281.102C986.222 281.102 986.727 281.167 987.176 281.297H990.877ZM982.342 293.797C982.342 294.376 982.586 294.816 983.074 295.115C983.562 295.415 984.262 295.564 985.174 295.564C986.535 295.564 987.54 295.359 988.191 294.949C988.849 294.546 989.178 293.995 989.178 293.299C989.178 292.719 988.999 292.316 988.641 292.088C988.283 291.867 987.609 291.756 986.619 291.756H984.676C983.94 291.756 983.367 291.932 982.957 292.283C982.547 292.635 982.342 293.139 982.342 293.797ZM983.221 284.725C983.221 285.473 983.432 286.04 983.855 286.424C984.279 286.808 984.868 287 985.623 287C987.205 287 987.996 286.232 987.996 284.695C987.996 283.087 987.195 282.283 985.594 282.283C984.832 282.283 984.246 282.488 983.836 282.898C983.426 283.309 983.221 283.917 983.221 284.725ZM997.596 292.195C996.014 292.195 994.764 291.714 993.846 290.75C992.934 289.786 992.479 288.449 992.479 286.736C992.479 285.011 992.902 283.641 993.748 282.625C994.601 281.609 995.743 281.102 997.176 281.102C998.517 281.102 999.578 281.544 1000.36 282.43C1001.14 283.309 1001.53 284.471 1001.53 285.916V286.941H994.158C994.191 288.198 994.507 289.152 995.105 289.803C995.711 290.454 996.561 290.779 997.654 290.779C998.807 290.779 999.946 290.538 1001.07 290.057V291.502C1000.5 291.749 999.956 291.925 999.441 292.029C998.934 292.14 998.318 292.195 997.596 292.195ZM997.156 282.459C996.297 282.459 995.61 282.739 995.096 283.299C994.588 283.859 994.288 284.633 994.197 285.623H999.793C999.793 284.601 999.565 283.82 999.109 283.279C998.654 282.732 998.003 282.459 997.156 282.459ZM1004.07 290.965C1004.07 290.529 1004.17 290.2 1004.36 289.979C1004.57 289.751 1004.85 289.637 1005.22 289.637C1005.6 289.637 1005.89 289.751 1006.1 289.979C1006.32 290.2 1006.42 290.529 1006.42 290.965C1006.42 291.388 1006.32 291.714 1006.1 291.941C1005.89 292.169 1005.59 292.283 1005.22 292.283C1004.89 292.283 1004.61 292.182 1004.39 291.98C1004.18 291.772 1004.07 291.434 1004.07 290.965Z" fill="#4D4D4D"/>
<rect x="1554" y="150" width="200" height="200" rx="19" fill="white" stroke="#D8D8D8" stroke-width="2"/>
<path d="M1578.41 193V182.292H1580.16V193H1578.41ZM1591.92 193H1589.77L1584.51 184.467H1584.45L1584.49 184.943C1584.55 185.852 1584.59 186.682 1584.59 187.434V193H1583V182.292H1585.12L1590.37 190.781H1590.42C1590.41 190.668 1590.39 190.261 1590.36 189.558C1590.33 188.85 1590.32 188.298 1590.32 187.902V182.292H1591.92V193ZM1600.85 182.292H1602.66L1598.91 193H1597.07L1593.33 182.292H1595.13L1597.37 188.95C1597.49 189.267 1597.61 189.677 1597.74 190.18C1597.87 190.678 1597.96 191.049 1598 191.293C1598.06 190.922 1598.16 190.493 1598.29 190.004C1598.42 189.516 1598.53 189.155 1598.61 188.92L1600.85 182.292ZM1610.13 193H1604.08V182.292H1610.13V183.771H1605.83V186.687H1609.86V188.151H1605.83V191.513H1610.13V193ZM1618.63 190.092C1618.63 191.044 1618.29 191.792 1617.6 192.333C1616.91 192.875 1615.96 193.146 1614.75 193.146C1613.54 193.146 1612.55 192.958 1611.78 192.583V190.927C1612.26 191.157 1612.78 191.337 1613.33 191.469C1613.88 191.601 1614.39 191.667 1614.87 191.667C1615.56 191.667 1616.07 191.535 1616.4 191.271C1616.73 191.008 1616.9 190.654 1616.9 190.209C1616.9 189.809 1616.74 189.47 1616.44 189.191C1616.14 188.913 1615.51 188.583 1614.57 188.203C1613.59 187.807 1612.9 187.355 1612.5 186.848C1612.1 186.34 1611.9 185.729 1611.9 185.017C1611.9 184.123 1612.22 183.42 1612.85 182.907C1613.49 182.395 1614.34 182.138 1615.41 182.138C1616.43 182.138 1617.45 182.363 1618.47 182.812L1617.91 184.24C1616.96 183.84 1616.11 183.64 1615.36 183.64C1614.8 183.64 1614.37 183.764 1614.08 184.013C1613.78 184.257 1613.64 184.582 1613.64 184.987C1613.64 185.266 1613.69 185.505 1613.81 185.705C1613.93 185.9 1614.12 186.086 1614.39 186.262C1614.66 186.438 1615.14 186.669 1615.84 186.958C1616.63 187.285 1617.2 187.59 1617.57 187.873C1617.94 188.156 1618.2 188.476 1618.37 188.833C1618.55 189.189 1618.63 189.609 1618.63 190.092ZM1624.4 193H1622.65V183.793H1619.5V182.292H1627.55V183.793H1624.4V193ZM1640.19 185.529C1640.19 186.647 1639.82 187.504 1639.09 188.1C1638.35 188.696 1637.31 188.994 1635.96 188.994H1634.85V193H1633.1V182.292H1636.18C1637.52 182.292 1638.52 182.565 1639.18 183.112C1639.85 183.659 1640.19 184.465 1640.19 185.529ZM1634.85 187.521H1635.78C1636.68 187.521 1637.33 187.365 1637.75 187.053C1638.17 186.74 1638.38 186.252 1638.38 185.588C1638.38 184.973 1638.2 184.514 1637.82 184.211C1637.44 183.908 1636.86 183.757 1636.06 183.757H1634.85V187.521ZM1648.97 193L1647.9 190.026H1643.8L1642.76 193H1640.91L1644.92 182.248H1646.82L1650.83 193H1648.97ZM1647.44 188.518L1646.43 185.603C1646.36 185.407 1646.26 185.1 1646.13 184.68C1646 184.26 1645.91 183.952 1645.86 183.757C1645.73 184.357 1645.54 185.014 1645.28 185.727L1644.32 188.518H1647.44ZM1656.62 187.192H1660.56V192.568C1659.92 192.778 1659.3 192.927 1658.7 193.015C1658.11 193.103 1657.47 193.146 1656.78 193.146C1655.16 193.146 1653.91 192.668 1653.03 191.711C1652.15 190.749 1651.71 189.394 1651.71 187.646C1651.71 185.922 1652.21 184.575 1653.2 183.603C1654.19 182.626 1655.56 182.138 1657.3 182.138C1658.41 182.138 1659.47 182.353 1660.47 182.783L1659.86 184.24C1658.99 183.84 1658.12 183.64 1657.25 183.64C1656.11 183.64 1655.21 183.999 1654.54 184.716C1653.88 185.434 1653.55 186.416 1653.55 187.661C1653.55 188.969 1653.84 189.965 1654.44 190.649C1655.04 191.328 1655.9 191.667 1657.02 191.667C1657.59 191.667 1658.2 191.596 1658.84 191.455V188.693H1656.62V187.192ZM1669.2 193H1663.14V182.292H1669.2V183.771H1664.89V186.687H1668.93V188.151H1664.89V191.513H1669.2V193Z" fill="#4D4D4D"/>
<path d="M1589.8 236H1588.14V229.281H1580.62V236H1578.96V221.723H1580.62V227.797H1588.14V221.723H1589.8V236ZM1602.72 230.639C1602.72 232.383 1602.28 233.747 1601.4 234.73C1600.53 235.707 1599.31 236.195 1597.76 236.195C1596.8 236.195 1595.96 235.971 1595.21 235.521C1594.47 235.072 1593.9 234.428 1593.49 233.588C1593.09 232.748 1592.89 231.765 1592.89 230.639C1592.89 228.894 1593.32 227.536 1594.2 226.566C1595.07 225.59 1596.28 225.102 1597.83 225.102C1599.33 225.102 1600.52 225.6 1601.39 226.596C1602.28 227.592 1602.72 228.939 1602.72 230.639ZM1594.57 230.639C1594.57 232.006 1594.84 233.048 1595.39 233.764C1595.94 234.48 1596.74 234.838 1597.8 234.838C1598.86 234.838 1599.67 234.483 1600.21 233.773C1600.77 233.057 1601.04 232.012 1601.04 230.639C1601.04 229.278 1600.77 228.246 1600.21 227.543C1599.67 226.833 1598.86 226.479 1597.78 226.479C1596.72 226.479 1595.92 226.827 1595.38 227.523C1594.84 228.22 1594.57 229.258 1594.57 230.639ZM1614.31 236L1612.35 229.721C1612.23 229.337 1612 228.464 1611.66 227.104H1611.58C1611.32 228.243 1611.09 229.122 1610.9 229.74L1608.88 236H1607L1604.08 225.297H1605.78C1606.47 227.986 1606.99 230.033 1607.35 231.439C1607.72 232.846 1607.92 233.793 1607.98 234.281H1608.05C1608.13 233.91 1608.24 233.432 1608.4 232.846C1608.56 232.253 1608.7 231.785 1608.82 231.439L1610.78 225.297H1612.54L1614.45 231.439C1614.82 232.559 1615.06 233.5 1615.19 234.262H1615.27C1615.3 234.027 1615.37 233.666 1615.48 233.178C1615.59 232.689 1616.27 230.062 1617.52 225.297H1619.2L1616.24 236H1614.31ZM1633.62 234.564H1633.53C1632.78 235.652 1631.66 236.195 1630.17 236.195C1628.77 236.195 1627.68 235.717 1626.9 234.76C1626.13 233.803 1625.74 232.442 1625.74 230.678C1625.74 228.913 1626.13 227.543 1626.91 226.566C1627.69 225.59 1628.78 225.102 1630.17 225.102C1631.63 225.102 1632.74 225.629 1633.51 226.684H1633.64L1633.57 225.912L1633.53 225.16V220.805H1635.15V236H1633.84L1633.62 234.564ZM1630.38 234.838C1631.49 234.838 1632.29 234.538 1632.78 233.939C1633.28 233.334 1633.53 232.361 1633.53 231.02V230.678C1633.53 229.161 1633.28 228.08 1632.77 227.436C1632.27 226.785 1631.47 226.459 1630.36 226.459C1629.41 226.459 1628.68 226.83 1628.17 227.572C1627.67 228.308 1627.42 229.35 1627.42 230.697C1627.42 232.064 1627.67 233.096 1628.17 233.793C1628.67 234.49 1629.41 234.838 1630.38 234.838ZM1647.84 230.639C1647.84 232.383 1647.4 233.747 1646.52 234.73C1645.64 235.707 1644.43 236.195 1642.88 236.195C1641.92 236.195 1641.07 235.971 1640.33 235.521C1639.59 235.072 1639.01 234.428 1638.61 233.588C1638.21 232.748 1638.01 231.765 1638.01 230.639C1638.01 228.894 1638.44 227.536 1639.31 226.566C1640.19 225.59 1641.4 225.102 1642.95 225.102C1644.44 225.102 1645.63 225.6 1646.51 226.596C1647.4 227.592 1647.84 228.939 1647.84 230.639ZM1639.69 230.639C1639.69 232.006 1639.96 233.048 1640.51 233.764C1641.05 234.48 1641.86 234.838 1642.92 234.838C1643.98 234.838 1644.78 234.483 1645.33 233.773C1645.88 233.057 1646.16 232.012 1646.16 230.639C1646.16 229.278 1645.88 228.246 1645.33 227.543C1644.78 226.833 1643.97 226.479 1642.9 226.479C1641.84 226.479 1641.04 226.827 1640.5 227.523C1639.96 228.22 1639.69 229.258 1639.69 230.639ZM1654.19 225.297H1655.93L1658.27 231.4C1658.78 232.794 1659.1 233.799 1659.23 234.418H1659.3C1659.39 234.086 1659.57 233.52 1659.83 232.719C1660.11 231.911 1660.99 229.438 1662.49 225.297H1664.23L1659.63 237.484C1659.17 238.689 1658.64 239.542 1658.03 240.043C1657.42 240.551 1656.67 240.805 1655.79 240.805C1655.29 240.805 1654.81 240.749 1654.32 240.639V239.34C1654.68 239.418 1655.08 239.457 1655.53 239.457C1656.64 239.457 1657.43 238.832 1657.91 237.582L1658.5 236.059L1654.19 225.297ZM1675.2 230.639C1675.2 232.383 1674.76 233.747 1673.88 234.73C1673.01 235.707 1671.79 236.195 1670.24 236.195C1669.29 236.195 1668.44 235.971 1667.69 235.521C1666.95 235.072 1666.38 234.428 1665.97 233.588C1665.57 232.748 1665.37 231.765 1665.37 230.639C1665.37 228.894 1665.81 227.536 1666.68 226.566C1667.55 225.59 1668.76 225.102 1670.31 225.102C1671.81 225.102 1673 225.6 1673.88 226.596C1674.76 227.592 1675.2 228.939 1675.2 230.639ZM1667.05 230.639C1667.05 232.006 1667.32 233.048 1667.87 233.764C1668.42 234.48 1669.22 234.838 1670.28 234.838C1671.34 234.838 1672.15 234.483 1672.69 233.773C1673.25 233.057 1673.52 232.012 1673.52 230.639C1673.52 229.278 1673.25 228.246 1672.69 227.543C1672.15 226.833 1671.34 226.479 1670.26 226.479C1669.2 226.479 1668.4 226.827 1667.86 227.523C1667.32 228.22 1667.05 229.258 1667.05 230.639ZM1679.58 225.297V232.24C1679.58 233.113 1679.78 233.764 1680.17 234.193C1680.57 234.623 1681.19 234.838 1682.04 234.838C1683.16 234.838 1683.98 234.532 1684.49 233.92C1685.01 233.308 1685.27 232.309 1685.27 230.922V225.297H1686.89V236H1685.55L1685.32 234.564H1685.23C1684.9 235.092 1684.44 235.495 1683.85 235.775C1683.26 236.055 1682.59 236.195 1681.83 236.195C1680.53 236.195 1679.56 235.886 1678.9 235.268C1678.26 234.649 1677.94 233.66 1677.94 232.299V225.297H1679.58ZM1587.46 264L1585.5 257.721C1585.37 257.337 1585.14 256.464 1584.8 255.104H1584.72C1584.46 256.243 1584.24 257.122 1584.04 257.74L1582.02 264H1580.14L1577.22 253.297H1578.92C1579.61 255.986 1580.14 258.033 1580.5 259.439C1580.86 260.846 1581.07 261.793 1581.12 262.281H1581.2C1581.27 261.91 1581.38 261.432 1581.54 260.846C1581.7 260.253 1581.84 259.785 1581.96 259.439L1583.92 253.297H1585.68L1587.6 259.439C1587.96 260.559 1588.21 261.5 1588.34 262.262H1588.42C1588.44 262.027 1588.51 261.666 1588.62 261.178C1588.74 260.689 1589.42 258.062 1590.66 253.297H1592.34L1589.38 264H1587.46ZM1600.87 264L1600.54 262.477H1600.47C1599.93 263.147 1599.4 263.603 1598.87 263.844C1598.34 264.078 1597.68 264.195 1596.88 264.195C1595.82 264.195 1594.99 263.922 1594.38 263.375C1593.78 262.828 1593.48 262.05 1593.48 261.041C1593.48 258.88 1595.21 257.747 1598.67 257.643L1600.49 257.584V256.92C1600.49 256.08 1600.3 255.462 1599.94 255.064C1599.58 254.661 1599.01 254.459 1598.21 254.459C1597.32 254.459 1596.31 254.732 1595.18 255.279L1594.69 254.039C1595.21 253.753 1595.79 253.528 1596.41 253.365C1597.05 253.202 1597.68 253.121 1598.31 253.121C1599.58 253.121 1600.53 253.404 1601.14 253.971C1601.76 254.537 1602.07 255.445 1602.07 256.695V264H1600.87ZM1597.21 262.857C1598.21 262.857 1599.01 262.581 1599.58 262.027C1600.16 261.474 1600.45 260.699 1600.45 259.703V258.736L1598.83 258.805C1597.54 258.85 1596.61 259.052 1596.03 259.41C1595.47 259.762 1595.18 260.312 1595.18 261.061C1595.18 261.646 1595.36 262.092 1595.71 262.398C1596.07 262.704 1596.57 262.857 1597.21 262.857ZM1612.74 264V257.076C1612.74 256.204 1612.54 255.553 1612.15 255.123C1611.75 254.693 1611.13 254.479 1610.28 254.479C1609.16 254.479 1608.34 254.781 1607.82 255.387C1607.3 255.992 1607.04 256.992 1607.04 258.385V264H1605.42V253.297H1606.74L1607 254.762H1607.08C1607.41 254.234 1607.88 253.827 1608.47 253.541C1609.07 253.248 1609.74 253.102 1610.48 253.102C1611.77 253.102 1612.74 253.414 1613.39 254.039C1614.04 254.658 1614.36 255.65 1614.36 257.018V264H1612.74ZM1621.16 262.857C1621.45 262.857 1621.72 262.838 1621.99 262.799C1622.26 262.753 1622.47 262.708 1622.62 262.662V263.902C1622.45 263.987 1622.19 264.055 1621.84 264.107C1621.51 264.166 1621.2 264.195 1620.93 264.195C1618.86 264.195 1617.82 263.105 1617.82 260.924V254.557H1616.29V253.775L1617.82 253.102L1618.5 250.816H1619.44V253.297H1622.55V254.557H1619.44V260.855C1619.44 261.5 1619.59 261.995 1619.9 262.34C1620.21 262.685 1620.63 262.857 1621.16 262.857ZM1633.43 262.857C1633.71 262.857 1633.99 262.838 1634.26 262.799C1634.52 262.753 1634.73 262.708 1634.89 262.662V263.902C1634.71 263.987 1634.45 264.055 1634.11 264.107C1633.77 264.166 1633.46 264.195 1633.19 264.195C1631.12 264.195 1630.09 263.105 1630.09 260.924V254.557H1628.55V253.775L1630.09 253.102L1630.77 250.816H1631.71V253.297H1634.81V254.557H1631.71V260.855C1631.71 261.5 1631.86 261.995 1632.17 262.34C1632.47 262.685 1632.89 262.857 1633.43 262.857ZM1646.28 258.639C1646.28 260.383 1645.84 261.747 1644.96 262.73C1644.08 263.707 1642.87 264.195 1641.32 264.195C1640.36 264.195 1639.51 263.971 1638.77 263.521C1638.03 263.072 1637.45 262.428 1637.05 261.588C1636.65 260.748 1636.44 259.765 1636.44 258.639C1636.44 256.894 1636.88 255.536 1637.75 254.566C1638.62 253.59 1639.84 253.102 1641.38 253.102C1642.88 253.102 1644.07 253.6 1644.95 254.596C1645.83 255.592 1646.28 256.939 1646.28 258.639ZM1638.12 258.639C1638.12 260.006 1638.4 261.048 1638.94 261.764C1639.49 262.48 1640.29 262.838 1641.36 262.838C1642.42 262.838 1643.22 262.483 1643.77 261.773C1644.32 261.057 1644.6 260.012 1644.6 258.639C1644.6 257.278 1644.32 256.246 1643.77 255.543C1643.22 254.833 1642.41 254.479 1641.34 254.479C1640.27 254.479 1639.47 254.827 1638.93 255.523C1638.39 256.22 1638.12 257.258 1638.12 258.639ZM1655.95 264H1654.32V253.297H1655.95V264ZM1654.19 250.396C1654.19 250.025 1654.28 249.755 1654.46 249.586C1654.64 249.41 1654.87 249.322 1655.14 249.322C1655.4 249.322 1655.63 249.41 1655.82 249.586C1656.01 249.762 1656.1 250.032 1656.1 250.396C1656.1 250.761 1656.01 251.035 1655.82 251.217C1655.63 251.393 1655.4 251.48 1655.14 251.48C1654.87 251.48 1654.64 251.393 1654.46 251.217C1654.28 251.035 1654.19 250.761 1654.19 250.396ZM1666.71 264V257.076C1666.71 256.204 1666.51 255.553 1666.11 255.123C1665.71 254.693 1665.09 254.479 1664.25 254.479C1663.13 254.479 1662.31 254.781 1661.79 255.387C1661.26 255.992 1661 256.992 1661 258.385V264H1659.38V253.297H1660.7L1660.96 254.762H1661.04C1661.38 254.234 1661.84 253.827 1662.44 253.541C1663.04 253.248 1663.71 253.102 1664.44 253.102C1665.73 253.102 1666.7 253.414 1667.35 254.039C1668 254.658 1668.33 255.65 1668.33 257.018V264H1666.71ZM1674.01 264L1669.95 253.297H1671.69L1673.99 259.645C1674.51 261.129 1674.82 262.092 1674.91 262.535H1674.99C1675.06 262.19 1675.28 261.477 1675.66 260.396C1676.05 259.309 1676.9 256.943 1678.23 253.297H1679.97L1675.91 264H1674.01ZM1686.21 264.195C1684.63 264.195 1683.38 263.714 1682.46 262.75C1681.55 261.786 1681.09 260.449 1681.09 258.736C1681.09 257.011 1681.51 255.641 1682.36 254.625C1683.21 253.609 1684.36 253.102 1685.79 253.102C1687.13 253.102 1688.19 253.544 1688.97 254.43C1689.75 255.309 1690.14 256.471 1690.14 257.916V258.941H1682.77C1682.8 260.198 1683.12 261.152 1683.72 261.803C1684.32 262.454 1685.17 262.779 1686.27 262.779C1687.42 262.779 1688.56 262.538 1689.69 262.057V263.502C1689.11 263.749 1688.57 263.925 1688.05 264.029C1687.55 264.14 1686.93 264.195 1686.21 264.195ZM1685.77 254.459C1684.91 254.459 1684.22 254.739 1683.71 255.299C1683.2 255.859 1682.9 256.633 1682.81 257.623H1688.41C1688.41 256.601 1688.18 255.82 1687.72 255.279C1687.27 254.732 1686.62 254.459 1685.77 254.459ZM1699.82 261.08C1699.82 262.076 1699.45 262.844 1698.71 263.385C1697.97 263.925 1696.93 264.195 1695.58 264.195C1694.16 264.195 1693.06 263.971 1692.26 263.521V262.018C1692.78 262.278 1693.33 262.483 1693.91 262.633C1694.51 262.783 1695.08 262.857 1695.62 262.857C1696.47 262.857 1697.12 262.724 1697.58 262.457C1698.03 262.184 1698.26 261.77 1698.26 261.217C1698.26 260.8 1698.08 260.445 1697.71 260.152C1697.35 259.853 1696.65 259.501 1695.6 259.098C1694.61 258.727 1693.9 258.404 1693.47 258.131C1693.06 257.851 1692.75 257.535 1692.54 257.184C1692.34 256.832 1692.23 256.412 1692.23 255.924C1692.23 255.051 1692.59 254.365 1693.3 253.863C1694.01 253.355 1694.98 253.102 1696.22 253.102C1697.37 253.102 1698.5 253.336 1699.6 253.805L1699.02 255.123C1697.95 254.68 1696.97 254.459 1696.1 254.459C1695.33 254.459 1694.75 254.579 1694.36 254.82C1693.97 255.061 1693.78 255.393 1693.78 255.816C1693.78 256.103 1693.85 256.347 1693.99 256.549C1694.14 256.751 1694.38 256.943 1694.71 257.125C1695.03 257.307 1695.66 257.571 1696.58 257.916C1697.85 258.378 1698.71 258.844 1699.15 259.312C1699.6 259.781 1699.82 260.37 1699.82 261.08ZM1705.93 262.857C1706.21 262.857 1706.49 262.838 1706.76 262.799C1707.02 262.753 1707.23 262.708 1707.39 262.662V263.902C1707.21 263.987 1706.95 264.055 1706.61 264.107C1706.27 264.166 1705.96 264.195 1705.69 264.195C1703.62 264.195 1702.59 263.105 1702.59 260.924V254.557H1701.05V253.775L1702.59 253.102L1703.27 250.816H1704.21V253.297H1707.31V254.557H1704.21V260.855C1704.21 261.5 1704.36 261.995 1704.67 262.34C1704.97 262.685 1705.39 262.857 1705.93 262.857ZM1710.64 260.064V259.537C1710.64 258.775 1710.76 258.15 1710.99 257.662C1711.23 257.167 1711.66 256.646 1712.3 256.1C1713.19 255.351 1713.74 254.788 1713.97 254.41C1714.21 254.033 1714.32 253.577 1714.32 253.043C1714.32 252.379 1714.11 251.868 1713.68 251.51C1713.26 251.145 1712.64 250.963 1711.84 250.963C1711.33 250.963 1710.83 251.025 1710.34 251.148C1709.85 251.266 1709.29 251.484 1708.66 251.803L1708.08 250.484C1709.31 249.84 1710.6 249.518 1711.94 249.518C1713.18 249.518 1714.15 249.824 1714.84 250.436C1715.53 251.048 1715.88 251.91 1715.88 253.023C1715.88 253.499 1715.81 253.919 1715.68 254.283C1715.56 254.641 1715.37 254.983 1715.12 255.309C1714.88 255.628 1714.34 256.145 1713.52 256.861C1712.87 257.421 1712.43 257.887 1712.21 258.258C1712.01 258.629 1711.9 259.124 1711.9 259.742V260.064H1710.64ZM1710.16 262.965C1710.16 262.079 1710.55 261.637 1711.34 261.637C1711.71 261.637 1712 261.751 1712.21 261.979C1712.41 262.206 1712.52 262.535 1712.52 262.965C1712.52 263.382 1712.41 263.707 1712.21 263.941C1712 264.169 1711.71 264.283 1711.34 264.283C1711 264.283 1710.72 264.182 1710.5 263.98C1710.27 263.772 1710.16 263.434 1710.16 262.965Z" fill="#4D4D4D"/>
<rect x="612" y="180" width="200" height="83" rx="19" fill="#ECF1FF" stroke="#5A57FF" stroke-width="2"/>
<path d="M640.112 210H638.362V200.793H635.212V199.292H643.262V200.793H640.112V210ZM651.553 210L650.483 207.026H646.389L645.342 210H643.496L647.502 199.248H649.407L653.413 210H651.553ZM650.022 205.518L649.019 202.603C648.945 202.407 648.843 202.1 648.711 201.68C648.584 201.26 648.496 200.952 648.447 200.757C648.315 201.357 648.123 202.014 647.869 202.727L646.902 205.518H650.022ZM661.917 202.529C661.917 203.647 661.55 204.504 660.818 205.1C660.085 205.696 659.043 205.994 657.69 205.994H656.577V210H654.827V199.292H657.91C659.248 199.292 660.249 199.565 660.913 200.112C661.582 200.659 661.917 201.465 661.917 202.529ZM656.577 204.521H657.507C658.406 204.521 659.065 204.365 659.485 204.053C659.905 203.74 660.115 203.252 660.115 202.588C660.115 201.973 659.927 201.514 659.551 201.211C659.175 200.908 658.589 200.757 657.793 200.757H656.577V204.521ZM669.761 202.8C670.02 201.809 670.454 200.64 671.064 199.292H672.31C671.973 200.737 671.729 201.96 671.577 202.961H669.871L669.761 202.8ZM666.721 202.8C666.819 202.395 666.992 201.848 667.241 201.16C667.49 200.471 667.747 199.849 668.01 199.292H669.255C668.943 200.542 668.696 201.765 668.516 202.961H666.809L666.721 202.8ZM678.542 210L675.437 201.057H675.378C675.461 202.385 675.503 203.63 675.503 204.792V210H673.914V199.292H676.382L679.355 207.81H679.399L682.461 199.292H684.937V210H683.252V204.705C683.252 204.172 683.264 203.479 683.289 202.625C683.318 201.77 683.342 201.252 683.362 201.072H683.303L680.088 210H678.542ZM690.781 204.177L693.315 199.292H695.22L691.653 205.847V210H689.895V205.906L686.343 199.292H688.247L690.781 204.177ZM707.173 210L706.104 207.026H702.009L700.962 210H699.116L703.123 199.248H705.027L709.033 210H707.173ZM705.642 205.518L704.639 202.603C704.565 202.407 704.463 202.1 704.331 201.68C704.204 201.26 704.116 200.952 704.067 200.757C703.936 201.357 703.743 202.014 703.489 202.727L702.522 205.518H705.642ZM715.002 200.64C713.997 200.64 713.206 200.996 712.629 201.709C712.053 202.422 711.765 203.406 711.765 204.661C711.765 205.974 712.041 206.968 712.593 207.642C713.149 208.315 713.953 208.652 715.002 208.652C715.457 208.652 715.896 208.608 716.321 208.521C716.746 208.428 717.188 208.311 717.646 208.169V209.67C716.807 209.988 715.854 210.146 714.79 210.146C713.223 210.146 712.019 209.673 711.179 208.726C710.339 207.773 709.919 206.414 709.919 204.646C709.919 203.533 710.122 202.559 710.527 201.724C710.938 200.889 711.528 200.249 712.3 199.805C713.071 199.36 713.977 199.138 715.017 199.138C716.111 199.138 717.122 199.368 718.049 199.827L717.419 201.284C717.058 201.113 716.675 200.964 716.27 200.837C715.869 200.706 715.447 200.64 715.002 200.64ZM724.509 200.64C723.503 200.64 722.712 200.996 722.136 201.709C721.56 202.422 721.272 203.406 721.272 204.661C721.272 205.974 721.548 206.968 722.1 207.642C722.656 208.315 723.459 208.652 724.509 208.652C724.963 208.652 725.403 208.608 725.828 208.521C726.252 208.428 726.694 208.311 727.153 208.169V209.67C726.313 209.988 725.361 210.146 724.297 210.146C722.729 210.146 721.526 209.673 720.686 208.726C719.846 207.773 719.426 206.414 719.426 204.646C719.426 203.533 719.629 202.559 720.034 201.724C720.444 200.889 721.035 200.249 721.807 199.805C722.578 199.36 723.484 199.138 724.524 199.138C725.618 199.138 726.628 199.368 727.556 199.827L726.926 201.284C726.565 201.113 726.182 200.964 725.776 200.837C725.376 200.706 724.954 200.64 724.509 200.64ZM738.967 204.631C738.967 206.375 738.53 207.729 737.656 208.696C736.787 209.663 735.554 210.146 733.958 210.146C732.341 210.146 731.099 209.668 730.229 208.711C729.365 207.749 728.933 206.384 728.933 204.617C728.933 202.849 729.368 201.492 730.237 200.544C731.111 199.597 732.356 199.124 733.972 199.124C735.564 199.124 736.794 199.604 737.664 200.566C738.533 201.528 738.967 202.883 738.967 204.631ZM730.793 204.631C730.793 205.95 731.06 206.951 731.592 207.634C732.124 208.313 732.913 208.652 733.958 208.652C734.998 208.652 735.781 208.315 736.309 207.642C736.841 206.968 737.107 205.964 737.107 204.631C737.107 203.318 736.843 202.322 736.316 201.643C735.793 200.964 735.012 200.625 733.972 200.625C732.922 200.625 732.129 200.964 731.592 201.643C731.06 202.322 730.793 203.318 730.793 204.631ZM749.661 199.292V206.221C749.661 207.012 749.49 207.705 749.148 208.301C748.811 208.892 748.32 209.348 747.676 209.67C747.036 209.988 746.27 210.146 745.376 210.146C744.048 210.146 743.015 209.795 742.278 209.092C741.541 208.389 741.172 207.422 741.172 206.191V199.292H742.93V206.067C742.93 206.951 743.135 207.603 743.545 208.022C743.955 208.442 744.585 208.652 745.435 208.652C747.085 208.652 747.91 207.786 747.91 206.052V199.292H749.661ZM761.321 210H759.175L753.909 201.467H753.85L753.887 201.943C753.955 202.852 753.989 203.682 753.989 204.434V210H752.4V199.292H754.524L759.775 207.781H759.819C759.81 207.668 759.79 207.261 759.761 206.558C759.731 205.85 759.717 205.298 759.717 204.902V199.292H761.321V210ZM767.847 210H766.096V200.793H762.947V199.292H770.996V200.793H767.847V210ZM773.948 199.453C773.689 200.474 773.259 201.643 772.659 202.961H771.414C771.75 201.55 771.995 200.327 772.146 199.292H773.838L773.948 199.453ZM777.002 199.453C776.743 200.474 776.313 201.643 775.713 202.961H774.453C774.79 201.638 775.042 200.415 775.208 199.292H776.899L777.002 199.453ZM643.503 222.529C643.503 223.647 643.137 224.504 642.405 225.1C641.672 225.696 640.63 225.994 639.277 225.994H638.164V230H636.414V219.292H639.497C640.835 219.292 641.836 219.565 642.5 220.112C643.169 220.659 643.503 221.465 643.503 222.529ZM638.164 224.521H639.094C639.993 224.521 640.652 224.365 641.072 224.053C641.492 223.74 641.702 223.252 641.702 222.588C641.702 221.973 641.514 221.514 641.138 221.211C640.762 220.908 640.176 220.757 639.38 220.757H638.164V224.521ZM652.285 230L651.216 227.026H647.122L646.074 230H644.229L648.235 219.248H650.139L654.146 230H652.285ZM650.754 225.518L649.751 222.603C649.678 222.407 649.575 222.1 649.443 221.68C649.316 221.26 649.229 220.952 649.18 220.757C649.048 221.357 648.855 222.014 648.601 222.727L647.634 225.518H650.754ZM664.48 230H662.334L657.068 221.467H657.009L657.046 221.943C657.114 222.852 657.148 223.682 657.148 224.434V230H655.559V219.292H657.683L662.935 227.781H662.979C662.969 227.668 662.949 227.261 662.92 226.558C662.891 225.85 662.876 225.298 662.876 224.902V219.292H664.48V230ZM673.364 230H667.307V219.292H673.364V220.771H669.058V223.687H673.093V225.151H669.058V228.513H673.364V230ZM675.686 230V219.292H677.437V228.499H681.97V230H675.686Z" fill="#4D4D4D"/>
<rect x="1232" y="180" width="200" height="83" rx="19" fill="#ECF1FF" stroke="#5A57FF" stroke-width="2"/>
<path d="M1260.11 210H1258.36V200.793H1255.21V199.292H1263.26V200.793H1260.11V210ZM1271.55 210L1270.48 207.026H1266.39L1265.34 210H1263.5L1267.5 199.248H1269.41L1273.41 210H1271.55ZM1270.02 205.518L1269.02 202.603C1268.95 202.407 1268.84 202.1 1268.71 201.68C1268.58 201.26 1268.5 200.952 1268.45 200.757C1268.32 201.357 1268.12 202.014 1267.87 202.727L1266.9 205.518H1270.02ZM1281.92 202.529C1281.92 203.647 1281.55 204.504 1280.82 205.1C1280.09 205.696 1279.04 205.994 1277.69 205.994H1276.58V210H1274.83V199.292H1277.91C1279.25 199.292 1280.25 199.565 1280.91 200.112C1281.58 200.659 1281.92 201.465 1281.92 202.529ZM1276.58 204.521H1277.51C1278.41 204.521 1279.06 204.365 1279.48 204.053C1279.9 203.74 1280.11 203.252 1280.11 202.588C1280.11 201.973 1279.93 201.514 1279.55 201.211C1279.17 200.908 1278.59 200.757 1277.79 200.757H1276.58V204.521ZM1289.76 202.8C1290.02 201.809 1290.45 200.64 1291.06 199.292H1292.31C1291.97 200.737 1291.73 201.96 1291.58 202.961H1289.87L1289.76 202.8ZM1286.72 202.8C1286.82 202.395 1286.99 201.848 1287.24 201.16C1287.49 200.471 1287.75 199.849 1288.01 199.292H1289.26C1288.94 200.542 1288.7 201.765 1288.52 202.961H1286.81L1286.72 202.8ZM1293.91 210V199.292H1295.66V210H1293.91ZM1307.42 210H1305.27L1300.01 201.467H1299.95L1299.99 201.943C1300.05 202.852 1300.09 203.682 1300.09 204.434V210H1298.5V199.292H1300.62L1305.87 207.781H1305.92C1305.91 207.668 1305.89 207.261 1305.86 206.558C1305.83 205.85 1305.82 205.298 1305.82 204.902V199.292H1307.42V210ZM1316.35 199.292H1318.16L1314.41 210H1312.57L1308.83 199.292H1310.63L1312.87 205.95C1312.99 206.267 1313.11 206.677 1313.24 207.18C1313.37 207.678 1313.46 208.049 1313.5 208.293C1313.56 207.922 1313.66 207.493 1313.79 207.004C1313.92 206.516 1314.03 206.155 1314.11 205.92L1316.35 199.292ZM1325.63 210H1319.58V199.292H1325.63V200.771H1321.33V203.687H1325.36V205.151H1321.33V208.513H1325.63V210ZM1334.13 207.092C1334.13 208.044 1333.79 208.792 1333.1 209.333C1332.41 209.875 1331.46 210.146 1330.25 210.146C1329.04 210.146 1328.05 209.958 1327.28 209.583V207.927C1327.76 208.157 1328.28 208.337 1328.83 208.469C1329.38 208.601 1329.89 208.667 1330.37 208.667C1331.06 208.667 1331.57 208.535 1331.9 208.271C1332.23 208.008 1332.4 207.654 1332.4 207.209C1332.4 206.809 1332.24 206.47 1331.94 206.191C1331.64 205.913 1331.01 205.583 1330.07 205.203C1329.09 204.807 1328.4 204.355 1328 203.848C1327.6 203.34 1327.4 202.729 1327.4 202.017C1327.4 201.123 1327.72 200.42 1328.35 199.907C1328.99 199.395 1329.84 199.138 1330.91 199.138C1331.93 199.138 1332.95 199.363 1333.97 199.812L1333.41 201.24C1332.46 200.84 1331.61 200.64 1330.86 200.64C1330.3 200.64 1329.87 200.764 1329.58 201.013C1329.28 201.257 1329.14 201.582 1329.14 201.987C1329.14 202.266 1329.19 202.505 1329.31 202.705C1329.43 202.9 1329.62 203.086 1329.89 203.262C1330.16 203.438 1330.64 203.669 1331.34 203.958C1332.13 204.285 1332.7 204.59 1333.07 204.873C1333.44 205.156 1333.7 205.476 1333.87 205.833C1334.05 206.189 1334.13 206.609 1334.13 207.092ZM1339.9 210H1338.15V200.793H1335V199.292H1343.05V200.793H1339.9V210ZM1346 199.453C1345.74 200.474 1345.31 201.643 1344.71 202.961H1343.47C1343.81 201.55 1344.05 200.327 1344.2 199.292H1345.89L1346 199.453ZM1349.06 199.453C1348.8 200.474 1348.37 201.643 1347.77 202.961H1346.51C1346.85 201.638 1347.1 200.415 1347.26 199.292H1348.96L1349.06 199.453Z" fill="#4D4D4D"/>
</svg>
