<svg width="2378" height="471" viewBox="0 0 2378 471" fill="none" xmlns="http://www.w3.org/2000/svg">
<rect width="2378" height="471" fill="white"/>
<path d="M582.121 222.121C583.293 220.95 583.293 219.05 582.121 217.879L563.029 198.787C561.858 197.615 559.958 197.615 558.787 198.787C557.615 199.958 557.615 201.858 558.787 203.029L575.757 220L558.787 236.971C557.615 238.142 557.615 240.042 558.787 241.213C559.958 242.385 561.858 242.385 563.029 241.213L582.121 222.121ZM491 223H580V217H491V223Z" fill="#A7A5A5"/>
<path d="M1202.12 222.121C1203.29 220.95 1203.29 219.05 1202.12 217.879L1183.03 198.787C1181.86 197.615 1179.96 197.615 1178.79 198.787C1177.62 199.958 1177.62 201.858 1178.79 203.029L1195.76 220L1178.79 236.971C1177.62 238.142 1177.62 240.042 1178.79 241.213C1179.96 242.385 1181.86 242.385 1183.03 241.213L1202.12 222.121ZM1111 223H1200V217H1111V223Z" fill="#A7A5A5"/>
<path d="M1822.12 222.121C1823.29 220.95 1823.29 219.05 1822.12 217.879L1803.03 198.787C1801.86 197.615 1799.96 197.615 1798.79 198.787C1797.62 199.958 1797.62 201.858 1798.79 203.029L1815.76 220L1798.79 236.971C1797.62 238.142 1797.62 240.042 1798.79 241.213C1799.96 242.385 1801.86 242.385 1803.03 241.213L1822.12 222.121ZM1731 223H1820V217H1731V223Z" fill="#A7A5A5"/>
<path d="M904.121 222.121C905.293 220.95 905.293 219.05 904.121 217.879L885.029 198.787C883.858 197.615 881.958 197.615 880.787 198.787C879.615 199.958 879.615 201.858 880.787 203.029L897.757 220L880.787 236.971C879.615 238.142 879.615 240.042 880.787 241.213C881.958 242.385 883.858 242.385 885.029 241.213L904.121 222.121ZM813 223H902V217H813V223Z" fill="#A7A5A5"/>
<path d="M1524.12 222.121C1525.29 220.95 1525.29 219.05 1524.12 217.879L1505.03 198.787C1503.86 197.615 1501.96 197.615 1500.79 198.787C1499.62 199.958 1499.62 201.858 1500.79 203.029L1517.76 220L1500.79 236.971C1499.62 238.142 1499.62 240.042 1500.79 241.213C1501.96 242.385 1503.86 242.385 1505.03 241.213L1524.12 222.121ZM1433 223H1522V217H1433V223Z" fill="#A7A5A5"/>
<circle cx="418" cy="220" r="84" fill="white" stroke="#D8D8D8" stroke-width="2"/>
<path d="M390 216L388.93 213.026H384.836L383.789 216H381.943L385.949 205.248H387.854L391.86 216H390ZM388.469 211.518L387.465 208.603C387.392 208.407 387.29 208.1 387.158 207.68C387.031 207.26 386.943 206.952 386.894 206.757C386.762 207.357 386.569 208.014 386.315 208.727L385.349 211.518H388.469ZM397.829 206.64C396.823 206.64 396.032 206.996 395.456 207.709C394.88 208.422 394.592 209.406 394.592 210.661C394.592 211.974 394.868 212.968 395.419 213.642C395.976 214.315 396.779 214.652 397.829 214.652C398.283 214.652 398.723 214.608 399.147 214.521C399.572 214.428 400.014 214.311 400.473 214.169V215.67C399.633 215.988 398.681 216.146 397.617 216.146C396.049 216.146 394.846 215.673 394.006 214.726C393.166 213.773 392.746 212.414 392.746 210.646C392.746 209.533 392.949 208.559 393.354 207.724C393.764 206.889 394.355 206.249 395.126 205.805C395.898 205.36 396.804 205.138 397.844 205.138C398.938 205.138 399.948 205.368 400.876 205.827L400.246 207.284C399.885 207.113 399.501 206.964 399.096 206.837C398.696 206.706 398.273 206.64 397.829 206.64ZM407.336 206.64C406.33 206.64 405.539 206.996 404.963 207.709C404.387 208.422 404.099 209.406 404.099 210.661C404.099 211.974 404.375 212.968 404.926 213.642C405.483 214.315 406.286 214.652 407.336 214.652C407.79 214.652 408.229 214.608 408.654 214.521C409.079 214.428 409.521 214.311 409.98 214.169V215.67C409.14 215.988 408.188 216.146 407.124 216.146C405.556 216.146 404.353 215.673 403.513 214.726C402.673 213.773 402.253 212.414 402.253 210.646C402.253 209.533 402.456 208.559 402.861 207.724C403.271 206.889 403.862 206.249 404.633 205.805C405.405 205.36 406.311 205.138 407.351 205.138C408.444 205.138 409.455 205.368 410.383 205.827L409.753 207.284C409.392 207.113 409.008 206.964 408.603 206.837C408.203 206.706 407.78 206.64 407.336 206.64ZM421.794 210.631C421.794 212.375 421.357 213.729 420.483 214.696C419.614 215.663 418.381 216.146 416.784 216.146C415.168 216.146 413.925 215.668 413.056 214.711C412.192 213.749 411.76 212.384 411.76 210.617C411.76 208.849 412.194 207.492 413.063 206.544C413.938 205.597 415.183 205.124 416.799 205.124C418.391 205.124 419.621 205.604 420.49 206.566C421.359 207.528 421.794 208.883 421.794 210.631ZM413.62 210.631C413.62 211.95 413.886 212.951 414.418 213.634C414.951 214.313 415.739 214.652 416.784 214.652C417.824 214.652 418.608 214.315 419.135 213.642C419.667 212.968 419.934 211.964 419.934 210.631C419.934 209.318 419.67 208.322 419.143 207.643C418.62 206.964 417.839 206.625 416.799 206.625C415.749 206.625 414.956 206.964 414.418 207.643C413.886 208.322 413.62 209.318 413.62 210.631ZM432.487 205.292V212.221C432.487 213.012 432.316 213.705 431.975 214.301C431.638 214.892 431.147 215.348 430.502 215.67C429.863 215.988 429.096 216.146 428.203 216.146C426.875 216.146 425.842 215.795 425.104 215.092C424.367 214.389 423.999 213.422 423.999 212.191V205.292H425.756V212.067C425.756 212.951 425.961 213.603 426.372 214.022C426.782 214.442 427.412 214.652 428.261 214.652C429.912 214.652 430.737 213.786 430.737 212.052V205.292H432.487ZM444.147 216H442.001L436.735 207.467H436.677L436.713 207.943C436.782 208.852 436.816 209.682 436.816 210.434V216H435.227V205.292H437.351L442.602 213.781H442.646C442.636 213.668 442.617 213.261 442.587 212.558C442.558 211.85 442.543 211.298 442.543 210.902V205.292H444.147V216ZM450.673 216H448.923V206.793H445.773V205.292H453.823V206.793H450.673V216ZM381.782 230.543C381.782 232.311 381.291 233.664 380.31 234.601C379.328 235.534 377.915 236 376.069 236H373.073V225.292H376.384C378.088 225.292 379.414 225.751 380.361 226.669C381.308 227.587 381.782 228.878 381.782 230.543ZM379.936 230.602C379.936 228.039 378.737 226.757 376.34 226.757H374.824V234.528H376.069C378.647 234.528 379.936 233.219 379.936 230.602ZM390.732 236L389.663 233.026H385.568L384.521 236H382.675L386.682 225.248H388.586L392.592 236H390.732ZM389.201 231.518L388.198 228.603C388.125 228.407 388.022 228.1 387.89 227.68C387.763 227.26 387.675 226.952 387.626 226.757C387.495 227.357 387.302 228.014 387.048 228.727L386.081 231.518H389.201ZM400.18 233.092C400.18 234.044 399.836 234.792 399.147 235.333C398.459 235.875 397.509 236.146 396.298 236.146C395.087 236.146 394.096 235.958 393.325 235.583V233.927C393.813 234.157 394.331 234.337 394.877 234.469C395.429 234.601 395.942 234.667 396.416 234.667C397.109 234.667 397.619 234.535 397.946 234.271C398.278 234.008 398.444 233.654 398.444 233.209C398.444 232.809 398.293 232.47 397.99 232.191C397.688 231.913 397.062 231.583 396.115 231.203C395.139 230.807 394.45 230.355 394.05 229.848C393.649 229.34 393.449 228.729 393.449 228.017C393.449 227.123 393.767 226.42 394.401 225.907C395.036 225.395 395.888 225.138 396.958 225.138C397.983 225.138 399.003 225.363 400.019 225.812L399.462 227.24C398.51 226.84 397.661 226.64 396.914 226.64C396.347 226.64 395.917 226.764 395.625 227.013C395.332 227.257 395.185 227.582 395.185 227.987C395.185 228.266 395.244 228.505 395.361 228.705C395.478 228.9 395.671 229.086 395.939 229.262C396.208 229.438 396.691 229.669 397.39 229.958C398.176 230.285 398.752 230.59 399.118 230.873C399.484 231.156 399.753 231.476 399.924 231.833C400.095 232.189 400.18 232.609 400.18 233.092ZM410.698 236H408.94V231.173H404.003V236H402.253V225.292H404.003V229.672H408.94V225.292H410.698V236ZM413.518 225.292H416.696C418.171 225.292 419.235 225.507 419.89 225.937C420.549 226.366 420.878 227.045 420.878 227.973C420.878 228.598 420.717 229.118 420.395 229.533C420.073 229.948 419.609 230.209 419.003 230.316V230.39C419.755 230.531 420.307 230.812 420.659 231.232C421.015 231.647 421.193 232.211 421.193 232.924C421.193 233.886 420.856 234.64 420.183 235.187C419.514 235.729 418.581 236 417.385 236H413.518V225.292ZM415.268 229.716H416.953C417.685 229.716 418.22 229.601 418.557 229.372C418.894 229.137 419.062 228.742 419.062 228.185C419.062 227.682 418.879 227.318 418.513 227.094C418.151 226.869 417.575 226.757 416.784 226.757H415.268V229.716ZM415.268 231.137V234.528H417.128C417.861 234.528 418.413 234.389 418.784 234.11C419.16 233.827 419.348 233.383 419.348 232.777C419.348 232.221 419.157 231.808 418.776 231.54C418.396 231.271 417.817 231.137 417.041 231.137H415.268ZM432.927 230.631C432.927 232.375 432.49 233.729 431.616 234.696C430.747 235.663 429.514 236.146 427.917 236.146C426.301 236.146 425.058 235.668 424.189 234.711C423.325 233.749 422.893 232.384 422.893 230.617C422.893 228.849 423.327 227.492 424.196 226.544C425.07 225.597 426.315 225.124 427.932 225.124C429.523 225.124 430.754 225.604 431.623 226.566C432.492 227.528 432.927 228.883 432.927 230.631ZM424.753 230.631C424.753 231.95 425.019 232.951 425.551 233.634C426.083 234.313 426.872 234.652 427.917 234.652C428.957 234.652 429.741 234.315 430.268 233.642C430.8 232.968 431.066 231.964 431.066 230.631C431.066 229.318 430.803 228.322 430.275 227.643C429.753 226.964 428.972 226.625 427.932 226.625C426.882 226.625 426.088 226.964 425.551 227.643C425.019 228.322 424.753 229.318 424.753 230.631ZM441.87 236L440.8 233.026H436.706L435.659 236H433.813L437.819 225.248H439.724L443.73 236H441.87ZM440.339 231.518L439.335 228.603C439.262 228.407 439.16 228.1 439.028 227.68C438.901 227.26 438.813 226.952 438.764 226.757C438.632 227.357 438.439 228.014 438.186 228.727L437.219 231.518H440.339ZM446.894 230.272H448.11C448.925 230.272 449.516 230.121 449.882 229.818C450.249 229.516 450.432 229.066 450.432 228.471C450.432 227.865 450.234 227.431 449.838 227.167C449.443 226.903 448.847 226.771 448.051 226.771H446.894V230.272ZM446.894 231.723V236H445.144V225.292H448.168C449.55 225.292 450.573 225.551 451.237 226.068C451.901 226.586 452.233 227.367 452.233 228.412C452.233 229.745 451.54 230.695 450.153 231.261L453.178 236H451.186L448.623 231.723H446.894ZM463.447 230.543C463.447 232.311 462.956 233.664 461.975 234.601C460.993 235.534 459.58 236 457.734 236H454.738V225.292H458.049C459.753 225.292 461.079 225.751 462.026 226.669C462.973 227.587 463.447 228.878 463.447 230.543ZM461.601 230.602C461.601 228.039 460.402 226.757 458.005 226.757H456.489V234.528H457.734C460.312 234.528 461.601 233.219 461.601 230.602Z" fill="#4D4D4D"/>
<circle cx="1960" cy="220" r="84" fill="white" stroke="#D8D8D8" stroke-width="2"/>
<path d="M1916.83 216H1910.77V205.292H1916.83V206.771H1912.52V209.687H1916.56V211.151H1912.52V214.513H1916.83V216ZM1928.07 216H1925.93L1920.66 207.467H1920.6L1920.64 207.943C1920.71 208.852 1920.74 209.682 1920.74 210.434V216H1919.15V205.292H1921.28L1926.53 213.781H1926.57C1926.56 213.668 1926.54 213.261 1926.51 212.558C1926.48 211.85 1926.47 211.298 1926.47 210.902V205.292H1928.07V216ZM1934.6 216H1932.85V206.793H1929.7V205.292H1937.75V206.793H1934.6V216ZM1945.45 216H1939.4V205.292H1945.45V206.771H1941.15V209.687H1945.18V211.151H1941.15V214.513H1945.45V216ZM1949.53 210.272H1950.74C1951.56 210.272 1952.15 210.121 1952.51 209.818C1952.88 209.516 1953.06 209.066 1953.06 208.471C1953.06 207.865 1952.87 207.431 1952.47 207.167C1952.08 206.903 1951.48 206.771 1950.68 206.771H1949.53V210.272ZM1949.53 211.723V216H1947.78V205.292H1950.8C1952.18 205.292 1953.21 205.551 1953.87 206.068C1954.53 206.586 1954.87 207.367 1954.87 208.412C1954.87 209.745 1954.17 210.695 1952.79 211.261L1955.81 216H1953.82L1951.25 211.723H1949.53ZM1961.27 216V205.292H1963.02V216H1961.27ZM1974.77 216H1972.63L1967.36 207.467H1967.3L1967.34 207.943C1967.41 208.852 1967.44 209.682 1967.44 210.434V216H1965.85V205.292H1967.98L1973.23 213.781H1973.27C1973.26 213.668 1973.24 213.261 1973.21 212.558C1973.18 211.85 1973.17 211.298 1973.17 210.902V205.292H1974.77V216ZM1983.7 205.292H1985.52L1981.77 216H1979.92L1976.19 205.292H1977.99L1980.22 211.95C1980.34 212.267 1980.46 212.677 1980.6 213.18C1980.73 213.678 1980.81 214.049 1980.85 214.293C1980.92 213.922 1981.01 213.493 1981.15 213.004C1981.28 212.516 1981.38 212.155 1981.47 211.92L1983.7 205.292ZM1992.99 216H1986.93V205.292H1992.99V206.771H1988.68V209.687H1992.72V211.151H1988.68V214.513H1992.99V216ZM2001.48 213.092C2001.48 214.044 2001.14 214.792 2000.45 215.333C1999.76 215.875 1998.81 216.146 1997.6 216.146C1996.39 216.146 1995.4 215.958 1994.63 215.583V213.927C1995.12 214.157 1995.63 214.337 1996.18 214.469C1996.73 214.601 1997.25 214.667 1997.72 214.667C1998.41 214.667 1998.92 214.535 1999.25 214.271C1999.58 214.008 1999.75 213.654 1999.75 213.209C1999.75 212.809 1999.6 212.47 1999.29 212.191C1998.99 211.913 1998.37 211.583 1997.42 211.203C1996.44 210.807 1995.75 210.355 1995.35 209.848C1994.95 209.34 1994.75 208.729 1994.75 208.017C1994.75 207.123 1995.07 206.42 1995.71 205.907C1996.34 205.395 1997.19 205.138 1998.26 205.138C1999.29 205.138 2000.31 205.363 2001.32 205.812L2000.77 207.24C1999.81 206.84 1998.96 206.64 1998.22 206.64C1997.65 206.64 1997.22 206.764 1996.93 207.013C1996.64 207.257 1996.49 207.582 1996.49 207.987C1996.49 208.266 1996.55 208.505 1996.67 208.705C1996.78 208.9 1996.98 209.086 1997.24 209.262C1997.51 209.438 1998 209.669 1998.69 209.958C1999.48 210.285 2000.06 210.59 2000.42 210.873C2000.79 211.156 2001.06 211.476 2001.23 211.833C2001.4 212.189 2001.48 212.609 2001.48 213.092ZM2007.26 216H2005.51V206.793H2002.36V205.292H2010.41V206.793H2007.26V216ZM1942.09 236H1940.36V225.292H1946.4V226.771H1942.09V230.119H1946.13V231.605H1942.09V236ZM1948.34 236V225.292H1950.09V234.499H1954.62V236H1948.34ZM1965.98 230.631C1965.98 232.375 1965.54 233.729 1964.67 234.696C1963.8 235.663 1962.56 236.146 1960.97 236.146C1959.35 236.146 1958.11 235.668 1957.24 234.711C1956.37 233.749 1955.94 232.384 1955.94 230.617C1955.94 228.849 1956.38 227.492 1957.25 226.544C1958.12 225.597 1959.37 225.124 1960.98 225.124C1962.57 225.124 1963.8 225.604 1964.67 226.566C1965.54 227.528 1965.98 228.883 1965.98 230.631ZM1957.8 230.631C1957.8 231.95 1958.07 232.951 1958.6 233.634C1959.13 234.313 1959.92 234.652 1960.97 234.652C1962.01 234.652 1962.79 234.315 1963.32 233.642C1963.85 232.968 1964.12 231.964 1964.12 230.631C1964.12 229.318 1963.85 228.322 1963.33 227.643C1962.8 226.964 1962.02 226.625 1960.98 226.625C1959.93 226.625 1959.14 226.964 1958.6 227.643C1958.07 228.322 1957.8 229.318 1957.8 230.631ZM1978.16 236H1976.25L1974.44 229.613C1974.36 229.335 1974.26 228.935 1974.14 228.412C1974.03 227.885 1973.96 227.519 1973.93 227.313C1973.88 227.626 1973.8 228.031 1973.69 228.529C1973.58 229.027 1973.49 229.398 1973.42 229.643L1971.65 236H1969.74L1968.36 230.639L1966.95 225.292H1968.74L1970.27 231.532C1970.51 232.533 1970.68 233.417 1970.78 234.184C1970.83 233.769 1970.92 233.305 1971.02 232.792C1971.13 232.279 1971.23 231.864 1971.32 231.547L1973.06 225.292H1974.79L1976.58 231.576C1976.75 232.157 1976.93 233.026 1977.12 234.184C1977.2 233.485 1977.37 232.597 1977.65 231.518L1979.17 225.292H1980.95L1978.16 236Z" fill="#4D4D4D"/>
<rect x="934" y="150" width="200" height="200" rx="19" fill="white" stroke="#D8D8D8" stroke-width="2"/>
<path d="M965.503 185.529C965.503 186.647 965.137 187.504 964.405 188.1C963.672 188.696 962.63 188.994 961.277 188.994H960.164V193H958.414V182.292H961.497C962.835 182.292 963.836 182.565 964.5 183.112C965.169 183.659 965.503 184.465 965.503 185.529ZM960.164 187.521H961.094C961.993 187.521 962.652 187.365 963.072 187.053C963.492 186.74 963.702 186.252 963.702 185.588C963.702 184.973 963.514 184.514 963.138 184.211C962.762 183.908 962.176 183.757 961.38 183.757H960.164V187.521ZM977.149 187.631C977.149 189.375 976.712 190.729 975.838 191.696C974.969 192.663 973.736 193.146 972.139 193.146C970.523 193.146 969.28 192.668 968.411 191.711C967.547 190.749 967.115 189.384 967.115 187.617C967.115 185.849 967.549 184.492 968.418 183.544C969.292 182.597 970.538 182.124 972.154 182.124C973.746 182.124 974.976 182.604 975.845 183.566C976.714 184.528 977.149 185.883 977.149 187.631ZM968.975 187.631C968.975 188.95 969.241 189.951 969.773 190.634C970.306 191.313 971.094 191.652 972.139 191.652C973.179 191.652 973.963 191.315 974.49 190.642C975.022 189.968 975.289 188.964 975.289 187.631C975.289 186.318 975.025 185.322 974.498 184.643C973.975 183.964 973.194 183.625 972.154 183.625C971.104 183.625 970.311 183.964 969.773 184.643C969.241 185.322 968.975 186.318 968.975 187.631ZM981.199 187.272H982.415C983.23 187.272 983.821 187.121 984.188 186.818C984.554 186.516 984.737 186.066 984.737 185.471C984.737 184.865 984.539 184.431 984.144 184.167C983.748 183.903 983.152 183.771 982.356 183.771H981.199V187.272ZM981.199 188.723V193H979.449V182.292H982.474C983.855 182.292 984.878 182.551 985.542 183.068C986.207 183.586 986.539 184.367 986.539 185.412C986.539 186.745 985.845 187.695 984.458 188.261L987.483 193H985.491L982.928 188.723H981.199ZM992.742 193H990.992V183.793H987.842V182.292H995.892V183.793H992.742V193ZM999.275 193H997.54V182.292H1003.58V183.771H999.275V187.119H1003.31V188.605H999.275V193ZM1015.03 187.631C1015.03 189.375 1014.59 190.729 1013.72 191.696C1012.85 192.663 1011.62 193.146 1010.02 193.146C1008.4 193.146 1007.16 192.668 1006.29 191.711C1005.43 190.749 1005 189.384 1005 187.617C1005 185.849 1005.43 184.492 1006.3 183.544C1007.17 182.597 1008.42 182.124 1010.03 182.124C1011.63 182.124 1012.86 182.604 1013.73 183.566C1014.6 184.528 1015.03 185.883 1015.03 187.631ZM1006.86 187.631C1006.86 188.95 1007.12 189.951 1007.65 190.634C1008.19 191.313 1008.98 191.652 1010.02 191.652C1011.06 191.652 1011.84 191.315 1012.37 190.642C1012.9 189.968 1013.17 188.964 1013.17 187.631C1013.17 186.318 1012.91 185.322 1012.38 184.643C1011.86 183.964 1011.07 183.625 1010.03 183.625C1008.98 183.625 1008.19 183.964 1007.65 184.643C1007.12 185.322 1006.86 186.318 1006.86 187.631ZM1017.33 193V182.292H1019.08V191.499H1023.61V193H1017.33ZM1025.46 193V182.292H1027.21V193H1025.46ZM1039.55 187.631C1039.55 189.375 1039.11 190.729 1038.24 191.696C1037.37 192.663 1036.14 193.146 1034.54 193.146C1032.93 193.146 1031.68 192.668 1030.81 191.711C1029.95 190.749 1029.52 189.384 1029.52 187.617C1029.52 185.849 1029.95 184.492 1030.82 183.544C1031.69 182.597 1032.94 182.124 1034.56 182.124C1036.15 182.124 1037.38 182.604 1038.25 183.566C1039.12 184.528 1039.55 185.883 1039.55 187.631ZM1031.38 187.631C1031.38 188.95 1031.64 189.951 1032.18 190.634C1032.71 191.313 1033.5 191.652 1034.54 191.652C1035.58 191.652 1036.37 191.315 1036.89 190.642C1037.42 189.968 1037.69 188.964 1037.69 187.631C1037.69 186.318 1037.43 185.322 1036.9 184.643C1036.38 183.964 1035.6 183.625 1034.56 183.625C1033.51 183.625 1032.71 183.964 1032.18 184.643C1031.64 185.322 1031.38 186.318 1031.38 187.631ZM1054.46 187.543C1054.46 189.311 1053.97 190.664 1052.98 191.601C1052 192.534 1050.59 193 1048.74 193H1045.75V182.292H1049.06C1050.76 182.292 1052.09 182.751 1053.04 183.669C1053.98 184.587 1054.46 185.878 1054.46 187.543ZM1052.61 187.602C1052.61 185.039 1051.41 183.757 1049.01 183.757H1047.5V191.528H1048.74C1051.32 191.528 1052.61 190.219 1052.61 187.602ZM1062.82 193H1056.76V182.292H1062.82V183.771H1058.51V186.687H1062.55V188.151H1058.51V191.513H1062.82V193ZM1068.84 193H1067.09V183.793H1063.94V182.292H1071.99V183.793H1068.84V193ZM1080.28 193L1079.21 190.026H1075.12L1074.07 193H1072.22L1076.23 182.248H1078.14L1082.14 193H1080.28ZM1078.75 188.518L1077.75 185.603C1077.67 185.407 1077.57 185.1 1077.44 184.68C1077.31 184.26 1077.22 183.952 1077.18 183.757C1077.04 184.357 1076.85 185.014 1076.6 185.727L1075.63 188.518H1078.75ZM1083.56 193V182.292H1085.31V193H1083.56ZM1088.14 193V182.292H1089.89V191.499H1094.42V193H1088.14ZM1102.44 190.092C1102.44 191.044 1102.1 191.792 1101.41 192.333C1100.72 192.875 1099.77 193.146 1098.56 193.146C1097.35 193.146 1096.36 192.958 1095.59 192.583V190.927C1096.08 191.157 1096.59 191.337 1097.14 191.469C1097.69 191.601 1098.21 191.667 1098.68 191.667C1099.37 191.667 1099.88 191.535 1100.21 191.271C1100.54 191.008 1100.71 190.654 1100.71 190.209C1100.71 189.809 1100.56 189.47 1100.25 189.191C1099.95 188.913 1099.33 188.583 1098.38 188.203C1097.4 187.807 1096.71 187.355 1096.31 186.848C1095.91 186.34 1095.71 185.729 1095.71 185.017C1095.71 184.123 1096.03 183.42 1096.67 182.907C1097.3 182.395 1098.15 182.138 1099.22 182.138C1100.25 182.138 1101.27 182.363 1102.28 182.812L1101.73 184.24C1100.77 183.84 1099.92 183.64 1099.18 183.64C1098.61 183.64 1098.18 183.764 1097.89 184.013C1097.6 184.257 1097.45 184.582 1097.45 184.987C1097.45 185.266 1097.51 185.505 1097.62 185.705C1097.74 185.9 1097.94 186.086 1098.2 186.262C1098.47 186.438 1098.96 186.669 1099.65 186.958C1100.44 187.285 1101.02 187.59 1101.38 187.873C1101.75 188.156 1102.02 188.476 1102.19 188.833C1102.36 189.189 1102.44 189.609 1102.44 190.092Z" fill="#4D4D4D"/>
<path d="M960.623 230.062V236H958.963V221.723H962.879C964.63 221.723 965.923 222.058 966.756 222.729C967.596 223.399 968.016 224.408 968.016 225.756C968.016 227.644 967.059 228.92 965.145 229.584L969.021 236H967.059L963.602 230.062H960.623ZM960.623 228.637H962.898C964.07 228.637 964.93 228.406 965.477 227.943C966.023 227.475 966.297 226.775 966.297 225.844C966.297 224.9 966.017 224.219 965.457 223.803C964.904 223.386 964.012 223.178 962.781 223.178H960.623V228.637ZM975.604 236.195C974.021 236.195 972.771 235.714 971.854 234.75C970.942 233.786 970.486 232.449 970.486 230.736C970.486 229.011 970.91 227.641 971.756 226.625C972.609 225.609 973.751 225.102 975.184 225.102C976.525 225.102 977.586 225.544 978.367 226.43C979.148 227.309 979.539 228.471 979.539 229.916V230.941H972.166C972.199 232.198 972.514 233.152 973.113 233.803C973.719 234.454 974.568 234.779 975.662 234.779C976.814 234.779 977.954 234.538 979.08 234.057V235.502C978.507 235.749 977.964 235.925 977.449 236.029C976.941 236.14 976.326 236.195 975.604 236.195ZM975.164 226.459C974.305 226.459 973.618 226.739 973.104 227.299C972.596 227.859 972.296 228.633 972.205 229.623H977.801C977.801 228.601 977.573 227.82 977.117 227.279C976.661 226.732 976.01 226.459 975.164 226.459ZM984.656 236L980.594 225.297H982.332L984.637 231.645C985.158 233.129 985.464 234.092 985.555 234.535H985.633C985.704 234.19 985.929 233.477 986.307 232.396C986.691 231.309 987.547 228.943 988.875 225.297H990.613L986.551 236H984.656ZM993.953 236H992.332V225.297H993.953V236ZM992.195 222.396C992.195 222.025 992.286 221.755 992.469 221.586C992.651 221.41 992.879 221.322 993.152 221.322C993.413 221.322 993.637 221.41 993.826 221.586C994.015 221.762 994.109 222.032 994.109 222.396C994.109 222.761 994.015 223.035 993.826 223.217C993.637 223.393 993.413 223.48 993.152 223.48C992.879 223.48 992.651 223.393 992.469 223.217C992.286 223.035 992.195 222.761 992.195 222.396ZM1001.91 236.195C1000.33 236.195 999.08 235.714 998.162 234.75C997.251 233.786 996.795 232.449 996.795 230.736C996.795 229.011 997.218 227.641 998.064 226.625C998.917 225.609 1000.06 225.102 1001.49 225.102C1002.83 225.102 1003.89 225.544 1004.68 226.43C1005.46 227.309 1005.85 228.471 1005.85 229.916V230.941H998.475C998.507 232.198 998.823 233.152 999.422 233.803C1000.03 234.454 1000.88 234.779 1001.97 234.779C1003.12 234.779 1004.26 234.538 1005.39 234.057V235.502C1004.82 235.749 1004.27 235.925 1003.76 236.029C1003.25 236.14 1002.63 236.195 1001.91 236.195ZM1001.47 226.459C1000.61 226.459 999.926 226.739 999.412 227.299C998.904 227.859 998.605 228.633 998.514 229.623H1004.11C1004.11 228.601 1003.88 227.82 1003.43 227.279C1002.97 226.732 1002.32 226.459 1001.47 226.459ZM1017.36 236L1015.4 229.721C1015.27 229.337 1015.04 228.464 1014.71 227.104H1014.63C1014.37 228.243 1014.14 229.122 1013.94 229.74L1011.92 236H1010.05L1007.13 225.297H1008.83C1009.52 227.986 1010.04 230.033 1010.4 231.439C1010.76 232.846 1010.97 233.793 1011.02 234.281H1011.1C1011.17 233.91 1011.29 233.432 1011.44 232.846C1011.61 232.253 1011.75 231.785 1011.86 231.439L1013.83 225.297H1015.58L1017.5 231.439C1017.86 232.559 1018.11 233.5 1018.24 234.262H1018.32C1018.34 234.027 1018.41 233.666 1018.52 233.178C1018.64 232.689 1019.32 230.062 1020.56 225.297H1022.24L1019.29 236H1017.36ZM965.301 264L964.979 262.477H964.9C964.367 263.147 963.833 263.603 963.299 263.844C962.771 264.078 962.111 264.195 961.316 264.195C960.255 264.195 959.422 263.922 958.816 263.375C958.217 262.828 957.918 262.05 957.918 261.041C957.918 258.88 959.646 257.747 963.104 257.643L964.92 257.584V256.92C964.92 256.08 964.738 255.462 964.373 255.064C964.015 254.661 963.439 254.459 962.645 254.459C961.753 254.459 960.743 254.732 959.617 255.279L959.119 254.039C959.646 253.753 960.223 253.528 960.848 253.365C961.479 253.202 962.111 253.121 962.742 253.121C964.018 253.121 964.962 253.404 965.574 253.971C966.193 254.537 966.502 255.445 966.502 256.695V264H965.301ZM961.639 262.857C962.648 262.857 963.439 262.581 964.012 262.027C964.591 261.474 964.881 260.699 964.881 259.703V258.736L963.26 258.805C961.971 258.85 961.04 259.052 960.467 259.41C959.9 259.762 959.617 260.312 959.617 261.061C959.617 261.646 959.793 262.092 960.145 262.398C960.503 262.704 961.001 262.857 961.639 262.857ZM971.473 264H969.852V248.805H971.473V264ZM976.531 264H974.91V248.805H976.531V264ZM989.207 258.639C989.207 260.383 988.768 261.747 987.889 262.73C987.01 263.707 985.796 264.195 984.246 264.195C983.289 264.195 982.439 263.971 981.697 263.521C980.955 263.072 980.382 262.428 979.979 261.588C979.575 260.748 979.373 259.765 979.373 258.639C979.373 256.894 979.809 255.536 980.682 254.566C981.554 253.59 982.765 253.102 984.314 253.102C985.812 253.102 987 253.6 987.879 254.596C988.764 255.592 989.207 256.939 989.207 258.639ZM981.053 258.639C981.053 260.006 981.326 261.048 981.873 261.764C982.42 262.48 983.224 262.838 984.285 262.838C985.346 262.838 986.15 262.483 986.697 261.773C987.251 261.057 987.527 260.012 987.527 258.639C987.527 257.278 987.251 256.246 986.697 255.543C986.15 254.833 985.34 254.479 984.266 254.479C983.204 254.479 982.404 254.827 981.863 255.523C981.323 256.22 981.053 257.258 981.053 258.639ZM996.336 264.195C994.786 264.195 993.585 263.72 992.732 262.77C991.886 261.812 991.463 260.462 991.463 258.717C991.463 256.926 991.893 255.543 992.752 254.566C993.618 253.59 994.848 253.102 996.443 253.102C996.958 253.102 997.472 253.157 997.986 253.268C998.501 253.378 998.904 253.508 999.197 253.658L998.699 255.035C998.341 254.892 997.951 254.775 997.527 254.684C997.104 254.586 996.73 254.537 996.404 254.537C994.23 254.537 993.143 255.924 993.143 258.697C993.143 260.012 993.406 261.021 993.934 261.725C994.467 262.428 995.255 262.779 996.297 262.779C997.189 262.779 998.104 262.587 999.041 262.203V263.639C998.325 264.01 997.423 264.195 996.336 264.195ZM1008.17 264L1007.85 262.477H1007.77C1007.24 263.147 1006.7 263.603 1006.17 263.844C1005.64 264.078 1004.98 264.195 1004.19 264.195C1003.13 264.195 1002.29 263.922 1001.69 263.375C1001.09 262.828 1000.79 262.05 1000.79 261.041C1000.79 258.88 1002.52 257.747 1005.97 257.643L1007.79 257.584V256.92C1007.79 256.08 1007.61 255.462 1007.24 255.064C1006.89 254.661 1006.31 254.459 1005.52 254.459C1004.62 254.459 1003.61 254.732 1002.49 255.279L1001.99 254.039C1002.52 253.753 1003.09 253.528 1003.72 253.365C1004.35 253.202 1004.98 253.121 1005.61 253.121C1006.89 253.121 1007.83 253.404 1008.45 253.971C1009.06 254.537 1009.37 255.445 1009.37 256.695V264H1008.17ZM1004.51 262.857C1005.52 262.857 1006.31 262.581 1006.88 262.027C1007.46 261.474 1007.75 260.699 1007.75 259.703V258.736L1006.13 258.805C1004.84 258.85 1003.91 259.052 1003.34 259.41C1002.77 259.762 1002.49 260.312 1002.49 261.061C1002.49 261.646 1002.66 262.092 1003.02 262.398C1003.37 262.704 1003.87 262.857 1004.51 262.857ZM1016.18 262.857C1016.47 262.857 1016.74 262.838 1017.01 262.799C1017.28 262.753 1017.49 262.708 1017.64 262.662V263.902C1017.47 263.987 1017.21 264.055 1016.86 264.107C1016.52 264.166 1016.22 264.195 1015.95 264.195C1013.88 264.195 1012.84 263.105 1012.84 260.924V254.557H1011.31V253.775L1012.84 253.102L1013.52 250.816H1014.46V253.297H1017.57V254.557H1014.46V260.855C1014.46 261.5 1014.61 261.995 1014.92 262.34C1015.23 262.685 1015.65 262.857 1016.18 262.857ZM1021.41 264H1019.79V253.297H1021.41V264ZM1019.66 250.396C1019.66 250.025 1019.75 249.755 1019.93 249.586C1020.11 249.41 1020.34 249.322 1020.61 249.322C1020.87 249.322 1021.1 249.41 1021.29 249.586C1021.48 249.762 1021.57 250.032 1021.57 250.396C1021.57 250.761 1021.48 251.035 1021.29 251.217C1021.1 251.393 1020.87 251.48 1020.61 251.48C1020.34 251.48 1020.11 251.393 1019.93 251.217C1019.75 251.035 1019.66 250.761 1019.66 250.396ZM1034.09 258.639C1034.09 260.383 1033.65 261.747 1032.77 262.73C1031.89 263.707 1030.68 264.195 1029.13 264.195C1028.17 264.195 1027.32 263.971 1026.58 263.521C1025.84 263.072 1025.26 262.428 1024.86 261.588C1024.46 260.748 1024.26 259.765 1024.26 258.639C1024.26 256.894 1024.69 255.536 1025.56 254.566C1026.44 253.59 1027.65 253.102 1029.2 253.102C1030.69 253.102 1031.88 253.6 1032.76 254.596C1033.65 255.592 1034.09 256.939 1034.09 258.639ZM1025.94 258.639C1025.94 260.006 1026.21 261.048 1026.76 261.764C1027.3 262.48 1028.11 262.838 1029.17 262.838C1030.23 262.838 1031.03 262.483 1031.58 261.773C1032.13 261.057 1032.41 260.012 1032.41 258.639C1032.41 257.278 1032.13 256.246 1031.58 255.543C1031.03 254.833 1030.22 254.479 1029.15 254.479C1028.09 254.479 1027.29 254.827 1026.75 255.523C1026.21 256.22 1025.94 257.258 1025.94 258.639ZM1044.27 264V257.076C1044.27 256.204 1044.07 255.553 1043.67 255.123C1043.27 254.693 1042.65 254.479 1041.8 254.479C1040.68 254.479 1039.86 254.781 1039.34 255.387C1038.82 255.992 1038.56 256.992 1038.56 258.385V264H1036.94V253.297H1038.26L1038.52 254.762H1038.6C1038.93 254.234 1039.4 253.827 1040 253.541C1040.6 253.248 1041.26 253.102 1042 253.102C1043.29 253.102 1044.26 253.414 1044.91 254.039C1045.56 254.658 1045.89 255.65 1045.89 257.018V264H1044.27ZM1061 264L1060.68 262.477H1060.6C1060.07 263.147 1059.54 263.603 1059 263.844C1058.47 264.078 1057.81 264.195 1057.02 264.195C1055.96 264.195 1055.12 263.922 1054.52 263.375C1053.92 262.828 1053.62 262.05 1053.62 261.041C1053.62 258.88 1055.35 257.747 1058.81 257.643L1060.62 257.584V256.92C1060.62 256.08 1060.44 255.462 1060.08 255.064C1059.72 254.661 1059.14 254.459 1058.35 254.459C1057.46 254.459 1056.45 254.732 1055.32 255.279L1054.82 254.039C1055.35 253.753 1055.93 253.528 1056.55 253.365C1057.18 253.202 1057.81 253.121 1058.45 253.121C1059.72 253.121 1060.67 253.404 1061.28 253.971C1061.9 254.537 1062.21 255.445 1062.21 256.695V264H1061ZM1057.34 262.857C1058.35 262.857 1059.14 262.581 1059.71 262.027C1060.29 261.474 1060.58 260.699 1060.58 259.703V258.736L1058.96 258.805C1057.67 258.85 1056.74 259.052 1056.17 259.41C1055.6 259.762 1055.32 260.312 1055.32 261.061C1055.32 261.646 1055.5 262.092 1055.85 262.398C1056.21 262.704 1056.7 262.857 1057.34 262.857ZM1072.88 264V257.076C1072.88 256.204 1072.68 255.553 1072.28 255.123C1071.89 254.693 1071.26 254.479 1070.42 254.479C1069.3 254.479 1068.48 254.781 1067.96 255.387C1067.44 255.992 1067.18 256.992 1067.18 258.385V264H1065.55V253.297H1066.87L1067.14 254.762H1067.21C1067.55 254.234 1068.01 253.827 1068.61 253.541C1069.21 253.248 1069.88 253.102 1070.61 253.102C1071.9 253.102 1072.87 253.414 1073.52 254.039C1074.17 254.658 1074.5 255.65 1074.5 257.018V264H1072.88ZM1085.12 262.564H1085.04C1084.29 263.652 1083.17 264.195 1081.68 264.195C1080.28 264.195 1079.19 263.717 1078.41 262.76C1077.63 261.803 1077.24 260.442 1077.24 258.678C1077.24 256.913 1077.63 255.543 1078.42 254.566C1079.2 253.59 1080.28 253.102 1081.68 253.102C1083.13 253.102 1084.24 253.629 1085.02 254.684H1085.14L1085.08 253.912L1085.04 253.16V248.805H1086.66V264H1085.34L1085.12 262.564ZM1081.88 262.838C1082.99 262.838 1083.79 262.538 1084.29 261.939C1084.79 261.334 1085.04 260.361 1085.04 259.02V258.678C1085.04 257.161 1084.78 256.08 1084.28 255.436C1083.77 254.785 1082.97 254.459 1081.86 254.459C1080.91 254.459 1080.18 254.83 1079.68 255.572C1079.17 256.308 1078.92 257.35 1078.92 258.697C1078.92 260.064 1079.17 261.096 1079.68 261.793C1080.18 262.49 1080.91 262.838 1081.88 262.838ZM963.602 281.102C964.077 281.102 964.503 281.141 964.881 281.219L964.656 282.723C964.214 282.625 963.823 282.576 963.484 282.576C962.618 282.576 961.876 282.928 961.258 283.631C960.646 284.334 960.34 285.21 960.34 286.258V292H958.719V281.297H960.057L960.242 283.279H960.32C960.717 282.583 961.196 282.046 961.756 281.668C962.316 281.29 962.931 281.102 963.602 281.102ZM971.404 292.195C969.822 292.195 968.572 291.714 967.654 290.75C966.743 289.786 966.287 288.449 966.287 286.736C966.287 285.011 966.71 283.641 967.557 282.625C968.41 281.609 969.552 281.102 970.984 281.102C972.326 281.102 973.387 281.544 974.168 282.43C974.949 283.309 975.34 284.471 975.34 285.916V286.941H967.967C967.999 288.198 968.315 289.152 968.914 289.803C969.52 290.454 970.369 290.779 971.463 290.779C972.615 290.779 973.755 290.538 974.881 290.057V291.502C974.308 291.749 973.764 291.925 973.25 292.029C972.742 292.14 972.127 292.195 971.404 292.195ZM970.965 282.459C970.105 282.459 969.419 282.739 968.904 283.299C968.396 283.859 968.097 284.633 968.006 285.623H973.602C973.602 284.601 973.374 283.82 972.918 283.279C972.462 282.732 971.811 282.459 970.965 282.459ZM981.57 290.857C981.857 290.857 982.133 290.838 982.4 290.799C982.667 290.753 982.879 290.708 983.035 290.662V291.902C982.859 291.987 982.599 292.055 982.254 292.107C981.915 292.166 981.609 292.195 981.336 292.195C979.266 292.195 978.23 291.105 978.23 288.924V282.557H976.697V281.775L978.23 281.102L978.914 278.816H979.852V281.297H982.957V282.557H979.852V288.855C979.852 289.5 980.005 289.995 980.311 290.34C980.617 290.685 981.036 290.857 981.57 290.857ZM986.707 281.297V288.24C986.707 289.113 986.906 289.764 987.303 290.193C987.7 290.623 988.322 290.838 989.168 290.838C990.288 290.838 991.105 290.532 991.619 289.92C992.14 289.308 992.4 288.309 992.4 286.922V281.297H994.021V292H992.684L992.449 290.564H992.361C992.029 291.092 991.567 291.495 990.975 291.775C990.389 292.055 989.718 292.195 988.963 292.195C987.661 292.195 986.684 291.886 986.033 291.268C985.389 290.649 985.066 289.66 985.066 288.299V281.297H986.707ZM1002.35 281.102C1002.83 281.102 1003.25 281.141 1003.63 281.219L1003.41 282.723C1002.96 282.625 1002.57 282.576 1002.23 282.576C1001.37 282.576 1000.63 282.928 1000.01 283.631C999.396 284.334 999.09 285.21 999.09 286.258V292H997.469V281.297H998.807L998.992 283.279H999.07C999.467 282.583 999.946 282.046 1000.51 281.668C1001.07 281.29 1001.68 281.102 1002.35 281.102ZM1012.96 292V285.076C1012.96 284.204 1012.76 283.553 1012.36 283.123C1011.96 282.693 1011.34 282.479 1010.5 282.479C1009.38 282.479 1008.56 282.781 1008.04 283.387C1007.51 283.992 1007.25 284.992 1007.25 286.385V292H1005.63V281.297H1006.95L1007.21 282.762H1007.29C1007.62 282.234 1008.09 281.827 1008.69 281.541C1009.29 281.248 1009.96 281.102 1010.69 281.102C1011.98 281.102 1012.95 281.414 1013.6 282.039C1014.25 282.658 1014.58 283.65 1014.58 285.018V292H1012.96Z" fill="#4D4D4D"/>
<rect x="1554" y="150" width="200" height="200" rx="19" fill="white" stroke="#D8D8D8" stroke-width="2"/>
<path d="M1578.41 193V182.292H1580.16V193H1578.41ZM1591.92 193H1589.77L1584.51 184.467H1584.45L1584.49 184.943C1584.55 185.852 1584.59 186.682 1584.59 187.434V193H1583V182.292H1585.12L1590.37 190.781H1590.42C1590.41 190.668 1590.39 190.261 1590.36 189.558C1590.33 188.85 1590.32 188.298 1590.32 187.902V182.292H1591.92V193ZM1600.85 182.292H1602.66L1598.91 193H1597.07L1593.33 182.292H1595.13L1597.37 188.95C1597.49 189.267 1597.61 189.677 1597.74 190.18C1597.87 190.678 1597.96 191.049 1598 191.293C1598.06 190.922 1598.16 190.493 1598.29 190.004C1598.42 189.516 1598.53 189.155 1598.61 188.92L1600.85 182.292ZM1610.13 193H1604.08V182.292H1610.13V183.771H1605.83V186.687H1609.86V188.151H1605.83V191.513H1610.13V193ZM1618.63 190.092C1618.63 191.044 1618.29 191.792 1617.6 192.333C1616.91 192.875 1615.96 193.146 1614.75 193.146C1613.54 193.146 1612.55 192.958 1611.78 192.583V190.927C1612.26 191.157 1612.78 191.337 1613.33 191.469C1613.88 191.601 1614.39 191.667 1614.87 191.667C1615.56 191.667 1616.07 191.535 1616.4 191.271C1616.73 191.008 1616.9 190.654 1616.9 190.209C1616.9 189.809 1616.74 189.47 1616.44 189.191C1616.14 188.913 1615.51 188.583 1614.57 188.203C1613.59 187.807 1612.9 187.355 1612.5 186.848C1612.1 186.34 1611.9 185.729 1611.9 185.017C1611.9 184.123 1612.22 183.42 1612.85 182.907C1613.49 182.395 1614.34 182.138 1615.41 182.138C1616.43 182.138 1617.45 182.363 1618.47 182.812L1617.91 184.24C1616.96 183.84 1616.11 183.64 1615.36 183.64C1614.8 183.64 1614.37 183.764 1614.08 184.013C1613.78 184.257 1613.64 184.582 1613.64 184.987C1613.64 185.266 1613.69 185.505 1613.81 185.705C1613.93 185.9 1614.12 186.086 1614.39 186.262C1614.66 186.438 1615.14 186.669 1615.84 186.958C1616.63 187.285 1617.2 187.59 1617.57 187.873C1617.94 188.156 1618.2 188.476 1618.37 188.833C1618.55 189.189 1618.63 189.609 1618.63 190.092ZM1624.4 193H1622.65V183.793H1619.5V182.292H1627.55V183.793H1624.4V193ZM1640.19 185.529C1640.19 186.647 1639.82 187.504 1639.09 188.1C1638.35 188.696 1637.31 188.994 1635.96 188.994H1634.85V193H1633.1V182.292H1636.18C1637.52 182.292 1638.52 182.565 1639.18 183.112C1639.85 183.659 1640.19 184.465 1640.19 185.529ZM1634.85 187.521H1635.78C1636.68 187.521 1637.33 187.365 1637.75 187.053C1638.17 186.74 1638.38 186.252 1638.38 185.588C1638.38 184.973 1638.2 184.514 1637.82 184.211C1637.44 183.908 1636.86 183.757 1636.06 183.757H1634.85V187.521ZM1648.97 193L1647.9 190.026H1643.8L1642.76 193H1640.91L1644.92 182.248H1646.82L1650.83 193H1648.97ZM1647.44 188.518L1646.43 185.603C1646.36 185.407 1646.26 185.1 1646.13 184.68C1646 184.26 1645.91 183.952 1645.86 183.757C1645.73 184.357 1645.54 185.014 1645.28 185.727L1644.32 188.518H1647.44ZM1656.62 187.192H1660.56V192.568C1659.92 192.778 1659.3 192.927 1658.7 193.015C1658.11 193.103 1657.47 193.146 1656.78 193.146C1655.16 193.146 1653.91 192.668 1653.03 191.711C1652.15 190.749 1651.71 189.394 1651.71 187.646C1651.71 185.922 1652.21 184.575 1653.2 183.603C1654.19 182.626 1655.56 182.138 1657.3 182.138C1658.41 182.138 1659.47 182.353 1660.47 182.783L1659.86 184.24C1658.99 183.84 1658.12 183.64 1657.25 183.64C1656.11 183.64 1655.21 183.999 1654.54 184.716C1653.88 185.434 1653.55 186.416 1653.55 187.661C1653.55 188.969 1653.84 189.965 1654.44 190.649C1655.04 191.328 1655.9 191.667 1657.02 191.667C1657.59 191.667 1658.2 191.596 1658.84 191.455V188.693H1656.62V187.192ZM1669.2 193H1663.14V182.292H1669.2V183.771H1664.89V186.687H1668.93V188.151H1664.89V191.513H1669.2V193Z" fill="#4D4D4D"/>
<path d="M1589.8 236H1588.14V229.281H1580.62V236H1578.96V221.723H1580.62V227.797H1588.14V221.723H1589.8V236ZM1602.72 230.639C1602.72 232.383 1602.28 233.747 1601.4 234.73C1600.53 235.707 1599.31 236.195 1597.76 236.195C1596.8 236.195 1595.96 235.971 1595.21 235.521C1594.47 235.072 1593.9 234.428 1593.49 233.588C1593.09 232.748 1592.89 231.765 1592.89 230.639C1592.89 228.894 1593.32 227.536 1594.2 226.566C1595.07 225.59 1596.28 225.102 1597.83 225.102C1599.33 225.102 1600.52 225.6 1601.39 226.596C1602.28 227.592 1602.72 228.939 1602.72 230.639ZM1594.57 230.639C1594.57 232.006 1594.84 233.048 1595.39 233.764C1595.94 234.48 1596.74 234.838 1597.8 234.838C1598.86 234.838 1599.67 234.483 1600.21 233.773C1600.77 233.057 1601.04 232.012 1601.04 230.639C1601.04 229.278 1600.77 228.246 1600.21 227.543C1599.67 226.833 1598.86 226.479 1597.78 226.479C1596.72 226.479 1595.92 226.827 1595.38 227.523C1594.84 228.22 1594.57 229.258 1594.57 230.639ZM1614.31 236L1612.35 229.721C1612.23 229.337 1612 228.464 1611.66 227.104H1611.58C1611.32 228.243 1611.09 229.122 1610.9 229.74L1608.88 236H1607L1604.08 225.297H1605.78C1606.47 227.986 1606.99 230.033 1607.35 231.439C1607.72 232.846 1607.92 233.793 1607.98 234.281H1608.05C1608.13 233.91 1608.24 233.432 1608.4 232.846C1608.56 232.253 1608.7 231.785 1608.82 231.439L1610.78 225.297H1612.54L1614.45 231.439C1614.82 232.559 1615.06 233.5 1615.19 234.262H1615.27C1615.3 234.027 1615.37 233.666 1615.48 233.178C1615.59 232.689 1616.27 230.062 1617.52 225.297H1619.2L1616.24 236H1614.31ZM1633.62 234.564H1633.53C1632.78 235.652 1631.66 236.195 1630.17 236.195C1628.77 236.195 1627.68 235.717 1626.9 234.76C1626.13 233.803 1625.74 232.442 1625.74 230.678C1625.74 228.913 1626.13 227.543 1626.91 226.566C1627.69 225.59 1628.78 225.102 1630.17 225.102C1631.63 225.102 1632.74 225.629 1633.51 226.684H1633.64L1633.57 225.912L1633.53 225.16V220.805H1635.15V236H1633.84L1633.62 234.564ZM1630.38 234.838C1631.49 234.838 1632.29 234.538 1632.78 233.939C1633.28 233.334 1633.53 232.361 1633.53 231.02V230.678C1633.53 229.161 1633.28 228.08 1632.77 227.436C1632.27 226.785 1631.47 226.459 1630.36 226.459C1629.41 226.459 1628.68 226.83 1628.17 227.572C1627.67 228.308 1627.42 229.35 1627.42 230.697C1627.42 232.064 1627.67 233.096 1628.17 233.793C1628.67 234.49 1629.41 234.838 1630.38 234.838ZM1647.84 230.639C1647.84 232.383 1647.4 233.747 1646.52 234.73C1645.64 235.707 1644.43 236.195 1642.88 236.195C1641.92 236.195 1641.07 235.971 1640.33 235.521C1639.59 235.072 1639.01 234.428 1638.61 233.588C1638.21 232.748 1638.01 231.765 1638.01 230.639C1638.01 228.894 1638.44 227.536 1639.31 226.566C1640.19 225.59 1641.4 225.102 1642.95 225.102C1644.44 225.102 1645.63 225.6 1646.51 226.596C1647.4 227.592 1647.84 228.939 1647.84 230.639ZM1639.69 230.639C1639.69 232.006 1639.96 233.048 1640.51 233.764C1641.05 234.48 1641.86 234.838 1642.92 234.838C1643.98 234.838 1644.78 234.483 1645.33 233.773C1645.88 233.057 1646.16 232.012 1646.16 230.639C1646.16 229.278 1645.88 228.246 1645.33 227.543C1644.78 226.833 1643.97 226.479 1642.9 226.479C1641.84 226.479 1641.04 226.827 1640.5 227.523C1639.96 228.22 1639.69 229.258 1639.69 230.639ZM1654.19 225.297H1655.93L1658.27 231.4C1658.78 232.794 1659.1 233.799 1659.23 234.418H1659.3C1659.39 234.086 1659.57 233.52 1659.83 232.719C1660.11 231.911 1660.99 229.438 1662.49 225.297H1664.23L1659.63 237.484C1659.17 238.689 1658.64 239.542 1658.03 240.043C1657.42 240.551 1656.67 240.805 1655.79 240.805C1655.29 240.805 1654.81 240.749 1654.32 240.639V239.34C1654.68 239.418 1655.08 239.457 1655.53 239.457C1656.64 239.457 1657.43 238.832 1657.91 237.582L1658.5 236.059L1654.19 225.297ZM1675.2 230.639C1675.2 232.383 1674.76 233.747 1673.88 234.73C1673.01 235.707 1671.79 236.195 1670.24 236.195C1669.29 236.195 1668.44 235.971 1667.69 235.521C1666.95 235.072 1666.38 234.428 1665.97 233.588C1665.57 232.748 1665.37 231.765 1665.37 230.639C1665.37 228.894 1665.81 227.536 1666.68 226.566C1667.55 225.59 1668.76 225.102 1670.31 225.102C1671.81 225.102 1673 225.6 1673.88 226.596C1674.76 227.592 1675.2 228.939 1675.2 230.639ZM1667.05 230.639C1667.05 232.006 1667.32 233.048 1667.87 233.764C1668.42 234.48 1669.22 234.838 1670.28 234.838C1671.34 234.838 1672.15 234.483 1672.69 233.773C1673.25 233.057 1673.52 232.012 1673.52 230.639C1673.52 229.278 1673.25 228.246 1672.69 227.543C1672.15 226.833 1671.34 226.479 1670.26 226.479C1669.2 226.479 1668.4 226.827 1667.86 227.523C1667.32 228.22 1667.05 229.258 1667.05 230.639ZM1679.58 225.297V232.24C1679.58 233.113 1679.78 233.764 1680.17 234.193C1680.57 234.623 1681.19 234.838 1682.04 234.838C1683.16 234.838 1683.98 234.532 1684.49 233.92C1685.01 233.308 1685.27 232.309 1685.27 230.922V225.297H1686.89V236H1685.55L1685.32 234.564H1685.23C1684.9 235.092 1684.44 235.495 1683.85 235.775C1683.26 236.055 1682.59 236.195 1681.83 236.195C1680.53 236.195 1679.56 235.886 1678.9 235.268C1678.26 234.649 1677.94 233.66 1677.94 232.299V225.297H1679.58ZM1587.46 264L1585.5 257.721C1585.37 257.337 1585.14 256.464 1584.8 255.104H1584.72C1584.46 256.243 1584.24 257.122 1584.04 257.74L1582.02 264H1580.14L1577.22 253.297H1578.92C1579.61 255.986 1580.14 258.033 1580.5 259.439C1580.86 260.846 1581.07 261.793 1581.12 262.281H1581.2C1581.27 261.91 1581.38 261.432 1581.54 260.846C1581.7 260.253 1581.84 259.785 1581.96 259.439L1583.92 253.297H1585.68L1587.6 259.439C1587.96 260.559 1588.21 261.5 1588.34 262.262H1588.42C1588.44 262.027 1588.51 261.666 1588.62 261.178C1588.74 260.689 1589.42 258.062 1590.66 253.297H1592.34L1589.38 264H1587.46ZM1600.87 264L1600.54 262.477H1600.47C1599.93 263.147 1599.4 263.603 1598.87 263.844C1598.34 264.078 1597.68 264.195 1596.88 264.195C1595.82 264.195 1594.99 263.922 1594.38 263.375C1593.78 262.828 1593.48 262.05 1593.48 261.041C1593.48 258.88 1595.21 257.747 1598.67 257.643L1600.49 257.584V256.92C1600.49 256.08 1600.3 255.462 1599.94 255.064C1599.58 254.661 1599.01 254.459 1598.21 254.459C1597.32 254.459 1596.31 254.732 1595.18 255.279L1594.69 254.039C1595.21 253.753 1595.79 253.528 1596.41 253.365C1597.05 253.202 1597.68 253.121 1598.31 253.121C1599.58 253.121 1600.53 253.404 1601.14 253.971C1601.76 254.537 1602.07 255.445 1602.07 256.695V264H1600.87ZM1597.21 262.857C1598.21 262.857 1599.01 262.581 1599.58 262.027C1600.16 261.474 1600.45 260.699 1600.45 259.703V258.736L1598.83 258.805C1597.54 258.85 1596.61 259.052 1596.03 259.41C1595.47 259.762 1595.18 260.312 1595.18 261.061C1595.18 261.646 1595.36 262.092 1595.71 262.398C1596.07 262.704 1596.57 262.857 1597.21 262.857ZM1612.74 264V257.076C1612.74 256.204 1612.54 255.553 1612.15 255.123C1611.75 254.693 1611.13 254.479 1610.28 254.479C1609.16 254.479 1608.34 254.781 1607.82 255.387C1607.3 255.992 1607.04 256.992 1607.04 258.385V264H1605.42V253.297H1606.74L1607 254.762H1607.08C1607.41 254.234 1607.88 253.827 1608.47 253.541C1609.07 253.248 1609.74 253.102 1610.48 253.102C1611.77 253.102 1612.74 253.414 1613.39 254.039C1614.04 254.658 1614.36 255.65 1614.36 257.018V264H1612.74ZM1621.16 262.857C1621.45 262.857 1621.72 262.838 1621.99 262.799C1622.26 262.753 1622.47 262.708 1622.62 262.662V263.902C1622.45 263.987 1622.19 264.055 1621.84 264.107C1621.51 264.166 1621.2 264.195 1620.93 264.195C1618.86 264.195 1617.82 263.105 1617.82 260.924V254.557H1616.29V253.775L1617.82 253.102L1618.5 250.816H1619.44V253.297H1622.55V254.557H1619.44V260.855C1619.44 261.5 1619.59 261.995 1619.9 262.34C1620.21 262.685 1620.63 262.857 1621.16 262.857ZM1633.43 262.857C1633.71 262.857 1633.99 262.838 1634.26 262.799C1634.52 262.753 1634.73 262.708 1634.89 262.662V263.902C1634.71 263.987 1634.45 264.055 1634.11 264.107C1633.77 264.166 1633.46 264.195 1633.19 264.195C1631.12 264.195 1630.09 263.105 1630.09 260.924V254.557H1628.55V253.775L1630.09 253.102L1630.77 250.816H1631.71V253.297H1634.81V254.557H1631.71V260.855C1631.71 261.5 1631.86 261.995 1632.17 262.34C1632.47 262.685 1632.89 262.857 1633.43 262.857ZM1646.28 258.639C1646.28 260.383 1645.84 261.747 1644.96 262.73C1644.08 263.707 1642.87 264.195 1641.32 264.195C1640.36 264.195 1639.51 263.971 1638.77 263.521C1638.03 263.072 1637.45 262.428 1637.05 261.588C1636.65 260.748 1636.44 259.765 1636.44 258.639C1636.44 256.894 1636.88 255.536 1637.75 254.566C1638.62 253.59 1639.84 253.102 1641.38 253.102C1642.88 253.102 1644.07 253.6 1644.95 254.596C1645.83 255.592 1646.28 256.939 1646.28 258.639ZM1638.12 258.639C1638.12 260.006 1638.4 261.048 1638.94 261.764C1639.49 262.48 1640.29 262.838 1641.36 262.838C1642.42 262.838 1643.22 262.483 1643.77 261.773C1644.32 261.057 1644.6 260.012 1644.6 258.639C1644.6 257.278 1644.32 256.246 1643.77 255.543C1643.22 254.833 1642.41 254.479 1641.34 254.479C1640.27 254.479 1639.47 254.827 1638.93 255.523C1638.39 256.22 1638.12 257.258 1638.12 258.639ZM1655.95 264H1654.32V253.297H1655.95V264ZM1654.19 250.396C1654.19 250.025 1654.28 249.755 1654.46 249.586C1654.64 249.41 1654.87 249.322 1655.14 249.322C1655.4 249.322 1655.63 249.41 1655.82 249.586C1656.01 249.762 1656.1 250.032 1656.1 250.396C1656.1 250.761 1656.01 251.035 1655.82 251.217C1655.63 251.393 1655.4 251.48 1655.14 251.48C1654.87 251.48 1654.64 251.393 1654.46 251.217C1654.28 251.035 1654.19 250.761 1654.19 250.396ZM1666.71 264V257.076C1666.71 256.204 1666.51 255.553 1666.11 255.123C1665.71 254.693 1665.09 254.479 1664.25 254.479C1663.13 254.479 1662.31 254.781 1661.79 255.387C1661.26 255.992 1661 256.992 1661 258.385V264H1659.38V253.297H1660.7L1660.96 254.762H1661.04C1661.38 254.234 1661.84 253.827 1662.44 253.541C1663.04 253.248 1663.71 253.102 1664.44 253.102C1665.73 253.102 1666.7 253.414 1667.35 254.039C1668 254.658 1668.33 255.65 1668.33 257.018V264H1666.71ZM1674.01 264L1669.95 253.297H1671.69L1673.99 259.645C1674.51 261.129 1674.82 262.092 1674.91 262.535H1674.99C1675.06 262.19 1675.28 261.477 1675.66 260.396C1676.05 259.309 1676.9 256.943 1678.23 253.297H1679.97L1675.91 264H1674.01ZM1686.21 264.195C1684.63 264.195 1683.38 263.714 1682.46 262.75C1681.55 261.786 1681.09 260.449 1681.09 258.736C1681.09 257.011 1681.51 255.641 1682.36 254.625C1683.21 253.609 1684.36 253.102 1685.79 253.102C1687.13 253.102 1688.19 253.544 1688.97 254.43C1689.75 255.309 1690.14 256.471 1690.14 257.916V258.941H1682.77C1682.8 260.198 1683.12 261.152 1683.72 261.803C1684.32 262.454 1685.17 262.779 1686.27 262.779C1687.42 262.779 1688.56 262.538 1689.69 262.057V263.502C1689.11 263.749 1688.57 263.925 1688.05 264.029C1687.55 264.14 1686.93 264.195 1686.21 264.195ZM1685.77 254.459C1684.91 254.459 1684.22 254.739 1683.71 255.299C1683.2 255.859 1682.9 256.633 1682.81 257.623H1688.41C1688.41 256.601 1688.18 255.82 1687.72 255.279C1687.27 254.732 1686.62 254.459 1685.77 254.459ZM1699.82 261.08C1699.82 262.076 1699.45 262.844 1698.71 263.385C1697.97 263.925 1696.93 264.195 1695.58 264.195C1694.16 264.195 1693.06 263.971 1692.26 263.521V262.018C1692.78 262.278 1693.33 262.483 1693.91 262.633C1694.51 262.783 1695.08 262.857 1695.62 262.857C1696.47 262.857 1697.12 262.724 1697.58 262.457C1698.03 262.184 1698.26 261.77 1698.26 261.217C1698.26 260.8 1698.08 260.445 1697.71 260.152C1697.35 259.853 1696.65 259.501 1695.6 259.098C1694.61 258.727 1693.9 258.404 1693.47 258.131C1693.06 257.851 1692.75 257.535 1692.54 257.184C1692.34 256.832 1692.23 256.412 1692.23 255.924C1692.23 255.051 1692.59 254.365 1693.3 253.863C1694.01 253.355 1694.98 253.102 1696.22 253.102C1697.37 253.102 1698.5 253.336 1699.6 253.805L1699.02 255.123C1697.95 254.68 1696.97 254.459 1696.1 254.459C1695.33 254.459 1694.75 254.579 1694.36 254.82C1693.97 255.061 1693.78 255.393 1693.78 255.816C1693.78 256.103 1693.85 256.347 1693.99 256.549C1694.14 256.751 1694.38 256.943 1694.71 257.125C1695.03 257.307 1695.66 257.571 1696.58 257.916C1697.85 258.378 1698.71 258.844 1699.15 259.312C1699.6 259.781 1699.82 260.37 1699.82 261.08ZM1705.93 262.857C1706.21 262.857 1706.49 262.838 1706.76 262.799C1707.02 262.753 1707.23 262.708 1707.39 262.662V263.902C1707.21 263.987 1706.95 264.055 1706.61 264.107C1706.27 264.166 1705.96 264.195 1705.69 264.195C1703.62 264.195 1702.59 263.105 1702.59 260.924V254.557H1701.05V253.775L1702.59 253.102L1703.27 250.816H1704.21V253.297H1707.31V254.557H1704.21V260.855C1704.21 261.5 1704.36 261.995 1704.67 262.34C1704.97 262.685 1705.39 262.857 1705.93 262.857ZM1710.64 260.064V259.537C1710.64 258.775 1710.76 258.15 1710.99 257.662C1711.23 257.167 1711.66 256.646 1712.3 256.1C1713.19 255.351 1713.74 254.788 1713.97 254.41C1714.21 254.033 1714.32 253.577 1714.32 253.043C1714.32 252.379 1714.11 251.868 1713.68 251.51C1713.26 251.145 1712.64 250.963 1711.84 250.963C1711.33 250.963 1710.83 251.025 1710.34 251.148C1709.85 251.266 1709.29 251.484 1708.66 251.803L1708.08 250.484C1709.31 249.84 1710.6 249.518 1711.94 249.518C1713.18 249.518 1714.15 249.824 1714.84 250.436C1715.53 251.048 1715.88 251.91 1715.88 253.023C1715.88 253.499 1715.81 253.919 1715.68 254.283C1715.56 254.641 1715.37 254.983 1715.12 255.309C1714.88 255.628 1714.34 256.145 1713.52 256.861C1712.87 257.421 1712.43 257.887 1712.21 258.258C1712.01 258.629 1711.9 259.124 1711.9 259.742V260.064H1710.64ZM1710.16 262.965C1710.16 262.079 1710.55 261.637 1711.34 261.637C1711.71 261.637 1712 261.751 1712.21 261.979C1712.41 262.206 1712.52 262.535 1712.52 262.965C1712.52 263.382 1712.41 263.707 1712.21 263.941C1712 264.169 1711.71 264.283 1711.34 264.283C1711 264.283 1710.72 264.182 1710.5 263.98C1710.27 263.772 1710.16 263.434 1710.16 262.965Z" fill="#4D4D4D"/>
<rect x="612" y="180" width="200" height="83" rx="19" fill="#ECF1FF" stroke="#5A57FF" stroke-width="2"/>
<path d="M640.112 210H638.362V200.793H635.212V199.292H643.262V200.793H640.112V210ZM651.553 210L650.483 207.026H646.389L645.342 210H643.496L647.502 199.248H649.407L653.413 210H651.553ZM650.022 205.518L649.019 202.603C648.945 202.407 648.843 202.1 648.711 201.68C648.584 201.26 648.496 200.952 648.447 200.757C648.315 201.357 648.123 202.014 647.869 202.727L646.902 205.518H650.022ZM661.917 202.529C661.917 203.647 661.55 204.504 660.818 205.1C660.085 205.696 659.043 205.994 657.69 205.994H656.577V210H654.827V199.292H657.91C659.248 199.292 660.249 199.565 660.913 200.112C661.582 200.659 661.917 201.465 661.917 202.529ZM656.577 204.521H657.507C658.406 204.521 659.065 204.365 659.485 204.053C659.905 203.74 660.115 203.252 660.115 202.588C660.115 201.973 659.927 201.514 659.551 201.211C659.175 200.908 658.589 200.757 657.793 200.757H656.577V204.521ZM669.761 202.8C670.02 201.809 670.454 200.64 671.064 199.292H672.31C671.973 200.737 671.729 201.96 671.577 202.961H669.871L669.761 202.8ZM666.721 202.8C666.819 202.395 666.992 201.848 667.241 201.16C667.49 200.471 667.747 199.849 668.01 199.292H669.255C668.943 200.542 668.696 201.765 668.516 202.961H666.809L666.721 202.8ZM681.003 202.529C681.003 203.647 680.637 204.504 679.905 205.1C679.172 205.696 678.13 205.994 676.777 205.994H675.664V210H673.914V199.292H676.997C678.335 199.292 679.336 199.565 680 200.112C680.669 200.659 681.003 201.465 681.003 202.529ZM675.664 204.521H676.594C677.493 204.521 678.152 204.365 678.572 204.053C678.992 203.74 679.202 203.252 679.202 202.588C679.202 201.973 679.014 201.514 678.638 201.211C678.262 200.908 677.676 200.757 676.88 200.757H675.664V204.521ZM692.649 204.631C692.649 206.375 692.212 207.729 691.338 208.696C690.469 209.663 689.236 210.146 687.639 210.146C686.023 210.146 684.78 209.668 683.911 208.711C683.047 207.749 682.615 206.384 682.615 204.617C682.615 202.849 683.049 201.492 683.918 200.544C684.792 199.597 686.038 199.124 687.654 199.124C689.246 199.124 690.476 199.604 691.345 200.566C692.214 201.528 692.649 202.883 692.649 204.631ZM684.475 204.631C684.475 205.95 684.741 206.951 685.273 207.634C685.806 208.313 686.594 208.652 687.639 208.652C688.679 208.652 689.463 208.315 689.99 207.642C690.522 206.968 690.789 205.964 690.789 204.631C690.789 203.318 690.525 202.322 689.998 201.643C689.475 200.964 688.694 200.625 687.654 200.625C686.604 200.625 685.811 200.964 685.273 201.643C684.741 202.322 684.475 203.318 684.475 204.631ZM696.699 204.272H697.915C698.73 204.272 699.321 204.121 699.688 203.818C700.054 203.516 700.237 203.066 700.237 202.471C700.237 201.865 700.039 201.431 699.644 201.167C699.248 200.903 698.652 200.771 697.856 200.771H696.699V204.272ZM696.699 205.723V210H694.949V199.292H697.974C699.355 199.292 700.378 199.551 701.042 200.068C701.707 200.586 702.039 201.367 702.039 202.412C702.039 203.745 701.345 204.695 699.958 205.261L702.983 210H700.991L698.428 205.723H696.699ZM708.242 210H706.492V200.793H703.342V199.292H711.392V200.793H708.242V210ZM714.775 210H713.04V199.292H719.082V200.771H714.775V204.119H718.811V205.605H714.775V210ZM730.53 204.631C730.53 206.375 730.093 207.729 729.219 208.696C728.35 209.663 727.117 210.146 725.52 210.146C723.904 210.146 722.661 209.668 721.792 208.711C720.928 207.749 720.496 206.384 720.496 204.617C720.496 202.849 720.93 201.492 721.799 200.544C722.673 199.597 723.918 199.124 725.535 199.124C727.126 199.124 728.357 199.604 729.226 200.566C730.095 201.528 730.53 202.883 730.53 204.631ZM722.356 204.631C722.356 205.95 722.622 206.951 723.154 207.634C723.687 208.313 724.475 208.652 725.52 208.652C726.56 208.652 727.344 208.315 727.871 207.642C728.403 206.968 728.669 205.964 728.669 204.631C728.669 203.318 728.406 202.322 727.878 201.643C727.356 200.964 726.575 200.625 725.535 200.625C724.485 200.625 723.691 200.964 723.154 201.643C722.622 202.322 722.356 203.318 722.356 204.631ZM732.83 210V199.292H734.58V208.499H739.114V210H732.83ZM740.959 210V199.292H742.71V210H740.959ZM755.051 204.631C755.051 206.375 754.614 207.729 753.74 208.696C752.871 209.663 751.638 210.146 750.042 210.146C748.425 210.146 747.183 209.668 746.313 208.711C745.449 207.749 745.017 206.384 745.017 204.617C745.017 202.849 745.452 201.492 746.321 200.544C747.195 199.597 748.44 199.124 750.056 199.124C751.648 199.124 752.878 199.604 753.748 200.566C754.617 201.528 755.051 202.883 755.051 204.631ZM746.877 204.631C746.877 205.95 747.144 206.951 747.676 207.634C748.208 208.313 748.997 208.652 750.042 208.652C751.082 208.652 751.865 208.315 752.393 207.642C752.925 206.968 753.191 205.964 753.191 204.631C753.191 203.318 752.927 202.322 752.4 201.643C751.877 200.964 751.096 200.625 750.056 200.625C749.006 200.625 748.213 200.964 747.676 201.643C747.144 202.322 746.877 203.318 746.877 204.631ZM758.655 199.453C758.396 200.474 757.966 201.643 757.366 202.961H756.121C756.458 201.55 756.702 200.327 756.853 199.292H758.545L758.655 199.453ZM761.709 199.453C761.45 200.474 761.021 201.643 760.42 202.961H759.16C759.497 201.638 759.749 200.415 759.915 199.292H761.606L761.709 199.453ZM640.112 230H638.362V220.793H635.212V219.292H643.262V220.793H640.112V230ZM651.553 230L650.483 227.026H646.389L645.342 230H643.496L647.502 219.248H649.407L653.413 230H651.553ZM650.022 225.518L649.019 222.603C648.945 222.407 648.843 222.1 648.711 221.68C648.584 221.26 648.496 220.952 648.447 220.757C648.315 221.357 648.123 222.014 647.869 222.727L646.902 225.518H650.022ZM654.827 219.292H658.005C659.48 219.292 660.544 219.507 661.199 219.937C661.858 220.366 662.188 221.045 662.188 221.973C662.188 222.598 662.026 223.118 661.704 223.533C661.382 223.948 660.918 224.209 660.312 224.316V224.39C661.064 224.531 661.616 224.812 661.968 225.232C662.324 225.647 662.502 226.211 662.502 226.924C662.502 227.886 662.166 228.64 661.492 229.187C660.823 229.729 659.89 230 658.694 230H654.827V219.292ZM656.577 223.716H658.262C658.994 223.716 659.529 223.601 659.866 223.372C660.203 223.137 660.371 222.742 660.371 222.185C660.371 221.682 660.188 221.318 659.822 221.094C659.46 220.869 658.884 220.757 658.093 220.757H656.577V223.716ZM656.577 225.137V228.528H658.438C659.17 228.528 659.722 228.389 660.093 228.11C660.469 227.827 660.657 227.383 660.657 226.777C660.657 226.221 660.466 225.808 660.085 225.54C659.705 225.271 659.126 225.137 658.35 225.137H656.577Z" fill="#4D4D4D"/>
<rect x="1232" y="180" width="200" height="83" rx="19" fill="#ECF1FF" stroke="#5A57FF" stroke-width="2"/>
<path d="M1260.11 210H1258.36V200.793H1255.21V199.292H1263.26V200.793H1260.11V210ZM1271.55 210L1270.48 207.026H1266.39L1265.34 210H1263.5L1267.5 199.248H1269.41L1273.41 210H1271.55ZM1270.02 205.518L1269.02 202.603C1268.95 202.407 1268.84 202.1 1268.71 201.68C1268.58 201.26 1268.5 200.952 1268.45 200.757C1268.32 201.357 1268.12 202.014 1267.87 202.727L1266.9 205.518H1270.02ZM1281.92 202.529C1281.92 203.647 1281.55 204.504 1280.82 205.1C1280.09 205.696 1279.04 205.994 1277.69 205.994H1276.58V210H1274.83V199.292H1277.91C1279.25 199.292 1280.25 199.565 1280.91 200.112C1281.58 200.659 1281.92 201.465 1281.92 202.529ZM1276.58 204.521H1277.51C1278.41 204.521 1279.06 204.365 1279.48 204.053C1279.9 203.74 1280.11 203.252 1280.11 202.588C1280.11 201.973 1279.93 201.514 1279.55 201.211C1279.17 200.908 1278.59 200.757 1277.79 200.757H1276.58V204.521ZM1289.76 202.8C1290.02 201.809 1290.45 200.64 1291.06 199.292H1292.31C1291.97 200.737 1291.73 201.96 1291.58 202.961H1289.87L1289.76 202.8ZM1286.72 202.8C1286.82 202.395 1286.99 201.848 1287.24 201.16C1287.49 200.471 1287.75 199.849 1288.01 199.292H1289.26C1288.94 200.542 1288.7 201.765 1288.52 202.961H1286.81L1286.72 202.8ZM1302.31 199.292V206.221C1302.31 207.012 1302.14 207.705 1301.79 208.301C1301.46 208.892 1300.97 209.348 1300.32 209.67C1299.68 209.988 1298.92 210.146 1298.02 210.146C1296.69 210.146 1295.66 209.795 1294.92 209.092C1294.19 208.389 1293.82 207.422 1293.82 206.191V199.292H1295.58V206.067C1295.58 206.951 1295.78 207.603 1296.19 208.022C1296.6 208.442 1297.23 208.652 1298.08 208.652C1299.73 208.652 1300.56 207.786 1300.56 206.052V199.292H1302.31ZM1312.14 202.529C1312.14 203.647 1311.77 204.504 1311.04 205.1C1310.31 205.696 1309.26 205.994 1307.91 205.994H1306.8V210H1305.05V199.292H1308.13C1309.47 199.292 1310.47 199.565 1311.13 200.112C1311.8 200.659 1312.14 201.465 1312.14 202.529ZM1306.8 204.521H1307.73C1308.63 204.521 1309.28 204.365 1309.7 204.053C1310.12 203.74 1310.33 203.252 1310.33 202.588C1310.33 201.973 1310.15 201.514 1309.77 201.211C1309.39 200.908 1308.81 200.757 1308.01 200.757H1306.8V204.521ZM1322.98 204.543C1322.98 206.311 1322.49 207.664 1321.51 208.601C1320.53 209.534 1319.12 210 1317.27 210H1314.27V199.292H1317.59C1319.29 199.292 1320.62 199.751 1321.56 200.669C1322.51 201.587 1322.98 202.878 1322.98 204.543ZM1321.14 204.602C1321.14 202.039 1319.94 200.757 1317.54 200.757H1316.03V208.528H1317.27C1319.85 208.528 1321.14 207.219 1321.14 204.602ZM1331.93 210L1330.86 207.026H1326.77L1325.72 210H1323.88L1327.88 199.248H1329.79L1333.79 210H1331.93ZM1330.4 205.518L1329.4 202.603C1329.33 202.407 1329.22 202.1 1329.09 201.68C1328.96 201.26 1328.88 200.952 1328.83 200.757C1328.7 201.357 1328.5 202.014 1328.25 202.727L1327.28 205.518H1330.4ZM1338.91 210H1337.16V200.793H1334.01V199.292H1342.06V200.793H1338.91V210ZM1349.76 210H1343.7V199.292H1349.76V200.771H1345.45V203.687H1349.49V205.151H1345.45V208.513H1349.76V210ZM1256.41 230V219.292H1258.16V230H1256.41ZM1269.92 230H1267.77L1262.51 221.467H1262.45L1262.49 221.943C1262.55 222.852 1262.59 223.682 1262.59 224.434V230H1261V219.292H1263.12L1268.37 227.781H1268.42C1268.41 227.668 1268.39 227.261 1268.36 226.558C1268.33 225.85 1268.32 225.298 1268.32 224.902V219.292H1269.92V230ZM1278.85 219.292H1280.66L1276.91 230H1275.07L1271.33 219.292H1273.13L1275.37 225.95C1275.49 226.267 1275.61 226.677 1275.74 227.18C1275.87 227.678 1275.96 228.049 1276 228.293C1276.06 227.922 1276.16 227.493 1276.29 227.004C1276.42 226.516 1276.53 226.155 1276.61 225.92L1278.85 219.292ZM1288.13 230H1282.08V219.292H1288.13V220.771H1283.83V223.687H1287.86V225.151H1283.83V228.513H1288.13V230ZM1296.63 227.092C1296.63 228.044 1296.29 228.792 1295.6 229.333C1294.91 229.875 1293.96 230.146 1292.75 230.146C1291.54 230.146 1290.55 229.958 1289.78 229.583V227.927C1290.26 228.157 1290.78 228.337 1291.33 228.469C1291.88 228.601 1292.39 228.667 1292.87 228.667C1293.56 228.667 1294.07 228.535 1294.4 228.271C1294.73 228.008 1294.9 227.654 1294.9 227.209C1294.9 226.809 1294.74 226.47 1294.44 226.191C1294.14 225.913 1293.51 225.583 1292.57 225.203C1291.59 224.807 1290.9 224.355 1290.5 223.848C1290.1 223.34 1289.9 222.729 1289.9 222.017C1289.9 221.123 1290.22 220.42 1290.85 219.907C1291.49 219.395 1292.34 219.138 1293.41 219.138C1294.43 219.138 1295.45 219.363 1296.47 219.812L1295.91 221.24C1294.96 220.84 1294.11 220.64 1293.36 220.64C1292.8 220.64 1292.37 220.764 1292.08 221.013C1291.78 221.257 1291.64 221.582 1291.64 221.987C1291.64 222.266 1291.69 222.505 1291.81 222.705C1291.93 222.9 1292.12 223.086 1292.39 223.262C1292.66 223.438 1293.14 223.669 1293.84 223.958C1294.63 224.285 1295.2 224.59 1295.57 224.873C1295.94 225.156 1296.2 225.476 1296.37 225.833C1296.55 226.189 1296.63 226.609 1296.63 227.092ZM1302.4 230H1300.65V220.793H1297.5V219.292H1305.55V220.793H1302.4V230ZM1311.83 230L1308.72 221.057H1308.66C1308.75 222.385 1308.79 223.63 1308.79 224.792V230H1307.2V219.292H1309.67L1312.64 227.81H1312.69L1315.75 219.292H1318.22V230H1316.54V224.705C1316.54 224.172 1316.55 223.479 1316.57 222.625C1316.6 221.77 1316.63 221.252 1316.65 221.072H1316.59L1313.37 230H1311.83ZM1327.1 230H1321.04V219.292H1327.1V220.771H1322.79V223.687H1326.83V225.151H1322.79V228.513H1327.1V230ZM1338.34 230H1336.2L1330.93 221.467H1330.87L1330.91 221.943C1330.98 222.852 1331.01 223.682 1331.01 224.434V230H1329.42V219.292H1331.55L1336.8 227.781H1336.84C1336.83 227.668 1336.81 227.261 1336.78 226.558C1336.75 225.85 1336.74 225.298 1336.74 224.902V219.292H1338.34V230ZM1344.87 230H1343.12V220.793H1339.97V219.292H1348.02V220.793H1344.87V230ZM1355.84 227.092C1355.84 228.044 1355.5 228.792 1354.81 229.333C1354.12 229.875 1353.17 230.146 1351.96 230.146C1350.75 230.146 1349.76 229.958 1348.98 229.583V227.927C1349.47 228.157 1349.99 228.337 1350.54 228.469C1351.09 228.601 1351.6 228.667 1352.08 228.667C1352.77 228.667 1353.28 228.535 1353.61 228.271C1353.94 228.008 1354.1 227.654 1354.1 227.209C1354.1 226.809 1353.95 226.47 1353.65 226.191C1353.35 225.913 1352.72 225.583 1351.77 225.203C1350.8 224.807 1350.11 224.355 1349.71 223.848C1349.31 223.34 1349.11 222.729 1349.11 222.017C1349.11 221.123 1349.43 220.42 1350.06 219.907C1350.7 219.395 1351.55 219.138 1352.62 219.138C1353.64 219.138 1354.66 219.363 1355.68 219.812L1355.12 221.24C1354.17 220.84 1353.32 220.64 1352.57 220.64C1352.01 220.64 1351.58 220.764 1351.28 221.013C1350.99 221.257 1350.84 221.582 1350.84 221.987C1350.84 222.266 1350.9 222.505 1351.02 222.705C1351.14 222.9 1351.33 223.086 1351.6 223.262C1351.87 223.438 1352.35 223.669 1353.05 223.958C1353.84 224.285 1354.41 224.59 1354.78 224.873C1355.14 225.156 1355.41 225.476 1355.58 225.833C1355.75 226.189 1355.84 226.609 1355.84 227.092ZM1359.22 219.453C1358.96 220.474 1358.53 221.643 1357.93 222.961H1356.68C1357.02 221.55 1357.26 220.327 1357.41 219.292H1359.11L1359.22 219.453ZM1362.27 219.453C1362.01 220.474 1361.58 221.643 1360.98 222.961H1359.72C1360.06 221.638 1360.31 220.415 1360.48 219.292H1362.17L1362.27 219.453Z" fill="#4D4D4D"/>
</svg>
